M48
; DRILL file {KiCad 7.0.8} date Tue Feb 13 18:26:08 2024
; FORMAT={-:-/ absolute / inch / decimal}
; #@! TF.CreationDate,2024-02-13T18:26:08+01:00
; #@! TF.GenerationSoftware,Kicad,Pcbnew,7.0.8
; #@! TF.FileFunction,Plated,1,2,PTH
FMAT,2
INCH
; #@! TA.AperFunction,Plated,PTH,ComponentDrill
T1C0.0217
; #@! TA.AperFunction,Plated,PTH,ComponentDrill
T2C0.0236
; #@! TA.AperFunction,Plated,PTH,ComponentDrill
T3C0.0315
; #@! TA.AperFunction,Plated,PTH,ComponentDrill
T4C0.0354
; #@! TA.AperFunction,Plated,PTH,ComponentDrill
T5C0.0374
; #@! TA.AperFunction,Plated,PTH,ComponentDrill
T6C0.0394
; #@! TA.AperFunction,Plated,PTH,ComponentDrill
T7C0.0394
; #@! TA.AperFunction,Plated,PTH,ComponentDrill
T8C0.0433
; #@! TA.AperFunction,Plated,PTH,ComponentDrill
T9C0.0728
; #@! TA.AperFunction,Plated,PTH,ComponentDrill
T10C0.0866
%
G90
G05
T2
X2.9134Y-3.3366
X2.9134Y-3.4154
X3.622Y-3.3366
X3.622Y-3.4154
X4.3307Y-3.3366
X4.3307Y-3.4154
X5.0394Y-3.3366
X5.0394Y-3.4154
X5.3307Y-2.3248
X5.4094Y-2.3248
X5.748Y-3.3366
X5.748Y-3.4154
X6.4567Y-3.3366
X6.4567Y-3.4154
T3
X2.0358Y-4.3287
X2.4311Y-3.3366
X2.4311Y-3.4366
X2.4311Y-3.5366
X2.4311Y-3.6366
X2.4311Y-3.7366
X2.4311Y-3.8366
X2.4311Y-3.9366
X2.6358Y-4.3287
X2.7311Y-3.3366
X2.7311Y-3.4366
X2.7311Y-3.5366
X2.7311Y-3.6366
X2.7311Y-3.7366
X2.7311Y-3.8366
X2.7311Y-3.9366
X2.8232Y-4.3287
X3.1398Y-3.3366
X3.1398Y-3.4366
X3.1398Y-3.5366
X3.1398Y-3.6366
X3.1398Y-3.7366
X3.1398Y-3.8366
X3.1398Y-3.9366
X3.4232Y-4.3287
X3.4398Y-3.3366
X3.4398Y-3.4366
X3.4398Y-3.5366
X3.4398Y-3.6366
X3.4398Y-3.7366
X3.4398Y-3.8366
X3.4398Y-3.9366
X3.6106Y-4.3287
X3.7083Y-2.0453
X3.7091Y-2.1909
X3.7098Y-2.3366
X3.8484Y-3.3366
X3.8484Y-3.4366
X3.8484Y-3.5366
X3.8484Y-3.6366
X3.8484Y-3.7366
X3.8484Y-3.8366
X3.8484Y-3.9366
X4.1484Y-3.3366
X4.1484Y-3.4366
X4.1484Y-3.5366
X4.1484Y-3.6366
X4.1484Y-3.7366
X4.1484Y-3.8366
X4.1484Y-3.9366
X4.2106Y-4.3287
X4.3083Y-2.0453
X4.3091Y-2.1909
X4.3098Y-2.3366
X4.398Y-4.3287
X4.4185Y-2.0453
X4.4185Y-2.1909
X4.4185Y-2.3366
X4.5571Y-3.3366
X4.5571Y-3.4366
X4.5571Y-3.5366
X4.5571Y-3.6366
X4.5571Y-3.7366
X4.5571Y-3.8366
X4.5571Y-3.9366
X4.8571Y-3.3366
X4.8571Y-3.4366
X4.8571Y-3.5366
X4.8571Y-3.6366
X4.8571Y-3.7366
X4.8571Y-3.8366
X4.8571Y-3.9366
X4.998Y-4.3287
X5.0185Y-2.0453
X5.0185Y-2.1909
X5.0185Y-2.3366
X5.1854Y-4.3287
X5.2657Y-3.3366
X5.2657Y-3.4366
X5.2657Y-3.5366
X5.2657Y-3.6366
X5.2657Y-3.7366
X5.2657Y-3.8366
X5.2657Y-3.9366
X5.5657Y-3.3366
X5.5657Y-3.4366
X5.5657Y-3.5366
X5.5657Y-3.6366
X5.5657Y-3.7366
X5.5657Y-3.8366
X5.5657Y-3.9366
X5.7854Y-4.3287
X5.9728Y-4.3287
X5.9744Y-3.3366
X5.9744Y-3.4366
X5.9744Y-3.5366
X5.9744Y-3.6366
X5.9744Y-3.7366
X5.9744Y-3.8366
X5.9744Y-3.9366
X6.2744Y-3.3366
X6.2744Y-3.4366
X6.2744Y-3.5366
X6.2744Y-3.6366
X6.2744Y-3.7366
X6.2744Y-3.8366
X6.2744Y-3.9366
X6.5728Y-4.3287
T4
X2.4768Y-4.5256
X2.5768Y-4.5256
X3.2642Y-4.5256
X3.3642Y-4.5256
X4.0516Y-4.5256
X4.1516Y-4.5256
X4.839Y-4.5256
X4.939Y-4.5256
X5.6264Y-4.5256
X5.7264Y-4.5256
X6.4138Y-4.5256
X6.5138Y-4.5256
T5
X3.1496Y-3.0512
X3.248Y-3.0512
X3.3465Y-3.0512
X3.4449Y-3.0512
X3.5433Y-3.0512
X3.6417Y-3.0512
X3.937Y-2.7559
X3.937Y-3.0512
X4.0354Y-2.7559
X4.0354Y-3.0512
X4.1339Y-2.7559
X4.1339Y-3.0512
X4.2323Y-2.7559
X4.2323Y-3.0512
X4.3307Y-2.7559
X4.3307Y-3.0512
X4.4291Y-2.7559
X4.4291Y-3.0512
X4.7244Y-2.7559
X4.7244Y-3.0512
X4.8228Y-2.7559
X4.8228Y-3.0512
X4.9213Y-2.7559
X4.9213Y-3.0512
X5.0197Y-2.7559
X5.0197Y-3.0512
X5.1181Y-2.7559
X5.1181Y-3.0512
X5.2165Y-2.7559
X5.2165Y-3.0512
X5.5118Y-2.7559
X5.5118Y-3.0512
X5.6102Y-2.7559
X5.6102Y-3.0512
X5.7087Y-2.7559
X5.7087Y-3.0512
X5.7146Y-2.1673
X5.8071Y-2.7559
X5.8071Y-3.0512
X5.813Y-2.1673
X5.9055Y-2.7559
X5.9055Y-3.0512
X5.9114Y-2.1673
X6.0039Y-2.7559
X6.0039Y-3.0512
T6
X2.7559Y-2.1654
X2.7559Y-2.4606
X2.7559Y-2.7559
X2.7559Y-3.0512
X2.8543Y-2.1654
X2.8543Y-2.4606
X2.8543Y-2.7559
X2.8543Y-3.0512
X3.189Y-2.1654
X3.189Y-2.4606
X3.189Y-2.7559
X3.2874Y-2.1654
X3.2874Y-2.4606
X3.2874Y-2.7559
T7
X2.2047Y-2.4528
X2.3031Y-2.4528
T8
X5.2311Y-2.1004
X5.3311Y-2.1004
X5.4311Y-2.1004
T9
X2.0768Y-4.7579
X2.2894Y-4.7579
X2.8642Y-4.7579
X3.0768Y-4.7579
X3.6516Y-4.7579
X3.8642Y-4.7579
X4.439Y-4.7579
X4.6516Y-4.7579
X5.2264Y-4.7579
X5.439Y-4.7579
X6.0138Y-4.7579
X6.2264Y-4.7579
T10
X2.1024Y-2.2849
X2.5039Y-2.2849
T1
G00X2.0831Y-4.4382
M15
G01X2.0831Y-4.4776
M16
G05
G00X2.0831Y-4.5382
M15
G01X2.0831Y-4.5776
M16
G05
G00X2.1831Y-4.4382
M15
G01X2.1831Y-4.4776
M16
G05
G00X2.1831Y-4.5382
M15
G01X2.1831Y-4.5776
M16
G05
G00X2.2831Y-4.4382
M15
G01X2.2831Y-4.4776
M16
G05
G00X2.2831Y-4.5382
M15
G01X2.2831Y-4.5776
M16
G05
G00X2.8705Y-4.4382
M15
G01X2.8705Y-4.4776
M16
G05
G00X2.8705Y-4.5382
M15
G01X2.8705Y-4.5776
M16
G05
G00X2.9705Y-4.4382
M15
G01X2.9705Y-4.4776
M16
G05
G00X2.9705Y-4.5382
M15
G01X2.9705Y-4.5776
M16
G05
G00X3.0705Y-4.4382
M15
G01X3.0705Y-4.4776
M16
G05
G00X3.0705Y-4.5382
M15
G01X3.0705Y-4.5776
M16
G05
G00X3.6579Y-4.4382
M15
G01X3.6579Y-4.4776
M16
G05
G00X3.6579Y-4.5382
M15
G01X3.6579Y-4.5776
M16
G05
G00X3.7579Y-4.4382
M15
G01X3.7579Y-4.4776
M16
G05
G00X3.7579Y-4.5382
M15
G01X3.7579Y-4.5776
M16
G05
G00X3.8579Y-4.4382
M15
G01X3.8579Y-4.4776
M16
G05
G00X3.8579Y-4.5382
M15
G01X3.8579Y-4.5776
M16
G05
G00X4.4453Y-4.4382
M15
G01X4.4453Y-4.4776
M16
G05
G00X4.4453Y-4.5382
M15
G01X4.4453Y-4.5776
M16
G05
G00X4.5453Y-4.4382
M15
G01X4.5453Y-4.4776
M16
G05
G00X4.5453Y-4.5382
M15
G01X4.5453Y-4.5776
M16
G05
G00X4.6453Y-4.4382
M15
G01X4.6453Y-4.4776
M16
G05
G00X4.6453Y-4.5382
M15
G01X4.6453Y-4.5776
M16
G05
G00X5.2327Y-4.4382
M15
G01X5.2327Y-4.4776
M16
G05
G00X5.2327Y-4.5382
M15
G01X5.2327Y-4.5776
M16
G05
G00X5.3327Y-4.4382
M15
G01X5.3327Y-4.4776
M16
G05
G00X5.3327Y-4.5382
M15
G01X5.3327Y-4.5776
M16
G05
G00X5.4327Y-4.4382
M15
G01X5.4327Y-4.4776
M16
G05
G00X5.4327Y-4.5382
M15
G01X5.4327Y-4.5776
M16
G05
G00X6.0201Y-4.4382
M15
G01X6.0201Y-4.4776
M16
G05
G00X6.0201Y-4.5382
M15
G01X6.0201Y-4.5776
M16
G05
G00X6.1201Y-4.4382
M15
G01X6.1201Y-4.4776
M16
G05
G00X6.1201Y-4.5382
M15
G01X6.1201Y-4.5776
M16
G05
G00X6.2201Y-4.4382
M15
G01X6.2201Y-4.4776
M16
G05
G00X6.2201Y-4.5382
M15
G01X6.2201Y-4.5776
M16
G05
T6
G00X6.2185Y-2.2047
M15
G01X6.2185Y-2.2835
M16
G05
G00X6.4429Y-2.126
M15
G01X6.3642Y-2.126
M16
G05
G00X6.4429Y-2.3622
M15
G01X6.3642Y-2.3622
M16
G05
T0
M30
