M48
; DRILL file {KiCad 7.0.8} date Sun Feb 11 23:31:27 2024
; FORMAT={-:-/ absolute / inch / decimal}
; #@! TF.CreationDate,2024-02-11T23:31:27+01:00
; #@! TF.GenerationSoftware,Kicad,Pcbnew,7.0.8
; #@! TF.FileFunction,Plated,1,2,PTH
FMAT,2
INCH
; #@! TA.AperFunction,Plated,PTH,ComponentDrill
T1C0.0374
; #@! TA.AperFunction,Plated,PTH,ComponentDrill
T2C0.0394
; #@! TA.AperFunction,Plated,PTH,ComponentDrill
T3C0.0866
%
G90
G05
T1
X2.6575Y-2.3425
X2.7559Y-2.3425
X2.8543Y-2.3425
X2.9528Y-2.3425
X3.0512Y-2.3425
X3.1496Y-2.3425
X3.248Y-2.3425
X3.5433Y-2.3425
X3.6417Y-2.3425
X3.7402Y-2.3425
X3.8386Y-2.3425
X3.937Y-2.3425
X4.0354Y-2.3425
X4.1339Y-2.3425
X4.4291Y-2.3425
X4.5276Y-2.3425
X4.626Y-2.3425
X4.7244Y-2.3425
X4.8228Y-2.3425
X4.9213Y-2.3425
X5.0197Y-2.3425
X5.3346Y-2.3425
X5.4331Y-2.3425
X5.5315Y-2.3425
X5.6299Y-2.3425
X5.7283Y-2.3425
X5.8268Y-2.3425
X5.9252Y-2.3425
T2
X2.3543Y-2.8622
X2.4527Y-2.8622
X3.1417Y-2.8622
X3.2401Y-2.8622
X3.9291Y-2.8622
X4.0275Y-2.8622
X4.7165Y-2.8622
X4.8149Y-2.8622
X5.5039Y-2.8622
X5.6023Y-2.8622
X6.2913Y-2.8622
X6.3897Y-2.8622
T3
X2.1535Y-3.0301
X2.555Y-3.0301
X2.9409Y-3.0301
X3.3424Y-3.0301
X3.7283Y-3.0301
X4.1298Y-3.0301
X4.5157Y-3.0301
X4.9172Y-3.0301
X5.3031Y-3.0301
X5.7046Y-3.0301
X6.0905Y-3.0301
X6.492Y-3.0301
T0
M30
