%TF.GenerationSoftware,KiCad,Pcbnew,7.0.8*%
%TF.CreationDate,2024-02-11T23:31:29+01:00*%
%TF.ProjectId,BlankingRelay_Top1,426c616e-6b69-46e6-9752-656c61795f54,rev?*%
%TF.SameCoordinates,Original*%
%TF.FileFunction,Copper,L1,Top*%
%TF.FilePolarity,Positive*%
%FSLAX46Y46*%
G04 Gerber Fmt 4.6, Leading zero omitted, Abs format (unit mm)*
G04 Created by KiCad (PCBNEW 7.0.8) date 2024-02-11 23:31:29*
%MOMM*%
%LPD*%
G01*
G04 APERTURE LIST*
G04 Aperture macros list*
%AMRoundRect*
0 Rectangle with rounded corners*
0 $1 Rounding radius*
0 $2 $3 $4 $5 $6 $7 $8 $9 X,Y pos of 4 corners*
0 Add a 4 corners polygon primitive as box body*
4,1,4,$2,$3,$4,$5,$6,$7,$8,$9,$2,$3,0*
0 Add four circle primitives for the rounded corners*
1,1,$1+$1,$2,$3*
1,1,$1+$1,$4,$5*
1,1,$1+$1,$6,$7*
1,1,$1+$1,$8,$9*
0 Add four rect primitives between the rounded corners*
20,1,$1+$1,$2,$3,$4,$5,0*
20,1,$1+$1,$4,$5,$6,$7,0*
20,1,$1+$1,$6,$7,$8,$9,0*
20,1,$1+$1,$8,$9,$2,$3,0*%
G04 Aperture macros list end*
%TA.AperFunction,ComponentPad*%
%ADD10O,1.700000X1.950000*%
%TD*%
%TA.AperFunction,ComponentPad*%
%ADD11RoundRect,0.250000X-0.600000X-0.725000X0.600000X-0.725000X0.600000X0.725000X-0.600000X0.725000X0*%
%TD*%
%TA.AperFunction,ComponentPad*%
%ADD12O,1.600200X2.499360*%
%TD*%
%TA.AperFunction,ComponentPad*%
%ADD13O,3.500120X7.000240*%
%TD*%
%TA.AperFunction,Conductor*%
%ADD14C,0.250000*%
%TD*%
G04 APERTURE END LIST*
D10*
%TO.P,J10,7,Pin_7*%
%TO.N,GNDREF*%
X150500000Y-59500000D03*
%TO.P,J10,6,Pin_6*%
%TO.N,Blanking_Out6*%
X148000000Y-59500000D03*
%TO.P,J10,5,Pin_5*%
%TO.N,Blanking_Out5*%
X145500000Y-59500000D03*
%TO.P,J10,4,Pin_4*%
%TO.N,Blanking_Out4*%
X143000000Y-59500000D03*
%TO.P,J10,3,Pin_3*%
%TO.N,Blanking_Out3*%
X140500000Y-59500000D03*
%TO.P,J10,2,Pin_2*%
%TO.N,Blanking_Out2*%
X138000000Y-59500000D03*
D11*
%TO.P,J10,1,Pin_1*%
%TO.N,Blanking_Out1*%
X135500000Y-59500000D03*
%TD*%
D10*
%TO.P,J9,7,Pin_7*%
%TO.N,GNDREF*%
X127500000Y-59500000D03*
%TO.P,J9,6,Pin_6*%
%TO.N,Blanking_Out6*%
X125000000Y-59500000D03*
%TO.P,J9,5,Pin_5*%
%TO.N,Blanking_Out5*%
X122500000Y-59500000D03*
%TO.P,J9,4,Pin_4*%
%TO.N,Blanking_Out4*%
X120000000Y-59500000D03*
%TO.P,J9,3,Pin_3*%
%TO.N,Blanking_Out3*%
X117500000Y-59500000D03*
%TO.P,J9,2,Pin_2*%
%TO.N,Blanking_Out2*%
X115000000Y-59500000D03*
D11*
%TO.P,J9,1,Pin_1*%
%TO.N,Blanking_Out1*%
X112500000Y-59500000D03*
%TD*%
%TO.P,J8,1,Pin_1*%
%TO.N,Blanking_Out1*%
X90000000Y-59500000D03*
D10*
%TO.P,J8,2,Pin_2*%
%TO.N,Blanking_Out2*%
X92500000Y-59500000D03*
%TO.P,J8,3,Pin_3*%
%TO.N,Blanking_Out3*%
X95000000Y-59500000D03*
%TO.P,J8,4,Pin_4*%
%TO.N,Blanking_Out4*%
X97500000Y-59500000D03*
%TO.P,J8,5,Pin_5*%
%TO.N,Blanking_Out5*%
X100000000Y-59500000D03*
%TO.P,J8,6,Pin_6*%
%TO.N,Blanking_Out6*%
X102500000Y-59500000D03*
%TO.P,J8,7,Pin_7*%
%TO.N,GNDREF*%
X105000000Y-59500000D03*
%TD*%
D11*
%TO.P,J1,1,Pin_1*%
%TO.N,Blanking_Out1*%
X67500000Y-59500000D03*
D10*
%TO.P,J1,2,Pin_2*%
%TO.N,Blanking_Out2*%
X70000000Y-59500000D03*
%TO.P,J1,3,Pin_3*%
%TO.N,Blanking_Out3*%
X72500000Y-59500000D03*
%TO.P,J1,4,Pin_4*%
%TO.N,Blanking_Out4*%
X75000000Y-59500000D03*
%TO.P,J1,5,Pin_5*%
%TO.N,Blanking_Out5*%
X77500000Y-59500000D03*
%TO.P,J1,6,Pin_6*%
%TO.N,Blanking_Out6*%
X80000000Y-59500000D03*
%TO.P,J1,7,Pin_7*%
%TO.N,GNDREF*%
X82500000Y-59500000D03*
%TD*%
D12*
%TO.P,J6,2,Ext*%
%TO.N,GNDREF*%
X142299360Y-72698740D03*
D13*
X144897780Y-76963400D03*
X134699680Y-76963400D03*
D12*
%TO.P,J6,1,In*%
%TO.N,Blanking_Out5*%
X139800000Y-72698740D03*
%TD*%
D13*
%TO.P,J7,2,Ext*%
%TO.N,GNDREF*%
X164897780Y-76963400D03*
D12*
X162299360Y-72698740D03*
D13*
X154699680Y-76963400D03*
D12*
%TO.P,J7,1,In*%
%TO.N,Blanking_Out6*%
X159800000Y-72698740D03*
%TD*%
%TO.P,J5,2,Ext*%
%TO.N,GNDREF*%
X122299360Y-72698740D03*
D13*
X114699680Y-76963400D03*
X124897780Y-76963400D03*
D12*
%TO.P,J5,1,In*%
%TO.N,Blanking_Out4*%
X119800000Y-72698740D03*
%TD*%
D13*
%TO.P,J3,2,Ext*%
%TO.N,GNDREF*%
X74699680Y-76963400D03*
D12*
X82299360Y-72698740D03*
D13*
X84897780Y-76963400D03*
D12*
%TO.P,J3,1,In*%
%TO.N,Blanking_Out2*%
X79800000Y-72698740D03*
%TD*%
%TO.P,J4,2,Ext*%
%TO.N,GNDREF*%
X102299360Y-72698740D03*
D13*
X94699680Y-76963400D03*
X104897780Y-76963400D03*
D12*
%TO.P,J4,1,In*%
%TO.N,Blanking_Out3*%
X99800000Y-72698740D03*
%TD*%
D13*
%TO.P,J2,2,Ext*%
%TO.N,GNDREF*%
X54699680Y-76963400D03*
X64897780Y-76963400D03*
D12*
X62299360Y-72698740D03*
%TO.P,J2,1,In*%
%TO.N,Blanking_Out1*%
X59800000Y-72698740D03*
%TD*%
D14*
%TO.N,Blanking_Out6*%
X148000000Y-66350000D02*
X150400000Y-68750000D01*
X148000000Y-59500000D02*
X148000000Y-66350000D01*
X150400000Y-68750000D02*
X155851260Y-68750000D01*
X126600000Y-68750000D02*
X150400000Y-68750000D01*
X125000000Y-67150000D02*
X126600000Y-68750000D01*
X104100000Y-68750000D02*
X126600000Y-68750000D01*
X125000000Y-59500000D02*
X125000000Y-67150000D01*
X102500000Y-67150000D02*
X104100000Y-68750000D01*
X81650000Y-68750000D02*
X104100000Y-68750000D01*
X102500000Y-59500000D02*
X102500000Y-67150000D01*
X155851260Y-68750000D02*
X159800000Y-72698740D01*
X80000000Y-67100000D02*
X81650000Y-68750000D01*
X80000000Y-59500000D02*
X80000000Y-67100000D01*
%TO.N,Blanking_Out5*%
X79600000Y-69200000D02*
X136301260Y-69200000D01*
X77500000Y-67100000D02*
X79600000Y-69200000D01*
X77500000Y-59500000D02*
X77500000Y-67100000D01*
X136301260Y-69200000D02*
X139800000Y-72698740D01*
X145500000Y-60400000D02*
X145500000Y-59500000D01*
X143250000Y-62650000D02*
X145500000Y-60400000D01*
X133440812Y-62650000D02*
X143250000Y-62650000D01*
X128090812Y-57300000D02*
X133440812Y-62650000D01*
X123400000Y-57300000D02*
X128090812Y-57300000D01*
X122500000Y-58200000D02*
X123400000Y-57300000D01*
X122500000Y-59500000D02*
X122500000Y-58200000D01*
X122500000Y-60300000D02*
X122500000Y-59500000D01*
X110640812Y-62650000D02*
X120150000Y-62650000D01*
X105390812Y-57400000D02*
X110640812Y-62650000D01*
X100800000Y-57400000D02*
X105390812Y-57400000D01*
X100000000Y-58200000D02*
X100800000Y-57400000D01*
X100000000Y-59500000D02*
X100000000Y-58200000D01*
X120150000Y-62650000D02*
X122500000Y-60300000D01*
X100000000Y-60400000D02*
X100000000Y-59500000D01*
X97750000Y-62650000D02*
X100000000Y-60400000D01*
X88340812Y-62650000D02*
X97750000Y-62650000D01*
X82990812Y-57300000D02*
X88340812Y-62650000D01*
X78500000Y-57300000D02*
X82990812Y-57300000D01*
X77500000Y-58300000D02*
X78500000Y-57300000D01*
X77500000Y-59500000D02*
X77500000Y-58300000D01*
%TO.N,Blanking_Out4*%
X143000000Y-60500000D02*
X143000000Y-59500000D01*
X141300000Y-62200000D02*
X143000000Y-60500000D01*
X133627208Y-62200000D02*
X141300000Y-62200000D01*
X128277208Y-56850000D02*
X133627208Y-62200000D01*
X121250000Y-56850000D02*
X128277208Y-56850000D01*
X120000000Y-58100000D02*
X121250000Y-56850000D01*
X120000000Y-59500000D02*
X120000000Y-58100000D01*
X120000000Y-60400000D02*
X120000000Y-59500000D01*
X118200000Y-62200000D02*
X120000000Y-60400000D01*
X110827208Y-62200000D02*
X118200000Y-62200000D01*
X105477208Y-56850000D02*
X110827208Y-62200000D01*
X98850000Y-56850000D02*
X105477208Y-56850000D01*
X97500000Y-58200000D02*
X98850000Y-56850000D01*
X97500000Y-59500000D02*
X97500000Y-58200000D01*
X97500000Y-60500000D02*
X97500000Y-59500000D01*
X95800000Y-62200000D02*
X97500000Y-60500000D01*
X88527208Y-62200000D02*
X95800000Y-62200000D01*
X83177208Y-56850000D02*
X88527208Y-62200000D01*
X76350000Y-56850000D02*
X83177208Y-56850000D01*
X75000000Y-58200000D02*
X76350000Y-56850000D01*
X75000000Y-59500000D02*
X75000000Y-58200000D01*
X75000000Y-66625948D02*
X75000000Y-59500000D01*
X78024052Y-69650000D02*
X75000000Y-66625948D01*
X116751260Y-69650000D02*
X78024052Y-69650000D01*
X119800000Y-72698740D02*
X116751260Y-69650000D01*
%TO.N,Blanking_Out3*%
X140500000Y-60300000D02*
X140500000Y-59500000D01*
X139050000Y-61750000D02*
X140500000Y-60300000D01*
X133813604Y-61750000D02*
X139050000Y-61750000D01*
X128463604Y-56400000D02*
X133813604Y-61750000D01*
X119200000Y-56400000D02*
X128463604Y-56400000D01*
X117500000Y-58100000D02*
X119200000Y-56400000D01*
X117500000Y-59500000D02*
X117500000Y-58100000D01*
X117500000Y-60500000D02*
X117500000Y-59500000D01*
X116250000Y-61750000D02*
X117500000Y-60500000D01*
X105663604Y-56400000D02*
X111013604Y-61750000D01*
X111013604Y-61750000D02*
X116250000Y-61750000D01*
X95000000Y-59500000D02*
X95000000Y-57300000D01*
X95000000Y-57300000D02*
X95900000Y-56400000D01*
X95900000Y-56400000D02*
X105663604Y-56400000D01*
X95000000Y-60400000D02*
X95000000Y-59500000D01*
X93650000Y-61750000D02*
X95000000Y-60400000D01*
X88713604Y-61750000D02*
X93650000Y-61750000D01*
X83363604Y-56400000D02*
X88713604Y-61750000D01*
X74000000Y-56400000D02*
X83363604Y-56400000D01*
X72500000Y-57900000D02*
X74000000Y-56400000D01*
X72500000Y-59500000D02*
X72500000Y-57900000D01*
X72500000Y-64762344D02*
X72500000Y-59500000D01*
X77837656Y-70100000D02*
X72500000Y-64762344D01*
X99800000Y-72698740D02*
X97201260Y-70100000D01*
X97201260Y-70100000D02*
X77837656Y-70100000D01*
%TO.N,Blanking_Out2*%
X138000000Y-60400000D02*
X138000000Y-59500000D01*
X137100000Y-61300000D02*
X138000000Y-60400000D01*
X134000000Y-61300000D02*
X137100000Y-61300000D01*
X128650000Y-55950000D02*
X134000000Y-61300000D01*
X116000000Y-55950000D02*
X128650000Y-55950000D01*
X115000000Y-56950000D02*
X116000000Y-55950000D01*
X115000000Y-59500000D02*
X115000000Y-56950000D01*
X92500000Y-60600000D02*
X92500000Y-59500000D01*
X88900000Y-61300000D02*
X91800000Y-61300000D01*
X91800000Y-61300000D02*
X92500000Y-60600000D01*
X70000000Y-57850000D02*
X71900000Y-55950000D01*
X70000000Y-59500000D02*
X70000000Y-57850000D01*
X71900000Y-55950000D02*
X83550000Y-55950000D01*
X83550000Y-55950000D02*
X88900000Y-61300000D01*
X115000000Y-59500000D02*
X115000000Y-60600000D01*
X115000000Y-60600000D02*
X114300000Y-61300000D01*
X111200000Y-61300000D02*
X114300000Y-61300000D01*
X93900000Y-55950000D02*
X105850000Y-55950000D01*
X92500000Y-59500000D02*
X92500000Y-57350000D01*
X92500000Y-57350000D02*
X93900000Y-55950000D01*
X105850000Y-55950000D02*
X111200000Y-61300000D01*
X70000000Y-62898740D02*
X70000000Y-59500000D01*
X79800000Y-72698740D02*
X70000000Y-62898740D01*
%TO.N,Blanking_Out1*%
X134300000Y-55500000D02*
X135500000Y-56700000D01*
X135500000Y-56700000D02*
X135500000Y-59500000D01*
X109900000Y-55500000D02*
X134300000Y-55500000D01*
X109900000Y-55500000D02*
X111300000Y-55500000D01*
X86300000Y-55500000D02*
X109900000Y-55500000D01*
X111300000Y-55500000D02*
X112500000Y-56700000D01*
X86300000Y-55500000D02*
X88900000Y-55500000D01*
X64500000Y-55500000D02*
X86300000Y-55500000D01*
X112500000Y-56700000D02*
X112500000Y-59500000D01*
X90000000Y-56600000D02*
X90000000Y-59500000D01*
X88900000Y-55500000D02*
X90000000Y-56600000D01*
X64500000Y-55500000D02*
X65400000Y-55500000D01*
X55900000Y-55500000D02*
X64500000Y-55500000D01*
X67500000Y-57600000D02*
X67500000Y-59500000D01*
X65400000Y-55500000D02*
X67500000Y-57600000D01*
X53600000Y-57800000D02*
X55900000Y-55500000D01*
X53600000Y-66498740D02*
X53600000Y-57800000D01*
X59800000Y-72698740D02*
X53600000Y-66498740D01*
%TO.N,Blanking_Out3*%
X99800000Y-71700000D02*
X99800000Y-72698740D01*
%TD*%
M02*
