%TF.GenerationSoftware,KiCad,Pcbnew,7.0.8*%
%TF.CreationDate,2024-02-11T23:31:26+01:00*%
%TF.ProjectId,BlankingRelay_Top1,426c616e-6b69-46e6-9752-656c61795f54,rev?*%
%TF.SameCoordinates,Original*%
%TF.FileFunction,Drillmap*%
%TF.FilePolarity,Positive*%
%FSLAX45Y45*%
G04 Gerber Fmt 4.5, Leading zero omitted, Abs format (unit mm)*
G04 Created by KiCad (PCBNEW 7.0.8) date 2024-02-11 23:31:26*
%MOMM*%
%LPD*%
G01*
G04 APERTURE LIST*
%ADD10C,0.100000*%
%ADD11C,0.200000*%
%ADD12C,0.095000*%
%ADD13C,0.100076*%
%ADD14C,0.219964*%
G04 APERTURE END LIST*
D10*
X5000000Y-5500000D02*
X17000000Y-5500000D01*
X17000000Y-8500000D01*
X5000000Y-8500000D01*
X5000000Y-5500000D01*
D11*
D12*
X6702500Y-5902500D02*
X6797500Y-5997500D01*
X6797500Y-5902500D02*
X6702500Y-5997500D01*
X6952500Y-5902500D02*
X7047500Y-5997500D01*
X7047500Y-5902500D02*
X6952500Y-5997500D01*
X7202500Y-5902500D02*
X7297500Y-5997500D01*
X7297500Y-5902500D02*
X7202500Y-5997500D01*
X7452500Y-5902500D02*
X7547500Y-5997500D01*
X7547500Y-5902500D02*
X7452500Y-5997500D01*
X7702500Y-5902500D02*
X7797500Y-5997500D01*
X7797500Y-5902500D02*
X7702500Y-5997500D01*
X7952500Y-5902500D02*
X8047500Y-5997500D01*
X8047500Y-5902500D02*
X7952500Y-5997500D01*
X8202500Y-5902500D02*
X8297500Y-5997500D01*
X8297500Y-5902500D02*
X8202500Y-5997500D01*
X8952500Y-5902500D02*
X9047500Y-5997500D01*
X9047500Y-5902500D02*
X8952500Y-5997500D01*
X9202500Y-5902500D02*
X9297500Y-5997500D01*
X9297500Y-5902500D02*
X9202500Y-5997500D01*
X9452500Y-5902500D02*
X9547500Y-5997500D01*
X9547500Y-5902500D02*
X9452500Y-5997500D01*
X9702500Y-5902500D02*
X9797500Y-5997500D01*
X9797500Y-5902500D02*
X9702500Y-5997500D01*
X9952500Y-5902500D02*
X10047500Y-5997500D01*
X10047500Y-5902500D02*
X9952500Y-5997500D01*
X10202500Y-5902500D02*
X10297500Y-5997500D01*
X10297500Y-5902500D02*
X10202500Y-5997500D01*
X10452500Y-5902500D02*
X10547500Y-5997500D01*
X10547500Y-5902500D02*
X10452500Y-5997500D01*
X11202500Y-5902500D02*
X11297500Y-5997500D01*
X11297500Y-5902500D02*
X11202500Y-5997500D01*
X11452500Y-5902500D02*
X11547500Y-5997500D01*
X11547500Y-5902500D02*
X11452500Y-5997500D01*
X11702500Y-5902500D02*
X11797500Y-5997500D01*
X11797500Y-5902500D02*
X11702500Y-5997500D01*
X11952500Y-5902500D02*
X12047500Y-5997500D01*
X12047500Y-5902500D02*
X11952500Y-5997500D01*
X12202500Y-5902500D02*
X12297500Y-5997500D01*
X12297500Y-5902500D02*
X12202500Y-5997500D01*
X12452500Y-5902500D02*
X12547500Y-5997500D01*
X12547500Y-5902500D02*
X12452500Y-5997500D01*
X12702500Y-5902500D02*
X12797500Y-5997500D01*
X12797500Y-5902500D02*
X12702500Y-5997500D01*
X13502500Y-5902500D02*
X13597500Y-5997500D01*
X13597500Y-5902500D02*
X13502500Y-5997500D01*
X13752500Y-5902500D02*
X13847500Y-5997500D01*
X13847500Y-5902500D02*
X13752500Y-5997500D01*
X14002500Y-5902500D02*
X14097500Y-5997500D01*
X14097500Y-5902500D02*
X14002500Y-5997500D01*
X14252500Y-5902500D02*
X14347500Y-5997500D01*
X14347500Y-5902500D02*
X14252500Y-5997500D01*
X14502500Y-5902500D02*
X14597500Y-5997500D01*
X14597500Y-5902500D02*
X14502500Y-5997500D01*
X14752500Y-5902500D02*
X14847500Y-5997500D01*
X14847500Y-5902500D02*
X14752500Y-5997500D01*
X15002500Y-5902500D02*
X15097500Y-5997500D01*
X15097500Y-5902500D02*
X15002500Y-5997500D01*
D13*
X6030038Y-7269874D02*
G75*
G03*
X6030038Y-7269874I-50038J0D01*
G01*
X6279974Y-7269874D02*
G75*
G03*
X6279974Y-7269874I-50038J0D01*
G01*
X8030038Y-7269874D02*
G75*
G03*
X8030038Y-7269874I-50038J0D01*
G01*
X8279974Y-7269874D02*
G75*
G03*
X8279974Y-7269874I-50038J0D01*
G01*
X10030038Y-7269874D02*
G75*
G03*
X10030038Y-7269874I-50038J0D01*
G01*
X10279974Y-7269874D02*
G75*
G03*
X10279974Y-7269874I-50038J0D01*
G01*
X12030038Y-7269874D02*
G75*
G03*
X12030038Y-7269874I-50038J0D01*
G01*
X12279974Y-7269874D02*
G75*
G03*
X12279974Y-7269874I-50038J0D01*
G01*
X14030038Y-7269874D02*
G75*
G03*
X14030038Y-7269874I-50038J0D01*
G01*
X14279974Y-7269874D02*
G75*
G03*
X14279974Y-7269874I-50038J0D01*
G01*
X16030038Y-7269874D02*
G75*
G03*
X16030038Y-7269874I-50038J0D01*
G01*
X16279974Y-7269874D02*
G75*
G03*
X16279974Y-7269874I-50038J0D01*
G01*
D14*
X5469968Y-7586358D02*
X5469968Y-7806322D01*
X5359986Y-7696340D02*
X5579950Y-7696340D01*
X6489778Y-7586358D02*
X6489778Y-7806322D01*
X6379796Y-7696340D02*
X6599760Y-7696340D01*
X7469968Y-7586358D02*
X7469968Y-7806322D01*
X7359986Y-7696340D02*
X7579950Y-7696340D01*
X8489778Y-7586358D02*
X8489778Y-7806322D01*
X8379796Y-7696340D02*
X8599760Y-7696340D01*
X9469968Y-7586358D02*
X9469968Y-7806322D01*
X9359986Y-7696340D02*
X9579950Y-7696340D01*
X10489778Y-7586358D02*
X10489778Y-7806322D01*
X10379796Y-7696340D02*
X10599760Y-7696340D01*
X11469968Y-7586358D02*
X11469968Y-7806322D01*
X11359986Y-7696340D02*
X11579950Y-7696340D01*
X12489778Y-7586358D02*
X12489778Y-7806322D01*
X12379796Y-7696340D02*
X12599760Y-7696340D01*
X13469968Y-7586358D02*
X13469968Y-7806322D01*
X13359986Y-7696340D02*
X13579950Y-7696340D01*
X14489778Y-7586358D02*
X14489778Y-7806322D01*
X14379796Y-7696340D02*
X14599760Y-7696340D01*
X15469968Y-7586358D02*
X15469968Y-7806322D01*
X15359986Y-7696340D02*
X15579950Y-7696340D01*
X16489778Y-7586358D02*
X16489778Y-7806322D01*
X16379796Y-7696340D02*
X16599760Y-7696340D01*
D11*
X5255777Y-8816484D02*
X5255777Y-8616484D01*
X5255777Y-8616484D02*
X5303396Y-8616484D01*
X5303396Y-8616484D02*
X5331967Y-8626008D01*
X5331967Y-8626008D02*
X5351015Y-8645055D01*
X5351015Y-8645055D02*
X5360539Y-8664103D01*
X5360539Y-8664103D02*
X5370063Y-8702198D01*
X5370063Y-8702198D02*
X5370063Y-8730770D01*
X5370063Y-8730770D02*
X5360539Y-8768865D01*
X5360539Y-8768865D02*
X5351015Y-8787912D01*
X5351015Y-8787912D02*
X5331967Y-8806960D01*
X5331967Y-8806960D02*
X5303396Y-8816484D01*
X5303396Y-8816484D02*
X5255777Y-8816484D01*
X5455777Y-8816484D02*
X5455777Y-8683150D01*
X5455777Y-8721246D02*
X5465301Y-8702198D01*
X5465301Y-8702198D02*
X5474824Y-8692674D01*
X5474824Y-8692674D02*
X5493872Y-8683150D01*
X5493872Y-8683150D02*
X5512920Y-8683150D01*
X5579586Y-8816484D02*
X5579586Y-8683150D01*
X5579586Y-8616484D02*
X5570063Y-8626008D01*
X5570063Y-8626008D02*
X5579586Y-8635531D01*
X5579586Y-8635531D02*
X5589110Y-8626008D01*
X5589110Y-8626008D02*
X5579586Y-8616484D01*
X5579586Y-8616484D02*
X5579586Y-8635531D01*
X5703396Y-8816484D02*
X5684348Y-8806960D01*
X5684348Y-8806960D02*
X5674824Y-8787912D01*
X5674824Y-8787912D02*
X5674824Y-8616484D01*
X5808158Y-8816484D02*
X5789110Y-8806960D01*
X5789110Y-8806960D02*
X5779586Y-8787912D01*
X5779586Y-8787912D02*
X5779586Y-8616484D01*
X6036729Y-8816484D02*
X6036729Y-8616484D01*
X6036729Y-8616484D02*
X6103396Y-8759341D01*
X6103396Y-8759341D02*
X6170062Y-8616484D01*
X6170062Y-8616484D02*
X6170062Y-8816484D01*
X6351015Y-8816484D02*
X6351015Y-8711722D01*
X6351015Y-8711722D02*
X6341491Y-8692674D01*
X6341491Y-8692674D02*
X6322443Y-8683150D01*
X6322443Y-8683150D02*
X6284348Y-8683150D01*
X6284348Y-8683150D02*
X6265301Y-8692674D01*
X6351015Y-8806960D02*
X6331967Y-8816484D01*
X6331967Y-8816484D02*
X6284348Y-8816484D01*
X6284348Y-8816484D02*
X6265301Y-8806960D01*
X6265301Y-8806960D02*
X6255777Y-8787912D01*
X6255777Y-8787912D02*
X6255777Y-8768865D01*
X6255777Y-8768865D02*
X6265301Y-8749817D01*
X6265301Y-8749817D02*
X6284348Y-8740293D01*
X6284348Y-8740293D02*
X6331967Y-8740293D01*
X6331967Y-8740293D02*
X6351015Y-8730770D01*
X6446253Y-8683150D02*
X6446253Y-8883150D01*
X6446253Y-8692674D02*
X6465301Y-8683150D01*
X6465301Y-8683150D02*
X6503396Y-8683150D01*
X6503396Y-8683150D02*
X6522443Y-8692674D01*
X6522443Y-8692674D02*
X6531967Y-8702198D01*
X6531967Y-8702198D02*
X6541491Y-8721246D01*
X6541491Y-8721246D02*
X6541491Y-8778389D01*
X6541491Y-8778389D02*
X6531967Y-8797436D01*
X6531967Y-8797436D02*
X6522443Y-8806960D01*
X6522443Y-8806960D02*
X6503396Y-8816484D01*
X6503396Y-8816484D02*
X6465301Y-8816484D01*
X6465301Y-8816484D02*
X6446253Y-8806960D01*
X6627205Y-8797436D02*
X6636729Y-8806960D01*
X6636729Y-8806960D02*
X6627205Y-8816484D01*
X6627205Y-8816484D02*
X6617682Y-8806960D01*
X6617682Y-8806960D02*
X6627205Y-8797436D01*
X6627205Y-8797436D02*
X6627205Y-8816484D01*
X6627205Y-8692674D02*
X6636729Y-8702198D01*
X6636729Y-8702198D02*
X6627205Y-8711722D01*
X6627205Y-8711722D02*
X6617682Y-8702198D01*
X6617682Y-8702198D02*
X6627205Y-8692674D01*
X6627205Y-8692674D02*
X6627205Y-8711722D01*
D12*
X4900000Y-9097500D02*
X4995000Y-9192500D01*
X4995000Y-9097500D02*
X4900000Y-9192500D01*
D11*
X5293872Y-9036484D02*
X5312920Y-9036484D01*
X5312920Y-9036484D02*
X5331967Y-9046008D01*
X5331967Y-9046008D02*
X5341491Y-9055531D01*
X5341491Y-9055531D02*
X5351015Y-9074579D01*
X5351015Y-9074579D02*
X5360539Y-9112674D01*
X5360539Y-9112674D02*
X5360539Y-9160293D01*
X5360539Y-9160293D02*
X5351015Y-9198389D01*
X5351015Y-9198389D02*
X5341491Y-9217436D01*
X5341491Y-9217436D02*
X5331967Y-9226960D01*
X5331967Y-9226960D02*
X5312920Y-9236484D01*
X5312920Y-9236484D02*
X5293872Y-9236484D01*
X5293872Y-9236484D02*
X5274824Y-9226960D01*
X5274824Y-9226960D02*
X5265301Y-9217436D01*
X5265301Y-9217436D02*
X5255777Y-9198389D01*
X5255777Y-9198389D02*
X5246253Y-9160293D01*
X5246253Y-9160293D02*
X5246253Y-9112674D01*
X5246253Y-9112674D02*
X5255777Y-9074579D01*
X5255777Y-9074579D02*
X5265301Y-9055531D01*
X5265301Y-9055531D02*
X5274824Y-9046008D01*
X5274824Y-9046008D02*
X5293872Y-9036484D01*
X5446253Y-9217436D02*
X5455777Y-9226960D01*
X5455777Y-9226960D02*
X5446253Y-9236484D01*
X5446253Y-9236484D02*
X5436729Y-9226960D01*
X5436729Y-9226960D02*
X5446253Y-9217436D01*
X5446253Y-9217436D02*
X5446253Y-9236484D01*
X5551015Y-9236484D02*
X5589110Y-9236484D01*
X5589110Y-9236484D02*
X5608158Y-9226960D01*
X5608158Y-9226960D02*
X5617682Y-9217436D01*
X5617682Y-9217436D02*
X5636729Y-9188865D01*
X5636729Y-9188865D02*
X5646253Y-9150770D01*
X5646253Y-9150770D02*
X5646253Y-9074579D01*
X5646253Y-9074579D02*
X5636729Y-9055531D01*
X5636729Y-9055531D02*
X5627205Y-9046008D01*
X5627205Y-9046008D02*
X5608158Y-9036484D01*
X5608158Y-9036484D02*
X5570063Y-9036484D01*
X5570063Y-9036484D02*
X5551015Y-9046008D01*
X5551015Y-9046008D02*
X5541491Y-9055531D01*
X5541491Y-9055531D02*
X5531967Y-9074579D01*
X5531967Y-9074579D02*
X5531967Y-9122198D01*
X5531967Y-9122198D02*
X5541491Y-9141246D01*
X5541491Y-9141246D02*
X5551015Y-9150770D01*
X5551015Y-9150770D02*
X5570063Y-9160293D01*
X5570063Y-9160293D02*
X5608158Y-9160293D01*
X5608158Y-9160293D02*
X5627205Y-9150770D01*
X5627205Y-9150770D02*
X5636729Y-9141246D01*
X5636729Y-9141246D02*
X5646253Y-9122198D01*
X5827205Y-9036484D02*
X5731967Y-9036484D01*
X5731967Y-9036484D02*
X5722443Y-9131722D01*
X5722443Y-9131722D02*
X5731967Y-9122198D01*
X5731967Y-9122198D02*
X5751015Y-9112674D01*
X5751015Y-9112674D02*
X5798634Y-9112674D01*
X5798634Y-9112674D02*
X5817682Y-9122198D01*
X5817682Y-9122198D02*
X5827205Y-9131722D01*
X5827205Y-9131722D02*
X5836729Y-9150770D01*
X5836729Y-9150770D02*
X5836729Y-9198389D01*
X5836729Y-9198389D02*
X5827205Y-9217436D01*
X5827205Y-9217436D02*
X5817682Y-9226960D01*
X5817682Y-9226960D02*
X5798634Y-9236484D01*
X5798634Y-9236484D02*
X5751015Y-9236484D01*
X5751015Y-9236484D02*
X5731967Y-9226960D01*
X5731967Y-9226960D02*
X5722443Y-9217436D01*
X5960539Y-9036484D02*
X5979586Y-9036484D01*
X5979586Y-9036484D02*
X5998634Y-9046008D01*
X5998634Y-9046008D02*
X6008158Y-9055531D01*
X6008158Y-9055531D02*
X6017682Y-9074579D01*
X6017682Y-9074579D02*
X6027205Y-9112674D01*
X6027205Y-9112674D02*
X6027205Y-9160293D01*
X6027205Y-9160293D02*
X6017682Y-9198389D01*
X6017682Y-9198389D02*
X6008158Y-9217436D01*
X6008158Y-9217436D02*
X5998634Y-9226960D01*
X5998634Y-9226960D02*
X5979586Y-9236484D01*
X5979586Y-9236484D02*
X5960539Y-9236484D01*
X5960539Y-9236484D02*
X5941491Y-9226960D01*
X5941491Y-9226960D02*
X5931967Y-9217436D01*
X5931967Y-9217436D02*
X5922443Y-9198389D01*
X5922443Y-9198389D02*
X5912920Y-9160293D01*
X5912920Y-9160293D02*
X5912920Y-9112674D01*
X5912920Y-9112674D02*
X5922443Y-9074579D01*
X5922443Y-9074579D02*
X5931967Y-9055531D01*
X5931967Y-9055531D02*
X5941491Y-9046008D01*
X5941491Y-9046008D02*
X5960539Y-9036484D01*
X6112920Y-9236484D02*
X6112920Y-9103150D01*
X6112920Y-9122198D02*
X6122443Y-9112674D01*
X6122443Y-9112674D02*
X6141491Y-9103150D01*
X6141491Y-9103150D02*
X6170063Y-9103150D01*
X6170063Y-9103150D02*
X6189110Y-9112674D01*
X6189110Y-9112674D02*
X6198634Y-9131722D01*
X6198634Y-9131722D02*
X6198634Y-9236484D01*
X6198634Y-9131722D02*
X6208158Y-9112674D01*
X6208158Y-9112674D02*
X6227205Y-9103150D01*
X6227205Y-9103150D02*
X6255777Y-9103150D01*
X6255777Y-9103150D02*
X6274824Y-9112674D01*
X6274824Y-9112674D02*
X6284348Y-9131722D01*
X6284348Y-9131722D02*
X6284348Y-9236484D01*
X6379586Y-9236484D02*
X6379586Y-9103150D01*
X6379586Y-9122198D02*
X6389110Y-9112674D01*
X6389110Y-9112674D02*
X6408158Y-9103150D01*
X6408158Y-9103150D02*
X6436729Y-9103150D01*
X6436729Y-9103150D02*
X6455777Y-9112674D01*
X6455777Y-9112674D02*
X6465301Y-9131722D01*
X6465301Y-9131722D02*
X6465301Y-9236484D01*
X6465301Y-9131722D02*
X6474824Y-9112674D01*
X6474824Y-9112674D02*
X6493872Y-9103150D01*
X6493872Y-9103150D02*
X6522443Y-9103150D01*
X6522443Y-9103150D02*
X6541491Y-9112674D01*
X6541491Y-9112674D02*
X6551015Y-9131722D01*
X6551015Y-9131722D02*
X6551015Y-9236484D01*
X6941491Y-9026960D02*
X6770063Y-9284103D01*
X7198634Y-9036484D02*
X7217682Y-9036484D01*
X7217682Y-9036484D02*
X7236729Y-9046008D01*
X7236729Y-9046008D02*
X7246253Y-9055531D01*
X7246253Y-9055531D02*
X7255777Y-9074579D01*
X7255777Y-9074579D02*
X7265301Y-9112674D01*
X7265301Y-9112674D02*
X7265301Y-9160293D01*
X7265301Y-9160293D02*
X7255777Y-9198389D01*
X7255777Y-9198389D02*
X7246253Y-9217436D01*
X7246253Y-9217436D02*
X7236729Y-9226960D01*
X7236729Y-9226960D02*
X7217682Y-9236484D01*
X7217682Y-9236484D02*
X7198634Y-9236484D01*
X7198634Y-9236484D02*
X7179586Y-9226960D01*
X7179586Y-9226960D02*
X7170063Y-9217436D01*
X7170063Y-9217436D02*
X7160539Y-9198389D01*
X7160539Y-9198389D02*
X7151015Y-9160293D01*
X7151015Y-9160293D02*
X7151015Y-9112674D01*
X7151015Y-9112674D02*
X7160539Y-9074579D01*
X7160539Y-9074579D02*
X7170063Y-9055531D01*
X7170063Y-9055531D02*
X7179586Y-9046008D01*
X7179586Y-9046008D02*
X7198634Y-9036484D01*
X7351015Y-9217436D02*
X7360539Y-9226960D01*
X7360539Y-9226960D02*
X7351015Y-9236484D01*
X7351015Y-9236484D02*
X7341491Y-9226960D01*
X7341491Y-9226960D02*
X7351015Y-9217436D01*
X7351015Y-9217436D02*
X7351015Y-9236484D01*
X7484348Y-9036484D02*
X7503396Y-9036484D01*
X7503396Y-9036484D02*
X7522444Y-9046008D01*
X7522444Y-9046008D02*
X7531967Y-9055531D01*
X7531967Y-9055531D02*
X7541491Y-9074579D01*
X7541491Y-9074579D02*
X7551015Y-9112674D01*
X7551015Y-9112674D02*
X7551015Y-9160293D01*
X7551015Y-9160293D02*
X7541491Y-9198389D01*
X7541491Y-9198389D02*
X7531967Y-9217436D01*
X7531967Y-9217436D02*
X7522444Y-9226960D01*
X7522444Y-9226960D02*
X7503396Y-9236484D01*
X7503396Y-9236484D02*
X7484348Y-9236484D01*
X7484348Y-9236484D02*
X7465301Y-9226960D01*
X7465301Y-9226960D02*
X7455777Y-9217436D01*
X7455777Y-9217436D02*
X7446253Y-9198389D01*
X7446253Y-9198389D02*
X7436729Y-9160293D01*
X7436729Y-9160293D02*
X7436729Y-9112674D01*
X7436729Y-9112674D02*
X7446253Y-9074579D01*
X7446253Y-9074579D02*
X7455777Y-9055531D01*
X7455777Y-9055531D02*
X7465301Y-9046008D01*
X7465301Y-9046008D02*
X7484348Y-9036484D01*
X7617682Y-9036484D02*
X7741491Y-9036484D01*
X7741491Y-9036484D02*
X7674825Y-9112674D01*
X7674825Y-9112674D02*
X7703396Y-9112674D01*
X7703396Y-9112674D02*
X7722444Y-9122198D01*
X7722444Y-9122198D02*
X7731967Y-9131722D01*
X7731967Y-9131722D02*
X7741491Y-9150770D01*
X7741491Y-9150770D02*
X7741491Y-9198389D01*
X7741491Y-9198389D02*
X7731967Y-9217436D01*
X7731967Y-9217436D02*
X7722444Y-9226960D01*
X7722444Y-9226960D02*
X7703396Y-9236484D01*
X7703396Y-9236484D02*
X7646253Y-9236484D01*
X7646253Y-9236484D02*
X7627206Y-9226960D01*
X7627206Y-9226960D02*
X7617682Y-9217436D01*
X7808158Y-9036484D02*
X7941491Y-9036484D01*
X7941491Y-9036484D02*
X7855777Y-9236484D01*
X8103396Y-9103150D02*
X8103396Y-9236484D01*
X8055777Y-9026960D02*
X8008158Y-9169817D01*
X8008158Y-9169817D02*
X8131967Y-9169817D01*
X8198634Y-9036484D02*
X8198634Y-9074579D01*
X8274825Y-9036484D02*
X8274825Y-9074579D01*
X8570063Y-9312674D02*
X8560539Y-9303150D01*
X8560539Y-9303150D02*
X8541491Y-9274579D01*
X8541491Y-9274579D02*
X8531968Y-9255531D01*
X8531968Y-9255531D02*
X8522444Y-9226960D01*
X8522444Y-9226960D02*
X8512920Y-9179341D01*
X8512920Y-9179341D02*
X8512920Y-9141246D01*
X8512920Y-9141246D02*
X8522444Y-9093627D01*
X8522444Y-9093627D02*
X8531968Y-9065055D01*
X8531968Y-9065055D02*
X8541491Y-9046008D01*
X8541491Y-9046008D02*
X8560539Y-9017436D01*
X8560539Y-9017436D02*
X8570063Y-9007912D01*
X8636730Y-9055531D02*
X8646253Y-9046008D01*
X8646253Y-9046008D02*
X8665301Y-9036484D01*
X8665301Y-9036484D02*
X8712920Y-9036484D01*
X8712920Y-9036484D02*
X8731968Y-9046008D01*
X8731968Y-9046008D02*
X8741491Y-9055531D01*
X8741491Y-9055531D02*
X8751015Y-9074579D01*
X8751015Y-9074579D02*
X8751015Y-9093627D01*
X8751015Y-9093627D02*
X8741491Y-9122198D01*
X8741491Y-9122198D02*
X8627206Y-9236484D01*
X8627206Y-9236484D02*
X8751015Y-9236484D01*
X8865301Y-9122198D02*
X8846253Y-9112674D01*
X8846253Y-9112674D02*
X8836730Y-9103150D01*
X8836730Y-9103150D02*
X8827206Y-9084103D01*
X8827206Y-9084103D02*
X8827206Y-9074579D01*
X8827206Y-9074579D02*
X8836730Y-9055531D01*
X8836730Y-9055531D02*
X8846253Y-9046008D01*
X8846253Y-9046008D02*
X8865301Y-9036484D01*
X8865301Y-9036484D02*
X8903396Y-9036484D01*
X8903396Y-9036484D02*
X8922444Y-9046008D01*
X8922444Y-9046008D02*
X8931968Y-9055531D01*
X8931968Y-9055531D02*
X8941491Y-9074579D01*
X8941491Y-9074579D02*
X8941491Y-9084103D01*
X8941491Y-9084103D02*
X8931968Y-9103150D01*
X8931968Y-9103150D02*
X8922444Y-9112674D01*
X8922444Y-9112674D02*
X8903396Y-9122198D01*
X8903396Y-9122198D02*
X8865301Y-9122198D01*
X8865301Y-9122198D02*
X8846253Y-9131722D01*
X8846253Y-9131722D02*
X8836730Y-9141246D01*
X8836730Y-9141246D02*
X8827206Y-9160293D01*
X8827206Y-9160293D02*
X8827206Y-9198389D01*
X8827206Y-9198389D02*
X8836730Y-9217436D01*
X8836730Y-9217436D02*
X8846253Y-9226960D01*
X8846253Y-9226960D02*
X8865301Y-9236484D01*
X8865301Y-9236484D02*
X8903396Y-9236484D01*
X8903396Y-9236484D02*
X8922444Y-9226960D01*
X8922444Y-9226960D02*
X8931968Y-9217436D01*
X8931968Y-9217436D02*
X8941491Y-9198389D01*
X8941491Y-9198389D02*
X8941491Y-9160293D01*
X8941491Y-9160293D02*
X8931968Y-9141246D01*
X8931968Y-9141246D02*
X8922444Y-9131722D01*
X8922444Y-9131722D02*
X8903396Y-9122198D01*
X9179587Y-9236484D02*
X9179587Y-9036484D01*
X9265301Y-9236484D02*
X9265301Y-9131722D01*
X9265301Y-9131722D02*
X9255777Y-9112674D01*
X9255777Y-9112674D02*
X9236730Y-9103150D01*
X9236730Y-9103150D02*
X9208158Y-9103150D01*
X9208158Y-9103150D02*
X9189111Y-9112674D01*
X9189111Y-9112674D02*
X9179587Y-9122198D01*
X9389111Y-9236484D02*
X9370063Y-9226960D01*
X9370063Y-9226960D02*
X9360539Y-9217436D01*
X9360539Y-9217436D02*
X9351015Y-9198389D01*
X9351015Y-9198389D02*
X9351015Y-9141246D01*
X9351015Y-9141246D02*
X9360539Y-9122198D01*
X9360539Y-9122198D02*
X9370063Y-9112674D01*
X9370063Y-9112674D02*
X9389111Y-9103150D01*
X9389111Y-9103150D02*
X9417682Y-9103150D01*
X9417682Y-9103150D02*
X9436730Y-9112674D01*
X9436730Y-9112674D02*
X9446253Y-9122198D01*
X9446253Y-9122198D02*
X9455777Y-9141246D01*
X9455777Y-9141246D02*
X9455777Y-9198389D01*
X9455777Y-9198389D02*
X9446253Y-9217436D01*
X9446253Y-9217436D02*
X9436730Y-9226960D01*
X9436730Y-9226960D02*
X9417682Y-9236484D01*
X9417682Y-9236484D02*
X9389111Y-9236484D01*
X9570063Y-9236484D02*
X9551015Y-9226960D01*
X9551015Y-9226960D02*
X9541492Y-9207912D01*
X9541492Y-9207912D02*
X9541492Y-9036484D01*
X9722444Y-9226960D02*
X9703396Y-9236484D01*
X9703396Y-9236484D02*
X9665301Y-9236484D01*
X9665301Y-9236484D02*
X9646253Y-9226960D01*
X9646253Y-9226960D02*
X9636730Y-9207912D01*
X9636730Y-9207912D02*
X9636730Y-9131722D01*
X9636730Y-9131722D02*
X9646253Y-9112674D01*
X9646253Y-9112674D02*
X9665301Y-9103150D01*
X9665301Y-9103150D02*
X9703396Y-9103150D01*
X9703396Y-9103150D02*
X9722444Y-9112674D01*
X9722444Y-9112674D02*
X9731968Y-9131722D01*
X9731968Y-9131722D02*
X9731968Y-9150770D01*
X9731968Y-9150770D02*
X9636730Y-9169817D01*
X9808158Y-9226960D02*
X9827206Y-9236484D01*
X9827206Y-9236484D02*
X9865301Y-9236484D01*
X9865301Y-9236484D02*
X9884349Y-9226960D01*
X9884349Y-9226960D02*
X9893873Y-9207912D01*
X9893873Y-9207912D02*
X9893873Y-9198389D01*
X9893873Y-9198389D02*
X9884349Y-9179341D01*
X9884349Y-9179341D02*
X9865301Y-9169817D01*
X9865301Y-9169817D02*
X9836730Y-9169817D01*
X9836730Y-9169817D02*
X9817682Y-9160293D01*
X9817682Y-9160293D02*
X9808158Y-9141246D01*
X9808158Y-9141246D02*
X9808158Y-9131722D01*
X9808158Y-9131722D02*
X9817682Y-9112674D01*
X9817682Y-9112674D02*
X9836730Y-9103150D01*
X9836730Y-9103150D02*
X9865301Y-9103150D01*
X9865301Y-9103150D02*
X9884349Y-9112674D01*
X9960539Y-9312674D02*
X9970063Y-9303150D01*
X9970063Y-9303150D02*
X9989111Y-9274579D01*
X9989111Y-9274579D02*
X9998634Y-9255531D01*
X9998634Y-9255531D02*
X10008158Y-9226960D01*
X10008158Y-9226960D02*
X10017682Y-9179341D01*
X10017682Y-9179341D02*
X10017682Y-9141246D01*
X10017682Y-9141246D02*
X10008158Y-9093627D01*
X10008158Y-9093627D02*
X9998634Y-9065055D01*
X9998634Y-9065055D02*
X9989111Y-9046008D01*
X9989111Y-9046008D02*
X9970063Y-9017436D01*
X9970063Y-9017436D02*
X9960539Y-9007912D01*
D13*
X4995000Y-9409000D02*
G75*
G03*
X4995000Y-9409000I-50038J0D01*
G01*
D11*
X5360539Y-9500484D02*
X5246253Y-9500484D01*
X5303396Y-9500484D02*
X5303396Y-9300484D01*
X5303396Y-9300484D02*
X5284348Y-9329055D01*
X5284348Y-9329055D02*
X5265301Y-9348103D01*
X5265301Y-9348103D02*
X5246253Y-9357627D01*
X5446253Y-9481436D02*
X5455777Y-9490960D01*
X5455777Y-9490960D02*
X5446253Y-9500484D01*
X5446253Y-9500484D02*
X5436729Y-9490960D01*
X5436729Y-9490960D02*
X5446253Y-9481436D01*
X5446253Y-9481436D02*
X5446253Y-9500484D01*
X5579586Y-9300484D02*
X5598634Y-9300484D01*
X5598634Y-9300484D02*
X5617682Y-9310008D01*
X5617682Y-9310008D02*
X5627205Y-9319531D01*
X5627205Y-9319531D02*
X5636729Y-9338579D01*
X5636729Y-9338579D02*
X5646253Y-9376674D01*
X5646253Y-9376674D02*
X5646253Y-9424293D01*
X5646253Y-9424293D02*
X5636729Y-9462389D01*
X5636729Y-9462389D02*
X5627205Y-9481436D01*
X5627205Y-9481436D02*
X5617682Y-9490960D01*
X5617682Y-9490960D02*
X5598634Y-9500484D01*
X5598634Y-9500484D02*
X5579586Y-9500484D01*
X5579586Y-9500484D02*
X5560539Y-9490960D01*
X5560539Y-9490960D02*
X5551015Y-9481436D01*
X5551015Y-9481436D02*
X5541491Y-9462389D01*
X5541491Y-9462389D02*
X5531967Y-9424293D01*
X5531967Y-9424293D02*
X5531967Y-9376674D01*
X5531967Y-9376674D02*
X5541491Y-9338579D01*
X5541491Y-9338579D02*
X5551015Y-9319531D01*
X5551015Y-9319531D02*
X5560539Y-9310008D01*
X5560539Y-9310008D02*
X5579586Y-9300484D01*
X5770062Y-9300484D02*
X5789110Y-9300484D01*
X5789110Y-9300484D02*
X5808158Y-9310008D01*
X5808158Y-9310008D02*
X5817682Y-9319531D01*
X5817682Y-9319531D02*
X5827205Y-9338579D01*
X5827205Y-9338579D02*
X5836729Y-9376674D01*
X5836729Y-9376674D02*
X5836729Y-9424293D01*
X5836729Y-9424293D02*
X5827205Y-9462389D01*
X5827205Y-9462389D02*
X5817682Y-9481436D01*
X5817682Y-9481436D02*
X5808158Y-9490960D01*
X5808158Y-9490960D02*
X5789110Y-9500484D01*
X5789110Y-9500484D02*
X5770062Y-9500484D01*
X5770062Y-9500484D02*
X5751015Y-9490960D01*
X5751015Y-9490960D02*
X5741491Y-9481436D01*
X5741491Y-9481436D02*
X5731967Y-9462389D01*
X5731967Y-9462389D02*
X5722443Y-9424293D01*
X5722443Y-9424293D02*
X5722443Y-9376674D01*
X5722443Y-9376674D02*
X5731967Y-9338579D01*
X5731967Y-9338579D02*
X5741491Y-9319531D01*
X5741491Y-9319531D02*
X5751015Y-9310008D01*
X5751015Y-9310008D02*
X5770062Y-9300484D01*
X6027205Y-9500484D02*
X5912920Y-9500484D01*
X5970062Y-9500484D02*
X5970062Y-9300484D01*
X5970062Y-9300484D02*
X5951015Y-9329055D01*
X5951015Y-9329055D02*
X5931967Y-9348103D01*
X5931967Y-9348103D02*
X5912920Y-9357627D01*
X6112920Y-9500484D02*
X6112920Y-9367150D01*
X6112920Y-9386198D02*
X6122443Y-9376674D01*
X6122443Y-9376674D02*
X6141491Y-9367150D01*
X6141491Y-9367150D02*
X6170063Y-9367150D01*
X6170063Y-9367150D02*
X6189110Y-9376674D01*
X6189110Y-9376674D02*
X6198634Y-9395722D01*
X6198634Y-9395722D02*
X6198634Y-9500484D01*
X6198634Y-9395722D02*
X6208158Y-9376674D01*
X6208158Y-9376674D02*
X6227205Y-9367150D01*
X6227205Y-9367150D02*
X6255777Y-9367150D01*
X6255777Y-9367150D02*
X6274824Y-9376674D01*
X6274824Y-9376674D02*
X6284348Y-9395722D01*
X6284348Y-9395722D02*
X6284348Y-9500484D01*
X6379586Y-9500484D02*
X6379586Y-9367150D01*
X6379586Y-9386198D02*
X6389110Y-9376674D01*
X6389110Y-9376674D02*
X6408158Y-9367150D01*
X6408158Y-9367150D02*
X6436729Y-9367150D01*
X6436729Y-9367150D02*
X6455777Y-9376674D01*
X6455777Y-9376674D02*
X6465301Y-9395722D01*
X6465301Y-9395722D02*
X6465301Y-9500484D01*
X6465301Y-9395722D02*
X6474824Y-9376674D01*
X6474824Y-9376674D02*
X6493872Y-9367150D01*
X6493872Y-9367150D02*
X6522443Y-9367150D01*
X6522443Y-9367150D02*
X6541491Y-9376674D01*
X6541491Y-9376674D02*
X6551015Y-9395722D01*
X6551015Y-9395722D02*
X6551015Y-9500484D01*
X6941491Y-9290960D02*
X6770063Y-9548103D01*
X7198634Y-9300484D02*
X7217682Y-9300484D01*
X7217682Y-9300484D02*
X7236729Y-9310008D01*
X7236729Y-9310008D02*
X7246253Y-9319531D01*
X7246253Y-9319531D02*
X7255777Y-9338579D01*
X7255777Y-9338579D02*
X7265301Y-9376674D01*
X7265301Y-9376674D02*
X7265301Y-9424293D01*
X7265301Y-9424293D02*
X7255777Y-9462389D01*
X7255777Y-9462389D02*
X7246253Y-9481436D01*
X7246253Y-9481436D02*
X7236729Y-9490960D01*
X7236729Y-9490960D02*
X7217682Y-9500484D01*
X7217682Y-9500484D02*
X7198634Y-9500484D01*
X7198634Y-9500484D02*
X7179586Y-9490960D01*
X7179586Y-9490960D02*
X7170063Y-9481436D01*
X7170063Y-9481436D02*
X7160539Y-9462389D01*
X7160539Y-9462389D02*
X7151015Y-9424293D01*
X7151015Y-9424293D02*
X7151015Y-9376674D01*
X7151015Y-9376674D02*
X7160539Y-9338579D01*
X7160539Y-9338579D02*
X7170063Y-9319531D01*
X7170063Y-9319531D02*
X7179586Y-9310008D01*
X7179586Y-9310008D02*
X7198634Y-9300484D01*
X7351015Y-9481436D02*
X7360539Y-9490960D01*
X7360539Y-9490960D02*
X7351015Y-9500484D01*
X7351015Y-9500484D02*
X7341491Y-9490960D01*
X7341491Y-9490960D02*
X7351015Y-9481436D01*
X7351015Y-9481436D02*
X7351015Y-9500484D01*
X7484348Y-9300484D02*
X7503396Y-9300484D01*
X7503396Y-9300484D02*
X7522444Y-9310008D01*
X7522444Y-9310008D02*
X7531967Y-9319531D01*
X7531967Y-9319531D02*
X7541491Y-9338579D01*
X7541491Y-9338579D02*
X7551015Y-9376674D01*
X7551015Y-9376674D02*
X7551015Y-9424293D01*
X7551015Y-9424293D02*
X7541491Y-9462389D01*
X7541491Y-9462389D02*
X7531967Y-9481436D01*
X7531967Y-9481436D02*
X7522444Y-9490960D01*
X7522444Y-9490960D02*
X7503396Y-9500484D01*
X7503396Y-9500484D02*
X7484348Y-9500484D01*
X7484348Y-9500484D02*
X7465301Y-9490960D01*
X7465301Y-9490960D02*
X7455777Y-9481436D01*
X7455777Y-9481436D02*
X7446253Y-9462389D01*
X7446253Y-9462389D02*
X7436729Y-9424293D01*
X7436729Y-9424293D02*
X7436729Y-9376674D01*
X7436729Y-9376674D02*
X7446253Y-9338579D01*
X7446253Y-9338579D02*
X7455777Y-9319531D01*
X7455777Y-9319531D02*
X7465301Y-9310008D01*
X7465301Y-9310008D02*
X7484348Y-9300484D01*
X7617682Y-9300484D02*
X7741491Y-9300484D01*
X7741491Y-9300484D02*
X7674825Y-9376674D01*
X7674825Y-9376674D02*
X7703396Y-9376674D01*
X7703396Y-9376674D02*
X7722444Y-9386198D01*
X7722444Y-9386198D02*
X7731967Y-9395722D01*
X7731967Y-9395722D02*
X7741491Y-9414770D01*
X7741491Y-9414770D02*
X7741491Y-9462389D01*
X7741491Y-9462389D02*
X7731967Y-9481436D01*
X7731967Y-9481436D02*
X7722444Y-9490960D01*
X7722444Y-9490960D02*
X7703396Y-9500484D01*
X7703396Y-9500484D02*
X7646253Y-9500484D01*
X7646253Y-9500484D02*
X7627206Y-9490960D01*
X7627206Y-9490960D02*
X7617682Y-9481436D01*
X7836729Y-9500484D02*
X7874825Y-9500484D01*
X7874825Y-9500484D02*
X7893872Y-9490960D01*
X7893872Y-9490960D02*
X7903396Y-9481436D01*
X7903396Y-9481436D02*
X7922444Y-9452865D01*
X7922444Y-9452865D02*
X7931967Y-9414770D01*
X7931967Y-9414770D02*
X7931967Y-9338579D01*
X7931967Y-9338579D02*
X7922444Y-9319531D01*
X7922444Y-9319531D02*
X7912920Y-9310008D01*
X7912920Y-9310008D02*
X7893872Y-9300484D01*
X7893872Y-9300484D02*
X7855777Y-9300484D01*
X7855777Y-9300484D02*
X7836729Y-9310008D01*
X7836729Y-9310008D02*
X7827206Y-9319531D01*
X7827206Y-9319531D02*
X7817682Y-9338579D01*
X7817682Y-9338579D02*
X7817682Y-9386198D01*
X7817682Y-9386198D02*
X7827206Y-9405246D01*
X7827206Y-9405246D02*
X7836729Y-9414770D01*
X7836729Y-9414770D02*
X7855777Y-9424293D01*
X7855777Y-9424293D02*
X7893872Y-9424293D01*
X7893872Y-9424293D02*
X7912920Y-9414770D01*
X7912920Y-9414770D02*
X7922444Y-9405246D01*
X7922444Y-9405246D02*
X7931967Y-9386198D01*
X8103396Y-9367150D02*
X8103396Y-9500484D01*
X8055777Y-9290960D02*
X8008158Y-9433817D01*
X8008158Y-9433817D02*
X8131967Y-9433817D01*
X8198634Y-9300484D02*
X8198634Y-9338579D01*
X8274825Y-9300484D02*
X8274825Y-9338579D01*
X8570063Y-9576674D02*
X8560539Y-9567150D01*
X8560539Y-9567150D02*
X8541491Y-9538579D01*
X8541491Y-9538579D02*
X8531968Y-9519531D01*
X8531968Y-9519531D02*
X8522444Y-9490960D01*
X8522444Y-9490960D02*
X8512920Y-9443341D01*
X8512920Y-9443341D02*
X8512920Y-9405246D01*
X8512920Y-9405246D02*
X8522444Y-9357627D01*
X8522444Y-9357627D02*
X8531968Y-9329055D01*
X8531968Y-9329055D02*
X8541491Y-9310008D01*
X8541491Y-9310008D02*
X8560539Y-9281436D01*
X8560539Y-9281436D02*
X8570063Y-9271912D01*
X8751015Y-9500484D02*
X8636730Y-9500484D01*
X8693872Y-9500484D02*
X8693872Y-9300484D01*
X8693872Y-9300484D02*
X8674825Y-9329055D01*
X8674825Y-9329055D02*
X8655777Y-9348103D01*
X8655777Y-9348103D02*
X8636730Y-9357627D01*
X8827206Y-9319531D02*
X8836730Y-9310008D01*
X8836730Y-9310008D02*
X8855777Y-9300484D01*
X8855777Y-9300484D02*
X8903396Y-9300484D01*
X8903396Y-9300484D02*
X8922444Y-9310008D01*
X8922444Y-9310008D02*
X8931968Y-9319531D01*
X8931968Y-9319531D02*
X8941491Y-9338579D01*
X8941491Y-9338579D02*
X8941491Y-9357627D01*
X8941491Y-9357627D02*
X8931968Y-9386198D01*
X8931968Y-9386198D02*
X8817682Y-9500484D01*
X8817682Y-9500484D02*
X8941491Y-9500484D01*
X9179587Y-9500484D02*
X9179587Y-9300484D01*
X9265301Y-9500484D02*
X9265301Y-9395722D01*
X9265301Y-9395722D02*
X9255777Y-9376674D01*
X9255777Y-9376674D02*
X9236730Y-9367150D01*
X9236730Y-9367150D02*
X9208158Y-9367150D01*
X9208158Y-9367150D02*
X9189111Y-9376674D01*
X9189111Y-9376674D02*
X9179587Y-9386198D01*
X9389111Y-9500484D02*
X9370063Y-9490960D01*
X9370063Y-9490960D02*
X9360539Y-9481436D01*
X9360539Y-9481436D02*
X9351015Y-9462389D01*
X9351015Y-9462389D02*
X9351015Y-9405246D01*
X9351015Y-9405246D02*
X9360539Y-9386198D01*
X9360539Y-9386198D02*
X9370063Y-9376674D01*
X9370063Y-9376674D02*
X9389111Y-9367150D01*
X9389111Y-9367150D02*
X9417682Y-9367150D01*
X9417682Y-9367150D02*
X9436730Y-9376674D01*
X9436730Y-9376674D02*
X9446253Y-9386198D01*
X9446253Y-9386198D02*
X9455777Y-9405246D01*
X9455777Y-9405246D02*
X9455777Y-9462389D01*
X9455777Y-9462389D02*
X9446253Y-9481436D01*
X9446253Y-9481436D02*
X9436730Y-9490960D01*
X9436730Y-9490960D02*
X9417682Y-9500484D01*
X9417682Y-9500484D02*
X9389111Y-9500484D01*
X9570063Y-9500484D02*
X9551015Y-9490960D01*
X9551015Y-9490960D02*
X9541492Y-9471912D01*
X9541492Y-9471912D02*
X9541492Y-9300484D01*
X9722444Y-9490960D02*
X9703396Y-9500484D01*
X9703396Y-9500484D02*
X9665301Y-9500484D01*
X9665301Y-9500484D02*
X9646253Y-9490960D01*
X9646253Y-9490960D02*
X9636730Y-9471912D01*
X9636730Y-9471912D02*
X9636730Y-9395722D01*
X9636730Y-9395722D02*
X9646253Y-9376674D01*
X9646253Y-9376674D02*
X9665301Y-9367150D01*
X9665301Y-9367150D02*
X9703396Y-9367150D01*
X9703396Y-9367150D02*
X9722444Y-9376674D01*
X9722444Y-9376674D02*
X9731968Y-9395722D01*
X9731968Y-9395722D02*
X9731968Y-9414770D01*
X9731968Y-9414770D02*
X9636730Y-9433817D01*
X9808158Y-9490960D02*
X9827206Y-9500484D01*
X9827206Y-9500484D02*
X9865301Y-9500484D01*
X9865301Y-9500484D02*
X9884349Y-9490960D01*
X9884349Y-9490960D02*
X9893873Y-9471912D01*
X9893873Y-9471912D02*
X9893873Y-9462389D01*
X9893873Y-9462389D02*
X9884349Y-9443341D01*
X9884349Y-9443341D02*
X9865301Y-9433817D01*
X9865301Y-9433817D02*
X9836730Y-9433817D01*
X9836730Y-9433817D02*
X9817682Y-9424293D01*
X9817682Y-9424293D02*
X9808158Y-9405246D01*
X9808158Y-9405246D02*
X9808158Y-9395722D01*
X9808158Y-9395722D02*
X9817682Y-9376674D01*
X9817682Y-9376674D02*
X9836730Y-9367150D01*
X9836730Y-9367150D02*
X9865301Y-9367150D01*
X9865301Y-9367150D02*
X9884349Y-9376674D01*
X9960539Y-9576674D02*
X9970063Y-9567150D01*
X9970063Y-9567150D02*
X9989111Y-9538579D01*
X9989111Y-9538579D02*
X9998634Y-9519531D01*
X9998634Y-9519531D02*
X10008158Y-9490960D01*
X10008158Y-9490960D02*
X10017682Y-9443341D01*
X10017682Y-9443341D02*
X10017682Y-9405246D01*
X10017682Y-9405246D02*
X10008158Y-9357627D01*
X10008158Y-9357627D02*
X9998634Y-9329055D01*
X9998634Y-9329055D02*
X9989111Y-9310008D01*
X9989111Y-9310008D02*
X9970063Y-9281436D01*
X9970063Y-9281436D02*
X9960539Y-9271912D01*
X4895000Y-9573000D02*
X4895000Y-9773000D01*
X4795000Y-9673000D02*
X4995000Y-9673000D01*
X5246253Y-9583531D02*
X5255777Y-9574008D01*
X5255777Y-9574008D02*
X5274824Y-9564484D01*
X5274824Y-9564484D02*
X5322444Y-9564484D01*
X5322444Y-9564484D02*
X5341491Y-9574008D01*
X5341491Y-9574008D02*
X5351015Y-9583531D01*
X5351015Y-9583531D02*
X5360539Y-9602579D01*
X5360539Y-9602579D02*
X5360539Y-9621627D01*
X5360539Y-9621627D02*
X5351015Y-9650198D01*
X5351015Y-9650198D02*
X5236729Y-9764484D01*
X5236729Y-9764484D02*
X5360539Y-9764484D01*
X5446253Y-9745436D02*
X5455777Y-9754960D01*
X5455777Y-9754960D02*
X5446253Y-9764484D01*
X5446253Y-9764484D02*
X5436729Y-9754960D01*
X5436729Y-9754960D02*
X5446253Y-9745436D01*
X5446253Y-9745436D02*
X5446253Y-9764484D01*
X5531967Y-9583531D02*
X5541491Y-9574008D01*
X5541491Y-9574008D02*
X5560539Y-9564484D01*
X5560539Y-9564484D02*
X5608158Y-9564484D01*
X5608158Y-9564484D02*
X5627205Y-9574008D01*
X5627205Y-9574008D02*
X5636729Y-9583531D01*
X5636729Y-9583531D02*
X5646253Y-9602579D01*
X5646253Y-9602579D02*
X5646253Y-9621627D01*
X5646253Y-9621627D02*
X5636729Y-9650198D01*
X5636729Y-9650198D02*
X5522444Y-9764484D01*
X5522444Y-9764484D02*
X5646253Y-9764484D01*
X5770062Y-9564484D02*
X5789110Y-9564484D01*
X5789110Y-9564484D02*
X5808158Y-9574008D01*
X5808158Y-9574008D02*
X5817682Y-9583531D01*
X5817682Y-9583531D02*
X5827205Y-9602579D01*
X5827205Y-9602579D02*
X5836729Y-9640674D01*
X5836729Y-9640674D02*
X5836729Y-9688293D01*
X5836729Y-9688293D02*
X5827205Y-9726389D01*
X5827205Y-9726389D02*
X5817682Y-9745436D01*
X5817682Y-9745436D02*
X5808158Y-9754960D01*
X5808158Y-9754960D02*
X5789110Y-9764484D01*
X5789110Y-9764484D02*
X5770062Y-9764484D01*
X5770062Y-9764484D02*
X5751015Y-9754960D01*
X5751015Y-9754960D02*
X5741491Y-9745436D01*
X5741491Y-9745436D02*
X5731967Y-9726389D01*
X5731967Y-9726389D02*
X5722443Y-9688293D01*
X5722443Y-9688293D02*
X5722443Y-9640674D01*
X5722443Y-9640674D02*
X5731967Y-9602579D01*
X5731967Y-9602579D02*
X5741491Y-9583531D01*
X5741491Y-9583531D02*
X5751015Y-9574008D01*
X5751015Y-9574008D02*
X5770062Y-9564484D01*
X5960539Y-9564484D02*
X5979586Y-9564484D01*
X5979586Y-9564484D02*
X5998634Y-9574008D01*
X5998634Y-9574008D02*
X6008158Y-9583531D01*
X6008158Y-9583531D02*
X6017682Y-9602579D01*
X6017682Y-9602579D02*
X6027205Y-9640674D01*
X6027205Y-9640674D02*
X6027205Y-9688293D01*
X6027205Y-9688293D02*
X6017682Y-9726389D01*
X6017682Y-9726389D02*
X6008158Y-9745436D01*
X6008158Y-9745436D02*
X5998634Y-9754960D01*
X5998634Y-9754960D02*
X5979586Y-9764484D01*
X5979586Y-9764484D02*
X5960539Y-9764484D01*
X5960539Y-9764484D02*
X5941491Y-9754960D01*
X5941491Y-9754960D02*
X5931967Y-9745436D01*
X5931967Y-9745436D02*
X5922443Y-9726389D01*
X5922443Y-9726389D02*
X5912920Y-9688293D01*
X5912920Y-9688293D02*
X5912920Y-9640674D01*
X5912920Y-9640674D02*
X5922443Y-9602579D01*
X5922443Y-9602579D02*
X5931967Y-9583531D01*
X5931967Y-9583531D02*
X5941491Y-9574008D01*
X5941491Y-9574008D02*
X5960539Y-9564484D01*
X6112920Y-9764484D02*
X6112920Y-9631150D01*
X6112920Y-9650198D02*
X6122443Y-9640674D01*
X6122443Y-9640674D02*
X6141491Y-9631150D01*
X6141491Y-9631150D02*
X6170063Y-9631150D01*
X6170063Y-9631150D02*
X6189110Y-9640674D01*
X6189110Y-9640674D02*
X6198634Y-9659722D01*
X6198634Y-9659722D02*
X6198634Y-9764484D01*
X6198634Y-9659722D02*
X6208158Y-9640674D01*
X6208158Y-9640674D02*
X6227205Y-9631150D01*
X6227205Y-9631150D02*
X6255777Y-9631150D01*
X6255777Y-9631150D02*
X6274824Y-9640674D01*
X6274824Y-9640674D02*
X6284348Y-9659722D01*
X6284348Y-9659722D02*
X6284348Y-9764484D01*
X6379586Y-9764484D02*
X6379586Y-9631150D01*
X6379586Y-9650198D02*
X6389110Y-9640674D01*
X6389110Y-9640674D02*
X6408158Y-9631150D01*
X6408158Y-9631150D02*
X6436729Y-9631150D01*
X6436729Y-9631150D02*
X6455777Y-9640674D01*
X6455777Y-9640674D02*
X6465301Y-9659722D01*
X6465301Y-9659722D02*
X6465301Y-9764484D01*
X6465301Y-9659722D02*
X6474824Y-9640674D01*
X6474824Y-9640674D02*
X6493872Y-9631150D01*
X6493872Y-9631150D02*
X6522443Y-9631150D01*
X6522443Y-9631150D02*
X6541491Y-9640674D01*
X6541491Y-9640674D02*
X6551015Y-9659722D01*
X6551015Y-9659722D02*
X6551015Y-9764484D01*
X6941491Y-9554960D02*
X6770063Y-9812103D01*
X7198634Y-9564484D02*
X7217682Y-9564484D01*
X7217682Y-9564484D02*
X7236729Y-9574008D01*
X7236729Y-9574008D02*
X7246253Y-9583531D01*
X7246253Y-9583531D02*
X7255777Y-9602579D01*
X7255777Y-9602579D02*
X7265301Y-9640674D01*
X7265301Y-9640674D02*
X7265301Y-9688293D01*
X7265301Y-9688293D02*
X7255777Y-9726389D01*
X7255777Y-9726389D02*
X7246253Y-9745436D01*
X7246253Y-9745436D02*
X7236729Y-9754960D01*
X7236729Y-9754960D02*
X7217682Y-9764484D01*
X7217682Y-9764484D02*
X7198634Y-9764484D01*
X7198634Y-9764484D02*
X7179586Y-9754960D01*
X7179586Y-9754960D02*
X7170063Y-9745436D01*
X7170063Y-9745436D02*
X7160539Y-9726389D01*
X7160539Y-9726389D02*
X7151015Y-9688293D01*
X7151015Y-9688293D02*
X7151015Y-9640674D01*
X7151015Y-9640674D02*
X7160539Y-9602579D01*
X7160539Y-9602579D02*
X7170063Y-9583531D01*
X7170063Y-9583531D02*
X7179586Y-9574008D01*
X7179586Y-9574008D02*
X7198634Y-9564484D01*
X7351015Y-9745436D02*
X7360539Y-9754960D01*
X7360539Y-9754960D02*
X7351015Y-9764484D01*
X7351015Y-9764484D02*
X7341491Y-9754960D01*
X7341491Y-9754960D02*
X7351015Y-9745436D01*
X7351015Y-9745436D02*
X7351015Y-9764484D01*
X7484348Y-9564484D02*
X7503396Y-9564484D01*
X7503396Y-9564484D02*
X7522444Y-9574008D01*
X7522444Y-9574008D02*
X7531967Y-9583531D01*
X7531967Y-9583531D02*
X7541491Y-9602579D01*
X7541491Y-9602579D02*
X7551015Y-9640674D01*
X7551015Y-9640674D02*
X7551015Y-9688293D01*
X7551015Y-9688293D02*
X7541491Y-9726389D01*
X7541491Y-9726389D02*
X7531967Y-9745436D01*
X7531967Y-9745436D02*
X7522444Y-9754960D01*
X7522444Y-9754960D02*
X7503396Y-9764484D01*
X7503396Y-9764484D02*
X7484348Y-9764484D01*
X7484348Y-9764484D02*
X7465301Y-9754960D01*
X7465301Y-9754960D02*
X7455777Y-9745436D01*
X7455777Y-9745436D02*
X7446253Y-9726389D01*
X7446253Y-9726389D02*
X7436729Y-9688293D01*
X7436729Y-9688293D02*
X7436729Y-9640674D01*
X7436729Y-9640674D02*
X7446253Y-9602579D01*
X7446253Y-9602579D02*
X7455777Y-9583531D01*
X7455777Y-9583531D02*
X7465301Y-9574008D01*
X7465301Y-9574008D02*
X7484348Y-9564484D01*
X7665301Y-9650198D02*
X7646253Y-9640674D01*
X7646253Y-9640674D02*
X7636729Y-9631150D01*
X7636729Y-9631150D02*
X7627206Y-9612103D01*
X7627206Y-9612103D02*
X7627206Y-9602579D01*
X7627206Y-9602579D02*
X7636729Y-9583531D01*
X7636729Y-9583531D02*
X7646253Y-9574008D01*
X7646253Y-9574008D02*
X7665301Y-9564484D01*
X7665301Y-9564484D02*
X7703396Y-9564484D01*
X7703396Y-9564484D02*
X7722444Y-9574008D01*
X7722444Y-9574008D02*
X7731967Y-9583531D01*
X7731967Y-9583531D02*
X7741491Y-9602579D01*
X7741491Y-9602579D02*
X7741491Y-9612103D01*
X7741491Y-9612103D02*
X7731967Y-9631150D01*
X7731967Y-9631150D02*
X7722444Y-9640674D01*
X7722444Y-9640674D02*
X7703396Y-9650198D01*
X7703396Y-9650198D02*
X7665301Y-9650198D01*
X7665301Y-9650198D02*
X7646253Y-9659722D01*
X7646253Y-9659722D02*
X7636729Y-9669246D01*
X7636729Y-9669246D02*
X7627206Y-9688293D01*
X7627206Y-9688293D02*
X7627206Y-9726389D01*
X7627206Y-9726389D02*
X7636729Y-9745436D01*
X7636729Y-9745436D02*
X7646253Y-9754960D01*
X7646253Y-9754960D02*
X7665301Y-9764484D01*
X7665301Y-9764484D02*
X7703396Y-9764484D01*
X7703396Y-9764484D02*
X7722444Y-9754960D01*
X7722444Y-9754960D02*
X7731967Y-9745436D01*
X7731967Y-9745436D02*
X7741491Y-9726389D01*
X7741491Y-9726389D02*
X7741491Y-9688293D01*
X7741491Y-9688293D02*
X7731967Y-9669246D01*
X7731967Y-9669246D02*
X7722444Y-9659722D01*
X7722444Y-9659722D02*
X7703396Y-9650198D01*
X7912920Y-9564484D02*
X7874825Y-9564484D01*
X7874825Y-9564484D02*
X7855777Y-9574008D01*
X7855777Y-9574008D02*
X7846253Y-9583531D01*
X7846253Y-9583531D02*
X7827206Y-9612103D01*
X7827206Y-9612103D02*
X7817682Y-9650198D01*
X7817682Y-9650198D02*
X7817682Y-9726389D01*
X7817682Y-9726389D02*
X7827206Y-9745436D01*
X7827206Y-9745436D02*
X7836729Y-9754960D01*
X7836729Y-9754960D02*
X7855777Y-9764484D01*
X7855777Y-9764484D02*
X7893872Y-9764484D01*
X7893872Y-9764484D02*
X7912920Y-9754960D01*
X7912920Y-9754960D02*
X7922444Y-9745436D01*
X7922444Y-9745436D02*
X7931967Y-9726389D01*
X7931967Y-9726389D02*
X7931967Y-9678770D01*
X7931967Y-9678770D02*
X7922444Y-9659722D01*
X7922444Y-9659722D02*
X7912920Y-9650198D01*
X7912920Y-9650198D02*
X7893872Y-9640674D01*
X7893872Y-9640674D02*
X7855777Y-9640674D01*
X7855777Y-9640674D02*
X7836729Y-9650198D01*
X7836729Y-9650198D02*
X7827206Y-9659722D01*
X7827206Y-9659722D02*
X7817682Y-9678770D01*
X8103396Y-9564484D02*
X8065301Y-9564484D01*
X8065301Y-9564484D02*
X8046253Y-9574008D01*
X8046253Y-9574008D02*
X8036729Y-9583531D01*
X8036729Y-9583531D02*
X8017682Y-9612103D01*
X8017682Y-9612103D02*
X8008158Y-9650198D01*
X8008158Y-9650198D02*
X8008158Y-9726389D01*
X8008158Y-9726389D02*
X8017682Y-9745436D01*
X8017682Y-9745436D02*
X8027206Y-9754960D01*
X8027206Y-9754960D02*
X8046253Y-9764484D01*
X8046253Y-9764484D02*
X8084348Y-9764484D01*
X8084348Y-9764484D02*
X8103396Y-9754960D01*
X8103396Y-9754960D02*
X8112920Y-9745436D01*
X8112920Y-9745436D02*
X8122444Y-9726389D01*
X8122444Y-9726389D02*
X8122444Y-9678770D01*
X8122444Y-9678770D02*
X8112920Y-9659722D01*
X8112920Y-9659722D02*
X8103396Y-9650198D01*
X8103396Y-9650198D02*
X8084348Y-9640674D01*
X8084348Y-9640674D02*
X8046253Y-9640674D01*
X8046253Y-9640674D02*
X8027206Y-9650198D01*
X8027206Y-9650198D02*
X8017682Y-9659722D01*
X8017682Y-9659722D02*
X8008158Y-9678770D01*
X8198634Y-9564484D02*
X8198634Y-9602579D01*
X8274825Y-9564484D02*
X8274825Y-9602579D01*
X8570063Y-9840674D02*
X8560539Y-9831150D01*
X8560539Y-9831150D02*
X8541491Y-9802579D01*
X8541491Y-9802579D02*
X8531968Y-9783531D01*
X8531968Y-9783531D02*
X8522444Y-9754960D01*
X8522444Y-9754960D02*
X8512920Y-9707341D01*
X8512920Y-9707341D02*
X8512920Y-9669246D01*
X8512920Y-9669246D02*
X8522444Y-9621627D01*
X8522444Y-9621627D02*
X8531968Y-9593055D01*
X8531968Y-9593055D02*
X8541491Y-9574008D01*
X8541491Y-9574008D02*
X8560539Y-9545436D01*
X8560539Y-9545436D02*
X8570063Y-9535912D01*
X8751015Y-9764484D02*
X8636730Y-9764484D01*
X8693872Y-9764484D02*
X8693872Y-9564484D01*
X8693872Y-9564484D02*
X8674825Y-9593055D01*
X8674825Y-9593055D02*
X8655777Y-9612103D01*
X8655777Y-9612103D02*
X8636730Y-9621627D01*
X8827206Y-9583531D02*
X8836730Y-9574008D01*
X8836730Y-9574008D02*
X8855777Y-9564484D01*
X8855777Y-9564484D02*
X8903396Y-9564484D01*
X8903396Y-9564484D02*
X8922444Y-9574008D01*
X8922444Y-9574008D02*
X8931968Y-9583531D01*
X8931968Y-9583531D02*
X8941491Y-9602579D01*
X8941491Y-9602579D02*
X8941491Y-9621627D01*
X8941491Y-9621627D02*
X8931968Y-9650198D01*
X8931968Y-9650198D02*
X8817682Y-9764484D01*
X8817682Y-9764484D02*
X8941491Y-9764484D01*
X9179587Y-9764484D02*
X9179587Y-9564484D01*
X9265301Y-9764484D02*
X9265301Y-9659722D01*
X9265301Y-9659722D02*
X9255777Y-9640674D01*
X9255777Y-9640674D02*
X9236730Y-9631150D01*
X9236730Y-9631150D02*
X9208158Y-9631150D01*
X9208158Y-9631150D02*
X9189111Y-9640674D01*
X9189111Y-9640674D02*
X9179587Y-9650198D01*
X9389111Y-9764484D02*
X9370063Y-9754960D01*
X9370063Y-9754960D02*
X9360539Y-9745436D01*
X9360539Y-9745436D02*
X9351015Y-9726389D01*
X9351015Y-9726389D02*
X9351015Y-9669246D01*
X9351015Y-9669246D02*
X9360539Y-9650198D01*
X9360539Y-9650198D02*
X9370063Y-9640674D01*
X9370063Y-9640674D02*
X9389111Y-9631150D01*
X9389111Y-9631150D02*
X9417682Y-9631150D01*
X9417682Y-9631150D02*
X9436730Y-9640674D01*
X9436730Y-9640674D02*
X9446253Y-9650198D01*
X9446253Y-9650198D02*
X9455777Y-9669246D01*
X9455777Y-9669246D02*
X9455777Y-9726389D01*
X9455777Y-9726389D02*
X9446253Y-9745436D01*
X9446253Y-9745436D02*
X9436730Y-9754960D01*
X9436730Y-9754960D02*
X9417682Y-9764484D01*
X9417682Y-9764484D02*
X9389111Y-9764484D01*
X9570063Y-9764484D02*
X9551015Y-9754960D01*
X9551015Y-9754960D02*
X9541492Y-9735912D01*
X9541492Y-9735912D02*
X9541492Y-9564484D01*
X9722444Y-9754960D02*
X9703396Y-9764484D01*
X9703396Y-9764484D02*
X9665301Y-9764484D01*
X9665301Y-9764484D02*
X9646253Y-9754960D01*
X9646253Y-9754960D02*
X9636730Y-9735912D01*
X9636730Y-9735912D02*
X9636730Y-9659722D01*
X9636730Y-9659722D02*
X9646253Y-9640674D01*
X9646253Y-9640674D02*
X9665301Y-9631150D01*
X9665301Y-9631150D02*
X9703396Y-9631150D01*
X9703396Y-9631150D02*
X9722444Y-9640674D01*
X9722444Y-9640674D02*
X9731968Y-9659722D01*
X9731968Y-9659722D02*
X9731968Y-9678770D01*
X9731968Y-9678770D02*
X9636730Y-9697817D01*
X9808158Y-9754960D02*
X9827206Y-9764484D01*
X9827206Y-9764484D02*
X9865301Y-9764484D01*
X9865301Y-9764484D02*
X9884349Y-9754960D01*
X9884349Y-9754960D02*
X9893873Y-9735912D01*
X9893873Y-9735912D02*
X9893873Y-9726389D01*
X9893873Y-9726389D02*
X9884349Y-9707341D01*
X9884349Y-9707341D02*
X9865301Y-9697817D01*
X9865301Y-9697817D02*
X9836730Y-9697817D01*
X9836730Y-9697817D02*
X9817682Y-9688293D01*
X9817682Y-9688293D02*
X9808158Y-9669246D01*
X9808158Y-9669246D02*
X9808158Y-9659722D01*
X9808158Y-9659722D02*
X9817682Y-9640674D01*
X9817682Y-9640674D02*
X9836730Y-9631150D01*
X9836730Y-9631150D02*
X9865301Y-9631150D01*
X9865301Y-9631150D02*
X9884349Y-9640674D01*
X9960539Y-9840674D02*
X9970063Y-9831150D01*
X9970063Y-9831150D02*
X9989111Y-9802579D01*
X9989111Y-9802579D02*
X9998634Y-9783531D01*
X9998634Y-9783531D02*
X10008158Y-9754960D01*
X10008158Y-9754960D02*
X10017682Y-9707341D01*
X10017682Y-9707341D02*
X10017682Y-9669246D01*
X10017682Y-9669246D02*
X10008158Y-9621627D01*
X10008158Y-9621627D02*
X9998634Y-9593055D01*
X9998634Y-9593055D02*
X9989111Y-9574008D01*
X9989111Y-9574008D02*
X9970063Y-9545436D01*
X9970063Y-9545436D02*
X9960539Y-9535912D01*
M02*
