%TF.GenerationSoftware,KiCad,Pcbnew,7.0.8*%
%TF.CreationDate,2024-02-11T23:31:26+01:00*%
%TF.ProjectId,BlankingRelay_Top1,426c616e-6b69-46e6-9752-656c61795f54,rev?*%
%TF.SameCoordinates,Original*%
%TF.FileFunction,Drillmap*%
%TF.FilePolarity,Positive*%
%FSLAX45Y45*%
G04 Gerber Fmt 4.5, Leading zero omitted, Abs format (unit mm)*
G04 Created by KiCad (PCBNEW 7.0.8) date 2024-02-11 23:31:26*
%MOMM*%
%LPD*%
G01*
G04 APERTURE LIST*
%ADD10C,0.100000*%
%ADD11C,0.200000*%
%ADD12C,0.320000*%
G04 APERTURE END LIST*
D10*
X5000000Y-5500000D02*
X17000000Y-5500000D01*
X17000000Y-8500000D01*
X5000000Y-8500000D01*
X5000000Y-5500000D01*
D11*
D12*
X5840000Y-6340000D02*
X6160000Y-6660000D01*
X6160000Y-6340000D02*
X5840000Y-6660000D01*
X15840000Y-6340000D02*
X16160000Y-6660000D01*
X16160000Y-6340000D02*
X15840000Y-6660000D01*
D11*
X5255777Y-8816484D02*
X5255777Y-8616484D01*
X5255777Y-8616484D02*
X5303396Y-8616484D01*
X5303396Y-8616484D02*
X5331967Y-8626008D01*
X5331967Y-8626008D02*
X5351015Y-8645055D01*
X5351015Y-8645055D02*
X5360539Y-8664103D01*
X5360539Y-8664103D02*
X5370063Y-8702198D01*
X5370063Y-8702198D02*
X5370063Y-8730770D01*
X5370063Y-8730770D02*
X5360539Y-8768865D01*
X5360539Y-8768865D02*
X5351015Y-8787912D01*
X5351015Y-8787912D02*
X5331967Y-8806960D01*
X5331967Y-8806960D02*
X5303396Y-8816484D01*
X5303396Y-8816484D02*
X5255777Y-8816484D01*
X5455777Y-8816484D02*
X5455777Y-8683150D01*
X5455777Y-8721246D02*
X5465301Y-8702198D01*
X5465301Y-8702198D02*
X5474824Y-8692674D01*
X5474824Y-8692674D02*
X5493872Y-8683150D01*
X5493872Y-8683150D02*
X5512920Y-8683150D01*
X5579586Y-8816484D02*
X5579586Y-8683150D01*
X5579586Y-8616484D02*
X5570063Y-8626008D01*
X5570063Y-8626008D02*
X5579586Y-8635531D01*
X5579586Y-8635531D02*
X5589110Y-8626008D01*
X5589110Y-8626008D02*
X5579586Y-8616484D01*
X5579586Y-8616484D02*
X5579586Y-8635531D01*
X5703396Y-8816484D02*
X5684348Y-8806960D01*
X5684348Y-8806960D02*
X5674824Y-8787912D01*
X5674824Y-8787912D02*
X5674824Y-8616484D01*
X5808158Y-8816484D02*
X5789110Y-8806960D01*
X5789110Y-8806960D02*
X5779586Y-8787912D01*
X5779586Y-8787912D02*
X5779586Y-8616484D01*
X6036729Y-8816484D02*
X6036729Y-8616484D01*
X6036729Y-8616484D02*
X6103396Y-8759341D01*
X6103396Y-8759341D02*
X6170062Y-8616484D01*
X6170062Y-8616484D02*
X6170062Y-8816484D01*
X6351015Y-8816484D02*
X6351015Y-8711722D01*
X6351015Y-8711722D02*
X6341491Y-8692674D01*
X6341491Y-8692674D02*
X6322443Y-8683150D01*
X6322443Y-8683150D02*
X6284348Y-8683150D01*
X6284348Y-8683150D02*
X6265301Y-8692674D01*
X6351015Y-8806960D02*
X6331967Y-8816484D01*
X6331967Y-8816484D02*
X6284348Y-8816484D01*
X6284348Y-8816484D02*
X6265301Y-8806960D01*
X6265301Y-8806960D02*
X6255777Y-8787912D01*
X6255777Y-8787912D02*
X6255777Y-8768865D01*
X6255777Y-8768865D02*
X6265301Y-8749817D01*
X6265301Y-8749817D02*
X6284348Y-8740293D01*
X6284348Y-8740293D02*
X6331967Y-8740293D01*
X6331967Y-8740293D02*
X6351015Y-8730770D01*
X6446253Y-8683150D02*
X6446253Y-8883150D01*
X6446253Y-8692674D02*
X6465301Y-8683150D01*
X6465301Y-8683150D02*
X6503396Y-8683150D01*
X6503396Y-8683150D02*
X6522443Y-8692674D01*
X6522443Y-8692674D02*
X6531967Y-8702198D01*
X6531967Y-8702198D02*
X6541491Y-8721246D01*
X6541491Y-8721246D02*
X6541491Y-8778389D01*
X6541491Y-8778389D02*
X6531967Y-8797436D01*
X6531967Y-8797436D02*
X6522443Y-8806960D01*
X6522443Y-8806960D02*
X6503396Y-8816484D01*
X6503396Y-8816484D02*
X6465301Y-8816484D01*
X6465301Y-8816484D02*
X6446253Y-8806960D01*
X6627205Y-8797436D02*
X6636729Y-8806960D01*
X6636729Y-8806960D02*
X6627205Y-8816484D01*
X6627205Y-8816484D02*
X6617682Y-8806960D01*
X6617682Y-8806960D02*
X6627205Y-8797436D01*
X6627205Y-8797436D02*
X6627205Y-8816484D01*
X6627205Y-8692674D02*
X6636729Y-8702198D01*
X6636729Y-8702198D02*
X6627205Y-8711722D01*
X6627205Y-8711722D02*
X6617682Y-8702198D01*
X6617682Y-8702198D02*
X6627205Y-8692674D01*
X6627205Y-8692674D02*
X6627205Y-8711722D01*
X4795000Y-9045000D02*
X4995000Y-9245000D01*
X4995000Y-9045000D02*
X4795000Y-9245000D01*
X5236729Y-9036484D02*
X5360539Y-9036484D01*
X5360539Y-9036484D02*
X5293872Y-9112674D01*
X5293872Y-9112674D02*
X5322444Y-9112674D01*
X5322444Y-9112674D02*
X5341491Y-9122198D01*
X5341491Y-9122198D02*
X5351015Y-9131722D01*
X5351015Y-9131722D02*
X5360539Y-9150770D01*
X5360539Y-9150770D02*
X5360539Y-9198389D01*
X5360539Y-9198389D02*
X5351015Y-9217436D01*
X5351015Y-9217436D02*
X5341491Y-9226960D01*
X5341491Y-9226960D02*
X5322444Y-9236484D01*
X5322444Y-9236484D02*
X5265301Y-9236484D01*
X5265301Y-9236484D02*
X5246253Y-9226960D01*
X5246253Y-9226960D02*
X5236729Y-9217436D01*
X5446253Y-9217436D02*
X5455777Y-9226960D01*
X5455777Y-9226960D02*
X5446253Y-9236484D01*
X5446253Y-9236484D02*
X5436729Y-9226960D01*
X5436729Y-9226960D02*
X5446253Y-9217436D01*
X5446253Y-9217436D02*
X5446253Y-9236484D01*
X5531967Y-9055531D02*
X5541491Y-9046008D01*
X5541491Y-9046008D02*
X5560539Y-9036484D01*
X5560539Y-9036484D02*
X5608158Y-9036484D01*
X5608158Y-9036484D02*
X5627205Y-9046008D01*
X5627205Y-9046008D02*
X5636729Y-9055531D01*
X5636729Y-9055531D02*
X5646253Y-9074579D01*
X5646253Y-9074579D02*
X5646253Y-9093627D01*
X5646253Y-9093627D02*
X5636729Y-9122198D01*
X5636729Y-9122198D02*
X5522444Y-9236484D01*
X5522444Y-9236484D02*
X5646253Y-9236484D01*
X5770062Y-9036484D02*
X5789110Y-9036484D01*
X5789110Y-9036484D02*
X5808158Y-9046008D01*
X5808158Y-9046008D02*
X5817682Y-9055531D01*
X5817682Y-9055531D02*
X5827205Y-9074579D01*
X5827205Y-9074579D02*
X5836729Y-9112674D01*
X5836729Y-9112674D02*
X5836729Y-9160293D01*
X5836729Y-9160293D02*
X5827205Y-9198389D01*
X5827205Y-9198389D02*
X5817682Y-9217436D01*
X5817682Y-9217436D02*
X5808158Y-9226960D01*
X5808158Y-9226960D02*
X5789110Y-9236484D01*
X5789110Y-9236484D02*
X5770062Y-9236484D01*
X5770062Y-9236484D02*
X5751015Y-9226960D01*
X5751015Y-9226960D02*
X5741491Y-9217436D01*
X5741491Y-9217436D02*
X5731967Y-9198389D01*
X5731967Y-9198389D02*
X5722443Y-9160293D01*
X5722443Y-9160293D02*
X5722443Y-9112674D01*
X5722443Y-9112674D02*
X5731967Y-9074579D01*
X5731967Y-9074579D02*
X5741491Y-9055531D01*
X5741491Y-9055531D02*
X5751015Y-9046008D01*
X5751015Y-9046008D02*
X5770062Y-9036484D01*
X5960539Y-9036484D02*
X5979586Y-9036484D01*
X5979586Y-9036484D02*
X5998634Y-9046008D01*
X5998634Y-9046008D02*
X6008158Y-9055531D01*
X6008158Y-9055531D02*
X6017682Y-9074579D01*
X6017682Y-9074579D02*
X6027205Y-9112674D01*
X6027205Y-9112674D02*
X6027205Y-9160293D01*
X6027205Y-9160293D02*
X6017682Y-9198389D01*
X6017682Y-9198389D02*
X6008158Y-9217436D01*
X6008158Y-9217436D02*
X5998634Y-9226960D01*
X5998634Y-9226960D02*
X5979586Y-9236484D01*
X5979586Y-9236484D02*
X5960539Y-9236484D01*
X5960539Y-9236484D02*
X5941491Y-9226960D01*
X5941491Y-9226960D02*
X5931967Y-9217436D01*
X5931967Y-9217436D02*
X5922443Y-9198389D01*
X5922443Y-9198389D02*
X5912920Y-9160293D01*
X5912920Y-9160293D02*
X5912920Y-9112674D01*
X5912920Y-9112674D02*
X5922443Y-9074579D01*
X5922443Y-9074579D02*
X5931967Y-9055531D01*
X5931967Y-9055531D02*
X5941491Y-9046008D01*
X5941491Y-9046008D02*
X5960539Y-9036484D01*
X6112920Y-9236484D02*
X6112920Y-9103150D01*
X6112920Y-9122198D02*
X6122443Y-9112674D01*
X6122443Y-9112674D02*
X6141491Y-9103150D01*
X6141491Y-9103150D02*
X6170063Y-9103150D01*
X6170063Y-9103150D02*
X6189110Y-9112674D01*
X6189110Y-9112674D02*
X6198634Y-9131722D01*
X6198634Y-9131722D02*
X6198634Y-9236484D01*
X6198634Y-9131722D02*
X6208158Y-9112674D01*
X6208158Y-9112674D02*
X6227205Y-9103150D01*
X6227205Y-9103150D02*
X6255777Y-9103150D01*
X6255777Y-9103150D02*
X6274824Y-9112674D01*
X6274824Y-9112674D02*
X6284348Y-9131722D01*
X6284348Y-9131722D02*
X6284348Y-9236484D01*
X6379586Y-9236484D02*
X6379586Y-9103150D01*
X6379586Y-9122198D02*
X6389110Y-9112674D01*
X6389110Y-9112674D02*
X6408158Y-9103150D01*
X6408158Y-9103150D02*
X6436729Y-9103150D01*
X6436729Y-9103150D02*
X6455777Y-9112674D01*
X6455777Y-9112674D02*
X6465301Y-9131722D01*
X6465301Y-9131722D02*
X6465301Y-9236484D01*
X6465301Y-9131722D02*
X6474824Y-9112674D01*
X6474824Y-9112674D02*
X6493872Y-9103150D01*
X6493872Y-9103150D02*
X6522443Y-9103150D01*
X6522443Y-9103150D02*
X6541491Y-9112674D01*
X6541491Y-9112674D02*
X6551015Y-9131722D01*
X6551015Y-9131722D02*
X6551015Y-9236484D01*
X6941491Y-9026960D02*
X6770063Y-9284103D01*
X7198634Y-9036484D02*
X7217682Y-9036484D01*
X7217682Y-9036484D02*
X7236729Y-9046008D01*
X7236729Y-9046008D02*
X7246253Y-9055531D01*
X7246253Y-9055531D02*
X7255777Y-9074579D01*
X7255777Y-9074579D02*
X7265301Y-9112674D01*
X7265301Y-9112674D02*
X7265301Y-9160293D01*
X7265301Y-9160293D02*
X7255777Y-9198389D01*
X7255777Y-9198389D02*
X7246253Y-9217436D01*
X7246253Y-9217436D02*
X7236729Y-9226960D01*
X7236729Y-9226960D02*
X7217682Y-9236484D01*
X7217682Y-9236484D02*
X7198634Y-9236484D01*
X7198634Y-9236484D02*
X7179586Y-9226960D01*
X7179586Y-9226960D02*
X7170063Y-9217436D01*
X7170063Y-9217436D02*
X7160539Y-9198389D01*
X7160539Y-9198389D02*
X7151015Y-9160293D01*
X7151015Y-9160293D02*
X7151015Y-9112674D01*
X7151015Y-9112674D02*
X7160539Y-9074579D01*
X7160539Y-9074579D02*
X7170063Y-9055531D01*
X7170063Y-9055531D02*
X7179586Y-9046008D01*
X7179586Y-9046008D02*
X7198634Y-9036484D01*
X7351015Y-9217436D02*
X7360539Y-9226960D01*
X7360539Y-9226960D02*
X7351015Y-9236484D01*
X7351015Y-9236484D02*
X7341491Y-9226960D01*
X7341491Y-9226960D02*
X7351015Y-9217436D01*
X7351015Y-9217436D02*
X7351015Y-9236484D01*
X7551015Y-9236484D02*
X7436729Y-9236484D01*
X7493872Y-9236484D02*
X7493872Y-9036484D01*
X7493872Y-9036484D02*
X7474825Y-9065055D01*
X7474825Y-9065055D02*
X7455777Y-9084103D01*
X7455777Y-9084103D02*
X7436729Y-9093627D01*
X7627206Y-9055531D02*
X7636729Y-9046008D01*
X7636729Y-9046008D02*
X7655777Y-9036484D01*
X7655777Y-9036484D02*
X7703396Y-9036484D01*
X7703396Y-9036484D02*
X7722444Y-9046008D01*
X7722444Y-9046008D02*
X7731967Y-9055531D01*
X7731967Y-9055531D02*
X7741491Y-9074579D01*
X7741491Y-9074579D02*
X7741491Y-9093627D01*
X7741491Y-9093627D02*
X7731967Y-9122198D01*
X7731967Y-9122198D02*
X7617682Y-9236484D01*
X7617682Y-9236484D02*
X7741491Y-9236484D01*
X7912920Y-9036484D02*
X7874825Y-9036484D01*
X7874825Y-9036484D02*
X7855777Y-9046008D01*
X7855777Y-9046008D02*
X7846253Y-9055531D01*
X7846253Y-9055531D02*
X7827206Y-9084103D01*
X7827206Y-9084103D02*
X7817682Y-9122198D01*
X7817682Y-9122198D02*
X7817682Y-9198389D01*
X7817682Y-9198389D02*
X7827206Y-9217436D01*
X7827206Y-9217436D02*
X7836729Y-9226960D01*
X7836729Y-9226960D02*
X7855777Y-9236484D01*
X7855777Y-9236484D02*
X7893872Y-9236484D01*
X7893872Y-9236484D02*
X7912920Y-9226960D01*
X7912920Y-9226960D02*
X7922444Y-9217436D01*
X7922444Y-9217436D02*
X7931967Y-9198389D01*
X7931967Y-9198389D02*
X7931967Y-9150770D01*
X7931967Y-9150770D02*
X7922444Y-9131722D01*
X7922444Y-9131722D02*
X7912920Y-9122198D01*
X7912920Y-9122198D02*
X7893872Y-9112674D01*
X7893872Y-9112674D02*
X7855777Y-9112674D01*
X7855777Y-9112674D02*
X7836729Y-9122198D01*
X7836729Y-9122198D02*
X7827206Y-9131722D01*
X7827206Y-9131722D02*
X7817682Y-9150770D01*
X8055777Y-9036484D02*
X8074825Y-9036484D01*
X8074825Y-9036484D02*
X8093872Y-9046008D01*
X8093872Y-9046008D02*
X8103396Y-9055531D01*
X8103396Y-9055531D02*
X8112920Y-9074579D01*
X8112920Y-9074579D02*
X8122444Y-9112674D01*
X8122444Y-9112674D02*
X8122444Y-9160293D01*
X8122444Y-9160293D02*
X8112920Y-9198389D01*
X8112920Y-9198389D02*
X8103396Y-9217436D01*
X8103396Y-9217436D02*
X8093872Y-9226960D01*
X8093872Y-9226960D02*
X8074825Y-9236484D01*
X8074825Y-9236484D02*
X8055777Y-9236484D01*
X8055777Y-9236484D02*
X8036729Y-9226960D01*
X8036729Y-9226960D02*
X8027206Y-9217436D01*
X8027206Y-9217436D02*
X8017682Y-9198389D01*
X8017682Y-9198389D02*
X8008158Y-9160293D01*
X8008158Y-9160293D02*
X8008158Y-9112674D01*
X8008158Y-9112674D02*
X8017682Y-9074579D01*
X8017682Y-9074579D02*
X8027206Y-9055531D01*
X8027206Y-9055531D02*
X8036729Y-9046008D01*
X8036729Y-9046008D02*
X8055777Y-9036484D01*
X8198634Y-9036484D02*
X8198634Y-9074579D01*
X8274825Y-9036484D02*
X8274825Y-9074579D01*
X8570063Y-9312674D02*
X8560539Y-9303150D01*
X8560539Y-9303150D02*
X8541491Y-9274579D01*
X8541491Y-9274579D02*
X8531968Y-9255531D01*
X8531968Y-9255531D02*
X8522444Y-9226960D01*
X8522444Y-9226960D02*
X8512920Y-9179341D01*
X8512920Y-9179341D02*
X8512920Y-9141246D01*
X8512920Y-9141246D02*
X8522444Y-9093627D01*
X8522444Y-9093627D02*
X8531968Y-9065055D01*
X8531968Y-9065055D02*
X8541491Y-9046008D01*
X8541491Y-9046008D02*
X8560539Y-9017436D01*
X8560539Y-9017436D02*
X8570063Y-9007912D01*
X8636730Y-9055531D02*
X8646253Y-9046008D01*
X8646253Y-9046008D02*
X8665301Y-9036484D01*
X8665301Y-9036484D02*
X8712920Y-9036484D01*
X8712920Y-9036484D02*
X8731968Y-9046008D01*
X8731968Y-9046008D02*
X8741491Y-9055531D01*
X8741491Y-9055531D02*
X8751015Y-9074579D01*
X8751015Y-9074579D02*
X8751015Y-9093627D01*
X8751015Y-9093627D02*
X8741491Y-9122198D01*
X8741491Y-9122198D02*
X8627206Y-9236484D01*
X8627206Y-9236484D02*
X8751015Y-9236484D01*
X8989111Y-9236484D02*
X8989111Y-9036484D01*
X9074825Y-9236484D02*
X9074825Y-9131722D01*
X9074825Y-9131722D02*
X9065301Y-9112674D01*
X9065301Y-9112674D02*
X9046253Y-9103150D01*
X9046253Y-9103150D02*
X9017682Y-9103150D01*
X9017682Y-9103150D02*
X8998634Y-9112674D01*
X8998634Y-9112674D02*
X8989111Y-9122198D01*
X9198634Y-9236484D02*
X9179587Y-9226960D01*
X9179587Y-9226960D02*
X9170063Y-9217436D01*
X9170063Y-9217436D02*
X9160539Y-9198389D01*
X9160539Y-9198389D02*
X9160539Y-9141246D01*
X9160539Y-9141246D02*
X9170063Y-9122198D01*
X9170063Y-9122198D02*
X9179587Y-9112674D01*
X9179587Y-9112674D02*
X9198634Y-9103150D01*
X9198634Y-9103150D02*
X9227206Y-9103150D01*
X9227206Y-9103150D02*
X9246253Y-9112674D01*
X9246253Y-9112674D02*
X9255777Y-9122198D01*
X9255777Y-9122198D02*
X9265301Y-9141246D01*
X9265301Y-9141246D02*
X9265301Y-9198389D01*
X9265301Y-9198389D02*
X9255777Y-9217436D01*
X9255777Y-9217436D02*
X9246253Y-9226960D01*
X9246253Y-9226960D02*
X9227206Y-9236484D01*
X9227206Y-9236484D02*
X9198634Y-9236484D01*
X9379587Y-9236484D02*
X9360539Y-9226960D01*
X9360539Y-9226960D02*
X9351015Y-9207912D01*
X9351015Y-9207912D02*
X9351015Y-9036484D01*
X9531968Y-9226960D02*
X9512920Y-9236484D01*
X9512920Y-9236484D02*
X9474825Y-9236484D01*
X9474825Y-9236484D02*
X9455777Y-9226960D01*
X9455777Y-9226960D02*
X9446253Y-9207912D01*
X9446253Y-9207912D02*
X9446253Y-9131722D01*
X9446253Y-9131722D02*
X9455777Y-9112674D01*
X9455777Y-9112674D02*
X9474825Y-9103150D01*
X9474825Y-9103150D02*
X9512920Y-9103150D01*
X9512920Y-9103150D02*
X9531968Y-9112674D01*
X9531968Y-9112674D02*
X9541492Y-9131722D01*
X9541492Y-9131722D02*
X9541492Y-9150770D01*
X9541492Y-9150770D02*
X9446253Y-9169817D01*
X9617682Y-9226960D02*
X9636730Y-9236484D01*
X9636730Y-9236484D02*
X9674825Y-9236484D01*
X9674825Y-9236484D02*
X9693873Y-9226960D01*
X9693873Y-9226960D02*
X9703396Y-9207912D01*
X9703396Y-9207912D02*
X9703396Y-9198389D01*
X9703396Y-9198389D02*
X9693873Y-9179341D01*
X9693873Y-9179341D02*
X9674825Y-9169817D01*
X9674825Y-9169817D02*
X9646253Y-9169817D01*
X9646253Y-9169817D02*
X9627206Y-9160293D01*
X9627206Y-9160293D02*
X9617682Y-9141246D01*
X9617682Y-9141246D02*
X9617682Y-9131722D01*
X9617682Y-9131722D02*
X9627206Y-9112674D01*
X9627206Y-9112674D02*
X9646253Y-9103150D01*
X9646253Y-9103150D02*
X9674825Y-9103150D01*
X9674825Y-9103150D02*
X9693873Y-9112674D01*
X9770063Y-9312674D02*
X9779587Y-9303150D01*
X9779587Y-9303150D02*
X9798634Y-9274579D01*
X9798634Y-9274579D02*
X9808158Y-9255531D01*
X9808158Y-9255531D02*
X9817682Y-9226960D01*
X9817682Y-9226960D02*
X9827206Y-9179341D01*
X9827206Y-9179341D02*
X9827206Y-9141246D01*
X9827206Y-9141246D02*
X9817682Y-9093627D01*
X9817682Y-9093627D02*
X9808158Y-9065055D01*
X9808158Y-9065055D02*
X9798634Y-9046008D01*
X9798634Y-9046008D02*
X9779587Y-9017436D01*
X9779587Y-9017436D02*
X9770063Y-9007912D01*
X10131968Y-9312674D02*
X10122444Y-9303150D01*
X10122444Y-9303150D02*
X10103396Y-9274579D01*
X10103396Y-9274579D02*
X10093873Y-9255531D01*
X10093873Y-9255531D02*
X10084349Y-9226960D01*
X10084349Y-9226960D02*
X10074825Y-9179341D01*
X10074825Y-9179341D02*
X10074825Y-9141246D01*
X10074825Y-9141246D02*
X10084349Y-9093627D01*
X10084349Y-9093627D02*
X10093873Y-9065055D01*
X10093873Y-9065055D02*
X10103396Y-9046008D01*
X10103396Y-9046008D02*
X10122444Y-9017436D01*
X10122444Y-9017436D02*
X10131968Y-9007912D01*
X10208158Y-9103150D02*
X10208158Y-9236484D01*
X10208158Y-9122198D02*
X10217682Y-9112674D01*
X10217682Y-9112674D02*
X10236730Y-9103150D01*
X10236730Y-9103150D02*
X10265301Y-9103150D01*
X10265301Y-9103150D02*
X10284349Y-9112674D01*
X10284349Y-9112674D02*
X10293873Y-9131722D01*
X10293873Y-9131722D02*
X10293873Y-9236484D01*
X10417682Y-9236484D02*
X10398634Y-9226960D01*
X10398634Y-9226960D02*
X10389111Y-9217436D01*
X10389111Y-9217436D02*
X10379587Y-9198389D01*
X10379587Y-9198389D02*
X10379587Y-9141246D01*
X10379587Y-9141246D02*
X10389111Y-9122198D01*
X10389111Y-9122198D02*
X10398634Y-9112674D01*
X10398634Y-9112674D02*
X10417682Y-9103150D01*
X10417682Y-9103150D02*
X10446254Y-9103150D01*
X10446254Y-9103150D02*
X10465301Y-9112674D01*
X10465301Y-9112674D02*
X10474825Y-9122198D01*
X10474825Y-9122198D02*
X10484349Y-9141246D01*
X10484349Y-9141246D02*
X10484349Y-9198389D01*
X10484349Y-9198389D02*
X10474825Y-9217436D01*
X10474825Y-9217436D02*
X10465301Y-9226960D01*
X10465301Y-9226960D02*
X10446254Y-9236484D01*
X10446254Y-9236484D02*
X10417682Y-9236484D01*
X10541492Y-9103150D02*
X10617682Y-9103150D01*
X10570063Y-9036484D02*
X10570063Y-9207912D01*
X10570063Y-9207912D02*
X10579587Y-9226960D01*
X10579587Y-9226960D02*
X10598634Y-9236484D01*
X10598634Y-9236484D02*
X10617682Y-9236484D01*
X10836730Y-9103150D02*
X10836730Y-9303150D01*
X10836730Y-9112674D02*
X10855777Y-9103150D01*
X10855777Y-9103150D02*
X10893873Y-9103150D01*
X10893873Y-9103150D02*
X10912920Y-9112674D01*
X10912920Y-9112674D02*
X10922444Y-9122198D01*
X10922444Y-9122198D02*
X10931968Y-9141246D01*
X10931968Y-9141246D02*
X10931968Y-9198389D01*
X10931968Y-9198389D02*
X10922444Y-9217436D01*
X10922444Y-9217436D02*
X10912920Y-9226960D01*
X10912920Y-9226960D02*
X10893873Y-9236484D01*
X10893873Y-9236484D02*
X10855777Y-9236484D01*
X10855777Y-9236484D02*
X10836730Y-9226960D01*
X11046254Y-9236484D02*
X11027206Y-9226960D01*
X11027206Y-9226960D02*
X11017682Y-9207912D01*
X11017682Y-9207912D02*
X11017682Y-9036484D01*
X11208158Y-9236484D02*
X11208158Y-9131722D01*
X11208158Y-9131722D02*
X11198634Y-9112674D01*
X11198634Y-9112674D02*
X11179587Y-9103150D01*
X11179587Y-9103150D02*
X11141492Y-9103150D01*
X11141492Y-9103150D02*
X11122444Y-9112674D01*
X11208158Y-9226960D02*
X11189111Y-9236484D01*
X11189111Y-9236484D02*
X11141492Y-9236484D01*
X11141492Y-9236484D02*
X11122444Y-9226960D01*
X11122444Y-9226960D02*
X11112920Y-9207912D01*
X11112920Y-9207912D02*
X11112920Y-9188865D01*
X11112920Y-9188865D02*
X11122444Y-9169817D01*
X11122444Y-9169817D02*
X11141492Y-9160293D01*
X11141492Y-9160293D02*
X11189111Y-9160293D01*
X11189111Y-9160293D02*
X11208158Y-9150770D01*
X11274825Y-9103150D02*
X11351015Y-9103150D01*
X11303396Y-9036484D02*
X11303396Y-9207912D01*
X11303396Y-9207912D02*
X11312920Y-9226960D01*
X11312920Y-9226960D02*
X11331968Y-9236484D01*
X11331968Y-9236484D02*
X11351015Y-9236484D01*
X11493873Y-9226960D02*
X11474825Y-9236484D01*
X11474825Y-9236484D02*
X11436730Y-9236484D01*
X11436730Y-9236484D02*
X11417682Y-9226960D01*
X11417682Y-9226960D02*
X11408158Y-9207912D01*
X11408158Y-9207912D02*
X11408158Y-9131722D01*
X11408158Y-9131722D02*
X11417682Y-9112674D01*
X11417682Y-9112674D02*
X11436730Y-9103150D01*
X11436730Y-9103150D02*
X11474825Y-9103150D01*
X11474825Y-9103150D02*
X11493873Y-9112674D01*
X11493873Y-9112674D02*
X11503396Y-9131722D01*
X11503396Y-9131722D02*
X11503396Y-9150770D01*
X11503396Y-9150770D02*
X11408158Y-9169817D01*
X11674825Y-9236484D02*
X11674825Y-9036484D01*
X11674825Y-9226960D02*
X11655777Y-9236484D01*
X11655777Y-9236484D02*
X11617682Y-9236484D01*
X11617682Y-9236484D02*
X11598634Y-9226960D01*
X11598634Y-9226960D02*
X11589111Y-9217436D01*
X11589111Y-9217436D02*
X11579587Y-9198389D01*
X11579587Y-9198389D02*
X11579587Y-9141246D01*
X11579587Y-9141246D02*
X11589111Y-9122198D01*
X11589111Y-9122198D02*
X11598634Y-9112674D01*
X11598634Y-9112674D02*
X11617682Y-9103150D01*
X11617682Y-9103150D02*
X11655777Y-9103150D01*
X11655777Y-9103150D02*
X11674825Y-9112674D01*
X11751015Y-9312674D02*
X11760539Y-9303150D01*
X11760539Y-9303150D02*
X11779587Y-9274579D01*
X11779587Y-9274579D02*
X11789111Y-9255531D01*
X11789111Y-9255531D02*
X11798634Y-9226960D01*
X11798634Y-9226960D02*
X11808158Y-9179341D01*
X11808158Y-9179341D02*
X11808158Y-9141246D01*
X11808158Y-9141246D02*
X11798634Y-9093627D01*
X11798634Y-9093627D02*
X11789111Y-9065055D01*
X11789111Y-9065055D02*
X11779587Y-9046008D01*
X11779587Y-9046008D02*
X11760539Y-9017436D01*
X11760539Y-9017436D02*
X11751015Y-9007912D01*
M02*
