%TF.GenerationSoftware,KiCad,Pcbnew,7.0.8*%
%TF.CreationDate,2024-02-11T23:31:42+01:00*%
%TF.ProjectId,BlankingRelay_Base,426c616e-6b69-46e6-9752-656c61795f42,rev?*%
%TF.SameCoordinates,Original*%
%TF.FileFunction,Drillmap*%
%TF.FilePolarity,Positive*%
%FSLAX45Y45*%
G04 Gerber Fmt 4.5, Leading zero omitted, Abs format (unit mm)*
G04 Created by KiCad (PCBNEW 7.0.8) date 2024-02-11 23:31:42*
%MOMM*%
%LPD*%
G01*
G04 APERTURE LIST*
%ADD10C,0.100000*%
%ADD11C,0.200000*%
%ADD12C,0.055000*%
%ADD13C,0.060000*%
%ADD14C,0.080000*%
%ADD15C,0.090000*%
%ADD16C,0.095000*%
%ADD17C,0.100076*%
%ADD18C,0.110000*%
%ADD19C,0.185000*%
%ADD20C,0.219964*%
G04 APERTURE END LIST*
D10*
X5000000Y-5000000D02*
X17000000Y-5000000D01*
X17000000Y-12500000D01*
X5000000Y-12500000D01*
X5000000Y-5000000D01*
D11*
D12*
X5263500Y-11295500D02*
X5318500Y-11350500D01*
X5318500Y-11295500D02*
X5263500Y-11350500D01*
D11*
X5263500Y-11273000D02*
X5263500Y-11373000D01*
X5263500Y-11373000D02*
G75*
G03*
X5318500Y-11373000I27500J0D01*
G01*
X5318500Y-11373000D02*
X5318500Y-11273000D01*
X5318500Y-11273000D02*
G75*
G03*
X5263500Y-11273000I-27500J0D01*
G01*
D12*
X5263500Y-11549500D02*
X5318500Y-11604500D01*
X5318500Y-11549500D02*
X5263500Y-11604500D01*
D11*
X5263500Y-11527000D02*
X5263500Y-11627000D01*
X5263500Y-11627000D02*
G75*
G03*
X5318500Y-11627000I27500J0D01*
G01*
X5318500Y-11627000D02*
X5318500Y-11527000D01*
X5318500Y-11527000D02*
G75*
G03*
X5263500Y-11527000I-27500J0D01*
G01*
D12*
X5517500Y-11295500D02*
X5572500Y-11350500D01*
X5572500Y-11295500D02*
X5517500Y-11350500D01*
D11*
X5517500Y-11273000D02*
X5517500Y-11373000D01*
X5517500Y-11373000D02*
G75*
G03*
X5572500Y-11373000I27500J0D01*
G01*
X5572500Y-11373000D02*
X5572500Y-11273000D01*
X5572500Y-11273000D02*
G75*
G03*
X5517500Y-11273000I-27500J0D01*
G01*
D12*
X5517500Y-11549500D02*
X5572500Y-11604500D01*
X5572500Y-11549500D02*
X5517500Y-11604500D01*
D11*
X5517500Y-11527000D02*
X5517500Y-11627000D01*
X5517500Y-11627000D02*
G75*
G03*
X5572500Y-11627000I27500J0D01*
G01*
X5572500Y-11627000D02*
X5572500Y-11527000D01*
X5572500Y-11527000D02*
G75*
G03*
X5517500Y-11527000I-27500J0D01*
G01*
D12*
X5771500Y-11295500D02*
X5826500Y-11350500D01*
X5826500Y-11295500D02*
X5771500Y-11350500D01*
D11*
X5771500Y-11273000D02*
X5771500Y-11373000D01*
X5771500Y-11373000D02*
G75*
G03*
X5826500Y-11373000I27500J0D01*
G01*
X5826500Y-11373000D02*
X5826500Y-11273000D01*
X5826500Y-11273000D02*
G75*
G03*
X5771500Y-11273000I-27500J0D01*
G01*
D12*
X5771500Y-11549500D02*
X5826500Y-11604500D01*
X5826500Y-11549500D02*
X5771500Y-11604500D01*
D11*
X5771500Y-11527000D02*
X5771500Y-11627000D01*
X5771500Y-11627000D02*
G75*
G03*
X5826500Y-11627000I27500J0D01*
G01*
X5826500Y-11627000D02*
X5826500Y-11527000D01*
X5826500Y-11527000D02*
G75*
G03*
X5771500Y-11527000I-27500J0D01*
G01*
D12*
X7263500Y-11295500D02*
X7318500Y-11350500D01*
X7318500Y-11295500D02*
X7263500Y-11350500D01*
D11*
X7263500Y-11273000D02*
X7263500Y-11373000D01*
X7263500Y-11373000D02*
G75*
G03*
X7318500Y-11373000I27500J0D01*
G01*
X7318500Y-11373000D02*
X7318500Y-11273000D01*
X7318500Y-11273000D02*
G75*
G03*
X7263500Y-11273000I-27500J0D01*
G01*
D12*
X7263500Y-11549500D02*
X7318500Y-11604500D01*
X7318500Y-11549500D02*
X7263500Y-11604500D01*
D11*
X7263500Y-11527000D02*
X7263500Y-11627000D01*
X7263500Y-11627000D02*
G75*
G03*
X7318500Y-11627000I27500J0D01*
G01*
X7318500Y-11627000D02*
X7318500Y-11527000D01*
X7318500Y-11527000D02*
G75*
G03*
X7263500Y-11527000I-27500J0D01*
G01*
D12*
X7517500Y-11295500D02*
X7572500Y-11350500D01*
X7572500Y-11295500D02*
X7517500Y-11350500D01*
D11*
X7517500Y-11273000D02*
X7517500Y-11373000D01*
X7517500Y-11373000D02*
G75*
G03*
X7572500Y-11373000I27500J0D01*
G01*
X7572500Y-11373000D02*
X7572500Y-11273000D01*
X7572500Y-11273000D02*
G75*
G03*
X7517500Y-11273000I-27500J0D01*
G01*
D12*
X7517500Y-11549500D02*
X7572500Y-11604500D01*
X7572500Y-11549500D02*
X7517500Y-11604500D01*
D11*
X7517500Y-11527000D02*
X7517500Y-11627000D01*
X7517500Y-11627000D02*
G75*
G03*
X7572500Y-11627000I27500J0D01*
G01*
X7572500Y-11627000D02*
X7572500Y-11527000D01*
X7572500Y-11527000D02*
G75*
G03*
X7517500Y-11527000I-27500J0D01*
G01*
D12*
X7771500Y-11295500D02*
X7826500Y-11350500D01*
X7826500Y-11295500D02*
X7771500Y-11350500D01*
D11*
X7771500Y-11273000D02*
X7771500Y-11373000D01*
X7771500Y-11373000D02*
G75*
G03*
X7826500Y-11373000I27500J0D01*
G01*
X7826500Y-11373000D02*
X7826500Y-11273000D01*
X7826500Y-11273000D02*
G75*
G03*
X7771500Y-11273000I-27500J0D01*
G01*
D12*
X7771500Y-11549500D02*
X7826500Y-11604500D01*
X7826500Y-11549500D02*
X7771500Y-11604500D01*
D11*
X7771500Y-11527000D02*
X7771500Y-11627000D01*
X7771500Y-11627000D02*
G75*
G03*
X7826500Y-11627000I27500J0D01*
G01*
X7826500Y-11627000D02*
X7826500Y-11527000D01*
X7826500Y-11527000D02*
G75*
G03*
X7771500Y-11527000I-27500J0D01*
G01*
D12*
X9263500Y-11295500D02*
X9318500Y-11350500D01*
X9318500Y-11295500D02*
X9263500Y-11350500D01*
D11*
X9263500Y-11273000D02*
X9263500Y-11373000D01*
X9263500Y-11373000D02*
G75*
G03*
X9318500Y-11373000I27500J0D01*
G01*
X9318500Y-11373000D02*
X9318500Y-11273000D01*
X9318500Y-11273000D02*
G75*
G03*
X9263500Y-11273000I-27500J0D01*
G01*
D12*
X9263500Y-11549500D02*
X9318500Y-11604500D01*
X9318500Y-11549500D02*
X9263500Y-11604500D01*
D11*
X9263500Y-11527000D02*
X9263500Y-11627000D01*
X9263500Y-11627000D02*
G75*
G03*
X9318500Y-11627000I27500J0D01*
G01*
X9318500Y-11627000D02*
X9318500Y-11527000D01*
X9318500Y-11527000D02*
G75*
G03*
X9263500Y-11527000I-27500J0D01*
G01*
D12*
X9517500Y-11295500D02*
X9572500Y-11350500D01*
X9572500Y-11295500D02*
X9517500Y-11350500D01*
D11*
X9517500Y-11273000D02*
X9517500Y-11373000D01*
X9517500Y-11373000D02*
G75*
G03*
X9572500Y-11373000I27500J0D01*
G01*
X9572500Y-11373000D02*
X9572500Y-11273000D01*
X9572500Y-11273000D02*
G75*
G03*
X9517500Y-11273000I-27500J0D01*
G01*
D12*
X9517500Y-11549500D02*
X9572500Y-11604500D01*
X9572500Y-11549500D02*
X9517500Y-11604500D01*
D11*
X9517500Y-11527000D02*
X9517500Y-11627000D01*
X9517500Y-11627000D02*
G75*
G03*
X9572500Y-11627000I27500J0D01*
G01*
X9572500Y-11627000D02*
X9572500Y-11527000D01*
X9572500Y-11527000D02*
G75*
G03*
X9517500Y-11527000I-27500J0D01*
G01*
D12*
X9771500Y-11295500D02*
X9826500Y-11350500D01*
X9826500Y-11295500D02*
X9771500Y-11350500D01*
D11*
X9771500Y-11273000D02*
X9771500Y-11373000D01*
X9771500Y-11373000D02*
G75*
G03*
X9826500Y-11373000I27500J0D01*
G01*
X9826500Y-11373000D02*
X9826500Y-11273000D01*
X9826500Y-11273000D02*
G75*
G03*
X9771500Y-11273000I-27500J0D01*
G01*
D12*
X9771500Y-11549500D02*
X9826500Y-11604500D01*
X9826500Y-11549500D02*
X9771500Y-11604500D01*
D11*
X9771500Y-11527000D02*
X9771500Y-11627000D01*
X9771500Y-11627000D02*
G75*
G03*
X9826500Y-11627000I27500J0D01*
G01*
X9826500Y-11627000D02*
X9826500Y-11527000D01*
X9826500Y-11527000D02*
G75*
G03*
X9771500Y-11527000I-27500J0D01*
G01*
D12*
X11263500Y-11295500D02*
X11318500Y-11350500D01*
X11318500Y-11295500D02*
X11263500Y-11350500D01*
D11*
X11263500Y-11273000D02*
X11263500Y-11373000D01*
X11263500Y-11373000D02*
G75*
G03*
X11318500Y-11373000I27500J0D01*
G01*
X11318500Y-11373000D02*
X11318500Y-11273000D01*
X11318500Y-11273000D02*
G75*
G03*
X11263500Y-11273000I-27500J0D01*
G01*
D12*
X11263500Y-11549500D02*
X11318500Y-11604500D01*
X11318500Y-11549500D02*
X11263500Y-11604500D01*
D11*
X11263500Y-11527000D02*
X11263500Y-11627000D01*
X11263500Y-11627000D02*
G75*
G03*
X11318500Y-11627000I27500J0D01*
G01*
X11318500Y-11627000D02*
X11318500Y-11527000D01*
X11318500Y-11527000D02*
G75*
G03*
X11263500Y-11527000I-27500J0D01*
G01*
D12*
X11517500Y-11295500D02*
X11572500Y-11350500D01*
X11572500Y-11295500D02*
X11517500Y-11350500D01*
D11*
X11517500Y-11273000D02*
X11517500Y-11373000D01*
X11517500Y-11373000D02*
G75*
G03*
X11572500Y-11373000I27500J0D01*
G01*
X11572500Y-11373000D02*
X11572500Y-11273000D01*
X11572500Y-11273000D02*
G75*
G03*
X11517500Y-11273000I-27500J0D01*
G01*
D12*
X11517500Y-11549500D02*
X11572500Y-11604500D01*
X11572500Y-11549500D02*
X11517500Y-11604500D01*
D11*
X11517500Y-11527000D02*
X11517500Y-11627000D01*
X11517500Y-11627000D02*
G75*
G03*
X11572500Y-11627000I27500J0D01*
G01*
X11572500Y-11627000D02*
X11572500Y-11527000D01*
X11572500Y-11527000D02*
G75*
G03*
X11517500Y-11527000I-27500J0D01*
G01*
D12*
X11771500Y-11295500D02*
X11826500Y-11350500D01*
X11826500Y-11295500D02*
X11771500Y-11350500D01*
D11*
X11771500Y-11273000D02*
X11771500Y-11373000D01*
X11771500Y-11373000D02*
G75*
G03*
X11826500Y-11373000I27500J0D01*
G01*
X11826500Y-11373000D02*
X11826500Y-11273000D01*
X11826500Y-11273000D02*
G75*
G03*
X11771500Y-11273000I-27500J0D01*
G01*
D12*
X11771500Y-11549500D02*
X11826500Y-11604500D01*
X11826500Y-11549500D02*
X11771500Y-11604500D01*
D11*
X11771500Y-11527000D02*
X11771500Y-11627000D01*
X11771500Y-11627000D02*
G75*
G03*
X11826500Y-11627000I27500J0D01*
G01*
X11826500Y-11627000D02*
X11826500Y-11527000D01*
X11826500Y-11527000D02*
G75*
G03*
X11771500Y-11527000I-27500J0D01*
G01*
D12*
X13263500Y-11295500D02*
X13318500Y-11350500D01*
X13318500Y-11295500D02*
X13263500Y-11350500D01*
D11*
X13263500Y-11273000D02*
X13263500Y-11373000D01*
X13263500Y-11373000D02*
G75*
G03*
X13318500Y-11373000I27500J0D01*
G01*
X13318500Y-11373000D02*
X13318500Y-11273000D01*
X13318500Y-11273000D02*
G75*
G03*
X13263500Y-11273000I-27500J0D01*
G01*
D12*
X13263500Y-11549500D02*
X13318500Y-11604500D01*
X13318500Y-11549500D02*
X13263500Y-11604500D01*
D11*
X13263500Y-11527000D02*
X13263500Y-11627000D01*
X13263500Y-11627000D02*
G75*
G03*
X13318500Y-11627000I27500J0D01*
G01*
X13318500Y-11627000D02*
X13318500Y-11527000D01*
X13318500Y-11527000D02*
G75*
G03*
X13263500Y-11527000I-27500J0D01*
G01*
D12*
X13517500Y-11295500D02*
X13572500Y-11350500D01*
X13572500Y-11295500D02*
X13517500Y-11350500D01*
D11*
X13517500Y-11273000D02*
X13517500Y-11373000D01*
X13517500Y-11373000D02*
G75*
G03*
X13572500Y-11373000I27500J0D01*
G01*
X13572500Y-11373000D02*
X13572500Y-11273000D01*
X13572500Y-11273000D02*
G75*
G03*
X13517500Y-11273000I-27500J0D01*
G01*
D12*
X13517500Y-11549500D02*
X13572500Y-11604500D01*
X13572500Y-11549500D02*
X13517500Y-11604500D01*
D11*
X13517500Y-11527000D02*
X13517500Y-11627000D01*
X13517500Y-11627000D02*
G75*
G03*
X13572500Y-11627000I27500J0D01*
G01*
X13572500Y-11627000D02*
X13572500Y-11527000D01*
X13572500Y-11527000D02*
G75*
G03*
X13517500Y-11527000I-27500J0D01*
G01*
D12*
X13771500Y-11295500D02*
X13826500Y-11350500D01*
X13826500Y-11295500D02*
X13771500Y-11350500D01*
D11*
X13771500Y-11273000D02*
X13771500Y-11373000D01*
X13771500Y-11373000D02*
G75*
G03*
X13826500Y-11373000I27500J0D01*
G01*
X13826500Y-11373000D02*
X13826500Y-11273000D01*
X13826500Y-11273000D02*
G75*
G03*
X13771500Y-11273000I-27500J0D01*
G01*
D12*
X13771500Y-11549500D02*
X13826500Y-11604500D01*
X13826500Y-11549500D02*
X13771500Y-11604500D01*
D11*
X13771500Y-11527000D02*
X13771500Y-11627000D01*
X13771500Y-11627000D02*
G75*
G03*
X13826500Y-11627000I27500J0D01*
G01*
X13826500Y-11627000D02*
X13826500Y-11527000D01*
X13826500Y-11527000D02*
G75*
G03*
X13771500Y-11527000I-27500J0D01*
G01*
D12*
X15263500Y-11295500D02*
X15318500Y-11350500D01*
X15318500Y-11295500D02*
X15263500Y-11350500D01*
D11*
X15263500Y-11273000D02*
X15263500Y-11373000D01*
X15263500Y-11373000D02*
G75*
G03*
X15318500Y-11373000I27500J0D01*
G01*
X15318500Y-11373000D02*
X15318500Y-11273000D01*
X15318500Y-11273000D02*
G75*
G03*
X15263500Y-11273000I-27500J0D01*
G01*
D12*
X15263500Y-11549500D02*
X15318500Y-11604500D01*
X15318500Y-11549500D02*
X15263500Y-11604500D01*
D11*
X15263500Y-11527000D02*
X15263500Y-11627000D01*
X15263500Y-11627000D02*
G75*
G03*
X15318500Y-11627000I27500J0D01*
G01*
X15318500Y-11627000D02*
X15318500Y-11527000D01*
X15318500Y-11527000D02*
G75*
G03*
X15263500Y-11527000I-27500J0D01*
G01*
D12*
X15517500Y-11295500D02*
X15572500Y-11350500D01*
X15572500Y-11295500D02*
X15517500Y-11350500D01*
D11*
X15517500Y-11273000D02*
X15517500Y-11373000D01*
X15517500Y-11373000D02*
G75*
G03*
X15572500Y-11373000I27500J0D01*
G01*
X15572500Y-11373000D02*
X15572500Y-11273000D01*
X15572500Y-11273000D02*
G75*
G03*
X15517500Y-11273000I-27500J0D01*
G01*
D12*
X15517500Y-11549500D02*
X15572500Y-11604500D01*
X15572500Y-11549500D02*
X15517500Y-11604500D01*
D11*
X15517500Y-11527000D02*
X15517500Y-11627000D01*
X15517500Y-11627000D02*
G75*
G03*
X15572500Y-11627000I27500J0D01*
G01*
X15572500Y-11627000D02*
X15572500Y-11527000D01*
X15572500Y-11527000D02*
G75*
G03*
X15517500Y-11527000I-27500J0D01*
G01*
D12*
X15771500Y-11295500D02*
X15826500Y-11350500D01*
X15826500Y-11295500D02*
X15771500Y-11350500D01*
D11*
X15771500Y-11273000D02*
X15771500Y-11373000D01*
X15771500Y-11373000D02*
G75*
G03*
X15826500Y-11373000I27500J0D01*
G01*
X15826500Y-11373000D02*
X15826500Y-11273000D01*
X15826500Y-11273000D02*
G75*
G03*
X15771500Y-11273000I-27500J0D01*
G01*
D12*
X15771500Y-11549500D02*
X15826500Y-11604500D01*
X15826500Y-11549500D02*
X15771500Y-11604500D01*
D11*
X15771500Y-11527000D02*
X15771500Y-11627000D01*
X15771500Y-11627000D02*
G75*
G03*
X15826500Y-11627000I27500J0D01*
G01*
X15826500Y-11627000D02*
X15826500Y-11527000D01*
X15826500Y-11527000D02*
G75*
G03*
X15771500Y-11527000I-27500J0D01*
G01*
D13*
X13570000Y-5905000D02*
G75*
G03*
X13570000Y-5905000I-30000J0D01*
G01*
X13770000Y-5905000D02*
G75*
G03*
X13770000Y-5905000I-30000J0D01*
G01*
D14*
X5171000Y-10955000D02*
X5171000Y-11035000D01*
X5131000Y-10995000D02*
X5211000Y-10995000D01*
X6175000Y-8445000D02*
X6175000Y-8525000D01*
X6135000Y-8485000D02*
X6215000Y-8485000D01*
X6175000Y-8699000D02*
X6175000Y-8779000D01*
X6135000Y-8739000D02*
X6215000Y-8739000D01*
X6175000Y-8953000D02*
X6175000Y-9033000D01*
X6135000Y-8993000D02*
X6215000Y-8993000D01*
X6175000Y-9207000D02*
X6175000Y-9287000D01*
X6135000Y-9247000D02*
X6215000Y-9247000D01*
X6175000Y-9461000D02*
X6175000Y-9541000D01*
X6135000Y-9501000D02*
X6215000Y-9501000D01*
X6175000Y-9715000D02*
X6175000Y-9795000D01*
X6135000Y-9755000D02*
X6215000Y-9755000D01*
X6175000Y-9969000D02*
X6175000Y-10049000D01*
X6135000Y-10009000D02*
X6215000Y-10009000D01*
X6695000Y-10955000D02*
X6695000Y-11035000D01*
X6655000Y-10995000D02*
X6735000Y-10995000D01*
X6937000Y-8445000D02*
X6937000Y-8525000D01*
X6897000Y-8485000D02*
X6977000Y-8485000D01*
X6937000Y-8699000D02*
X6937000Y-8779000D01*
X6897000Y-8739000D02*
X6977000Y-8739000D01*
X6937000Y-8953000D02*
X6937000Y-9033000D01*
X6897000Y-8993000D02*
X6977000Y-8993000D01*
X6937000Y-9207000D02*
X6937000Y-9287000D01*
X6897000Y-9247000D02*
X6977000Y-9247000D01*
X6937000Y-9461000D02*
X6937000Y-9541000D01*
X6897000Y-9501000D02*
X6977000Y-9501000D01*
X6937000Y-9715000D02*
X6937000Y-9795000D01*
X6897000Y-9755000D02*
X6977000Y-9755000D01*
X6937000Y-9969000D02*
X6937000Y-10049000D01*
X6897000Y-10009000D02*
X6977000Y-10009000D01*
X7171000Y-10955000D02*
X7171000Y-11035000D01*
X7131000Y-10995000D02*
X7211000Y-10995000D01*
X7975000Y-8445000D02*
X7975000Y-8525000D01*
X7935000Y-8485000D02*
X8015000Y-8485000D01*
X7975000Y-8699000D02*
X7975000Y-8779000D01*
X7935000Y-8739000D02*
X8015000Y-8739000D01*
X7975000Y-8953000D02*
X7975000Y-9033000D01*
X7935000Y-8993000D02*
X8015000Y-8993000D01*
X7975000Y-9207000D02*
X7975000Y-9287000D01*
X7935000Y-9247000D02*
X8015000Y-9247000D01*
X7975000Y-9461000D02*
X7975000Y-9541000D01*
X7935000Y-9501000D02*
X8015000Y-9501000D01*
X7975000Y-9715000D02*
X7975000Y-9795000D01*
X7935000Y-9755000D02*
X8015000Y-9755000D01*
X7975000Y-9969000D02*
X7975000Y-10049000D01*
X7935000Y-10009000D02*
X8015000Y-10009000D01*
X8695000Y-10955000D02*
X8695000Y-11035000D01*
X8655000Y-10995000D02*
X8735000Y-10995000D01*
X8737000Y-8445000D02*
X8737000Y-8525000D01*
X8697000Y-8485000D02*
X8777000Y-8485000D01*
X8737000Y-8699000D02*
X8737000Y-8779000D01*
X8697000Y-8739000D02*
X8777000Y-8739000D01*
X8737000Y-8953000D02*
X8737000Y-9033000D01*
X8697000Y-8993000D02*
X8777000Y-8993000D01*
X8737000Y-9207000D02*
X8737000Y-9287000D01*
X8697000Y-9247000D02*
X8777000Y-9247000D01*
X8737000Y-9461000D02*
X8737000Y-9541000D01*
X8697000Y-9501000D02*
X8777000Y-9501000D01*
X8737000Y-9715000D02*
X8737000Y-9795000D01*
X8697000Y-9755000D02*
X8777000Y-9755000D01*
X8737000Y-9969000D02*
X8737000Y-10049000D01*
X8697000Y-10009000D02*
X8777000Y-10009000D01*
X9171000Y-10955000D02*
X9171000Y-11035000D01*
X9131000Y-10995000D02*
X9211000Y-10995000D01*
X9419000Y-5155000D02*
X9419000Y-5235000D01*
X9379000Y-5195000D02*
X9459000Y-5195000D01*
X9421000Y-5525000D02*
X9421000Y-5605000D01*
X9381000Y-5565000D02*
X9461000Y-5565000D01*
X9423000Y-5895000D02*
X9423000Y-5975000D01*
X9383000Y-5935000D02*
X9463000Y-5935000D01*
X9775000Y-8445000D02*
X9775000Y-8525000D01*
X9735000Y-8485000D02*
X9815000Y-8485000D01*
X9775000Y-8699000D02*
X9775000Y-8779000D01*
X9735000Y-8739000D02*
X9815000Y-8739000D01*
X9775000Y-8953000D02*
X9775000Y-9033000D01*
X9735000Y-8993000D02*
X9815000Y-8993000D01*
X9775000Y-9207000D02*
X9775000Y-9287000D01*
X9735000Y-9247000D02*
X9815000Y-9247000D01*
X9775000Y-9461000D02*
X9775000Y-9541000D01*
X9735000Y-9501000D02*
X9815000Y-9501000D01*
X9775000Y-9715000D02*
X9775000Y-9795000D01*
X9735000Y-9755000D02*
X9815000Y-9755000D01*
X9775000Y-9969000D02*
X9775000Y-10049000D01*
X9735000Y-10009000D02*
X9815000Y-10009000D01*
X10537000Y-8445000D02*
X10537000Y-8525000D01*
X10497000Y-8485000D02*
X10577000Y-8485000D01*
X10537000Y-8699000D02*
X10537000Y-8779000D01*
X10497000Y-8739000D02*
X10577000Y-8739000D01*
X10537000Y-8953000D02*
X10537000Y-9033000D01*
X10497000Y-8993000D02*
X10577000Y-8993000D01*
X10537000Y-9207000D02*
X10537000Y-9287000D01*
X10497000Y-9247000D02*
X10577000Y-9247000D01*
X10537000Y-9461000D02*
X10537000Y-9541000D01*
X10497000Y-9501000D02*
X10577000Y-9501000D01*
X10537000Y-9715000D02*
X10537000Y-9795000D01*
X10497000Y-9755000D02*
X10577000Y-9755000D01*
X10537000Y-9969000D02*
X10537000Y-10049000D01*
X10497000Y-10009000D02*
X10577000Y-10009000D01*
X10695000Y-10955000D02*
X10695000Y-11035000D01*
X10655000Y-10995000D02*
X10735000Y-10995000D01*
X10943000Y-5155000D02*
X10943000Y-5235000D01*
X10903000Y-5195000D02*
X10983000Y-5195000D01*
X10945000Y-5525000D02*
X10945000Y-5605000D01*
X10905000Y-5565000D02*
X10985000Y-5565000D01*
X10947000Y-5895000D02*
X10947000Y-5975000D01*
X10907000Y-5935000D02*
X10987000Y-5935000D01*
X11171000Y-10955000D02*
X11171000Y-11035000D01*
X11131000Y-10995000D02*
X11211000Y-10995000D01*
X11223000Y-5155000D02*
X11223000Y-5235000D01*
X11183000Y-5195000D02*
X11263000Y-5195000D01*
X11223000Y-5525000D02*
X11223000Y-5605000D01*
X11183000Y-5565000D02*
X11263000Y-5565000D01*
X11223000Y-5895000D02*
X11223000Y-5975000D01*
X11183000Y-5935000D02*
X11263000Y-5935000D01*
X11575000Y-8445000D02*
X11575000Y-8525000D01*
X11535000Y-8485000D02*
X11615000Y-8485000D01*
X11575000Y-8699000D02*
X11575000Y-8779000D01*
X11535000Y-8739000D02*
X11615000Y-8739000D01*
X11575000Y-8953000D02*
X11575000Y-9033000D01*
X11535000Y-8993000D02*
X11615000Y-8993000D01*
X11575000Y-9207000D02*
X11575000Y-9287000D01*
X11535000Y-9247000D02*
X11615000Y-9247000D01*
X11575000Y-9461000D02*
X11575000Y-9541000D01*
X11535000Y-9501000D02*
X11615000Y-9501000D01*
X11575000Y-9715000D02*
X11575000Y-9795000D01*
X11535000Y-9755000D02*
X11615000Y-9755000D01*
X11575000Y-9969000D02*
X11575000Y-10049000D01*
X11535000Y-10009000D02*
X11615000Y-10009000D01*
X12337000Y-8445000D02*
X12337000Y-8525000D01*
X12297000Y-8485000D02*
X12377000Y-8485000D01*
X12337000Y-8699000D02*
X12337000Y-8779000D01*
X12297000Y-8739000D02*
X12377000Y-8739000D01*
X12337000Y-8953000D02*
X12337000Y-9033000D01*
X12297000Y-8993000D02*
X12377000Y-8993000D01*
X12337000Y-9207000D02*
X12337000Y-9287000D01*
X12297000Y-9247000D02*
X12377000Y-9247000D01*
X12337000Y-9461000D02*
X12337000Y-9541000D01*
X12297000Y-9501000D02*
X12377000Y-9501000D01*
X12337000Y-9715000D02*
X12337000Y-9795000D01*
X12297000Y-9755000D02*
X12377000Y-9755000D01*
X12337000Y-9969000D02*
X12337000Y-10049000D01*
X12297000Y-10009000D02*
X12377000Y-10009000D01*
X12695000Y-10955000D02*
X12695000Y-11035000D01*
X12655000Y-10995000D02*
X12735000Y-10995000D01*
X12747000Y-5155000D02*
X12747000Y-5235000D01*
X12707000Y-5195000D02*
X12787000Y-5195000D01*
X12747000Y-5525000D02*
X12747000Y-5605000D01*
X12707000Y-5565000D02*
X12787000Y-5565000D01*
X12747000Y-5895000D02*
X12747000Y-5975000D01*
X12707000Y-5935000D02*
X12787000Y-5935000D01*
X13171000Y-10955000D02*
X13171000Y-11035000D01*
X13131000Y-10995000D02*
X13211000Y-10995000D01*
X13375000Y-8445000D02*
X13375000Y-8525000D01*
X13335000Y-8485000D02*
X13415000Y-8485000D01*
X13375000Y-8699000D02*
X13375000Y-8779000D01*
X13335000Y-8739000D02*
X13415000Y-8739000D01*
X13375000Y-8953000D02*
X13375000Y-9033000D01*
X13335000Y-8993000D02*
X13415000Y-8993000D01*
X13375000Y-9207000D02*
X13375000Y-9287000D01*
X13335000Y-9247000D02*
X13415000Y-9247000D01*
X13375000Y-9461000D02*
X13375000Y-9541000D01*
X13335000Y-9501000D02*
X13415000Y-9501000D01*
X13375000Y-9715000D02*
X13375000Y-9795000D01*
X13335000Y-9755000D02*
X13415000Y-9755000D01*
X13375000Y-9969000D02*
X13375000Y-10049000D01*
X13335000Y-10009000D02*
X13415000Y-10009000D01*
X14137000Y-8445000D02*
X14137000Y-8525000D01*
X14097000Y-8485000D02*
X14177000Y-8485000D01*
X14137000Y-8699000D02*
X14137000Y-8779000D01*
X14097000Y-8739000D02*
X14177000Y-8739000D01*
X14137000Y-8953000D02*
X14137000Y-9033000D01*
X14097000Y-8993000D02*
X14177000Y-8993000D01*
X14137000Y-9207000D02*
X14137000Y-9287000D01*
X14097000Y-9247000D02*
X14177000Y-9247000D01*
X14137000Y-9461000D02*
X14137000Y-9541000D01*
X14097000Y-9501000D02*
X14177000Y-9501000D01*
X14137000Y-9715000D02*
X14137000Y-9795000D01*
X14097000Y-9755000D02*
X14177000Y-9755000D01*
X14137000Y-9969000D02*
X14137000Y-10049000D01*
X14097000Y-10009000D02*
X14177000Y-10009000D01*
X14695000Y-10955000D02*
X14695000Y-11035000D01*
X14655000Y-10995000D02*
X14735000Y-10995000D01*
X15171000Y-10955000D02*
X15171000Y-11035000D01*
X15131000Y-10995000D02*
X15211000Y-10995000D01*
X15175000Y-8445000D02*
X15175000Y-8525000D01*
X15135000Y-8485000D02*
X15215000Y-8485000D01*
X15175000Y-8699000D02*
X15175000Y-8779000D01*
X15135000Y-8739000D02*
X15215000Y-8739000D01*
X15175000Y-8953000D02*
X15175000Y-9033000D01*
X15135000Y-8993000D02*
X15215000Y-8993000D01*
X15175000Y-9207000D02*
X15175000Y-9287000D01*
X15135000Y-9247000D02*
X15215000Y-9247000D01*
X15175000Y-9461000D02*
X15175000Y-9541000D01*
X15135000Y-9501000D02*
X15215000Y-9501000D01*
X15175000Y-9715000D02*
X15175000Y-9795000D01*
X15135000Y-9755000D02*
X15215000Y-9755000D01*
X15175000Y-9969000D02*
X15175000Y-10049000D01*
X15135000Y-10009000D02*
X15215000Y-10009000D01*
X15937000Y-8445000D02*
X15937000Y-8525000D01*
X15897000Y-8485000D02*
X15977000Y-8485000D01*
X15937000Y-8699000D02*
X15937000Y-8779000D01*
X15897000Y-8739000D02*
X15977000Y-8739000D01*
X15937000Y-8953000D02*
X15937000Y-9033000D01*
X15897000Y-8993000D02*
X15977000Y-8993000D01*
X15937000Y-9207000D02*
X15937000Y-9287000D01*
X15897000Y-9247000D02*
X15977000Y-9247000D01*
X15937000Y-9461000D02*
X15937000Y-9541000D01*
X15897000Y-9501000D02*
X15977000Y-9501000D01*
X15937000Y-9715000D02*
X15937000Y-9795000D01*
X15897000Y-9755000D02*
X15977000Y-9755000D01*
X15937000Y-9969000D02*
X15937000Y-10049000D01*
X15897000Y-10009000D02*
X15977000Y-10009000D01*
X16695000Y-10955000D02*
X16695000Y-11035000D01*
X16655000Y-10995000D02*
X16735000Y-10995000D01*
D15*
X6322820Y-11526820D02*
X6322820Y-11463180D01*
X6259180Y-11463180D01*
X6259180Y-11526820D01*
X6322820Y-11526820D01*
X6576820Y-11526820D02*
X6576820Y-11463180D01*
X6513180Y-11463180D01*
X6513180Y-11526820D01*
X6576820Y-11526820D01*
X8322820Y-11526820D02*
X8322820Y-11463180D01*
X8259180Y-11463180D01*
X8259180Y-11526820D01*
X8322820Y-11526820D01*
X8576820Y-11526820D02*
X8576820Y-11463180D01*
X8513180Y-11463180D01*
X8513180Y-11526820D01*
X8576820Y-11526820D01*
X10322820Y-11526820D02*
X10322820Y-11463180D01*
X10259180Y-11463180D01*
X10259180Y-11526820D01*
X10322820Y-11526820D01*
X10576820Y-11526820D02*
X10576820Y-11463180D01*
X10513180Y-11463180D01*
X10513180Y-11526820D01*
X10576820Y-11526820D01*
X12322820Y-11526820D02*
X12322820Y-11463180D01*
X12259180Y-11463180D01*
X12259180Y-11526820D01*
X12322820Y-11526820D01*
X12576820Y-11526820D02*
X12576820Y-11463180D01*
X12513180Y-11463180D01*
X12513180Y-11526820D01*
X12576820Y-11526820D01*
X14322820Y-11526820D02*
X14322820Y-11463180D01*
X14259180Y-11463180D01*
X14259180Y-11526820D01*
X14322820Y-11526820D01*
X14576820Y-11526820D02*
X14576820Y-11463180D01*
X14513180Y-11463180D01*
X14513180Y-11526820D01*
X14576820Y-11526820D01*
X16322820Y-11526820D02*
X16322820Y-11463180D01*
X16259180Y-11463180D01*
X16259180Y-11526820D01*
X16322820Y-11526820D01*
X16576820Y-11526820D02*
X16576820Y-11463180D01*
X16513180Y-11463180D01*
X16513180Y-11526820D01*
X16576820Y-11526820D01*
D16*
X5550000Y-7797500D02*
X5597500Y-7750000D01*
X5550000Y-7702500D01*
X5502500Y-7750000D01*
X5550000Y-7797500D01*
X5800000Y-7797500D02*
X5847500Y-7750000D01*
X5800000Y-7702500D01*
X5752500Y-7750000D01*
X5800000Y-7797500D01*
X6050000Y-7797500D02*
X6097500Y-7750000D01*
X6050000Y-7702500D01*
X6002500Y-7750000D01*
X6050000Y-7797500D01*
X6750000Y-7797500D02*
X6797500Y-7750000D01*
X6750000Y-7702500D01*
X6702500Y-7750000D01*
X6750000Y-7797500D01*
X7000000Y-7797500D02*
X7047500Y-7750000D01*
X7000000Y-7702500D01*
X6952500Y-7750000D01*
X7000000Y-7797500D01*
X7250000Y-7797500D02*
X7297500Y-7750000D01*
X7250000Y-7702500D01*
X7202500Y-7750000D01*
X7250000Y-7797500D01*
X7500000Y-7797500D02*
X7547500Y-7750000D01*
X7500000Y-7702500D01*
X7452500Y-7750000D01*
X7500000Y-7797500D01*
X7750000Y-7797500D02*
X7797500Y-7750000D01*
X7750000Y-7702500D01*
X7702500Y-7750000D01*
X7750000Y-7797500D01*
X8000000Y-7797500D02*
X8047500Y-7750000D01*
X8000000Y-7702500D01*
X7952500Y-7750000D01*
X8000000Y-7797500D01*
X8250000Y-7797500D02*
X8297500Y-7750000D01*
X8250000Y-7702500D01*
X8202500Y-7750000D01*
X8250000Y-7797500D01*
X9000000Y-7047500D02*
X9047500Y-7000000D01*
X9000000Y-6952500D01*
X8952500Y-7000000D01*
X9000000Y-7047500D01*
X9000000Y-7797500D02*
X9047500Y-7750000D01*
X9000000Y-7702500D01*
X8952500Y-7750000D01*
X9000000Y-7797500D01*
X9250000Y-7047500D02*
X9297500Y-7000000D01*
X9250000Y-6952500D01*
X9202500Y-7000000D01*
X9250000Y-7047500D01*
X9250000Y-7797500D02*
X9297500Y-7750000D01*
X9250000Y-7702500D01*
X9202500Y-7750000D01*
X9250000Y-7797500D01*
X9500000Y-7047500D02*
X9547500Y-7000000D01*
X9500000Y-6952500D01*
X9452500Y-7000000D01*
X9500000Y-7047500D01*
X9500000Y-7797500D02*
X9547500Y-7750000D01*
X9500000Y-7702500D01*
X9452500Y-7750000D01*
X9500000Y-7797500D01*
X9750000Y-7047500D02*
X9797500Y-7000000D01*
X9750000Y-6952500D01*
X9702500Y-7000000D01*
X9750000Y-7047500D01*
X9750000Y-7797500D02*
X9797500Y-7750000D01*
X9750000Y-7702500D01*
X9702500Y-7750000D01*
X9750000Y-7797500D01*
X10000000Y-7047500D02*
X10047500Y-7000000D01*
X10000000Y-6952500D01*
X9952500Y-7000000D01*
X10000000Y-7047500D01*
X10000000Y-7797500D02*
X10047500Y-7750000D01*
X10000000Y-7702500D01*
X9952500Y-7750000D01*
X10000000Y-7797500D01*
X10250000Y-7047500D02*
X10297500Y-7000000D01*
X10250000Y-6952500D01*
X10202500Y-7000000D01*
X10250000Y-7047500D01*
X10250000Y-7797500D02*
X10297500Y-7750000D01*
X10250000Y-7702500D01*
X10202500Y-7750000D01*
X10250000Y-7797500D01*
X10500000Y-7047500D02*
X10547500Y-7000000D01*
X10500000Y-6952500D01*
X10452500Y-7000000D01*
X10500000Y-7047500D01*
X10500000Y-7797500D02*
X10547500Y-7750000D01*
X10500000Y-7702500D01*
X10452500Y-7750000D01*
X10500000Y-7797500D01*
X11250000Y-7047500D02*
X11297500Y-7000000D01*
X11250000Y-6952500D01*
X11202500Y-7000000D01*
X11250000Y-7047500D01*
X11250000Y-7797500D02*
X11297500Y-7750000D01*
X11250000Y-7702500D01*
X11202500Y-7750000D01*
X11250000Y-7797500D01*
X11500000Y-7047500D02*
X11547500Y-7000000D01*
X11500000Y-6952500D01*
X11452500Y-7000000D01*
X11500000Y-7047500D01*
X11500000Y-7797500D02*
X11547500Y-7750000D01*
X11500000Y-7702500D01*
X11452500Y-7750000D01*
X11500000Y-7797500D01*
X11750000Y-7047500D02*
X11797500Y-7000000D01*
X11750000Y-6952500D01*
X11702500Y-7000000D01*
X11750000Y-7047500D01*
X11750000Y-7797500D02*
X11797500Y-7750000D01*
X11750000Y-7702500D01*
X11702500Y-7750000D01*
X11750000Y-7797500D01*
X12000000Y-7047500D02*
X12047500Y-7000000D01*
X12000000Y-6952500D01*
X11952500Y-7000000D01*
X12000000Y-7047500D01*
X12000000Y-7797500D02*
X12047500Y-7750000D01*
X12000000Y-7702500D01*
X11952500Y-7750000D01*
X12000000Y-7797500D01*
X12250000Y-7047500D02*
X12297500Y-7000000D01*
X12250000Y-6952500D01*
X12202500Y-7000000D01*
X12250000Y-7047500D01*
X12250000Y-7797500D02*
X12297500Y-7750000D01*
X12250000Y-7702500D01*
X12202500Y-7750000D01*
X12250000Y-7797500D01*
X12500000Y-7047500D02*
X12547500Y-7000000D01*
X12500000Y-6952500D01*
X12452500Y-7000000D01*
X12500000Y-7047500D01*
X12500000Y-7797500D02*
X12547500Y-7750000D01*
X12500000Y-7702500D01*
X12452500Y-7750000D01*
X12500000Y-7797500D01*
X12750000Y-7047500D02*
X12797500Y-7000000D01*
X12750000Y-6952500D01*
X12702500Y-7000000D01*
X12750000Y-7047500D01*
X12750000Y-7797500D02*
X12797500Y-7750000D01*
X12750000Y-7702500D01*
X12702500Y-7750000D01*
X12750000Y-7797500D01*
X13550000Y-7047500D02*
X13597500Y-7000000D01*
X13550000Y-6952500D01*
X13502500Y-7000000D01*
X13550000Y-7047500D01*
X13550000Y-7797500D02*
X13597500Y-7750000D01*
X13550000Y-7702500D01*
X13502500Y-7750000D01*
X13550000Y-7797500D01*
X13800000Y-7047500D02*
X13847500Y-7000000D01*
X13800000Y-6952500D01*
X13752500Y-7000000D01*
X13800000Y-7047500D01*
X13800000Y-7797500D02*
X13847500Y-7750000D01*
X13800000Y-7702500D01*
X13752500Y-7750000D01*
X13800000Y-7797500D01*
X14050000Y-7047500D02*
X14097500Y-7000000D01*
X14050000Y-6952500D01*
X14002500Y-7000000D01*
X14050000Y-7047500D01*
X14050000Y-7797500D02*
X14097500Y-7750000D01*
X14050000Y-7702500D01*
X14002500Y-7750000D01*
X14050000Y-7797500D01*
X14300000Y-7047500D02*
X14347500Y-7000000D01*
X14300000Y-6952500D01*
X14252500Y-7000000D01*
X14300000Y-7047500D01*
X14300000Y-7797500D02*
X14347500Y-7750000D01*
X14300000Y-7702500D01*
X14252500Y-7750000D01*
X14300000Y-7797500D01*
X14515000Y-5552500D02*
X14562500Y-5505000D01*
X14515000Y-5457500D01*
X14467500Y-5505000D01*
X14515000Y-5552500D01*
X14550000Y-7047500D02*
X14597500Y-7000000D01*
X14550000Y-6952500D01*
X14502500Y-7000000D01*
X14550000Y-7047500D01*
X14550000Y-7797500D02*
X14597500Y-7750000D01*
X14550000Y-7702500D01*
X14502500Y-7750000D01*
X14550000Y-7797500D01*
X14765000Y-5552500D02*
X14812500Y-5505000D01*
X14765000Y-5457500D01*
X14717500Y-5505000D01*
X14765000Y-5552500D01*
X14800000Y-7047500D02*
X14847500Y-7000000D01*
X14800000Y-6952500D01*
X14752500Y-7000000D01*
X14800000Y-7047500D01*
X14800000Y-7797500D02*
X14847500Y-7750000D01*
X14800000Y-7702500D01*
X14752500Y-7750000D01*
X14800000Y-7797500D01*
X15015000Y-5552500D02*
X15062500Y-5505000D01*
X15015000Y-5457500D01*
X14967500Y-5505000D01*
X15015000Y-5552500D01*
X15050000Y-7047500D02*
X15097500Y-7000000D01*
X15050000Y-6952500D01*
X15002500Y-7000000D01*
X15050000Y-7047500D01*
X15050000Y-7797500D02*
X15097500Y-7750000D01*
X15050000Y-7702500D01*
X15002500Y-7750000D01*
X15050000Y-7797500D01*
D10*
X15745000Y-5650000D02*
X15845000Y-5750000D01*
X15845000Y-5650000D02*
X15745000Y-5750000D01*
X15845000Y-5700000D02*
G75*
G03*
X15845000Y-5700000I-50000J0D01*
G01*
D11*
X15745000Y-5600000D02*
X15745000Y-5800000D01*
X15745000Y-5800000D02*
G75*
G03*
X15845000Y-5800000I50000J0D01*
G01*
X15845000Y-5800000D02*
X15845000Y-5600000D01*
X15845000Y-5600000D02*
G75*
G03*
X15745000Y-5600000I-50000J0D01*
G01*
D10*
X16215000Y-5350000D02*
X16315000Y-5450000D01*
X16315000Y-5350000D02*
X16215000Y-5450000D01*
X16315000Y-5400000D02*
G75*
G03*
X16315000Y-5400000I-50000J0D01*
G01*
D11*
X16365000Y-5350000D02*
X16165000Y-5350000D01*
X16165000Y-5350000D02*
G75*
G03*
X16165000Y-5450000I0J-50000D01*
G01*
X16165000Y-5450000D02*
X16365000Y-5450000D01*
X16365000Y-5450000D02*
G75*
G03*
X16365000Y-5350000I0J50000D01*
G01*
D10*
X16215000Y-5950000D02*
X16315000Y-6050000D01*
X16315000Y-5950000D02*
X16215000Y-6050000D01*
X16315000Y-6000000D02*
G75*
G03*
X16315000Y-6000000I-50000J0D01*
G01*
D11*
X16365000Y-5950000D02*
X16165000Y-5950000D01*
X16165000Y-5950000D02*
G75*
G03*
X16165000Y-6050000I0J-50000D01*
G01*
X16165000Y-6050000D02*
X16365000Y-6050000D01*
X16365000Y-6050000D02*
G75*
G03*
X16365000Y-5950000I0J50000D01*
G01*
D17*
X5745026Y-6180067D02*
X5845102Y-6280143D01*
X5845102Y-6180067D02*
X5745026Y-6280143D01*
X5795064Y-6180067D02*
X5795064Y-6280143D01*
X5745026Y-6230105D02*
X5845102Y-6230105D01*
X5994962Y-6180067D02*
X6095038Y-6280143D01*
X6095038Y-6180067D02*
X5994962Y-6280143D01*
X6045000Y-6180067D02*
X6045000Y-6280143D01*
X5994962Y-6230105D02*
X6095038Y-6230105D01*
D18*
X13232000Y-5280000D02*
X13342000Y-5390000D01*
X13342000Y-5280000D02*
X13232000Y-5390000D01*
X13325891Y-5373891D02*
X13325891Y-5296109D01*
X13248109Y-5296109D01*
X13248109Y-5373891D01*
X13325891Y-5373891D01*
X13486000Y-5280000D02*
X13596000Y-5390000D01*
X13596000Y-5280000D02*
X13486000Y-5390000D01*
X13579891Y-5373891D02*
X13579891Y-5296109D01*
X13502109Y-5296109D01*
X13502109Y-5373891D01*
X13579891Y-5373891D01*
X13740000Y-5280000D02*
X13850000Y-5390000D01*
X13850000Y-5280000D02*
X13740000Y-5390000D01*
X13833891Y-5373891D02*
X13833891Y-5296109D01*
X13756109Y-5296109D01*
X13756109Y-5373891D01*
X13833891Y-5373891D01*
D19*
X5182500Y-11992500D02*
X5367500Y-12177500D01*
X5367500Y-11992500D02*
X5182500Y-12177500D01*
X5275000Y-12177500D02*
X5367500Y-12085000D01*
X5275000Y-11992500D01*
X5182500Y-12085000D01*
X5275000Y-12177500D01*
X5722500Y-11992500D02*
X5907500Y-12177500D01*
X5907500Y-11992500D02*
X5722500Y-12177500D01*
X5815000Y-12177500D02*
X5907500Y-12085000D01*
X5815000Y-11992500D01*
X5722500Y-12085000D01*
X5815000Y-12177500D01*
X7182500Y-11992500D02*
X7367500Y-12177500D01*
X7367500Y-11992500D02*
X7182500Y-12177500D01*
X7275000Y-12177500D02*
X7367500Y-12085000D01*
X7275000Y-11992500D01*
X7182500Y-12085000D01*
X7275000Y-12177500D01*
X7722500Y-11992500D02*
X7907500Y-12177500D01*
X7907500Y-11992500D02*
X7722500Y-12177500D01*
X7815000Y-12177500D02*
X7907500Y-12085000D01*
X7815000Y-11992500D01*
X7722500Y-12085000D01*
X7815000Y-12177500D01*
X9182500Y-11992500D02*
X9367500Y-12177500D01*
X9367500Y-11992500D02*
X9182500Y-12177500D01*
X9275000Y-12177500D02*
X9367500Y-12085000D01*
X9275000Y-11992500D01*
X9182500Y-12085000D01*
X9275000Y-12177500D01*
X9722500Y-11992500D02*
X9907500Y-12177500D01*
X9907500Y-11992500D02*
X9722500Y-12177500D01*
X9815000Y-12177500D02*
X9907500Y-12085000D01*
X9815000Y-11992500D01*
X9722500Y-12085000D01*
X9815000Y-12177500D01*
X11182500Y-11992500D02*
X11367500Y-12177500D01*
X11367500Y-11992500D02*
X11182500Y-12177500D01*
X11275000Y-12177500D02*
X11367500Y-12085000D01*
X11275000Y-11992500D01*
X11182500Y-12085000D01*
X11275000Y-12177500D01*
X11722500Y-11992500D02*
X11907500Y-12177500D01*
X11907500Y-11992500D02*
X11722500Y-12177500D01*
X11815000Y-12177500D02*
X11907500Y-12085000D01*
X11815000Y-11992500D01*
X11722500Y-12085000D01*
X11815000Y-12177500D01*
X13182500Y-11992500D02*
X13367500Y-12177500D01*
X13367500Y-11992500D02*
X13182500Y-12177500D01*
X13275000Y-12177500D02*
X13367500Y-12085000D01*
X13275000Y-11992500D01*
X13182500Y-12085000D01*
X13275000Y-12177500D01*
X13722500Y-11992500D02*
X13907500Y-12177500D01*
X13907500Y-11992500D02*
X13722500Y-12177500D01*
X13815000Y-12177500D02*
X13907500Y-12085000D01*
X13815000Y-11992500D01*
X13722500Y-12085000D01*
X13815000Y-12177500D01*
X15182500Y-11992500D02*
X15367500Y-12177500D01*
X15367500Y-11992500D02*
X15182500Y-12177500D01*
X15275000Y-12177500D02*
X15367500Y-12085000D01*
X15275000Y-11992500D01*
X15182500Y-12085000D01*
X15275000Y-12177500D01*
X15722500Y-11992500D02*
X15907500Y-12177500D01*
X15907500Y-11992500D02*
X15722500Y-12177500D01*
X15815000Y-12177500D02*
X15907500Y-12085000D01*
X15815000Y-11992500D01*
X15722500Y-12085000D01*
X15815000Y-12177500D01*
D20*
X5535222Y-5693657D02*
X5535222Y-5913621D01*
X5425240Y-5803639D02*
X5645204Y-5803639D01*
X5645204Y-5803639D02*
G75*
G03*
X5645204Y-5803639I-109982J0D01*
G01*
X6555032Y-5693657D02*
X6555032Y-5913621D01*
X6445050Y-5803639D02*
X6665014Y-5803639D01*
X6665014Y-5803639D02*
G75*
G03*
X6665014Y-5803639I-109982J0D01*
G01*
D11*
X5255777Y-12816484D02*
X5255777Y-12616484D01*
X5255777Y-12616484D02*
X5303396Y-12616484D01*
X5303396Y-12616484D02*
X5331967Y-12626008D01*
X5331967Y-12626008D02*
X5351015Y-12645055D01*
X5351015Y-12645055D02*
X5360539Y-12664103D01*
X5360539Y-12664103D02*
X5370063Y-12702198D01*
X5370063Y-12702198D02*
X5370063Y-12730769D01*
X5370063Y-12730769D02*
X5360539Y-12768865D01*
X5360539Y-12768865D02*
X5351015Y-12787912D01*
X5351015Y-12787912D02*
X5331967Y-12806960D01*
X5331967Y-12806960D02*
X5303396Y-12816484D01*
X5303396Y-12816484D02*
X5255777Y-12816484D01*
X5455777Y-12816484D02*
X5455777Y-12683150D01*
X5455777Y-12721246D02*
X5465301Y-12702198D01*
X5465301Y-12702198D02*
X5474824Y-12692674D01*
X5474824Y-12692674D02*
X5493872Y-12683150D01*
X5493872Y-12683150D02*
X5512920Y-12683150D01*
X5579586Y-12816484D02*
X5579586Y-12683150D01*
X5579586Y-12616484D02*
X5570063Y-12626008D01*
X5570063Y-12626008D02*
X5579586Y-12635531D01*
X5579586Y-12635531D02*
X5589110Y-12626008D01*
X5589110Y-12626008D02*
X5579586Y-12616484D01*
X5579586Y-12616484D02*
X5579586Y-12635531D01*
X5703396Y-12816484D02*
X5684348Y-12806960D01*
X5684348Y-12806960D02*
X5674824Y-12787912D01*
X5674824Y-12787912D02*
X5674824Y-12616484D01*
X5808158Y-12816484D02*
X5789110Y-12806960D01*
X5789110Y-12806960D02*
X5779586Y-12787912D01*
X5779586Y-12787912D02*
X5779586Y-12616484D01*
X6036729Y-12816484D02*
X6036729Y-12616484D01*
X6036729Y-12616484D02*
X6103396Y-12759341D01*
X6103396Y-12759341D02*
X6170062Y-12616484D01*
X6170062Y-12616484D02*
X6170062Y-12816484D01*
X6351015Y-12816484D02*
X6351015Y-12711722D01*
X6351015Y-12711722D02*
X6341491Y-12692674D01*
X6341491Y-12692674D02*
X6322443Y-12683150D01*
X6322443Y-12683150D02*
X6284348Y-12683150D01*
X6284348Y-12683150D02*
X6265301Y-12692674D01*
X6351015Y-12806960D02*
X6331967Y-12816484D01*
X6331967Y-12816484D02*
X6284348Y-12816484D01*
X6284348Y-12816484D02*
X6265301Y-12806960D01*
X6265301Y-12806960D02*
X6255777Y-12787912D01*
X6255777Y-12787912D02*
X6255777Y-12768865D01*
X6255777Y-12768865D02*
X6265301Y-12749817D01*
X6265301Y-12749817D02*
X6284348Y-12740293D01*
X6284348Y-12740293D02*
X6331967Y-12740293D01*
X6331967Y-12740293D02*
X6351015Y-12730769D01*
X6446253Y-12683150D02*
X6446253Y-12883150D01*
X6446253Y-12692674D02*
X6465301Y-12683150D01*
X6465301Y-12683150D02*
X6503396Y-12683150D01*
X6503396Y-12683150D02*
X6522443Y-12692674D01*
X6522443Y-12692674D02*
X6531967Y-12702198D01*
X6531967Y-12702198D02*
X6541491Y-12721246D01*
X6541491Y-12721246D02*
X6541491Y-12778388D01*
X6541491Y-12778388D02*
X6531967Y-12797436D01*
X6531967Y-12797436D02*
X6522443Y-12806960D01*
X6522443Y-12806960D02*
X6503396Y-12816484D01*
X6503396Y-12816484D02*
X6465301Y-12816484D01*
X6465301Y-12816484D02*
X6446253Y-12806960D01*
X6627205Y-12797436D02*
X6636729Y-12806960D01*
X6636729Y-12806960D02*
X6627205Y-12816484D01*
X6627205Y-12816484D02*
X6617682Y-12806960D01*
X6617682Y-12806960D02*
X6627205Y-12797436D01*
X6627205Y-12797436D02*
X6627205Y-12816484D01*
X6627205Y-12692674D02*
X6636729Y-12702198D01*
X6636729Y-12702198D02*
X6627205Y-12711722D01*
X6627205Y-12711722D02*
X6617682Y-12702198D01*
X6617682Y-12702198D02*
X6627205Y-12692674D01*
X6627205Y-12692674D02*
X6627205Y-12711722D01*
D12*
X4940000Y-13117500D02*
X4995000Y-13172500D01*
X4995000Y-13117500D02*
X4940000Y-13172500D01*
D11*
X5293872Y-13036484D02*
X5312920Y-13036484D01*
X5312920Y-13036484D02*
X5331967Y-13046008D01*
X5331967Y-13046008D02*
X5341491Y-13055531D01*
X5341491Y-13055531D02*
X5351015Y-13074579D01*
X5351015Y-13074579D02*
X5360539Y-13112674D01*
X5360539Y-13112674D02*
X5360539Y-13160293D01*
X5360539Y-13160293D02*
X5351015Y-13198388D01*
X5351015Y-13198388D02*
X5341491Y-13217436D01*
X5341491Y-13217436D02*
X5331967Y-13226960D01*
X5331967Y-13226960D02*
X5312920Y-13236484D01*
X5312920Y-13236484D02*
X5293872Y-13236484D01*
X5293872Y-13236484D02*
X5274824Y-13226960D01*
X5274824Y-13226960D02*
X5265301Y-13217436D01*
X5265301Y-13217436D02*
X5255777Y-13198388D01*
X5255777Y-13198388D02*
X5246253Y-13160293D01*
X5246253Y-13160293D02*
X5246253Y-13112674D01*
X5246253Y-13112674D02*
X5255777Y-13074579D01*
X5255777Y-13074579D02*
X5265301Y-13055531D01*
X5265301Y-13055531D02*
X5274824Y-13046008D01*
X5274824Y-13046008D02*
X5293872Y-13036484D01*
X5446253Y-13217436D02*
X5455777Y-13226960D01*
X5455777Y-13226960D02*
X5446253Y-13236484D01*
X5446253Y-13236484D02*
X5436729Y-13226960D01*
X5436729Y-13226960D02*
X5446253Y-13217436D01*
X5446253Y-13217436D02*
X5446253Y-13236484D01*
X5636729Y-13036484D02*
X5541491Y-13036484D01*
X5541491Y-13036484D02*
X5531967Y-13131722D01*
X5531967Y-13131722D02*
X5541491Y-13122198D01*
X5541491Y-13122198D02*
X5560539Y-13112674D01*
X5560539Y-13112674D02*
X5608158Y-13112674D01*
X5608158Y-13112674D02*
X5627205Y-13122198D01*
X5627205Y-13122198D02*
X5636729Y-13131722D01*
X5636729Y-13131722D02*
X5646253Y-13150769D01*
X5646253Y-13150769D02*
X5646253Y-13198388D01*
X5646253Y-13198388D02*
X5636729Y-13217436D01*
X5636729Y-13217436D02*
X5627205Y-13226960D01*
X5627205Y-13226960D02*
X5608158Y-13236484D01*
X5608158Y-13236484D02*
X5560539Y-13236484D01*
X5560539Y-13236484D02*
X5541491Y-13226960D01*
X5541491Y-13226960D02*
X5531967Y-13217436D01*
X5827205Y-13036484D02*
X5731967Y-13036484D01*
X5731967Y-13036484D02*
X5722443Y-13131722D01*
X5722443Y-13131722D02*
X5731967Y-13122198D01*
X5731967Y-13122198D02*
X5751015Y-13112674D01*
X5751015Y-13112674D02*
X5798634Y-13112674D01*
X5798634Y-13112674D02*
X5817682Y-13122198D01*
X5817682Y-13122198D02*
X5827205Y-13131722D01*
X5827205Y-13131722D02*
X5836729Y-13150769D01*
X5836729Y-13150769D02*
X5836729Y-13198388D01*
X5836729Y-13198388D02*
X5827205Y-13217436D01*
X5827205Y-13217436D02*
X5817682Y-13226960D01*
X5817682Y-13226960D02*
X5798634Y-13236484D01*
X5798634Y-13236484D02*
X5751015Y-13236484D01*
X5751015Y-13236484D02*
X5731967Y-13226960D01*
X5731967Y-13226960D02*
X5722443Y-13217436D01*
X5960539Y-13036484D02*
X5979586Y-13036484D01*
X5979586Y-13036484D02*
X5998634Y-13046008D01*
X5998634Y-13046008D02*
X6008158Y-13055531D01*
X6008158Y-13055531D02*
X6017682Y-13074579D01*
X6017682Y-13074579D02*
X6027205Y-13112674D01*
X6027205Y-13112674D02*
X6027205Y-13160293D01*
X6027205Y-13160293D02*
X6017682Y-13198388D01*
X6017682Y-13198388D02*
X6008158Y-13217436D01*
X6008158Y-13217436D02*
X5998634Y-13226960D01*
X5998634Y-13226960D02*
X5979586Y-13236484D01*
X5979586Y-13236484D02*
X5960539Y-13236484D01*
X5960539Y-13236484D02*
X5941491Y-13226960D01*
X5941491Y-13226960D02*
X5931967Y-13217436D01*
X5931967Y-13217436D02*
X5922443Y-13198388D01*
X5922443Y-13198388D02*
X5912920Y-13160293D01*
X5912920Y-13160293D02*
X5912920Y-13112674D01*
X5912920Y-13112674D02*
X5922443Y-13074579D01*
X5922443Y-13074579D02*
X5931967Y-13055531D01*
X5931967Y-13055531D02*
X5941491Y-13046008D01*
X5941491Y-13046008D02*
X5960539Y-13036484D01*
X6112920Y-13236484D02*
X6112920Y-13103150D01*
X6112920Y-13122198D02*
X6122443Y-13112674D01*
X6122443Y-13112674D02*
X6141491Y-13103150D01*
X6141491Y-13103150D02*
X6170063Y-13103150D01*
X6170063Y-13103150D02*
X6189110Y-13112674D01*
X6189110Y-13112674D02*
X6198634Y-13131722D01*
X6198634Y-13131722D02*
X6198634Y-13236484D01*
X6198634Y-13131722D02*
X6208158Y-13112674D01*
X6208158Y-13112674D02*
X6227205Y-13103150D01*
X6227205Y-13103150D02*
X6255777Y-13103150D01*
X6255777Y-13103150D02*
X6274824Y-13112674D01*
X6274824Y-13112674D02*
X6284348Y-13131722D01*
X6284348Y-13131722D02*
X6284348Y-13236484D01*
X6379586Y-13236484D02*
X6379586Y-13103150D01*
X6379586Y-13122198D02*
X6389110Y-13112674D01*
X6389110Y-13112674D02*
X6408158Y-13103150D01*
X6408158Y-13103150D02*
X6436729Y-13103150D01*
X6436729Y-13103150D02*
X6455777Y-13112674D01*
X6455777Y-13112674D02*
X6465301Y-13131722D01*
X6465301Y-13131722D02*
X6465301Y-13236484D01*
X6465301Y-13131722D02*
X6474824Y-13112674D01*
X6474824Y-13112674D02*
X6493872Y-13103150D01*
X6493872Y-13103150D02*
X6522443Y-13103150D01*
X6522443Y-13103150D02*
X6541491Y-13112674D01*
X6541491Y-13112674D02*
X6551015Y-13131722D01*
X6551015Y-13131722D02*
X6551015Y-13236484D01*
X6941491Y-13026960D02*
X6770063Y-13284103D01*
X7198634Y-13036484D02*
X7217682Y-13036484D01*
X7217682Y-13036484D02*
X7236729Y-13046008D01*
X7236729Y-13046008D02*
X7246253Y-13055531D01*
X7246253Y-13055531D02*
X7255777Y-13074579D01*
X7255777Y-13074579D02*
X7265301Y-13112674D01*
X7265301Y-13112674D02*
X7265301Y-13160293D01*
X7265301Y-13160293D02*
X7255777Y-13198388D01*
X7255777Y-13198388D02*
X7246253Y-13217436D01*
X7246253Y-13217436D02*
X7236729Y-13226960D01*
X7236729Y-13226960D02*
X7217682Y-13236484D01*
X7217682Y-13236484D02*
X7198634Y-13236484D01*
X7198634Y-13236484D02*
X7179586Y-13226960D01*
X7179586Y-13226960D02*
X7170063Y-13217436D01*
X7170063Y-13217436D02*
X7160539Y-13198388D01*
X7160539Y-13198388D02*
X7151015Y-13160293D01*
X7151015Y-13160293D02*
X7151015Y-13112674D01*
X7151015Y-13112674D02*
X7160539Y-13074579D01*
X7160539Y-13074579D02*
X7170063Y-13055531D01*
X7170063Y-13055531D02*
X7179586Y-13046008D01*
X7179586Y-13046008D02*
X7198634Y-13036484D01*
X7351015Y-13217436D02*
X7360539Y-13226960D01*
X7360539Y-13226960D02*
X7351015Y-13236484D01*
X7351015Y-13236484D02*
X7341491Y-13226960D01*
X7341491Y-13226960D02*
X7351015Y-13217436D01*
X7351015Y-13217436D02*
X7351015Y-13236484D01*
X7484348Y-13036484D02*
X7503396Y-13036484D01*
X7503396Y-13036484D02*
X7522444Y-13046008D01*
X7522444Y-13046008D02*
X7531967Y-13055531D01*
X7531967Y-13055531D02*
X7541491Y-13074579D01*
X7541491Y-13074579D02*
X7551015Y-13112674D01*
X7551015Y-13112674D02*
X7551015Y-13160293D01*
X7551015Y-13160293D02*
X7541491Y-13198388D01*
X7541491Y-13198388D02*
X7531967Y-13217436D01*
X7531967Y-13217436D02*
X7522444Y-13226960D01*
X7522444Y-13226960D02*
X7503396Y-13236484D01*
X7503396Y-13236484D02*
X7484348Y-13236484D01*
X7484348Y-13236484D02*
X7465301Y-13226960D01*
X7465301Y-13226960D02*
X7455777Y-13217436D01*
X7455777Y-13217436D02*
X7446253Y-13198388D01*
X7446253Y-13198388D02*
X7436729Y-13160293D01*
X7436729Y-13160293D02*
X7436729Y-13112674D01*
X7436729Y-13112674D02*
X7446253Y-13074579D01*
X7446253Y-13074579D02*
X7455777Y-13055531D01*
X7455777Y-13055531D02*
X7465301Y-13046008D01*
X7465301Y-13046008D02*
X7484348Y-13036484D01*
X7627206Y-13055531D02*
X7636729Y-13046008D01*
X7636729Y-13046008D02*
X7655777Y-13036484D01*
X7655777Y-13036484D02*
X7703396Y-13036484D01*
X7703396Y-13036484D02*
X7722444Y-13046008D01*
X7722444Y-13046008D02*
X7731967Y-13055531D01*
X7731967Y-13055531D02*
X7741491Y-13074579D01*
X7741491Y-13074579D02*
X7741491Y-13093627D01*
X7741491Y-13093627D02*
X7731967Y-13122198D01*
X7731967Y-13122198D02*
X7617682Y-13236484D01*
X7617682Y-13236484D02*
X7741491Y-13236484D01*
X7931967Y-13236484D02*
X7817682Y-13236484D01*
X7874825Y-13236484D02*
X7874825Y-13036484D01*
X7874825Y-13036484D02*
X7855777Y-13065055D01*
X7855777Y-13065055D02*
X7836729Y-13084103D01*
X7836729Y-13084103D02*
X7817682Y-13093627D01*
X7998634Y-13036484D02*
X8131967Y-13036484D01*
X8131967Y-13036484D02*
X8046253Y-13236484D01*
X8198634Y-13036484D02*
X8198634Y-13074579D01*
X8274825Y-13036484D02*
X8274825Y-13074579D01*
X8570063Y-13312674D02*
X8560539Y-13303150D01*
X8560539Y-13303150D02*
X8541491Y-13274579D01*
X8541491Y-13274579D02*
X8531968Y-13255531D01*
X8531968Y-13255531D02*
X8522444Y-13226960D01*
X8522444Y-13226960D02*
X8512920Y-13179341D01*
X8512920Y-13179341D02*
X8512920Y-13141246D01*
X8512920Y-13141246D02*
X8522444Y-13093627D01*
X8522444Y-13093627D02*
X8531968Y-13065055D01*
X8531968Y-13065055D02*
X8541491Y-13046008D01*
X8541491Y-13046008D02*
X8560539Y-13017436D01*
X8560539Y-13017436D02*
X8570063Y-13007912D01*
X8684349Y-13036484D02*
X8703396Y-13036484D01*
X8703396Y-13036484D02*
X8722444Y-13046008D01*
X8722444Y-13046008D02*
X8731968Y-13055531D01*
X8731968Y-13055531D02*
X8741491Y-13074579D01*
X8741491Y-13074579D02*
X8751015Y-13112674D01*
X8751015Y-13112674D02*
X8751015Y-13160293D01*
X8751015Y-13160293D02*
X8741491Y-13198388D01*
X8741491Y-13198388D02*
X8731968Y-13217436D01*
X8731968Y-13217436D02*
X8722444Y-13226960D01*
X8722444Y-13226960D02*
X8703396Y-13236484D01*
X8703396Y-13236484D02*
X8684349Y-13236484D01*
X8684349Y-13236484D02*
X8665301Y-13226960D01*
X8665301Y-13226960D02*
X8655777Y-13217436D01*
X8655777Y-13217436D02*
X8646253Y-13198388D01*
X8646253Y-13198388D02*
X8636730Y-13160293D01*
X8636730Y-13160293D02*
X8636730Y-13112674D01*
X8636730Y-13112674D02*
X8646253Y-13074579D01*
X8646253Y-13074579D02*
X8655777Y-13055531D01*
X8655777Y-13055531D02*
X8665301Y-13046008D01*
X8665301Y-13046008D02*
X8684349Y-13036484D01*
X8989111Y-13236484D02*
X8989111Y-13036484D01*
X9074825Y-13236484D02*
X9074825Y-13131722D01*
X9074825Y-13131722D02*
X9065301Y-13112674D01*
X9065301Y-13112674D02*
X9046253Y-13103150D01*
X9046253Y-13103150D02*
X9017682Y-13103150D01*
X9017682Y-13103150D02*
X8998634Y-13112674D01*
X8998634Y-13112674D02*
X8989111Y-13122198D01*
X9198634Y-13236484D02*
X9179587Y-13226960D01*
X9179587Y-13226960D02*
X9170063Y-13217436D01*
X9170063Y-13217436D02*
X9160539Y-13198388D01*
X9160539Y-13198388D02*
X9160539Y-13141246D01*
X9160539Y-13141246D02*
X9170063Y-13122198D01*
X9170063Y-13122198D02*
X9179587Y-13112674D01*
X9179587Y-13112674D02*
X9198634Y-13103150D01*
X9198634Y-13103150D02*
X9227206Y-13103150D01*
X9227206Y-13103150D02*
X9246253Y-13112674D01*
X9246253Y-13112674D02*
X9255777Y-13122198D01*
X9255777Y-13122198D02*
X9265301Y-13141246D01*
X9265301Y-13141246D02*
X9265301Y-13198388D01*
X9265301Y-13198388D02*
X9255777Y-13217436D01*
X9255777Y-13217436D02*
X9246253Y-13226960D01*
X9246253Y-13226960D02*
X9227206Y-13236484D01*
X9227206Y-13236484D02*
X9198634Y-13236484D01*
X9379587Y-13236484D02*
X9360539Y-13226960D01*
X9360539Y-13226960D02*
X9351015Y-13207912D01*
X9351015Y-13207912D02*
X9351015Y-13036484D01*
X9531968Y-13226960D02*
X9512920Y-13236484D01*
X9512920Y-13236484D02*
X9474825Y-13236484D01*
X9474825Y-13236484D02*
X9455777Y-13226960D01*
X9455777Y-13226960D02*
X9446253Y-13207912D01*
X9446253Y-13207912D02*
X9446253Y-13131722D01*
X9446253Y-13131722D02*
X9455777Y-13112674D01*
X9455777Y-13112674D02*
X9474825Y-13103150D01*
X9474825Y-13103150D02*
X9512920Y-13103150D01*
X9512920Y-13103150D02*
X9531968Y-13112674D01*
X9531968Y-13112674D02*
X9541492Y-13131722D01*
X9541492Y-13131722D02*
X9541492Y-13150769D01*
X9541492Y-13150769D02*
X9446253Y-13169817D01*
X9617682Y-13226960D02*
X9636730Y-13236484D01*
X9636730Y-13236484D02*
X9674825Y-13236484D01*
X9674825Y-13236484D02*
X9693873Y-13226960D01*
X9693873Y-13226960D02*
X9703396Y-13207912D01*
X9703396Y-13207912D02*
X9703396Y-13198388D01*
X9703396Y-13198388D02*
X9693873Y-13179341D01*
X9693873Y-13179341D02*
X9674825Y-13169817D01*
X9674825Y-13169817D02*
X9646253Y-13169817D01*
X9646253Y-13169817D02*
X9627206Y-13160293D01*
X9627206Y-13160293D02*
X9617682Y-13141246D01*
X9617682Y-13141246D02*
X9617682Y-13131722D01*
X9617682Y-13131722D02*
X9627206Y-13112674D01*
X9627206Y-13112674D02*
X9646253Y-13103150D01*
X9646253Y-13103150D02*
X9674825Y-13103150D01*
X9674825Y-13103150D02*
X9693873Y-13112674D01*
X9941492Y-13160293D02*
X10093873Y-13160293D01*
X10017682Y-13236484D02*
X10017682Y-13084103D01*
X10322444Y-13036484D02*
X10446254Y-13036484D01*
X10446254Y-13036484D02*
X10379587Y-13112674D01*
X10379587Y-13112674D02*
X10408158Y-13112674D01*
X10408158Y-13112674D02*
X10427206Y-13122198D01*
X10427206Y-13122198D02*
X10436730Y-13131722D01*
X10436730Y-13131722D02*
X10446254Y-13150769D01*
X10446254Y-13150769D02*
X10446254Y-13198388D01*
X10446254Y-13198388D02*
X10436730Y-13217436D01*
X10436730Y-13217436D02*
X10427206Y-13226960D01*
X10427206Y-13226960D02*
X10408158Y-13236484D01*
X10408158Y-13236484D02*
X10351015Y-13236484D01*
X10351015Y-13236484D02*
X10331968Y-13226960D01*
X10331968Y-13226960D02*
X10322444Y-13217436D01*
X10617682Y-13036484D02*
X10579587Y-13036484D01*
X10579587Y-13036484D02*
X10560539Y-13046008D01*
X10560539Y-13046008D02*
X10551015Y-13055531D01*
X10551015Y-13055531D02*
X10531968Y-13084103D01*
X10531968Y-13084103D02*
X10522444Y-13122198D01*
X10522444Y-13122198D02*
X10522444Y-13198388D01*
X10522444Y-13198388D02*
X10531968Y-13217436D01*
X10531968Y-13217436D02*
X10541492Y-13226960D01*
X10541492Y-13226960D02*
X10560539Y-13236484D01*
X10560539Y-13236484D02*
X10598635Y-13236484D01*
X10598635Y-13236484D02*
X10617682Y-13226960D01*
X10617682Y-13226960D02*
X10627206Y-13217436D01*
X10627206Y-13217436D02*
X10636730Y-13198388D01*
X10636730Y-13198388D02*
X10636730Y-13150769D01*
X10636730Y-13150769D02*
X10627206Y-13131722D01*
X10627206Y-13131722D02*
X10617682Y-13122198D01*
X10617682Y-13122198D02*
X10598635Y-13112674D01*
X10598635Y-13112674D02*
X10560539Y-13112674D01*
X10560539Y-13112674D02*
X10541492Y-13122198D01*
X10541492Y-13122198D02*
X10531968Y-13131722D01*
X10531968Y-13131722D02*
X10522444Y-13150769D01*
X10865301Y-13226960D02*
X10884349Y-13236484D01*
X10884349Y-13236484D02*
X10922444Y-13236484D01*
X10922444Y-13236484D02*
X10941492Y-13226960D01*
X10941492Y-13226960D02*
X10951016Y-13207912D01*
X10951016Y-13207912D02*
X10951016Y-13198388D01*
X10951016Y-13198388D02*
X10941492Y-13179341D01*
X10941492Y-13179341D02*
X10922444Y-13169817D01*
X10922444Y-13169817D02*
X10893873Y-13169817D01*
X10893873Y-13169817D02*
X10874825Y-13160293D01*
X10874825Y-13160293D02*
X10865301Y-13141246D01*
X10865301Y-13141246D02*
X10865301Y-13131722D01*
X10865301Y-13131722D02*
X10874825Y-13112674D01*
X10874825Y-13112674D02*
X10893873Y-13103150D01*
X10893873Y-13103150D02*
X10922444Y-13103150D01*
X10922444Y-13103150D02*
X10941492Y-13112674D01*
X11065301Y-13236484D02*
X11046254Y-13226960D01*
X11046254Y-13226960D02*
X11036730Y-13207912D01*
X11036730Y-13207912D02*
X11036730Y-13036484D01*
X11170063Y-13236484D02*
X11151016Y-13226960D01*
X11151016Y-13226960D02*
X11141492Y-13217436D01*
X11141492Y-13217436D02*
X11131968Y-13198388D01*
X11131968Y-13198388D02*
X11131968Y-13141246D01*
X11131968Y-13141246D02*
X11141492Y-13122198D01*
X11141492Y-13122198D02*
X11151016Y-13112674D01*
X11151016Y-13112674D02*
X11170063Y-13103150D01*
X11170063Y-13103150D02*
X11198635Y-13103150D01*
X11198635Y-13103150D02*
X11217682Y-13112674D01*
X11217682Y-13112674D02*
X11227206Y-13122198D01*
X11227206Y-13122198D02*
X11236730Y-13141246D01*
X11236730Y-13141246D02*
X11236730Y-13198388D01*
X11236730Y-13198388D02*
X11227206Y-13217436D01*
X11227206Y-13217436D02*
X11217682Y-13226960D01*
X11217682Y-13226960D02*
X11198635Y-13236484D01*
X11198635Y-13236484D02*
X11170063Y-13236484D01*
X11293873Y-13103150D02*
X11370063Y-13103150D01*
X11322444Y-13036484D02*
X11322444Y-13207912D01*
X11322444Y-13207912D02*
X11331968Y-13226960D01*
X11331968Y-13226960D02*
X11351015Y-13236484D01*
X11351015Y-13236484D02*
X11370063Y-13236484D01*
X11427206Y-13226960D02*
X11446254Y-13236484D01*
X11446254Y-13236484D02*
X11484349Y-13236484D01*
X11484349Y-13236484D02*
X11503396Y-13226960D01*
X11503396Y-13226960D02*
X11512920Y-13207912D01*
X11512920Y-13207912D02*
X11512920Y-13198388D01*
X11512920Y-13198388D02*
X11503396Y-13179341D01*
X11503396Y-13179341D02*
X11484349Y-13169817D01*
X11484349Y-13169817D02*
X11455777Y-13169817D01*
X11455777Y-13169817D02*
X11436730Y-13160293D01*
X11436730Y-13160293D02*
X11427206Y-13141246D01*
X11427206Y-13141246D02*
X11427206Y-13131722D01*
X11427206Y-13131722D02*
X11436730Y-13112674D01*
X11436730Y-13112674D02*
X11455777Y-13103150D01*
X11455777Y-13103150D02*
X11484349Y-13103150D01*
X11484349Y-13103150D02*
X11503396Y-13112674D01*
X11579587Y-13312674D02*
X11589111Y-13303150D01*
X11589111Y-13303150D02*
X11608158Y-13274579D01*
X11608158Y-13274579D02*
X11617682Y-13255531D01*
X11617682Y-13255531D02*
X11627206Y-13226960D01*
X11627206Y-13226960D02*
X11636730Y-13179341D01*
X11636730Y-13179341D02*
X11636730Y-13141246D01*
X11636730Y-13141246D02*
X11627206Y-13093627D01*
X11627206Y-13093627D02*
X11617682Y-13065055D01*
X11617682Y-13065055D02*
X11608158Y-13046008D01*
X11608158Y-13046008D02*
X11589111Y-13017436D01*
X11589111Y-13017436D02*
X11579587Y-13007912D01*
D13*
X4995000Y-13409000D02*
G75*
G03*
X4995000Y-13409000I-30000J0D01*
G01*
D11*
X5293872Y-13300484D02*
X5312920Y-13300484D01*
X5312920Y-13300484D02*
X5331967Y-13310008D01*
X5331967Y-13310008D02*
X5341491Y-13319531D01*
X5341491Y-13319531D02*
X5351015Y-13338579D01*
X5351015Y-13338579D02*
X5360539Y-13376674D01*
X5360539Y-13376674D02*
X5360539Y-13424293D01*
X5360539Y-13424293D02*
X5351015Y-13462388D01*
X5351015Y-13462388D02*
X5341491Y-13481436D01*
X5341491Y-13481436D02*
X5331967Y-13490960D01*
X5331967Y-13490960D02*
X5312920Y-13500484D01*
X5312920Y-13500484D02*
X5293872Y-13500484D01*
X5293872Y-13500484D02*
X5274824Y-13490960D01*
X5274824Y-13490960D02*
X5265301Y-13481436D01*
X5265301Y-13481436D02*
X5255777Y-13462388D01*
X5255777Y-13462388D02*
X5246253Y-13424293D01*
X5246253Y-13424293D02*
X5246253Y-13376674D01*
X5246253Y-13376674D02*
X5255777Y-13338579D01*
X5255777Y-13338579D02*
X5265301Y-13319531D01*
X5265301Y-13319531D02*
X5274824Y-13310008D01*
X5274824Y-13310008D02*
X5293872Y-13300484D01*
X5446253Y-13481436D02*
X5455777Y-13490960D01*
X5455777Y-13490960D02*
X5446253Y-13500484D01*
X5446253Y-13500484D02*
X5436729Y-13490960D01*
X5436729Y-13490960D02*
X5446253Y-13481436D01*
X5446253Y-13481436D02*
X5446253Y-13500484D01*
X5627205Y-13300484D02*
X5589110Y-13300484D01*
X5589110Y-13300484D02*
X5570063Y-13310008D01*
X5570063Y-13310008D02*
X5560539Y-13319531D01*
X5560539Y-13319531D02*
X5541491Y-13348103D01*
X5541491Y-13348103D02*
X5531967Y-13386198D01*
X5531967Y-13386198D02*
X5531967Y-13462388D01*
X5531967Y-13462388D02*
X5541491Y-13481436D01*
X5541491Y-13481436D02*
X5551015Y-13490960D01*
X5551015Y-13490960D02*
X5570063Y-13500484D01*
X5570063Y-13500484D02*
X5608158Y-13500484D01*
X5608158Y-13500484D02*
X5627205Y-13490960D01*
X5627205Y-13490960D02*
X5636729Y-13481436D01*
X5636729Y-13481436D02*
X5646253Y-13462388D01*
X5646253Y-13462388D02*
X5646253Y-13414769D01*
X5646253Y-13414769D02*
X5636729Y-13395722D01*
X5636729Y-13395722D02*
X5627205Y-13386198D01*
X5627205Y-13386198D02*
X5608158Y-13376674D01*
X5608158Y-13376674D02*
X5570063Y-13376674D01*
X5570063Y-13376674D02*
X5551015Y-13386198D01*
X5551015Y-13386198D02*
X5541491Y-13395722D01*
X5541491Y-13395722D02*
X5531967Y-13414769D01*
X5770062Y-13300484D02*
X5789110Y-13300484D01*
X5789110Y-13300484D02*
X5808158Y-13310008D01*
X5808158Y-13310008D02*
X5817682Y-13319531D01*
X5817682Y-13319531D02*
X5827205Y-13338579D01*
X5827205Y-13338579D02*
X5836729Y-13376674D01*
X5836729Y-13376674D02*
X5836729Y-13424293D01*
X5836729Y-13424293D02*
X5827205Y-13462388D01*
X5827205Y-13462388D02*
X5817682Y-13481436D01*
X5817682Y-13481436D02*
X5808158Y-13490960D01*
X5808158Y-13490960D02*
X5789110Y-13500484D01*
X5789110Y-13500484D02*
X5770062Y-13500484D01*
X5770062Y-13500484D02*
X5751015Y-13490960D01*
X5751015Y-13490960D02*
X5741491Y-13481436D01*
X5741491Y-13481436D02*
X5731967Y-13462388D01*
X5731967Y-13462388D02*
X5722443Y-13424293D01*
X5722443Y-13424293D02*
X5722443Y-13376674D01*
X5722443Y-13376674D02*
X5731967Y-13338579D01*
X5731967Y-13338579D02*
X5741491Y-13319531D01*
X5741491Y-13319531D02*
X5751015Y-13310008D01*
X5751015Y-13310008D02*
X5770062Y-13300484D01*
X5960539Y-13300484D02*
X5979586Y-13300484D01*
X5979586Y-13300484D02*
X5998634Y-13310008D01*
X5998634Y-13310008D02*
X6008158Y-13319531D01*
X6008158Y-13319531D02*
X6017682Y-13338579D01*
X6017682Y-13338579D02*
X6027205Y-13376674D01*
X6027205Y-13376674D02*
X6027205Y-13424293D01*
X6027205Y-13424293D02*
X6017682Y-13462388D01*
X6017682Y-13462388D02*
X6008158Y-13481436D01*
X6008158Y-13481436D02*
X5998634Y-13490960D01*
X5998634Y-13490960D02*
X5979586Y-13500484D01*
X5979586Y-13500484D02*
X5960539Y-13500484D01*
X5960539Y-13500484D02*
X5941491Y-13490960D01*
X5941491Y-13490960D02*
X5931967Y-13481436D01*
X5931967Y-13481436D02*
X5922443Y-13462388D01*
X5922443Y-13462388D02*
X5912920Y-13424293D01*
X5912920Y-13424293D02*
X5912920Y-13376674D01*
X5912920Y-13376674D02*
X5922443Y-13338579D01*
X5922443Y-13338579D02*
X5931967Y-13319531D01*
X5931967Y-13319531D02*
X5941491Y-13310008D01*
X5941491Y-13310008D02*
X5960539Y-13300484D01*
X6112920Y-13500484D02*
X6112920Y-13367150D01*
X6112920Y-13386198D02*
X6122443Y-13376674D01*
X6122443Y-13376674D02*
X6141491Y-13367150D01*
X6141491Y-13367150D02*
X6170063Y-13367150D01*
X6170063Y-13367150D02*
X6189110Y-13376674D01*
X6189110Y-13376674D02*
X6198634Y-13395722D01*
X6198634Y-13395722D02*
X6198634Y-13500484D01*
X6198634Y-13395722D02*
X6208158Y-13376674D01*
X6208158Y-13376674D02*
X6227205Y-13367150D01*
X6227205Y-13367150D02*
X6255777Y-13367150D01*
X6255777Y-13367150D02*
X6274824Y-13376674D01*
X6274824Y-13376674D02*
X6284348Y-13395722D01*
X6284348Y-13395722D02*
X6284348Y-13500484D01*
X6379586Y-13500484D02*
X6379586Y-13367150D01*
X6379586Y-13386198D02*
X6389110Y-13376674D01*
X6389110Y-13376674D02*
X6408158Y-13367150D01*
X6408158Y-13367150D02*
X6436729Y-13367150D01*
X6436729Y-13367150D02*
X6455777Y-13376674D01*
X6455777Y-13376674D02*
X6465301Y-13395722D01*
X6465301Y-13395722D02*
X6465301Y-13500484D01*
X6465301Y-13395722D02*
X6474824Y-13376674D01*
X6474824Y-13376674D02*
X6493872Y-13367150D01*
X6493872Y-13367150D02*
X6522443Y-13367150D01*
X6522443Y-13367150D02*
X6541491Y-13376674D01*
X6541491Y-13376674D02*
X6551015Y-13395722D01*
X6551015Y-13395722D02*
X6551015Y-13500484D01*
X6941491Y-13290960D02*
X6770063Y-13548103D01*
X7198634Y-13300484D02*
X7217682Y-13300484D01*
X7217682Y-13300484D02*
X7236729Y-13310008D01*
X7236729Y-13310008D02*
X7246253Y-13319531D01*
X7246253Y-13319531D02*
X7255777Y-13338579D01*
X7255777Y-13338579D02*
X7265301Y-13376674D01*
X7265301Y-13376674D02*
X7265301Y-13424293D01*
X7265301Y-13424293D02*
X7255777Y-13462388D01*
X7255777Y-13462388D02*
X7246253Y-13481436D01*
X7246253Y-13481436D02*
X7236729Y-13490960D01*
X7236729Y-13490960D02*
X7217682Y-13500484D01*
X7217682Y-13500484D02*
X7198634Y-13500484D01*
X7198634Y-13500484D02*
X7179586Y-13490960D01*
X7179586Y-13490960D02*
X7170063Y-13481436D01*
X7170063Y-13481436D02*
X7160539Y-13462388D01*
X7160539Y-13462388D02*
X7151015Y-13424293D01*
X7151015Y-13424293D02*
X7151015Y-13376674D01*
X7151015Y-13376674D02*
X7160539Y-13338579D01*
X7160539Y-13338579D02*
X7170063Y-13319531D01*
X7170063Y-13319531D02*
X7179586Y-13310008D01*
X7179586Y-13310008D02*
X7198634Y-13300484D01*
X7351015Y-13481436D02*
X7360539Y-13490960D01*
X7360539Y-13490960D02*
X7351015Y-13500484D01*
X7351015Y-13500484D02*
X7341491Y-13490960D01*
X7341491Y-13490960D02*
X7351015Y-13481436D01*
X7351015Y-13481436D02*
X7351015Y-13500484D01*
X7484348Y-13300484D02*
X7503396Y-13300484D01*
X7503396Y-13300484D02*
X7522444Y-13310008D01*
X7522444Y-13310008D02*
X7531967Y-13319531D01*
X7531967Y-13319531D02*
X7541491Y-13338579D01*
X7541491Y-13338579D02*
X7551015Y-13376674D01*
X7551015Y-13376674D02*
X7551015Y-13424293D01*
X7551015Y-13424293D02*
X7541491Y-13462388D01*
X7541491Y-13462388D02*
X7531967Y-13481436D01*
X7531967Y-13481436D02*
X7522444Y-13490960D01*
X7522444Y-13490960D02*
X7503396Y-13500484D01*
X7503396Y-13500484D02*
X7484348Y-13500484D01*
X7484348Y-13500484D02*
X7465301Y-13490960D01*
X7465301Y-13490960D02*
X7455777Y-13481436D01*
X7455777Y-13481436D02*
X7446253Y-13462388D01*
X7446253Y-13462388D02*
X7436729Y-13424293D01*
X7436729Y-13424293D02*
X7436729Y-13376674D01*
X7436729Y-13376674D02*
X7446253Y-13338579D01*
X7446253Y-13338579D02*
X7455777Y-13319531D01*
X7455777Y-13319531D02*
X7465301Y-13310008D01*
X7465301Y-13310008D02*
X7484348Y-13300484D01*
X7627206Y-13319531D02*
X7636729Y-13310008D01*
X7636729Y-13310008D02*
X7655777Y-13300484D01*
X7655777Y-13300484D02*
X7703396Y-13300484D01*
X7703396Y-13300484D02*
X7722444Y-13310008D01*
X7722444Y-13310008D02*
X7731967Y-13319531D01*
X7731967Y-13319531D02*
X7741491Y-13338579D01*
X7741491Y-13338579D02*
X7741491Y-13357627D01*
X7741491Y-13357627D02*
X7731967Y-13386198D01*
X7731967Y-13386198D02*
X7617682Y-13500484D01*
X7617682Y-13500484D02*
X7741491Y-13500484D01*
X7808158Y-13300484D02*
X7931967Y-13300484D01*
X7931967Y-13300484D02*
X7865301Y-13376674D01*
X7865301Y-13376674D02*
X7893872Y-13376674D01*
X7893872Y-13376674D02*
X7912920Y-13386198D01*
X7912920Y-13386198D02*
X7922444Y-13395722D01*
X7922444Y-13395722D02*
X7931967Y-13414769D01*
X7931967Y-13414769D02*
X7931967Y-13462388D01*
X7931967Y-13462388D02*
X7922444Y-13481436D01*
X7922444Y-13481436D02*
X7912920Y-13490960D01*
X7912920Y-13490960D02*
X7893872Y-13500484D01*
X7893872Y-13500484D02*
X7836729Y-13500484D01*
X7836729Y-13500484D02*
X7817682Y-13490960D01*
X7817682Y-13490960D02*
X7808158Y-13481436D01*
X8103396Y-13300484D02*
X8065301Y-13300484D01*
X8065301Y-13300484D02*
X8046253Y-13310008D01*
X8046253Y-13310008D02*
X8036729Y-13319531D01*
X8036729Y-13319531D02*
X8017682Y-13348103D01*
X8017682Y-13348103D02*
X8008158Y-13386198D01*
X8008158Y-13386198D02*
X8008158Y-13462388D01*
X8008158Y-13462388D02*
X8017682Y-13481436D01*
X8017682Y-13481436D02*
X8027206Y-13490960D01*
X8027206Y-13490960D02*
X8046253Y-13500484D01*
X8046253Y-13500484D02*
X8084348Y-13500484D01*
X8084348Y-13500484D02*
X8103396Y-13490960D01*
X8103396Y-13490960D02*
X8112920Y-13481436D01*
X8112920Y-13481436D02*
X8122444Y-13462388D01*
X8122444Y-13462388D02*
X8122444Y-13414769D01*
X8122444Y-13414769D02*
X8112920Y-13395722D01*
X8112920Y-13395722D02*
X8103396Y-13386198D01*
X8103396Y-13386198D02*
X8084348Y-13376674D01*
X8084348Y-13376674D02*
X8046253Y-13376674D01*
X8046253Y-13376674D02*
X8027206Y-13386198D01*
X8027206Y-13386198D02*
X8017682Y-13395722D01*
X8017682Y-13395722D02*
X8008158Y-13414769D01*
X8198634Y-13300484D02*
X8198634Y-13338579D01*
X8274825Y-13300484D02*
X8274825Y-13338579D01*
X8570063Y-13576674D02*
X8560539Y-13567150D01*
X8560539Y-13567150D02*
X8541491Y-13538579D01*
X8541491Y-13538579D02*
X8531968Y-13519531D01*
X8531968Y-13519531D02*
X8522444Y-13490960D01*
X8522444Y-13490960D02*
X8512920Y-13443341D01*
X8512920Y-13443341D02*
X8512920Y-13405246D01*
X8512920Y-13405246D02*
X8522444Y-13357627D01*
X8522444Y-13357627D02*
X8531968Y-13329055D01*
X8531968Y-13329055D02*
X8541491Y-13310008D01*
X8541491Y-13310008D02*
X8560539Y-13281436D01*
X8560539Y-13281436D02*
X8570063Y-13271912D01*
X8636730Y-13319531D02*
X8646253Y-13310008D01*
X8646253Y-13310008D02*
X8665301Y-13300484D01*
X8665301Y-13300484D02*
X8712920Y-13300484D01*
X8712920Y-13300484D02*
X8731968Y-13310008D01*
X8731968Y-13310008D02*
X8741491Y-13319531D01*
X8741491Y-13319531D02*
X8751015Y-13338579D01*
X8751015Y-13338579D02*
X8751015Y-13357627D01*
X8751015Y-13357627D02*
X8741491Y-13386198D01*
X8741491Y-13386198D02*
X8627206Y-13500484D01*
X8627206Y-13500484D02*
X8751015Y-13500484D01*
X8989111Y-13500484D02*
X8989111Y-13300484D01*
X9074825Y-13500484D02*
X9074825Y-13395722D01*
X9074825Y-13395722D02*
X9065301Y-13376674D01*
X9065301Y-13376674D02*
X9046253Y-13367150D01*
X9046253Y-13367150D02*
X9017682Y-13367150D01*
X9017682Y-13367150D02*
X8998634Y-13376674D01*
X8998634Y-13376674D02*
X8989111Y-13386198D01*
X9198634Y-13500484D02*
X9179587Y-13490960D01*
X9179587Y-13490960D02*
X9170063Y-13481436D01*
X9170063Y-13481436D02*
X9160539Y-13462388D01*
X9160539Y-13462388D02*
X9160539Y-13405246D01*
X9160539Y-13405246D02*
X9170063Y-13386198D01*
X9170063Y-13386198D02*
X9179587Y-13376674D01*
X9179587Y-13376674D02*
X9198634Y-13367150D01*
X9198634Y-13367150D02*
X9227206Y-13367150D01*
X9227206Y-13367150D02*
X9246253Y-13376674D01*
X9246253Y-13376674D02*
X9255777Y-13386198D01*
X9255777Y-13386198D02*
X9265301Y-13405246D01*
X9265301Y-13405246D02*
X9265301Y-13462388D01*
X9265301Y-13462388D02*
X9255777Y-13481436D01*
X9255777Y-13481436D02*
X9246253Y-13490960D01*
X9246253Y-13490960D02*
X9227206Y-13500484D01*
X9227206Y-13500484D02*
X9198634Y-13500484D01*
X9379587Y-13500484D02*
X9360539Y-13490960D01*
X9360539Y-13490960D02*
X9351015Y-13471912D01*
X9351015Y-13471912D02*
X9351015Y-13300484D01*
X9531968Y-13490960D02*
X9512920Y-13500484D01*
X9512920Y-13500484D02*
X9474825Y-13500484D01*
X9474825Y-13500484D02*
X9455777Y-13490960D01*
X9455777Y-13490960D02*
X9446253Y-13471912D01*
X9446253Y-13471912D02*
X9446253Y-13395722D01*
X9446253Y-13395722D02*
X9455777Y-13376674D01*
X9455777Y-13376674D02*
X9474825Y-13367150D01*
X9474825Y-13367150D02*
X9512920Y-13367150D01*
X9512920Y-13367150D02*
X9531968Y-13376674D01*
X9531968Y-13376674D02*
X9541492Y-13395722D01*
X9541492Y-13395722D02*
X9541492Y-13414769D01*
X9541492Y-13414769D02*
X9446253Y-13433817D01*
X9617682Y-13490960D02*
X9636730Y-13500484D01*
X9636730Y-13500484D02*
X9674825Y-13500484D01*
X9674825Y-13500484D02*
X9693873Y-13490960D01*
X9693873Y-13490960D02*
X9703396Y-13471912D01*
X9703396Y-13471912D02*
X9703396Y-13462388D01*
X9703396Y-13462388D02*
X9693873Y-13443341D01*
X9693873Y-13443341D02*
X9674825Y-13433817D01*
X9674825Y-13433817D02*
X9646253Y-13433817D01*
X9646253Y-13433817D02*
X9627206Y-13424293D01*
X9627206Y-13424293D02*
X9617682Y-13405246D01*
X9617682Y-13405246D02*
X9617682Y-13395722D01*
X9617682Y-13395722D02*
X9627206Y-13376674D01*
X9627206Y-13376674D02*
X9646253Y-13367150D01*
X9646253Y-13367150D02*
X9674825Y-13367150D01*
X9674825Y-13367150D02*
X9693873Y-13376674D01*
X9770063Y-13576674D02*
X9779587Y-13567150D01*
X9779587Y-13567150D02*
X9798634Y-13538579D01*
X9798634Y-13538579D02*
X9808158Y-13519531D01*
X9808158Y-13519531D02*
X9817682Y-13490960D01*
X9817682Y-13490960D02*
X9827206Y-13443341D01*
X9827206Y-13443341D02*
X9827206Y-13405246D01*
X9827206Y-13405246D02*
X9817682Y-13357627D01*
X9817682Y-13357627D02*
X9808158Y-13329055D01*
X9808158Y-13329055D02*
X9798634Y-13310008D01*
X9798634Y-13310008D02*
X9779587Y-13281436D01*
X9779587Y-13281436D02*
X9770063Y-13271912D01*
D14*
X4955000Y-13633000D02*
X4955000Y-13713000D01*
X4915000Y-13673000D02*
X4995000Y-13673000D01*
D11*
X5293872Y-13564484D02*
X5312920Y-13564484D01*
X5312920Y-13564484D02*
X5331967Y-13574008D01*
X5331967Y-13574008D02*
X5341491Y-13583531D01*
X5341491Y-13583531D02*
X5351015Y-13602579D01*
X5351015Y-13602579D02*
X5360539Y-13640674D01*
X5360539Y-13640674D02*
X5360539Y-13688293D01*
X5360539Y-13688293D02*
X5351015Y-13726388D01*
X5351015Y-13726388D02*
X5341491Y-13745436D01*
X5341491Y-13745436D02*
X5331967Y-13754960D01*
X5331967Y-13754960D02*
X5312920Y-13764484D01*
X5312920Y-13764484D02*
X5293872Y-13764484D01*
X5293872Y-13764484D02*
X5274824Y-13754960D01*
X5274824Y-13754960D02*
X5265301Y-13745436D01*
X5265301Y-13745436D02*
X5255777Y-13726388D01*
X5255777Y-13726388D02*
X5246253Y-13688293D01*
X5246253Y-13688293D02*
X5246253Y-13640674D01*
X5246253Y-13640674D02*
X5255777Y-13602579D01*
X5255777Y-13602579D02*
X5265301Y-13583531D01*
X5265301Y-13583531D02*
X5274824Y-13574008D01*
X5274824Y-13574008D02*
X5293872Y-13564484D01*
X5446253Y-13745436D02*
X5455777Y-13754960D01*
X5455777Y-13754960D02*
X5446253Y-13764484D01*
X5446253Y-13764484D02*
X5436729Y-13754960D01*
X5436729Y-13754960D02*
X5446253Y-13745436D01*
X5446253Y-13745436D02*
X5446253Y-13764484D01*
X5570063Y-13650198D02*
X5551015Y-13640674D01*
X5551015Y-13640674D02*
X5541491Y-13631150D01*
X5541491Y-13631150D02*
X5531967Y-13612103D01*
X5531967Y-13612103D02*
X5531967Y-13602579D01*
X5531967Y-13602579D02*
X5541491Y-13583531D01*
X5541491Y-13583531D02*
X5551015Y-13574008D01*
X5551015Y-13574008D02*
X5570063Y-13564484D01*
X5570063Y-13564484D02*
X5608158Y-13564484D01*
X5608158Y-13564484D02*
X5627205Y-13574008D01*
X5627205Y-13574008D02*
X5636729Y-13583531D01*
X5636729Y-13583531D02*
X5646253Y-13602579D01*
X5646253Y-13602579D02*
X5646253Y-13612103D01*
X5646253Y-13612103D02*
X5636729Y-13631150D01*
X5636729Y-13631150D02*
X5627205Y-13640674D01*
X5627205Y-13640674D02*
X5608158Y-13650198D01*
X5608158Y-13650198D02*
X5570063Y-13650198D01*
X5570063Y-13650198D02*
X5551015Y-13659722D01*
X5551015Y-13659722D02*
X5541491Y-13669246D01*
X5541491Y-13669246D02*
X5531967Y-13688293D01*
X5531967Y-13688293D02*
X5531967Y-13726388D01*
X5531967Y-13726388D02*
X5541491Y-13745436D01*
X5541491Y-13745436D02*
X5551015Y-13754960D01*
X5551015Y-13754960D02*
X5570063Y-13764484D01*
X5570063Y-13764484D02*
X5608158Y-13764484D01*
X5608158Y-13764484D02*
X5627205Y-13754960D01*
X5627205Y-13754960D02*
X5636729Y-13745436D01*
X5636729Y-13745436D02*
X5646253Y-13726388D01*
X5646253Y-13726388D02*
X5646253Y-13688293D01*
X5646253Y-13688293D02*
X5636729Y-13669246D01*
X5636729Y-13669246D02*
X5627205Y-13659722D01*
X5627205Y-13659722D02*
X5608158Y-13650198D01*
X5770062Y-13564484D02*
X5789110Y-13564484D01*
X5789110Y-13564484D02*
X5808158Y-13574008D01*
X5808158Y-13574008D02*
X5817682Y-13583531D01*
X5817682Y-13583531D02*
X5827205Y-13602579D01*
X5827205Y-13602579D02*
X5836729Y-13640674D01*
X5836729Y-13640674D02*
X5836729Y-13688293D01*
X5836729Y-13688293D02*
X5827205Y-13726388D01*
X5827205Y-13726388D02*
X5817682Y-13745436D01*
X5817682Y-13745436D02*
X5808158Y-13754960D01*
X5808158Y-13754960D02*
X5789110Y-13764484D01*
X5789110Y-13764484D02*
X5770062Y-13764484D01*
X5770062Y-13764484D02*
X5751015Y-13754960D01*
X5751015Y-13754960D02*
X5741491Y-13745436D01*
X5741491Y-13745436D02*
X5731967Y-13726388D01*
X5731967Y-13726388D02*
X5722443Y-13688293D01*
X5722443Y-13688293D02*
X5722443Y-13640674D01*
X5722443Y-13640674D02*
X5731967Y-13602579D01*
X5731967Y-13602579D02*
X5741491Y-13583531D01*
X5741491Y-13583531D02*
X5751015Y-13574008D01*
X5751015Y-13574008D02*
X5770062Y-13564484D01*
X5960539Y-13564484D02*
X5979586Y-13564484D01*
X5979586Y-13564484D02*
X5998634Y-13574008D01*
X5998634Y-13574008D02*
X6008158Y-13583531D01*
X6008158Y-13583531D02*
X6017682Y-13602579D01*
X6017682Y-13602579D02*
X6027205Y-13640674D01*
X6027205Y-13640674D02*
X6027205Y-13688293D01*
X6027205Y-13688293D02*
X6017682Y-13726388D01*
X6017682Y-13726388D02*
X6008158Y-13745436D01*
X6008158Y-13745436D02*
X5998634Y-13754960D01*
X5998634Y-13754960D02*
X5979586Y-13764484D01*
X5979586Y-13764484D02*
X5960539Y-13764484D01*
X5960539Y-13764484D02*
X5941491Y-13754960D01*
X5941491Y-13754960D02*
X5931967Y-13745436D01*
X5931967Y-13745436D02*
X5922443Y-13726388D01*
X5922443Y-13726388D02*
X5912920Y-13688293D01*
X5912920Y-13688293D02*
X5912920Y-13640674D01*
X5912920Y-13640674D02*
X5922443Y-13602579D01*
X5922443Y-13602579D02*
X5931967Y-13583531D01*
X5931967Y-13583531D02*
X5941491Y-13574008D01*
X5941491Y-13574008D02*
X5960539Y-13564484D01*
X6112920Y-13764484D02*
X6112920Y-13631150D01*
X6112920Y-13650198D02*
X6122443Y-13640674D01*
X6122443Y-13640674D02*
X6141491Y-13631150D01*
X6141491Y-13631150D02*
X6170063Y-13631150D01*
X6170063Y-13631150D02*
X6189110Y-13640674D01*
X6189110Y-13640674D02*
X6198634Y-13659722D01*
X6198634Y-13659722D02*
X6198634Y-13764484D01*
X6198634Y-13659722D02*
X6208158Y-13640674D01*
X6208158Y-13640674D02*
X6227205Y-13631150D01*
X6227205Y-13631150D02*
X6255777Y-13631150D01*
X6255777Y-13631150D02*
X6274824Y-13640674D01*
X6274824Y-13640674D02*
X6284348Y-13659722D01*
X6284348Y-13659722D02*
X6284348Y-13764484D01*
X6379586Y-13764484D02*
X6379586Y-13631150D01*
X6379586Y-13650198D02*
X6389110Y-13640674D01*
X6389110Y-13640674D02*
X6408158Y-13631150D01*
X6408158Y-13631150D02*
X6436729Y-13631150D01*
X6436729Y-13631150D02*
X6455777Y-13640674D01*
X6455777Y-13640674D02*
X6465301Y-13659722D01*
X6465301Y-13659722D02*
X6465301Y-13764484D01*
X6465301Y-13659722D02*
X6474824Y-13640674D01*
X6474824Y-13640674D02*
X6493872Y-13631150D01*
X6493872Y-13631150D02*
X6522443Y-13631150D01*
X6522443Y-13631150D02*
X6541491Y-13640674D01*
X6541491Y-13640674D02*
X6551015Y-13659722D01*
X6551015Y-13659722D02*
X6551015Y-13764484D01*
X6941491Y-13554960D02*
X6770063Y-13812103D01*
X7198634Y-13564484D02*
X7217682Y-13564484D01*
X7217682Y-13564484D02*
X7236729Y-13574008D01*
X7236729Y-13574008D02*
X7246253Y-13583531D01*
X7246253Y-13583531D02*
X7255777Y-13602579D01*
X7255777Y-13602579D02*
X7265301Y-13640674D01*
X7265301Y-13640674D02*
X7265301Y-13688293D01*
X7265301Y-13688293D02*
X7255777Y-13726388D01*
X7255777Y-13726388D02*
X7246253Y-13745436D01*
X7246253Y-13745436D02*
X7236729Y-13754960D01*
X7236729Y-13754960D02*
X7217682Y-13764484D01*
X7217682Y-13764484D02*
X7198634Y-13764484D01*
X7198634Y-13764484D02*
X7179586Y-13754960D01*
X7179586Y-13754960D02*
X7170063Y-13745436D01*
X7170063Y-13745436D02*
X7160539Y-13726388D01*
X7160539Y-13726388D02*
X7151015Y-13688293D01*
X7151015Y-13688293D02*
X7151015Y-13640674D01*
X7151015Y-13640674D02*
X7160539Y-13602579D01*
X7160539Y-13602579D02*
X7170063Y-13583531D01*
X7170063Y-13583531D02*
X7179586Y-13574008D01*
X7179586Y-13574008D02*
X7198634Y-13564484D01*
X7351015Y-13745436D02*
X7360539Y-13754960D01*
X7360539Y-13754960D02*
X7351015Y-13764484D01*
X7351015Y-13764484D02*
X7341491Y-13754960D01*
X7341491Y-13754960D02*
X7351015Y-13745436D01*
X7351015Y-13745436D02*
X7351015Y-13764484D01*
X7484348Y-13564484D02*
X7503396Y-13564484D01*
X7503396Y-13564484D02*
X7522444Y-13574008D01*
X7522444Y-13574008D02*
X7531967Y-13583531D01*
X7531967Y-13583531D02*
X7541491Y-13602579D01*
X7541491Y-13602579D02*
X7551015Y-13640674D01*
X7551015Y-13640674D02*
X7551015Y-13688293D01*
X7551015Y-13688293D02*
X7541491Y-13726388D01*
X7541491Y-13726388D02*
X7531967Y-13745436D01*
X7531967Y-13745436D02*
X7522444Y-13754960D01*
X7522444Y-13754960D02*
X7503396Y-13764484D01*
X7503396Y-13764484D02*
X7484348Y-13764484D01*
X7484348Y-13764484D02*
X7465301Y-13754960D01*
X7465301Y-13754960D02*
X7455777Y-13745436D01*
X7455777Y-13745436D02*
X7446253Y-13726388D01*
X7446253Y-13726388D02*
X7436729Y-13688293D01*
X7436729Y-13688293D02*
X7436729Y-13640674D01*
X7436729Y-13640674D02*
X7446253Y-13602579D01*
X7446253Y-13602579D02*
X7455777Y-13583531D01*
X7455777Y-13583531D02*
X7465301Y-13574008D01*
X7465301Y-13574008D02*
X7484348Y-13564484D01*
X7617682Y-13564484D02*
X7741491Y-13564484D01*
X7741491Y-13564484D02*
X7674825Y-13640674D01*
X7674825Y-13640674D02*
X7703396Y-13640674D01*
X7703396Y-13640674D02*
X7722444Y-13650198D01*
X7722444Y-13650198D02*
X7731967Y-13659722D01*
X7731967Y-13659722D02*
X7741491Y-13678769D01*
X7741491Y-13678769D02*
X7741491Y-13726388D01*
X7741491Y-13726388D02*
X7731967Y-13745436D01*
X7731967Y-13745436D02*
X7722444Y-13754960D01*
X7722444Y-13754960D02*
X7703396Y-13764484D01*
X7703396Y-13764484D02*
X7646253Y-13764484D01*
X7646253Y-13764484D02*
X7627206Y-13754960D01*
X7627206Y-13754960D02*
X7617682Y-13745436D01*
X7931967Y-13764484D02*
X7817682Y-13764484D01*
X7874825Y-13764484D02*
X7874825Y-13564484D01*
X7874825Y-13564484D02*
X7855777Y-13593055D01*
X7855777Y-13593055D02*
X7836729Y-13612103D01*
X7836729Y-13612103D02*
X7817682Y-13621627D01*
X8112920Y-13564484D02*
X8017682Y-13564484D01*
X8017682Y-13564484D02*
X8008158Y-13659722D01*
X8008158Y-13659722D02*
X8017682Y-13650198D01*
X8017682Y-13650198D02*
X8036729Y-13640674D01*
X8036729Y-13640674D02*
X8084348Y-13640674D01*
X8084348Y-13640674D02*
X8103396Y-13650198D01*
X8103396Y-13650198D02*
X8112920Y-13659722D01*
X8112920Y-13659722D02*
X8122444Y-13678769D01*
X8122444Y-13678769D02*
X8122444Y-13726388D01*
X8122444Y-13726388D02*
X8112920Y-13745436D01*
X8112920Y-13745436D02*
X8103396Y-13754960D01*
X8103396Y-13754960D02*
X8084348Y-13764484D01*
X8084348Y-13764484D02*
X8036729Y-13764484D01*
X8036729Y-13764484D02*
X8017682Y-13754960D01*
X8017682Y-13754960D02*
X8008158Y-13745436D01*
X8198634Y-13564484D02*
X8198634Y-13602579D01*
X8274825Y-13564484D02*
X8274825Y-13602579D01*
X8570063Y-13840674D02*
X8560539Y-13831150D01*
X8560539Y-13831150D02*
X8541491Y-13802579D01*
X8541491Y-13802579D02*
X8531968Y-13783531D01*
X8531968Y-13783531D02*
X8522444Y-13754960D01*
X8522444Y-13754960D02*
X8512920Y-13707341D01*
X8512920Y-13707341D02*
X8512920Y-13669246D01*
X8512920Y-13669246D02*
X8522444Y-13621627D01*
X8522444Y-13621627D02*
X8531968Y-13593055D01*
X8531968Y-13593055D02*
X8541491Y-13574008D01*
X8541491Y-13574008D02*
X8560539Y-13545436D01*
X8560539Y-13545436D02*
X8570063Y-13535912D01*
X8751015Y-13764484D02*
X8636730Y-13764484D01*
X8693872Y-13764484D02*
X8693872Y-13564484D01*
X8693872Y-13564484D02*
X8674825Y-13593055D01*
X8674825Y-13593055D02*
X8655777Y-13612103D01*
X8655777Y-13612103D02*
X8636730Y-13621627D01*
X8874825Y-13564484D02*
X8893872Y-13564484D01*
X8893872Y-13564484D02*
X8912920Y-13574008D01*
X8912920Y-13574008D02*
X8922444Y-13583531D01*
X8922444Y-13583531D02*
X8931968Y-13602579D01*
X8931968Y-13602579D02*
X8941491Y-13640674D01*
X8941491Y-13640674D02*
X8941491Y-13688293D01*
X8941491Y-13688293D02*
X8931968Y-13726388D01*
X8931968Y-13726388D02*
X8922444Y-13745436D01*
X8922444Y-13745436D02*
X8912920Y-13754960D01*
X8912920Y-13754960D02*
X8893872Y-13764484D01*
X8893872Y-13764484D02*
X8874825Y-13764484D01*
X8874825Y-13764484D02*
X8855777Y-13754960D01*
X8855777Y-13754960D02*
X8846253Y-13745436D01*
X8846253Y-13745436D02*
X8836730Y-13726388D01*
X8836730Y-13726388D02*
X8827206Y-13688293D01*
X8827206Y-13688293D02*
X8827206Y-13640674D01*
X8827206Y-13640674D02*
X8836730Y-13602579D01*
X8836730Y-13602579D02*
X8846253Y-13583531D01*
X8846253Y-13583531D02*
X8855777Y-13574008D01*
X8855777Y-13574008D02*
X8874825Y-13564484D01*
X9055777Y-13650198D02*
X9036730Y-13640674D01*
X9036730Y-13640674D02*
X9027206Y-13631150D01*
X9027206Y-13631150D02*
X9017682Y-13612103D01*
X9017682Y-13612103D02*
X9017682Y-13602579D01*
X9017682Y-13602579D02*
X9027206Y-13583531D01*
X9027206Y-13583531D02*
X9036730Y-13574008D01*
X9036730Y-13574008D02*
X9055777Y-13564484D01*
X9055777Y-13564484D02*
X9093872Y-13564484D01*
X9093872Y-13564484D02*
X9112920Y-13574008D01*
X9112920Y-13574008D02*
X9122444Y-13583531D01*
X9122444Y-13583531D02*
X9131968Y-13602579D01*
X9131968Y-13602579D02*
X9131968Y-13612103D01*
X9131968Y-13612103D02*
X9122444Y-13631150D01*
X9122444Y-13631150D02*
X9112920Y-13640674D01*
X9112920Y-13640674D02*
X9093872Y-13650198D01*
X9093872Y-13650198D02*
X9055777Y-13650198D01*
X9055777Y-13650198D02*
X9036730Y-13659722D01*
X9036730Y-13659722D02*
X9027206Y-13669246D01*
X9027206Y-13669246D02*
X9017682Y-13688293D01*
X9017682Y-13688293D02*
X9017682Y-13726388D01*
X9017682Y-13726388D02*
X9027206Y-13745436D01*
X9027206Y-13745436D02*
X9036730Y-13754960D01*
X9036730Y-13754960D02*
X9055777Y-13764484D01*
X9055777Y-13764484D02*
X9093872Y-13764484D01*
X9093872Y-13764484D02*
X9112920Y-13754960D01*
X9112920Y-13754960D02*
X9122444Y-13745436D01*
X9122444Y-13745436D02*
X9131968Y-13726388D01*
X9131968Y-13726388D02*
X9131968Y-13688293D01*
X9131968Y-13688293D02*
X9122444Y-13669246D01*
X9122444Y-13669246D02*
X9112920Y-13659722D01*
X9112920Y-13659722D02*
X9093872Y-13650198D01*
X9370063Y-13764484D02*
X9370063Y-13564484D01*
X9455777Y-13764484D02*
X9455777Y-13659722D01*
X9455777Y-13659722D02*
X9446253Y-13640674D01*
X9446253Y-13640674D02*
X9427206Y-13631150D01*
X9427206Y-13631150D02*
X9398634Y-13631150D01*
X9398634Y-13631150D02*
X9379587Y-13640674D01*
X9379587Y-13640674D02*
X9370063Y-13650198D01*
X9579587Y-13764484D02*
X9560539Y-13754960D01*
X9560539Y-13754960D02*
X9551015Y-13745436D01*
X9551015Y-13745436D02*
X9541492Y-13726388D01*
X9541492Y-13726388D02*
X9541492Y-13669246D01*
X9541492Y-13669246D02*
X9551015Y-13650198D01*
X9551015Y-13650198D02*
X9560539Y-13640674D01*
X9560539Y-13640674D02*
X9579587Y-13631150D01*
X9579587Y-13631150D02*
X9608158Y-13631150D01*
X9608158Y-13631150D02*
X9627206Y-13640674D01*
X9627206Y-13640674D02*
X9636730Y-13650198D01*
X9636730Y-13650198D02*
X9646253Y-13669246D01*
X9646253Y-13669246D02*
X9646253Y-13726388D01*
X9646253Y-13726388D02*
X9636730Y-13745436D01*
X9636730Y-13745436D02*
X9627206Y-13754960D01*
X9627206Y-13754960D02*
X9608158Y-13764484D01*
X9608158Y-13764484D02*
X9579587Y-13764484D01*
X9760539Y-13764484D02*
X9741492Y-13754960D01*
X9741492Y-13754960D02*
X9731968Y-13735912D01*
X9731968Y-13735912D02*
X9731968Y-13564484D01*
X9912920Y-13754960D02*
X9893873Y-13764484D01*
X9893873Y-13764484D02*
X9855777Y-13764484D01*
X9855777Y-13764484D02*
X9836730Y-13754960D01*
X9836730Y-13754960D02*
X9827206Y-13735912D01*
X9827206Y-13735912D02*
X9827206Y-13659722D01*
X9827206Y-13659722D02*
X9836730Y-13640674D01*
X9836730Y-13640674D02*
X9855777Y-13631150D01*
X9855777Y-13631150D02*
X9893873Y-13631150D01*
X9893873Y-13631150D02*
X9912920Y-13640674D01*
X9912920Y-13640674D02*
X9922444Y-13659722D01*
X9922444Y-13659722D02*
X9922444Y-13678769D01*
X9922444Y-13678769D02*
X9827206Y-13697817D01*
X9998634Y-13754960D02*
X10017682Y-13764484D01*
X10017682Y-13764484D02*
X10055777Y-13764484D01*
X10055777Y-13764484D02*
X10074825Y-13754960D01*
X10074825Y-13754960D02*
X10084349Y-13735912D01*
X10084349Y-13735912D02*
X10084349Y-13726388D01*
X10084349Y-13726388D02*
X10074825Y-13707341D01*
X10074825Y-13707341D02*
X10055777Y-13697817D01*
X10055777Y-13697817D02*
X10027206Y-13697817D01*
X10027206Y-13697817D02*
X10008158Y-13688293D01*
X10008158Y-13688293D02*
X9998634Y-13669246D01*
X9998634Y-13669246D02*
X9998634Y-13659722D01*
X9998634Y-13659722D02*
X10008158Y-13640674D01*
X10008158Y-13640674D02*
X10027206Y-13631150D01*
X10027206Y-13631150D02*
X10055777Y-13631150D01*
X10055777Y-13631150D02*
X10074825Y-13640674D01*
X10151015Y-13840674D02*
X10160539Y-13831150D01*
X10160539Y-13831150D02*
X10179587Y-13802579D01*
X10179587Y-13802579D02*
X10189111Y-13783531D01*
X10189111Y-13783531D02*
X10198634Y-13754960D01*
X10198634Y-13754960D02*
X10208158Y-13707341D01*
X10208158Y-13707341D02*
X10208158Y-13669246D01*
X10208158Y-13669246D02*
X10198634Y-13621627D01*
X10198634Y-13621627D02*
X10189111Y-13593055D01*
X10189111Y-13593055D02*
X10179587Y-13574008D01*
X10179587Y-13574008D02*
X10160539Y-13545436D01*
X10160539Y-13545436D02*
X10151015Y-13535912D01*
D15*
X4981820Y-13968820D02*
X4981820Y-13905180D01*
X4918180Y-13905180D01*
X4918180Y-13968820D01*
X4981820Y-13968820D01*
D11*
X5293872Y-13828484D02*
X5312920Y-13828484D01*
X5312920Y-13828484D02*
X5331967Y-13838008D01*
X5331967Y-13838008D02*
X5341491Y-13847531D01*
X5341491Y-13847531D02*
X5351015Y-13866579D01*
X5351015Y-13866579D02*
X5360539Y-13904674D01*
X5360539Y-13904674D02*
X5360539Y-13952293D01*
X5360539Y-13952293D02*
X5351015Y-13990388D01*
X5351015Y-13990388D02*
X5341491Y-14009436D01*
X5341491Y-14009436D02*
X5331967Y-14018960D01*
X5331967Y-14018960D02*
X5312920Y-14028484D01*
X5312920Y-14028484D02*
X5293872Y-14028484D01*
X5293872Y-14028484D02*
X5274824Y-14018960D01*
X5274824Y-14018960D02*
X5265301Y-14009436D01*
X5265301Y-14009436D02*
X5255777Y-13990388D01*
X5255777Y-13990388D02*
X5246253Y-13952293D01*
X5246253Y-13952293D02*
X5246253Y-13904674D01*
X5246253Y-13904674D02*
X5255777Y-13866579D01*
X5255777Y-13866579D02*
X5265301Y-13847531D01*
X5265301Y-13847531D02*
X5274824Y-13838008D01*
X5274824Y-13838008D02*
X5293872Y-13828484D01*
X5446253Y-14009436D02*
X5455777Y-14018960D01*
X5455777Y-14018960D02*
X5446253Y-14028484D01*
X5446253Y-14028484D02*
X5436729Y-14018960D01*
X5436729Y-14018960D02*
X5446253Y-14009436D01*
X5446253Y-14009436D02*
X5446253Y-14028484D01*
X5551015Y-14028484D02*
X5589110Y-14028484D01*
X5589110Y-14028484D02*
X5608158Y-14018960D01*
X5608158Y-14018960D02*
X5617682Y-14009436D01*
X5617682Y-14009436D02*
X5636729Y-13980865D01*
X5636729Y-13980865D02*
X5646253Y-13942769D01*
X5646253Y-13942769D02*
X5646253Y-13866579D01*
X5646253Y-13866579D02*
X5636729Y-13847531D01*
X5636729Y-13847531D02*
X5627205Y-13838008D01*
X5627205Y-13838008D02*
X5608158Y-13828484D01*
X5608158Y-13828484D02*
X5570063Y-13828484D01*
X5570063Y-13828484D02*
X5551015Y-13838008D01*
X5551015Y-13838008D02*
X5541491Y-13847531D01*
X5541491Y-13847531D02*
X5531967Y-13866579D01*
X5531967Y-13866579D02*
X5531967Y-13914198D01*
X5531967Y-13914198D02*
X5541491Y-13933246D01*
X5541491Y-13933246D02*
X5551015Y-13942769D01*
X5551015Y-13942769D02*
X5570063Y-13952293D01*
X5570063Y-13952293D02*
X5608158Y-13952293D01*
X5608158Y-13952293D02*
X5627205Y-13942769D01*
X5627205Y-13942769D02*
X5636729Y-13933246D01*
X5636729Y-13933246D02*
X5646253Y-13914198D01*
X5770062Y-13828484D02*
X5789110Y-13828484D01*
X5789110Y-13828484D02*
X5808158Y-13838008D01*
X5808158Y-13838008D02*
X5817682Y-13847531D01*
X5817682Y-13847531D02*
X5827205Y-13866579D01*
X5827205Y-13866579D02*
X5836729Y-13904674D01*
X5836729Y-13904674D02*
X5836729Y-13952293D01*
X5836729Y-13952293D02*
X5827205Y-13990388D01*
X5827205Y-13990388D02*
X5817682Y-14009436D01*
X5817682Y-14009436D02*
X5808158Y-14018960D01*
X5808158Y-14018960D02*
X5789110Y-14028484D01*
X5789110Y-14028484D02*
X5770062Y-14028484D01*
X5770062Y-14028484D02*
X5751015Y-14018960D01*
X5751015Y-14018960D02*
X5741491Y-14009436D01*
X5741491Y-14009436D02*
X5731967Y-13990388D01*
X5731967Y-13990388D02*
X5722443Y-13952293D01*
X5722443Y-13952293D02*
X5722443Y-13904674D01*
X5722443Y-13904674D02*
X5731967Y-13866579D01*
X5731967Y-13866579D02*
X5741491Y-13847531D01*
X5741491Y-13847531D02*
X5751015Y-13838008D01*
X5751015Y-13838008D02*
X5770062Y-13828484D01*
X5960539Y-13828484D02*
X5979586Y-13828484D01*
X5979586Y-13828484D02*
X5998634Y-13838008D01*
X5998634Y-13838008D02*
X6008158Y-13847531D01*
X6008158Y-13847531D02*
X6017682Y-13866579D01*
X6017682Y-13866579D02*
X6027205Y-13904674D01*
X6027205Y-13904674D02*
X6027205Y-13952293D01*
X6027205Y-13952293D02*
X6017682Y-13990388D01*
X6017682Y-13990388D02*
X6008158Y-14009436D01*
X6008158Y-14009436D02*
X5998634Y-14018960D01*
X5998634Y-14018960D02*
X5979586Y-14028484D01*
X5979586Y-14028484D02*
X5960539Y-14028484D01*
X5960539Y-14028484D02*
X5941491Y-14018960D01*
X5941491Y-14018960D02*
X5931967Y-14009436D01*
X5931967Y-14009436D02*
X5922443Y-13990388D01*
X5922443Y-13990388D02*
X5912920Y-13952293D01*
X5912920Y-13952293D02*
X5912920Y-13904674D01*
X5912920Y-13904674D02*
X5922443Y-13866579D01*
X5922443Y-13866579D02*
X5931967Y-13847531D01*
X5931967Y-13847531D02*
X5941491Y-13838008D01*
X5941491Y-13838008D02*
X5960539Y-13828484D01*
X6112920Y-14028484D02*
X6112920Y-13895150D01*
X6112920Y-13914198D02*
X6122443Y-13904674D01*
X6122443Y-13904674D02*
X6141491Y-13895150D01*
X6141491Y-13895150D02*
X6170063Y-13895150D01*
X6170063Y-13895150D02*
X6189110Y-13904674D01*
X6189110Y-13904674D02*
X6198634Y-13923722D01*
X6198634Y-13923722D02*
X6198634Y-14028484D01*
X6198634Y-13923722D02*
X6208158Y-13904674D01*
X6208158Y-13904674D02*
X6227205Y-13895150D01*
X6227205Y-13895150D02*
X6255777Y-13895150D01*
X6255777Y-13895150D02*
X6274824Y-13904674D01*
X6274824Y-13904674D02*
X6284348Y-13923722D01*
X6284348Y-13923722D02*
X6284348Y-14028484D01*
X6379586Y-14028484D02*
X6379586Y-13895150D01*
X6379586Y-13914198D02*
X6389110Y-13904674D01*
X6389110Y-13904674D02*
X6408158Y-13895150D01*
X6408158Y-13895150D02*
X6436729Y-13895150D01*
X6436729Y-13895150D02*
X6455777Y-13904674D01*
X6455777Y-13904674D02*
X6465301Y-13923722D01*
X6465301Y-13923722D02*
X6465301Y-14028484D01*
X6465301Y-13923722D02*
X6474824Y-13904674D01*
X6474824Y-13904674D02*
X6493872Y-13895150D01*
X6493872Y-13895150D02*
X6522443Y-13895150D01*
X6522443Y-13895150D02*
X6541491Y-13904674D01*
X6541491Y-13904674D02*
X6551015Y-13923722D01*
X6551015Y-13923722D02*
X6551015Y-14028484D01*
X6941491Y-13818960D02*
X6770063Y-14076103D01*
X7198634Y-13828484D02*
X7217682Y-13828484D01*
X7217682Y-13828484D02*
X7236729Y-13838008D01*
X7236729Y-13838008D02*
X7246253Y-13847531D01*
X7246253Y-13847531D02*
X7255777Y-13866579D01*
X7255777Y-13866579D02*
X7265301Y-13904674D01*
X7265301Y-13904674D02*
X7265301Y-13952293D01*
X7265301Y-13952293D02*
X7255777Y-13990388D01*
X7255777Y-13990388D02*
X7246253Y-14009436D01*
X7246253Y-14009436D02*
X7236729Y-14018960D01*
X7236729Y-14018960D02*
X7217682Y-14028484D01*
X7217682Y-14028484D02*
X7198634Y-14028484D01*
X7198634Y-14028484D02*
X7179586Y-14018960D01*
X7179586Y-14018960D02*
X7170063Y-14009436D01*
X7170063Y-14009436D02*
X7160539Y-13990388D01*
X7160539Y-13990388D02*
X7151015Y-13952293D01*
X7151015Y-13952293D02*
X7151015Y-13904674D01*
X7151015Y-13904674D02*
X7160539Y-13866579D01*
X7160539Y-13866579D02*
X7170063Y-13847531D01*
X7170063Y-13847531D02*
X7179586Y-13838008D01*
X7179586Y-13838008D02*
X7198634Y-13828484D01*
X7351015Y-14009436D02*
X7360539Y-14018960D01*
X7360539Y-14018960D02*
X7351015Y-14028484D01*
X7351015Y-14028484D02*
X7341491Y-14018960D01*
X7341491Y-14018960D02*
X7351015Y-14009436D01*
X7351015Y-14009436D02*
X7351015Y-14028484D01*
X7484348Y-13828484D02*
X7503396Y-13828484D01*
X7503396Y-13828484D02*
X7522444Y-13838008D01*
X7522444Y-13838008D02*
X7531967Y-13847531D01*
X7531967Y-13847531D02*
X7541491Y-13866579D01*
X7541491Y-13866579D02*
X7551015Y-13904674D01*
X7551015Y-13904674D02*
X7551015Y-13952293D01*
X7551015Y-13952293D02*
X7541491Y-13990388D01*
X7541491Y-13990388D02*
X7531967Y-14009436D01*
X7531967Y-14009436D02*
X7522444Y-14018960D01*
X7522444Y-14018960D02*
X7503396Y-14028484D01*
X7503396Y-14028484D02*
X7484348Y-14028484D01*
X7484348Y-14028484D02*
X7465301Y-14018960D01*
X7465301Y-14018960D02*
X7455777Y-14009436D01*
X7455777Y-14009436D02*
X7446253Y-13990388D01*
X7446253Y-13990388D02*
X7436729Y-13952293D01*
X7436729Y-13952293D02*
X7436729Y-13904674D01*
X7436729Y-13904674D02*
X7446253Y-13866579D01*
X7446253Y-13866579D02*
X7455777Y-13847531D01*
X7455777Y-13847531D02*
X7465301Y-13838008D01*
X7465301Y-13838008D02*
X7484348Y-13828484D01*
X7617682Y-13828484D02*
X7741491Y-13828484D01*
X7741491Y-13828484D02*
X7674825Y-13904674D01*
X7674825Y-13904674D02*
X7703396Y-13904674D01*
X7703396Y-13904674D02*
X7722444Y-13914198D01*
X7722444Y-13914198D02*
X7731967Y-13923722D01*
X7731967Y-13923722D02*
X7741491Y-13942769D01*
X7741491Y-13942769D02*
X7741491Y-13990388D01*
X7741491Y-13990388D02*
X7731967Y-14009436D01*
X7731967Y-14009436D02*
X7722444Y-14018960D01*
X7722444Y-14018960D02*
X7703396Y-14028484D01*
X7703396Y-14028484D02*
X7646253Y-14028484D01*
X7646253Y-14028484D02*
X7627206Y-14018960D01*
X7627206Y-14018960D02*
X7617682Y-14009436D01*
X7922444Y-13828484D02*
X7827206Y-13828484D01*
X7827206Y-13828484D02*
X7817682Y-13923722D01*
X7817682Y-13923722D02*
X7827206Y-13914198D01*
X7827206Y-13914198D02*
X7846253Y-13904674D01*
X7846253Y-13904674D02*
X7893872Y-13904674D01*
X7893872Y-13904674D02*
X7912920Y-13914198D01*
X7912920Y-13914198D02*
X7922444Y-13923722D01*
X7922444Y-13923722D02*
X7931967Y-13942769D01*
X7931967Y-13942769D02*
X7931967Y-13990388D01*
X7931967Y-13990388D02*
X7922444Y-14009436D01*
X7922444Y-14009436D02*
X7912920Y-14018960D01*
X7912920Y-14018960D02*
X7893872Y-14028484D01*
X7893872Y-14028484D02*
X7846253Y-14028484D01*
X7846253Y-14028484D02*
X7827206Y-14018960D01*
X7827206Y-14018960D02*
X7817682Y-14009436D01*
X8103396Y-13895150D02*
X8103396Y-14028484D01*
X8055777Y-13818960D02*
X8008158Y-13961817D01*
X8008158Y-13961817D02*
X8131967Y-13961817D01*
X8198634Y-13828484D02*
X8198634Y-13866579D01*
X8274825Y-13828484D02*
X8274825Y-13866579D01*
X8570063Y-14104674D02*
X8560539Y-14095150D01*
X8560539Y-14095150D02*
X8541491Y-14066579D01*
X8541491Y-14066579D02*
X8531968Y-14047531D01*
X8531968Y-14047531D02*
X8522444Y-14018960D01*
X8522444Y-14018960D02*
X8512920Y-13971341D01*
X8512920Y-13971341D02*
X8512920Y-13933246D01*
X8512920Y-13933246D02*
X8522444Y-13885627D01*
X8522444Y-13885627D02*
X8531968Y-13857055D01*
X8531968Y-13857055D02*
X8541491Y-13838008D01*
X8541491Y-13838008D02*
X8560539Y-13809436D01*
X8560539Y-13809436D02*
X8570063Y-13799912D01*
X8751015Y-14028484D02*
X8636730Y-14028484D01*
X8693872Y-14028484D02*
X8693872Y-13828484D01*
X8693872Y-13828484D02*
X8674825Y-13857055D01*
X8674825Y-13857055D02*
X8655777Y-13876103D01*
X8655777Y-13876103D02*
X8636730Y-13885627D01*
X8827206Y-13847531D02*
X8836730Y-13838008D01*
X8836730Y-13838008D02*
X8855777Y-13828484D01*
X8855777Y-13828484D02*
X8903396Y-13828484D01*
X8903396Y-13828484D02*
X8922444Y-13838008D01*
X8922444Y-13838008D02*
X8931968Y-13847531D01*
X8931968Y-13847531D02*
X8941491Y-13866579D01*
X8941491Y-13866579D02*
X8941491Y-13885627D01*
X8941491Y-13885627D02*
X8931968Y-13914198D01*
X8931968Y-13914198D02*
X8817682Y-14028484D01*
X8817682Y-14028484D02*
X8941491Y-14028484D01*
X9179587Y-14028484D02*
X9179587Y-13828484D01*
X9265301Y-14028484D02*
X9265301Y-13923722D01*
X9265301Y-13923722D02*
X9255777Y-13904674D01*
X9255777Y-13904674D02*
X9236730Y-13895150D01*
X9236730Y-13895150D02*
X9208158Y-13895150D01*
X9208158Y-13895150D02*
X9189111Y-13904674D01*
X9189111Y-13904674D02*
X9179587Y-13914198D01*
X9389111Y-14028484D02*
X9370063Y-14018960D01*
X9370063Y-14018960D02*
X9360539Y-14009436D01*
X9360539Y-14009436D02*
X9351015Y-13990388D01*
X9351015Y-13990388D02*
X9351015Y-13933246D01*
X9351015Y-13933246D02*
X9360539Y-13914198D01*
X9360539Y-13914198D02*
X9370063Y-13904674D01*
X9370063Y-13904674D02*
X9389111Y-13895150D01*
X9389111Y-13895150D02*
X9417682Y-13895150D01*
X9417682Y-13895150D02*
X9436730Y-13904674D01*
X9436730Y-13904674D02*
X9446253Y-13914198D01*
X9446253Y-13914198D02*
X9455777Y-13933246D01*
X9455777Y-13933246D02*
X9455777Y-13990388D01*
X9455777Y-13990388D02*
X9446253Y-14009436D01*
X9446253Y-14009436D02*
X9436730Y-14018960D01*
X9436730Y-14018960D02*
X9417682Y-14028484D01*
X9417682Y-14028484D02*
X9389111Y-14028484D01*
X9570063Y-14028484D02*
X9551015Y-14018960D01*
X9551015Y-14018960D02*
X9541492Y-13999912D01*
X9541492Y-13999912D02*
X9541492Y-13828484D01*
X9722444Y-14018960D02*
X9703396Y-14028484D01*
X9703396Y-14028484D02*
X9665301Y-14028484D01*
X9665301Y-14028484D02*
X9646253Y-14018960D01*
X9646253Y-14018960D02*
X9636730Y-13999912D01*
X9636730Y-13999912D02*
X9636730Y-13923722D01*
X9636730Y-13923722D02*
X9646253Y-13904674D01*
X9646253Y-13904674D02*
X9665301Y-13895150D01*
X9665301Y-13895150D02*
X9703396Y-13895150D01*
X9703396Y-13895150D02*
X9722444Y-13904674D01*
X9722444Y-13904674D02*
X9731968Y-13923722D01*
X9731968Y-13923722D02*
X9731968Y-13942769D01*
X9731968Y-13942769D02*
X9636730Y-13961817D01*
X9808158Y-14018960D02*
X9827206Y-14028484D01*
X9827206Y-14028484D02*
X9865301Y-14028484D01*
X9865301Y-14028484D02*
X9884349Y-14018960D01*
X9884349Y-14018960D02*
X9893873Y-13999912D01*
X9893873Y-13999912D02*
X9893873Y-13990388D01*
X9893873Y-13990388D02*
X9884349Y-13971341D01*
X9884349Y-13971341D02*
X9865301Y-13961817D01*
X9865301Y-13961817D02*
X9836730Y-13961817D01*
X9836730Y-13961817D02*
X9817682Y-13952293D01*
X9817682Y-13952293D02*
X9808158Y-13933246D01*
X9808158Y-13933246D02*
X9808158Y-13923722D01*
X9808158Y-13923722D02*
X9817682Y-13904674D01*
X9817682Y-13904674D02*
X9836730Y-13895150D01*
X9836730Y-13895150D02*
X9865301Y-13895150D01*
X9865301Y-13895150D02*
X9884349Y-13904674D01*
X9960539Y-14104674D02*
X9970063Y-14095150D01*
X9970063Y-14095150D02*
X9989111Y-14066579D01*
X9989111Y-14066579D02*
X9998634Y-14047531D01*
X9998634Y-14047531D02*
X10008158Y-14018960D01*
X10008158Y-14018960D02*
X10017682Y-13971341D01*
X10017682Y-13971341D02*
X10017682Y-13933246D01*
X10017682Y-13933246D02*
X10008158Y-13885627D01*
X10008158Y-13885627D02*
X9998634Y-13857055D01*
X9998634Y-13857055D02*
X9989111Y-13838008D01*
X9989111Y-13838008D02*
X9970063Y-13809436D01*
X9970063Y-13809436D02*
X9960539Y-13799912D01*
D16*
X4947500Y-14248500D02*
X4995000Y-14201000D01*
X4947500Y-14153500D01*
X4900000Y-14201000D01*
X4947500Y-14248500D01*
D11*
X5293872Y-14092484D02*
X5312920Y-14092484D01*
X5312920Y-14092484D02*
X5331967Y-14102008D01*
X5331967Y-14102008D02*
X5341491Y-14111531D01*
X5341491Y-14111531D02*
X5351015Y-14130579D01*
X5351015Y-14130579D02*
X5360539Y-14168674D01*
X5360539Y-14168674D02*
X5360539Y-14216293D01*
X5360539Y-14216293D02*
X5351015Y-14254388D01*
X5351015Y-14254388D02*
X5341491Y-14273436D01*
X5341491Y-14273436D02*
X5331967Y-14282960D01*
X5331967Y-14282960D02*
X5312920Y-14292484D01*
X5312920Y-14292484D02*
X5293872Y-14292484D01*
X5293872Y-14292484D02*
X5274824Y-14282960D01*
X5274824Y-14282960D02*
X5265301Y-14273436D01*
X5265301Y-14273436D02*
X5255777Y-14254388D01*
X5255777Y-14254388D02*
X5246253Y-14216293D01*
X5246253Y-14216293D02*
X5246253Y-14168674D01*
X5246253Y-14168674D02*
X5255777Y-14130579D01*
X5255777Y-14130579D02*
X5265301Y-14111531D01*
X5265301Y-14111531D02*
X5274824Y-14102008D01*
X5274824Y-14102008D02*
X5293872Y-14092484D01*
X5446253Y-14273436D02*
X5455777Y-14282960D01*
X5455777Y-14282960D02*
X5446253Y-14292484D01*
X5446253Y-14292484D02*
X5436729Y-14282960D01*
X5436729Y-14282960D02*
X5446253Y-14273436D01*
X5446253Y-14273436D02*
X5446253Y-14292484D01*
X5551015Y-14292484D02*
X5589110Y-14292484D01*
X5589110Y-14292484D02*
X5608158Y-14282960D01*
X5608158Y-14282960D02*
X5617682Y-14273436D01*
X5617682Y-14273436D02*
X5636729Y-14244865D01*
X5636729Y-14244865D02*
X5646253Y-14206769D01*
X5646253Y-14206769D02*
X5646253Y-14130579D01*
X5646253Y-14130579D02*
X5636729Y-14111531D01*
X5636729Y-14111531D02*
X5627205Y-14102008D01*
X5627205Y-14102008D02*
X5608158Y-14092484D01*
X5608158Y-14092484D02*
X5570063Y-14092484D01*
X5570063Y-14092484D02*
X5551015Y-14102008D01*
X5551015Y-14102008D02*
X5541491Y-14111531D01*
X5541491Y-14111531D02*
X5531967Y-14130579D01*
X5531967Y-14130579D02*
X5531967Y-14178198D01*
X5531967Y-14178198D02*
X5541491Y-14197246D01*
X5541491Y-14197246D02*
X5551015Y-14206769D01*
X5551015Y-14206769D02*
X5570063Y-14216293D01*
X5570063Y-14216293D02*
X5608158Y-14216293D01*
X5608158Y-14216293D02*
X5627205Y-14206769D01*
X5627205Y-14206769D02*
X5636729Y-14197246D01*
X5636729Y-14197246D02*
X5646253Y-14178198D01*
X5827205Y-14092484D02*
X5731967Y-14092484D01*
X5731967Y-14092484D02*
X5722443Y-14187722D01*
X5722443Y-14187722D02*
X5731967Y-14178198D01*
X5731967Y-14178198D02*
X5751015Y-14168674D01*
X5751015Y-14168674D02*
X5798634Y-14168674D01*
X5798634Y-14168674D02*
X5817682Y-14178198D01*
X5817682Y-14178198D02*
X5827205Y-14187722D01*
X5827205Y-14187722D02*
X5836729Y-14206769D01*
X5836729Y-14206769D02*
X5836729Y-14254388D01*
X5836729Y-14254388D02*
X5827205Y-14273436D01*
X5827205Y-14273436D02*
X5817682Y-14282960D01*
X5817682Y-14282960D02*
X5798634Y-14292484D01*
X5798634Y-14292484D02*
X5751015Y-14292484D01*
X5751015Y-14292484D02*
X5731967Y-14282960D01*
X5731967Y-14282960D02*
X5722443Y-14273436D01*
X5960539Y-14092484D02*
X5979586Y-14092484D01*
X5979586Y-14092484D02*
X5998634Y-14102008D01*
X5998634Y-14102008D02*
X6008158Y-14111531D01*
X6008158Y-14111531D02*
X6017682Y-14130579D01*
X6017682Y-14130579D02*
X6027205Y-14168674D01*
X6027205Y-14168674D02*
X6027205Y-14216293D01*
X6027205Y-14216293D02*
X6017682Y-14254388D01*
X6017682Y-14254388D02*
X6008158Y-14273436D01*
X6008158Y-14273436D02*
X5998634Y-14282960D01*
X5998634Y-14282960D02*
X5979586Y-14292484D01*
X5979586Y-14292484D02*
X5960539Y-14292484D01*
X5960539Y-14292484D02*
X5941491Y-14282960D01*
X5941491Y-14282960D02*
X5931967Y-14273436D01*
X5931967Y-14273436D02*
X5922443Y-14254388D01*
X5922443Y-14254388D02*
X5912920Y-14216293D01*
X5912920Y-14216293D02*
X5912920Y-14168674D01*
X5912920Y-14168674D02*
X5922443Y-14130579D01*
X5922443Y-14130579D02*
X5931967Y-14111531D01*
X5931967Y-14111531D02*
X5941491Y-14102008D01*
X5941491Y-14102008D02*
X5960539Y-14092484D01*
X6112920Y-14292484D02*
X6112920Y-14159150D01*
X6112920Y-14178198D02*
X6122443Y-14168674D01*
X6122443Y-14168674D02*
X6141491Y-14159150D01*
X6141491Y-14159150D02*
X6170063Y-14159150D01*
X6170063Y-14159150D02*
X6189110Y-14168674D01*
X6189110Y-14168674D02*
X6198634Y-14187722D01*
X6198634Y-14187722D02*
X6198634Y-14292484D01*
X6198634Y-14187722D02*
X6208158Y-14168674D01*
X6208158Y-14168674D02*
X6227205Y-14159150D01*
X6227205Y-14159150D02*
X6255777Y-14159150D01*
X6255777Y-14159150D02*
X6274824Y-14168674D01*
X6274824Y-14168674D02*
X6284348Y-14187722D01*
X6284348Y-14187722D02*
X6284348Y-14292484D01*
X6379586Y-14292484D02*
X6379586Y-14159150D01*
X6379586Y-14178198D02*
X6389110Y-14168674D01*
X6389110Y-14168674D02*
X6408158Y-14159150D01*
X6408158Y-14159150D02*
X6436729Y-14159150D01*
X6436729Y-14159150D02*
X6455777Y-14168674D01*
X6455777Y-14168674D02*
X6465301Y-14187722D01*
X6465301Y-14187722D02*
X6465301Y-14292484D01*
X6465301Y-14187722D02*
X6474824Y-14168674D01*
X6474824Y-14168674D02*
X6493872Y-14159150D01*
X6493872Y-14159150D02*
X6522443Y-14159150D01*
X6522443Y-14159150D02*
X6541491Y-14168674D01*
X6541491Y-14168674D02*
X6551015Y-14187722D01*
X6551015Y-14187722D02*
X6551015Y-14292484D01*
X6941491Y-14082960D02*
X6770063Y-14340103D01*
X7198634Y-14092484D02*
X7217682Y-14092484D01*
X7217682Y-14092484D02*
X7236729Y-14102008D01*
X7236729Y-14102008D02*
X7246253Y-14111531D01*
X7246253Y-14111531D02*
X7255777Y-14130579D01*
X7255777Y-14130579D02*
X7265301Y-14168674D01*
X7265301Y-14168674D02*
X7265301Y-14216293D01*
X7265301Y-14216293D02*
X7255777Y-14254388D01*
X7255777Y-14254388D02*
X7246253Y-14273436D01*
X7246253Y-14273436D02*
X7236729Y-14282960D01*
X7236729Y-14282960D02*
X7217682Y-14292484D01*
X7217682Y-14292484D02*
X7198634Y-14292484D01*
X7198634Y-14292484D02*
X7179586Y-14282960D01*
X7179586Y-14282960D02*
X7170063Y-14273436D01*
X7170063Y-14273436D02*
X7160539Y-14254388D01*
X7160539Y-14254388D02*
X7151015Y-14216293D01*
X7151015Y-14216293D02*
X7151015Y-14168674D01*
X7151015Y-14168674D02*
X7160539Y-14130579D01*
X7160539Y-14130579D02*
X7170063Y-14111531D01*
X7170063Y-14111531D02*
X7179586Y-14102008D01*
X7179586Y-14102008D02*
X7198634Y-14092484D01*
X7351015Y-14273436D02*
X7360539Y-14282960D01*
X7360539Y-14282960D02*
X7351015Y-14292484D01*
X7351015Y-14292484D02*
X7341491Y-14282960D01*
X7341491Y-14282960D02*
X7351015Y-14273436D01*
X7351015Y-14273436D02*
X7351015Y-14292484D01*
X7484348Y-14092484D02*
X7503396Y-14092484D01*
X7503396Y-14092484D02*
X7522444Y-14102008D01*
X7522444Y-14102008D02*
X7531967Y-14111531D01*
X7531967Y-14111531D02*
X7541491Y-14130579D01*
X7541491Y-14130579D02*
X7551015Y-14168674D01*
X7551015Y-14168674D02*
X7551015Y-14216293D01*
X7551015Y-14216293D02*
X7541491Y-14254388D01*
X7541491Y-14254388D02*
X7531967Y-14273436D01*
X7531967Y-14273436D02*
X7522444Y-14282960D01*
X7522444Y-14282960D02*
X7503396Y-14292484D01*
X7503396Y-14292484D02*
X7484348Y-14292484D01*
X7484348Y-14292484D02*
X7465301Y-14282960D01*
X7465301Y-14282960D02*
X7455777Y-14273436D01*
X7455777Y-14273436D02*
X7446253Y-14254388D01*
X7446253Y-14254388D02*
X7436729Y-14216293D01*
X7436729Y-14216293D02*
X7436729Y-14168674D01*
X7436729Y-14168674D02*
X7446253Y-14130579D01*
X7446253Y-14130579D02*
X7455777Y-14111531D01*
X7455777Y-14111531D02*
X7465301Y-14102008D01*
X7465301Y-14102008D02*
X7484348Y-14092484D01*
X7617682Y-14092484D02*
X7741491Y-14092484D01*
X7741491Y-14092484D02*
X7674825Y-14168674D01*
X7674825Y-14168674D02*
X7703396Y-14168674D01*
X7703396Y-14168674D02*
X7722444Y-14178198D01*
X7722444Y-14178198D02*
X7731967Y-14187722D01*
X7731967Y-14187722D02*
X7741491Y-14206769D01*
X7741491Y-14206769D02*
X7741491Y-14254388D01*
X7741491Y-14254388D02*
X7731967Y-14273436D01*
X7731967Y-14273436D02*
X7722444Y-14282960D01*
X7722444Y-14282960D02*
X7703396Y-14292484D01*
X7703396Y-14292484D02*
X7646253Y-14292484D01*
X7646253Y-14292484D02*
X7627206Y-14282960D01*
X7627206Y-14282960D02*
X7617682Y-14273436D01*
X7808158Y-14092484D02*
X7941491Y-14092484D01*
X7941491Y-14092484D02*
X7855777Y-14292484D01*
X8103396Y-14159150D02*
X8103396Y-14292484D01*
X8055777Y-14082960D02*
X8008158Y-14225817D01*
X8008158Y-14225817D02*
X8131967Y-14225817D01*
X8198634Y-14092484D02*
X8198634Y-14130579D01*
X8274825Y-14092484D02*
X8274825Y-14130579D01*
X8570063Y-14368674D02*
X8560539Y-14359150D01*
X8560539Y-14359150D02*
X8541491Y-14330579D01*
X8541491Y-14330579D02*
X8531968Y-14311531D01*
X8531968Y-14311531D02*
X8522444Y-14282960D01*
X8522444Y-14282960D02*
X8512920Y-14235341D01*
X8512920Y-14235341D02*
X8512920Y-14197246D01*
X8512920Y-14197246D02*
X8522444Y-14149627D01*
X8522444Y-14149627D02*
X8531968Y-14121055D01*
X8531968Y-14121055D02*
X8541491Y-14102008D01*
X8541491Y-14102008D02*
X8560539Y-14073436D01*
X8560539Y-14073436D02*
X8570063Y-14063912D01*
X8741491Y-14092484D02*
X8646253Y-14092484D01*
X8646253Y-14092484D02*
X8636730Y-14187722D01*
X8636730Y-14187722D02*
X8646253Y-14178198D01*
X8646253Y-14178198D02*
X8665301Y-14168674D01*
X8665301Y-14168674D02*
X8712920Y-14168674D01*
X8712920Y-14168674D02*
X8731968Y-14178198D01*
X8731968Y-14178198D02*
X8741491Y-14187722D01*
X8741491Y-14187722D02*
X8751015Y-14206769D01*
X8751015Y-14206769D02*
X8751015Y-14254388D01*
X8751015Y-14254388D02*
X8741491Y-14273436D01*
X8741491Y-14273436D02*
X8731968Y-14282960D01*
X8731968Y-14282960D02*
X8712920Y-14292484D01*
X8712920Y-14292484D02*
X8665301Y-14292484D01*
X8665301Y-14292484D02*
X8646253Y-14282960D01*
X8646253Y-14282960D02*
X8636730Y-14273436D01*
X8931968Y-14092484D02*
X8836730Y-14092484D01*
X8836730Y-14092484D02*
X8827206Y-14187722D01*
X8827206Y-14187722D02*
X8836730Y-14178198D01*
X8836730Y-14178198D02*
X8855777Y-14168674D01*
X8855777Y-14168674D02*
X8903396Y-14168674D01*
X8903396Y-14168674D02*
X8922444Y-14178198D01*
X8922444Y-14178198D02*
X8931968Y-14187722D01*
X8931968Y-14187722D02*
X8941491Y-14206769D01*
X8941491Y-14206769D02*
X8941491Y-14254388D01*
X8941491Y-14254388D02*
X8931968Y-14273436D01*
X8931968Y-14273436D02*
X8922444Y-14282960D01*
X8922444Y-14282960D02*
X8903396Y-14292484D01*
X8903396Y-14292484D02*
X8855777Y-14292484D01*
X8855777Y-14292484D02*
X8836730Y-14282960D01*
X8836730Y-14282960D02*
X8827206Y-14273436D01*
X9179587Y-14292484D02*
X9179587Y-14092484D01*
X9265301Y-14292484D02*
X9265301Y-14187722D01*
X9265301Y-14187722D02*
X9255777Y-14168674D01*
X9255777Y-14168674D02*
X9236730Y-14159150D01*
X9236730Y-14159150D02*
X9208158Y-14159150D01*
X9208158Y-14159150D02*
X9189111Y-14168674D01*
X9189111Y-14168674D02*
X9179587Y-14178198D01*
X9389111Y-14292484D02*
X9370063Y-14282960D01*
X9370063Y-14282960D02*
X9360539Y-14273436D01*
X9360539Y-14273436D02*
X9351015Y-14254388D01*
X9351015Y-14254388D02*
X9351015Y-14197246D01*
X9351015Y-14197246D02*
X9360539Y-14178198D01*
X9360539Y-14178198D02*
X9370063Y-14168674D01*
X9370063Y-14168674D02*
X9389111Y-14159150D01*
X9389111Y-14159150D02*
X9417682Y-14159150D01*
X9417682Y-14159150D02*
X9436730Y-14168674D01*
X9436730Y-14168674D02*
X9446253Y-14178198D01*
X9446253Y-14178198D02*
X9455777Y-14197246D01*
X9455777Y-14197246D02*
X9455777Y-14254388D01*
X9455777Y-14254388D02*
X9446253Y-14273436D01*
X9446253Y-14273436D02*
X9436730Y-14282960D01*
X9436730Y-14282960D02*
X9417682Y-14292484D01*
X9417682Y-14292484D02*
X9389111Y-14292484D01*
X9570063Y-14292484D02*
X9551015Y-14282960D01*
X9551015Y-14282960D02*
X9541492Y-14263912D01*
X9541492Y-14263912D02*
X9541492Y-14092484D01*
X9722444Y-14282960D02*
X9703396Y-14292484D01*
X9703396Y-14292484D02*
X9665301Y-14292484D01*
X9665301Y-14292484D02*
X9646253Y-14282960D01*
X9646253Y-14282960D02*
X9636730Y-14263912D01*
X9636730Y-14263912D02*
X9636730Y-14187722D01*
X9636730Y-14187722D02*
X9646253Y-14168674D01*
X9646253Y-14168674D02*
X9665301Y-14159150D01*
X9665301Y-14159150D02*
X9703396Y-14159150D01*
X9703396Y-14159150D02*
X9722444Y-14168674D01*
X9722444Y-14168674D02*
X9731968Y-14187722D01*
X9731968Y-14187722D02*
X9731968Y-14206769D01*
X9731968Y-14206769D02*
X9636730Y-14225817D01*
X9808158Y-14282960D02*
X9827206Y-14292484D01*
X9827206Y-14292484D02*
X9865301Y-14292484D01*
X9865301Y-14292484D02*
X9884349Y-14282960D01*
X9884349Y-14282960D02*
X9893873Y-14263912D01*
X9893873Y-14263912D02*
X9893873Y-14254388D01*
X9893873Y-14254388D02*
X9884349Y-14235341D01*
X9884349Y-14235341D02*
X9865301Y-14225817D01*
X9865301Y-14225817D02*
X9836730Y-14225817D01*
X9836730Y-14225817D02*
X9817682Y-14216293D01*
X9817682Y-14216293D02*
X9808158Y-14197246D01*
X9808158Y-14197246D02*
X9808158Y-14187722D01*
X9808158Y-14187722D02*
X9817682Y-14168674D01*
X9817682Y-14168674D02*
X9836730Y-14159150D01*
X9836730Y-14159150D02*
X9865301Y-14159150D01*
X9865301Y-14159150D02*
X9884349Y-14168674D01*
X9960539Y-14368674D02*
X9970063Y-14359150D01*
X9970063Y-14359150D02*
X9989111Y-14330579D01*
X9989111Y-14330579D02*
X9998634Y-14311531D01*
X9998634Y-14311531D02*
X10008158Y-14282960D01*
X10008158Y-14282960D02*
X10017682Y-14235341D01*
X10017682Y-14235341D02*
X10017682Y-14197246D01*
X10017682Y-14197246D02*
X10008158Y-14149627D01*
X10008158Y-14149627D02*
X9998634Y-14121055D01*
X9998634Y-14121055D02*
X9989111Y-14102008D01*
X9989111Y-14102008D02*
X9970063Y-14073436D01*
X9970063Y-14073436D02*
X9960539Y-14063912D01*
D10*
X4895000Y-14415000D02*
X4995000Y-14515000D01*
X4995000Y-14415000D02*
X4895000Y-14515000D01*
X4995000Y-14465000D02*
G75*
G03*
X4995000Y-14465000I-50000J0D01*
G01*
D11*
X5360539Y-14556484D02*
X5246253Y-14556484D01*
X5303396Y-14556484D02*
X5303396Y-14356484D01*
X5303396Y-14356484D02*
X5284348Y-14385055D01*
X5284348Y-14385055D02*
X5265301Y-14404103D01*
X5265301Y-14404103D02*
X5246253Y-14413627D01*
X5446253Y-14537436D02*
X5455777Y-14546960D01*
X5455777Y-14546960D02*
X5446253Y-14556484D01*
X5446253Y-14556484D02*
X5436729Y-14546960D01*
X5436729Y-14546960D02*
X5446253Y-14537436D01*
X5446253Y-14537436D02*
X5446253Y-14556484D01*
X5579586Y-14356484D02*
X5598634Y-14356484D01*
X5598634Y-14356484D02*
X5617682Y-14366008D01*
X5617682Y-14366008D02*
X5627205Y-14375531D01*
X5627205Y-14375531D02*
X5636729Y-14394579D01*
X5636729Y-14394579D02*
X5646253Y-14432674D01*
X5646253Y-14432674D02*
X5646253Y-14480293D01*
X5646253Y-14480293D02*
X5636729Y-14518388D01*
X5636729Y-14518388D02*
X5627205Y-14537436D01*
X5627205Y-14537436D02*
X5617682Y-14546960D01*
X5617682Y-14546960D02*
X5598634Y-14556484D01*
X5598634Y-14556484D02*
X5579586Y-14556484D01*
X5579586Y-14556484D02*
X5560539Y-14546960D01*
X5560539Y-14546960D02*
X5551015Y-14537436D01*
X5551015Y-14537436D02*
X5541491Y-14518388D01*
X5541491Y-14518388D02*
X5531967Y-14480293D01*
X5531967Y-14480293D02*
X5531967Y-14432674D01*
X5531967Y-14432674D02*
X5541491Y-14394579D01*
X5541491Y-14394579D02*
X5551015Y-14375531D01*
X5551015Y-14375531D02*
X5560539Y-14366008D01*
X5560539Y-14366008D02*
X5579586Y-14356484D01*
X5770062Y-14356484D02*
X5789110Y-14356484D01*
X5789110Y-14356484D02*
X5808158Y-14366008D01*
X5808158Y-14366008D02*
X5817682Y-14375531D01*
X5817682Y-14375531D02*
X5827205Y-14394579D01*
X5827205Y-14394579D02*
X5836729Y-14432674D01*
X5836729Y-14432674D02*
X5836729Y-14480293D01*
X5836729Y-14480293D02*
X5827205Y-14518388D01*
X5827205Y-14518388D02*
X5817682Y-14537436D01*
X5817682Y-14537436D02*
X5808158Y-14546960D01*
X5808158Y-14546960D02*
X5789110Y-14556484D01*
X5789110Y-14556484D02*
X5770062Y-14556484D01*
X5770062Y-14556484D02*
X5751015Y-14546960D01*
X5751015Y-14546960D02*
X5741491Y-14537436D01*
X5741491Y-14537436D02*
X5731967Y-14518388D01*
X5731967Y-14518388D02*
X5722443Y-14480293D01*
X5722443Y-14480293D02*
X5722443Y-14432674D01*
X5722443Y-14432674D02*
X5731967Y-14394579D01*
X5731967Y-14394579D02*
X5741491Y-14375531D01*
X5741491Y-14375531D02*
X5751015Y-14366008D01*
X5751015Y-14366008D02*
X5770062Y-14356484D01*
X5960539Y-14356484D02*
X5979586Y-14356484D01*
X5979586Y-14356484D02*
X5998634Y-14366008D01*
X5998634Y-14366008D02*
X6008158Y-14375531D01*
X6008158Y-14375531D02*
X6017682Y-14394579D01*
X6017682Y-14394579D02*
X6027205Y-14432674D01*
X6027205Y-14432674D02*
X6027205Y-14480293D01*
X6027205Y-14480293D02*
X6017682Y-14518388D01*
X6017682Y-14518388D02*
X6008158Y-14537436D01*
X6008158Y-14537436D02*
X5998634Y-14546960D01*
X5998634Y-14546960D02*
X5979586Y-14556484D01*
X5979586Y-14556484D02*
X5960539Y-14556484D01*
X5960539Y-14556484D02*
X5941491Y-14546960D01*
X5941491Y-14546960D02*
X5931967Y-14537436D01*
X5931967Y-14537436D02*
X5922443Y-14518388D01*
X5922443Y-14518388D02*
X5912920Y-14480293D01*
X5912920Y-14480293D02*
X5912920Y-14432674D01*
X5912920Y-14432674D02*
X5922443Y-14394579D01*
X5922443Y-14394579D02*
X5931967Y-14375531D01*
X5931967Y-14375531D02*
X5941491Y-14366008D01*
X5941491Y-14366008D02*
X5960539Y-14356484D01*
X6112920Y-14556484D02*
X6112920Y-14423150D01*
X6112920Y-14442198D02*
X6122443Y-14432674D01*
X6122443Y-14432674D02*
X6141491Y-14423150D01*
X6141491Y-14423150D02*
X6170063Y-14423150D01*
X6170063Y-14423150D02*
X6189110Y-14432674D01*
X6189110Y-14432674D02*
X6198634Y-14451722D01*
X6198634Y-14451722D02*
X6198634Y-14556484D01*
X6198634Y-14451722D02*
X6208158Y-14432674D01*
X6208158Y-14432674D02*
X6227205Y-14423150D01*
X6227205Y-14423150D02*
X6255777Y-14423150D01*
X6255777Y-14423150D02*
X6274824Y-14432674D01*
X6274824Y-14432674D02*
X6284348Y-14451722D01*
X6284348Y-14451722D02*
X6284348Y-14556484D01*
X6379586Y-14556484D02*
X6379586Y-14423150D01*
X6379586Y-14442198D02*
X6389110Y-14432674D01*
X6389110Y-14432674D02*
X6408158Y-14423150D01*
X6408158Y-14423150D02*
X6436729Y-14423150D01*
X6436729Y-14423150D02*
X6455777Y-14432674D01*
X6455777Y-14432674D02*
X6465301Y-14451722D01*
X6465301Y-14451722D02*
X6465301Y-14556484D01*
X6465301Y-14451722D02*
X6474824Y-14432674D01*
X6474824Y-14432674D02*
X6493872Y-14423150D01*
X6493872Y-14423150D02*
X6522443Y-14423150D01*
X6522443Y-14423150D02*
X6541491Y-14432674D01*
X6541491Y-14432674D02*
X6551015Y-14451722D01*
X6551015Y-14451722D02*
X6551015Y-14556484D01*
X6941491Y-14346960D02*
X6770063Y-14604103D01*
X7198634Y-14356484D02*
X7217682Y-14356484D01*
X7217682Y-14356484D02*
X7236729Y-14366008D01*
X7236729Y-14366008D02*
X7246253Y-14375531D01*
X7246253Y-14375531D02*
X7255777Y-14394579D01*
X7255777Y-14394579D02*
X7265301Y-14432674D01*
X7265301Y-14432674D02*
X7265301Y-14480293D01*
X7265301Y-14480293D02*
X7255777Y-14518388D01*
X7255777Y-14518388D02*
X7246253Y-14537436D01*
X7246253Y-14537436D02*
X7236729Y-14546960D01*
X7236729Y-14546960D02*
X7217682Y-14556484D01*
X7217682Y-14556484D02*
X7198634Y-14556484D01*
X7198634Y-14556484D02*
X7179586Y-14546960D01*
X7179586Y-14546960D02*
X7170063Y-14537436D01*
X7170063Y-14537436D02*
X7160539Y-14518388D01*
X7160539Y-14518388D02*
X7151015Y-14480293D01*
X7151015Y-14480293D02*
X7151015Y-14432674D01*
X7151015Y-14432674D02*
X7160539Y-14394579D01*
X7160539Y-14394579D02*
X7170063Y-14375531D01*
X7170063Y-14375531D02*
X7179586Y-14366008D01*
X7179586Y-14366008D02*
X7198634Y-14356484D01*
X7351015Y-14537436D02*
X7360539Y-14546960D01*
X7360539Y-14546960D02*
X7351015Y-14556484D01*
X7351015Y-14556484D02*
X7341491Y-14546960D01*
X7341491Y-14546960D02*
X7351015Y-14537436D01*
X7351015Y-14537436D02*
X7351015Y-14556484D01*
X7484348Y-14356484D02*
X7503396Y-14356484D01*
X7503396Y-14356484D02*
X7522444Y-14366008D01*
X7522444Y-14366008D02*
X7531967Y-14375531D01*
X7531967Y-14375531D02*
X7541491Y-14394579D01*
X7541491Y-14394579D02*
X7551015Y-14432674D01*
X7551015Y-14432674D02*
X7551015Y-14480293D01*
X7551015Y-14480293D02*
X7541491Y-14518388D01*
X7541491Y-14518388D02*
X7531967Y-14537436D01*
X7531967Y-14537436D02*
X7522444Y-14546960D01*
X7522444Y-14546960D02*
X7503396Y-14556484D01*
X7503396Y-14556484D02*
X7484348Y-14556484D01*
X7484348Y-14556484D02*
X7465301Y-14546960D01*
X7465301Y-14546960D02*
X7455777Y-14537436D01*
X7455777Y-14537436D02*
X7446253Y-14518388D01*
X7446253Y-14518388D02*
X7436729Y-14480293D01*
X7436729Y-14480293D02*
X7436729Y-14432674D01*
X7436729Y-14432674D02*
X7446253Y-14394579D01*
X7446253Y-14394579D02*
X7455777Y-14375531D01*
X7455777Y-14375531D02*
X7465301Y-14366008D01*
X7465301Y-14366008D02*
X7484348Y-14356484D01*
X7617682Y-14356484D02*
X7741491Y-14356484D01*
X7741491Y-14356484D02*
X7674825Y-14432674D01*
X7674825Y-14432674D02*
X7703396Y-14432674D01*
X7703396Y-14432674D02*
X7722444Y-14442198D01*
X7722444Y-14442198D02*
X7731967Y-14451722D01*
X7731967Y-14451722D02*
X7741491Y-14470769D01*
X7741491Y-14470769D02*
X7741491Y-14518388D01*
X7741491Y-14518388D02*
X7731967Y-14537436D01*
X7731967Y-14537436D02*
X7722444Y-14546960D01*
X7722444Y-14546960D02*
X7703396Y-14556484D01*
X7703396Y-14556484D02*
X7646253Y-14556484D01*
X7646253Y-14556484D02*
X7627206Y-14546960D01*
X7627206Y-14546960D02*
X7617682Y-14537436D01*
X7836729Y-14556484D02*
X7874825Y-14556484D01*
X7874825Y-14556484D02*
X7893872Y-14546960D01*
X7893872Y-14546960D02*
X7903396Y-14537436D01*
X7903396Y-14537436D02*
X7922444Y-14508865D01*
X7922444Y-14508865D02*
X7931967Y-14470769D01*
X7931967Y-14470769D02*
X7931967Y-14394579D01*
X7931967Y-14394579D02*
X7922444Y-14375531D01*
X7922444Y-14375531D02*
X7912920Y-14366008D01*
X7912920Y-14366008D02*
X7893872Y-14356484D01*
X7893872Y-14356484D02*
X7855777Y-14356484D01*
X7855777Y-14356484D02*
X7836729Y-14366008D01*
X7836729Y-14366008D02*
X7827206Y-14375531D01*
X7827206Y-14375531D02*
X7817682Y-14394579D01*
X7817682Y-14394579D02*
X7817682Y-14442198D01*
X7817682Y-14442198D02*
X7827206Y-14461246D01*
X7827206Y-14461246D02*
X7836729Y-14470769D01*
X7836729Y-14470769D02*
X7855777Y-14480293D01*
X7855777Y-14480293D02*
X7893872Y-14480293D01*
X7893872Y-14480293D02*
X7912920Y-14470769D01*
X7912920Y-14470769D02*
X7922444Y-14461246D01*
X7922444Y-14461246D02*
X7931967Y-14442198D01*
X8103396Y-14423150D02*
X8103396Y-14556484D01*
X8055777Y-14346960D02*
X8008158Y-14489817D01*
X8008158Y-14489817D02*
X8131967Y-14489817D01*
X8198634Y-14356484D02*
X8198634Y-14394579D01*
X8274825Y-14356484D02*
X8274825Y-14394579D01*
X8570063Y-14632674D02*
X8560539Y-14623150D01*
X8560539Y-14623150D02*
X8541491Y-14594579D01*
X8541491Y-14594579D02*
X8531968Y-14575531D01*
X8531968Y-14575531D02*
X8522444Y-14546960D01*
X8522444Y-14546960D02*
X8512920Y-14499341D01*
X8512920Y-14499341D02*
X8512920Y-14461246D01*
X8512920Y-14461246D02*
X8522444Y-14413627D01*
X8522444Y-14413627D02*
X8531968Y-14385055D01*
X8531968Y-14385055D02*
X8541491Y-14366008D01*
X8541491Y-14366008D02*
X8560539Y-14337436D01*
X8560539Y-14337436D02*
X8570063Y-14327912D01*
X8684349Y-14356484D02*
X8703396Y-14356484D01*
X8703396Y-14356484D02*
X8722444Y-14366008D01*
X8722444Y-14366008D02*
X8731968Y-14375531D01*
X8731968Y-14375531D02*
X8741491Y-14394579D01*
X8741491Y-14394579D02*
X8751015Y-14432674D01*
X8751015Y-14432674D02*
X8751015Y-14480293D01*
X8751015Y-14480293D02*
X8741491Y-14518388D01*
X8741491Y-14518388D02*
X8731968Y-14537436D01*
X8731968Y-14537436D02*
X8722444Y-14546960D01*
X8722444Y-14546960D02*
X8703396Y-14556484D01*
X8703396Y-14556484D02*
X8684349Y-14556484D01*
X8684349Y-14556484D02*
X8665301Y-14546960D01*
X8665301Y-14546960D02*
X8655777Y-14537436D01*
X8655777Y-14537436D02*
X8646253Y-14518388D01*
X8646253Y-14518388D02*
X8636730Y-14480293D01*
X8636730Y-14480293D02*
X8636730Y-14432674D01*
X8636730Y-14432674D02*
X8646253Y-14394579D01*
X8646253Y-14394579D02*
X8655777Y-14375531D01*
X8655777Y-14375531D02*
X8665301Y-14366008D01*
X8665301Y-14366008D02*
X8684349Y-14356484D01*
X8989111Y-14556484D02*
X8989111Y-14356484D01*
X9074825Y-14556484D02*
X9074825Y-14451722D01*
X9074825Y-14451722D02*
X9065301Y-14432674D01*
X9065301Y-14432674D02*
X9046253Y-14423150D01*
X9046253Y-14423150D02*
X9017682Y-14423150D01*
X9017682Y-14423150D02*
X8998634Y-14432674D01*
X8998634Y-14432674D02*
X8989111Y-14442198D01*
X9198634Y-14556484D02*
X9179587Y-14546960D01*
X9179587Y-14546960D02*
X9170063Y-14537436D01*
X9170063Y-14537436D02*
X9160539Y-14518388D01*
X9160539Y-14518388D02*
X9160539Y-14461246D01*
X9160539Y-14461246D02*
X9170063Y-14442198D01*
X9170063Y-14442198D02*
X9179587Y-14432674D01*
X9179587Y-14432674D02*
X9198634Y-14423150D01*
X9198634Y-14423150D02*
X9227206Y-14423150D01*
X9227206Y-14423150D02*
X9246253Y-14432674D01*
X9246253Y-14432674D02*
X9255777Y-14442198D01*
X9255777Y-14442198D02*
X9265301Y-14461246D01*
X9265301Y-14461246D02*
X9265301Y-14518388D01*
X9265301Y-14518388D02*
X9255777Y-14537436D01*
X9255777Y-14537436D02*
X9246253Y-14546960D01*
X9246253Y-14546960D02*
X9227206Y-14556484D01*
X9227206Y-14556484D02*
X9198634Y-14556484D01*
X9379587Y-14556484D02*
X9360539Y-14546960D01*
X9360539Y-14546960D02*
X9351015Y-14527912D01*
X9351015Y-14527912D02*
X9351015Y-14356484D01*
X9531968Y-14546960D02*
X9512920Y-14556484D01*
X9512920Y-14556484D02*
X9474825Y-14556484D01*
X9474825Y-14556484D02*
X9455777Y-14546960D01*
X9455777Y-14546960D02*
X9446253Y-14527912D01*
X9446253Y-14527912D02*
X9446253Y-14451722D01*
X9446253Y-14451722D02*
X9455777Y-14432674D01*
X9455777Y-14432674D02*
X9474825Y-14423150D01*
X9474825Y-14423150D02*
X9512920Y-14423150D01*
X9512920Y-14423150D02*
X9531968Y-14432674D01*
X9531968Y-14432674D02*
X9541492Y-14451722D01*
X9541492Y-14451722D02*
X9541492Y-14470769D01*
X9541492Y-14470769D02*
X9446253Y-14489817D01*
X9617682Y-14546960D02*
X9636730Y-14556484D01*
X9636730Y-14556484D02*
X9674825Y-14556484D01*
X9674825Y-14556484D02*
X9693873Y-14546960D01*
X9693873Y-14546960D02*
X9703396Y-14527912D01*
X9703396Y-14527912D02*
X9703396Y-14518388D01*
X9703396Y-14518388D02*
X9693873Y-14499341D01*
X9693873Y-14499341D02*
X9674825Y-14489817D01*
X9674825Y-14489817D02*
X9646253Y-14489817D01*
X9646253Y-14489817D02*
X9627206Y-14480293D01*
X9627206Y-14480293D02*
X9617682Y-14461246D01*
X9617682Y-14461246D02*
X9617682Y-14451722D01*
X9617682Y-14451722D02*
X9627206Y-14432674D01*
X9627206Y-14432674D02*
X9646253Y-14423150D01*
X9646253Y-14423150D02*
X9674825Y-14423150D01*
X9674825Y-14423150D02*
X9693873Y-14432674D01*
X9941492Y-14480293D02*
X10093873Y-14480293D01*
X10017682Y-14556484D02*
X10017682Y-14404103D01*
X10322444Y-14356484D02*
X10446254Y-14356484D01*
X10446254Y-14356484D02*
X10379587Y-14432674D01*
X10379587Y-14432674D02*
X10408158Y-14432674D01*
X10408158Y-14432674D02*
X10427206Y-14442198D01*
X10427206Y-14442198D02*
X10436730Y-14451722D01*
X10436730Y-14451722D02*
X10446254Y-14470769D01*
X10446254Y-14470769D02*
X10446254Y-14518388D01*
X10446254Y-14518388D02*
X10436730Y-14537436D01*
X10436730Y-14537436D02*
X10427206Y-14546960D01*
X10427206Y-14546960D02*
X10408158Y-14556484D01*
X10408158Y-14556484D02*
X10351015Y-14556484D01*
X10351015Y-14556484D02*
X10331968Y-14546960D01*
X10331968Y-14546960D02*
X10322444Y-14537436D01*
X10674825Y-14546960D02*
X10693873Y-14556484D01*
X10693873Y-14556484D02*
X10731968Y-14556484D01*
X10731968Y-14556484D02*
X10751016Y-14546960D01*
X10751016Y-14546960D02*
X10760539Y-14527912D01*
X10760539Y-14527912D02*
X10760539Y-14518388D01*
X10760539Y-14518388D02*
X10751016Y-14499341D01*
X10751016Y-14499341D02*
X10731968Y-14489817D01*
X10731968Y-14489817D02*
X10703396Y-14489817D01*
X10703396Y-14489817D02*
X10684349Y-14480293D01*
X10684349Y-14480293D02*
X10674825Y-14461246D01*
X10674825Y-14461246D02*
X10674825Y-14451722D01*
X10674825Y-14451722D02*
X10684349Y-14432674D01*
X10684349Y-14432674D02*
X10703396Y-14423150D01*
X10703396Y-14423150D02*
X10731968Y-14423150D01*
X10731968Y-14423150D02*
X10751016Y-14432674D01*
X10874825Y-14556484D02*
X10855777Y-14546960D01*
X10855777Y-14546960D02*
X10846254Y-14527912D01*
X10846254Y-14527912D02*
X10846254Y-14356484D01*
X10979587Y-14556484D02*
X10960539Y-14546960D01*
X10960539Y-14546960D02*
X10951016Y-14537436D01*
X10951016Y-14537436D02*
X10941492Y-14518388D01*
X10941492Y-14518388D02*
X10941492Y-14461246D01*
X10941492Y-14461246D02*
X10951016Y-14442198D01*
X10951016Y-14442198D02*
X10960539Y-14432674D01*
X10960539Y-14432674D02*
X10979587Y-14423150D01*
X10979587Y-14423150D02*
X11008158Y-14423150D01*
X11008158Y-14423150D02*
X11027206Y-14432674D01*
X11027206Y-14432674D02*
X11036730Y-14442198D01*
X11036730Y-14442198D02*
X11046254Y-14461246D01*
X11046254Y-14461246D02*
X11046254Y-14518388D01*
X11046254Y-14518388D02*
X11036730Y-14537436D01*
X11036730Y-14537436D02*
X11027206Y-14546960D01*
X11027206Y-14546960D02*
X11008158Y-14556484D01*
X11008158Y-14556484D02*
X10979587Y-14556484D01*
X11103397Y-14423150D02*
X11179587Y-14423150D01*
X11131968Y-14356484D02*
X11131968Y-14527912D01*
X11131968Y-14527912D02*
X11141492Y-14546960D01*
X11141492Y-14546960D02*
X11160539Y-14556484D01*
X11160539Y-14556484D02*
X11179587Y-14556484D01*
X11236730Y-14546960D02*
X11255777Y-14556484D01*
X11255777Y-14556484D02*
X11293873Y-14556484D01*
X11293873Y-14556484D02*
X11312920Y-14546960D01*
X11312920Y-14546960D02*
X11322444Y-14527912D01*
X11322444Y-14527912D02*
X11322444Y-14518388D01*
X11322444Y-14518388D02*
X11312920Y-14499341D01*
X11312920Y-14499341D02*
X11293873Y-14489817D01*
X11293873Y-14489817D02*
X11265301Y-14489817D01*
X11265301Y-14489817D02*
X11246254Y-14480293D01*
X11246254Y-14480293D02*
X11236730Y-14461246D01*
X11236730Y-14461246D02*
X11236730Y-14451722D01*
X11236730Y-14451722D02*
X11246254Y-14432674D01*
X11246254Y-14432674D02*
X11265301Y-14423150D01*
X11265301Y-14423150D02*
X11293873Y-14423150D01*
X11293873Y-14423150D02*
X11312920Y-14432674D01*
X11389111Y-14632674D02*
X11398635Y-14623150D01*
X11398635Y-14623150D02*
X11417682Y-14594579D01*
X11417682Y-14594579D02*
X11427206Y-14575531D01*
X11427206Y-14575531D02*
X11436730Y-14546960D01*
X11436730Y-14546960D02*
X11446254Y-14499341D01*
X11446254Y-14499341D02*
X11446254Y-14461246D01*
X11446254Y-14461246D02*
X11436730Y-14413627D01*
X11436730Y-14413627D02*
X11427206Y-14385055D01*
X11427206Y-14385055D02*
X11417682Y-14366008D01*
X11417682Y-14366008D02*
X11398635Y-14337436D01*
X11398635Y-14337436D02*
X11389111Y-14327912D01*
D17*
X4894924Y-14678962D02*
X4995000Y-14779038D01*
X4995000Y-14678962D02*
X4894924Y-14779038D01*
X4944962Y-14678962D02*
X4944962Y-14779038D01*
X4894924Y-14729000D02*
X4995000Y-14729000D01*
D11*
X5360539Y-14820484D02*
X5246253Y-14820484D01*
X5303396Y-14820484D02*
X5303396Y-14620484D01*
X5303396Y-14620484D02*
X5284348Y-14649055D01*
X5284348Y-14649055D02*
X5265301Y-14668103D01*
X5265301Y-14668103D02*
X5246253Y-14677627D01*
X5446253Y-14801436D02*
X5455777Y-14810960D01*
X5455777Y-14810960D02*
X5446253Y-14820484D01*
X5446253Y-14820484D02*
X5436729Y-14810960D01*
X5436729Y-14810960D02*
X5446253Y-14801436D01*
X5446253Y-14801436D02*
X5446253Y-14820484D01*
X5579586Y-14620484D02*
X5598634Y-14620484D01*
X5598634Y-14620484D02*
X5617682Y-14630008D01*
X5617682Y-14630008D02*
X5627205Y-14639531D01*
X5627205Y-14639531D02*
X5636729Y-14658579D01*
X5636729Y-14658579D02*
X5646253Y-14696674D01*
X5646253Y-14696674D02*
X5646253Y-14744293D01*
X5646253Y-14744293D02*
X5636729Y-14782388D01*
X5636729Y-14782388D02*
X5627205Y-14801436D01*
X5627205Y-14801436D02*
X5617682Y-14810960D01*
X5617682Y-14810960D02*
X5598634Y-14820484D01*
X5598634Y-14820484D02*
X5579586Y-14820484D01*
X5579586Y-14820484D02*
X5560539Y-14810960D01*
X5560539Y-14810960D02*
X5551015Y-14801436D01*
X5551015Y-14801436D02*
X5541491Y-14782388D01*
X5541491Y-14782388D02*
X5531967Y-14744293D01*
X5531967Y-14744293D02*
X5531967Y-14696674D01*
X5531967Y-14696674D02*
X5541491Y-14658579D01*
X5541491Y-14658579D02*
X5551015Y-14639531D01*
X5551015Y-14639531D02*
X5560539Y-14630008D01*
X5560539Y-14630008D02*
X5579586Y-14620484D01*
X5770062Y-14620484D02*
X5789110Y-14620484D01*
X5789110Y-14620484D02*
X5808158Y-14630008D01*
X5808158Y-14630008D02*
X5817682Y-14639531D01*
X5817682Y-14639531D02*
X5827205Y-14658579D01*
X5827205Y-14658579D02*
X5836729Y-14696674D01*
X5836729Y-14696674D02*
X5836729Y-14744293D01*
X5836729Y-14744293D02*
X5827205Y-14782388D01*
X5827205Y-14782388D02*
X5817682Y-14801436D01*
X5817682Y-14801436D02*
X5808158Y-14810960D01*
X5808158Y-14810960D02*
X5789110Y-14820484D01*
X5789110Y-14820484D02*
X5770062Y-14820484D01*
X5770062Y-14820484D02*
X5751015Y-14810960D01*
X5751015Y-14810960D02*
X5741491Y-14801436D01*
X5741491Y-14801436D02*
X5731967Y-14782388D01*
X5731967Y-14782388D02*
X5722443Y-14744293D01*
X5722443Y-14744293D02*
X5722443Y-14696674D01*
X5722443Y-14696674D02*
X5731967Y-14658579D01*
X5731967Y-14658579D02*
X5741491Y-14639531D01*
X5741491Y-14639531D02*
X5751015Y-14630008D01*
X5751015Y-14630008D02*
X5770062Y-14620484D01*
X6027205Y-14820484D02*
X5912920Y-14820484D01*
X5970062Y-14820484D02*
X5970062Y-14620484D01*
X5970062Y-14620484D02*
X5951015Y-14649055D01*
X5951015Y-14649055D02*
X5931967Y-14668103D01*
X5931967Y-14668103D02*
X5912920Y-14677627D01*
X6112920Y-14820484D02*
X6112920Y-14687150D01*
X6112920Y-14706198D02*
X6122443Y-14696674D01*
X6122443Y-14696674D02*
X6141491Y-14687150D01*
X6141491Y-14687150D02*
X6170063Y-14687150D01*
X6170063Y-14687150D02*
X6189110Y-14696674D01*
X6189110Y-14696674D02*
X6198634Y-14715722D01*
X6198634Y-14715722D02*
X6198634Y-14820484D01*
X6198634Y-14715722D02*
X6208158Y-14696674D01*
X6208158Y-14696674D02*
X6227205Y-14687150D01*
X6227205Y-14687150D02*
X6255777Y-14687150D01*
X6255777Y-14687150D02*
X6274824Y-14696674D01*
X6274824Y-14696674D02*
X6284348Y-14715722D01*
X6284348Y-14715722D02*
X6284348Y-14820484D01*
X6379586Y-14820484D02*
X6379586Y-14687150D01*
X6379586Y-14706198D02*
X6389110Y-14696674D01*
X6389110Y-14696674D02*
X6408158Y-14687150D01*
X6408158Y-14687150D02*
X6436729Y-14687150D01*
X6436729Y-14687150D02*
X6455777Y-14696674D01*
X6455777Y-14696674D02*
X6465301Y-14715722D01*
X6465301Y-14715722D02*
X6465301Y-14820484D01*
X6465301Y-14715722D02*
X6474824Y-14696674D01*
X6474824Y-14696674D02*
X6493872Y-14687150D01*
X6493872Y-14687150D02*
X6522443Y-14687150D01*
X6522443Y-14687150D02*
X6541491Y-14696674D01*
X6541491Y-14696674D02*
X6551015Y-14715722D01*
X6551015Y-14715722D02*
X6551015Y-14820484D01*
X6941491Y-14610960D02*
X6770063Y-14868103D01*
X7198634Y-14620484D02*
X7217682Y-14620484D01*
X7217682Y-14620484D02*
X7236729Y-14630008D01*
X7236729Y-14630008D02*
X7246253Y-14639531D01*
X7246253Y-14639531D02*
X7255777Y-14658579D01*
X7255777Y-14658579D02*
X7265301Y-14696674D01*
X7265301Y-14696674D02*
X7265301Y-14744293D01*
X7265301Y-14744293D02*
X7255777Y-14782388D01*
X7255777Y-14782388D02*
X7246253Y-14801436D01*
X7246253Y-14801436D02*
X7236729Y-14810960D01*
X7236729Y-14810960D02*
X7217682Y-14820484D01*
X7217682Y-14820484D02*
X7198634Y-14820484D01*
X7198634Y-14820484D02*
X7179586Y-14810960D01*
X7179586Y-14810960D02*
X7170063Y-14801436D01*
X7170063Y-14801436D02*
X7160539Y-14782388D01*
X7160539Y-14782388D02*
X7151015Y-14744293D01*
X7151015Y-14744293D02*
X7151015Y-14696674D01*
X7151015Y-14696674D02*
X7160539Y-14658579D01*
X7160539Y-14658579D02*
X7170063Y-14639531D01*
X7170063Y-14639531D02*
X7179586Y-14630008D01*
X7179586Y-14630008D02*
X7198634Y-14620484D01*
X7351015Y-14801436D02*
X7360539Y-14810960D01*
X7360539Y-14810960D02*
X7351015Y-14820484D01*
X7351015Y-14820484D02*
X7341491Y-14810960D01*
X7341491Y-14810960D02*
X7351015Y-14801436D01*
X7351015Y-14801436D02*
X7351015Y-14820484D01*
X7484348Y-14620484D02*
X7503396Y-14620484D01*
X7503396Y-14620484D02*
X7522444Y-14630008D01*
X7522444Y-14630008D02*
X7531967Y-14639531D01*
X7531967Y-14639531D02*
X7541491Y-14658579D01*
X7541491Y-14658579D02*
X7551015Y-14696674D01*
X7551015Y-14696674D02*
X7551015Y-14744293D01*
X7551015Y-14744293D02*
X7541491Y-14782388D01*
X7541491Y-14782388D02*
X7531967Y-14801436D01*
X7531967Y-14801436D02*
X7522444Y-14810960D01*
X7522444Y-14810960D02*
X7503396Y-14820484D01*
X7503396Y-14820484D02*
X7484348Y-14820484D01*
X7484348Y-14820484D02*
X7465301Y-14810960D01*
X7465301Y-14810960D02*
X7455777Y-14801436D01*
X7455777Y-14801436D02*
X7446253Y-14782388D01*
X7446253Y-14782388D02*
X7436729Y-14744293D01*
X7436729Y-14744293D02*
X7436729Y-14696674D01*
X7436729Y-14696674D02*
X7446253Y-14658579D01*
X7446253Y-14658579D02*
X7455777Y-14639531D01*
X7455777Y-14639531D02*
X7465301Y-14630008D01*
X7465301Y-14630008D02*
X7484348Y-14620484D01*
X7617682Y-14620484D02*
X7741491Y-14620484D01*
X7741491Y-14620484D02*
X7674825Y-14696674D01*
X7674825Y-14696674D02*
X7703396Y-14696674D01*
X7703396Y-14696674D02*
X7722444Y-14706198D01*
X7722444Y-14706198D02*
X7731967Y-14715722D01*
X7731967Y-14715722D02*
X7741491Y-14734769D01*
X7741491Y-14734769D02*
X7741491Y-14782388D01*
X7741491Y-14782388D02*
X7731967Y-14801436D01*
X7731967Y-14801436D02*
X7722444Y-14810960D01*
X7722444Y-14810960D02*
X7703396Y-14820484D01*
X7703396Y-14820484D02*
X7646253Y-14820484D01*
X7646253Y-14820484D02*
X7627206Y-14810960D01*
X7627206Y-14810960D02*
X7617682Y-14801436D01*
X7836729Y-14820484D02*
X7874825Y-14820484D01*
X7874825Y-14820484D02*
X7893872Y-14810960D01*
X7893872Y-14810960D02*
X7903396Y-14801436D01*
X7903396Y-14801436D02*
X7922444Y-14772865D01*
X7922444Y-14772865D02*
X7931967Y-14734769D01*
X7931967Y-14734769D02*
X7931967Y-14658579D01*
X7931967Y-14658579D02*
X7922444Y-14639531D01*
X7922444Y-14639531D02*
X7912920Y-14630008D01*
X7912920Y-14630008D02*
X7893872Y-14620484D01*
X7893872Y-14620484D02*
X7855777Y-14620484D01*
X7855777Y-14620484D02*
X7836729Y-14630008D01*
X7836729Y-14630008D02*
X7827206Y-14639531D01*
X7827206Y-14639531D02*
X7817682Y-14658579D01*
X7817682Y-14658579D02*
X7817682Y-14706198D01*
X7817682Y-14706198D02*
X7827206Y-14725246D01*
X7827206Y-14725246D02*
X7836729Y-14734769D01*
X7836729Y-14734769D02*
X7855777Y-14744293D01*
X7855777Y-14744293D02*
X7893872Y-14744293D01*
X7893872Y-14744293D02*
X7912920Y-14734769D01*
X7912920Y-14734769D02*
X7922444Y-14725246D01*
X7922444Y-14725246D02*
X7931967Y-14706198D01*
X8103396Y-14687150D02*
X8103396Y-14820484D01*
X8055777Y-14610960D02*
X8008158Y-14753817D01*
X8008158Y-14753817D02*
X8131967Y-14753817D01*
X8198634Y-14620484D02*
X8198634Y-14658579D01*
X8274825Y-14620484D02*
X8274825Y-14658579D01*
X8570063Y-14896674D02*
X8560539Y-14887150D01*
X8560539Y-14887150D02*
X8541491Y-14858579D01*
X8541491Y-14858579D02*
X8531968Y-14839531D01*
X8531968Y-14839531D02*
X8522444Y-14810960D01*
X8522444Y-14810960D02*
X8512920Y-14763341D01*
X8512920Y-14763341D02*
X8512920Y-14725246D01*
X8512920Y-14725246D02*
X8522444Y-14677627D01*
X8522444Y-14677627D02*
X8531968Y-14649055D01*
X8531968Y-14649055D02*
X8541491Y-14630008D01*
X8541491Y-14630008D02*
X8560539Y-14601436D01*
X8560539Y-14601436D02*
X8570063Y-14591912D01*
X8636730Y-14639531D02*
X8646253Y-14630008D01*
X8646253Y-14630008D02*
X8665301Y-14620484D01*
X8665301Y-14620484D02*
X8712920Y-14620484D01*
X8712920Y-14620484D02*
X8731968Y-14630008D01*
X8731968Y-14630008D02*
X8741491Y-14639531D01*
X8741491Y-14639531D02*
X8751015Y-14658579D01*
X8751015Y-14658579D02*
X8751015Y-14677627D01*
X8751015Y-14677627D02*
X8741491Y-14706198D01*
X8741491Y-14706198D02*
X8627206Y-14820484D01*
X8627206Y-14820484D02*
X8751015Y-14820484D01*
X8989111Y-14820484D02*
X8989111Y-14620484D01*
X9074825Y-14820484D02*
X9074825Y-14715722D01*
X9074825Y-14715722D02*
X9065301Y-14696674D01*
X9065301Y-14696674D02*
X9046253Y-14687150D01*
X9046253Y-14687150D02*
X9017682Y-14687150D01*
X9017682Y-14687150D02*
X8998634Y-14696674D01*
X8998634Y-14696674D02*
X8989111Y-14706198D01*
X9198634Y-14820484D02*
X9179587Y-14810960D01*
X9179587Y-14810960D02*
X9170063Y-14801436D01*
X9170063Y-14801436D02*
X9160539Y-14782388D01*
X9160539Y-14782388D02*
X9160539Y-14725246D01*
X9160539Y-14725246D02*
X9170063Y-14706198D01*
X9170063Y-14706198D02*
X9179587Y-14696674D01*
X9179587Y-14696674D02*
X9198634Y-14687150D01*
X9198634Y-14687150D02*
X9227206Y-14687150D01*
X9227206Y-14687150D02*
X9246253Y-14696674D01*
X9246253Y-14696674D02*
X9255777Y-14706198D01*
X9255777Y-14706198D02*
X9265301Y-14725246D01*
X9265301Y-14725246D02*
X9265301Y-14782388D01*
X9265301Y-14782388D02*
X9255777Y-14801436D01*
X9255777Y-14801436D02*
X9246253Y-14810960D01*
X9246253Y-14810960D02*
X9227206Y-14820484D01*
X9227206Y-14820484D02*
X9198634Y-14820484D01*
X9379587Y-14820484D02*
X9360539Y-14810960D01*
X9360539Y-14810960D02*
X9351015Y-14791912D01*
X9351015Y-14791912D02*
X9351015Y-14620484D01*
X9531968Y-14810960D02*
X9512920Y-14820484D01*
X9512920Y-14820484D02*
X9474825Y-14820484D01*
X9474825Y-14820484D02*
X9455777Y-14810960D01*
X9455777Y-14810960D02*
X9446253Y-14791912D01*
X9446253Y-14791912D02*
X9446253Y-14715722D01*
X9446253Y-14715722D02*
X9455777Y-14696674D01*
X9455777Y-14696674D02*
X9474825Y-14687150D01*
X9474825Y-14687150D02*
X9512920Y-14687150D01*
X9512920Y-14687150D02*
X9531968Y-14696674D01*
X9531968Y-14696674D02*
X9541492Y-14715722D01*
X9541492Y-14715722D02*
X9541492Y-14734769D01*
X9541492Y-14734769D02*
X9446253Y-14753817D01*
X9617682Y-14810960D02*
X9636730Y-14820484D01*
X9636730Y-14820484D02*
X9674825Y-14820484D01*
X9674825Y-14820484D02*
X9693873Y-14810960D01*
X9693873Y-14810960D02*
X9703396Y-14791912D01*
X9703396Y-14791912D02*
X9703396Y-14782388D01*
X9703396Y-14782388D02*
X9693873Y-14763341D01*
X9693873Y-14763341D02*
X9674825Y-14753817D01*
X9674825Y-14753817D02*
X9646253Y-14753817D01*
X9646253Y-14753817D02*
X9627206Y-14744293D01*
X9627206Y-14744293D02*
X9617682Y-14725246D01*
X9617682Y-14725246D02*
X9617682Y-14715722D01*
X9617682Y-14715722D02*
X9627206Y-14696674D01*
X9627206Y-14696674D02*
X9646253Y-14687150D01*
X9646253Y-14687150D02*
X9674825Y-14687150D01*
X9674825Y-14687150D02*
X9693873Y-14696674D01*
X9770063Y-14896674D02*
X9779587Y-14887150D01*
X9779587Y-14887150D02*
X9798634Y-14858579D01*
X9798634Y-14858579D02*
X9808158Y-14839531D01*
X9808158Y-14839531D02*
X9817682Y-14810960D01*
X9817682Y-14810960D02*
X9827206Y-14763341D01*
X9827206Y-14763341D02*
X9827206Y-14725246D01*
X9827206Y-14725246D02*
X9817682Y-14677627D01*
X9817682Y-14677627D02*
X9808158Y-14649055D01*
X9808158Y-14649055D02*
X9798634Y-14630008D01*
X9798634Y-14630008D02*
X9779587Y-14601436D01*
X9779587Y-14601436D02*
X9770063Y-14591912D01*
D18*
X4885000Y-14938000D02*
X4995000Y-15048000D01*
X4995000Y-14938000D02*
X4885000Y-15048000D01*
X4978891Y-15031891D02*
X4978891Y-14954109D01*
X4901109Y-14954109D01*
X4901109Y-15031891D01*
X4978891Y-15031891D01*
D11*
X5360539Y-15084484D02*
X5246253Y-15084484D01*
X5303396Y-15084484D02*
X5303396Y-14884484D01*
X5303396Y-14884484D02*
X5284348Y-14913055D01*
X5284348Y-14913055D02*
X5265301Y-14932103D01*
X5265301Y-14932103D02*
X5246253Y-14941627D01*
X5446253Y-15065436D02*
X5455777Y-15074960D01*
X5455777Y-15074960D02*
X5446253Y-15084484D01*
X5446253Y-15084484D02*
X5436729Y-15074960D01*
X5436729Y-15074960D02*
X5446253Y-15065436D01*
X5446253Y-15065436D02*
X5446253Y-15084484D01*
X5646253Y-15084484D02*
X5531967Y-15084484D01*
X5589110Y-15084484D02*
X5589110Y-14884484D01*
X5589110Y-14884484D02*
X5570063Y-14913055D01*
X5570063Y-14913055D02*
X5551015Y-14932103D01*
X5551015Y-14932103D02*
X5531967Y-14941627D01*
X5770062Y-14884484D02*
X5789110Y-14884484D01*
X5789110Y-14884484D02*
X5808158Y-14894008D01*
X5808158Y-14894008D02*
X5817682Y-14903531D01*
X5817682Y-14903531D02*
X5827205Y-14922579D01*
X5827205Y-14922579D02*
X5836729Y-14960674D01*
X5836729Y-14960674D02*
X5836729Y-15008293D01*
X5836729Y-15008293D02*
X5827205Y-15046388D01*
X5827205Y-15046388D02*
X5817682Y-15065436D01*
X5817682Y-15065436D02*
X5808158Y-15074960D01*
X5808158Y-15074960D02*
X5789110Y-15084484D01*
X5789110Y-15084484D02*
X5770062Y-15084484D01*
X5770062Y-15084484D02*
X5751015Y-15074960D01*
X5751015Y-15074960D02*
X5741491Y-15065436D01*
X5741491Y-15065436D02*
X5731967Y-15046388D01*
X5731967Y-15046388D02*
X5722443Y-15008293D01*
X5722443Y-15008293D02*
X5722443Y-14960674D01*
X5722443Y-14960674D02*
X5731967Y-14922579D01*
X5731967Y-14922579D02*
X5741491Y-14903531D01*
X5741491Y-14903531D02*
X5751015Y-14894008D01*
X5751015Y-14894008D02*
X5770062Y-14884484D01*
X5960539Y-14884484D02*
X5979586Y-14884484D01*
X5979586Y-14884484D02*
X5998634Y-14894008D01*
X5998634Y-14894008D02*
X6008158Y-14903531D01*
X6008158Y-14903531D02*
X6017682Y-14922579D01*
X6017682Y-14922579D02*
X6027205Y-14960674D01*
X6027205Y-14960674D02*
X6027205Y-15008293D01*
X6027205Y-15008293D02*
X6017682Y-15046388D01*
X6017682Y-15046388D02*
X6008158Y-15065436D01*
X6008158Y-15065436D02*
X5998634Y-15074960D01*
X5998634Y-15074960D02*
X5979586Y-15084484D01*
X5979586Y-15084484D02*
X5960539Y-15084484D01*
X5960539Y-15084484D02*
X5941491Y-15074960D01*
X5941491Y-15074960D02*
X5931967Y-15065436D01*
X5931967Y-15065436D02*
X5922443Y-15046388D01*
X5922443Y-15046388D02*
X5912920Y-15008293D01*
X5912920Y-15008293D02*
X5912920Y-14960674D01*
X5912920Y-14960674D02*
X5922443Y-14922579D01*
X5922443Y-14922579D02*
X5931967Y-14903531D01*
X5931967Y-14903531D02*
X5941491Y-14894008D01*
X5941491Y-14894008D02*
X5960539Y-14884484D01*
X6112920Y-15084484D02*
X6112920Y-14951150D01*
X6112920Y-14970198D02*
X6122443Y-14960674D01*
X6122443Y-14960674D02*
X6141491Y-14951150D01*
X6141491Y-14951150D02*
X6170063Y-14951150D01*
X6170063Y-14951150D02*
X6189110Y-14960674D01*
X6189110Y-14960674D02*
X6198634Y-14979722D01*
X6198634Y-14979722D02*
X6198634Y-15084484D01*
X6198634Y-14979722D02*
X6208158Y-14960674D01*
X6208158Y-14960674D02*
X6227205Y-14951150D01*
X6227205Y-14951150D02*
X6255777Y-14951150D01*
X6255777Y-14951150D02*
X6274824Y-14960674D01*
X6274824Y-14960674D02*
X6284348Y-14979722D01*
X6284348Y-14979722D02*
X6284348Y-15084484D01*
X6379586Y-15084484D02*
X6379586Y-14951150D01*
X6379586Y-14970198D02*
X6389110Y-14960674D01*
X6389110Y-14960674D02*
X6408158Y-14951150D01*
X6408158Y-14951150D02*
X6436729Y-14951150D01*
X6436729Y-14951150D02*
X6455777Y-14960674D01*
X6455777Y-14960674D02*
X6465301Y-14979722D01*
X6465301Y-14979722D02*
X6465301Y-15084484D01*
X6465301Y-14979722D02*
X6474824Y-14960674D01*
X6474824Y-14960674D02*
X6493872Y-14951150D01*
X6493872Y-14951150D02*
X6522443Y-14951150D01*
X6522443Y-14951150D02*
X6541491Y-14960674D01*
X6541491Y-14960674D02*
X6551015Y-14979722D01*
X6551015Y-14979722D02*
X6551015Y-15084484D01*
X6941491Y-14874960D02*
X6770063Y-15132103D01*
X7198634Y-14884484D02*
X7217682Y-14884484D01*
X7217682Y-14884484D02*
X7236729Y-14894008D01*
X7236729Y-14894008D02*
X7246253Y-14903531D01*
X7246253Y-14903531D02*
X7255777Y-14922579D01*
X7255777Y-14922579D02*
X7265301Y-14960674D01*
X7265301Y-14960674D02*
X7265301Y-15008293D01*
X7265301Y-15008293D02*
X7255777Y-15046388D01*
X7255777Y-15046388D02*
X7246253Y-15065436D01*
X7246253Y-15065436D02*
X7236729Y-15074960D01*
X7236729Y-15074960D02*
X7217682Y-15084484D01*
X7217682Y-15084484D02*
X7198634Y-15084484D01*
X7198634Y-15084484D02*
X7179586Y-15074960D01*
X7179586Y-15074960D02*
X7170063Y-15065436D01*
X7170063Y-15065436D02*
X7160539Y-15046388D01*
X7160539Y-15046388D02*
X7151015Y-15008293D01*
X7151015Y-15008293D02*
X7151015Y-14960674D01*
X7151015Y-14960674D02*
X7160539Y-14922579D01*
X7160539Y-14922579D02*
X7170063Y-14903531D01*
X7170063Y-14903531D02*
X7179586Y-14894008D01*
X7179586Y-14894008D02*
X7198634Y-14884484D01*
X7351015Y-15065436D02*
X7360539Y-15074960D01*
X7360539Y-15074960D02*
X7351015Y-15084484D01*
X7351015Y-15084484D02*
X7341491Y-15074960D01*
X7341491Y-15074960D02*
X7351015Y-15065436D01*
X7351015Y-15065436D02*
X7351015Y-15084484D01*
X7484348Y-14884484D02*
X7503396Y-14884484D01*
X7503396Y-14884484D02*
X7522444Y-14894008D01*
X7522444Y-14894008D02*
X7531967Y-14903531D01*
X7531967Y-14903531D02*
X7541491Y-14922579D01*
X7541491Y-14922579D02*
X7551015Y-14960674D01*
X7551015Y-14960674D02*
X7551015Y-15008293D01*
X7551015Y-15008293D02*
X7541491Y-15046388D01*
X7541491Y-15046388D02*
X7531967Y-15065436D01*
X7531967Y-15065436D02*
X7522444Y-15074960D01*
X7522444Y-15074960D02*
X7503396Y-15084484D01*
X7503396Y-15084484D02*
X7484348Y-15084484D01*
X7484348Y-15084484D02*
X7465301Y-15074960D01*
X7465301Y-15074960D02*
X7455777Y-15065436D01*
X7455777Y-15065436D02*
X7446253Y-15046388D01*
X7446253Y-15046388D02*
X7436729Y-15008293D01*
X7436729Y-15008293D02*
X7436729Y-14960674D01*
X7436729Y-14960674D02*
X7446253Y-14922579D01*
X7446253Y-14922579D02*
X7455777Y-14903531D01*
X7455777Y-14903531D02*
X7465301Y-14894008D01*
X7465301Y-14894008D02*
X7484348Y-14884484D01*
X7722444Y-14951150D02*
X7722444Y-15084484D01*
X7674825Y-14874960D02*
X7627206Y-15017817D01*
X7627206Y-15017817D02*
X7751015Y-15017817D01*
X7808158Y-14884484D02*
X7931967Y-14884484D01*
X7931967Y-14884484D02*
X7865301Y-14960674D01*
X7865301Y-14960674D02*
X7893872Y-14960674D01*
X7893872Y-14960674D02*
X7912920Y-14970198D01*
X7912920Y-14970198D02*
X7922444Y-14979722D01*
X7922444Y-14979722D02*
X7931967Y-14998769D01*
X7931967Y-14998769D02*
X7931967Y-15046388D01*
X7931967Y-15046388D02*
X7922444Y-15065436D01*
X7922444Y-15065436D02*
X7912920Y-15074960D01*
X7912920Y-15074960D02*
X7893872Y-15084484D01*
X7893872Y-15084484D02*
X7836729Y-15084484D01*
X7836729Y-15084484D02*
X7817682Y-15074960D01*
X7817682Y-15074960D02*
X7808158Y-15065436D01*
X7998634Y-14884484D02*
X8122444Y-14884484D01*
X8122444Y-14884484D02*
X8055777Y-14960674D01*
X8055777Y-14960674D02*
X8084348Y-14960674D01*
X8084348Y-14960674D02*
X8103396Y-14970198D01*
X8103396Y-14970198D02*
X8112920Y-14979722D01*
X8112920Y-14979722D02*
X8122444Y-14998769D01*
X8122444Y-14998769D02*
X8122444Y-15046388D01*
X8122444Y-15046388D02*
X8112920Y-15065436D01*
X8112920Y-15065436D02*
X8103396Y-15074960D01*
X8103396Y-15074960D02*
X8084348Y-15084484D01*
X8084348Y-15084484D02*
X8027206Y-15084484D01*
X8027206Y-15084484D02*
X8008158Y-15074960D01*
X8008158Y-15074960D02*
X7998634Y-15065436D01*
X8198634Y-14884484D02*
X8198634Y-14922579D01*
X8274825Y-14884484D02*
X8274825Y-14922579D01*
X8570063Y-15160674D02*
X8560539Y-15151150D01*
X8560539Y-15151150D02*
X8541491Y-15122579D01*
X8541491Y-15122579D02*
X8531968Y-15103531D01*
X8531968Y-15103531D02*
X8522444Y-15074960D01*
X8522444Y-15074960D02*
X8512920Y-15027341D01*
X8512920Y-15027341D02*
X8512920Y-14989246D01*
X8512920Y-14989246D02*
X8522444Y-14941627D01*
X8522444Y-14941627D02*
X8531968Y-14913055D01*
X8531968Y-14913055D02*
X8541491Y-14894008D01*
X8541491Y-14894008D02*
X8560539Y-14865436D01*
X8560539Y-14865436D02*
X8570063Y-14855912D01*
X8627206Y-14884484D02*
X8751015Y-14884484D01*
X8751015Y-14884484D02*
X8684349Y-14960674D01*
X8684349Y-14960674D02*
X8712920Y-14960674D01*
X8712920Y-14960674D02*
X8731968Y-14970198D01*
X8731968Y-14970198D02*
X8741491Y-14979722D01*
X8741491Y-14979722D02*
X8751015Y-14998769D01*
X8751015Y-14998769D02*
X8751015Y-15046388D01*
X8751015Y-15046388D02*
X8741491Y-15065436D01*
X8741491Y-15065436D02*
X8731968Y-15074960D01*
X8731968Y-15074960D02*
X8712920Y-15084484D01*
X8712920Y-15084484D02*
X8655777Y-15084484D01*
X8655777Y-15084484D02*
X8636730Y-15074960D01*
X8636730Y-15074960D02*
X8627206Y-15065436D01*
X8989111Y-15084484D02*
X8989111Y-14884484D01*
X9074825Y-15084484D02*
X9074825Y-14979722D01*
X9074825Y-14979722D02*
X9065301Y-14960674D01*
X9065301Y-14960674D02*
X9046253Y-14951150D01*
X9046253Y-14951150D02*
X9017682Y-14951150D01*
X9017682Y-14951150D02*
X8998634Y-14960674D01*
X8998634Y-14960674D02*
X8989111Y-14970198D01*
X9198634Y-15084484D02*
X9179587Y-15074960D01*
X9179587Y-15074960D02*
X9170063Y-15065436D01*
X9170063Y-15065436D02*
X9160539Y-15046388D01*
X9160539Y-15046388D02*
X9160539Y-14989246D01*
X9160539Y-14989246D02*
X9170063Y-14970198D01*
X9170063Y-14970198D02*
X9179587Y-14960674D01*
X9179587Y-14960674D02*
X9198634Y-14951150D01*
X9198634Y-14951150D02*
X9227206Y-14951150D01*
X9227206Y-14951150D02*
X9246253Y-14960674D01*
X9246253Y-14960674D02*
X9255777Y-14970198D01*
X9255777Y-14970198D02*
X9265301Y-14989246D01*
X9265301Y-14989246D02*
X9265301Y-15046388D01*
X9265301Y-15046388D02*
X9255777Y-15065436D01*
X9255777Y-15065436D02*
X9246253Y-15074960D01*
X9246253Y-15074960D02*
X9227206Y-15084484D01*
X9227206Y-15084484D02*
X9198634Y-15084484D01*
X9379587Y-15084484D02*
X9360539Y-15074960D01*
X9360539Y-15074960D02*
X9351015Y-15055912D01*
X9351015Y-15055912D02*
X9351015Y-14884484D01*
X9531968Y-15074960D02*
X9512920Y-15084484D01*
X9512920Y-15084484D02*
X9474825Y-15084484D01*
X9474825Y-15084484D02*
X9455777Y-15074960D01*
X9455777Y-15074960D02*
X9446253Y-15055912D01*
X9446253Y-15055912D02*
X9446253Y-14979722D01*
X9446253Y-14979722D02*
X9455777Y-14960674D01*
X9455777Y-14960674D02*
X9474825Y-14951150D01*
X9474825Y-14951150D02*
X9512920Y-14951150D01*
X9512920Y-14951150D02*
X9531968Y-14960674D01*
X9531968Y-14960674D02*
X9541492Y-14979722D01*
X9541492Y-14979722D02*
X9541492Y-14998769D01*
X9541492Y-14998769D02*
X9446253Y-15017817D01*
X9617682Y-15074960D02*
X9636730Y-15084484D01*
X9636730Y-15084484D02*
X9674825Y-15084484D01*
X9674825Y-15084484D02*
X9693873Y-15074960D01*
X9693873Y-15074960D02*
X9703396Y-15055912D01*
X9703396Y-15055912D02*
X9703396Y-15046388D01*
X9703396Y-15046388D02*
X9693873Y-15027341D01*
X9693873Y-15027341D02*
X9674825Y-15017817D01*
X9674825Y-15017817D02*
X9646253Y-15017817D01*
X9646253Y-15017817D02*
X9627206Y-15008293D01*
X9627206Y-15008293D02*
X9617682Y-14989246D01*
X9617682Y-14989246D02*
X9617682Y-14979722D01*
X9617682Y-14979722D02*
X9627206Y-14960674D01*
X9627206Y-14960674D02*
X9646253Y-14951150D01*
X9646253Y-14951150D02*
X9674825Y-14951150D01*
X9674825Y-14951150D02*
X9693873Y-14960674D01*
X9770063Y-15160674D02*
X9779587Y-15151150D01*
X9779587Y-15151150D02*
X9798634Y-15122579D01*
X9798634Y-15122579D02*
X9808158Y-15103531D01*
X9808158Y-15103531D02*
X9817682Y-15074960D01*
X9817682Y-15074960D02*
X9827206Y-15027341D01*
X9827206Y-15027341D02*
X9827206Y-14989246D01*
X9827206Y-14989246D02*
X9817682Y-14941627D01*
X9817682Y-14941627D02*
X9808158Y-14913055D01*
X9808158Y-14913055D02*
X9798634Y-14894008D01*
X9798634Y-14894008D02*
X9779587Y-14865436D01*
X9779587Y-14865436D02*
X9770063Y-14855912D01*
D19*
X4810000Y-15164500D02*
X4995000Y-15349500D01*
X4995000Y-15164500D02*
X4810000Y-15349500D01*
X4902500Y-15349500D02*
X4995000Y-15257000D01*
X4902500Y-15164500D01*
X4810000Y-15257000D01*
X4902500Y-15349500D01*
D11*
X5360539Y-15348484D02*
X5246253Y-15348484D01*
X5303396Y-15348484D02*
X5303396Y-15148484D01*
X5303396Y-15148484D02*
X5284348Y-15177055D01*
X5284348Y-15177055D02*
X5265301Y-15196103D01*
X5265301Y-15196103D02*
X5246253Y-15205627D01*
X5446253Y-15329436D02*
X5455777Y-15338960D01*
X5455777Y-15338960D02*
X5446253Y-15348484D01*
X5446253Y-15348484D02*
X5436729Y-15338960D01*
X5436729Y-15338960D02*
X5446253Y-15329436D01*
X5446253Y-15329436D02*
X5446253Y-15348484D01*
X5570063Y-15234198D02*
X5551015Y-15224674D01*
X5551015Y-15224674D02*
X5541491Y-15215150D01*
X5541491Y-15215150D02*
X5531967Y-15196103D01*
X5531967Y-15196103D02*
X5531967Y-15186579D01*
X5531967Y-15186579D02*
X5541491Y-15167531D01*
X5541491Y-15167531D02*
X5551015Y-15158008D01*
X5551015Y-15158008D02*
X5570063Y-15148484D01*
X5570063Y-15148484D02*
X5608158Y-15148484D01*
X5608158Y-15148484D02*
X5627205Y-15158008D01*
X5627205Y-15158008D02*
X5636729Y-15167531D01*
X5636729Y-15167531D02*
X5646253Y-15186579D01*
X5646253Y-15186579D02*
X5646253Y-15196103D01*
X5646253Y-15196103D02*
X5636729Y-15215150D01*
X5636729Y-15215150D02*
X5627205Y-15224674D01*
X5627205Y-15224674D02*
X5608158Y-15234198D01*
X5608158Y-15234198D02*
X5570063Y-15234198D01*
X5570063Y-15234198D02*
X5551015Y-15243722D01*
X5551015Y-15243722D02*
X5541491Y-15253246D01*
X5541491Y-15253246D02*
X5531967Y-15272293D01*
X5531967Y-15272293D02*
X5531967Y-15310388D01*
X5531967Y-15310388D02*
X5541491Y-15329436D01*
X5541491Y-15329436D02*
X5551015Y-15338960D01*
X5551015Y-15338960D02*
X5570063Y-15348484D01*
X5570063Y-15348484D02*
X5608158Y-15348484D01*
X5608158Y-15348484D02*
X5627205Y-15338960D01*
X5627205Y-15338960D02*
X5636729Y-15329436D01*
X5636729Y-15329436D02*
X5646253Y-15310388D01*
X5646253Y-15310388D02*
X5646253Y-15272293D01*
X5646253Y-15272293D02*
X5636729Y-15253246D01*
X5636729Y-15253246D02*
X5627205Y-15243722D01*
X5627205Y-15243722D02*
X5608158Y-15234198D01*
X5827205Y-15148484D02*
X5731967Y-15148484D01*
X5731967Y-15148484D02*
X5722443Y-15243722D01*
X5722443Y-15243722D02*
X5731967Y-15234198D01*
X5731967Y-15234198D02*
X5751015Y-15224674D01*
X5751015Y-15224674D02*
X5798634Y-15224674D01*
X5798634Y-15224674D02*
X5817682Y-15234198D01*
X5817682Y-15234198D02*
X5827205Y-15243722D01*
X5827205Y-15243722D02*
X5836729Y-15262769D01*
X5836729Y-15262769D02*
X5836729Y-15310388D01*
X5836729Y-15310388D02*
X5827205Y-15329436D01*
X5827205Y-15329436D02*
X5817682Y-15338960D01*
X5817682Y-15338960D02*
X5798634Y-15348484D01*
X5798634Y-15348484D02*
X5751015Y-15348484D01*
X5751015Y-15348484D02*
X5731967Y-15338960D01*
X5731967Y-15338960D02*
X5722443Y-15329436D01*
X5960539Y-15148484D02*
X5979586Y-15148484D01*
X5979586Y-15148484D02*
X5998634Y-15158008D01*
X5998634Y-15158008D02*
X6008158Y-15167531D01*
X6008158Y-15167531D02*
X6017682Y-15186579D01*
X6017682Y-15186579D02*
X6027205Y-15224674D01*
X6027205Y-15224674D02*
X6027205Y-15272293D01*
X6027205Y-15272293D02*
X6017682Y-15310388D01*
X6017682Y-15310388D02*
X6008158Y-15329436D01*
X6008158Y-15329436D02*
X5998634Y-15338960D01*
X5998634Y-15338960D02*
X5979586Y-15348484D01*
X5979586Y-15348484D02*
X5960539Y-15348484D01*
X5960539Y-15348484D02*
X5941491Y-15338960D01*
X5941491Y-15338960D02*
X5931967Y-15329436D01*
X5931967Y-15329436D02*
X5922443Y-15310388D01*
X5922443Y-15310388D02*
X5912920Y-15272293D01*
X5912920Y-15272293D02*
X5912920Y-15224674D01*
X5912920Y-15224674D02*
X5922443Y-15186579D01*
X5922443Y-15186579D02*
X5931967Y-15167531D01*
X5931967Y-15167531D02*
X5941491Y-15158008D01*
X5941491Y-15158008D02*
X5960539Y-15148484D01*
X6112920Y-15348484D02*
X6112920Y-15215150D01*
X6112920Y-15234198D02*
X6122443Y-15224674D01*
X6122443Y-15224674D02*
X6141491Y-15215150D01*
X6141491Y-15215150D02*
X6170063Y-15215150D01*
X6170063Y-15215150D02*
X6189110Y-15224674D01*
X6189110Y-15224674D02*
X6198634Y-15243722D01*
X6198634Y-15243722D02*
X6198634Y-15348484D01*
X6198634Y-15243722D02*
X6208158Y-15224674D01*
X6208158Y-15224674D02*
X6227205Y-15215150D01*
X6227205Y-15215150D02*
X6255777Y-15215150D01*
X6255777Y-15215150D02*
X6274824Y-15224674D01*
X6274824Y-15224674D02*
X6284348Y-15243722D01*
X6284348Y-15243722D02*
X6284348Y-15348484D01*
X6379586Y-15348484D02*
X6379586Y-15215150D01*
X6379586Y-15234198D02*
X6389110Y-15224674D01*
X6389110Y-15224674D02*
X6408158Y-15215150D01*
X6408158Y-15215150D02*
X6436729Y-15215150D01*
X6436729Y-15215150D02*
X6455777Y-15224674D01*
X6455777Y-15224674D02*
X6465301Y-15243722D01*
X6465301Y-15243722D02*
X6465301Y-15348484D01*
X6465301Y-15243722D02*
X6474824Y-15224674D01*
X6474824Y-15224674D02*
X6493872Y-15215150D01*
X6493872Y-15215150D02*
X6522443Y-15215150D01*
X6522443Y-15215150D02*
X6541491Y-15224674D01*
X6541491Y-15224674D02*
X6551015Y-15243722D01*
X6551015Y-15243722D02*
X6551015Y-15348484D01*
X6941491Y-15138960D02*
X6770063Y-15396103D01*
X7198634Y-15148484D02*
X7217682Y-15148484D01*
X7217682Y-15148484D02*
X7236729Y-15158008D01*
X7236729Y-15158008D02*
X7246253Y-15167531D01*
X7246253Y-15167531D02*
X7255777Y-15186579D01*
X7255777Y-15186579D02*
X7265301Y-15224674D01*
X7265301Y-15224674D02*
X7265301Y-15272293D01*
X7265301Y-15272293D02*
X7255777Y-15310388D01*
X7255777Y-15310388D02*
X7246253Y-15329436D01*
X7246253Y-15329436D02*
X7236729Y-15338960D01*
X7236729Y-15338960D02*
X7217682Y-15348484D01*
X7217682Y-15348484D02*
X7198634Y-15348484D01*
X7198634Y-15348484D02*
X7179586Y-15338960D01*
X7179586Y-15338960D02*
X7170063Y-15329436D01*
X7170063Y-15329436D02*
X7160539Y-15310388D01*
X7160539Y-15310388D02*
X7151015Y-15272293D01*
X7151015Y-15272293D02*
X7151015Y-15224674D01*
X7151015Y-15224674D02*
X7160539Y-15186579D01*
X7160539Y-15186579D02*
X7170063Y-15167531D01*
X7170063Y-15167531D02*
X7179586Y-15158008D01*
X7179586Y-15158008D02*
X7198634Y-15148484D01*
X7351015Y-15329436D02*
X7360539Y-15338960D01*
X7360539Y-15338960D02*
X7351015Y-15348484D01*
X7351015Y-15348484D02*
X7341491Y-15338960D01*
X7341491Y-15338960D02*
X7351015Y-15329436D01*
X7351015Y-15329436D02*
X7351015Y-15348484D01*
X7484348Y-15148484D02*
X7503396Y-15148484D01*
X7503396Y-15148484D02*
X7522444Y-15158008D01*
X7522444Y-15158008D02*
X7531967Y-15167531D01*
X7531967Y-15167531D02*
X7541491Y-15186579D01*
X7541491Y-15186579D02*
X7551015Y-15224674D01*
X7551015Y-15224674D02*
X7551015Y-15272293D01*
X7551015Y-15272293D02*
X7541491Y-15310388D01*
X7541491Y-15310388D02*
X7531967Y-15329436D01*
X7531967Y-15329436D02*
X7522444Y-15338960D01*
X7522444Y-15338960D02*
X7503396Y-15348484D01*
X7503396Y-15348484D02*
X7484348Y-15348484D01*
X7484348Y-15348484D02*
X7465301Y-15338960D01*
X7465301Y-15338960D02*
X7455777Y-15329436D01*
X7455777Y-15329436D02*
X7446253Y-15310388D01*
X7446253Y-15310388D02*
X7436729Y-15272293D01*
X7436729Y-15272293D02*
X7436729Y-15224674D01*
X7436729Y-15224674D02*
X7446253Y-15186579D01*
X7446253Y-15186579D02*
X7455777Y-15167531D01*
X7455777Y-15167531D02*
X7465301Y-15158008D01*
X7465301Y-15158008D02*
X7484348Y-15148484D01*
X7617682Y-15148484D02*
X7751015Y-15148484D01*
X7751015Y-15148484D02*
X7665301Y-15348484D01*
X7817682Y-15167531D02*
X7827206Y-15158008D01*
X7827206Y-15158008D02*
X7846253Y-15148484D01*
X7846253Y-15148484D02*
X7893872Y-15148484D01*
X7893872Y-15148484D02*
X7912920Y-15158008D01*
X7912920Y-15158008D02*
X7922444Y-15167531D01*
X7922444Y-15167531D02*
X7931967Y-15186579D01*
X7931967Y-15186579D02*
X7931967Y-15205627D01*
X7931967Y-15205627D02*
X7922444Y-15234198D01*
X7922444Y-15234198D02*
X7808158Y-15348484D01*
X7808158Y-15348484D02*
X7931967Y-15348484D01*
X8046253Y-15234198D02*
X8027206Y-15224674D01*
X8027206Y-15224674D02*
X8017682Y-15215150D01*
X8017682Y-15215150D02*
X8008158Y-15196103D01*
X8008158Y-15196103D02*
X8008158Y-15186579D01*
X8008158Y-15186579D02*
X8017682Y-15167531D01*
X8017682Y-15167531D02*
X8027206Y-15158008D01*
X8027206Y-15158008D02*
X8046253Y-15148484D01*
X8046253Y-15148484D02*
X8084348Y-15148484D01*
X8084348Y-15148484D02*
X8103396Y-15158008D01*
X8103396Y-15158008D02*
X8112920Y-15167531D01*
X8112920Y-15167531D02*
X8122444Y-15186579D01*
X8122444Y-15186579D02*
X8122444Y-15196103D01*
X8122444Y-15196103D02*
X8112920Y-15215150D01*
X8112920Y-15215150D02*
X8103396Y-15224674D01*
X8103396Y-15224674D02*
X8084348Y-15234198D01*
X8084348Y-15234198D02*
X8046253Y-15234198D01*
X8046253Y-15234198D02*
X8027206Y-15243722D01*
X8027206Y-15243722D02*
X8017682Y-15253246D01*
X8017682Y-15253246D02*
X8008158Y-15272293D01*
X8008158Y-15272293D02*
X8008158Y-15310388D01*
X8008158Y-15310388D02*
X8017682Y-15329436D01*
X8017682Y-15329436D02*
X8027206Y-15338960D01*
X8027206Y-15338960D02*
X8046253Y-15348484D01*
X8046253Y-15348484D02*
X8084348Y-15348484D01*
X8084348Y-15348484D02*
X8103396Y-15338960D01*
X8103396Y-15338960D02*
X8112920Y-15329436D01*
X8112920Y-15329436D02*
X8122444Y-15310388D01*
X8122444Y-15310388D02*
X8122444Y-15272293D01*
X8122444Y-15272293D02*
X8112920Y-15253246D01*
X8112920Y-15253246D02*
X8103396Y-15243722D01*
X8103396Y-15243722D02*
X8084348Y-15234198D01*
X8198634Y-15148484D02*
X8198634Y-15186579D01*
X8274825Y-15148484D02*
X8274825Y-15186579D01*
X8570063Y-15424674D02*
X8560539Y-15415150D01*
X8560539Y-15415150D02*
X8541491Y-15386579D01*
X8541491Y-15386579D02*
X8531968Y-15367531D01*
X8531968Y-15367531D02*
X8522444Y-15338960D01*
X8522444Y-15338960D02*
X8512920Y-15291341D01*
X8512920Y-15291341D02*
X8512920Y-15253246D01*
X8512920Y-15253246D02*
X8522444Y-15205627D01*
X8522444Y-15205627D02*
X8531968Y-15177055D01*
X8531968Y-15177055D02*
X8541491Y-15158008D01*
X8541491Y-15158008D02*
X8560539Y-15129436D01*
X8560539Y-15129436D02*
X8570063Y-15119912D01*
X8751015Y-15348484D02*
X8636730Y-15348484D01*
X8693872Y-15348484D02*
X8693872Y-15148484D01*
X8693872Y-15148484D02*
X8674825Y-15177055D01*
X8674825Y-15177055D02*
X8655777Y-15196103D01*
X8655777Y-15196103D02*
X8636730Y-15205627D01*
X8827206Y-15167531D02*
X8836730Y-15158008D01*
X8836730Y-15158008D02*
X8855777Y-15148484D01*
X8855777Y-15148484D02*
X8903396Y-15148484D01*
X8903396Y-15148484D02*
X8922444Y-15158008D01*
X8922444Y-15158008D02*
X8931968Y-15167531D01*
X8931968Y-15167531D02*
X8941491Y-15186579D01*
X8941491Y-15186579D02*
X8941491Y-15205627D01*
X8941491Y-15205627D02*
X8931968Y-15234198D01*
X8931968Y-15234198D02*
X8817682Y-15348484D01*
X8817682Y-15348484D02*
X8941491Y-15348484D01*
X9179587Y-15348484D02*
X9179587Y-15148484D01*
X9265301Y-15348484D02*
X9265301Y-15243722D01*
X9265301Y-15243722D02*
X9255777Y-15224674D01*
X9255777Y-15224674D02*
X9236730Y-15215150D01*
X9236730Y-15215150D02*
X9208158Y-15215150D01*
X9208158Y-15215150D02*
X9189111Y-15224674D01*
X9189111Y-15224674D02*
X9179587Y-15234198D01*
X9389111Y-15348484D02*
X9370063Y-15338960D01*
X9370063Y-15338960D02*
X9360539Y-15329436D01*
X9360539Y-15329436D02*
X9351015Y-15310388D01*
X9351015Y-15310388D02*
X9351015Y-15253246D01*
X9351015Y-15253246D02*
X9360539Y-15234198D01*
X9360539Y-15234198D02*
X9370063Y-15224674D01*
X9370063Y-15224674D02*
X9389111Y-15215150D01*
X9389111Y-15215150D02*
X9417682Y-15215150D01*
X9417682Y-15215150D02*
X9436730Y-15224674D01*
X9436730Y-15224674D02*
X9446253Y-15234198D01*
X9446253Y-15234198D02*
X9455777Y-15253246D01*
X9455777Y-15253246D02*
X9455777Y-15310388D01*
X9455777Y-15310388D02*
X9446253Y-15329436D01*
X9446253Y-15329436D02*
X9436730Y-15338960D01*
X9436730Y-15338960D02*
X9417682Y-15348484D01*
X9417682Y-15348484D02*
X9389111Y-15348484D01*
X9570063Y-15348484D02*
X9551015Y-15338960D01*
X9551015Y-15338960D02*
X9541492Y-15319912D01*
X9541492Y-15319912D02*
X9541492Y-15148484D01*
X9722444Y-15338960D02*
X9703396Y-15348484D01*
X9703396Y-15348484D02*
X9665301Y-15348484D01*
X9665301Y-15348484D02*
X9646253Y-15338960D01*
X9646253Y-15338960D02*
X9636730Y-15319912D01*
X9636730Y-15319912D02*
X9636730Y-15243722D01*
X9636730Y-15243722D02*
X9646253Y-15224674D01*
X9646253Y-15224674D02*
X9665301Y-15215150D01*
X9665301Y-15215150D02*
X9703396Y-15215150D01*
X9703396Y-15215150D02*
X9722444Y-15224674D01*
X9722444Y-15224674D02*
X9731968Y-15243722D01*
X9731968Y-15243722D02*
X9731968Y-15262769D01*
X9731968Y-15262769D02*
X9636730Y-15281817D01*
X9808158Y-15338960D02*
X9827206Y-15348484D01*
X9827206Y-15348484D02*
X9865301Y-15348484D01*
X9865301Y-15348484D02*
X9884349Y-15338960D01*
X9884349Y-15338960D02*
X9893873Y-15319912D01*
X9893873Y-15319912D02*
X9893873Y-15310388D01*
X9893873Y-15310388D02*
X9884349Y-15291341D01*
X9884349Y-15291341D02*
X9865301Y-15281817D01*
X9865301Y-15281817D02*
X9836730Y-15281817D01*
X9836730Y-15281817D02*
X9817682Y-15272293D01*
X9817682Y-15272293D02*
X9808158Y-15253246D01*
X9808158Y-15253246D02*
X9808158Y-15243722D01*
X9808158Y-15243722D02*
X9817682Y-15224674D01*
X9817682Y-15224674D02*
X9836730Y-15215150D01*
X9836730Y-15215150D02*
X9865301Y-15215150D01*
X9865301Y-15215150D02*
X9884349Y-15224674D01*
X9960539Y-15424674D02*
X9970063Y-15415150D01*
X9970063Y-15415150D02*
X9989111Y-15386579D01*
X9989111Y-15386579D02*
X9998634Y-15367531D01*
X9998634Y-15367531D02*
X10008158Y-15338960D01*
X10008158Y-15338960D02*
X10017682Y-15291341D01*
X10017682Y-15291341D02*
X10017682Y-15253246D01*
X10017682Y-15253246D02*
X10008158Y-15205627D01*
X10008158Y-15205627D02*
X9998634Y-15177055D01*
X9998634Y-15177055D02*
X9989111Y-15158008D01*
X9989111Y-15158008D02*
X9970063Y-15129436D01*
X9970063Y-15129436D02*
X9960539Y-15119912D01*
X4895000Y-15462000D02*
X4895000Y-15662000D01*
X4795000Y-15562000D02*
X4995000Y-15562000D01*
X4995000Y-15562000D02*
G75*
G03*
X4995000Y-15562000I-100000J0D01*
G01*
X5246253Y-15472531D02*
X5255777Y-15463008D01*
X5255777Y-15463008D02*
X5274824Y-15453484D01*
X5274824Y-15453484D02*
X5322444Y-15453484D01*
X5322444Y-15453484D02*
X5341491Y-15463008D01*
X5341491Y-15463008D02*
X5351015Y-15472531D01*
X5351015Y-15472531D02*
X5360539Y-15491579D01*
X5360539Y-15491579D02*
X5360539Y-15510627D01*
X5360539Y-15510627D02*
X5351015Y-15539198D01*
X5351015Y-15539198D02*
X5236729Y-15653484D01*
X5236729Y-15653484D02*
X5360539Y-15653484D01*
X5446253Y-15634436D02*
X5455777Y-15643960D01*
X5455777Y-15643960D02*
X5446253Y-15653484D01*
X5446253Y-15653484D02*
X5436729Y-15643960D01*
X5436729Y-15643960D02*
X5446253Y-15634436D01*
X5446253Y-15634436D02*
X5446253Y-15653484D01*
X5531967Y-15472531D02*
X5541491Y-15463008D01*
X5541491Y-15463008D02*
X5560539Y-15453484D01*
X5560539Y-15453484D02*
X5608158Y-15453484D01*
X5608158Y-15453484D02*
X5627205Y-15463008D01*
X5627205Y-15463008D02*
X5636729Y-15472531D01*
X5636729Y-15472531D02*
X5646253Y-15491579D01*
X5646253Y-15491579D02*
X5646253Y-15510627D01*
X5646253Y-15510627D02*
X5636729Y-15539198D01*
X5636729Y-15539198D02*
X5522444Y-15653484D01*
X5522444Y-15653484D02*
X5646253Y-15653484D01*
X5770062Y-15453484D02*
X5789110Y-15453484D01*
X5789110Y-15453484D02*
X5808158Y-15463008D01*
X5808158Y-15463008D02*
X5817682Y-15472531D01*
X5817682Y-15472531D02*
X5827205Y-15491579D01*
X5827205Y-15491579D02*
X5836729Y-15529674D01*
X5836729Y-15529674D02*
X5836729Y-15577293D01*
X5836729Y-15577293D02*
X5827205Y-15615388D01*
X5827205Y-15615388D02*
X5817682Y-15634436D01*
X5817682Y-15634436D02*
X5808158Y-15643960D01*
X5808158Y-15643960D02*
X5789110Y-15653484D01*
X5789110Y-15653484D02*
X5770062Y-15653484D01*
X5770062Y-15653484D02*
X5751015Y-15643960D01*
X5751015Y-15643960D02*
X5741491Y-15634436D01*
X5741491Y-15634436D02*
X5731967Y-15615388D01*
X5731967Y-15615388D02*
X5722443Y-15577293D01*
X5722443Y-15577293D02*
X5722443Y-15529674D01*
X5722443Y-15529674D02*
X5731967Y-15491579D01*
X5731967Y-15491579D02*
X5741491Y-15472531D01*
X5741491Y-15472531D02*
X5751015Y-15463008D01*
X5751015Y-15463008D02*
X5770062Y-15453484D01*
X5960539Y-15453484D02*
X5979586Y-15453484D01*
X5979586Y-15453484D02*
X5998634Y-15463008D01*
X5998634Y-15463008D02*
X6008158Y-15472531D01*
X6008158Y-15472531D02*
X6017682Y-15491579D01*
X6017682Y-15491579D02*
X6027205Y-15529674D01*
X6027205Y-15529674D02*
X6027205Y-15577293D01*
X6027205Y-15577293D02*
X6017682Y-15615388D01*
X6017682Y-15615388D02*
X6008158Y-15634436D01*
X6008158Y-15634436D02*
X5998634Y-15643960D01*
X5998634Y-15643960D02*
X5979586Y-15653484D01*
X5979586Y-15653484D02*
X5960539Y-15653484D01*
X5960539Y-15653484D02*
X5941491Y-15643960D01*
X5941491Y-15643960D02*
X5931967Y-15634436D01*
X5931967Y-15634436D02*
X5922443Y-15615388D01*
X5922443Y-15615388D02*
X5912920Y-15577293D01*
X5912920Y-15577293D02*
X5912920Y-15529674D01*
X5912920Y-15529674D02*
X5922443Y-15491579D01*
X5922443Y-15491579D02*
X5931967Y-15472531D01*
X5931967Y-15472531D02*
X5941491Y-15463008D01*
X5941491Y-15463008D02*
X5960539Y-15453484D01*
X6112920Y-15653484D02*
X6112920Y-15520150D01*
X6112920Y-15539198D02*
X6122443Y-15529674D01*
X6122443Y-15529674D02*
X6141491Y-15520150D01*
X6141491Y-15520150D02*
X6170063Y-15520150D01*
X6170063Y-15520150D02*
X6189110Y-15529674D01*
X6189110Y-15529674D02*
X6198634Y-15548722D01*
X6198634Y-15548722D02*
X6198634Y-15653484D01*
X6198634Y-15548722D02*
X6208158Y-15529674D01*
X6208158Y-15529674D02*
X6227205Y-15520150D01*
X6227205Y-15520150D02*
X6255777Y-15520150D01*
X6255777Y-15520150D02*
X6274824Y-15529674D01*
X6274824Y-15529674D02*
X6284348Y-15548722D01*
X6284348Y-15548722D02*
X6284348Y-15653484D01*
X6379586Y-15653484D02*
X6379586Y-15520150D01*
X6379586Y-15539198D02*
X6389110Y-15529674D01*
X6389110Y-15529674D02*
X6408158Y-15520150D01*
X6408158Y-15520150D02*
X6436729Y-15520150D01*
X6436729Y-15520150D02*
X6455777Y-15529674D01*
X6455777Y-15529674D02*
X6465301Y-15548722D01*
X6465301Y-15548722D02*
X6465301Y-15653484D01*
X6465301Y-15548722D02*
X6474824Y-15529674D01*
X6474824Y-15529674D02*
X6493872Y-15520150D01*
X6493872Y-15520150D02*
X6522443Y-15520150D01*
X6522443Y-15520150D02*
X6541491Y-15529674D01*
X6541491Y-15529674D02*
X6551015Y-15548722D01*
X6551015Y-15548722D02*
X6551015Y-15653484D01*
X6941491Y-15443960D02*
X6770063Y-15701103D01*
X7198634Y-15453484D02*
X7217682Y-15453484D01*
X7217682Y-15453484D02*
X7236729Y-15463008D01*
X7236729Y-15463008D02*
X7246253Y-15472531D01*
X7246253Y-15472531D02*
X7255777Y-15491579D01*
X7255777Y-15491579D02*
X7265301Y-15529674D01*
X7265301Y-15529674D02*
X7265301Y-15577293D01*
X7265301Y-15577293D02*
X7255777Y-15615388D01*
X7255777Y-15615388D02*
X7246253Y-15634436D01*
X7246253Y-15634436D02*
X7236729Y-15643960D01*
X7236729Y-15643960D02*
X7217682Y-15653484D01*
X7217682Y-15653484D02*
X7198634Y-15653484D01*
X7198634Y-15653484D02*
X7179586Y-15643960D01*
X7179586Y-15643960D02*
X7170063Y-15634436D01*
X7170063Y-15634436D02*
X7160539Y-15615388D01*
X7160539Y-15615388D02*
X7151015Y-15577293D01*
X7151015Y-15577293D02*
X7151015Y-15529674D01*
X7151015Y-15529674D02*
X7160539Y-15491579D01*
X7160539Y-15491579D02*
X7170063Y-15472531D01*
X7170063Y-15472531D02*
X7179586Y-15463008D01*
X7179586Y-15463008D02*
X7198634Y-15453484D01*
X7351015Y-15634436D02*
X7360539Y-15643960D01*
X7360539Y-15643960D02*
X7351015Y-15653484D01*
X7351015Y-15653484D02*
X7341491Y-15643960D01*
X7341491Y-15643960D02*
X7351015Y-15634436D01*
X7351015Y-15634436D02*
X7351015Y-15653484D01*
X7484348Y-15453484D02*
X7503396Y-15453484D01*
X7503396Y-15453484D02*
X7522444Y-15463008D01*
X7522444Y-15463008D02*
X7531967Y-15472531D01*
X7531967Y-15472531D02*
X7541491Y-15491579D01*
X7541491Y-15491579D02*
X7551015Y-15529674D01*
X7551015Y-15529674D02*
X7551015Y-15577293D01*
X7551015Y-15577293D02*
X7541491Y-15615388D01*
X7541491Y-15615388D02*
X7531967Y-15634436D01*
X7531967Y-15634436D02*
X7522444Y-15643960D01*
X7522444Y-15643960D02*
X7503396Y-15653484D01*
X7503396Y-15653484D02*
X7484348Y-15653484D01*
X7484348Y-15653484D02*
X7465301Y-15643960D01*
X7465301Y-15643960D02*
X7455777Y-15634436D01*
X7455777Y-15634436D02*
X7446253Y-15615388D01*
X7446253Y-15615388D02*
X7436729Y-15577293D01*
X7436729Y-15577293D02*
X7436729Y-15529674D01*
X7436729Y-15529674D02*
X7446253Y-15491579D01*
X7446253Y-15491579D02*
X7455777Y-15472531D01*
X7455777Y-15472531D02*
X7465301Y-15463008D01*
X7465301Y-15463008D02*
X7484348Y-15453484D01*
X7665301Y-15539198D02*
X7646253Y-15529674D01*
X7646253Y-15529674D02*
X7636729Y-15520150D01*
X7636729Y-15520150D02*
X7627206Y-15501103D01*
X7627206Y-15501103D02*
X7627206Y-15491579D01*
X7627206Y-15491579D02*
X7636729Y-15472531D01*
X7636729Y-15472531D02*
X7646253Y-15463008D01*
X7646253Y-15463008D02*
X7665301Y-15453484D01*
X7665301Y-15453484D02*
X7703396Y-15453484D01*
X7703396Y-15453484D02*
X7722444Y-15463008D01*
X7722444Y-15463008D02*
X7731967Y-15472531D01*
X7731967Y-15472531D02*
X7741491Y-15491579D01*
X7741491Y-15491579D02*
X7741491Y-15501103D01*
X7741491Y-15501103D02*
X7731967Y-15520150D01*
X7731967Y-15520150D02*
X7722444Y-15529674D01*
X7722444Y-15529674D02*
X7703396Y-15539198D01*
X7703396Y-15539198D02*
X7665301Y-15539198D01*
X7665301Y-15539198D02*
X7646253Y-15548722D01*
X7646253Y-15548722D02*
X7636729Y-15558246D01*
X7636729Y-15558246D02*
X7627206Y-15577293D01*
X7627206Y-15577293D02*
X7627206Y-15615388D01*
X7627206Y-15615388D02*
X7636729Y-15634436D01*
X7636729Y-15634436D02*
X7646253Y-15643960D01*
X7646253Y-15643960D02*
X7665301Y-15653484D01*
X7665301Y-15653484D02*
X7703396Y-15653484D01*
X7703396Y-15653484D02*
X7722444Y-15643960D01*
X7722444Y-15643960D02*
X7731967Y-15634436D01*
X7731967Y-15634436D02*
X7741491Y-15615388D01*
X7741491Y-15615388D02*
X7741491Y-15577293D01*
X7741491Y-15577293D02*
X7731967Y-15558246D01*
X7731967Y-15558246D02*
X7722444Y-15548722D01*
X7722444Y-15548722D02*
X7703396Y-15539198D01*
X7912920Y-15453484D02*
X7874825Y-15453484D01*
X7874825Y-15453484D02*
X7855777Y-15463008D01*
X7855777Y-15463008D02*
X7846253Y-15472531D01*
X7846253Y-15472531D02*
X7827206Y-15501103D01*
X7827206Y-15501103D02*
X7817682Y-15539198D01*
X7817682Y-15539198D02*
X7817682Y-15615388D01*
X7817682Y-15615388D02*
X7827206Y-15634436D01*
X7827206Y-15634436D02*
X7836729Y-15643960D01*
X7836729Y-15643960D02*
X7855777Y-15653484D01*
X7855777Y-15653484D02*
X7893872Y-15653484D01*
X7893872Y-15653484D02*
X7912920Y-15643960D01*
X7912920Y-15643960D02*
X7922444Y-15634436D01*
X7922444Y-15634436D02*
X7931967Y-15615388D01*
X7931967Y-15615388D02*
X7931967Y-15567769D01*
X7931967Y-15567769D02*
X7922444Y-15548722D01*
X7922444Y-15548722D02*
X7912920Y-15539198D01*
X7912920Y-15539198D02*
X7893872Y-15529674D01*
X7893872Y-15529674D02*
X7855777Y-15529674D01*
X7855777Y-15529674D02*
X7836729Y-15539198D01*
X7836729Y-15539198D02*
X7827206Y-15548722D01*
X7827206Y-15548722D02*
X7817682Y-15567769D01*
X8103396Y-15453484D02*
X8065301Y-15453484D01*
X8065301Y-15453484D02*
X8046253Y-15463008D01*
X8046253Y-15463008D02*
X8036729Y-15472531D01*
X8036729Y-15472531D02*
X8017682Y-15501103D01*
X8017682Y-15501103D02*
X8008158Y-15539198D01*
X8008158Y-15539198D02*
X8008158Y-15615388D01*
X8008158Y-15615388D02*
X8017682Y-15634436D01*
X8017682Y-15634436D02*
X8027206Y-15643960D01*
X8027206Y-15643960D02*
X8046253Y-15653484D01*
X8046253Y-15653484D02*
X8084348Y-15653484D01*
X8084348Y-15653484D02*
X8103396Y-15643960D01*
X8103396Y-15643960D02*
X8112920Y-15634436D01*
X8112920Y-15634436D02*
X8122444Y-15615388D01*
X8122444Y-15615388D02*
X8122444Y-15567769D01*
X8122444Y-15567769D02*
X8112920Y-15548722D01*
X8112920Y-15548722D02*
X8103396Y-15539198D01*
X8103396Y-15539198D02*
X8084348Y-15529674D01*
X8084348Y-15529674D02*
X8046253Y-15529674D01*
X8046253Y-15529674D02*
X8027206Y-15539198D01*
X8027206Y-15539198D02*
X8017682Y-15548722D01*
X8017682Y-15548722D02*
X8008158Y-15567769D01*
X8198634Y-15453484D02*
X8198634Y-15491579D01*
X8274825Y-15453484D02*
X8274825Y-15491579D01*
X8570063Y-15729674D02*
X8560539Y-15720150D01*
X8560539Y-15720150D02*
X8541491Y-15691579D01*
X8541491Y-15691579D02*
X8531968Y-15672531D01*
X8531968Y-15672531D02*
X8522444Y-15643960D01*
X8522444Y-15643960D02*
X8512920Y-15596341D01*
X8512920Y-15596341D02*
X8512920Y-15558246D01*
X8512920Y-15558246D02*
X8522444Y-15510627D01*
X8522444Y-15510627D02*
X8531968Y-15482055D01*
X8531968Y-15482055D02*
X8541491Y-15463008D01*
X8541491Y-15463008D02*
X8560539Y-15434436D01*
X8560539Y-15434436D02*
X8570063Y-15424912D01*
X8636730Y-15472531D02*
X8646253Y-15463008D01*
X8646253Y-15463008D02*
X8665301Y-15453484D01*
X8665301Y-15453484D02*
X8712920Y-15453484D01*
X8712920Y-15453484D02*
X8731968Y-15463008D01*
X8731968Y-15463008D02*
X8741491Y-15472531D01*
X8741491Y-15472531D02*
X8751015Y-15491579D01*
X8751015Y-15491579D02*
X8751015Y-15510627D01*
X8751015Y-15510627D02*
X8741491Y-15539198D01*
X8741491Y-15539198D02*
X8627206Y-15653484D01*
X8627206Y-15653484D02*
X8751015Y-15653484D01*
X8989111Y-15653484D02*
X8989111Y-15453484D01*
X9074825Y-15653484D02*
X9074825Y-15548722D01*
X9074825Y-15548722D02*
X9065301Y-15529674D01*
X9065301Y-15529674D02*
X9046253Y-15520150D01*
X9046253Y-15520150D02*
X9017682Y-15520150D01*
X9017682Y-15520150D02*
X8998634Y-15529674D01*
X8998634Y-15529674D02*
X8989111Y-15539198D01*
X9198634Y-15653484D02*
X9179587Y-15643960D01*
X9179587Y-15643960D02*
X9170063Y-15634436D01*
X9170063Y-15634436D02*
X9160539Y-15615388D01*
X9160539Y-15615388D02*
X9160539Y-15558246D01*
X9160539Y-15558246D02*
X9170063Y-15539198D01*
X9170063Y-15539198D02*
X9179587Y-15529674D01*
X9179587Y-15529674D02*
X9198634Y-15520150D01*
X9198634Y-15520150D02*
X9227206Y-15520150D01*
X9227206Y-15520150D02*
X9246253Y-15529674D01*
X9246253Y-15529674D02*
X9255777Y-15539198D01*
X9255777Y-15539198D02*
X9265301Y-15558246D01*
X9265301Y-15558246D02*
X9265301Y-15615388D01*
X9265301Y-15615388D02*
X9255777Y-15634436D01*
X9255777Y-15634436D02*
X9246253Y-15643960D01*
X9246253Y-15643960D02*
X9227206Y-15653484D01*
X9227206Y-15653484D02*
X9198634Y-15653484D01*
X9379587Y-15653484D02*
X9360539Y-15643960D01*
X9360539Y-15643960D02*
X9351015Y-15624912D01*
X9351015Y-15624912D02*
X9351015Y-15453484D01*
X9531968Y-15643960D02*
X9512920Y-15653484D01*
X9512920Y-15653484D02*
X9474825Y-15653484D01*
X9474825Y-15653484D02*
X9455777Y-15643960D01*
X9455777Y-15643960D02*
X9446253Y-15624912D01*
X9446253Y-15624912D02*
X9446253Y-15548722D01*
X9446253Y-15548722D02*
X9455777Y-15529674D01*
X9455777Y-15529674D02*
X9474825Y-15520150D01*
X9474825Y-15520150D02*
X9512920Y-15520150D01*
X9512920Y-15520150D02*
X9531968Y-15529674D01*
X9531968Y-15529674D02*
X9541492Y-15548722D01*
X9541492Y-15548722D02*
X9541492Y-15567769D01*
X9541492Y-15567769D02*
X9446253Y-15586817D01*
X9617682Y-15643960D02*
X9636730Y-15653484D01*
X9636730Y-15653484D02*
X9674825Y-15653484D01*
X9674825Y-15653484D02*
X9693873Y-15643960D01*
X9693873Y-15643960D02*
X9703396Y-15624912D01*
X9703396Y-15624912D02*
X9703396Y-15615388D01*
X9703396Y-15615388D02*
X9693873Y-15596341D01*
X9693873Y-15596341D02*
X9674825Y-15586817D01*
X9674825Y-15586817D02*
X9646253Y-15586817D01*
X9646253Y-15586817D02*
X9627206Y-15577293D01*
X9627206Y-15577293D02*
X9617682Y-15558246D01*
X9617682Y-15558246D02*
X9617682Y-15548722D01*
X9617682Y-15548722D02*
X9627206Y-15529674D01*
X9627206Y-15529674D02*
X9646253Y-15520150D01*
X9646253Y-15520150D02*
X9674825Y-15520150D01*
X9674825Y-15520150D02*
X9693873Y-15529674D01*
X9770063Y-15729674D02*
X9779587Y-15720150D01*
X9779587Y-15720150D02*
X9798634Y-15691579D01*
X9798634Y-15691579D02*
X9808158Y-15672531D01*
X9808158Y-15672531D02*
X9817682Y-15643960D01*
X9817682Y-15643960D02*
X9827206Y-15596341D01*
X9827206Y-15596341D02*
X9827206Y-15558246D01*
X9827206Y-15558246D02*
X9817682Y-15510627D01*
X9817682Y-15510627D02*
X9808158Y-15482055D01*
X9808158Y-15482055D02*
X9798634Y-15463008D01*
X9798634Y-15463008D02*
X9779587Y-15434436D01*
X9779587Y-15434436D02*
X9770063Y-15424912D01*
M02*
