M48
; DRILL file {KiCad 7.0.8} date Sun Feb 11 23:31:43 2024
; FORMAT={-:-/ absolute / inch / decimal}
; #@! TF.CreationDate,2024-02-11T23:31:43+01:00
; #@! TF.GenerationSoftware,Kicad,Pcbnew,7.0.8
; #@! TF.FileFunction,Plated,1,2,PTH
FMAT,2
INCH
; #@! TA.AperFunction,Plated,PTH,ComponentDrill
T1C0.0217
; #@! TA.AperFunction,Plated,PTH,ComponentDrill
T2C0.0236
; #@! TA.AperFunction,Plated,PTH,ComponentDrill
T3C0.0315
; #@! TA.AperFunction,Plated,PTH,ComponentDrill
T4C0.0354
; #@! TA.AperFunction,Plated,PTH,ComponentDrill
T5C0.0374
; #@! TA.AperFunction,Plated,PTH,ComponentDrill
T6C0.0394
; #@! TA.AperFunction,Plated,PTH,ComponentDrill
T7C0.0394
; #@! TA.AperFunction,Plated,PTH,ComponentDrill
T8C0.0433
; #@! TA.AperFunction,Plated,PTH,ComponentDrill
T9C0.0728
; #@! TA.AperFunction,Plated,PTH,ComponentDrill
T10C0.0866
%
G90
G05
T2
X5.3307Y-2.3248
X5.4094Y-2.3248
T3
X2.0358Y-4.3287
X2.4311Y-3.3406
X2.4311Y-3.4406
X2.4311Y-3.5406
X2.4311Y-3.6406
X2.4311Y-3.7406
X2.4311Y-3.8406
X2.4311Y-3.9406
X2.6358Y-4.3287
X2.7311Y-3.3406
X2.7311Y-3.4406
X2.7311Y-3.5406
X2.7311Y-3.6406
X2.7311Y-3.7406
X2.7311Y-3.8406
X2.7311Y-3.9406
X2.8232Y-4.3287
X3.1398Y-3.3406
X3.1398Y-3.4406
X3.1398Y-3.5406
X3.1398Y-3.6406
X3.1398Y-3.7406
X3.1398Y-3.8406
X3.1398Y-3.9406
X3.4232Y-4.3287
X3.4398Y-3.3406
X3.4398Y-3.4406
X3.4398Y-3.5406
X3.4398Y-3.6406
X3.4398Y-3.7406
X3.4398Y-3.8406
X3.4398Y-3.9406
X3.6106Y-4.3287
X3.7083Y-2.0453
X3.7091Y-2.1909
X3.7098Y-2.3366
X3.8484Y-3.3406
X3.8484Y-3.4406
X3.8484Y-3.5406
X3.8484Y-3.6406
X3.8484Y-3.7406
X3.8484Y-3.8406
X3.8484Y-3.9406
X4.1484Y-3.3406
X4.1484Y-3.4406
X4.1484Y-3.5406
X4.1484Y-3.6406
X4.1484Y-3.7406
X4.1484Y-3.8406
X4.1484Y-3.9406
X4.2106Y-4.3287
X4.3083Y-2.0453
X4.3091Y-2.1909
X4.3098Y-2.3366
X4.398Y-4.3287
X4.4185Y-2.0453
X4.4185Y-2.1909
X4.4185Y-2.3366
X4.5571Y-3.3406
X4.5571Y-3.4406
X4.5571Y-3.5406
X4.5571Y-3.6406
X4.5571Y-3.7406
X4.5571Y-3.8406
X4.5571Y-3.9406
X4.8571Y-3.3406
X4.8571Y-3.4406
X4.8571Y-3.5406
X4.8571Y-3.6406
X4.8571Y-3.7406
X4.8571Y-3.8406
X4.8571Y-3.9406
X4.998Y-4.3287
X5.0185Y-2.0453
X5.0185Y-2.1909
X5.0185Y-2.3366
X5.1854Y-4.3287
X5.2657Y-3.3406
X5.2657Y-3.4406
X5.2657Y-3.5406
X5.2657Y-3.6406
X5.2657Y-3.7406
X5.2657Y-3.8406
X5.2657Y-3.9406
X5.5657Y-3.3406
X5.5657Y-3.4406
X5.5657Y-3.5406
X5.5657Y-3.6406
X5.5657Y-3.7406
X5.5657Y-3.8406
X5.5657Y-3.9406
X5.7854Y-4.3287
X5.9728Y-4.3287
X5.9744Y-3.3406
X5.9744Y-3.4406
X5.9744Y-3.5406
X5.9744Y-3.6406
X5.9744Y-3.7406
X5.9744Y-3.8406
X5.9744Y-3.9406
X6.2744Y-3.3406
X6.2744Y-3.4406
X6.2744Y-3.5406
X6.2744Y-3.6406
X6.2744Y-3.7406
X6.2744Y-3.8406
X6.2744Y-3.9406
X6.5728Y-4.3287
T4
X2.4768Y-4.5256
X2.5768Y-4.5256
X3.2642Y-4.5256
X3.3642Y-4.5256
X4.0516Y-4.5256
X4.1516Y-4.5256
X4.839Y-4.5256
X4.939Y-4.5256
X5.6264Y-4.5256
X5.7264Y-4.5256
X6.4138Y-4.5256
X6.5138Y-4.5256
T5
X2.185Y-3.0512
X2.2835Y-3.0512
X2.3819Y-3.0512
X2.6575Y-3.0512
X2.7559Y-3.0512
X2.8543Y-3.0512
X2.9528Y-3.0512
X3.0512Y-3.0512
X3.1496Y-3.0512
X3.248Y-3.0512
X3.5433Y-2.7559
X3.5433Y-3.0512
X3.6417Y-2.7559
X3.6417Y-3.0512
X3.7402Y-2.7559
X3.7402Y-3.0512
X3.8386Y-2.7559
X3.8386Y-3.0512
X3.937Y-2.7559
X3.937Y-3.0512
X4.0354Y-2.7559
X4.0354Y-3.0512
X4.1339Y-2.7559
X4.1339Y-3.0512
X4.4291Y-2.7559
X4.4291Y-3.0512
X4.5276Y-2.7559
X4.5276Y-3.0512
X4.626Y-2.7559
X4.626Y-3.0512
X4.7244Y-2.7559
X4.7244Y-3.0512
X4.8228Y-2.7559
X4.8228Y-3.0512
X4.9213Y-2.7559
X4.9213Y-3.0512
X5.0197Y-2.7559
X5.0197Y-3.0512
X5.3346Y-2.7559
X5.3346Y-3.0512
X5.4331Y-2.7559
X5.4331Y-3.0512
X5.5315Y-2.7559
X5.5315Y-3.0512
X5.6299Y-2.7559
X5.6299Y-3.0512
X5.7146Y-2.1673
X5.7283Y-2.7559
X5.7283Y-3.0512
X5.813Y-2.1673
X5.8268Y-2.7559
X5.8268Y-3.0512
X5.9114Y-2.1673
X5.9252Y-2.7559
X5.9252Y-3.0512
T7
X2.2815Y-2.4528
X2.3799Y-2.4528
T8
X5.2311Y-2.1004
X5.3311Y-2.1004
X5.4311Y-2.1004
T9
X2.0768Y-4.7579
X2.2894Y-4.7579
X2.8642Y-4.7579
X3.0768Y-4.7579
X3.6516Y-4.7579
X3.8642Y-4.7579
X4.439Y-4.7579
X4.6516Y-4.7579
X5.2264Y-4.7579
X5.439Y-4.7579
X6.0138Y-4.7579
X6.2264Y-4.7579
T10
X2.1792Y-2.2849
X2.5807Y-2.2849
T1
G00X2.0831Y-4.4382
M15
G01X2.0831Y-4.4776
M16
G05
G00X2.0831Y-4.5382
M15
G01X2.0831Y-4.5776
M16
G05
G00X2.1831Y-4.4382
M15
G01X2.1831Y-4.4776
M16
G05
G00X2.1831Y-4.5382
M15
G01X2.1831Y-4.5776
M16
G05
G00X2.2831Y-4.4382
M15
G01X2.2831Y-4.4776
M16
G05
G00X2.2831Y-4.5382
M15
G01X2.2831Y-4.5776
M16
G05
G00X2.8705Y-4.4382
M15
G01X2.8705Y-4.4776
M16
G05
G00X2.8705Y-4.5382
M15
G01X2.8705Y-4.5776
M16
G05
G00X2.9705Y-4.4382
M15
G01X2.9705Y-4.4776
M16
G05
G00X2.9705Y-4.5382
M15
G01X2.9705Y-4.5776
M16
G05
G00X3.0705Y-4.4382
M15
G01X3.0705Y-4.4776
M16
G05
G00X3.0705Y-4.5382
M15
G01X3.0705Y-4.5776
M16
G05
G00X3.6579Y-4.4382
M15
G01X3.6579Y-4.4776
M16
G05
G00X3.6579Y-4.5382
M15
G01X3.6579Y-4.5776
M16
G05
G00X3.7579Y-4.4382
M15
G01X3.7579Y-4.4776
M16
G05
G00X3.7579Y-4.5382
M15
G01X3.7579Y-4.5776
M16
G05
G00X3.8579Y-4.4382
M15
G01X3.8579Y-4.4776
M16
G05
G00X3.8579Y-4.5382
M15
G01X3.8579Y-4.5776
M16
G05
G00X4.4453Y-4.4382
M15
G01X4.4453Y-4.4776
M16
G05
G00X4.4453Y-4.5382
M15
G01X4.4453Y-4.5776
M16
G05
G00X4.5453Y-4.4382
M15
G01X4.5453Y-4.4776
M16
G05
G00X4.5453Y-4.5382
M15
G01X4.5453Y-4.5776
M16
G05
G00X4.6453Y-4.4382
M15
G01X4.6453Y-4.4776
M16
G05
G00X4.6453Y-4.5382
M15
G01X4.6453Y-4.5776
M16
G05
G00X5.2327Y-4.4382
M15
G01X5.2327Y-4.4776
M16
G05
G00X5.2327Y-4.5382
M15
G01X5.2327Y-4.5776
M16
G05
G00X5.3327Y-4.4382
M15
G01X5.3327Y-4.4776
M16
G05
G00X5.3327Y-4.5382
M15
G01X5.3327Y-4.5776
M16
G05
G00X5.4327Y-4.4382
M15
G01X5.4327Y-4.4776
M16
G05
G00X5.4327Y-4.5382
M15
G01X5.4327Y-4.5776
M16
G05
G00X6.0201Y-4.4382
M15
G01X6.0201Y-4.4776
M16
G05
G00X6.0201Y-4.5382
M15
G01X6.0201Y-4.5776
M16
G05
G00X6.1201Y-4.4382
M15
G01X6.1201Y-4.4776
M16
G05
G00X6.1201Y-4.5382
M15
G01X6.1201Y-4.5776
M16
G05
G00X6.2201Y-4.4382
M15
G01X6.2201Y-4.4776
M16
G05
G00X6.2201Y-4.5382
M15
G01X6.2201Y-4.5776
M16
G05
T6
G00X6.2185Y-2.2047
M15
G01X6.2185Y-2.2835
M16
G05
G00X6.4429Y-2.126
M15
G01X6.3642Y-2.126
M16
G05
G00X6.4429Y-2.3622
M15
G01X6.3642Y-2.3622
M16
G05
T0
M30
