%TF.GenerationSoftware,KiCad,Pcbnew,7.0.8*%
%TF.CreationDate,2024-02-11T23:31:44+01:00*%
%TF.ProjectId,BlankingRelay_Base,426c616e-6b69-46e6-9752-656c61795f42,rev?*%
%TF.SameCoordinates,Original*%
%TF.FileFunction,Soldermask,Top*%
%TF.FilePolarity,Negative*%
%FSLAX46Y46*%
G04 Gerber Fmt 4.6, Leading zero omitted, Abs format (unit mm)*
G04 Created by KiCad (PCBNEW 7.0.8) date 2024-02-11 23:31:44*
%MOMM*%
%LPD*%
G01*
G04 APERTURE LIST*
G04 Aperture macros list*
%AMRoundRect*
0 Rectangle with rounded corners*
0 $1 Rounding radius*
0 $2 $3 $4 $5 $6 $7 $8 $9 X,Y pos of 4 corners*
0 Add a 4 corners polygon primitive as box body*
4,1,4,$2,$3,$4,$5,$6,$7,$8,$9,$2,$3,0*
0 Add four circle primitives for the rounded corners*
1,1,$1+$1,$2,$3*
1,1,$1+$1,$4,$5*
1,1,$1+$1,$6,$7*
1,1,$1+$1,$8,$9*
0 Add four rect primitives between the rounded corners*
20,1,$1+$1,$2,$3,$4,$5,0*
20,1,$1+$1,$4,$5,$6,$7,0*
20,1,$1+$1,$6,$7,$8,$9,0*
20,1,$1+$1,$8,$9,$2,$3,0*%
G04 Aperture macros list end*
%ADD10RoundRect,0.250000X-0.600000X-0.725000X0.600000X-0.725000X0.600000X0.725000X-0.600000X0.725000X0*%
%ADD11O,1.700000X1.950000*%
%ADD12R,3.500000X3.500000*%
%ADD13RoundRect,0.750000X-1.000000X0.750000X-1.000000X-0.750000X1.000000X-0.750000X1.000000X0.750000X0*%
%ADD14RoundRect,0.875000X-0.875000X0.875000X-0.875000X-0.875000X0.875000X-0.875000X0.875000X0.875000X0*%
%ADD15O,2.400000X1.600000*%
%ADD16R,2.400000X1.600000*%
%ADD17C,1.850000*%
%ADD18R,0.750000X1.750000*%
%ADD19O,1.600000X1.600000*%
%ADD20C,1.600000*%
%ADD21O,1.905000X2.000000*%
%ADD22R,1.905000X2.000000*%
%ADD23C,3.000000*%
%ADD24C,1.200000*%
%ADD25C,1.800000*%
%ADD26R,1.800000X1.800000*%
%ADD27O,1.600200X2.499360*%
%ADD28O,3.500120X7.000240*%
G04 APERTURE END LIST*
D10*
%TO.C,J11*%
X55500000Y-77500000D03*
D11*
X58000000Y-77500000D03*
X60500000Y-77500000D03*
%TD*%
D10*
%TO.C,J6*%
X112500000Y-77500000D03*
D11*
X115000000Y-77500000D03*
X117500000Y-77500000D03*
X120000000Y-77500000D03*
X122500000Y-77500000D03*
X125000000Y-77500000D03*
X127500000Y-77500000D03*
%TD*%
%TO.C,J3*%
X82500000Y-77500000D03*
X80000000Y-77500000D03*
X77500000Y-77500000D03*
X75000000Y-77500000D03*
X72500000Y-77500000D03*
X70000000Y-77500000D03*
D10*
X67500000Y-77500000D03*
%TD*%
D12*
%TO.C,J10*%
X162650000Y-60000000D03*
D13*
X162650000Y-54000000D03*
D14*
X157950000Y-57000000D03*
%TD*%
D15*
%TO.C,U6*%
X159370000Y-84850000D03*
X159370000Y-87390000D03*
X159370000Y-89930000D03*
X159370000Y-92470000D03*
X159370000Y-95010000D03*
X159370000Y-97550000D03*
X159370000Y-100090000D03*
X151750000Y-100090000D03*
X151750000Y-97550000D03*
X151750000Y-95010000D03*
X151750000Y-92470000D03*
X151750000Y-89930000D03*
X151750000Y-87390000D03*
D16*
X151750000Y-84850000D03*
%TD*%
D15*
%TO.C,U4*%
X123370000Y-84850000D03*
X123370000Y-87390000D03*
X123370000Y-89930000D03*
X123370000Y-92470000D03*
X123370000Y-95010000D03*
X123370000Y-97550000D03*
X123370000Y-100090000D03*
X115750000Y-100090000D03*
X115750000Y-97550000D03*
X115750000Y-95010000D03*
X115750000Y-92470000D03*
X115750000Y-89930000D03*
X115750000Y-87390000D03*
D16*
X115750000Y-84850000D03*
%TD*%
D10*
%TO.C,J4*%
X90000000Y-77500000D03*
D11*
X92500000Y-77500000D03*
X95000000Y-77500000D03*
X97500000Y-77500000D03*
X100000000Y-77500000D03*
X102500000Y-77500000D03*
X105000000Y-77500000D03*
%TD*%
D10*
%TO.C,J7*%
X112500000Y-70000000D03*
D11*
X115000000Y-70000000D03*
X117500000Y-70000000D03*
X120000000Y-70000000D03*
X122500000Y-70000000D03*
X125000000Y-70000000D03*
X127500000Y-70000000D03*
%TD*%
D10*
%TO.C,J8*%
X135500000Y-77500000D03*
D11*
X138000000Y-77500000D03*
X140500000Y-77500000D03*
X143000000Y-77500000D03*
X145500000Y-77500000D03*
X148000000Y-77500000D03*
X150500000Y-77500000D03*
%TD*%
%TO.C,J5*%
X105000000Y-70000000D03*
X102500000Y-70000000D03*
X100000000Y-70000000D03*
X97500000Y-70000000D03*
X95000000Y-70000000D03*
X92500000Y-70000000D03*
D10*
X90000000Y-70000000D03*
%TD*%
D15*
%TO.C,U5*%
X141370000Y-84850000D03*
X141370000Y-87390000D03*
X141370000Y-89930000D03*
X141370000Y-92470000D03*
X141370000Y-95010000D03*
X141370000Y-97550000D03*
X141370000Y-100090000D03*
X133750000Y-100090000D03*
X133750000Y-97550000D03*
X133750000Y-95010000D03*
X133750000Y-92470000D03*
X133750000Y-89930000D03*
X133750000Y-87390000D03*
D16*
X133750000Y-84850000D03*
%TD*%
D15*
%TO.C,U2*%
X87370000Y-84850000D03*
X87370000Y-87390000D03*
X87370000Y-89930000D03*
X87370000Y-92470000D03*
X87370000Y-95010000D03*
X87370000Y-97550000D03*
X87370000Y-100090000D03*
X79750000Y-100090000D03*
X79750000Y-97550000D03*
X79750000Y-95010000D03*
X79750000Y-92470000D03*
X79750000Y-89930000D03*
X79750000Y-87390000D03*
D16*
X79750000Y-84850000D03*
%TD*%
D15*
%TO.C,U1*%
X69370000Y-84850000D03*
X69370000Y-87390000D03*
X69370000Y-89930000D03*
X69370000Y-92470000D03*
X69370000Y-95010000D03*
X69370000Y-97550000D03*
X69370000Y-100090000D03*
X61750000Y-100090000D03*
X61750000Y-97550000D03*
X61750000Y-95010000D03*
X61750000Y-92470000D03*
X61750000Y-89930000D03*
X61750000Y-87390000D03*
D16*
X61750000Y-84850000D03*
%TD*%
D17*
%TO.C,Switch4*%
X118150000Y-120850000D03*
X112750000Y-120850000D03*
D18*
X117990000Y-115770000D03*
X115450000Y-115770000D03*
X112910000Y-115770000D03*
X117990000Y-113230000D03*
X115450000Y-113230000D03*
X112910000Y-113230000D03*
%TD*%
D19*
%TO.C,R6*%
X151710000Y-109950000D03*
D20*
X166950000Y-109950000D03*
%TD*%
D21*
%TO.C,U7*%
X137950000Y-53350000D03*
X135410000Y-53350000D03*
D22*
X132870000Y-53350000D03*
%TD*%
D19*
%TO.C,R12*%
X109430000Y-51950000D03*
D20*
X94190000Y-51950000D03*
%TD*%
D19*
%TO.C,R11*%
X127470000Y-59350000D03*
D20*
X112230000Y-59350000D03*
%TD*%
D19*
%TO.C,R10*%
X109450000Y-55650000D03*
D20*
X94210000Y-55650000D03*
%TD*%
%TO.C,R9*%
X112230000Y-55650000D03*
D19*
X127470000Y-55650000D03*
%TD*%
%TO.C,R8*%
X109470000Y-59350000D03*
D20*
X94230000Y-59350000D03*
%TD*%
%TO.C,R7*%
X112230000Y-51950000D03*
D19*
X127470000Y-51950000D03*
%TD*%
D11*
%TO.C,J1*%
X150150000Y-55050000D03*
X147650000Y-55050000D03*
D10*
X145150000Y-55050000D03*
%TD*%
D23*
%TO.C,H4*%
X60000000Y-70000000D03*
%TD*%
%TO.C,H3*%
X160000000Y-70000000D03*
%TD*%
%TO.C,H2*%
X160000000Y-105000000D03*
%TD*%
%TO.C,H1*%
X60000000Y-105000000D03*
%TD*%
D24*
%TO.C,C1*%
X137400000Y-59050000D03*
X135400000Y-59050000D03*
%TD*%
D20*
%TO.C,R2*%
X86950000Y-109950000D03*
D19*
X71710000Y-109950000D03*
%TD*%
D25*
%TO.C,D2*%
X82910000Y-114950000D03*
D26*
X85450000Y-114950000D03*
%TD*%
D17*
%TO.C,Switch5*%
X138150000Y-120850000D03*
X132750000Y-120850000D03*
D18*
X137990000Y-115770000D03*
X135450000Y-115770000D03*
X132910000Y-115770000D03*
X137990000Y-113230000D03*
X135450000Y-113230000D03*
X132910000Y-113230000D03*
%TD*%
D25*
%TO.C,D5*%
X142910000Y-114950000D03*
D26*
X145450000Y-114950000D03*
%TD*%
D25*
%TO.C,D6*%
X162910000Y-114950000D03*
D26*
X165450000Y-114950000D03*
%TD*%
D27*
%TO.C,J2*%
X60450000Y-62301050D03*
X57950640Y-62301050D03*
D28*
X65550320Y-58036390D03*
X55352220Y-58036390D03*
%TD*%
D17*
%TO.C,Switch2*%
X78150000Y-120850000D03*
X72750000Y-120850000D03*
D18*
X77990000Y-115770000D03*
X75450000Y-115770000D03*
X72910000Y-115770000D03*
X77990000Y-113230000D03*
X75450000Y-113230000D03*
X72910000Y-113230000D03*
%TD*%
D17*
%TO.C,Switch3*%
X98150000Y-120850000D03*
X92750000Y-120850000D03*
D18*
X97990000Y-115770000D03*
X95450000Y-115770000D03*
X92910000Y-115770000D03*
X97990000Y-113230000D03*
X95450000Y-113230000D03*
X92910000Y-113230000D03*
%TD*%
D20*
%TO.C,R4*%
X126950000Y-109950000D03*
D19*
X111710000Y-109950000D03*
%TD*%
%TO.C,R3*%
X91710000Y-109950000D03*
D20*
X106950000Y-109950000D03*
%TD*%
D25*
%TO.C,D1*%
X62910000Y-114950000D03*
D26*
X65450000Y-114950000D03*
%TD*%
D19*
%TO.C,R5*%
X131710000Y-109950000D03*
D20*
X146950000Y-109950000D03*
%TD*%
D17*
%TO.C,Switch1*%
X58150000Y-120850000D03*
X52750000Y-120850000D03*
D18*
X57990000Y-115770000D03*
X55450000Y-115770000D03*
X52910000Y-115770000D03*
X57990000Y-113230000D03*
X55450000Y-113230000D03*
X52910000Y-113230000D03*
%TD*%
D10*
%TO.C,J9*%
X135500000Y-70000000D03*
D11*
X138000000Y-70000000D03*
X140500000Y-70000000D03*
X143000000Y-70000000D03*
X145500000Y-70000000D03*
X148000000Y-70000000D03*
X150500000Y-70000000D03*
%TD*%
D25*
%TO.C,D4*%
X122910000Y-114950000D03*
D26*
X125450000Y-114950000D03*
%TD*%
D17*
%TO.C,Switch6*%
X158150000Y-120850000D03*
X152750000Y-120850000D03*
D18*
X157990000Y-115770000D03*
X155450000Y-115770000D03*
X152910000Y-115770000D03*
X157990000Y-113230000D03*
X155450000Y-113230000D03*
X152910000Y-113230000D03*
%TD*%
D25*
%TO.C,D3*%
X102910000Y-114950000D03*
D26*
X105450000Y-114950000D03*
%TD*%
D15*
%TO.C,U3*%
X105370000Y-84850000D03*
X105370000Y-87390000D03*
X105370000Y-89930000D03*
X105370000Y-92470000D03*
X105370000Y-95010000D03*
X105370000Y-97550000D03*
X105370000Y-100090000D03*
X97750000Y-100090000D03*
X97750000Y-97550000D03*
X97750000Y-95010000D03*
X97750000Y-92470000D03*
X97750000Y-89930000D03*
X97750000Y-87390000D03*
D16*
X97750000Y-84850000D03*
%TD*%
D20*
%TO.C,R1*%
X66950000Y-109950000D03*
D19*
X51710000Y-109950000D03*
%TD*%
M02*
