%TF.GenerationSoftware,KiCad,Pcbnew,7.0.8*%
%TF.CreationDate,2024-02-13T18:25:42+01:00*%
%TF.ProjectId,BlankingRelay_Top1,426c616e-6b69-46e6-9752-656c61795f54,rev?*%
%TF.SameCoordinates,Original*%
%TF.FileFunction,Legend,Top*%
%TF.FilePolarity,Positive*%
%FSLAX46Y46*%
G04 Gerber Fmt 4.6, Leading zero omitted, Abs format (unit mm)*
G04 Created by KiCad (PCBNEW 7.0.8) date 2024-02-13 18:25:42*
%MOMM*%
%LPD*%
G01*
G04 APERTURE LIST*
%ADD10C,0.150000*%
%ADD11C,0.120000*%
G04 APERTURE END LIST*
D10*
X139630951Y-64031009D02*
X139773808Y-64078628D01*
X139773808Y-64078628D02*
X139821427Y-64126247D01*
X139821427Y-64126247D02*
X139869046Y-64221485D01*
X139869046Y-64221485D02*
X139869046Y-64364342D01*
X139869046Y-64364342D02*
X139821427Y-64459580D01*
X139821427Y-64459580D02*
X139773808Y-64507200D01*
X139773808Y-64507200D02*
X139678570Y-64554819D01*
X139678570Y-64554819D02*
X139297618Y-64554819D01*
X139297618Y-64554819D02*
X139297618Y-63554819D01*
X139297618Y-63554819D02*
X139630951Y-63554819D01*
X139630951Y-63554819D02*
X139726189Y-63602438D01*
X139726189Y-63602438D02*
X139773808Y-63650057D01*
X139773808Y-63650057D02*
X139821427Y-63745295D01*
X139821427Y-63745295D02*
X139821427Y-63840533D01*
X139821427Y-63840533D02*
X139773808Y-63935771D01*
X139773808Y-63935771D02*
X139726189Y-63983390D01*
X139726189Y-63983390D02*
X139630951Y-64031009D01*
X139630951Y-64031009D02*
X139297618Y-64031009D01*
X140297618Y-64554819D02*
X140297618Y-63554819D01*
X140297618Y-63554819D02*
X140869046Y-64554819D01*
X140869046Y-64554819D02*
X140869046Y-63554819D01*
X141916665Y-64459580D02*
X141869046Y-64507200D01*
X141869046Y-64507200D02*
X141726189Y-64554819D01*
X141726189Y-64554819D02*
X141630951Y-64554819D01*
X141630951Y-64554819D02*
X141488094Y-64507200D01*
X141488094Y-64507200D02*
X141392856Y-64411961D01*
X141392856Y-64411961D02*
X141345237Y-64316723D01*
X141345237Y-64316723D02*
X141297618Y-64126247D01*
X141297618Y-64126247D02*
X141297618Y-63983390D01*
X141297618Y-63983390D02*
X141345237Y-63792914D01*
X141345237Y-63792914D02*
X141392856Y-63697676D01*
X141392856Y-63697676D02*
X141488094Y-63602438D01*
X141488094Y-63602438D02*
X141630951Y-63554819D01*
X141630951Y-63554819D02*
X141726189Y-63554819D01*
X141726189Y-63554819D02*
X141869046Y-63602438D01*
X141869046Y-63602438D02*
X141916665Y-63650057D01*
X143249999Y-64554819D02*
X143154761Y-64507200D01*
X143154761Y-64507200D02*
X143107142Y-64459580D01*
X143107142Y-64459580D02*
X143059523Y-64364342D01*
X143059523Y-64364342D02*
X143059523Y-64078628D01*
X143059523Y-64078628D02*
X143107142Y-63983390D01*
X143107142Y-63983390D02*
X143154761Y-63935771D01*
X143154761Y-63935771D02*
X143249999Y-63888152D01*
X143249999Y-63888152D02*
X143392856Y-63888152D01*
X143392856Y-63888152D02*
X143488094Y-63935771D01*
X143488094Y-63935771D02*
X143535713Y-63983390D01*
X143535713Y-63983390D02*
X143583332Y-64078628D01*
X143583332Y-64078628D02*
X143583332Y-64364342D01*
X143583332Y-64364342D02*
X143535713Y-64459580D01*
X143535713Y-64459580D02*
X143488094Y-64507200D01*
X143488094Y-64507200D02*
X143392856Y-64554819D01*
X143392856Y-64554819D02*
X143249999Y-64554819D01*
X144440475Y-63888152D02*
X144440475Y-64554819D01*
X144011904Y-63888152D02*
X144011904Y-64411961D01*
X144011904Y-64411961D02*
X144059523Y-64507200D01*
X144059523Y-64507200D02*
X144154761Y-64554819D01*
X144154761Y-64554819D02*
X144297618Y-64554819D01*
X144297618Y-64554819D02*
X144392856Y-64507200D01*
X144392856Y-64507200D02*
X144440475Y-64459580D01*
X144773809Y-63888152D02*
X145154761Y-63888152D01*
X144916666Y-63554819D02*
X144916666Y-64411961D01*
X144916666Y-64411961D02*
X144964285Y-64507200D01*
X144964285Y-64507200D02*
X145059523Y-64554819D01*
X145059523Y-64554819D02*
X145154761Y-64554819D01*
X145488095Y-63888152D02*
X145488095Y-64888152D01*
X145488095Y-63935771D02*
X145583333Y-63888152D01*
X145583333Y-63888152D02*
X145773809Y-63888152D01*
X145773809Y-63888152D02*
X145869047Y-63935771D01*
X145869047Y-63935771D02*
X145916666Y-63983390D01*
X145916666Y-63983390D02*
X145964285Y-64078628D01*
X145964285Y-64078628D02*
X145964285Y-64364342D01*
X145964285Y-64364342D02*
X145916666Y-64459580D01*
X145916666Y-64459580D02*
X145869047Y-64507200D01*
X145869047Y-64507200D02*
X145773809Y-64554819D01*
X145773809Y-64554819D02*
X145583333Y-64554819D01*
X145583333Y-64554819D02*
X145488095Y-64507200D01*
X146821428Y-63888152D02*
X146821428Y-64554819D01*
X146392857Y-63888152D02*
X146392857Y-64411961D01*
X146392857Y-64411961D02*
X146440476Y-64507200D01*
X146440476Y-64507200D02*
X146535714Y-64554819D01*
X146535714Y-64554819D02*
X146678571Y-64554819D01*
X146678571Y-64554819D02*
X146773809Y-64507200D01*
X146773809Y-64507200D02*
X146821428Y-64459580D01*
X147154762Y-63888152D02*
X147535714Y-63888152D01*
X147297619Y-63554819D02*
X147297619Y-64411961D01*
X147297619Y-64411961D02*
X147345238Y-64507200D01*
X147345238Y-64507200D02*
X147440476Y-64554819D01*
X147440476Y-64554819D02*
X147535714Y-64554819D01*
X149154762Y-64554819D02*
X148583334Y-64554819D01*
X148869048Y-64554819D02*
X148869048Y-63554819D01*
X148869048Y-63554819D02*
X148773810Y-63697676D01*
X148773810Y-63697676D02*
X148678572Y-63792914D01*
X148678572Y-63792914D02*
X148583334Y-63840533D01*
X149630953Y-64554819D02*
X149821429Y-64554819D01*
X149821429Y-64554819D02*
X149916667Y-64507200D01*
X149916667Y-64507200D02*
X149964286Y-64459580D01*
X149964286Y-64459580D02*
X150059524Y-64316723D01*
X150059524Y-64316723D02*
X150107143Y-64126247D01*
X150107143Y-64126247D02*
X150107143Y-63745295D01*
X150107143Y-63745295D02*
X150059524Y-63650057D01*
X150059524Y-63650057D02*
X150011905Y-63602438D01*
X150011905Y-63602438D02*
X149916667Y-63554819D01*
X149916667Y-63554819D02*
X149726191Y-63554819D01*
X149726191Y-63554819D02*
X149630953Y-63602438D01*
X149630953Y-63602438D02*
X149583334Y-63650057D01*
X149583334Y-63650057D02*
X149535715Y-63745295D01*
X149535715Y-63745295D02*
X149535715Y-63983390D01*
X149535715Y-63983390D02*
X149583334Y-64078628D01*
X149583334Y-64078628D02*
X149630953Y-64126247D01*
X149630953Y-64126247D02*
X149726191Y-64173866D01*
X149726191Y-64173866D02*
X149916667Y-64173866D01*
X149916667Y-64173866D02*
X150011905Y-64126247D01*
X150011905Y-64126247D02*
X150059524Y-64078628D01*
X150059524Y-64078628D02*
X150107143Y-63983390D01*
X150535715Y-64173866D02*
X151297620Y-64173866D01*
X151726191Y-63650057D02*
X151773810Y-63602438D01*
X151773810Y-63602438D02*
X151869048Y-63554819D01*
X151869048Y-63554819D02*
X152107143Y-63554819D01*
X152107143Y-63554819D02*
X152202381Y-63602438D01*
X152202381Y-63602438D02*
X152250000Y-63650057D01*
X152250000Y-63650057D02*
X152297619Y-63745295D01*
X152297619Y-63745295D02*
X152297619Y-63840533D01*
X152297619Y-63840533D02*
X152250000Y-63983390D01*
X152250000Y-63983390D02*
X151678572Y-64554819D01*
X151678572Y-64554819D02*
X152297619Y-64554819D01*
X153154762Y-63888152D02*
X153154762Y-64554819D01*
X152916667Y-63507200D02*
X152678572Y-64221485D01*
X152678572Y-64221485D02*
X153297619Y-64221485D01*
X67369047Y-64554819D02*
X67369047Y-63554819D01*
X67369047Y-63554819D02*
X67749999Y-63554819D01*
X67749999Y-63554819D02*
X67845237Y-63602438D01*
X67845237Y-63602438D02*
X67892856Y-63650057D01*
X67892856Y-63650057D02*
X67940475Y-63745295D01*
X67940475Y-63745295D02*
X67940475Y-63888152D01*
X67940475Y-63888152D02*
X67892856Y-63983390D01*
X67892856Y-63983390D02*
X67845237Y-64031009D01*
X67845237Y-64031009D02*
X67749999Y-64078628D01*
X67749999Y-64078628D02*
X67369047Y-64078628D01*
X68511904Y-64554819D02*
X68416666Y-64507200D01*
X68416666Y-64507200D02*
X68369047Y-64459580D01*
X68369047Y-64459580D02*
X68321428Y-64364342D01*
X68321428Y-64364342D02*
X68321428Y-64078628D01*
X68321428Y-64078628D02*
X68369047Y-63983390D01*
X68369047Y-63983390D02*
X68416666Y-63935771D01*
X68416666Y-63935771D02*
X68511904Y-63888152D01*
X68511904Y-63888152D02*
X68654761Y-63888152D01*
X68654761Y-63888152D02*
X68749999Y-63935771D01*
X68749999Y-63935771D02*
X68797618Y-63983390D01*
X68797618Y-63983390D02*
X68845237Y-64078628D01*
X68845237Y-64078628D02*
X68845237Y-64364342D01*
X68845237Y-64364342D02*
X68797618Y-64459580D01*
X68797618Y-64459580D02*
X68749999Y-64507200D01*
X68749999Y-64507200D02*
X68654761Y-64554819D01*
X68654761Y-64554819D02*
X68511904Y-64554819D01*
X69178571Y-63888152D02*
X69369047Y-64554819D01*
X69369047Y-64554819D02*
X69559523Y-64078628D01*
X69559523Y-64078628D02*
X69749999Y-64554819D01*
X69749999Y-64554819D02*
X69940475Y-63888152D01*
X70702380Y-64507200D02*
X70607142Y-64554819D01*
X70607142Y-64554819D02*
X70416666Y-64554819D01*
X70416666Y-64554819D02*
X70321428Y-64507200D01*
X70321428Y-64507200D02*
X70273809Y-64411961D01*
X70273809Y-64411961D02*
X70273809Y-64031009D01*
X70273809Y-64031009D02*
X70321428Y-63935771D01*
X70321428Y-63935771D02*
X70416666Y-63888152D01*
X70416666Y-63888152D02*
X70607142Y-63888152D01*
X70607142Y-63888152D02*
X70702380Y-63935771D01*
X70702380Y-63935771D02*
X70749999Y-64031009D01*
X70749999Y-64031009D02*
X70749999Y-64126247D01*
X70749999Y-64126247D02*
X70273809Y-64221485D01*
X71178571Y-64554819D02*
X71178571Y-63888152D01*
X71178571Y-64078628D02*
X71226190Y-63983390D01*
X71226190Y-63983390D02*
X71273809Y-63935771D01*
X71273809Y-63935771D02*
X71369047Y-63888152D01*
X71369047Y-63888152D02*
X71464285Y-63888152D01*
X72892857Y-64031009D02*
X73035714Y-64078628D01*
X73035714Y-64078628D02*
X73083333Y-64126247D01*
X73083333Y-64126247D02*
X73130952Y-64221485D01*
X73130952Y-64221485D02*
X73130952Y-64364342D01*
X73130952Y-64364342D02*
X73083333Y-64459580D01*
X73083333Y-64459580D02*
X73035714Y-64507200D01*
X73035714Y-64507200D02*
X72940476Y-64554819D01*
X72940476Y-64554819D02*
X72559524Y-64554819D01*
X72559524Y-64554819D02*
X72559524Y-63554819D01*
X72559524Y-63554819D02*
X72892857Y-63554819D01*
X72892857Y-63554819D02*
X72988095Y-63602438D01*
X72988095Y-63602438D02*
X73035714Y-63650057D01*
X73035714Y-63650057D02*
X73083333Y-63745295D01*
X73083333Y-63745295D02*
X73083333Y-63840533D01*
X73083333Y-63840533D02*
X73035714Y-63935771D01*
X73035714Y-63935771D02*
X72988095Y-63983390D01*
X72988095Y-63983390D02*
X72892857Y-64031009D01*
X72892857Y-64031009D02*
X72559524Y-64031009D01*
X73559524Y-64554819D02*
X73559524Y-63554819D01*
X73559524Y-63554819D02*
X74130952Y-64554819D01*
X74130952Y-64554819D02*
X74130952Y-63554819D01*
X75178571Y-64459580D02*
X75130952Y-64507200D01*
X75130952Y-64507200D02*
X74988095Y-64554819D01*
X74988095Y-64554819D02*
X74892857Y-64554819D01*
X74892857Y-64554819D02*
X74750000Y-64507200D01*
X74750000Y-64507200D02*
X74654762Y-64411961D01*
X74654762Y-64411961D02*
X74607143Y-64316723D01*
X74607143Y-64316723D02*
X74559524Y-64126247D01*
X74559524Y-64126247D02*
X74559524Y-63983390D01*
X74559524Y-63983390D02*
X74607143Y-63792914D01*
X74607143Y-63792914D02*
X74654762Y-63697676D01*
X74654762Y-63697676D02*
X74750000Y-63602438D01*
X74750000Y-63602438D02*
X74892857Y-63554819D01*
X74892857Y-63554819D02*
X74988095Y-63554819D01*
X74988095Y-63554819D02*
X75130952Y-63602438D01*
X75130952Y-63602438D02*
X75178571Y-63650057D01*
X100107142Y-64031009D02*
X100249999Y-64078628D01*
X100249999Y-64078628D02*
X100297618Y-64126247D01*
X100297618Y-64126247D02*
X100345237Y-64221485D01*
X100345237Y-64221485D02*
X100345237Y-64364342D01*
X100345237Y-64364342D02*
X100297618Y-64459580D01*
X100297618Y-64459580D02*
X100249999Y-64507200D01*
X100249999Y-64507200D02*
X100154761Y-64554819D01*
X100154761Y-64554819D02*
X99773809Y-64554819D01*
X99773809Y-64554819D02*
X99773809Y-63554819D01*
X99773809Y-63554819D02*
X100107142Y-63554819D01*
X100107142Y-63554819D02*
X100202380Y-63602438D01*
X100202380Y-63602438D02*
X100249999Y-63650057D01*
X100249999Y-63650057D02*
X100297618Y-63745295D01*
X100297618Y-63745295D02*
X100297618Y-63840533D01*
X100297618Y-63840533D02*
X100249999Y-63935771D01*
X100249999Y-63935771D02*
X100202380Y-63983390D01*
X100202380Y-63983390D02*
X100107142Y-64031009D01*
X100107142Y-64031009D02*
X99773809Y-64031009D01*
X100773809Y-64554819D02*
X100773809Y-63554819D01*
X100773809Y-63554819D02*
X101345237Y-64554819D01*
X101345237Y-64554819D02*
X101345237Y-63554819D01*
X102392856Y-64459580D02*
X102345237Y-64507200D01*
X102345237Y-64507200D02*
X102202380Y-64554819D01*
X102202380Y-64554819D02*
X102107142Y-64554819D01*
X102107142Y-64554819D02*
X101964285Y-64507200D01*
X101964285Y-64507200D02*
X101869047Y-64411961D01*
X101869047Y-64411961D02*
X101821428Y-64316723D01*
X101821428Y-64316723D02*
X101773809Y-64126247D01*
X101773809Y-64126247D02*
X101773809Y-63983390D01*
X101773809Y-63983390D02*
X101821428Y-63792914D01*
X101821428Y-63792914D02*
X101869047Y-63697676D01*
X101869047Y-63697676D02*
X101964285Y-63602438D01*
X101964285Y-63602438D02*
X102107142Y-63554819D01*
X102107142Y-63554819D02*
X102202380Y-63554819D01*
X102202380Y-63554819D02*
X102345237Y-63602438D01*
X102345237Y-63602438D02*
X102392856Y-63650057D01*
X103726190Y-64554819D02*
X103630952Y-64507200D01*
X103630952Y-64507200D02*
X103583333Y-64459580D01*
X103583333Y-64459580D02*
X103535714Y-64364342D01*
X103535714Y-64364342D02*
X103535714Y-64078628D01*
X103535714Y-64078628D02*
X103583333Y-63983390D01*
X103583333Y-63983390D02*
X103630952Y-63935771D01*
X103630952Y-63935771D02*
X103726190Y-63888152D01*
X103726190Y-63888152D02*
X103869047Y-63888152D01*
X103869047Y-63888152D02*
X103964285Y-63935771D01*
X103964285Y-63935771D02*
X104011904Y-63983390D01*
X104011904Y-63983390D02*
X104059523Y-64078628D01*
X104059523Y-64078628D02*
X104059523Y-64364342D01*
X104059523Y-64364342D02*
X104011904Y-64459580D01*
X104011904Y-64459580D02*
X103964285Y-64507200D01*
X103964285Y-64507200D02*
X103869047Y-64554819D01*
X103869047Y-64554819D02*
X103726190Y-64554819D01*
X104916666Y-63888152D02*
X104916666Y-64554819D01*
X104488095Y-63888152D02*
X104488095Y-64411961D01*
X104488095Y-64411961D02*
X104535714Y-64507200D01*
X104535714Y-64507200D02*
X104630952Y-64554819D01*
X104630952Y-64554819D02*
X104773809Y-64554819D01*
X104773809Y-64554819D02*
X104869047Y-64507200D01*
X104869047Y-64507200D02*
X104916666Y-64459580D01*
X105250000Y-63888152D02*
X105630952Y-63888152D01*
X105392857Y-63554819D02*
X105392857Y-64411961D01*
X105392857Y-64411961D02*
X105440476Y-64507200D01*
X105440476Y-64507200D02*
X105535714Y-64554819D01*
X105535714Y-64554819D02*
X105630952Y-64554819D01*
X105964286Y-63888152D02*
X105964286Y-64888152D01*
X105964286Y-63935771D02*
X106059524Y-63888152D01*
X106059524Y-63888152D02*
X106250000Y-63888152D01*
X106250000Y-63888152D02*
X106345238Y-63935771D01*
X106345238Y-63935771D02*
X106392857Y-63983390D01*
X106392857Y-63983390D02*
X106440476Y-64078628D01*
X106440476Y-64078628D02*
X106440476Y-64364342D01*
X106440476Y-64364342D02*
X106392857Y-64459580D01*
X106392857Y-64459580D02*
X106345238Y-64507200D01*
X106345238Y-64507200D02*
X106250000Y-64554819D01*
X106250000Y-64554819D02*
X106059524Y-64554819D01*
X106059524Y-64554819D02*
X105964286Y-64507200D01*
X107297619Y-63888152D02*
X107297619Y-64554819D01*
X106869048Y-63888152D02*
X106869048Y-64411961D01*
X106869048Y-64411961D02*
X106916667Y-64507200D01*
X106916667Y-64507200D02*
X107011905Y-64554819D01*
X107011905Y-64554819D02*
X107154762Y-64554819D01*
X107154762Y-64554819D02*
X107250000Y-64507200D01*
X107250000Y-64507200D02*
X107297619Y-64459580D01*
X107630953Y-63888152D02*
X108011905Y-63888152D01*
X107773810Y-63554819D02*
X107773810Y-64411961D01*
X107773810Y-64411961D02*
X107821429Y-64507200D01*
X107821429Y-64507200D02*
X107916667Y-64554819D01*
X107916667Y-64554819D02*
X108011905Y-64554819D01*
X109011906Y-63554819D02*
X109678572Y-63554819D01*
X109678572Y-63554819D02*
X109250001Y-64554819D01*
X110059525Y-64173866D02*
X110821430Y-64173866D01*
X111821429Y-64554819D02*
X111250001Y-64554819D01*
X111535715Y-64554819D02*
X111535715Y-63554819D01*
X111535715Y-63554819D02*
X111440477Y-63697676D01*
X111440477Y-63697676D02*
X111345239Y-63792914D01*
X111345239Y-63792914D02*
X111250001Y-63840533D01*
X112202382Y-63650057D02*
X112250001Y-63602438D01*
X112250001Y-63602438D02*
X112345239Y-63554819D01*
X112345239Y-63554819D02*
X112583334Y-63554819D01*
X112583334Y-63554819D02*
X112678572Y-63602438D01*
X112678572Y-63602438D02*
X112726191Y-63650057D01*
X112726191Y-63650057D02*
X112773810Y-63745295D01*
X112773810Y-63745295D02*
X112773810Y-63840533D01*
X112773810Y-63840533D02*
X112726191Y-63983390D01*
X112726191Y-63983390D02*
X112154763Y-64554819D01*
X112154763Y-64554819D02*
X112773810Y-64554819D01*
X119630951Y-64031009D02*
X119773808Y-64078628D01*
X119773808Y-64078628D02*
X119821427Y-64126247D01*
X119821427Y-64126247D02*
X119869046Y-64221485D01*
X119869046Y-64221485D02*
X119869046Y-64364342D01*
X119869046Y-64364342D02*
X119821427Y-64459580D01*
X119821427Y-64459580D02*
X119773808Y-64507200D01*
X119773808Y-64507200D02*
X119678570Y-64554819D01*
X119678570Y-64554819D02*
X119297618Y-64554819D01*
X119297618Y-64554819D02*
X119297618Y-63554819D01*
X119297618Y-63554819D02*
X119630951Y-63554819D01*
X119630951Y-63554819D02*
X119726189Y-63602438D01*
X119726189Y-63602438D02*
X119773808Y-63650057D01*
X119773808Y-63650057D02*
X119821427Y-63745295D01*
X119821427Y-63745295D02*
X119821427Y-63840533D01*
X119821427Y-63840533D02*
X119773808Y-63935771D01*
X119773808Y-63935771D02*
X119726189Y-63983390D01*
X119726189Y-63983390D02*
X119630951Y-64031009D01*
X119630951Y-64031009D02*
X119297618Y-64031009D01*
X120297618Y-64554819D02*
X120297618Y-63554819D01*
X120297618Y-63554819D02*
X120869046Y-64554819D01*
X120869046Y-64554819D02*
X120869046Y-63554819D01*
X121916665Y-64459580D02*
X121869046Y-64507200D01*
X121869046Y-64507200D02*
X121726189Y-64554819D01*
X121726189Y-64554819D02*
X121630951Y-64554819D01*
X121630951Y-64554819D02*
X121488094Y-64507200D01*
X121488094Y-64507200D02*
X121392856Y-64411961D01*
X121392856Y-64411961D02*
X121345237Y-64316723D01*
X121345237Y-64316723D02*
X121297618Y-64126247D01*
X121297618Y-64126247D02*
X121297618Y-63983390D01*
X121297618Y-63983390D02*
X121345237Y-63792914D01*
X121345237Y-63792914D02*
X121392856Y-63697676D01*
X121392856Y-63697676D02*
X121488094Y-63602438D01*
X121488094Y-63602438D02*
X121630951Y-63554819D01*
X121630951Y-63554819D02*
X121726189Y-63554819D01*
X121726189Y-63554819D02*
X121869046Y-63602438D01*
X121869046Y-63602438D02*
X121916665Y-63650057D01*
X123249999Y-64554819D02*
X123154761Y-64507200D01*
X123154761Y-64507200D02*
X123107142Y-64459580D01*
X123107142Y-64459580D02*
X123059523Y-64364342D01*
X123059523Y-64364342D02*
X123059523Y-64078628D01*
X123059523Y-64078628D02*
X123107142Y-63983390D01*
X123107142Y-63983390D02*
X123154761Y-63935771D01*
X123154761Y-63935771D02*
X123249999Y-63888152D01*
X123249999Y-63888152D02*
X123392856Y-63888152D01*
X123392856Y-63888152D02*
X123488094Y-63935771D01*
X123488094Y-63935771D02*
X123535713Y-63983390D01*
X123535713Y-63983390D02*
X123583332Y-64078628D01*
X123583332Y-64078628D02*
X123583332Y-64364342D01*
X123583332Y-64364342D02*
X123535713Y-64459580D01*
X123535713Y-64459580D02*
X123488094Y-64507200D01*
X123488094Y-64507200D02*
X123392856Y-64554819D01*
X123392856Y-64554819D02*
X123249999Y-64554819D01*
X124440475Y-63888152D02*
X124440475Y-64554819D01*
X124011904Y-63888152D02*
X124011904Y-64411961D01*
X124011904Y-64411961D02*
X124059523Y-64507200D01*
X124059523Y-64507200D02*
X124154761Y-64554819D01*
X124154761Y-64554819D02*
X124297618Y-64554819D01*
X124297618Y-64554819D02*
X124392856Y-64507200D01*
X124392856Y-64507200D02*
X124440475Y-64459580D01*
X124773809Y-63888152D02*
X125154761Y-63888152D01*
X124916666Y-63554819D02*
X124916666Y-64411961D01*
X124916666Y-64411961D02*
X124964285Y-64507200D01*
X124964285Y-64507200D02*
X125059523Y-64554819D01*
X125059523Y-64554819D02*
X125154761Y-64554819D01*
X125488095Y-63888152D02*
X125488095Y-64888152D01*
X125488095Y-63935771D02*
X125583333Y-63888152D01*
X125583333Y-63888152D02*
X125773809Y-63888152D01*
X125773809Y-63888152D02*
X125869047Y-63935771D01*
X125869047Y-63935771D02*
X125916666Y-63983390D01*
X125916666Y-63983390D02*
X125964285Y-64078628D01*
X125964285Y-64078628D02*
X125964285Y-64364342D01*
X125964285Y-64364342D02*
X125916666Y-64459580D01*
X125916666Y-64459580D02*
X125869047Y-64507200D01*
X125869047Y-64507200D02*
X125773809Y-64554819D01*
X125773809Y-64554819D02*
X125583333Y-64554819D01*
X125583333Y-64554819D02*
X125488095Y-64507200D01*
X126821428Y-63888152D02*
X126821428Y-64554819D01*
X126392857Y-63888152D02*
X126392857Y-64411961D01*
X126392857Y-64411961D02*
X126440476Y-64507200D01*
X126440476Y-64507200D02*
X126535714Y-64554819D01*
X126535714Y-64554819D02*
X126678571Y-64554819D01*
X126678571Y-64554819D02*
X126773809Y-64507200D01*
X126773809Y-64507200D02*
X126821428Y-64459580D01*
X127154762Y-63888152D02*
X127535714Y-63888152D01*
X127297619Y-63554819D02*
X127297619Y-64411961D01*
X127297619Y-64411961D02*
X127345238Y-64507200D01*
X127345238Y-64507200D02*
X127440476Y-64554819D01*
X127440476Y-64554819D02*
X127535714Y-64554819D01*
X129154762Y-64554819D02*
X128583334Y-64554819D01*
X128869048Y-64554819D02*
X128869048Y-63554819D01*
X128869048Y-63554819D02*
X128773810Y-63697676D01*
X128773810Y-63697676D02*
X128678572Y-63792914D01*
X128678572Y-63792914D02*
X128583334Y-63840533D01*
X129488096Y-63554819D02*
X130107143Y-63554819D01*
X130107143Y-63554819D02*
X129773810Y-63935771D01*
X129773810Y-63935771D02*
X129916667Y-63935771D01*
X129916667Y-63935771D02*
X130011905Y-63983390D01*
X130011905Y-63983390D02*
X130059524Y-64031009D01*
X130059524Y-64031009D02*
X130107143Y-64126247D01*
X130107143Y-64126247D02*
X130107143Y-64364342D01*
X130107143Y-64364342D02*
X130059524Y-64459580D01*
X130059524Y-64459580D02*
X130011905Y-64507200D01*
X130011905Y-64507200D02*
X129916667Y-64554819D01*
X129916667Y-64554819D02*
X129630953Y-64554819D01*
X129630953Y-64554819D02*
X129535715Y-64507200D01*
X129535715Y-64507200D02*
X129488096Y-64459580D01*
X130535715Y-64173866D02*
X131297620Y-64173866D01*
X132297619Y-64554819D02*
X131726191Y-64554819D01*
X132011905Y-64554819D02*
X132011905Y-63554819D01*
X132011905Y-63554819D02*
X131916667Y-63697676D01*
X131916667Y-63697676D02*
X131821429Y-63792914D01*
X131821429Y-63792914D02*
X131726191Y-63840533D01*
X132869048Y-63983390D02*
X132773810Y-63935771D01*
X132773810Y-63935771D02*
X132726191Y-63888152D01*
X132726191Y-63888152D02*
X132678572Y-63792914D01*
X132678572Y-63792914D02*
X132678572Y-63745295D01*
X132678572Y-63745295D02*
X132726191Y-63650057D01*
X132726191Y-63650057D02*
X132773810Y-63602438D01*
X132773810Y-63602438D02*
X132869048Y-63554819D01*
X132869048Y-63554819D02*
X133059524Y-63554819D01*
X133059524Y-63554819D02*
X133154762Y-63602438D01*
X133154762Y-63602438D02*
X133202381Y-63650057D01*
X133202381Y-63650057D02*
X133250000Y-63745295D01*
X133250000Y-63745295D02*
X133250000Y-63792914D01*
X133250000Y-63792914D02*
X133202381Y-63888152D01*
X133202381Y-63888152D02*
X133154762Y-63935771D01*
X133154762Y-63935771D02*
X133059524Y-63983390D01*
X133059524Y-63983390D02*
X132869048Y-63983390D01*
X132869048Y-63983390D02*
X132773810Y-64031009D01*
X132773810Y-64031009D02*
X132726191Y-64078628D01*
X132726191Y-64078628D02*
X132678572Y-64173866D01*
X132678572Y-64173866D02*
X132678572Y-64364342D01*
X132678572Y-64364342D02*
X132726191Y-64459580D01*
X132726191Y-64459580D02*
X132773810Y-64507200D01*
X132773810Y-64507200D02*
X132869048Y-64554819D01*
X132869048Y-64554819D02*
X133059524Y-64554819D01*
X133059524Y-64554819D02*
X133154762Y-64507200D01*
X133154762Y-64507200D02*
X133202381Y-64459580D01*
X133202381Y-64459580D02*
X133250000Y-64364342D01*
X133250000Y-64364342D02*
X133250000Y-64173866D01*
X133250000Y-64173866D02*
X133202381Y-64078628D01*
X133202381Y-64078628D02*
X133154762Y-64031009D01*
X133154762Y-64031009D02*
X133059524Y-63983390D01*
X80583332Y-64031009D02*
X80726189Y-64078628D01*
X80726189Y-64078628D02*
X80773808Y-64126247D01*
X80773808Y-64126247D02*
X80821427Y-64221485D01*
X80821427Y-64221485D02*
X80821427Y-64364342D01*
X80821427Y-64364342D02*
X80773808Y-64459580D01*
X80773808Y-64459580D02*
X80726189Y-64507200D01*
X80726189Y-64507200D02*
X80630951Y-64554819D01*
X80630951Y-64554819D02*
X80249999Y-64554819D01*
X80249999Y-64554819D02*
X80249999Y-63554819D01*
X80249999Y-63554819D02*
X80583332Y-63554819D01*
X80583332Y-63554819D02*
X80678570Y-63602438D01*
X80678570Y-63602438D02*
X80726189Y-63650057D01*
X80726189Y-63650057D02*
X80773808Y-63745295D01*
X80773808Y-63745295D02*
X80773808Y-63840533D01*
X80773808Y-63840533D02*
X80726189Y-63935771D01*
X80726189Y-63935771D02*
X80678570Y-63983390D01*
X80678570Y-63983390D02*
X80583332Y-64031009D01*
X80583332Y-64031009D02*
X80249999Y-64031009D01*
X81249999Y-64554819D02*
X81249999Y-63554819D01*
X81249999Y-63554819D02*
X81821427Y-64554819D01*
X81821427Y-64554819D02*
X81821427Y-63554819D01*
X82869046Y-64459580D02*
X82821427Y-64507200D01*
X82821427Y-64507200D02*
X82678570Y-64554819D01*
X82678570Y-64554819D02*
X82583332Y-64554819D01*
X82583332Y-64554819D02*
X82440475Y-64507200D01*
X82440475Y-64507200D02*
X82345237Y-64411961D01*
X82345237Y-64411961D02*
X82297618Y-64316723D01*
X82297618Y-64316723D02*
X82249999Y-64126247D01*
X82249999Y-64126247D02*
X82249999Y-63983390D01*
X82249999Y-63983390D02*
X82297618Y-63792914D01*
X82297618Y-63792914D02*
X82345237Y-63697676D01*
X82345237Y-63697676D02*
X82440475Y-63602438D01*
X82440475Y-63602438D02*
X82583332Y-63554819D01*
X82583332Y-63554819D02*
X82678570Y-63554819D01*
X82678570Y-63554819D02*
X82821427Y-63602438D01*
X82821427Y-63602438D02*
X82869046Y-63650057D01*
X84202380Y-64554819D02*
X84107142Y-64507200D01*
X84107142Y-64507200D02*
X84059523Y-64459580D01*
X84059523Y-64459580D02*
X84011904Y-64364342D01*
X84011904Y-64364342D02*
X84011904Y-64078628D01*
X84011904Y-64078628D02*
X84059523Y-63983390D01*
X84059523Y-63983390D02*
X84107142Y-63935771D01*
X84107142Y-63935771D02*
X84202380Y-63888152D01*
X84202380Y-63888152D02*
X84345237Y-63888152D01*
X84345237Y-63888152D02*
X84440475Y-63935771D01*
X84440475Y-63935771D02*
X84488094Y-63983390D01*
X84488094Y-63983390D02*
X84535713Y-64078628D01*
X84535713Y-64078628D02*
X84535713Y-64364342D01*
X84535713Y-64364342D02*
X84488094Y-64459580D01*
X84488094Y-64459580D02*
X84440475Y-64507200D01*
X84440475Y-64507200D02*
X84345237Y-64554819D01*
X84345237Y-64554819D02*
X84202380Y-64554819D01*
X85392856Y-63888152D02*
X85392856Y-64554819D01*
X84964285Y-63888152D02*
X84964285Y-64411961D01*
X84964285Y-64411961D02*
X85011904Y-64507200D01*
X85011904Y-64507200D02*
X85107142Y-64554819D01*
X85107142Y-64554819D02*
X85249999Y-64554819D01*
X85249999Y-64554819D02*
X85345237Y-64507200D01*
X85345237Y-64507200D02*
X85392856Y-64459580D01*
X85726190Y-63888152D02*
X86107142Y-63888152D01*
X85869047Y-63554819D02*
X85869047Y-64411961D01*
X85869047Y-64411961D02*
X85916666Y-64507200D01*
X85916666Y-64507200D02*
X86011904Y-64554819D01*
X86011904Y-64554819D02*
X86107142Y-64554819D01*
X86440476Y-63888152D02*
X86440476Y-64888152D01*
X86440476Y-63935771D02*
X86535714Y-63888152D01*
X86535714Y-63888152D02*
X86726190Y-63888152D01*
X86726190Y-63888152D02*
X86821428Y-63935771D01*
X86821428Y-63935771D02*
X86869047Y-63983390D01*
X86869047Y-63983390D02*
X86916666Y-64078628D01*
X86916666Y-64078628D02*
X86916666Y-64364342D01*
X86916666Y-64364342D02*
X86869047Y-64459580D01*
X86869047Y-64459580D02*
X86821428Y-64507200D01*
X86821428Y-64507200D02*
X86726190Y-64554819D01*
X86726190Y-64554819D02*
X86535714Y-64554819D01*
X86535714Y-64554819D02*
X86440476Y-64507200D01*
X87773809Y-63888152D02*
X87773809Y-64554819D01*
X87345238Y-63888152D02*
X87345238Y-64411961D01*
X87345238Y-64411961D02*
X87392857Y-64507200D01*
X87392857Y-64507200D02*
X87488095Y-64554819D01*
X87488095Y-64554819D02*
X87630952Y-64554819D01*
X87630952Y-64554819D02*
X87726190Y-64507200D01*
X87726190Y-64507200D02*
X87773809Y-64459580D01*
X88107143Y-63888152D02*
X88488095Y-63888152D01*
X88250000Y-63554819D02*
X88250000Y-64411961D01*
X88250000Y-64411961D02*
X88297619Y-64507200D01*
X88297619Y-64507200D02*
X88392857Y-64554819D01*
X88392857Y-64554819D02*
X88488095Y-64554819D01*
X90107143Y-64554819D02*
X89535715Y-64554819D01*
X89821429Y-64554819D02*
X89821429Y-63554819D01*
X89821429Y-63554819D02*
X89726191Y-63697676D01*
X89726191Y-63697676D02*
X89630953Y-63792914D01*
X89630953Y-63792914D02*
X89535715Y-63840533D01*
X90535715Y-64173866D02*
X91297620Y-64173866D01*
X92202381Y-63554819D02*
X92011905Y-63554819D01*
X92011905Y-63554819D02*
X91916667Y-63602438D01*
X91916667Y-63602438D02*
X91869048Y-63650057D01*
X91869048Y-63650057D02*
X91773810Y-63792914D01*
X91773810Y-63792914D02*
X91726191Y-63983390D01*
X91726191Y-63983390D02*
X91726191Y-64364342D01*
X91726191Y-64364342D02*
X91773810Y-64459580D01*
X91773810Y-64459580D02*
X91821429Y-64507200D01*
X91821429Y-64507200D02*
X91916667Y-64554819D01*
X91916667Y-64554819D02*
X92107143Y-64554819D01*
X92107143Y-64554819D02*
X92202381Y-64507200D01*
X92202381Y-64507200D02*
X92250000Y-64459580D01*
X92250000Y-64459580D02*
X92297619Y-64364342D01*
X92297619Y-64364342D02*
X92297619Y-64126247D01*
X92297619Y-64126247D02*
X92250000Y-64031009D01*
X92250000Y-64031009D02*
X92202381Y-63983390D01*
X92202381Y-63983390D02*
X92107143Y-63935771D01*
X92107143Y-63935771D02*
X91916667Y-63935771D01*
X91916667Y-63935771D02*
X91821429Y-63983390D01*
X91821429Y-63983390D02*
X91773810Y-64031009D01*
X91773810Y-64031009D02*
X91726191Y-64126247D01*
X131919047Y-69431009D02*
X132061904Y-69478628D01*
X132061904Y-69478628D02*
X132109523Y-69526247D01*
X132109523Y-69526247D02*
X132157142Y-69621485D01*
X132157142Y-69621485D02*
X132157142Y-69764342D01*
X132157142Y-69764342D02*
X132109523Y-69859580D01*
X132109523Y-69859580D02*
X132061904Y-69907200D01*
X132061904Y-69907200D02*
X131966666Y-69954819D01*
X131966666Y-69954819D02*
X131585714Y-69954819D01*
X131585714Y-69954819D02*
X131585714Y-68954819D01*
X131585714Y-68954819D02*
X131919047Y-68954819D01*
X131919047Y-68954819D02*
X132014285Y-69002438D01*
X132014285Y-69002438D02*
X132061904Y-69050057D01*
X132061904Y-69050057D02*
X132109523Y-69145295D01*
X132109523Y-69145295D02*
X132109523Y-69240533D01*
X132109523Y-69240533D02*
X132061904Y-69335771D01*
X132061904Y-69335771D02*
X132014285Y-69383390D01*
X132014285Y-69383390D02*
X131919047Y-69431009D01*
X131919047Y-69431009D02*
X131585714Y-69431009D01*
X132585714Y-69954819D02*
X132585714Y-68954819D01*
X132585714Y-68954819D02*
X133157142Y-69954819D01*
X133157142Y-69954819D02*
X133157142Y-68954819D01*
X134204761Y-69859580D02*
X134157142Y-69907200D01*
X134157142Y-69907200D02*
X134014285Y-69954819D01*
X134014285Y-69954819D02*
X133919047Y-69954819D01*
X133919047Y-69954819D02*
X133776190Y-69907200D01*
X133776190Y-69907200D02*
X133680952Y-69811961D01*
X133680952Y-69811961D02*
X133633333Y-69716723D01*
X133633333Y-69716723D02*
X133585714Y-69526247D01*
X133585714Y-69526247D02*
X133585714Y-69383390D01*
X133585714Y-69383390D02*
X133633333Y-69192914D01*
X133633333Y-69192914D02*
X133680952Y-69097676D01*
X133680952Y-69097676D02*
X133776190Y-69002438D01*
X133776190Y-69002438D02*
X133919047Y-68954819D01*
X133919047Y-68954819D02*
X134014285Y-68954819D01*
X134014285Y-68954819D02*
X134157142Y-69002438D01*
X134157142Y-69002438D02*
X134204761Y-69050057D01*
X135585714Y-68954819D02*
X135776190Y-68954819D01*
X135776190Y-68954819D02*
X135871428Y-69002438D01*
X135871428Y-69002438D02*
X135966666Y-69097676D01*
X135966666Y-69097676D02*
X136014285Y-69288152D01*
X136014285Y-69288152D02*
X136014285Y-69621485D01*
X136014285Y-69621485D02*
X135966666Y-69811961D01*
X135966666Y-69811961D02*
X135871428Y-69907200D01*
X135871428Y-69907200D02*
X135776190Y-69954819D01*
X135776190Y-69954819D02*
X135585714Y-69954819D01*
X135585714Y-69954819D02*
X135490476Y-69907200D01*
X135490476Y-69907200D02*
X135395238Y-69811961D01*
X135395238Y-69811961D02*
X135347619Y-69621485D01*
X135347619Y-69621485D02*
X135347619Y-69288152D01*
X135347619Y-69288152D02*
X135395238Y-69097676D01*
X135395238Y-69097676D02*
X135490476Y-69002438D01*
X135490476Y-69002438D02*
X135585714Y-68954819D01*
X136871428Y-69288152D02*
X136871428Y-69954819D01*
X136442857Y-69288152D02*
X136442857Y-69811961D01*
X136442857Y-69811961D02*
X136490476Y-69907200D01*
X136490476Y-69907200D02*
X136585714Y-69954819D01*
X136585714Y-69954819D02*
X136728571Y-69954819D01*
X136728571Y-69954819D02*
X136823809Y-69907200D01*
X136823809Y-69907200D02*
X136871428Y-69859580D01*
X137204762Y-69288152D02*
X137585714Y-69288152D01*
X137347619Y-68954819D02*
X137347619Y-69811961D01*
X137347619Y-69811961D02*
X137395238Y-69907200D01*
X137395238Y-69907200D02*
X137490476Y-69954819D01*
X137490476Y-69954819D02*
X137585714Y-69954819D01*
X139157143Y-68954819D02*
X138680953Y-68954819D01*
X138680953Y-68954819D02*
X138633334Y-69431009D01*
X138633334Y-69431009D02*
X138680953Y-69383390D01*
X138680953Y-69383390D02*
X138776191Y-69335771D01*
X138776191Y-69335771D02*
X139014286Y-69335771D01*
X139014286Y-69335771D02*
X139109524Y-69383390D01*
X139109524Y-69383390D02*
X139157143Y-69431009D01*
X139157143Y-69431009D02*
X139204762Y-69526247D01*
X139204762Y-69526247D02*
X139204762Y-69764342D01*
X139204762Y-69764342D02*
X139157143Y-69859580D01*
X139157143Y-69859580D02*
X139109524Y-69907200D01*
X139109524Y-69907200D02*
X139014286Y-69954819D01*
X139014286Y-69954819D02*
X138776191Y-69954819D01*
X138776191Y-69954819D02*
X138680953Y-69907200D01*
X138680953Y-69907200D02*
X138633334Y-69859580D01*
X140347619Y-68907200D02*
X139490477Y-70192914D01*
X141204762Y-69954819D02*
X140633334Y-69954819D01*
X140919048Y-69954819D02*
X140919048Y-68954819D01*
X140919048Y-68954819D02*
X140823810Y-69097676D01*
X140823810Y-69097676D02*
X140728572Y-69192914D01*
X140728572Y-69192914D02*
X140633334Y-69240533D01*
X142157143Y-69954819D02*
X141585715Y-69954819D01*
X141871429Y-69954819D02*
X141871429Y-68954819D01*
X141871429Y-68954819D02*
X141776191Y-69097676D01*
X141776191Y-69097676D02*
X141680953Y-69192914D01*
X141680953Y-69192914D02*
X141585715Y-69240533D01*
X143300000Y-68907200D02*
X142442858Y-70192914D01*
X144157143Y-69954819D02*
X143585715Y-69954819D01*
X143871429Y-69954819D02*
X143871429Y-68954819D01*
X143871429Y-68954819D02*
X143776191Y-69097676D01*
X143776191Y-69097676D02*
X143680953Y-69192914D01*
X143680953Y-69192914D02*
X143585715Y-69240533D01*
X144490477Y-68954819D02*
X145157143Y-68954819D01*
X145157143Y-68954819D02*
X144728572Y-69954819D01*
X146252381Y-68907200D02*
X145395239Y-70192914D01*
X146538096Y-69050057D02*
X146585715Y-69002438D01*
X146585715Y-69002438D02*
X146680953Y-68954819D01*
X146680953Y-68954819D02*
X146919048Y-68954819D01*
X146919048Y-68954819D02*
X147014286Y-69002438D01*
X147014286Y-69002438D02*
X147061905Y-69050057D01*
X147061905Y-69050057D02*
X147109524Y-69145295D01*
X147109524Y-69145295D02*
X147109524Y-69240533D01*
X147109524Y-69240533D02*
X147061905Y-69383390D01*
X147061905Y-69383390D02*
X146490477Y-69954819D01*
X146490477Y-69954819D02*
X147109524Y-69954819D01*
X147442858Y-68954819D02*
X148061905Y-68954819D01*
X148061905Y-68954819D02*
X147728572Y-69335771D01*
X147728572Y-69335771D02*
X147871429Y-69335771D01*
X147871429Y-69335771D02*
X147966667Y-69383390D01*
X147966667Y-69383390D02*
X148014286Y-69431009D01*
X148014286Y-69431009D02*
X148061905Y-69526247D01*
X148061905Y-69526247D02*
X148061905Y-69764342D01*
X148061905Y-69764342D02*
X148014286Y-69859580D01*
X148014286Y-69859580D02*
X147966667Y-69907200D01*
X147966667Y-69907200D02*
X147871429Y-69954819D01*
X147871429Y-69954819D02*
X147585715Y-69954819D01*
X147585715Y-69954819D02*
X147490477Y-69907200D01*
X147490477Y-69907200D02*
X147442858Y-69859580D01*
X151819047Y-69431009D02*
X151961904Y-69478628D01*
X151961904Y-69478628D02*
X152009523Y-69526247D01*
X152009523Y-69526247D02*
X152057142Y-69621485D01*
X152057142Y-69621485D02*
X152057142Y-69764342D01*
X152057142Y-69764342D02*
X152009523Y-69859580D01*
X152009523Y-69859580D02*
X151961904Y-69907200D01*
X151961904Y-69907200D02*
X151866666Y-69954819D01*
X151866666Y-69954819D02*
X151485714Y-69954819D01*
X151485714Y-69954819D02*
X151485714Y-68954819D01*
X151485714Y-68954819D02*
X151819047Y-68954819D01*
X151819047Y-68954819D02*
X151914285Y-69002438D01*
X151914285Y-69002438D02*
X151961904Y-69050057D01*
X151961904Y-69050057D02*
X152009523Y-69145295D01*
X152009523Y-69145295D02*
X152009523Y-69240533D01*
X152009523Y-69240533D02*
X151961904Y-69335771D01*
X151961904Y-69335771D02*
X151914285Y-69383390D01*
X151914285Y-69383390D02*
X151819047Y-69431009D01*
X151819047Y-69431009D02*
X151485714Y-69431009D01*
X152485714Y-69954819D02*
X152485714Y-68954819D01*
X152485714Y-68954819D02*
X153057142Y-69954819D01*
X153057142Y-69954819D02*
X153057142Y-68954819D01*
X154104761Y-69859580D02*
X154057142Y-69907200D01*
X154057142Y-69907200D02*
X153914285Y-69954819D01*
X153914285Y-69954819D02*
X153819047Y-69954819D01*
X153819047Y-69954819D02*
X153676190Y-69907200D01*
X153676190Y-69907200D02*
X153580952Y-69811961D01*
X153580952Y-69811961D02*
X153533333Y-69716723D01*
X153533333Y-69716723D02*
X153485714Y-69526247D01*
X153485714Y-69526247D02*
X153485714Y-69383390D01*
X153485714Y-69383390D02*
X153533333Y-69192914D01*
X153533333Y-69192914D02*
X153580952Y-69097676D01*
X153580952Y-69097676D02*
X153676190Y-69002438D01*
X153676190Y-69002438D02*
X153819047Y-68954819D01*
X153819047Y-68954819D02*
X153914285Y-68954819D01*
X153914285Y-68954819D02*
X154057142Y-69002438D01*
X154057142Y-69002438D02*
X154104761Y-69050057D01*
X155485714Y-68954819D02*
X155676190Y-68954819D01*
X155676190Y-68954819D02*
X155771428Y-69002438D01*
X155771428Y-69002438D02*
X155866666Y-69097676D01*
X155866666Y-69097676D02*
X155914285Y-69288152D01*
X155914285Y-69288152D02*
X155914285Y-69621485D01*
X155914285Y-69621485D02*
X155866666Y-69811961D01*
X155866666Y-69811961D02*
X155771428Y-69907200D01*
X155771428Y-69907200D02*
X155676190Y-69954819D01*
X155676190Y-69954819D02*
X155485714Y-69954819D01*
X155485714Y-69954819D02*
X155390476Y-69907200D01*
X155390476Y-69907200D02*
X155295238Y-69811961D01*
X155295238Y-69811961D02*
X155247619Y-69621485D01*
X155247619Y-69621485D02*
X155247619Y-69288152D01*
X155247619Y-69288152D02*
X155295238Y-69097676D01*
X155295238Y-69097676D02*
X155390476Y-69002438D01*
X155390476Y-69002438D02*
X155485714Y-68954819D01*
X156771428Y-69288152D02*
X156771428Y-69954819D01*
X156342857Y-69288152D02*
X156342857Y-69811961D01*
X156342857Y-69811961D02*
X156390476Y-69907200D01*
X156390476Y-69907200D02*
X156485714Y-69954819D01*
X156485714Y-69954819D02*
X156628571Y-69954819D01*
X156628571Y-69954819D02*
X156723809Y-69907200D01*
X156723809Y-69907200D02*
X156771428Y-69859580D01*
X157104762Y-69288152D02*
X157485714Y-69288152D01*
X157247619Y-68954819D02*
X157247619Y-69811961D01*
X157247619Y-69811961D02*
X157295238Y-69907200D01*
X157295238Y-69907200D02*
X157390476Y-69954819D01*
X157390476Y-69954819D02*
X157485714Y-69954819D01*
X159009524Y-68954819D02*
X158819048Y-68954819D01*
X158819048Y-68954819D02*
X158723810Y-69002438D01*
X158723810Y-69002438D02*
X158676191Y-69050057D01*
X158676191Y-69050057D02*
X158580953Y-69192914D01*
X158580953Y-69192914D02*
X158533334Y-69383390D01*
X158533334Y-69383390D02*
X158533334Y-69764342D01*
X158533334Y-69764342D02*
X158580953Y-69859580D01*
X158580953Y-69859580D02*
X158628572Y-69907200D01*
X158628572Y-69907200D02*
X158723810Y-69954819D01*
X158723810Y-69954819D02*
X158914286Y-69954819D01*
X158914286Y-69954819D02*
X159009524Y-69907200D01*
X159009524Y-69907200D02*
X159057143Y-69859580D01*
X159057143Y-69859580D02*
X159104762Y-69764342D01*
X159104762Y-69764342D02*
X159104762Y-69526247D01*
X159104762Y-69526247D02*
X159057143Y-69431009D01*
X159057143Y-69431009D02*
X159009524Y-69383390D01*
X159009524Y-69383390D02*
X158914286Y-69335771D01*
X158914286Y-69335771D02*
X158723810Y-69335771D01*
X158723810Y-69335771D02*
X158628572Y-69383390D01*
X158628572Y-69383390D02*
X158580953Y-69431009D01*
X158580953Y-69431009D02*
X158533334Y-69526247D01*
X160247619Y-68907200D02*
X159390477Y-70192914D01*
X161104762Y-69954819D02*
X160533334Y-69954819D01*
X160819048Y-69954819D02*
X160819048Y-68954819D01*
X160819048Y-68954819D02*
X160723810Y-69097676D01*
X160723810Y-69097676D02*
X160628572Y-69192914D01*
X160628572Y-69192914D02*
X160533334Y-69240533D01*
X161485715Y-69050057D02*
X161533334Y-69002438D01*
X161533334Y-69002438D02*
X161628572Y-68954819D01*
X161628572Y-68954819D02*
X161866667Y-68954819D01*
X161866667Y-68954819D02*
X161961905Y-69002438D01*
X161961905Y-69002438D02*
X162009524Y-69050057D01*
X162009524Y-69050057D02*
X162057143Y-69145295D01*
X162057143Y-69145295D02*
X162057143Y-69240533D01*
X162057143Y-69240533D02*
X162009524Y-69383390D01*
X162009524Y-69383390D02*
X161438096Y-69954819D01*
X161438096Y-69954819D02*
X162057143Y-69954819D01*
X163200000Y-68907200D02*
X162342858Y-70192914D01*
X164057143Y-69954819D02*
X163485715Y-69954819D01*
X163771429Y-69954819D02*
X163771429Y-68954819D01*
X163771429Y-68954819D02*
X163676191Y-69097676D01*
X163676191Y-69097676D02*
X163580953Y-69192914D01*
X163580953Y-69192914D02*
X163485715Y-69240533D01*
X164628572Y-69383390D02*
X164533334Y-69335771D01*
X164533334Y-69335771D02*
X164485715Y-69288152D01*
X164485715Y-69288152D02*
X164438096Y-69192914D01*
X164438096Y-69192914D02*
X164438096Y-69145295D01*
X164438096Y-69145295D02*
X164485715Y-69050057D01*
X164485715Y-69050057D02*
X164533334Y-69002438D01*
X164533334Y-69002438D02*
X164628572Y-68954819D01*
X164628572Y-68954819D02*
X164819048Y-68954819D01*
X164819048Y-68954819D02*
X164914286Y-69002438D01*
X164914286Y-69002438D02*
X164961905Y-69050057D01*
X164961905Y-69050057D02*
X165009524Y-69145295D01*
X165009524Y-69145295D02*
X165009524Y-69192914D01*
X165009524Y-69192914D02*
X164961905Y-69288152D01*
X164961905Y-69288152D02*
X164914286Y-69335771D01*
X164914286Y-69335771D02*
X164819048Y-69383390D01*
X164819048Y-69383390D02*
X164628572Y-69383390D01*
X164628572Y-69383390D02*
X164533334Y-69431009D01*
X164533334Y-69431009D02*
X164485715Y-69478628D01*
X164485715Y-69478628D02*
X164438096Y-69573866D01*
X164438096Y-69573866D02*
X164438096Y-69764342D01*
X164438096Y-69764342D02*
X164485715Y-69859580D01*
X164485715Y-69859580D02*
X164533334Y-69907200D01*
X164533334Y-69907200D02*
X164628572Y-69954819D01*
X164628572Y-69954819D02*
X164819048Y-69954819D01*
X164819048Y-69954819D02*
X164914286Y-69907200D01*
X164914286Y-69907200D02*
X164961905Y-69859580D01*
X164961905Y-69859580D02*
X165009524Y-69764342D01*
X165009524Y-69764342D02*
X165009524Y-69573866D01*
X165009524Y-69573866D02*
X164961905Y-69478628D01*
X164961905Y-69478628D02*
X164914286Y-69431009D01*
X164914286Y-69431009D02*
X164819048Y-69383390D01*
X166152381Y-68907200D02*
X165295239Y-70192914D01*
X166438096Y-69050057D02*
X166485715Y-69002438D01*
X166485715Y-69002438D02*
X166580953Y-68954819D01*
X166580953Y-68954819D02*
X166819048Y-68954819D01*
X166819048Y-68954819D02*
X166914286Y-69002438D01*
X166914286Y-69002438D02*
X166961905Y-69050057D01*
X166961905Y-69050057D02*
X167009524Y-69145295D01*
X167009524Y-69145295D02*
X167009524Y-69240533D01*
X167009524Y-69240533D02*
X166961905Y-69383390D01*
X166961905Y-69383390D02*
X166390477Y-69954819D01*
X166390477Y-69954819D02*
X167009524Y-69954819D01*
X167866667Y-69288152D02*
X167866667Y-69954819D01*
X167628572Y-68907200D02*
X167390477Y-69621485D01*
X167390477Y-69621485D02*
X168009524Y-69621485D01*
X111819047Y-69331009D02*
X111961904Y-69378628D01*
X111961904Y-69378628D02*
X112009523Y-69426247D01*
X112009523Y-69426247D02*
X112057142Y-69521485D01*
X112057142Y-69521485D02*
X112057142Y-69664342D01*
X112057142Y-69664342D02*
X112009523Y-69759580D01*
X112009523Y-69759580D02*
X111961904Y-69807200D01*
X111961904Y-69807200D02*
X111866666Y-69854819D01*
X111866666Y-69854819D02*
X111485714Y-69854819D01*
X111485714Y-69854819D02*
X111485714Y-68854819D01*
X111485714Y-68854819D02*
X111819047Y-68854819D01*
X111819047Y-68854819D02*
X111914285Y-68902438D01*
X111914285Y-68902438D02*
X111961904Y-68950057D01*
X111961904Y-68950057D02*
X112009523Y-69045295D01*
X112009523Y-69045295D02*
X112009523Y-69140533D01*
X112009523Y-69140533D02*
X111961904Y-69235771D01*
X111961904Y-69235771D02*
X111914285Y-69283390D01*
X111914285Y-69283390D02*
X111819047Y-69331009D01*
X111819047Y-69331009D02*
X111485714Y-69331009D01*
X112485714Y-69854819D02*
X112485714Y-68854819D01*
X112485714Y-68854819D02*
X113057142Y-69854819D01*
X113057142Y-69854819D02*
X113057142Y-68854819D01*
X114104761Y-69759580D02*
X114057142Y-69807200D01*
X114057142Y-69807200D02*
X113914285Y-69854819D01*
X113914285Y-69854819D02*
X113819047Y-69854819D01*
X113819047Y-69854819D02*
X113676190Y-69807200D01*
X113676190Y-69807200D02*
X113580952Y-69711961D01*
X113580952Y-69711961D02*
X113533333Y-69616723D01*
X113533333Y-69616723D02*
X113485714Y-69426247D01*
X113485714Y-69426247D02*
X113485714Y-69283390D01*
X113485714Y-69283390D02*
X113533333Y-69092914D01*
X113533333Y-69092914D02*
X113580952Y-68997676D01*
X113580952Y-68997676D02*
X113676190Y-68902438D01*
X113676190Y-68902438D02*
X113819047Y-68854819D01*
X113819047Y-68854819D02*
X113914285Y-68854819D01*
X113914285Y-68854819D02*
X114057142Y-68902438D01*
X114057142Y-68902438D02*
X114104761Y-68950057D01*
X115485714Y-68854819D02*
X115676190Y-68854819D01*
X115676190Y-68854819D02*
X115771428Y-68902438D01*
X115771428Y-68902438D02*
X115866666Y-68997676D01*
X115866666Y-68997676D02*
X115914285Y-69188152D01*
X115914285Y-69188152D02*
X115914285Y-69521485D01*
X115914285Y-69521485D02*
X115866666Y-69711961D01*
X115866666Y-69711961D02*
X115771428Y-69807200D01*
X115771428Y-69807200D02*
X115676190Y-69854819D01*
X115676190Y-69854819D02*
X115485714Y-69854819D01*
X115485714Y-69854819D02*
X115390476Y-69807200D01*
X115390476Y-69807200D02*
X115295238Y-69711961D01*
X115295238Y-69711961D02*
X115247619Y-69521485D01*
X115247619Y-69521485D02*
X115247619Y-69188152D01*
X115247619Y-69188152D02*
X115295238Y-68997676D01*
X115295238Y-68997676D02*
X115390476Y-68902438D01*
X115390476Y-68902438D02*
X115485714Y-68854819D01*
X116771428Y-69188152D02*
X116771428Y-69854819D01*
X116342857Y-69188152D02*
X116342857Y-69711961D01*
X116342857Y-69711961D02*
X116390476Y-69807200D01*
X116390476Y-69807200D02*
X116485714Y-69854819D01*
X116485714Y-69854819D02*
X116628571Y-69854819D01*
X116628571Y-69854819D02*
X116723809Y-69807200D01*
X116723809Y-69807200D02*
X116771428Y-69759580D01*
X117104762Y-69188152D02*
X117485714Y-69188152D01*
X117247619Y-68854819D02*
X117247619Y-69711961D01*
X117247619Y-69711961D02*
X117295238Y-69807200D01*
X117295238Y-69807200D02*
X117390476Y-69854819D01*
X117390476Y-69854819D02*
X117485714Y-69854819D01*
X119009524Y-69188152D02*
X119009524Y-69854819D01*
X118771429Y-68807200D02*
X118533334Y-69521485D01*
X118533334Y-69521485D02*
X119152381Y-69521485D01*
X120247619Y-68807200D02*
X119390477Y-70092914D01*
X121104762Y-69854819D02*
X120533334Y-69854819D01*
X120819048Y-69854819D02*
X120819048Y-68854819D01*
X120819048Y-68854819D02*
X120723810Y-68997676D01*
X120723810Y-68997676D02*
X120628572Y-69092914D01*
X120628572Y-69092914D02*
X120533334Y-69140533D01*
X121723810Y-68854819D02*
X121819048Y-68854819D01*
X121819048Y-68854819D02*
X121914286Y-68902438D01*
X121914286Y-68902438D02*
X121961905Y-68950057D01*
X121961905Y-68950057D02*
X122009524Y-69045295D01*
X122009524Y-69045295D02*
X122057143Y-69235771D01*
X122057143Y-69235771D02*
X122057143Y-69473866D01*
X122057143Y-69473866D02*
X122009524Y-69664342D01*
X122009524Y-69664342D02*
X121961905Y-69759580D01*
X121961905Y-69759580D02*
X121914286Y-69807200D01*
X121914286Y-69807200D02*
X121819048Y-69854819D01*
X121819048Y-69854819D02*
X121723810Y-69854819D01*
X121723810Y-69854819D02*
X121628572Y-69807200D01*
X121628572Y-69807200D02*
X121580953Y-69759580D01*
X121580953Y-69759580D02*
X121533334Y-69664342D01*
X121533334Y-69664342D02*
X121485715Y-69473866D01*
X121485715Y-69473866D02*
X121485715Y-69235771D01*
X121485715Y-69235771D02*
X121533334Y-69045295D01*
X121533334Y-69045295D02*
X121580953Y-68950057D01*
X121580953Y-68950057D02*
X121628572Y-68902438D01*
X121628572Y-68902438D02*
X121723810Y-68854819D01*
X123200000Y-68807200D02*
X122342858Y-70092914D01*
X124057143Y-69854819D02*
X123485715Y-69854819D01*
X123771429Y-69854819D02*
X123771429Y-68854819D01*
X123771429Y-68854819D02*
X123676191Y-68997676D01*
X123676191Y-68997676D02*
X123580953Y-69092914D01*
X123580953Y-69092914D02*
X123485715Y-69140533D01*
X124914286Y-68854819D02*
X124723810Y-68854819D01*
X124723810Y-68854819D02*
X124628572Y-68902438D01*
X124628572Y-68902438D02*
X124580953Y-68950057D01*
X124580953Y-68950057D02*
X124485715Y-69092914D01*
X124485715Y-69092914D02*
X124438096Y-69283390D01*
X124438096Y-69283390D02*
X124438096Y-69664342D01*
X124438096Y-69664342D02*
X124485715Y-69759580D01*
X124485715Y-69759580D02*
X124533334Y-69807200D01*
X124533334Y-69807200D02*
X124628572Y-69854819D01*
X124628572Y-69854819D02*
X124819048Y-69854819D01*
X124819048Y-69854819D02*
X124914286Y-69807200D01*
X124914286Y-69807200D02*
X124961905Y-69759580D01*
X124961905Y-69759580D02*
X125009524Y-69664342D01*
X125009524Y-69664342D02*
X125009524Y-69426247D01*
X125009524Y-69426247D02*
X124961905Y-69331009D01*
X124961905Y-69331009D02*
X124914286Y-69283390D01*
X124914286Y-69283390D02*
X124819048Y-69235771D01*
X124819048Y-69235771D02*
X124628572Y-69235771D01*
X124628572Y-69235771D02*
X124533334Y-69283390D01*
X124533334Y-69283390D02*
X124485715Y-69331009D01*
X124485715Y-69331009D02*
X124438096Y-69426247D01*
X126152381Y-68807200D02*
X125295239Y-70092914D01*
X126438096Y-68950057D02*
X126485715Y-68902438D01*
X126485715Y-68902438D02*
X126580953Y-68854819D01*
X126580953Y-68854819D02*
X126819048Y-68854819D01*
X126819048Y-68854819D02*
X126914286Y-68902438D01*
X126914286Y-68902438D02*
X126961905Y-68950057D01*
X126961905Y-68950057D02*
X127009524Y-69045295D01*
X127009524Y-69045295D02*
X127009524Y-69140533D01*
X127009524Y-69140533D02*
X126961905Y-69283390D01*
X126961905Y-69283390D02*
X126390477Y-69854819D01*
X126390477Y-69854819D02*
X127009524Y-69854819D01*
X127390477Y-68950057D02*
X127438096Y-68902438D01*
X127438096Y-68902438D02*
X127533334Y-68854819D01*
X127533334Y-68854819D02*
X127771429Y-68854819D01*
X127771429Y-68854819D02*
X127866667Y-68902438D01*
X127866667Y-68902438D02*
X127914286Y-68950057D01*
X127914286Y-68950057D02*
X127961905Y-69045295D01*
X127961905Y-69045295D02*
X127961905Y-69140533D01*
X127961905Y-69140533D02*
X127914286Y-69283390D01*
X127914286Y-69283390D02*
X127342858Y-69854819D01*
X127342858Y-69854819D02*
X127961905Y-69854819D01*
X72395237Y-69431009D02*
X72538094Y-69478628D01*
X72538094Y-69478628D02*
X72585713Y-69526247D01*
X72585713Y-69526247D02*
X72633332Y-69621485D01*
X72633332Y-69621485D02*
X72633332Y-69764342D01*
X72633332Y-69764342D02*
X72585713Y-69859580D01*
X72585713Y-69859580D02*
X72538094Y-69907200D01*
X72538094Y-69907200D02*
X72442856Y-69954819D01*
X72442856Y-69954819D02*
X72061904Y-69954819D01*
X72061904Y-69954819D02*
X72061904Y-68954819D01*
X72061904Y-68954819D02*
X72395237Y-68954819D01*
X72395237Y-68954819D02*
X72490475Y-69002438D01*
X72490475Y-69002438D02*
X72538094Y-69050057D01*
X72538094Y-69050057D02*
X72585713Y-69145295D01*
X72585713Y-69145295D02*
X72585713Y-69240533D01*
X72585713Y-69240533D02*
X72538094Y-69335771D01*
X72538094Y-69335771D02*
X72490475Y-69383390D01*
X72490475Y-69383390D02*
X72395237Y-69431009D01*
X72395237Y-69431009D02*
X72061904Y-69431009D01*
X73061904Y-69954819D02*
X73061904Y-68954819D01*
X73061904Y-68954819D02*
X73633332Y-69954819D01*
X73633332Y-69954819D02*
X73633332Y-68954819D01*
X74680951Y-69859580D02*
X74633332Y-69907200D01*
X74633332Y-69907200D02*
X74490475Y-69954819D01*
X74490475Y-69954819D02*
X74395237Y-69954819D01*
X74395237Y-69954819D02*
X74252380Y-69907200D01*
X74252380Y-69907200D02*
X74157142Y-69811961D01*
X74157142Y-69811961D02*
X74109523Y-69716723D01*
X74109523Y-69716723D02*
X74061904Y-69526247D01*
X74061904Y-69526247D02*
X74061904Y-69383390D01*
X74061904Y-69383390D02*
X74109523Y-69192914D01*
X74109523Y-69192914D02*
X74157142Y-69097676D01*
X74157142Y-69097676D02*
X74252380Y-69002438D01*
X74252380Y-69002438D02*
X74395237Y-68954819D01*
X74395237Y-68954819D02*
X74490475Y-68954819D01*
X74490475Y-68954819D02*
X74633332Y-69002438D01*
X74633332Y-69002438D02*
X74680951Y-69050057D01*
X76061904Y-68954819D02*
X76252380Y-68954819D01*
X76252380Y-68954819D02*
X76347618Y-69002438D01*
X76347618Y-69002438D02*
X76442856Y-69097676D01*
X76442856Y-69097676D02*
X76490475Y-69288152D01*
X76490475Y-69288152D02*
X76490475Y-69621485D01*
X76490475Y-69621485D02*
X76442856Y-69811961D01*
X76442856Y-69811961D02*
X76347618Y-69907200D01*
X76347618Y-69907200D02*
X76252380Y-69954819D01*
X76252380Y-69954819D02*
X76061904Y-69954819D01*
X76061904Y-69954819D02*
X75966666Y-69907200D01*
X75966666Y-69907200D02*
X75871428Y-69811961D01*
X75871428Y-69811961D02*
X75823809Y-69621485D01*
X75823809Y-69621485D02*
X75823809Y-69288152D01*
X75823809Y-69288152D02*
X75871428Y-69097676D01*
X75871428Y-69097676D02*
X75966666Y-69002438D01*
X75966666Y-69002438D02*
X76061904Y-68954819D01*
X77347618Y-69288152D02*
X77347618Y-69954819D01*
X76919047Y-69288152D02*
X76919047Y-69811961D01*
X76919047Y-69811961D02*
X76966666Y-69907200D01*
X76966666Y-69907200D02*
X77061904Y-69954819D01*
X77061904Y-69954819D02*
X77204761Y-69954819D01*
X77204761Y-69954819D02*
X77299999Y-69907200D01*
X77299999Y-69907200D02*
X77347618Y-69859580D01*
X77680952Y-69288152D02*
X78061904Y-69288152D01*
X77823809Y-68954819D02*
X77823809Y-69811961D01*
X77823809Y-69811961D02*
X77871428Y-69907200D01*
X77871428Y-69907200D02*
X77966666Y-69954819D01*
X77966666Y-69954819D02*
X78061904Y-69954819D01*
X79109524Y-69050057D02*
X79157143Y-69002438D01*
X79157143Y-69002438D02*
X79252381Y-68954819D01*
X79252381Y-68954819D02*
X79490476Y-68954819D01*
X79490476Y-68954819D02*
X79585714Y-69002438D01*
X79585714Y-69002438D02*
X79633333Y-69050057D01*
X79633333Y-69050057D02*
X79680952Y-69145295D01*
X79680952Y-69145295D02*
X79680952Y-69240533D01*
X79680952Y-69240533D02*
X79633333Y-69383390D01*
X79633333Y-69383390D02*
X79061905Y-69954819D01*
X79061905Y-69954819D02*
X79680952Y-69954819D01*
X80823809Y-68907200D02*
X79966667Y-70192914D01*
X81300000Y-69383390D02*
X81204762Y-69335771D01*
X81204762Y-69335771D02*
X81157143Y-69288152D01*
X81157143Y-69288152D02*
X81109524Y-69192914D01*
X81109524Y-69192914D02*
X81109524Y-69145295D01*
X81109524Y-69145295D02*
X81157143Y-69050057D01*
X81157143Y-69050057D02*
X81204762Y-69002438D01*
X81204762Y-69002438D02*
X81300000Y-68954819D01*
X81300000Y-68954819D02*
X81490476Y-68954819D01*
X81490476Y-68954819D02*
X81585714Y-69002438D01*
X81585714Y-69002438D02*
X81633333Y-69050057D01*
X81633333Y-69050057D02*
X81680952Y-69145295D01*
X81680952Y-69145295D02*
X81680952Y-69192914D01*
X81680952Y-69192914D02*
X81633333Y-69288152D01*
X81633333Y-69288152D02*
X81585714Y-69335771D01*
X81585714Y-69335771D02*
X81490476Y-69383390D01*
X81490476Y-69383390D02*
X81300000Y-69383390D01*
X81300000Y-69383390D02*
X81204762Y-69431009D01*
X81204762Y-69431009D02*
X81157143Y-69478628D01*
X81157143Y-69478628D02*
X81109524Y-69573866D01*
X81109524Y-69573866D02*
X81109524Y-69764342D01*
X81109524Y-69764342D02*
X81157143Y-69859580D01*
X81157143Y-69859580D02*
X81204762Y-69907200D01*
X81204762Y-69907200D02*
X81300000Y-69954819D01*
X81300000Y-69954819D02*
X81490476Y-69954819D01*
X81490476Y-69954819D02*
X81585714Y-69907200D01*
X81585714Y-69907200D02*
X81633333Y-69859580D01*
X81633333Y-69859580D02*
X81680952Y-69764342D01*
X81680952Y-69764342D02*
X81680952Y-69573866D01*
X81680952Y-69573866D02*
X81633333Y-69478628D01*
X81633333Y-69478628D02*
X81585714Y-69431009D01*
X81585714Y-69431009D02*
X81490476Y-69383390D01*
X82823809Y-68907200D02*
X81966667Y-70192914D01*
X83680952Y-69954819D02*
X83109524Y-69954819D01*
X83395238Y-69954819D02*
X83395238Y-68954819D01*
X83395238Y-68954819D02*
X83300000Y-69097676D01*
X83300000Y-69097676D02*
X83204762Y-69192914D01*
X83204762Y-69192914D02*
X83109524Y-69240533D01*
X84538095Y-69288152D02*
X84538095Y-69954819D01*
X84300000Y-68907200D02*
X84061905Y-69621485D01*
X84061905Y-69621485D02*
X84680952Y-69621485D01*
X85776190Y-68907200D02*
X84919048Y-70192914D01*
X86061905Y-69050057D02*
X86109524Y-69002438D01*
X86109524Y-69002438D02*
X86204762Y-68954819D01*
X86204762Y-68954819D02*
X86442857Y-68954819D01*
X86442857Y-68954819D02*
X86538095Y-69002438D01*
X86538095Y-69002438D02*
X86585714Y-69050057D01*
X86585714Y-69050057D02*
X86633333Y-69145295D01*
X86633333Y-69145295D02*
X86633333Y-69240533D01*
X86633333Y-69240533D02*
X86585714Y-69383390D01*
X86585714Y-69383390D02*
X86014286Y-69954819D01*
X86014286Y-69954819D02*
X86633333Y-69954819D01*
X87252381Y-68954819D02*
X87347619Y-68954819D01*
X87347619Y-68954819D02*
X87442857Y-69002438D01*
X87442857Y-69002438D02*
X87490476Y-69050057D01*
X87490476Y-69050057D02*
X87538095Y-69145295D01*
X87538095Y-69145295D02*
X87585714Y-69335771D01*
X87585714Y-69335771D02*
X87585714Y-69573866D01*
X87585714Y-69573866D02*
X87538095Y-69764342D01*
X87538095Y-69764342D02*
X87490476Y-69859580D01*
X87490476Y-69859580D02*
X87442857Y-69907200D01*
X87442857Y-69907200D02*
X87347619Y-69954819D01*
X87347619Y-69954819D02*
X87252381Y-69954819D01*
X87252381Y-69954819D02*
X87157143Y-69907200D01*
X87157143Y-69907200D02*
X87109524Y-69859580D01*
X87109524Y-69859580D02*
X87061905Y-69764342D01*
X87061905Y-69764342D02*
X87014286Y-69573866D01*
X87014286Y-69573866D02*
X87014286Y-69335771D01*
X87014286Y-69335771D02*
X87061905Y-69145295D01*
X87061905Y-69145295D02*
X87109524Y-69050057D01*
X87109524Y-69050057D02*
X87157143Y-69002438D01*
X87157143Y-69002438D02*
X87252381Y-68954819D01*
X92295237Y-69431009D02*
X92438094Y-69478628D01*
X92438094Y-69478628D02*
X92485713Y-69526247D01*
X92485713Y-69526247D02*
X92533332Y-69621485D01*
X92533332Y-69621485D02*
X92533332Y-69764342D01*
X92533332Y-69764342D02*
X92485713Y-69859580D01*
X92485713Y-69859580D02*
X92438094Y-69907200D01*
X92438094Y-69907200D02*
X92342856Y-69954819D01*
X92342856Y-69954819D02*
X91961904Y-69954819D01*
X91961904Y-69954819D02*
X91961904Y-68954819D01*
X91961904Y-68954819D02*
X92295237Y-68954819D01*
X92295237Y-68954819D02*
X92390475Y-69002438D01*
X92390475Y-69002438D02*
X92438094Y-69050057D01*
X92438094Y-69050057D02*
X92485713Y-69145295D01*
X92485713Y-69145295D02*
X92485713Y-69240533D01*
X92485713Y-69240533D02*
X92438094Y-69335771D01*
X92438094Y-69335771D02*
X92390475Y-69383390D01*
X92390475Y-69383390D02*
X92295237Y-69431009D01*
X92295237Y-69431009D02*
X91961904Y-69431009D01*
X92961904Y-69954819D02*
X92961904Y-68954819D01*
X92961904Y-68954819D02*
X93533332Y-69954819D01*
X93533332Y-69954819D02*
X93533332Y-68954819D01*
X94580951Y-69859580D02*
X94533332Y-69907200D01*
X94533332Y-69907200D02*
X94390475Y-69954819D01*
X94390475Y-69954819D02*
X94295237Y-69954819D01*
X94295237Y-69954819D02*
X94152380Y-69907200D01*
X94152380Y-69907200D02*
X94057142Y-69811961D01*
X94057142Y-69811961D02*
X94009523Y-69716723D01*
X94009523Y-69716723D02*
X93961904Y-69526247D01*
X93961904Y-69526247D02*
X93961904Y-69383390D01*
X93961904Y-69383390D02*
X94009523Y-69192914D01*
X94009523Y-69192914D02*
X94057142Y-69097676D01*
X94057142Y-69097676D02*
X94152380Y-69002438D01*
X94152380Y-69002438D02*
X94295237Y-68954819D01*
X94295237Y-68954819D02*
X94390475Y-68954819D01*
X94390475Y-68954819D02*
X94533332Y-69002438D01*
X94533332Y-69002438D02*
X94580951Y-69050057D01*
X95961904Y-68954819D02*
X96152380Y-68954819D01*
X96152380Y-68954819D02*
X96247618Y-69002438D01*
X96247618Y-69002438D02*
X96342856Y-69097676D01*
X96342856Y-69097676D02*
X96390475Y-69288152D01*
X96390475Y-69288152D02*
X96390475Y-69621485D01*
X96390475Y-69621485D02*
X96342856Y-69811961D01*
X96342856Y-69811961D02*
X96247618Y-69907200D01*
X96247618Y-69907200D02*
X96152380Y-69954819D01*
X96152380Y-69954819D02*
X95961904Y-69954819D01*
X95961904Y-69954819D02*
X95866666Y-69907200D01*
X95866666Y-69907200D02*
X95771428Y-69811961D01*
X95771428Y-69811961D02*
X95723809Y-69621485D01*
X95723809Y-69621485D02*
X95723809Y-69288152D01*
X95723809Y-69288152D02*
X95771428Y-69097676D01*
X95771428Y-69097676D02*
X95866666Y-69002438D01*
X95866666Y-69002438D02*
X95961904Y-68954819D01*
X97247618Y-69288152D02*
X97247618Y-69954819D01*
X96819047Y-69288152D02*
X96819047Y-69811961D01*
X96819047Y-69811961D02*
X96866666Y-69907200D01*
X96866666Y-69907200D02*
X96961904Y-69954819D01*
X96961904Y-69954819D02*
X97104761Y-69954819D01*
X97104761Y-69954819D02*
X97199999Y-69907200D01*
X97199999Y-69907200D02*
X97247618Y-69859580D01*
X97580952Y-69288152D02*
X97961904Y-69288152D01*
X97723809Y-68954819D02*
X97723809Y-69811961D01*
X97723809Y-69811961D02*
X97771428Y-69907200D01*
X97771428Y-69907200D02*
X97866666Y-69954819D01*
X97866666Y-69954819D02*
X97961904Y-69954819D01*
X98961905Y-68954819D02*
X99580952Y-68954819D01*
X99580952Y-68954819D02*
X99247619Y-69335771D01*
X99247619Y-69335771D02*
X99390476Y-69335771D01*
X99390476Y-69335771D02*
X99485714Y-69383390D01*
X99485714Y-69383390D02*
X99533333Y-69431009D01*
X99533333Y-69431009D02*
X99580952Y-69526247D01*
X99580952Y-69526247D02*
X99580952Y-69764342D01*
X99580952Y-69764342D02*
X99533333Y-69859580D01*
X99533333Y-69859580D02*
X99485714Y-69907200D01*
X99485714Y-69907200D02*
X99390476Y-69954819D01*
X99390476Y-69954819D02*
X99104762Y-69954819D01*
X99104762Y-69954819D02*
X99009524Y-69907200D01*
X99009524Y-69907200D02*
X98961905Y-69859580D01*
X100723809Y-68907200D02*
X99866667Y-70192914D01*
X101104762Y-69954819D02*
X101295238Y-69954819D01*
X101295238Y-69954819D02*
X101390476Y-69907200D01*
X101390476Y-69907200D02*
X101438095Y-69859580D01*
X101438095Y-69859580D02*
X101533333Y-69716723D01*
X101533333Y-69716723D02*
X101580952Y-69526247D01*
X101580952Y-69526247D02*
X101580952Y-69145295D01*
X101580952Y-69145295D02*
X101533333Y-69050057D01*
X101533333Y-69050057D02*
X101485714Y-69002438D01*
X101485714Y-69002438D02*
X101390476Y-68954819D01*
X101390476Y-68954819D02*
X101200000Y-68954819D01*
X101200000Y-68954819D02*
X101104762Y-69002438D01*
X101104762Y-69002438D02*
X101057143Y-69050057D01*
X101057143Y-69050057D02*
X101009524Y-69145295D01*
X101009524Y-69145295D02*
X101009524Y-69383390D01*
X101009524Y-69383390D02*
X101057143Y-69478628D01*
X101057143Y-69478628D02*
X101104762Y-69526247D01*
X101104762Y-69526247D02*
X101200000Y-69573866D01*
X101200000Y-69573866D02*
X101390476Y-69573866D01*
X101390476Y-69573866D02*
X101485714Y-69526247D01*
X101485714Y-69526247D02*
X101533333Y-69478628D01*
X101533333Y-69478628D02*
X101580952Y-69383390D01*
X102723809Y-68907200D02*
X101866667Y-70192914D01*
X103580952Y-69954819D02*
X103009524Y-69954819D01*
X103295238Y-69954819D02*
X103295238Y-68954819D01*
X103295238Y-68954819D02*
X103200000Y-69097676D01*
X103200000Y-69097676D02*
X103104762Y-69192914D01*
X103104762Y-69192914D02*
X103009524Y-69240533D01*
X104485714Y-68954819D02*
X104009524Y-68954819D01*
X104009524Y-68954819D02*
X103961905Y-69431009D01*
X103961905Y-69431009D02*
X104009524Y-69383390D01*
X104009524Y-69383390D02*
X104104762Y-69335771D01*
X104104762Y-69335771D02*
X104342857Y-69335771D01*
X104342857Y-69335771D02*
X104438095Y-69383390D01*
X104438095Y-69383390D02*
X104485714Y-69431009D01*
X104485714Y-69431009D02*
X104533333Y-69526247D01*
X104533333Y-69526247D02*
X104533333Y-69764342D01*
X104533333Y-69764342D02*
X104485714Y-69859580D01*
X104485714Y-69859580D02*
X104438095Y-69907200D01*
X104438095Y-69907200D02*
X104342857Y-69954819D01*
X104342857Y-69954819D02*
X104104762Y-69954819D01*
X104104762Y-69954819D02*
X104009524Y-69907200D01*
X104009524Y-69907200D02*
X103961905Y-69859580D01*
X105676190Y-68907200D02*
X104819048Y-70192914D01*
X105961905Y-69050057D02*
X106009524Y-69002438D01*
X106009524Y-69002438D02*
X106104762Y-68954819D01*
X106104762Y-68954819D02*
X106342857Y-68954819D01*
X106342857Y-68954819D02*
X106438095Y-69002438D01*
X106438095Y-69002438D02*
X106485714Y-69050057D01*
X106485714Y-69050057D02*
X106533333Y-69145295D01*
X106533333Y-69145295D02*
X106533333Y-69240533D01*
X106533333Y-69240533D02*
X106485714Y-69383390D01*
X106485714Y-69383390D02*
X105914286Y-69954819D01*
X105914286Y-69954819D02*
X106533333Y-69954819D01*
X107485714Y-69954819D02*
X106914286Y-69954819D01*
X107200000Y-69954819D02*
X107200000Y-68954819D01*
X107200000Y-68954819D02*
X107104762Y-69097676D01*
X107104762Y-69097676D02*
X107009524Y-69192914D01*
X107009524Y-69192914D02*
X106914286Y-69240533D01*
X52295237Y-69431009D02*
X52438094Y-69478628D01*
X52438094Y-69478628D02*
X52485713Y-69526247D01*
X52485713Y-69526247D02*
X52533332Y-69621485D01*
X52533332Y-69621485D02*
X52533332Y-69764342D01*
X52533332Y-69764342D02*
X52485713Y-69859580D01*
X52485713Y-69859580D02*
X52438094Y-69907200D01*
X52438094Y-69907200D02*
X52342856Y-69954819D01*
X52342856Y-69954819D02*
X51961904Y-69954819D01*
X51961904Y-69954819D02*
X51961904Y-68954819D01*
X51961904Y-68954819D02*
X52295237Y-68954819D01*
X52295237Y-68954819D02*
X52390475Y-69002438D01*
X52390475Y-69002438D02*
X52438094Y-69050057D01*
X52438094Y-69050057D02*
X52485713Y-69145295D01*
X52485713Y-69145295D02*
X52485713Y-69240533D01*
X52485713Y-69240533D02*
X52438094Y-69335771D01*
X52438094Y-69335771D02*
X52390475Y-69383390D01*
X52390475Y-69383390D02*
X52295237Y-69431009D01*
X52295237Y-69431009D02*
X51961904Y-69431009D01*
X52961904Y-69954819D02*
X52961904Y-68954819D01*
X52961904Y-68954819D02*
X53533332Y-69954819D01*
X53533332Y-69954819D02*
X53533332Y-68954819D01*
X54580951Y-69859580D02*
X54533332Y-69907200D01*
X54533332Y-69907200D02*
X54390475Y-69954819D01*
X54390475Y-69954819D02*
X54295237Y-69954819D01*
X54295237Y-69954819D02*
X54152380Y-69907200D01*
X54152380Y-69907200D02*
X54057142Y-69811961D01*
X54057142Y-69811961D02*
X54009523Y-69716723D01*
X54009523Y-69716723D02*
X53961904Y-69526247D01*
X53961904Y-69526247D02*
X53961904Y-69383390D01*
X53961904Y-69383390D02*
X54009523Y-69192914D01*
X54009523Y-69192914D02*
X54057142Y-69097676D01*
X54057142Y-69097676D02*
X54152380Y-69002438D01*
X54152380Y-69002438D02*
X54295237Y-68954819D01*
X54295237Y-68954819D02*
X54390475Y-68954819D01*
X54390475Y-68954819D02*
X54533332Y-69002438D01*
X54533332Y-69002438D02*
X54580951Y-69050057D01*
X55961904Y-68954819D02*
X56152380Y-68954819D01*
X56152380Y-68954819D02*
X56247618Y-69002438D01*
X56247618Y-69002438D02*
X56342856Y-69097676D01*
X56342856Y-69097676D02*
X56390475Y-69288152D01*
X56390475Y-69288152D02*
X56390475Y-69621485D01*
X56390475Y-69621485D02*
X56342856Y-69811961D01*
X56342856Y-69811961D02*
X56247618Y-69907200D01*
X56247618Y-69907200D02*
X56152380Y-69954819D01*
X56152380Y-69954819D02*
X55961904Y-69954819D01*
X55961904Y-69954819D02*
X55866666Y-69907200D01*
X55866666Y-69907200D02*
X55771428Y-69811961D01*
X55771428Y-69811961D02*
X55723809Y-69621485D01*
X55723809Y-69621485D02*
X55723809Y-69288152D01*
X55723809Y-69288152D02*
X55771428Y-69097676D01*
X55771428Y-69097676D02*
X55866666Y-69002438D01*
X55866666Y-69002438D02*
X55961904Y-68954819D01*
X57247618Y-69288152D02*
X57247618Y-69954819D01*
X56819047Y-69288152D02*
X56819047Y-69811961D01*
X56819047Y-69811961D02*
X56866666Y-69907200D01*
X56866666Y-69907200D02*
X56961904Y-69954819D01*
X56961904Y-69954819D02*
X57104761Y-69954819D01*
X57104761Y-69954819D02*
X57199999Y-69907200D01*
X57199999Y-69907200D02*
X57247618Y-69859580D01*
X57580952Y-69288152D02*
X57961904Y-69288152D01*
X57723809Y-68954819D02*
X57723809Y-69811961D01*
X57723809Y-69811961D02*
X57771428Y-69907200D01*
X57771428Y-69907200D02*
X57866666Y-69954819D01*
X57866666Y-69954819D02*
X57961904Y-69954819D01*
X59580952Y-69954819D02*
X59009524Y-69954819D01*
X59295238Y-69954819D02*
X59295238Y-68954819D01*
X59295238Y-68954819D02*
X59200000Y-69097676D01*
X59200000Y-69097676D02*
X59104762Y-69192914D01*
X59104762Y-69192914D02*
X59009524Y-69240533D01*
X60723809Y-68907200D02*
X59866667Y-70192914D01*
X60961905Y-68954819D02*
X61628571Y-68954819D01*
X61628571Y-68954819D02*
X61200000Y-69954819D01*
X62723809Y-68907200D02*
X61866667Y-70192914D01*
X63580952Y-69954819D02*
X63009524Y-69954819D01*
X63295238Y-69954819D02*
X63295238Y-68954819D01*
X63295238Y-68954819D02*
X63200000Y-69097676D01*
X63200000Y-69097676D02*
X63104762Y-69192914D01*
X63104762Y-69192914D02*
X63009524Y-69240533D01*
X63914286Y-68954819D02*
X64533333Y-68954819D01*
X64533333Y-68954819D02*
X64200000Y-69335771D01*
X64200000Y-69335771D02*
X64342857Y-69335771D01*
X64342857Y-69335771D02*
X64438095Y-69383390D01*
X64438095Y-69383390D02*
X64485714Y-69431009D01*
X64485714Y-69431009D02*
X64533333Y-69526247D01*
X64533333Y-69526247D02*
X64533333Y-69764342D01*
X64533333Y-69764342D02*
X64485714Y-69859580D01*
X64485714Y-69859580D02*
X64438095Y-69907200D01*
X64438095Y-69907200D02*
X64342857Y-69954819D01*
X64342857Y-69954819D02*
X64057143Y-69954819D01*
X64057143Y-69954819D02*
X63961905Y-69907200D01*
X63961905Y-69907200D02*
X63914286Y-69859580D01*
X65676190Y-68907200D02*
X64819048Y-70192914D01*
X66533333Y-69954819D02*
X65961905Y-69954819D01*
X66247619Y-69954819D02*
X66247619Y-68954819D01*
X66247619Y-68954819D02*
X66152381Y-69097676D01*
X66152381Y-69097676D02*
X66057143Y-69192914D01*
X66057143Y-69192914D02*
X65961905Y-69240533D01*
X67009524Y-69954819D02*
X67200000Y-69954819D01*
X67200000Y-69954819D02*
X67295238Y-69907200D01*
X67295238Y-69907200D02*
X67342857Y-69859580D01*
X67342857Y-69859580D02*
X67438095Y-69716723D01*
X67438095Y-69716723D02*
X67485714Y-69526247D01*
X67485714Y-69526247D02*
X67485714Y-69145295D01*
X67485714Y-69145295D02*
X67438095Y-69050057D01*
X67438095Y-69050057D02*
X67390476Y-69002438D01*
X67390476Y-69002438D02*
X67295238Y-68954819D01*
X67295238Y-68954819D02*
X67104762Y-68954819D01*
X67104762Y-68954819D02*
X67009524Y-69002438D01*
X67009524Y-69002438D02*
X66961905Y-69050057D01*
X66961905Y-69050057D02*
X66914286Y-69145295D01*
X66914286Y-69145295D02*
X66914286Y-69383390D01*
X66914286Y-69383390D02*
X66961905Y-69478628D01*
X66961905Y-69478628D02*
X67009524Y-69526247D01*
X67009524Y-69526247D02*
X67104762Y-69573866D01*
X67104762Y-69573866D02*
X67295238Y-69573866D01*
X67295238Y-69573866D02*
X67390476Y-69526247D01*
X67390476Y-69526247D02*
X67438095Y-69478628D01*
X67438095Y-69478628D02*
X67485714Y-69383390D01*
D11*
%TO.C,J10*%
X153250000Y-57800000D02*
X155050000Y-57800000D01*
X137450000Y-57800000D02*
X139250000Y-57800000D01*
X138200000Y-62250000D02*
X146250000Y-62250000D01*
X139250000Y-57800000D02*
X139250000Y-57050000D01*
X155050000Y-57800000D02*
X155050000Y-57050000D01*
X151750000Y-57800000D02*
X151750000Y-57050000D01*
X154300000Y-59300000D02*
X154300000Y-62250000D01*
X137440000Y-63010000D02*
X155060000Y-63010000D01*
X155060000Y-57040000D02*
X137440000Y-57040000D01*
X137440000Y-57040000D02*
X137440000Y-63010000D01*
X137450000Y-57050000D02*
X137450000Y-57800000D01*
X154300000Y-62250000D02*
X146250000Y-62250000D01*
X140750000Y-57800000D02*
X151750000Y-57800000D01*
X138200000Y-59300000D02*
X138200000Y-62250000D01*
X137150000Y-56750000D02*
X137150000Y-58000000D01*
X138400000Y-56750000D02*
X137150000Y-56750000D01*
X155050000Y-59300000D02*
X154300000Y-59300000D01*
X153250000Y-57050000D02*
X153250000Y-57800000D01*
X151750000Y-57050000D02*
X140750000Y-57050000D01*
X137450000Y-59300000D02*
X138200000Y-59300000D01*
X155050000Y-57050000D02*
X153250000Y-57050000D01*
X155060000Y-63010000D02*
X155060000Y-57040000D01*
X139250000Y-57050000D02*
X137450000Y-57050000D01*
X140750000Y-57050000D02*
X140750000Y-57800000D01*
%TO.C,J11*%
X75050000Y-59300000D02*
X74300000Y-59300000D01*
X74300000Y-59300000D02*
X74300000Y-62250000D01*
X74300000Y-62250000D02*
X71250000Y-62250000D01*
X68200000Y-59300000D02*
X68200000Y-62250000D01*
X71750000Y-57050000D02*
X70750000Y-57050000D01*
X70750000Y-57050000D02*
X70750000Y-57800000D01*
X70750000Y-57800000D02*
X71750000Y-57800000D01*
X73250000Y-57800000D02*
X75050000Y-57800000D01*
X75050000Y-57050000D02*
X73250000Y-57050000D01*
X67150000Y-56750000D02*
X67150000Y-58000000D01*
X67440000Y-57040000D02*
X67440000Y-63010000D01*
X67450000Y-57050000D02*
X67450000Y-57800000D01*
X67440000Y-63010000D02*
X75060000Y-63010000D01*
X71750000Y-57800000D02*
X71750000Y-57050000D01*
X67450000Y-59300000D02*
X68200000Y-59300000D01*
X67450000Y-57800000D02*
X69250000Y-57800000D01*
X68400000Y-56750000D02*
X67150000Y-56750000D01*
X75050000Y-57800000D02*
X75050000Y-57050000D01*
X69250000Y-57050000D02*
X67450000Y-57050000D01*
X75060000Y-57040000D02*
X67440000Y-57040000D01*
X68200000Y-62250000D02*
X71250000Y-62250000D01*
X73250000Y-57050000D02*
X73250000Y-57800000D01*
X75060000Y-63010000D02*
X75060000Y-57040000D01*
X69250000Y-57800000D02*
X69250000Y-57050000D01*
%TO.C,J8*%
X113250000Y-57800000D02*
X115050000Y-57800000D01*
X97450000Y-57800000D02*
X99250000Y-57800000D01*
X98200000Y-62250000D02*
X106250000Y-62250000D01*
X99250000Y-57800000D02*
X99250000Y-57050000D01*
X115050000Y-57800000D02*
X115050000Y-57050000D01*
X111750000Y-57800000D02*
X111750000Y-57050000D01*
X114300000Y-59300000D02*
X114300000Y-62250000D01*
X97440000Y-63010000D02*
X115060000Y-63010000D01*
X115060000Y-57040000D02*
X97440000Y-57040000D01*
X97440000Y-57040000D02*
X97440000Y-63010000D01*
X97450000Y-57050000D02*
X97450000Y-57800000D01*
X114300000Y-62250000D02*
X106250000Y-62250000D01*
X100750000Y-57800000D02*
X111750000Y-57800000D01*
X98200000Y-59300000D02*
X98200000Y-62250000D01*
X97150000Y-56750000D02*
X97150000Y-58000000D01*
X98400000Y-56750000D02*
X97150000Y-56750000D01*
X115050000Y-59300000D02*
X114300000Y-59300000D01*
X113250000Y-57050000D02*
X113250000Y-57800000D01*
X111750000Y-57050000D02*
X100750000Y-57050000D01*
X97450000Y-59300000D02*
X98200000Y-59300000D01*
X115050000Y-57050000D02*
X113250000Y-57050000D01*
X115060000Y-63010000D02*
X115060000Y-57040000D01*
X99250000Y-57050000D02*
X97450000Y-57050000D01*
X100750000Y-57050000D02*
X100750000Y-57800000D01*
%TO.C,J9*%
X133250000Y-57800000D02*
X135050000Y-57800000D01*
X117450000Y-57800000D02*
X119250000Y-57800000D01*
X118200000Y-62250000D02*
X126250000Y-62250000D01*
X119250000Y-57800000D02*
X119250000Y-57050000D01*
X135050000Y-57800000D02*
X135050000Y-57050000D01*
X131750000Y-57800000D02*
X131750000Y-57050000D01*
X134300000Y-59300000D02*
X134300000Y-62250000D01*
X117440000Y-63010000D02*
X135060000Y-63010000D01*
X135060000Y-57040000D02*
X117440000Y-57040000D01*
X117440000Y-57040000D02*
X117440000Y-63010000D01*
X117450000Y-57050000D02*
X117450000Y-57800000D01*
X134300000Y-62250000D02*
X126250000Y-62250000D01*
X120750000Y-57800000D02*
X131750000Y-57800000D01*
X118200000Y-59300000D02*
X118200000Y-62250000D01*
X117150000Y-56750000D02*
X117150000Y-58000000D01*
X118400000Y-56750000D02*
X117150000Y-56750000D01*
X135050000Y-59300000D02*
X134300000Y-59300000D01*
X133250000Y-57050000D02*
X133250000Y-57800000D01*
X131750000Y-57050000D02*
X120750000Y-57050000D01*
X117450000Y-59300000D02*
X118200000Y-59300000D01*
X135050000Y-57050000D02*
X133250000Y-57050000D01*
X135060000Y-63010000D02*
X135060000Y-57040000D01*
X119250000Y-57050000D02*
X117450000Y-57050000D01*
X120750000Y-57050000D02*
X120750000Y-57800000D01*
%TO.C,J1*%
X93250000Y-57800000D02*
X95050000Y-57800000D01*
X77450000Y-57800000D02*
X79250000Y-57800000D01*
X78200000Y-62250000D02*
X86250000Y-62250000D01*
X79250000Y-57800000D02*
X79250000Y-57050000D01*
X95050000Y-57800000D02*
X95050000Y-57050000D01*
X91750000Y-57800000D02*
X91750000Y-57050000D01*
X94300000Y-59300000D02*
X94300000Y-62250000D01*
X77440000Y-63010000D02*
X95060000Y-63010000D01*
X95060000Y-57040000D02*
X77440000Y-57040000D01*
X77440000Y-57040000D02*
X77440000Y-63010000D01*
X77450000Y-57050000D02*
X77450000Y-57800000D01*
X94300000Y-62250000D02*
X86250000Y-62250000D01*
X80750000Y-57800000D02*
X91750000Y-57800000D01*
X78200000Y-59300000D02*
X78200000Y-62250000D01*
X77150000Y-56750000D02*
X77150000Y-58000000D01*
X78400000Y-56750000D02*
X77150000Y-56750000D01*
X95050000Y-59300000D02*
X94300000Y-59300000D01*
X93250000Y-57050000D02*
X93250000Y-57800000D01*
X91750000Y-57050000D02*
X80750000Y-57050000D01*
X77450000Y-59300000D02*
X78200000Y-59300000D01*
X95050000Y-57050000D02*
X93250000Y-57050000D01*
X95060000Y-63010000D02*
X95060000Y-57040000D01*
X79250000Y-57050000D02*
X77450000Y-57050000D01*
X80750000Y-57050000D02*
X80750000Y-57800000D01*
D10*
%TO.C,J6*%
X147600340Y-84900900D02*
X147600340Y-70499100D01*
X147600340Y-70499100D02*
X131999660Y-70499100D01*
X145299100Y-92398980D02*
X145299100Y-84900900D01*
X145299100Y-89500840D02*
X134300900Y-90300940D01*
X145299100Y-88700740D02*
X134300900Y-89500840D01*
X145299100Y-87900640D02*
X134300900Y-88700740D01*
X145299100Y-87100540D02*
X134300900Y-87900640D01*
X145299100Y-86300440D02*
X134300900Y-87100540D01*
X145299100Y-85500340D02*
X134300900Y-86300440D01*
X144600600Y-104400480D02*
X144600600Y-92398980D01*
X134999400Y-104400480D02*
X144600600Y-104400480D01*
X134999400Y-92398980D02*
X134999400Y-104400480D01*
X134300900Y-92398980D02*
X145299100Y-92398980D01*
X134300900Y-84900900D02*
X134300900Y-92398980D01*
X131999660Y-84900900D02*
X147600340Y-84900900D01*
X131999660Y-70499100D02*
X131999660Y-84900900D01*
X140800760Y-100399980D02*
G75*
G03*
X140800760Y-100399980I-1000760J0D01*
G01*
%TO.C,J7*%
X167600340Y-84900900D02*
X167600340Y-70499100D01*
X167600340Y-70499100D02*
X151999660Y-70499100D01*
X165299100Y-92398980D02*
X165299100Y-84900900D01*
X165299100Y-89500840D02*
X154300900Y-90300940D01*
X165299100Y-88700740D02*
X154300900Y-89500840D01*
X165299100Y-87900640D02*
X154300900Y-88700740D01*
X165299100Y-87100540D02*
X154300900Y-87900640D01*
X165299100Y-86300440D02*
X154300900Y-87100540D01*
X165299100Y-85500340D02*
X154300900Y-86300440D01*
X164600600Y-104400480D02*
X164600600Y-92398980D01*
X154999400Y-104400480D02*
X164600600Y-104400480D01*
X154999400Y-92398980D02*
X154999400Y-104400480D01*
X154300900Y-92398980D02*
X165299100Y-92398980D01*
X154300900Y-84900900D02*
X154300900Y-92398980D01*
X151999660Y-84900900D02*
X167600340Y-84900900D01*
X151999660Y-70499100D02*
X151999660Y-84900900D01*
X160800760Y-100399980D02*
G75*
G03*
X160800760Y-100399980I-1000760J0D01*
G01*
%TO.C,J5*%
X127600340Y-84900900D02*
X127600340Y-70499100D01*
X127600340Y-70499100D02*
X111999660Y-70499100D01*
X125299100Y-92398980D02*
X125299100Y-84900900D01*
X125299100Y-89500840D02*
X114300900Y-90300940D01*
X125299100Y-88700740D02*
X114300900Y-89500840D01*
X125299100Y-87900640D02*
X114300900Y-88700740D01*
X125299100Y-87100540D02*
X114300900Y-87900640D01*
X125299100Y-86300440D02*
X114300900Y-87100540D01*
X125299100Y-85500340D02*
X114300900Y-86300440D01*
X124600600Y-104400480D02*
X124600600Y-92398980D01*
X114999400Y-104400480D02*
X124600600Y-104400480D01*
X114999400Y-92398980D02*
X114999400Y-104400480D01*
X114300900Y-92398980D02*
X125299100Y-92398980D01*
X114300900Y-84900900D02*
X114300900Y-92398980D01*
X111999660Y-84900900D02*
X127600340Y-84900900D01*
X111999660Y-70499100D02*
X111999660Y-84900900D01*
X120800760Y-100399980D02*
G75*
G03*
X120800760Y-100399980I-1000760J0D01*
G01*
%TO.C,J3*%
X87600340Y-84900900D02*
X87600340Y-70499100D01*
X87600340Y-70499100D02*
X71999660Y-70499100D01*
X85299100Y-92398980D02*
X85299100Y-84900900D01*
X85299100Y-89500840D02*
X74300900Y-90300940D01*
X85299100Y-88700740D02*
X74300900Y-89500840D01*
X85299100Y-87900640D02*
X74300900Y-88700740D01*
X85299100Y-87100540D02*
X74300900Y-87900640D01*
X85299100Y-86300440D02*
X74300900Y-87100540D01*
X85299100Y-85500340D02*
X74300900Y-86300440D01*
X84600600Y-104400480D02*
X84600600Y-92398980D01*
X74999400Y-104400480D02*
X84600600Y-104400480D01*
X74999400Y-92398980D02*
X74999400Y-104400480D01*
X74300900Y-92398980D02*
X85299100Y-92398980D01*
X74300900Y-84900900D02*
X74300900Y-92398980D01*
X71999660Y-84900900D02*
X87600340Y-84900900D01*
X71999660Y-70499100D02*
X71999660Y-84900900D01*
X80800760Y-100399980D02*
G75*
G03*
X80800760Y-100399980I-1000760J0D01*
G01*
%TO.C,J4*%
X107600340Y-84900900D02*
X107600340Y-70499100D01*
X107600340Y-70499100D02*
X91999660Y-70499100D01*
X105299100Y-92398980D02*
X105299100Y-84900900D01*
X105299100Y-89500840D02*
X94300900Y-90300940D01*
X105299100Y-88700740D02*
X94300900Y-89500840D01*
X105299100Y-87900640D02*
X94300900Y-88700740D01*
X105299100Y-87100540D02*
X94300900Y-87900640D01*
X105299100Y-86300440D02*
X94300900Y-87100540D01*
X105299100Y-85500340D02*
X94300900Y-86300440D01*
X104600600Y-104400480D02*
X104600600Y-92398980D01*
X94999400Y-104400480D02*
X104600600Y-104400480D01*
X94999400Y-92398980D02*
X94999400Y-104400480D01*
X94300900Y-92398980D02*
X105299100Y-92398980D01*
X94300900Y-84900900D02*
X94300900Y-92398980D01*
X91999660Y-84900900D02*
X107600340Y-84900900D01*
X91999660Y-70499100D02*
X91999660Y-84900900D01*
X100800760Y-100399980D02*
G75*
G03*
X100800760Y-100399980I-1000760J0D01*
G01*
%TO.C,J2*%
X67600340Y-84900900D02*
X67600340Y-70499100D01*
X67600340Y-70499100D02*
X51999660Y-70499100D01*
X65299100Y-92398980D02*
X65299100Y-84900900D01*
X65299100Y-89500840D02*
X54300900Y-90300940D01*
X65299100Y-88700740D02*
X54300900Y-89500840D01*
X65299100Y-87900640D02*
X54300900Y-88700740D01*
X65299100Y-87100540D02*
X54300900Y-87900640D01*
X65299100Y-86300440D02*
X54300900Y-87100540D01*
X65299100Y-85500340D02*
X54300900Y-86300440D01*
X64600600Y-104400480D02*
X64600600Y-92398980D01*
X54999400Y-104400480D02*
X64600600Y-104400480D01*
X54999400Y-92398980D02*
X54999400Y-104400480D01*
X54300900Y-92398980D02*
X65299100Y-92398980D01*
X54300900Y-84900900D02*
X54300900Y-92398980D01*
X51999660Y-84900900D02*
X67600340Y-84900900D01*
X51999660Y-70499100D02*
X51999660Y-84900900D01*
X60800760Y-100399980D02*
G75*
G03*
X60800760Y-100399980I-1000760J0D01*
G01*
%TD*%
M02*
