%TF.GenerationSoftware,KiCad,Pcbnew,7.0.8*%
%TF.CreationDate,2024-02-13T18:25:40+01:00*%
%TF.ProjectId,BlankingRelay_Top1,426c616e-6b69-46e6-9752-656c61795f54,rev?*%
%TF.SameCoordinates,Original*%
%TF.FileFunction,Drillmap*%
%TF.FilePolarity,Positive*%
%FSLAX45Y45*%
G04 Gerber Fmt 4.5, Leading zero omitted, Abs format (unit mm)*
G04 Created by KiCad (PCBNEW 7.0.8) date 2024-02-13 18:25:40*
%MOMM*%
%LPD*%
G01*
G04 APERTURE LIST*
%ADD10C,0.100000*%
%ADD11C,0.200000*%
%ADD12C,0.095000*%
%ADD13C,0.100076*%
%ADD14C,0.219964*%
G04 APERTURE END LIST*
D10*
X5000000Y-5500000D02*
X17000000Y-5500000D01*
X17000000Y-8500000D01*
X5000000Y-8500000D01*
X5000000Y-5500000D01*
D11*
D12*
X7952500Y-5902500D02*
X8047500Y-5997500D01*
X8047500Y-5902500D02*
X7952500Y-5997500D01*
X8202500Y-5902500D02*
X8297500Y-5997500D01*
X8297500Y-5902500D02*
X8202500Y-5997500D01*
X8452500Y-5902500D02*
X8547500Y-5997500D01*
X8547500Y-5902500D02*
X8452500Y-5997500D01*
X8702500Y-5902500D02*
X8797500Y-5997500D01*
X8797500Y-5902500D02*
X8702500Y-5997500D01*
X8952500Y-5902500D02*
X9047500Y-5997500D01*
X9047500Y-5902500D02*
X8952500Y-5997500D01*
X9202500Y-5902500D02*
X9297500Y-5997500D01*
X9297500Y-5902500D02*
X9202500Y-5997500D01*
X9952500Y-5902500D02*
X10047500Y-5997500D01*
X10047500Y-5902500D02*
X9952500Y-5997500D01*
X10202500Y-5902500D02*
X10297500Y-5997500D01*
X10297500Y-5902500D02*
X10202500Y-5997500D01*
X10452500Y-5902500D02*
X10547500Y-5997500D01*
X10547500Y-5902500D02*
X10452500Y-5997500D01*
X10702500Y-5902500D02*
X10797500Y-5997500D01*
X10797500Y-5902500D02*
X10702500Y-5997500D01*
X10952500Y-5902500D02*
X11047500Y-5997500D01*
X11047500Y-5902500D02*
X10952500Y-5997500D01*
X11202500Y-5902500D02*
X11297500Y-5997500D01*
X11297500Y-5902500D02*
X11202500Y-5997500D01*
X11952500Y-5902500D02*
X12047500Y-5997500D01*
X12047500Y-5902500D02*
X11952500Y-5997500D01*
X12202500Y-5902500D02*
X12297500Y-5997500D01*
X12297500Y-5902500D02*
X12202500Y-5997500D01*
X12452500Y-5902500D02*
X12547500Y-5997500D01*
X12547500Y-5902500D02*
X12452500Y-5997500D01*
X12702500Y-5902500D02*
X12797500Y-5997500D01*
X12797500Y-5902500D02*
X12702500Y-5997500D01*
X12952500Y-5902500D02*
X13047500Y-5997500D01*
X13047500Y-5902500D02*
X12952500Y-5997500D01*
X13202500Y-5902500D02*
X13297500Y-5997500D01*
X13297500Y-5902500D02*
X13202500Y-5997500D01*
X13952500Y-5902500D02*
X14047500Y-5997500D01*
X14047500Y-5902500D02*
X13952500Y-5997500D01*
X14202500Y-5902500D02*
X14297500Y-5997500D01*
X14297500Y-5902500D02*
X14202500Y-5997500D01*
X14452500Y-5902500D02*
X14547500Y-5997500D01*
X14547500Y-5902500D02*
X14452500Y-5997500D01*
X14702500Y-5902500D02*
X14797500Y-5997500D01*
X14797500Y-5902500D02*
X14702500Y-5997500D01*
X14952500Y-5902500D02*
X15047500Y-5997500D01*
X15047500Y-5902500D02*
X14952500Y-5997500D01*
X15202500Y-5902500D02*
X15297500Y-5997500D01*
X15297500Y-5902500D02*
X15202500Y-5997500D01*
D10*
X7050000Y-5950000D02*
G75*
G03*
X7050000Y-5950000I-50000J0D01*
G01*
X7300000Y-5950000D02*
G75*
G03*
X7300000Y-5950000I-50000J0D01*
G01*
D13*
X5980000Y-7219836D02*
X5980000Y-7319912D01*
X5929962Y-7269874D02*
X6030038Y-7269874D01*
X6229936Y-7219836D02*
X6229936Y-7319912D01*
X6179898Y-7269874D02*
X6279974Y-7269874D01*
X7980000Y-7219836D02*
X7980000Y-7319912D01*
X7929962Y-7269874D02*
X8030038Y-7269874D01*
X8229936Y-7219836D02*
X8229936Y-7319912D01*
X8179898Y-7269874D02*
X8279974Y-7269874D01*
X9980000Y-7219836D02*
X9980000Y-7319912D01*
X9929962Y-7269874D02*
X10030038Y-7269874D01*
X10229936Y-7219836D02*
X10229936Y-7319912D01*
X10179898Y-7269874D02*
X10279974Y-7269874D01*
X11980000Y-7219836D02*
X11980000Y-7319912D01*
X11929962Y-7269874D02*
X12030038Y-7269874D01*
X12229936Y-7219836D02*
X12229936Y-7319912D01*
X12179898Y-7269874D02*
X12279974Y-7269874D01*
X13980000Y-7219836D02*
X13980000Y-7319912D01*
X13929962Y-7269874D02*
X14030038Y-7269874D01*
X14229936Y-7219836D02*
X14229936Y-7319912D01*
X14179898Y-7269874D02*
X14279974Y-7269874D01*
X15980000Y-7219836D02*
X15980000Y-7319912D01*
X15929962Y-7269874D02*
X16030038Y-7269874D01*
X16229936Y-7219836D02*
X16229936Y-7319912D01*
X16179898Y-7269874D02*
X16279974Y-7269874D01*
D14*
X5547738Y-7774110D02*
X5547738Y-7618570D01*
X5392198Y-7618570D01*
X5392198Y-7774110D01*
X5547738Y-7774110D01*
X6567548Y-7774110D02*
X6567548Y-7618570D01*
X6412008Y-7618570D01*
X6412008Y-7774110D01*
X6567548Y-7774110D01*
X7547738Y-7774110D02*
X7547738Y-7618570D01*
X7392198Y-7618570D01*
X7392198Y-7774110D01*
X7547738Y-7774110D01*
X8567548Y-7774110D02*
X8567548Y-7618570D01*
X8412008Y-7618570D01*
X8412008Y-7774110D01*
X8567548Y-7774110D01*
X9547738Y-7774110D02*
X9547738Y-7618570D01*
X9392198Y-7618570D01*
X9392198Y-7774110D01*
X9547738Y-7774110D01*
X10567548Y-7774110D02*
X10567548Y-7618570D01*
X10412008Y-7618570D01*
X10412008Y-7774110D01*
X10567548Y-7774110D01*
X11547738Y-7774110D02*
X11547738Y-7618570D01*
X11392198Y-7618570D01*
X11392198Y-7774110D01*
X11547738Y-7774110D01*
X12567548Y-7774110D02*
X12567548Y-7618570D01*
X12412008Y-7618570D01*
X12412008Y-7774110D01*
X12567548Y-7774110D01*
X13547738Y-7774110D02*
X13547738Y-7618570D01*
X13392198Y-7618570D01*
X13392198Y-7774110D01*
X13547738Y-7774110D01*
X14567548Y-7774110D02*
X14567548Y-7618570D01*
X14412008Y-7618570D01*
X14412008Y-7774110D01*
X14567548Y-7774110D01*
X15547738Y-7774110D02*
X15547738Y-7618570D01*
X15392198Y-7618570D01*
X15392198Y-7774110D01*
X15547738Y-7774110D01*
X16567548Y-7774110D02*
X16567548Y-7618570D01*
X16412008Y-7618570D01*
X16412008Y-7774110D01*
X16567548Y-7774110D01*
D11*
X5255777Y-8816484D02*
X5255777Y-8616484D01*
X5255777Y-8616484D02*
X5303396Y-8616484D01*
X5303396Y-8616484D02*
X5331967Y-8626008D01*
X5331967Y-8626008D02*
X5351015Y-8645055D01*
X5351015Y-8645055D02*
X5360539Y-8664103D01*
X5360539Y-8664103D02*
X5370063Y-8702198D01*
X5370063Y-8702198D02*
X5370063Y-8730770D01*
X5370063Y-8730770D02*
X5360539Y-8768865D01*
X5360539Y-8768865D02*
X5351015Y-8787912D01*
X5351015Y-8787912D02*
X5331967Y-8806960D01*
X5331967Y-8806960D02*
X5303396Y-8816484D01*
X5303396Y-8816484D02*
X5255777Y-8816484D01*
X5455777Y-8816484D02*
X5455777Y-8683150D01*
X5455777Y-8721246D02*
X5465301Y-8702198D01*
X5465301Y-8702198D02*
X5474824Y-8692674D01*
X5474824Y-8692674D02*
X5493872Y-8683150D01*
X5493872Y-8683150D02*
X5512920Y-8683150D01*
X5579586Y-8816484D02*
X5579586Y-8683150D01*
X5579586Y-8616484D02*
X5570063Y-8626008D01*
X5570063Y-8626008D02*
X5579586Y-8635531D01*
X5579586Y-8635531D02*
X5589110Y-8626008D01*
X5589110Y-8626008D02*
X5579586Y-8616484D01*
X5579586Y-8616484D02*
X5579586Y-8635531D01*
X5703396Y-8816484D02*
X5684348Y-8806960D01*
X5684348Y-8806960D02*
X5674824Y-8787912D01*
X5674824Y-8787912D02*
X5674824Y-8616484D01*
X5808158Y-8816484D02*
X5789110Y-8806960D01*
X5789110Y-8806960D02*
X5779586Y-8787912D01*
X5779586Y-8787912D02*
X5779586Y-8616484D01*
X6036729Y-8816484D02*
X6036729Y-8616484D01*
X6036729Y-8616484D02*
X6103396Y-8759341D01*
X6103396Y-8759341D02*
X6170062Y-8616484D01*
X6170062Y-8616484D02*
X6170062Y-8816484D01*
X6351015Y-8816484D02*
X6351015Y-8711722D01*
X6351015Y-8711722D02*
X6341491Y-8692674D01*
X6341491Y-8692674D02*
X6322443Y-8683150D01*
X6322443Y-8683150D02*
X6284348Y-8683150D01*
X6284348Y-8683150D02*
X6265301Y-8692674D01*
X6351015Y-8806960D02*
X6331967Y-8816484D01*
X6331967Y-8816484D02*
X6284348Y-8816484D01*
X6284348Y-8816484D02*
X6265301Y-8806960D01*
X6265301Y-8806960D02*
X6255777Y-8787912D01*
X6255777Y-8787912D02*
X6255777Y-8768865D01*
X6255777Y-8768865D02*
X6265301Y-8749817D01*
X6265301Y-8749817D02*
X6284348Y-8740293D01*
X6284348Y-8740293D02*
X6331967Y-8740293D01*
X6331967Y-8740293D02*
X6351015Y-8730770D01*
X6446253Y-8683150D02*
X6446253Y-8883150D01*
X6446253Y-8692674D02*
X6465301Y-8683150D01*
X6465301Y-8683150D02*
X6503396Y-8683150D01*
X6503396Y-8683150D02*
X6522443Y-8692674D01*
X6522443Y-8692674D02*
X6531967Y-8702198D01*
X6531967Y-8702198D02*
X6541491Y-8721246D01*
X6541491Y-8721246D02*
X6541491Y-8778389D01*
X6541491Y-8778389D02*
X6531967Y-8797436D01*
X6531967Y-8797436D02*
X6522443Y-8806960D01*
X6522443Y-8806960D02*
X6503396Y-8816484D01*
X6503396Y-8816484D02*
X6465301Y-8816484D01*
X6465301Y-8816484D02*
X6446253Y-8806960D01*
X6627205Y-8797436D02*
X6636729Y-8806960D01*
X6636729Y-8806960D02*
X6627205Y-8816484D01*
X6627205Y-8816484D02*
X6617682Y-8806960D01*
X6617682Y-8806960D02*
X6627205Y-8797436D01*
X6627205Y-8797436D02*
X6627205Y-8816484D01*
X6627205Y-8692674D02*
X6636729Y-8702198D01*
X6636729Y-8702198D02*
X6627205Y-8711722D01*
X6627205Y-8711722D02*
X6617682Y-8702198D01*
X6617682Y-8702198D02*
X6627205Y-8692674D01*
X6627205Y-8692674D02*
X6627205Y-8711722D01*
D12*
X4900000Y-9097500D02*
X4995000Y-9192500D01*
X4995000Y-9097500D02*
X4900000Y-9192500D01*
D11*
X5293872Y-9036484D02*
X5312920Y-9036484D01*
X5312920Y-9036484D02*
X5331967Y-9046008D01*
X5331967Y-9046008D02*
X5341491Y-9055531D01*
X5341491Y-9055531D02*
X5351015Y-9074579D01*
X5351015Y-9074579D02*
X5360539Y-9112674D01*
X5360539Y-9112674D02*
X5360539Y-9160293D01*
X5360539Y-9160293D02*
X5351015Y-9198389D01*
X5351015Y-9198389D02*
X5341491Y-9217436D01*
X5341491Y-9217436D02*
X5331967Y-9226960D01*
X5331967Y-9226960D02*
X5312920Y-9236484D01*
X5312920Y-9236484D02*
X5293872Y-9236484D01*
X5293872Y-9236484D02*
X5274824Y-9226960D01*
X5274824Y-9226960D02*
X5265301Y-9217436D01*
X5265301Y-9217436D02*
X5255777Y-9198389D01*
X5255777Y-9198389D02*
X5246253Y-9160293D01*
X5246253Y-9160293D02*
X5246253Y-9112674D01*
X5246253Y-9112674D02*
X5255777Y-9074579D01*
X5255777Y-9074579D02*
X5265301Y-9055531D01*
X5265301Y-9055531D02*
X5274824Y-9046008D01*
X5274824Y-9046008D02*
X5293872Y-9036484D01*
X5446253Y-9217436D02*
X5455777Y-9226960D01*
X5455777Y-9226960D02*
X5446253Y-9236484D01*
X5446253Y-9236484D02*
X5436729Y-9226960D01*
X5436729Y-9226960D02*
X5446253Y-9217436D01*
X5446253Y-9217436D02*
X5446253Y-9236484D01*
X5551015Y-9236484D02*
X5589110Y-9236484D01*
X5589110Y-9236484D02*
X5608158Y-9226960D01*
X5608158Y-9226960D02*
X5617682Y-9217436D01*
X5617682Y-9217436D02*
X5636729Y-9188865D01*
X5636729Y-9188865D02*
X5646253Y-9150770D01*
X5646253Y-9150770D02*
X5646253Y-9074579D01*
X5646253Y-9074579D02*
X5636729Y-9055531D01*
X5636729Y-9055531D02*
X5627205Y-9046008D01*
X5627205Y-9046008D02*
X5608158Y-9036484D01*
X5608158Y-9036484D02*
X5570063Y-9036484D01*
X5570063Y-9036484D02*
X5551015Y-9046008D01*
X5551015Y-9046008D02*
X5541491Y-9055531D01*
X5541491Y-9055531D02*
X5531967Y-9074579D01*
X5531967Y-9074579D02*
X5531967Y-9122198D01*
X5531967Y-9122198D02*
X5541491Y-9141246D01*
X5541491Y-9141246D02*
X5551015Y-9150770D01*
X5551015Y-9150770D02*
X5570063Y-9160293D01*
X5570063Y-9160293D02*
X5608158Y-9160293D01*
X5608158Y-9160293D02*
X5627205Y-9150770D01*
X5627205Y-9150770D02*
X5636729Y-9141246D01*
X5636729Y-9141246D02*
X5646253Y-9122198D01*
X5827205Y-9036484D02*
X5731967Y-9036484D01*
X5731967Y-9036484D02*
X5722443Y-9131722D01*
X5722443Y-9131722D02*
X5731967Y-9122198D01*
X5731967Y-9122198D02*
X5751015Y-9112674D01*
X5751015Y-9112674D02*
X5798634Y-9112674D01*
X5798634Y-9112674D02*
X5817682Y-9122198D01*
X5817682Y-9122198D02*
X5827205Y-9131722D01*
X5827205Y-9131722D02*
X5836729Y-9150770D01*
X5836729Y-9150770D02*
X5836729Y-9198389D01*
X5836729Y-9198389D02*
X5827205Y-9217436D01*
X5827205Y-9217436D02*
X5817682Y-9226960D01*
X5817682Y-9226960D02*
X5798634Y-9236484D01*
X5798634Y-9236484D02*
X5751015Y-9236484D01*
X5751015Y-9236484D02*
X5731967Y-9226960D01*
X5731967Y-9226960D02*
X5722443Y-9217436D01*
X5960539Y-9036484D02*
X5979586Y-9036484D01*
X5979586Y-9036484D02*
X5998634Y-9046008D01*
X5998634Y-9046008D02*
X6008158Y-9055531D01*
X6008158Y-9055531D02*
X6017682Y-9074579D01*
X6017682Y-9074579D02*
X6027205Y-9112674D01*
X6027205Y-9112674D02*
X6027205Y-9160293D01*
X6027205Y-9160293D02*
X6017682Y-9198389D01*
X6017682Y-9198389D02*
X6008158Y-9217436D01*
X6008158Y-9217436D02*
X5998634Y-9226960D01*
X5998634Y-9226960D02*
X5979586Y-9236484D01*
X5979586Y-9236484D02*
X5960539Y-9236484D01*
X5960539Y-9236484D02*
X5941491Y-9226960D01*
X5941491Y-9226960D02*
X5931967Y-9217436D01*
X5931967Y-9217436D02*
X5922443Y-9198389D01*
X5922443Y-9198389D02*
X5912920Y-9160293D01*
X5912920Y-9160293D02*
X5912920Y-9112674D01*
X5912920Y-9112674D02*
X5922443Y-9074579D01*
X5922443Y-9074579D02*
X5931967Y-9055531D01*
X5931967Y-9055531D02*
X5941491Y-9046008D01*
X5941491Y-9046008D02*
X5960539Y-9036484D01*
X6112920Y-9236484D02*
X6112920Y-9103150D01*
X6112920Y-9122198D02*
X6122443Y-9112674D01*
X6122443Y-9112674D02*
X6141491Y-9103150D01*
X6141491Y-9103150D02*
X6170063Y-9103150D01*
X6170063Y-9103150D02*
X6189110Y-9112674D01*
X6189110Y-9112674D02*
X6198634Y-9131722D01*
X6198634Y-9131722D02*
X6198634Y-9236484D01*
X6198634Y-9131722D02*
X6208158Y-9112674D01*
X6208158Y-9112674D02*
X6227205Y-9103150D01*
X6227205Y-9103150D02*
X6255777Y-9103150D01*
X6255777Y-9103150D02*
X6274824Y-9112674D01*
X6274824Y-9112674D02*
X6284348Y-9131722D01*
X6284348Y-9131722D02*
X6284348Y-9236484D01*
X6379586Y-9236484D02*
X6379586Y-9103150D01*
X6379586Y-9122198D02*
X6389110Y-9112674D01*
X6389110Y-9112674D02*
X6408158Y-9103150D01*
X6408158Y-9103150D02*
X6436729Y-9103150D01*
X6436729Y-9103150D02*
X6455777Y-9112674D01*
X6455777Y-9112674D02*
X6465301Y-9131722D01*
X6465301Y-9131722D02*
X6465301Y-9236484D01*
X6465301Y-9131722D02*
X6474824Y-9112674D01*
X6474824Y-9112674D02*
X6493872Y-9103150D01*
X6493872Y-9103150D02*
X6522443Y-9103150D01*
X6522443Y-9103150D02*
X6541491Y-9112674D01*
X6541491Y-9112674D02*
X6551015Y-9131722D01*
X6551015Y-9131722D02*
X6551015Y-9236484D01*
X6941491Y-9026960D02*
X6770063Y-9284103D01*
X7198634Y-9036484D02*
X7217682Y-9036484D01*
X7217682Y-9036484D02*
X7236729Y-9046008D01*
X7236729Y-9046008D02*
X7246253Y-9055531D01*
X7246253Y-9055531D02*
X7255777Y-9074579D01*
X7255777Y-9074579D02*
X7265301Y-9112674D01*
X7265301Y-9112674D02*
X7265301Y-9160293D01*
X7265301Y-9160293D02*
X7255777Y-9198389D01*
X7255777Y-9198389D02*
X7246253Y-9217436D01*
X7246253Y-9217436D02*
X7236729Y-9226960D01*
X7236729Y-9226960D02*
X7217682Y-9236484D01*
X7217682Y-9236484D02*
X7198634Y-9236484D01*
X7198634Y-9236484D02*
X7179586Y-9226960D01*
X7179586Y-9226960D02*
X7170063Y-9217436D01*
X7170063Y-9217436D02*
X7160539Y-9198389D01*
X7160539Y-9198389D02*
X7151015Y-9160293D01*
X7151015Y-9160293D02*
X7151015Y-9112674D01*
X7151015Y-9112674D02*
X7160539Y-9074579D01*
X7160539Y-9074579D02*
X7170063Y-9055531D01*
X7170063Y-9055531D02*
X7179586Y-9046008D01*
X7179586Y-9046008D02*
X7198634Y-9036484D01*
X7351015Y-9217436D02*
X7360539Y-9226960D01*
X7360539Y-9226960D02*
X7351015Y-9236484D01*
X7351015Y-9236484D02*
X7341491Y-9226960D01*
X7341491Y-9226960D02*
X7351015Y-9217436D01*
X7351015Y-9217436D02*
X7351015Y-9236484D01*
X7484348Y-9036484D02*
X7503396Y-9036484D01*
X7503396Y-9036484D02*
X7522444Y-9046008D01*
X7522444Y-9046008D02*
X7531967Y-9055531D01*
X7531967Y-9055531D02*
X7541491Y-9074579D01*
X7541491Y-9074579D02*
X7551015Y-9112674D01*
X7551015Y-9112674D02*
X7551015Y-9160293D01*
X7551015Y-9160293D02*
X7541491Y-9198389D01*
X7541491Y-9198389D02*
X7531967Y-9217436D01*
X7531967Y-9217436D02*
X7522444Y-9226960D01*
X7522444Y-9226960D02*
X7503396Y-9236484D01*
X7503396Y-9236484D02*
X7484348Y-9236484D01*
X7484348Y-9236484D02*
X7465301Y-9226960D01*
X7465301Y-9226960D02*
X7455777Y-9217436D01*
X7455777Y-9217436D02*
X7446253Y-9198389D01*
X7446253Y-9198389D02*
X7436729Y-9160293D01*
X7436729Y-9160293D02*
X7436729Y-9112674D01*
X7436729Y-9112674D02*
X7446253Y-9074579D01*
X7446253Y-9074579D02*
X7455777Y-9055531D01*
X7455777Y-9055531D02*
X7465301Y-9046008D01*
X7465301Y-9046008D02*
X7484348Y-9036484D01*
X7617682Y-9036484D02*
X7741491Y-9036484D01*
X7741491Y-9036484D02*
X7674825Y-9112674D01*
X7674825Y-9112674D02*
X7703396Y-9112674D01*
X7703396Y-9112674D02*
X7722444Y-9122198D01*
X7722444Y-9122198D02*
X7731967Y-9131722D01*
X7731967Y-9131722D02*
X7741491Y-9150770D01*
X7741491Y-9150770D02*
X7741491Y-9198389D01*
X7741491Y-9198389D02*
X7731967Y-9217436D01*
X7731967Y-9217436D02*
X7722444Y-9226960D01*
X7722444Y-9226960D02*
X7703396Y-9236484D01*
X7703396Y-9236484D02*
X7646253Y-9236484D01*
X7646253Y-9236484D02*
X7627206Y-9226960D01*
X7627206Y-9226960D02*
X7617682Y-9217436D01*
X7808158Y-9036484D02*
X7941491Y-9036484D01*
X7941491Y-9036484D02*
X7855777Y-9236484D01*
X8103396Y-9103150D02*
X8103396Y-9236484D01*
X8055777Y-9026960D02*
X8008158Y-9169817D01*
X8008158Y-9169817D02*
X8131967Y-9169817D01*
X8198634Y-9036484D02*
X8198634Y-9074579D01*
X8274825Y-9036484D02*
X8274825Y-9074579D01*
X8570063Y-9312674D02*
X8560539Y-9303150D01*
X8560539Y-9303150D02*
X8541491Y-9274579D01*
X8541491Y-9274579D02*
X8531968Y-9255531D01*
X8531968Y-9255531D02*
X8522444Y-9226960D01*
X8522444Y-9226960D02*
X8512920Y-9179341D01*
X8512920Y-9179341D02*
X8512920Y-9141246D01*
X8512920Y-9141246D02*
X8522444Y-9093627D01*
X8522444Y-9093627D02*
X8531968Y-9065055D01*
X8531968Y-9065055D02*
X8541491Y-9046008D01*
X8541491Y-9046008D02*
X8560539Y-9017436D01*
X8560539Y-9017436D02*
X8570063Y-9007912D01*
X8636730Y-9055531D02*
X8646253Y-9046008D01*
X8646253Y-9046008D02*
X8665301Y-9036484D01*
X8665301Y-9036484D02*
X8712920Y-9036484D01*
X8712920Y-9036484D02*
X8731968Y-9046008D01*
X8731968Y-9046008D02*
X8741491Y-9055531D01*
X8741491Y-9055531D02*
X8751015Y-9074579D01*
X8751015Y-9074579D02*
X8751015Y-9093627D01*
X8751015Y-9093627D02*
X8741491Y-9122198D01*
X8741491Y-9122198D02*
X8627206Y-9236484D01*
X8627206Y-9236484D02*
X8751015Y-9236484D01*
X8922444Y-9103150D02*
X8922444Y-9236484D01*
X8874825Y-9026960D02*
X8827206Y-9169817D01*
X8827206Y-9169817D02*
X8951015Y-9169817D01*
X9179587Y-9236484D02*
X9179587Y-9036484D01*
X9265301Y-9236484D02*
X9265301Y-9131722D01*
X9265301Y-9131722D02*
X9255777Y-9112674D01*
X9255777Y-9112674D02*
X9236730Y-9103150D01*
X9236730Y-9103150D02*
X9208158Y-9103150D01*
X9208158Y-9103150D02*
X9189111Y-9112674D01*
X9189111Y-9112674D02*
X9179587Y-9122198D01*
X9389111Y-9236484D02*
X9370063Y-9226960D01*
X9370063Y-9226960D02*
X9360539Y-9217436D01*
X9360539Y-9217436D02*
X9351015Y-9198389D01*
X9351015Y-9198389D02*
X9351015Y-9141246D01*
X9351015Y-9141246D02*
X9360539Y-9122198D01*
X9360539Y-9122198D02*
X9370063Y-9112674D01*
X9370063Y-9112674D02*
X9389111Y-9103150D01*
X9389111Y-9103150D02*
X9417682Y-9103150D01*
X9417682Y-9103150D02*
X9436730Y-9112674D01*
X9436730Y-9112674D02*
X9446253Y-9122198D01*
X9446253Y-9122198D02*
X9455777Y-9141246D01*
X9455777Y-9141246D02*
X9455777Y-9198389D01*
X9455777Y-9198389D02*
X9446253Y-9217436D01*
X9446253Y-9217436D02*
X9436730Y-9226960D01*
X9436730Y-9226960D02*
X9417682Y-9236484D01*
X9417682Y-9236484D02*
X9389111Y-9236484D01*
X9570063Y-9236484D02*
X9551015Y-9226960D01*
X9551015Y-9226960D02*
X9541492Y-9207912D01*
X9541492Y-9207912D02*
X9541492Y-9036484D01*
X9722444Y-9226960D02*
X9703396Y-9236484D01*
X9703396Y-9236484D02*
X9665301Y-9236484D01*
X9665301Y-9236484D02*
X9646253Y-9226960D01*
X9646253Y-9226960D02*
X9636730Y-9207912D01*
X9636730Y-9207912D02*
X9636730Y-9131722D01*
X9636730Y-9131722D02*
X9646253Y-9112674D01*
X9646253Y-9112674D02*
X9665301Y-9103150D01*
X9665301Y-9103150D02*
X9703396Y-9103150D01*
X9703396Y-9103150D02*
X9722444Y-9112674D01*
X9722444Y-9112674D02*
X9731968Y-9131722D01*
X9731968Y-9131722D02*
X9731968Y-9150770D01*
X9731968Y-9150770D02*
X9636730Y-9169817D01*
X9808158Y-9226960D02*
X9827206Y-9236484D01*
X9827206Y-9236484D02*
X9865301Y-9236484D01*
X9865301Y-9236484D02*
X9884349Y-9226960D01*
X9884349Y-9226960D02*
X9893873Y-9207912D01*
X9893873Y-9207912D02*
X9893873Y-9198389D01*
X9893873Y-9198389D02*
X9884349Y-9179341D01*
X9884349Y-9179341D02*
X9865301Y-9169817D01*
X9865301Y-9169817D02*
X9836730Y-9169817D01*
X9836730Y-9169817D02*
X9817682Y-9160293D01*
X9817682Y-9160293D02*
X9808158Y-9141246D01*
X9808158Y-9141246D02*
X9808158Y-9131722D01*
X9808158Y-9131722D02*
X9817682Y-9112674D01*
X9817682Y-9112674D02*
X9836730Y-9103150D01*
X9836730Y-9103150D02*
X9865301Y-9103150D01*
X9865301Y-9103150D02*
X9884349Y-9112674D01*
X9960539Y-9312674D02*
X9970063Y-9303150D01*
X9970063Y-9303150D02*
X9989111Y-9274579D01*
X9989111Y-9274579D02*
X9998634Y-9255531D01*
X9998634Y-9255531D02*
X10008158Y-9226960D01*
X10008158Y-9226960D02*
X10017682Y-9179341D01*
X10017682Y-9179341D02*
X10017682Y-9141246D01*
X10017682Y-9141246D02*
X10008158Y-9093627D01*
X10008158Y-9093627D02*
X9998634Y-9065055D01*
X9998634Y-9065055D02*
X9989111Y-9046008D01*
X9989111Y-9046008D02*
X9970063Y-9017436D01*
X9970063Y-9017436D02*
X9960539Y-9007912D01*
D10*
X4995000Y-9409000D02*
G75*
G03*
X4995000Y-9409000I-50000J0D01*
G01*
D11*
X5360539Y-9500484D02*
X5246253Y-9500484D01*
X5303396Y-9500484D02*
X5303396Y-9300484D01*
X5303396Y-9300484D02*
X5284348Y-9329055D01*
X5284348Y-9329055D02*
X5265301Y-9348103D01*
X5265301Y-9348103D02*
X5246253Y-9357627D01*
X5446253Y-9481436D02*
X5455777Y-9490960D01*
X5455777Y-9490960D02*
X5446253Y-9500484D01*
X5446253Y-9500484D02*
X5436729Y-9490960D01*
X5436729Y-9490960D02*
X5446253Y-9481436D01*
X5446253Y-9481436D02*
X5446253Y-9500484D01*
X5579586Y-9300484D02*
X5598634Y-9300484D01*
X5598634Y-9300484D02*
X5617682Y-9310008D01*
X5617682Y-9310008D02*
X5627205Y-9319531D01*
X5627205Y-9319531D02*
X5636729Y-9338579D01*
X5636729Y-9338579D02*
X5646253Y-9376674D01*
X5646253Y-9376674D02*
X5646253Y-9424293D01*
X5646253Y-9424293D02*
X5636729Y-9462389D01*
X5636729Y-9462389D02*
X5627205Y-9481436D01*
X5627205Y-9481436D02*
X5617682Y-9490960D01*
X5617682Y-9490960D02*
X5598634Y-9500484D01*
X5598634Y-9500484D02*
X5579586Y-9500484D01*
X5579586Y-9500484D02*
X5560539Y-9490960D01*
X5560539Y-9490960D02*
X5551015Y-9481436D01*
X5551015Y-9481436D02*
X5541491Y-9462389D01*
X5541491Y-9462389D02*
X5531967Y-9424293D01*
X5531967Y-9424293D02*
X5531967Y-9376674D01*
X5531967Y-9376674D02*
X5541491Y-9338579D01*
X5541491Y-9338579D02*
X5551015Y-9319531D01*
X5551015Y-9319531D02*
X5560539Y-9310008D01*
X5560539Y-9310008D02*
X5579586Y-9300484D01*
X5770062Y-9300484D02*
X5789110Y-9300484D01*
X5789110Y-9300484D02*
X5808158Y-9310008D01*
X5808158Y-9310008D02*
X5817682Y-9319531D01*
X5817682Y-9319531D02*
X5827205Y-9338579D01*
X5827205Y-9338579D02*
X5836729Y-9376674D01*
X5836729Y-9376674D02*
X5836729Y-9424293D01*
X5836729Y-9424293D02*
X5827205Y-9462389D01*
X5827205Y-9462389D02*
X5817682Y-9481436D01*
X5817682Y-9481436D02*
X5808158Y-9490960D01*
X5808158Y-9490960D02*
X5789110Y-9500484D01*
X5789110Y-9500484D02*
X5770062Y-9500484D01*
X5770062Y-9500484D02*
X5751015Y-9490960D01*
X5751015Y-9490960D02*
X5741491Y-9481436D01*
X5741491Y-9481436D02*
X5731967Y-9462389D01*
X5731967Y-9462389D02*
X5722443Y-9424293D01*
X5722443Y-9424293D02*
X5722443Y-9376674D01*
X5722443Y-9376674D02*
X5731967Y-9338579D01*
X5731967Y-9338579D02*
X5741491Y-9319531D01*
X5741491Y-9319531D02*
X5751015Y-9310008D01*
X5751015Y-9310008D02*
X5770062Y-9300484D01*
X5960539Y-9300484D02*
X5979586Y-9300484D01*
X5979586Y-9300484D02*
X5998634Y-9310008D01*
X5998634Y-9310008D02*
X6008158Y-9319531D01*
X6008158Y-9319531D02*
X6017682Y-9338579D01*
X6017682Y-9338579D02*
X6027205Y-9376674D01*
X6027205Y-9376674D02*
X6027205Y-9424293D01*
X6027205Y-9424293D02*
X6017682Y-9462389D01*
X6017682Y-9462389D02*
X6008158Y-9481436D01*
X6008158Y-9481436D02*
X5998634Y-9490960D01*
X5998634Y-9490960D02*
X5979586Y-9500484D01*
X5979586Y-9500484D02*
X5960539Y-9500484D01*
X5960539Y-9500484D02*
X5941491Y-9490960D01*
X5941491Y-9490960D02*
X5931967Y-9481436D01*
X5931967Y-9481436D02*
X5922443Y-9462389D01*
X5922443Y-9462389D02*
X5912920Y-9424293D01*
X5912920Y-9424293D02*
X5912920Y-9376674D01*
X5912920Y-9376674D02*
X5922443Y-9338579D01*
X5922443Y-9338579D02*
X5931967Y-9319531D01*
X5931967Y-9319531D02*
X5941491Y-9310008D01*
X5941491Y-9310008D02*
X5960539Y-9300484D01*
X6112920Y-9500484D02*
X6112920Y-9367150D01*
X6112920Y-9386198D02*
X6122443Y-9376674D01*
X6122443Y-9376674D02*
X6141491Y-9367150D01*
X6141491Y-9367150D02*
X6170063Y-9367150D01*
X6170063Y-9367150D02*
X6189110Y-9376674D01*
X6189110Y-9376674D02*
X6198634Y-9395722D01*
X6198634Y-9395722D02*
X6198634Y-9500484D01*
X6198634Y-9395722D02*
X6208158Y-9376674D01*
X6208158Y-9376674D02*
X6227205Y-9367150D01*
X6227205Y-9367150D02*
X6255777Y-9367150D01*
X6255777Y-9367150D02*
X6274824Y-9376674D01*
X6274824Y-9376674D02*
X6284348Y-9395722D01*
X6284348Y-9395722D02*
X6284348Y-9500484D01*
X6379586Y-9500484D02*
X6379586Y-9367150D01*
X6379586Y-9386198D02*
X6389110Y-9376674D01*
X6389110Y-9376674D02*
X6408158Y-9367150D01*
X6408158Y-9367150D02*
X6436729Y-9367150D01*
X6436729Y-9367150D02*
X6455777Y-9376674D01*
X6455777Y-9376674D02*
X6465301Y-9395722D01*
X6465301Y-9395722D02*
X6465301Y-9500484D01*
X6465301Y-9395722D02*
X6474824Y-9376674D01*
X6474824Y-9376674D02*
X6493872Y-9367150D01*
X6493872Y-9367150D02*
X6522443Y-9367150D01*
X6522443Y-9367150D02*
X6541491Y-9376674D01*
X6541491Y-9376674D02*
X6551015Y-9395722D01*
X6551015Y-9395722D02*
X6551015Y-9500484D01*
X6941491Y-9290960D02*
X6770063Y-9548103D01*
X7198634Y-9300484D02*
X7217682Y-9300484D01*
X7217682Y-9300484D02*
X7236729Y-9310008D01*
X7236729Y-9310008D02*
X7246253Y-9319531D01*
X7246253Y-9319531D02*
X7255777Y-9338579D01*
X7255777Y-9338579D02*
X7265301Y-9376674D01*
X7265301Y-9376674D02*
X7265301Y-9424293D01*
X7265301Y-9424293D02*
X7255777Y-9462389D01*
X7255777Y-9462389D02*
X7246253Y-9481436D01*
X7246253Y-9481436D02*
X7236729Y-9490960D01*
X7236729Y-9490960D02*
X7217682Y-9500484D01*
X7217682Y-9500484D02*
X7198634Y-9500484D01*
X7198634Y-9500484D02*
X7179586Y-9490960D01*
X7179586Y-9490960D02*
X7170063Y-9481436D01*
X7170063Y-9481436D02*
X7160539Y-9462389D01*
X7160539Y-9462389D02*
X7151015Y-9424293D01*
X7151015Y-9424293D02*
X7151015Y-9376674D01*
X7151015Y-9376674D02*
X7160539Y-9338579D01*
X7160539Y-9338579D02*
X7170063Y-9319531D01*
X7170063Y-9319531D02*
X7179586Y-9310008D01*
X7179586Y-9310008D02*
X7198634Y-9300484D01*
X7351015Y-9481436D02*
X7360539Y-9490960D01*
X7360539Y-9490960D02*
X7351015Y-9500484D01*
X7351015Y-9500484D02*
X7341491Y-9490960D01*
X7341491Y-9490960D02*
X7351015Y-9481436D01*
X7351015Y-9481436D02*
X7351015Y-9500484D01*
X7484348Y-9300484D02*
X7503396Y-9300484D01*
X7503396Y-9300484D02*
X7522444Y-9310008D01*
X7522444Y-9310008D02*
X7531967Y-9319531D01*
X7531967Y-9319531D02*
X7541491Y-9338579D01*
X7541491Y-9338579D02*
X7551015Y-9376674D01*
X7551015Y-9376674D02*
X7551015Y-9424293D01*
X7551015Y-9424293D02*
X7541491Y-9462389D01*
X7541491Y-9462389D02*
X7531967Y-9481436D01*
X7531967Y-9481436D02*
X7522444Y-9490960D01*
X7522444Y-9490960D02*
X7503396Y-9500484D01*
X7503396Y-9500484D02*
X7484348Y-9500484D01*
X7484348Y-9500484D02*
X7465301Y-9490960D01*
X7465301Y-9490960D02*
X7455777Y-9481436D01*
X7455777Y-9481436D02*
X7446253Y-9462389D01*
X7446253Y-9462389D02*
X7436729Y-9424293D01*
X7436729Y-9424293D02*
X7436729Y-9376674D01*
X7436729Y-9376674D02*
X7446253Y-9338579D01*
X7446253Y-9338579D02*
X7455777Y-9319531D01*
X7455777Y-9319531D02*
X7465301Y-9310008D01*
X7465301Y-9310008D02*
X7484348Y-9300484D01*
X7617682Y-9300484D02*
X7741491Y-9300484D01*
X7741491Y-9300484D02*
X7674825Y-9376674D01*
X7674825Y-9376674D02*
X7703396Y-9376674D01*
X7703396Y-9376674D02*
X7722444Y-9386198D01*
X7722444Y-9386198D02*
X7731967Y-9395722D01*
X7731967Y-9395722D02*
X7741491Y-9414770D01*
X7741491Y-9414770D02*
X7741491Y-9462389D01*
X7741491Y-9462389D02*
X7731967Y-9481436D01*
X7731967Y-9481436D02*
X7722444Y-9490960D01*
X7722444Y-9490960D02*
X7703396Y-9500484D01*
X7703396Y-9500484D02*
X7646253Y-9500484D01*
X7646253Y-9500484D02*
X7627206Y-9490960D01*
X7627206Y-9490960D02*
X7617682Y-9481436D01*
X7836729Y-9500484D02*
X7874825Y-9500484D01*
X7874825Y-9500484D02*
X7893872Y-9490960D01*
X7893872Y-9490960D02*
X7903396Y-9481436D01*
X7903396Y-9481436D02*
X7922444Y-9452865D01*
X7922444Y-9452865D02*
X7931967Y-9414770D01*
X7931967Y-9414770D02*
X7931967Y-9338579D01*
X7931967Y-9338579D02*
X7922444Y-9319531D01*
X7922444Y-9319531D02*
X7912920Y-9310008D01*
X7912920Y-9310008D02*
X7893872Y-9300484D01*
X7893872Y-9300484D02*
X7855777Y-9300484D01*
X7855777Y-9300484D02*
X7836729Y-9310008D01*
X7836729Y-9310008D02*
X7827206Y-9319531D01*
X7827206Y-9319531D02*
X7817682Y-9338579D01*
X7817682Y-9338579D02*
X7817682Y-9386198D01*
X7817682Y-9386198D02*
X7827206Y-9405246D01*
X7827206Y-9405246D02*
X7836729Y-9414770D01*
X7836729Y-9414770D02*
X7855777Y-9424293D01*
X7855777Y-9424293D02*
X7893872Y-9424293D01*
X7893872Y-9424293D02*
X7912920Y-9414770D01*
X7912920Y-9414770D02*
X7922444Y-9405246D01*
X7922444Y-9405246D02*
X7931967Y-9386198D01*
X8103396Y-9367150D02*
X8103396Y-9500484D01*
X8055777Y-9290960D02*
X8008158Y-9433817D01*
X8008158Y-9433817D02*
X8131967Y-9433817D01*
X8198634Y-9300484D02*
X8198634Y-9338579D01*
X8274825Y-9300484D02*
X8274825Y-9338579D01*
X8570063Y-9576674D02*
X8560539Y-9567150D01*
X8560539Y-9567150D02*
X8541491Y-9538579D01*
X8541491Y-9538579D02*
X8531968Y-9519531D01*
X8531968Y-9519531D02*
X8522444Y-9490960D01*
X8522444Y-9490960D02*
X8512920Y-9443341D01*
X8512920Y-9443341D02*
X8512920Y-9405246D01*
X8512920Y-9405246D02*
X8522444Y-9357627D01*
X8522444Y-9357627D02*
X8531968Y-9329055D01*
X8531968Y-9329055D02*
X8541491Y-9310008D01*
X8541491Y-9310008D02*
X8560539Y-9281436D01*
X8560539Y-9281436D02*
X8570063Y-9271912D01*
X8636730Y-9319531D02*
X8646253Y-9310008D01*
X8646253Y-9310008D02*
X8665301Y-9300484D01*
X8665301Y-9300484D02*
X8712920Y-9300484D01*
X8712920Y-9300484D02*
X8731968Y-9310008D01*
X8731968Y-9310008D02*
X8741491Y-9319531D01*
X8741491Y-9319531D02*
X8751015Y-9338579D01*
X8751015Y-9338579D02*
X8751015Y-9357627D01*
X8751015Y-9357627D02*
X8741491Y-9386198D01*
X8741491Y-9386198D02*
X8627206Y-9500484D01*
X8627206Y-9500484D02*
X8751015Y-9500484D01*
X8989111Y-9500484D02*
X8989111Y-9300484D01*
X9074825Y-9500484D02*
X9074825Y-9395722D01*
X9074825Y-9395722D02*
X9065301Y-9376674D01*
X9065301Y-9376674D02*
X9046253Y-9367150D01*
X9046253Y-9367150D02*
X9017682Y-9367150D01*
X9017682Y-9367150D02*
X8998634Y-9376674D01*
X8998634Y-9376674D02*
X8989111Y-9386198D01*
X9198634Y-9500484D02*
X9179587Y-9490960D01*
X9179587Y-9490960D02*
X9170063Y-9481436D01*
X9170063Y-9481436D02*
X9160539Y-9462389D01*
X9160539Y-9462389D02*
X9160539Y-9405246D01*
X9160539Y-9405246D02*
X9170063Y-9386198D01*
X9170063Y-9386198D02*
X9179587Y-9376674D01*
X9179587Y-9376674D02*
X9198634Y-9367150D01*
X9198634Y-9367150D02*
X9227206Y-9367150D01*
X9227206Y-9367150D02*
X9246253Y-9376674D01*
X9246253Y-9376674D02*
X9255777Y-9386198D01*
X9255777Y-9386198D02*
X9265301Y-9405246D01*
X9265301Y-9405246D02*
X9265301Y-9462389D01*
X9265301Y-9462389D02*
X9255777Y-9481436D01*
X9255777Y-9481436D02*
X9246253Y-9490960D01*
X9246253Y-9490960D02*
X9227206Y-9500484D01*
X9227206Y-9500484D02*
X9198634Y-9500484D01*
X9379587Y-9500484D02*
X9360539Y-9490960D01*
X9360539Y-9490960D02*
X9351015Y-9471912D01*
X9351015Y-9471912D02*
X9351015Y-9300484D01*
X9531968Y-9490960D02*
X9512920Y-9500484D01*
X9512920Y-9500484D02*
X9474825Y-9500484D01*
X9474825Y-9500484D02*
X9455777Y-9490960D01*
X9455777Y-9490960D02*
X9446253Y-9471912D01*
X9446253Y-9471912D02*
X9446253Y-9395722D01*
X9446253Y-9395722D02*
X9455777Y-9376674D01*
X9455777Y-9376674D02*
X9474825Y-9367150D01*
X9474825Y-9367150D02*
X9512920Y-9367150D01*
X9512920Y-9367150D02*
X9531968Y-9376674D01*
X9531968Y-9376674D02*
X9541492Y-9395722D01*
X9541492Y-9395722D02*
X9541492Y-9414770D01*
X9541492Y-9414770D02*
X9446253Y-9433817D01*
X9617682Y-9490960D02*
X9636730Y-9500484D01*
X9636730Y-9500484D02*
X9674825Y-9500484D01*
X9674825Y-9500484D02*
X9693873Y-9490960D01*
X9693873Y-9490960D02*
X9703396Y-9471912D01*
X9703396Y-9471912D02*
X9703396Y-9462389D01*
X9703396Y-9462389D02*
X9693873Y-9443341D01*
X9693873Y-9443341D02*
X9674825Y-9433817D01*
X9674825Y-9433817D02*
X9646253Y-9433817D01*
X9646253Y-9433817D02*
X9627206Y-9424293D01*
X9627206Y-9424293D02*
X9617682Y-9405246D01*
X9617682Y-9405246D02*
X9617682Y-9395722D01*
X9617682Y-9395722D02*
X9627206Y-9376674D01*
X9627206Y-9376674D02*
X9646253Y-9367150D01*
X9646253Y-9367150D02*
X9674825Y-9367150D01*
X9674825Y-9367150D02*
X9693873Y-9376674D01*
X9770063Y-9576674D02*
X9779587Y-9567150D01*
X9779587Y-9567150D02*
X9798634Y-9538579D01*
X9798634Y-9538579D02*
X9808158Y-9519531D01*
X9808158Y-9519531D02*
X9817682Y-9490960D01*
X9817682Y-9490960D02*
X9827206Y-9443341D01*
X9827206Y-9443341D02*
X9827206Y-9405246D01*
X9827206Y-9405246D02*
X9817682Y-9357627D01*
X9817682Y-9357627D02*
X9808158Y-9329055D01*
X9808158Y-9329055D02*
X9798634Y-9310008D01*
X9798634Y-9310008D02*
X9779587Y-9281436D01*
X9779587Y-9281436D02*
X9770063Y-9271912D01*
D13*
X4944962Y-9622962D02*
X4944962Y-9723038D01*
X4894924Y-9673000D02*
X4995000Y-9673000D01*
D11*
X5360539Y-9764484D02*
X5246253Y-9764484D01*
X5303396Y-9764484D02*
X5303396Y-9564484D01*
X5303396Y-9564484D02*
X5284348Y-9593055D01*
X5284348Y-9593055D02*
X5265301Y-9612103D01*
X5265301Y-9612103D02*
X5246253Y-9621627D01*
X5446253Y-9745436D02*
X5455777Y-9754960D01*
X5455777Y-9754960D02*
X5446253Y-9764484D01*
X5446253Y-9764484D02*
X5436729Y-9754960D01*
X5436729Y-9754960D02*
X5446253Y-9745436D01*
X5446253Y-9745436D02*
X5446253Y-9764484D01*
X5579586Y-9564484D02*
X5598634Y-9564484D01*
X5598634Y-9564484D02*
X5617682Y-9574008D01*
X5617682Y-9574008D02*
X5627205Y-9583531D01*
X5627205Y-9583531D02*
X5636729Y-9602579D01*
X5636729Y-9602579D02*
X5646253Y-9640674D01*
X5646253Y-9640674D02*
X5646253Y-9688293D01*
X5646253Y-9688293D02*
X5636729Y-9726389D01*
X5636729Y-9726389D02*
X5627205Y-9745436D01*
X5627205Y-9745436D02*
X5617682Y-9754960D01*
X5617682Y-9754960D02*
X5598634Y-9764484D01*
X5598634Y-9764484D02*
X5579586Y-9764484D01*
X5579586Y-9764484D02*
X5560539Y-9754960D01*
X5560539Y-9754960D02*
X5551015Y-9745436D01*
X5551015Y-9745436D02*
X5541491Y-9726389D01*
X5541491Y-9726389D02*
X5531967Y-9688293D01*
X5531967Y-9688293D02*
X5531967Y-9640674D01*
X5531967Y-9640674D02*
X5541491Y-9602579D01*
X5541491Y-9602579D02*
X5551015Y-9583531D01*
X5551015Y-9583531D02*
X5560539Y-9574008D01*
X5560539Y-9574008D02*
X5579586Y-9564484D01*
X5770062Y-9564484D02*
X5789110Y-9564484D01*
X5789110Y-9564484D02*
X5808158Y-9574008D01*
X5808158Y-9574008D02*
X5817682Y-9583531D01*
X5817682Y-9583531D02*
X5827205Y-9602579D01*
X5827205Y-9602579D02*
X5836729Y-9640674D01*
X5836729Y-9640674D02*
X5836729Y-9688293D01*
X5836729Y-9688293D02*
X5827205Y-9726389D01*
X5827205Y-9726389D02*
X5817682Y-9745436D01*
X5817682Y-9745436D02*
X5808158Y-9754960D01*
X5808158Y-9754960D02*
X5789110Y-9764484D01*
X5789110Y-9764484D02*
X5770062Y-9764484D01*
X5770062Y-9764484D02*
X5751015Y-9754960D01*
X5751015Y-9754960D02*
X5741491Y-9745436D01*
X5741491Y-9745436D02*
X5731967Y-9726389D01*
X5731967Y-9726389D02*
X5722443Y-9688293D01*
X5722443Y-9688293D02*
X5722443Y-9640674D01*
X5722443Y-9640674D02*
X5731967Y-9602579D01*
X5731967Y-9602579D02*
X5741491Y-9583531D01*
X5741491Y-9583531D02*
X5751015Y-9574008D01*
X5751015Y-9574008D02*
X5770062Y-9564484D01*
X6027205Y-9764484D02*
X5912920Y-9764484D01*
X5970062Y-9764484D02*
X5970062Y-9564484D01*
X5970062Y-9564484D02*
X5951015Y-9593055D01*
X5951015Y-9593055D02*
X5931967Y-9612103D01*
X5931967Y-9612103D02*
X5912920Y-9621627D01*
X6112920Y-9764484D02*
X6112920Y-9631150D01*
X6112920Y-9650198D02*
X6122443Y-9640674D01*
X6122443Y-9640674D02*
X6141491Y-9631150D01*
X6141491Y-9631150D02*
X6170063Y-9631150D01*
X6170063Y-9631150D02*
X6189110Y-9640674D01*
X6189110Y-9640674D02*
X6198634Y-9659722D01*
X6198634Y-9659722D02*
X6198634Y-9764484D01*
X6198634Y-9659722D02*
X6208158Y-9640674D01*
X6208158Y-9640674D02*
X6227205Y-9631150D01*
X6227205Y-9631150D02*
X6255777Y-9631150D01*
X6255777Y-9631150D02*
X6274824Y-9640674D01*
X6274824Y-9640674D02*
X6284348Y-9659722D01*
X6284348Y-9659722D02*
X6284348Y-9764484D01*
X6379586Y-9764484D02*
X6379586Y-9631150D01*
X6379586Y-9650198D02*
X6389110Y-9640674D01*
X6389110Y-9640674D02*
X6408158Y-9631150D01*
X6408158Y-9631150D02*
X6436729Y-9631150D01*
X6436729Y-9631150D02*
X6455777Y-9640674D01*
X6455777Y-9640674D02*
X6465301Y-9659722D01*
X6465301Y-9659722D02*
X6465301Y-9764484D01*
X6465301Y-9659722D02*
X6474824Y-9640674D01*
X6474824Y-9640674D02*
X6493872Y-9631150D01*
X6493872Y-9631150D02*
X6522443Y-9631150D01*
X6522443Y-9631150D02*
X6541491Y-9640674D01*
X6541491Y-9640674D02*
X6551015Y-9659722D01*
X6551015Y-9659722D02*
X6551015Y-9764484D01*
X6941491Y-9554960D02*
X6770063Y-9812103D01*
X7198634Y-9564484D02*
X7217682Y-9564484D01*
X7217682Y-9564484D02*
X7236729Y-9574008D01*
X7236729Y-9574008D02*
X7246253Y-9583531D01*
X7246253Y-9583531D02*
X7255777Y-9602579D01*
X7255777Y-9602579D02*
X7265301Y-9640674D01*
X7265301Y-9640674D02*
X7265301Y-9688293D01*
X7265301Y-9688293D02*
X7255777Y-9726389D01*
X7255777Y-9726389D02*
X7246253Y-9745436D01*
X7246253Y-9745436D02*
X7236729Y-9754960D01*
X7236729Y-9754960D02*
X7217682Y-9764484D01*
X7217682Y-9764484D02*
X7198634Y-9764484D01*
X7198634Y-9764484D02*
X7179586Y-9754960D01*
X7179586Y-9754960D02*
X7170063Y-9745436D01*
X7170063Y-9745436D02*
X7160539Y-9726389D01*
X7160539Y-9726389D02*
X7151015Y-9688293D01*
X7151015Y-9688293D02*
X7151015Y-9640674D01*
X7151015Y-9640674D02*
X7160539Y-9602579D01*
X7160539Y-9602579D02*
X7170063Y-9583531D01*
X7170063Y-9583531D02*
X7179586Y-9574008D01*
X7179586Y-9574008D02*
X7198634Y-9564484D01*
X7351015Y-9745436D02*
X7360539Y-9754960D01*
X7360539Y-9754960D02*
X7351015Y-9764484D01*
X7351015Y-9764484D02*
X7341491Y-9754960D01*
X7341491Y-9754960D02*
X7351015Y-9745436D01*
X7351015Y-9745436D02*
X7351015Y-9764484D01*
X7484348Y-9564484D02*
X7503396Y-9564484D01*
X7503396Y-9564484D02*
X7522444Y-9574008D01*
X7522444Y-9574008D02*
X7531967Y-9583531D01*
X7531967Y-9583531D02*
X7541491Y-9602579D01*
X7541491Y-9602579D02*
X7551015Y-9640674D01*
X7551015Y-9640674D02*
X7551015Y-9688293D01*
X7551015Y-9688293D02*
X7541491Y-9726389D01*
X7541491Y-9726389D02*
X7531967Y-9745436D01*
X7531967Y-9745436D02*
X7522444Y-9754960D01*
X7522444Y-9754960D02*
X7503396Y-9764484D01*
X7503396Y-9764484D02*
X7484348Y-9764484D01*
X7484348Y-9764484D02*
X7465301Y-9754960D01*
X7465301Y-9754960D02*
X7455777Y-9745436D01*
X7455777Y-9745436D02*
X7446253Y-9726389D01*
X7446253Y-9726389D02*
X7436729Y-9688293D01*
X7436729Y-9688293D02*
X7436729Y-9640674D01*
X7436729Y-9640674D02*
X7446253Y-9602579D01*
X7446253Y-9602579D02*
X7455777Y-9583531D01*
X7455777Y-9583531D02*
X7465301Y-9574008D01*
X7465301Y-9574008D02*
X7484348Y-9564484D01*
X7617682Y-9564484D02*
X7741491Y-9564484D01*
X7741491Y-9564484D02*
X7674825Y-9640674D01*
X7674825Y-9640674D02*
X7703396Y-9640674D01*
X7703396Y-9640674D02*
X7722444Y-9650198D01*
X7722444Y-9650198D02*
X7731967Y-9659722D01*
X7731967Y-9659722D02*
X7741491Y-9678770D01*
X7741491Y-9678770D02*
X7741491Y-9726389D01*
X7741491Y-9726389D02*
X7731967Y-9745436D01*
X7731967Y-9745436D02*
X7722444Y-9754960D01*
X7722444Y-9754960D02*
X7703396Y-9764484D01*
X7703396Y-9764484D02*
X7646253Y-9764484D01*
X7646253Y-9764484D02*
X7627206Y-9754960D01*
X7627206Y-9754960D02*
X7617682Y-9745436D01*
X7836729Y-9764484D02*
X7874825Y-9764484D01*
X7874825Y-9764484D02*
X7893872Y-9754960D01*
X7893872Y-9754960D02*
X7903396Y-9745436D01*
X7903396Y-9745436D02*
X7922444Y-9716865D01*
X7922444Y-9716865D02*
X7931967Y-9678770D01*
X7931967Y-9678770D02*
X7931967Y-9602579D01*
X7931967Y-9602579D02*
X7922444Y-9583531D01*
X7922444Y-9583531D02*
X7912920Y-9574008D01*
X7912920Y-9574008D02*
X7893872Y-9564484D01*
X7893872Y-9564484D02*
X7855777Y-9564484D01*
X7855777Y-9564484D02*
X7836729Y-9574008D01*
X7836729Y-9574008D02*
X7827206Y-9583531D01*
X7827206Y-9583531D02*
X7817682Y-9602579D01*
X7817682Y-9602579D02*
X7817682Y-9650198D01*
X7817682Y-9650198D02*
X7827206Y-9669246D01*
X7827206Y-9669246D02*
X7836729Y-9678770D01*
X7836729Y-9678770D02*
X7855777Y-9688293D01*
X7855777Y-9688293D02*
X7893872Y-9688293D01*
X7893872Y-9688293D02*
X7912920Y-9678770D01*
X7912920Y-9678770D02*
X7922444Y-9669246D01*
X7922444Y-9669246D02*
X7931967Y-9650198D01*
X8103396Y-9631150D02*
X8103396Y-9764484D01*
X8055777Y-9554960D02*
X8008158Y-9697817D01*
X8008158Y-9697817D02*
X8131967Y-9697817D01*
X8198634Y-9564484D02*
X8198634Y-9602579D01*
X8274825Y-9564484D02*
X8274825Y-9602579D01*
X8570063Y-9840674D02*
X8560539Y-9831150D01*
X8560539Y-9831150D02*
X8541491Y-9802579D01*
X8541491Y-9802579D02*
X8531968Y-9783531D01*
X8531968Y-9783531D02*
X8522444Y-9754960D01*
X8522444Y-9754960D02*
X8512920Y-9707341D01*
X8512920Y-9707341D02*
X8512920Y-9669246D01*
X8512920Y-9669246D02*
X8522444Y-9621627D01*
X8522444Y-9621627D02*
X8531968Y-9593055D01*
X8531968Y-9593055D02*
X8541491Y-9574008D01*
X8541491Y-9574008D02*
X8560539Y-9545436D01*
X8560539Y-9545436D02*
X8570063Y-9535912D01*
X8751015Y-9764484D02*
X8636730Y-9764484D01*
X8693872Y-9764484D02*
X8693872Y-9564484D01*
X8693872Y-9564484D02*
X8674825Y-9593055D01*
X8674825Y-9593055D02*
X8655777Y-9612103D01*
X8655777Y-9612103D02*
X8636730Y-9621627D01*
X8827206Y-9583531D02*
X8836730Y-9574008D01*
X8836730Y-9574008D02*
X8855777Y-9564484D01*
X8855777Y-9564484D02*
X8903396Y-9564484D01*
X8903396Y-9564484D02*
X8922444Y-9574008D01*
X8922444Y-9574008D02*
X8931968Y-9583531D01*
X8931968Y-9583531D02*
X8941491Y-9602579D01*
X8941491Y-9602579D02*
X8941491Y-9621627D01*
X8941491Y-9621627D02*
X8931968Y-9650198D01*
X8931968Y-9650198D02*
X8817682Y-9764484D01*
X8817682Y-9764484D02*
X8941491Y-9764484D01*
X9179587Y-9764484D02*
X9179587Y-9564484D01*
X9265301Y-9764484D02*
X9265301Y-9659722D01*
X9265301Y-9659722D02*
X9255777Y-9640674D01*
X9255777Y-9640674D02*
X9236730Y-9631150D01*
X9236730Y-9631150D02*
X9208158Y-9631150D01*
X9208158Y-9631150D02*
X9189111Y-9640674D01*
X9189111Y-9640674D02*
X9179587Y-9650198D01*
X9389111Y-9764484D02*
X9370063Y-9754960D01*
X9370063Y-9754960D02*
X9360539Y-9745436D01*
X9360539Y-9745436D02*
X9351015Y-9726389D01*
X9351015Y-9726389D02*
X9351015Y-9669246D01*
X9351015Y-9669246D02*
X9360539Y-9650198D01*
X9360539Y-9650198D02*
X9370063Y-9640674D01*
X9370063Y-9640674D02*
X9389111Y-9631150D01*
X9389111Y-9631150D02*
X9417682Y-9631150D01*
X9417682Y-9631150D02*
X9436730Y-9640674D01*
X9436730Y-9640674D02*
X9446253Y-9650198D01*
X9446253Y-9650198D02*
X9455777Y-9669246D01*
X9455777Y-9669246D02*
X9455777Y-9726389D01*
X9455777Y-9726389D02*
X9446253Y-9745436D01*
X9446253Y-9745436D02*
X9436730Y-9754960D01*
X9436730Y-9754960D02*
X9417682Y-9764484D01*
X9417682Y-9764484D02*
X9389111Y-9764484D01*
X9570063Y-9764484D02*
X9551015Y-9754960D01*
X9551015Y-9754960D02*
X9541492Y-9735912D01*
X9541492Y-9735912D02*
X9541492Y-9564484D01*
X9722444Y-9754960D02*
X9703396Y-9764484D01*
X9703396Y-9764484D02*
X9665301Y-9764484D01*
X9665301Y-9764484D02*
X9646253Y-9754960D01*
X9646253Y-9754960D02*
X9636730Y-9735912D01*
X9636730Y-9735912D02*
X9636730Y-9659722D01*
X9636730Y-9659722D02*
X9646253Y-9640674D01*
X9646253Y-9640674D02*
X9665301Y-9631150D01*
X9665301Y-9631150D02*
X9703396Y-9631150D01*
X9703396Y-9631150D02*
X9722444Y-9640674D01*
X9722444Y-9640674D02*
X9731968Y-9659722D01*
X9731968Y-9659722D02*
X9731968Y-9678770D01*
X9731968Y-9678770D02*
X9636730Y-9697817D01*
X9808158Y-9754960D02*
X9827206Y-9764484D01*
X9827206Y-9764484D02*
X9865301Y-9764484D01*
X9865301Y-9764484D02*
X9884349Y-9754960D01*
X9884349Y-9754960D02*
X9893873Y-9735912D01*
X9893873Y-9735912D02*
X9893873Y-9726389D01*
X9893873Y-9726389D02*
X9884349Y-9707341D01*
X9884349Y-9707341D02*
X9865301Y-9697817D01*
X9865301Y-9697817D02*
X9836730Y-9697817D01*
X9836730Y-9697817D02*
X9817682Y-9688293D01*
X9817682Y-9688293D02*
X9808158Y-9669246D01*
X9808158Y-9669246D02*
X9808158Y-9659722D01*
X9808158Y-9659722D02*
X9817682Y-9640674D01*
X9817682Y-9640674D02*
X9836730Y-9631150D01*
X9836730Y-9631150D02*
X9865301Y-9631150D01*
X9865301Y-9631150D02*
X9884349Y-9640674D01*
X9960539Y-9840674D02*
X9970063Y-9831150D01*
X9970063Y-9831150D02*
X9989111Y-9802579D01*
X9989111Y-9802579D02*
X9998634Y-9783531D01*
X9998634Y-9783531D02*
X10008158Y-9754960D01*
X10008158Y-9754960D02*
X10017682Y-9707341D01*
X10017682Y-9707341D02*
X10017682Y-9669246D01*
X10017682Y-9669246D02*
X10008158Y-9621627D01*
X10008158Y-9621627D02*
X9998634Y-9593055D01*
X9998634Y-9593055D02*
X9989111Y-9574008D01*
X9989111Y-9574008D02*
X9970063Y-9545436D01*
X9970063Y-9545436D02*
X9960539Y-9535912D01*
X4965711Y-10007711D02*
X4965711Y-9866289D01*
X4824289Y-9866289D01*
X4824289Y-10007711D01*
X4965711Y-10007711D01*
X5246253Y-9847531D02*
X5255777Y-9838008D01*
X5255777Y-9838008D02*
X5274824Y-9828484D01*
X5274824Y-9828484D02*
X5322444Y-9828484D01*
X5322444Y-9828484D02*
X5341491Y-9838008D01*
X5341491Y-9838008D02*
X5351015Y-9847531D01*
X5351015Y-9847531D02*
X5360539Y-9866579D01*
X5360539Y-9866579D02*
X5360539Y-9885627D01*
X5360539Y-9885627D02*
X5351015Y-9914198D01*
X5351015Y-9914198D02*
X5236729Y-10028484D01*
X5236729Y-10028484D02*
X5360539Y-10028484D01*
X5446253Y-10009436D02*
X5455777Y-10018960D01*
X5455777Y-10018960D02*
X5446253Y-10028484D01*
X5446253Y-10028484D02*
X5436729Y-10018960D01*
X5436729Y-10018960D02*
X5446253Y-10009436D01*
X5446253Y-10009436D02*
X5446253Y-10028484D01*
X5531967Y-9847531D02*
X5541491Y-9838008D01*
X5541491Y-9838008D02*
X5560539Y-9828484D01*
X5560539Y-9828484D02*
X5608158Y-9828484D01*
X5608158Y-9828484D02*
X5627205Y-9838008D01*
X5627205Y-9838008D02*
X5636729Y-9847531D01*
X5636729Y-9847531D02*
X5646253Y-9866579D01*
X5646253Y-9866579D02*
X5646253Y-9885627D01*
X5646253Y-9885627D02*
X5636729Y-9914198D01*
X5636729Y-9914198D02*
X5522444Y-10028484D01*
X5522444Y-10028484D02*
X5646253Y-10028484D01*
X5770062Y-9828484D02*
X5789110Y-9828484D01*
X5789110Y-9828484D02*
X5808158Y-9838008D01*
X5808158Y-9838008D02*
X5817682Y-9847531D01*
X5817682Y-9847531D02*
X5827205Y-9866579D01*
X5827205Y-9866579D02*
X5836729Y-9904674D01*
X5836729Y-9904674D02*
X5836729Y-9952293D01*
X5836729Y-9952293D02*
X5827205Y-9990389D01*
X5827205Y-9990389D02*
X5817682Y-10009436D01*
X5817682Y-10009436D02*
X5808158Y-10018960D01*
X5808158Y-10018960D02*
X5789110Y-10028484D01*
X5789110Y-10028484D02*
X5770062Y-10028484D01*
X5770062Y-10028484D02*
X5751015Y-10018960D01*
X5751015Y-10018960D02*
X5741491Y-10009436D01*
X5741491Y-10009436D02*
X5731967Y-9990389D01*
X5731967Y-9990389D02*
X5722443Y-9952293D01*
X5722443Y-9952293D02*
X5722443Y-9904674D01*
X5722443Y-9904674D02*
X5731967Y-9866579D01*
X5731967Y-9866579D02*
X5741491Y-9847531D01*
X5741491Y-9847531D02*
X5751015Y-9838008D01*
X5751015Y-9838008D02*
X5770062Y-9828484D01*
X5960539Y-9828484D02*
X5979586Y-9828484D01*
X5979586Y-9828484D02*
X5998634Y-9838008D01*
X5998634Y-9838008D02*
X6008158Y-9847531D01*
X6008158Y-9847531D02*
X6017682Y-9866579D01*
X6017682Y-9866579D02*
X6027205Y-9904674D01*
X6027205Y-9904674D02*
X6027205Y-9952293D01*
X6027205Y-9952293D02*
X6017682Y-9990389D01*
X6017682Y-9990389D02*
X6008158Y-10009436D01*
X6008158Y-10009436D02*
X5998634Y-10018960D01*
X5998634Y-10018960D02*
X5979586Y-10028484D01*
X5979586Y-10028484D02*
X5960539Y-10028484D01*
X5960539Y-10028484D02*
X5941491Y-10018960D01*
X5941491Y-10018960D02*
X5931967Y-10009436D01*
X5931967Y-10009436D02*
X5922443Y-9990389D01*
X5922443Y-9990389D02*
X5912920Y-9952293D01*
X5912920Y-9952293D02*
X5912920Y-9904674D01*
X5912920Y-9904674D02*
X5922443Y-9866579D01*
X5922443Y-9866579D02*
X5931967Y-9847531D01*
X5931967Y-9847531D02*
X5941491Y-9838008D01*
X5941491Y-9838008D02*
X5960539Y-9828484D01*
X6112920Y-10028484D02*
X6112920Y-9895150D01*
X6112920Y-9914198D02*
X6122443Y-9904674D01*
X6122443Y-9904674D02*
X6141491Y-9895150D01*
X6141491Y-9895150D02*
X6170063Y-9895150D01*
X6170063Y-9895150D02*
X6189110Y-9904674D01*
X6189110Y-9904674D02*
X6198634Y-9923722D01*
X6198634Y-9923722D02*
X6198634Y-10028484D01*
X6198634Y-9923722D02*
X6208158Y-9904674D01*
X6208158Y-9904674D02*
X6227205Y-9895150D01*
X6227205Y-9895150D02*
X6255777Y-9895150D01*
X6255777Y-9895150D02*
X6274824Y-9904674D01*
X6274824Y-9904674D02*
X6284348Y-9923722D01*
X6284348Y-9923722D02*
X6284348Y-10028484D01*
X6379586Y-10028484D02*
X6379586Y-9895150D01*
X6379586Y-9914198D02*
X6389110Y-9904674D01*
X6389110Y-9904674D02*
X6408158Y-9895150D01*
X6408158Y-9895150D02*
X6436729Y-9895150D01*
X6436729Y-9895150D02*
X6455777Y-9904674D01*
X6455777Y-9904674D02*
X6465301Y-9923722D01*
X6465301Y-9923722D02*
X6465301Y-10028484D01*
X6465301Y-9923722D02*
X6474824Y-9904674D01*
X6474824Y-9904674D02*
X6493872Y-9895150D01*
X6493872Y-9895150D02*
X6522443Y-9895150D01*
X6522443Y-9895150D02*
X6541491Y-9904674D01*
X6541491Y-9904674D02*
X6551015Y-9923722D01*
X6551015Y-9923722D02*
X6551015Y-10028484D01*
X6941491Y-9818960D02*
X6770063Y-10076103D01*
X7198634Y-9828484D02*
X7217682Y-9828484D01*
X7217682Y-9828484D02*
X7236729Y-9838008D01*
X7236729Y-9838008D02*
X7246253Y-9847531D01*
X7246253Y-9847531D02*
X7255777Y-9866579D01*
X7255777Y-9866579D02*
X7265301Y-9904674D01*
X7265301Y-9904674D02*
X7265301Y-9952293D01*
X7265301Y-9952293D02*
X7255777Y-9990389D01*
X7255777Y-9990389D02*
X7246253Y-10009436D01*
X7246253Y-10009436D02*
X7236729Y-10018960D01*
X7236729Y-10018960D02*
X7217682Y-10028484D01*
X7217682Y-10028484D02*
X7198634Y-10028484D01*
X7198634Y-10028484D02*
X7179586Y-10018960D01*
X7179586Y-10018960D02*
X7170063Y-10009436D01*
X7170063Y-10009436D02*
X7160539Y-9990389D01*
X7160539Y-9990389D02*
X7151015Y-9952293D01*
X7151015Y-9952293D02*
X7151015Y-9904674D01*
X7151015Y-9904674D02*
X7160539Y-9866579D01*
X7160539Y-9866579D02*
X7170063Y-9847531D01*
X7170063Y-9847531D02*
X7179586Y-9838008D01*
X7179586Y-9838008D02*
X7198634Y-9828484D01*
X7351015Y-10009436D02*
X7360539Y-10018960D01*
X7360539Y-10018960D02*
X7351015Y-10028484D01*
X7351015Y-10028484D02*
X7341491Y-10018960D01*
X7341491Y-10018960D02*
X7351015Y-10009436D01*
X7351015Y-10009436D02*
X7351015Y-10028484D01*
X7484348Y-9828484D02*
X7503396Y-9828484D01*
X7503396Y-9828484D02*
X7522444Y-9838008D01*
X7522444Y-9838008D02*
X7531967Y-9847531D01*
X7531967Y-9847531D02*
X7541491Y-9866579D01*
X7541491Y-9866579D02*
X7551015Y-9904674D01*
X7551015Y-9904674D02*
X7551015Y-9952293D01*
X7551015Y-9952293D02*
X7541491Y-9990389D01*
X7541491Y-9990389D02*
X7531967Y-10009436D01*
X7531967Y-10009436D02*
X7522444Y-10018960D01*
X7522444Y-10018960D02*
X7503396Y-10028484D01*
X7503396Y-10028484D02*
X7484348Y-10028484D01*
X7484348Y-10028484D02*
X7465301Y-10018960D01*
X7465301Y-10018960D02*
X7455777Y-10009436D01*
X7455777Y-10009436D02*
X7446253Y-9990389D01*
X7446253Y-9990389D02*
X7436729Y-9952293D01*
X7436729Y-9952293D02*
X7436729Y-9904674D01*
X7436729Y-9904674D02*
X7446253Y-9866579D01*
X7446253Y-9866579D02*
X7455777Y-9847531D01*
X7455777Y-9847531D02*
X7465301Y-9838008D01*
X7465301Y-9838008D02*
X7484348Y-9828484D01*
X7665301Y-9914198D02*
X7646253Y-9904674D01*
X7646253Y-9904674D02*
X7636729Y-9895150D01*
X7636729Y-9895150D02*
X7627206Y-9876103D01*
X7627206Y-9876103D02*
X7627206Y-9866579D01*
X7627206Y-9866579D02*
X7636729Y-9847531D01*
X7636729Y-9847531D02*
X7646253Y-9838008D01*
X7646253Y-9838008D02*
X7665301Y-9828484D01*
X7665301Y-9828484D02*
X7703396Y-9828484D01*
X7703396Y-9828484D02*
X7722444Y-9838008D01*
X7722444Y-9838008D02*
X7731967Y-9847531D01*
X7731967Y-9847531D02*
X7741491Y-9866579D01*
X7741491Y-9866579D02*
X7741491Y-9876103D01*
X7741491Y-9876103D02*
X7731967Y-9895150D01*
X7731967Y-9895150D02*
X7722444Y-9904674D01*
X7722444Y-9904674D02*
X7703396Y-9914198D01*
X7703396Y-9914198D02*
X7665301Y-9914198D01*
X7665301Y-9914198D02*
X7646253Y-9923722D01*
X7646253Y-9923722D02*
X7636729Y-9933246D01*
X7636729Y-9933246D02*
X7627206Y-9952293D01*
X7627206Y-9952293D02*
X7627206Y-9990389D01*
X7627206Y-9990389D02*
X7636729Y-10009436D01*
X7636729Y-10009436D02*
X7646253Y-10018960D01*
X7646253Y-10018960D02*
X7665301Y-10028484D01*
X7665301Y-10028484D02*
X7703396Y-10028484D01*
X7703396Y-10028484D02*
X7722444Y-10018960D01*
X7722444Y-10018960D02*
X7731967Y-10009436D01*
X7731967Y-10009436D02*
X7741491Y-9990389D01*
X7741491Y-9990389D02*
X7741491Y-9952293D01*
X7741491Y-9952293D02*
X7731967Y-9933246D01*
X7731967Y-9933246D02*
X7722444Y-9923722D01*
X7722444Y-9923722D02*
X7703396Y-9914198D01*
X7912920Y-9828484D02*
X7874825Y-9828484D01*
X7874825Y-9828484D02*
X7855777Y-9838008D01*
X7855777Y-9838008D02*
X7846253Y-9847531D01*
X7846253Y-9847531D02*
X7827206Y-9876103D01*
X7827206Y-9876103D02*
X7817682Y-9914198D01*
X7817682Y-9914198D02*
X7817682Y-9990389D01*
X7817682Y-9990389D02*
X7827206Y-10009436D01*
X7827206Y-10009436D02*
X7836729Y-10018960D01*
X7836729Y-10018960D02*
X7855777Y-10028484D01*
X7855777Y-10028484D02*
X7893872Y-10028484D01*
X7893872Y-10028484D02*
X7912920Y-10018960D01*
X7912920Y-10018960D02*
X7922444Y-10009436D01*
X7922444Y-10009436D02*
X7931967Y-9990389D01*
X7931967Y-9990389D02*
X7931967Y-9942770D01*
X7931967Y-9942770D02*
X7922444Y-9923722D01*
X7922444Y-9923722D02*
X7912920Y-9914198D01*
X7912920Y-9914198D02*
X7893872Y-9904674D01*
X7893872Y-9904674D02*
X7855777Y-9904674D01*
X7855777Y-9904674D02*
X7836729Y-9914198D01*
X7836729Y-9914198D02*
X7827206Y-9923722D01*
X7827206Y-9923722D02*
X7817682Y-9942770D01*
X8103396Y-9828484D02*
X8065301Y-9828484D01*
X8065301Y-9828484D02*
X8046253Y-9838008D01*
X8046253Y-9838008D02*
X8036729Y-9847531D01*
X8036729Y-9847531D02*
X8017682Y-9876103D01*
X8017682Y-9876103D02*
X8008158Y-9914198D01*
X8008158Y-9914198D02*
X8008158Y-9990389D01*
X8008158Y-9990389D02*
X8017682Y-10009436D01*
X8017682Y-10009436D02*
X8027206Y-10018960D01*
X8027206Y-10018960D02*
X8046253Y-10028484D01*
X8046253Y-10028484D02*
X8084348Y-10028484D01*
X8084348Y-10028484D02*
X8103396Y-10018960D01*
X8103396Y-10018960D02*
X8112920Y-10009436D01*
X8112920Y-10009436D02*
X8122444Y-9990389D01*
X8122444Y-9990389D02*
X8122444Y-9942770D01*
X8122444Y-9942770D02*
X8112920Y-9923722D01*
X8112920Y-9923722D02*
X8103396Y-9914198D01*
X8103396Y-9914198D02*
X8084348Y-9904674D01*
X8084348Y-9904674D02*
X8046253Y-9904674D01*
X8046253Y-9904674D02*
X8027206Y-9914198D01*
X8027206Y-9914198D02*
X8017682Y-9923722D01*
X8017682Y-9923722D02*
X8008158Y-9942770D01*
X8198634Y-9828484D02*
X8198634Y-9866579D01*
X8274825Y-9828484D02*
X8274825Y-9866579D01*
X8570063Y-10104674D02*
X8560539Y-10095150D01*
X8560539Y-10095150D02*
X8541491Y-10066579D01*
X8541491Y-10066579D02*
X8531968Y-10047531D01*
X8531968Y-10047531D02*
X8522444Y-10018960D01*
X8522444Y-10018960D02*
X8512920Y-9971341D01*
X8512920Y-9971341D02*
X8512920Y-9933246D01*
X8512920Y-9933246D02*
X8522444Y-9885627D01*
X8522444Y-9885627D02*
X8531968Y-9857055D01*
X8531968Y-9857055D02*
X8541491Y-9838008D01*
X8541491Y-9838008D02*
X8560539Y-9809436D01*
X8560539Y-9809436D02*
X8570063Y-9799912D01*
X8751015Y-10028484D02*
X8636730Y-10028484D01*
X8693872Y-10028484D02*
X8693872Y-9828484D01*
X8693872Y-9828484D02*
X8674825Y-9857055D01*
X8674825Y-9857055D02*
X8655777Y-9876103D01*
X8655777Y-9876103D02*
X8636730Y-9885627D01*
X8827206Y-9847531D02*
X8836730Y-9838008D01*
X8836730Y-9838008D02*
X8855777Y-9828484D01*
X8855777Y-9828484D02*
X8903396Y-9828484D01*
X8903396Y-9828484D02*
X8922444Y-9838008D01*
X8922444Y-9838008D02*
X8931968Y-9847531D01*
X8931968Y-9847531D02*
X8941491Y-9866579D01*
X8941491Y-9866579D02*
X8941491Y-9885627D01*
X8941491Y-9885627D02*
X8931968Y-9914198D01*
X8931968Y-9914198D02*
X8817682Y-10028484D01*
X8817682Y-10028484D02*
X8941491Y-10028484D01*
X9179587Y-10028484D02*
X9179587Y-9828484D01*
X9265301Y-10028484D02*
X9265301Y-9923722D01*
X9265301Y-9923722D02*
X9255777Y-9904674D01*
X9255777Y-9904674D02*
X9236730Y-9895150D01*
X9236730Y-9895150D02*
X9208158Y-9895150D01*
X9208158Y-9895150D02*
X9189111Y-9904674D01*
X9189111Y-9904674D02*
X9179587Y-9914198D01*
X9389111Y-10028484D02*
X9370063Y-10018960D01*
X9370063Y-10018960D02*
X9360539Y-10009436D01*
X9360539Y-10009436D02*
X9351015Y-9990389D01*
X9351015Y-9990389D02*
X9351015Y-9933246D01*
X9351015Y-9933246D02*
X9360539Y-9914198D01*
X9360539Y-9914198D02*
X9370063Y-9904674D01*
X9370063Y-9904674D02*
X9389111Y-9895150D01*
X9389111Y-9895150D02*
X9417682Y-9895150D01*
X9417682Y-9895150D02*
X9436730Y-9904674D01*
X9436730Y-9904674D02*
X9446253Y-9914198D01*
X9446253Y-9914198D02*
X9455777Y-9933246D01*
X9455777Y-9933246D02*
X9455777Y-9990389D01*
X9455777Y-9990389D02*
X9446253Y-10009436D01*
X9446253Y-10009436D02*
X9436730Y-10018960D01*
X9436730Y-10018960D02*
X9417682Y-10028484D01*
X9417682Y-10028484D02*
X9389111Y-10028484D01*
X9570063Y-10028484D02*
X9551015Y-10018960D01*
X9551015Y-10018960D02*
X9541492Y-9999912D01*
X9541492Y-9999912D02*
X9541492Y-9828484D01*
X9722444Y-10018960D02*
X9703396Y-10028484D01*
X9703396Y-10028484D02*
X9665301Y-10028484D01*
X9665301Y-10028484D02*
X9646253Y-10018960D01*
X9646253Y-10018960D02*
X9636730Y-9999912D01*
X9636730Y-9999912D02*
X9636730Y-9923722D01*
X9636730Y-9923722D02*
X9646253Y-9904674D01*
X9646253Y-9904674D02*
X9665301Y-9895150D01*
X9665301Y-9895150D02*
X9703396Y-9895150D01*
X9703396Y-9895150D02*
X9722444Y-9904674D01*
X9722444Y-9904674D02*
X9731968Y-9923722D01*
X9731968Y-9923722D02*
X9731968Y-9942770D01*
X9731968Y-9942770D02*
X9636730Y-9961817D01*
X9808158Y-10018960D02*
X9827206Y-10028484D01*
X9827206Y-10028484D02*
X9865301Y-10028484D01*
X9865301Y-10028484D02*
X9884349Y-10018960D01*
X9884349Y-10018960D02*
X9893873Y-9999912D01*
X9893873Y-9999912D02*
X9893873Y-9990389D01*
X9893873Y-9990389D02*
X9884349Y-9971341D01*
X9884349Y-9971341D02*
X9865301Y-9961817D01*
X9865301Y-9961817D02*
X9836730Y-9961817D01*
X9836730Y-9961817D02*
X9817682Y-9952293D01*
X9817682Y-9952293D02*
X9808158Y-9933246D01*
X9808158Y-9933246D02*
X9808158Y-9923722D01*
X9808158Y-9923722D02*
X9817682Y-9904674D01*
X9817682Y-9904674D02*
X9836730Y-9895150D01*
X9836730Y-9895150D02*
X9865301Y-9895150D01*
X9865301Y-9895150D02*
X9884349Y-9904674D01*
X9960539Y-10104674D02*
X9970063Y-10095150D01*
X9970063Y-10095150D02*
X9989111Y-10066579D01*
X9989111Y-10066579D02*
X9998634Y-10047531D01*
X9998634Y-10047531D02*
X10008158Y-10018960D01*
X10008158Y-10018960D02*
X10017682Y-9971341D01*
X10017682Y-9971341D02*
X10017682Y-9933246D01*
X10017682Y-9933246D02*
X10008158Y-9885627D01*
X10008158Y-9885627D02*
X9998634Y-9857055D01*
X9998634Y-9857055D02*
X9989111Y-9838008D01*
X9989111Y-9838008D02*
X9970063Y-9809436D01*
X9970063Y-9809436D02*
X9960539Y-9799912D01*
M02*
