%TF.GenerationSoftware,KiCad,Pcbnew,7.0.8*%
%TF.CreationDate,2024-02-13T18:25:42+01:00*%
%TF.ProjectId,BlankingRelay_Top1,426c616e-6b69-46e6-9752-656c61795f54,rev?*%
%TF.SameCoordinates,Original*%
%TF.FileFunction,Copper,L2,Bot*%
%TF.FilePolarity,Positive*%
%FSLAX46Y46*%
G04 Gerber Fmt 4.6, Leading zero omitted, Abs format (unit mm)*
G04 Created by KiCad (PCBNEW 7.0.8) date 2024-02-13 18:25:42*
%MOMM*%
%LPD*%
G01*
G04 APERTURE LIST*
G04 Aperture macros list*
%AMRoundRect*
0 Rectangle with rounded corners*
0 $1 Rounding radius*
0 $2 $3 $4 $5 $6 $7 $8 $9 X,Y pos of 4 corners*
0 Add a 4 corners polygon primitive as box body*
4,1,4,$2,$3,$4,$5,$6,$7,$8,$9,$2,$3,0*
0 Add four circle primitives for the rounded corners*
1,1,$1+$1,$2,$3*
1,1,$1+$1,$4,$5*
1,1,$1+$1,$6,$7*
1,1,$1+$1,$8,$9*
0 Add four rect primitives between the rounded corners*
20,1,$1+$1,$2,$3,$4,$5,0*
20,1,$1+$1,$4,$5,$6,$7,0*
20,1,$1+$1,$6,$7,$8,$9,0*
20,1,$1+$1,$8,$9,$2,$3,0*%
G04 Aperture macros list end*
%TA.AperFunction,ComponentPad*%
%ADD10RoundRect,0.250000X-0.600000X-0.725000X0.600000X-0.725000X0.600000X0.725000X-0.600000X0.725000X0*%
%TD*%
%TA.AperFunction,ComponentPad*%
%ADD11O,1.700000X1.950000*%
%TD*%
%TA.AperFunction,ComponentPad*%
%ADD12RoundRect,0.250000X-0.600000X-0.750000X0.600000X-0.750000X0.600000X0.750000X-0.600000X0.750000X0*%
%TD*%
%TA.AperFunction,ComponentPad*%
%ADD13O,1.700000X2.000000*%
%TD*%
%TA.AperFunction,ComponentPad*%
%ADD14O,1.600200X2.499360*%
%TD*%
%TA.AperFunction,ComponentPad*%
%ADD15O,3.500120X7.000240*%
%TD*%
G04 APERTURE END LIST*
D10*
%TO.P,J10,1,Pin_1*%
%TO.N,Blanking_Out1*%
X140000000Y-59500000D03*
D11*
%TO.P,J10,2,Pin_2*%
%TO.N,Blanking_Out2*%
X142500000Y-59500000D03*
%TO.P,J10,3,Pin_3*%
%TO.N,Blanking_Out3*%
X145000000Y-59500000D03*
%TO.P,J10,4,Pin_4*%
%TO.N,Blanking_Out4*%
X147500000Y-59500000D03*
%TO.P,J10,5,Pin_5*%
%TO.N,Blanking_Out5*%
X150000000Y-59500000D03*
%TO.P,J10,6,Pin_6*%
%TO.N,Blanking_Out6*%
X152500000Y-59500000D03*
%TD*%
D12*
%TO.P,J11,1,Pin_1*%
%TO.N,5V*%
X70000000Y-59500000D03*
D13*
%TO.P,J11,2,Pin_2*%
%TO.N,GNDREF*%
X72500000Y-59500000D03*
%TD*%
D10*
%TO.P,J8,1,Pin_1*%
%TO.N,Blanking_Out1*%
X100000000Y-59500000D03*
D11*
%TO.P,J8,2,Pin_2*%
%TO.N,Blanking_Out2*%
X102500000Y-59500000D03*
%TO.P,J8,3,Pin_3*%
%TO.N,Blanking_Out3*%
X105000000Y-59500000D03*
%TO.P,J8,4,Pin_4*%
%TO.N,Blanking_Out4*%
X107500000Y-59500000D03*
%TO.P,J8,5,Pin_5*%
%TO.N,Blanking_Out5*%
X110000000Y-59500000D03*
%TO.P,J8,6,Pin_6*%
%TO.N,Blanking_Out6*%
X112500000Y-59500000D03*
%TD*%
D10*
%TO.P,J9,1,Pin_1*%
%TO.N,Blanking_Out1*%
X120000000Y-59500000D03*
D11*
%TO.P,J9,2,Pin_2*%
%TO.N,Blanking_Out2*%
X122500000Y-59500000D03*
%TO.P,J9,3,Pin_3*%
%TO.N,Blanking_Out3*%
X125000000Y-59500000D03*
%TO.P,J9,4,Pin_4*%
%TO.N,Blanking_Out4*%
X127500000Y-59500000D03*
%TO.P,J9,5,Pin_5*%
%TO.N,Blanking_Out5*%
X130000000Y-59500000D03*
%TO.P,J9,6,Pin_6*%
%TO.N,Blanking_Out6*%
X132500000Y-59500000D03*
%TD*%
D10*
%TO.P,J1,1,Pin_1*%
%TO.N,Blanking_Out1*%
X80000000Y-59500000D03*
D11*
%TO.P,J1,2,Pin_2*%
%TO.N,Blanking_Out2*%
X82500000Y-59500000D03*
%TO.P,J1,3,Pin_3*%
%TO.N,Blanking_Out3*%
X85000000Y-59500000D03*
%TO.P,J1,4,Pin_4*%
%TO.N,Blanking_Out4*%
X87500000Y-59500000D03*
%TO.P,J1,5,Pin_5*%
%TO.N,Blanking_Out5*%
X90000000Y-59500000D03*
%TO.P,J1,6,Pin_6*%
%TO.N,Blanking_Out6*%
X92500000Y-59500000D03*
%TD*%
D14*
%TO.P,J6,1,In*%
%TO.N,Blanking_Out5*%
X139800000Y-72698740D03*
D15*
%TO.P,J6,2,Ext*%
%TO.N,GNDREF*%
X144897780Y-76963400D03*
D14*
X142299360Y-72698740D03*
D15*
X134699680Y-76963400D03*
%TD*%
D14*
%TO.P,J7,1,In*%
%TO.N,Blanking_Out6*%
X159800000Y-72698740D03*
D15*
%TO.P,J7,2,Ext*%
%TO.N,GNDREF*%
X164897780Y-76963400D03*
D14*
X162299360Y-72698740D03*
D15*
X154699680Y-76963400D03*
%TD*%
D14*
%TO.P,J5,1,In*%
%TO.N,Blanking_Out4*%
X119800000Y-72698740D03*
D15*
%TO.P,J5,2,Ext*%
%TO.N,GNDREF*%
X124897780Y-76963400D03*
D14*
X122299360Y-72698740D03*
D15*
X114699680Y-76963400D03*
%TD*%
D14*
%TO.P,J3,1,In*%
%TO.N,Blanking_Out2*%
X79800000Y-72698740D03*
D15*
%TO.P,J3,2,Ext*%
%TO.N,GNDREF*%
X84897780Y-76963400D03*
D14*
X82299360Y-72698740D03*
D15*
X74699680Y-76963400D03*
%TD*%
D14*
%TO.P,J4,1,In*%
%TO.N,Blanking_Out3*%
X99800000Y-72698740D03*
D15*
%TO.P,J4,2,Ext*%
%TO.N,GNDREF*%
X104897780Y-76963400D03*
D14*
X102299360Y-72698740D03*
D15*
X94699680Y-76963400D03*
%TD*%
D14*
%TO.P,J2,1,In*%
%TO.N,Blanking_Out1*%
X59800000Y-72698740D03*
D15*
%TO.P,J2,2,Ext*%
%TO.N,GNDREF*%
X64897780Y-76963400D03*
D14*
X62299360Y-72698740D03*
D15*
X54699680Y-76963400D03*
%TD*%
%TA.AperFunction,Conductor*%
%TO.N,GNDREF*%
G36*
X169941621Y-55020502D02*
G01*
X169988114Y-55074158D01*
X169999500Y-55126500D01*
X169999500Y-84873500D01*
X169979498Y-84941621D01*
X169925842Y-84988114D01*
X169873500Y-84999500D01*
X50126500Y-84999500D01*
X50058379Y-84979498D01*
X50011886Y-84925842D01*
X50000500Y-84873500D01*
X50000500Y-78788953D01*
X52441620Y-78788953D01*
X52456759Y-79015103D01*
X52456760Y-79015112D01*
X52516975Y-79311360D01*
X52516977Y-79311368D01*
X52616142Y-79596950D01*
X52616146Y-79596959D01*
X52752493Y-79866782D01*
X52923591Y-80116026D01*
X53126378Y-80340238D01*
X53126392Y-80340251D01*
X53357246Y-80535424D01*
X53357247Y-80535425D01*
X53612069Y-80698098D01*
X53886293Y-80825352D01*
X53886298Y-80825353D01*
X54175044Y-80914923D01*
X54445680Y-80960573D01*
X54445680Y-78034506D01*
X54594660Y-78063220D01*
X54752073Y-78063220D01*
X54908769Y-78048257D01*
X54953680Y-78035069D01*
X54953680Y-80957364D01*
X55076092Y-80945050D01*
X55370187Y-80874964D01*
X55370188Y-80874964D01*
X55652298Y-80766312D01*
X55917421Y-80621021D01*
X56160809Y-80441691D01*
X56378125Y-80231519D01*
X56378128Y-80231515D01*
X56565480Y-79994268D01*
X56565484Y-79994262D01*
X56719551Y-79734146D01*
X56719553Y-79734141D01*
X56837572Y-79455819D01*
X56837575Y-79455810D01*
X56917443Y-79164244D01*
X56957740Y-78864615D01*
X56957740Y-77217400D01*
X55774291Y-77217400D01*
X55803252Y-77015970D01*
X55793257Y-76806167D01*
X55769782Y-76709400D01*
X56957740Y-76709400D01*
X56957740Y-75137847D01*
X56942600Y-74911696D01*
X56942599Y-74911687D01*
X56882384Y-74615439D01*
X56882382Y-74615431D01*
X56783217Y-74329849D01*
X56783213Y-74329840D01*
X56646866Y-74060017D01*
X56475768Y-73810773D01*
X56272981Y-73586561D01*
X56272967Y-73586548D01*
X56042113Y-73391375D01*
X56042112Y-73391374D01*
X55787290Y-73228701D01*
X55737201Y-73205457D01*
X58491400Y-73205457D01*
X58506358Y-73376424D01*
X58565621Y-73597597D01*
X58662390Y-73805119D01*
X58793725Y-73992685D01*
X58955635Y-74154595D01*
X59143200Y-74285930D01*
X59350723Y-74382699D01*
X59571896Y-74441962D01*
X59800000Y-74461919D01*
X60028104Y-74441962D01*
X60249277Y-74382699D01*
X60456799Y-74285930D01*
X60644365Y-74154595D01*
X60806275Y-73992685D01*
X60937610Y-73805119D01*
X60937610Y-73805118D01*
X60937612Y-73805116D01*
X60940361Y-73800355D01*
X60942408Y-73801537D01*
X60982670Y-73755804D01*
X61050945Y-73736338D01*
X61118907Y-73756874D01*
X61157389Y-73801284D01*
X61159434Y-73800104D01*
X61162186Y-73804871D01*
X61293464Y-73992357D01*
X61293467Y-73992360D01*
X61455321Y-74154213D01*
X61642810Y-74285494D01*
X61850253Y-74382227D01*
X61850252Y-74382227D01*
X62045360Y-74434504D01*
X62045360Y-73132833D01*
X62156937Y-73183789D01*
X62263568Y-73199120D01*
X62335152Y-73199120D01*
X62441783Y-73183789D01*
X62553360Y-73132833D01*
X62553360Y-74434504D01*
X62574866Y-74428742D01*
X62645842Y-74430432D01*
X62704638Y-74470227D01*
X62732585Y-74535491D01*
X62728999Y-74583738D01*
X62680016Y-74762555D01*
X62639720Y-75062184D01*
X62639720Y-76709400D01*
X63823169Y-76709400D01*
X63794208Y-76910830D01*
X63804203Y-77120633D01*
X63827678Y-77217400D01*
X62639720Y-77217400D01*
X62639720Y-78788953D01*
X62654859Y-79015103D01*
X62654860Y-79015112D01*
X62715075Y-79311360D01*
X62715077Y-79311368D01*
X62814242Y-79596950D01*
X62814246Y-79596959D01*
X62950593Y-79866782D01*
X63121691Y-80116026D01*
X63324478Y-80340238D01*
X63324492Y-80340251D01*
X63555346Y-80535424D01*
X63555347Y-80535425D01*
X63810169Y-80698098D01*
X64084393Y-80825352D01*
X64084398Y-80825353D01*
X64373144Y-80914923D01*
X64643780Y-80960573D01*
X64643780Y-78034506D01*
X64792760Y-78063220D01*
X64950173Y-78063220D01*
X65106869Y-78048257D01*
X65151780Y-78035069D01*
X65151780Y-80957364D01*
X65274192Y-80945050D01*
X65568287Y-80874964D01*
X65568288Y-80874964D01*
X65850398Y-80766312D01*
X66115521Y-80621021D01*
X66358909Y-80441691D01*
X66576225Y-80231519D01*
X66576228Y-80231515D01*
X66763580Y-79994268D01*
X66763584Y-79994262D01*
X66917651Y-79734146D01*
X66917653Y-79734141D01*
X67035672Y-79455819D01*
X67035675Y-79455810D01*
X67115543Y-79164244D01*
X67155840Y-78864615D01*
X67155840Y-78788953D01*
X72441620Y-78788953D01*
X72456759Y-79015103D01*
X72456760Y-79015112D01*
X72516975Y-79311360D01*
X72516977Y-79311368D01*
X72616142Y-79596950D01*
X72616146Y-79596959D01*
X72752493Y-79866782D01*
X72923591Y-80116026D01*
X73126378Y-80340238D01*
X73126392Y-80340251D01*
X73357246Y-80535424D01*
X73357247Y-80535425D01*
X73612069Y-80698098D01*
X73886293Y-80825352D01*
X73886298Y-80825353D01*
X74175044Y-80914923D01*
X74445680Y-80960573D01*
X74445680Y-78034506D01*
X74594660Y-78063220D01*
X74752073Y-78063220D01*
X74908769Y-78048257D01*
X74953680Y-78035069D01*
X74953680Y-80957364D01*
X75076092Y-80945050D01*
X75370187Y-80874964D01*
X75370188Y-80874964D01*
X75652298Y-80766312D01*
X75917421Y-80621021D01*
X76160809Y-80441691D01*
X76378125Y-80231519D01*
X76378128Y-80231515D01*
X76565480Y-79994268D01*
X76565484Y-79994262D01*
X76719551Y-79734146D01*
X76719553Y-79734141D01*
X76837572Y-79455819D01*
X76837575Y-79455810D01*
X76917443Y-79164244D01*
X76957740Y-78864615D01*
X76957740Y-77217400D01*
X75774291Y-77217400D01*
X75803252Y-77015970D01*
X75793257Y-76806167D01*
X75769782Y-76709400D01*
X76957740Y-76709400D01*
X76957740Y-75137847D01*
X76942600Y-74911696D01*
X76942599Y-74911687D01*
X76882384Y-74615439D01*
X76882382Y-74615431D01*
X76783217Y-74329849D01*
X76783213Y-74329840D01*
X76646866Y-74060017D01*
X76475768Y-73810773D01*
X76272981Y-73586561D01*
X76272967Y-73586548D01*
X76042113Y-73391375D01*
X76042112Y-73391374D01*
X75787290Y-73228701D01*
X75737201Y-73205457D01*
X78491400Y-73205457D01*
X78506358Y-73376424D01*
X78565621Y-73597597D01*
X78662390Y-73805119D01*
X78793725Y-73992685D01*
X78955635Y-74154595D01*
X79143200Y-74285930D01*
X79350723Y-74382699D01*
X79571896Y-74441962D01*
X79800000Y-74461919D01*
X80028104Y-74441962D01*
X80249277Y-74382699D01*
X80456799Y-74285930D01*
X80644365Y-74154595D01*
X80806275Y-73992685D01*
X80937610Y-73805119D01*
X80937610Y-73805118D01*
X80937612Y-73805116D01*
X80940361Y-73800355D01*
X80942408Y-73801537D01*
X80982670Y-73755804D01*
X81050945Y-73736338D01*
X81118907Y-73756874D01*
X81157389Y-73801284D01*
X81159434Y-73800104D01*
X81162186Y-73804871D01*
X81293464Y-73992357D01*
X81293467Y-73992360D01*
X81455321Y-74154213D01*
X81642810Y-74285494D01*
X81850253Y-74382227D01*
X81850252Y-74382227D01*
X82045360Y-74434504D01*
X82045360Y-73132833D01*
X82156937Y-73183789D01*
X82263568Y-73199120D01*
X82335152Y-73199120D01*
X82441783Y-73183789D01*
X82553360Y-73132833D01*
X82553360Y-74434504D01*
X82574866Y-74428742D01*
X82645842Y-74430432D01*
X82704638Y-74470227D01*
X82732585Y-74535491D01*
X82728999Y-74583738D01*
X82680016Y-74762555D01*
X82639720Y-75062184D01*
X82639720Y-76709400D01*
X83823169Y-76709400D01*
X83794208Y-76910830D01*
X83804203Y-77120633D01*
X83827678Y-77217400D01*
X82639720Y-77217400D01*
X82639720Y-78788953D01*
X82654859Y-79015103D01*
X82654860Y-79015112D01*
X82715075Y-79311360D01*
X82715077Y-79311368D01*
X82814242Y-79596950D01*
X82814246Y-79596959D01*
X82950593Y-79866782D01*
X83121691Y-80116026D01*
X83324478Y-80340238D01*
X83324492Y-80340251D01*
X83555346Y-80535424D01*
X83555347Y-80535425D01*
X83810169Y-80698098D01*
X84084393Y-80825352D01*
X84084398Y-80825353D01*
X84373144Y-80914923D01*
X84643780Y-80960573D01*
X84643780Y-78034506D01*
X84792760Y-78063220D01*
X84950173Y-78063220D01*
X85106869Y-78048257D01*
X85151780Y-78035069D01*
X85151780Y-80957364D01*
X85274192Y-80945050D01*
X85568287Y-80874964D01*
X85568288Y-80874964D01*
X85850398Y-80766312D01*
X86115521Y-80621021D01*
X86358909Y-80441691D01*
X86576225Y-80231519D01*
X86576228Y-80231515D01*
X86763580Y-79994268D01*
X86763584Y-79994262D01*
X86917651Y-79734146D01*
X86917653Y-79734141D01*
X87035672Y-79455819D01*
X87035675Y-79455810D01*
X87115543Y-79164244D01*
X87155840Y-78864615D01*
X87155840Y-78788953D01*
X92441620Y-78788953D01*
X92456759Y-79015103D01*
X92456760Y-79015112D01*
X92516975Y-79311360D01*
X92516977Y-79311368D01*
X92616142Y-79596950D01*
X92616146Y-79596959D01*
X92752493Y-79866782D01*
X92923591Y-80116026D01*
X93126378Y-80340238D01*
X93126392Y-80340251D01*
X93357246Y-80535424D01*
X93357247Y-80535425D01*
X93612069Y-80698098D01*
X93886293Y-80825352D01*
X93886298Y-80825353D01*
X94175044Y-80914923D01*
X94445680Y-80960573D01*
X94445680Y-78034506D01*
X94594660Y-78063220D01*
X94752073Y-78063220D01*
X94908769Y-78048257D01*
X94953680Y-78035069D01*
X94953680Y-80957364D01*
X95076092Y-80945050D01*
X95370187Y-80874964D01*
X95370188Y-80874964D01*
X95652298Y-80766312D01*
X95917421Y-80621021D01*
X96160809Y-80441691D01*
X96378125Y-80231519D01*
X96378128Y-80231515D01*
X96565480Y-79994268D01*
X96565484Y-79994262D01*
X96719551Y-79734146D01*
X96719553Y-79734141D01*
X96837572Y-79455819D01*
X96837575Y-79455810D01*
X96917443Y-79164244D01*
X96957740Y-78864615D01*
X96957740Y-77217400D01*
X95774291Y-77217400D01*
X95803252Y-77015970D01*
X95793257Y-76806167D01*
X95769782Y-76709400D01*
X96957740Y-76709400D01*
X96957740Y-75137847D01*
X96942600Y-74911696D01*
X96942599Y-74911687D01*
X96882384Y-74615439D01*
X96882382Y-74615431D01*
X96783217Y-74329849D01*
X96783213Y-74329840D01*
X96646866Y-74060017D01*
X96475768Y-73810773D01*
X96272981Y-73586561D01*
X96272967Y-73586548D01*
X96042113Y-73391375D01*
X96042112Y-73391374D01*
X95787290Y-73228701D01*
X95737201Y-73205457D01*
X98491400Y-73205457D01*
X98506358Y-73376424D01*
X98565621Y-73597597D01*
X98662390Y-73805119D01*
X98793725Y-73992685D01*
X98955635Y-74154595D01*
X99143200Y-74285930D01*
X99350723Y-74382699D01*
X99571896Y-74441962D01*
X99800000Y-74461919D01*
X100028104Y-74441962D01*
X100249277Y-74382699D01*
X100456799Y-74285930D01*
X100644365Y-74154595D01*
X100806275Y-73992685D01*
X100937610Y-73805119D01*
X100937610Y-73805118D01*
X100937612Y-73805116D01*
X100940361Y-73800355D01*
X100942408Y-73801537D01*
X100982670Y-73755804D01*
X101050945Y-73736338D01*
X101118907Y-73756874D01*
X101157389Y-73801284D01*
X101159434Y-73800104D01*
X101162186Y-73804871D01*
X101293464Y-73992357D01*
X101293467Y-73992360D01*
X101455321Y-74154213D01*
X101642810Y-74285494D01*
X101850253Y-74382227D01*
X101850252Y-74382227D01*
X102045360Y-74434504D01*
X102045360Y-73132833D01*
X102156937Y-73183789D01*
X102263568Y-73199120D01*
X102335152Y-73199120D01*
X102441783Y-73183789D01*
X102553360Y-73132833D01*
X102553360Y-74434504D01*
X102574866Y-74428742D01*
X102645842Y-74430432D01*
X102704638Y-74470227D01*
X102732585Y-74535491D01*
X102728999Y-74583738D01*
X102680016Y-74762555D01*
X102639720Y-75062184D01*
X102639720Y-76709400D01*
X103823169Y-76709400D01*
X103794208Y-76910830D01*
X103804203Y-77120633D01*
X103827678Y-77217400D01*
X102639720Y-77217400D01*
X102639720Y-78788953D01*
X102654859Y-79015103D01*
X102654860Y-79015112D01*
X102715075Y-79311360D01*
X102715077Y-79311368D01*
X102814242Y-79596950D01*
X102814246Y-79596959D01*
X102950593Y-79866782D01*
X103121691Y-80116026D01*
X103324478Y-80340238D01*
X103324492Y-80340251D01*
X103555346Y-80535424D01*
X103555347Y-80535425D01*
X103810169Y-80698098D01*
X104084393Y-80825352D01*
X104084398Y-80825353D01*
X104373144Y-80914923D01*
X104643780Y-80960573D01*
X104643780Y-78034506D01*
X104792760Y-78063220D01*
X104950173Y-78063220D01*
X105106869Y-78048257D01*
X105151780Y-78035069D01*
X105151780Y-80957364D01*
X105274192Y-80945050D01*
X105568287Y-80874964D01*
X105568288Y-80874964D01*
X105850398Y-80766312D01*
X106115521Y-80621021D01*
X106358909Y-80441691D01*
X106576225Y-80231519D01*
X106576228Y-80231515D01*
X106763580Y-79994268D01*
X106763584Y-79994262D01*
X106917651Y-79734146D01*
X106917653Y-79734141D01*
X107035672Y-79455819D01*
X107035675Y-79455810D01*
X107115543Y-79164244D01*
X107155840Y-78864615D01*
X107155840Y-78788953D01*
X112441620Y-78788953D01*
X112456759Y-79015103D01*
X112456760Y-79015112D01*
X112516975Y-79311360D01*
X112516977Y-79311368D01*
X112616142Y-79596950D01*
X112616146Y-79596959D01*
X112752493Y-79866782D01*
X112923591Y-80116026D01*
X113126378Y-80340238D01*
X113126392Y-80340251D01*
X113357246Y-80535424D01*
X113357247Y-80535425D01*
X113612069Y-80698098D01*
X113886293Y-80825352D01*
X113886298Y-80825353D01*
X114175044Y-80914923D01*
X114445680Y-80960573D01*
X114445680Y-78034506D01*
X114594660Y-78063220D01*
X114752073Y-78063220D01*
X114908769Y-78048257D01*
X114953680Y-78035069D01*
X114953680Y-80957364D01*
X115076092Y-80945050D01*
X115370187Y-80874964D01*
X115370188Y-80874964D01*
X115652298Y-80766312D01*
X115917421Y-80621021D01*
X116160809Y-80441691D01*
X116378125Y-80231519D01*
X116378128Y-80231515D01*
X116565480Y-79994268D01*
X116565484Y-79994262D01*
X116719551Y-79734146D01*
X116719553Y-79734141D01*
X116837572Y-79455819D01*
X116837575Y-79455810D01*
X116917443Y-79164244D01*
X116957740Y-78864615D01*
X116957740Y-77217400D01*
X115774291Y-77217400D01*
X115803252Y-77015970D01*
X115793257Y-76806167D01*
X115769782Y-76709400D01*
X116957740Y-76709400D01*
X116957740Y-75137847D01*
X116942600Y-74911696D01*
X116942599Y-74911687D01*
X116882384Y-74615439D01*
X116882382Y-74615431D01*
X116783217Y-74329849D01*
X116783213Y-74329840D01*
X116646866Y-74060017D01*
X116475768Y-73810773D01*
X116272981Y-73586561D01*
X116272967Y-73586548D01*
X116042113Y-73391375D01*
X116042112Y-73391374D01*
X115787290Y-73228701D01*
X115737201Y-73205457D01*
X118491400Y-73205457D01*
X118506358Y-73376424D01*
X118565621Y-73597597D01*
X118662390Y-73805119D01*
X118793725Y-73992685D01*
X118955635Y-74154595D01*
X119143200Y-74285930D01*
X119350723Y-74382699D01*
X119571896Y-74441962D01*
X119800000Y-74461919D01*
X120028104Y-74441962D01*
X120249277Y-74382699D01*
X120456799Y-74285930D01*
X120644365Y-74154595D01*
X120806275Y-73992685D01*
X120937610Y-73805119D01*
X120937610Y-73805118D01*
X120937612Y-73805116D01*
X120940361Y-73800355D01*
X120942408Y-73801537D01*
X120982670Y-73755804D01*
X121050945Y-73736338D01*
X121118907Y-73756874D01*
X121157389Y-73801284D01*
X121159434Y-73800104D01*
X121162186Y-73804871D01*
X121293464Y-73992357D01*
X121293467Y-73992360D01*
X121455321Y-74154213D01*
X121642810Y-74285494D01*
X121850253Y-74382227D01*
X121850252Y-74382227D01*
X122045360Y-74434504D01*
X122045360Y-73132833D01*
X122156937Y-73183789D01*
X122263568Y-73199120D01*
X122335152Y-73199120D01*
X122441783Y-73183789D01*
X122553360Y-73132833D01*
X122553360Y-74434504D01*
X122574866Y-74428742D01*
X122645842Y-74430432D01*
X122704638Y-74470227D01*
X122732585Y-74535491D01*
X122728999Y-74583738D01*
X122680016Y-74762555D01*
X122639720Y-75062184D01*
X122639720Y-76709400D01*
X123823169Y-76709400D01*
X123794208Y-76910830D01*
X123804203Y-77120633D01*
X123827678Y-77217400D01*
X122639720Y-77217400D01*
X122639720Y-78788953D01*
X122654859Y-79015103D01*
X122654860Y-79015112D01*
X122715075Y-79311360D01*
X122715077Y-79311368D01*
X122814242Y-79596950D01*
X122814246Y-79596959D01*
X122950593Y-79866782D01*
X123121691Y-80116026D01*
X123324478Y-80340238D01*
X123324492Y-80340251D01*
X123555346Y-80535424D01*
X123555347Y-80535425D01*
X123810169Y-80698098D01*
X124084393Y-80825352D01*
X124084398Y-80825353D01*
X124373144Y-80914923D01*
X124643780Y-80960573D01*
X124643780Y-78034506D01*
X124792760Y-78063220D01*
X124950173Y-78063220D01*
X125106869Y-78048257D01*
X125151780Y-78035069D01*
X125151780Y-80957364D01*
X125274192Y-80945050D01*
X125568287Y-80874964D01*
X125568288Y-80874964D01*
X125850398Y-80766312D01*
X126115521Y-80621021D01*
X126358909Y-80441691D01*
X126576225Y-80231519D01*
X126576228Y-80231515D01*
X126763580Y-79994268D01*
X126763584Y-79994262D01*
X126917651Y-79734146D01*
X126917653Y-79734141D01*
X127035672Y-79455819D01*
X127035675Y-79455810D01*
X127115543Y-79164244D01*
X127155840Y-78864615D01*
X127155840Y-78788953D01*
X132441620Y-78788953D01*
X132456759Y-79015103D01*
X132456760Y-79015112D01*
X132516975Y-79311360D01*
X132516977Y-79311368D01*
X132616142Y-79596950D01*
X132616146Y-79596959D01*
X132752493Y-79866782D01*
X132923591Y-80116026D01*
X133126378Y-80340238D01*
X133126392Y-80340251D01*
X133357246Y-80535424D01*
X133357247Y-80535425D01*
X133612069Y-80698098D01*
X133886293Y-80825352D01*
X133886298Y-80825353D01*
X134175044Y-80914923D01*
X134445680Y-80960573D01*
X134445680Y-78034506D01*
X134594660Y-78063220D01*
X134752073Y-78063220D01*
X134908769Y-78048257D01*
X134953680Y-78035069D01*
X134953680Y-80957364D01*
X135076092Y-80945050D01*
X135370187Y-80874964D01*
X135370188Y-80874964D01*
X135652298Y-80766312D01*
X135917421Y-80621021D01*
X136160809Y-80441691D01*
X136378125Y-80231519D01*
X136378128Y-80231515D01*
X136565480Y-79994268D01*
X136565484Y-79994262D01*
X136719551Y-79734146D01*
X136719553Y-79734141D01*
X136837572Y-79455819D01*
X136837575Y-79455810D01*
X136917443Y-79164244D01*
X136957740Y-78864615D01*
X136957740Y-77217400D01*
X135774291Y-77217400D01*
X135803252Y-77015970D01*
X135793257Y-76806167D01*
X135769782Y-76709400D01*
X136957740Y-76709400D01*
X136957740Y-75137847D01*
X136942600Y-74911696D01*
X136942599Y-74911687D01*
X136882384Y-74615439D01*
X136882382Y-74615431D01*
X136783217Y-74329849D01*
X136783213Y-74329840D01*
X136646866Y-74060017D01*
X136475768Y-73810773D01*
X136272981Y-73586561D01*
X136272967Y-73586548D01*
X136042113Y-73391375D01*
X136042112Y-73391374D01*
X135787290Y-73228701D01*
X135737201Y-73205457D01*
X138491400Y-73205457D01*
X138506358Y-73376424D01*
X138565621Y-73597597D01*
X138662390Y-73805119D01*
X138793725Y-73992685D01*
X138955635Y-74154595D01*
X139143200Y-74285930D01*
X139350723Y-74382699D01*
X139571896Y-74441962D01*
X139800000Y-74461919D01*
X140028104Y-74441962D01*
X140249277Y-74382699D01*
X140456799Y-74285930D01*
X140644365Y-74154595D01*
X140806275Y-73992685D01*
X140937610Y-73805119D01*
X140937610Y-73805118D01*
X140937612Y-73805116D01*
X140940361Y-73800355D01*
X140942408Y-73801537D01*
X140982670Y-73755804D01*
X141050945Y-73736338D01*
X141118907Y-73756874D01*
X141157389Y-73801284D01*
X141159434Y-73800104D01*
X141162186Y-73804871D01*
X141293464Y-73992357D01*
X141293467Y-73992360D01*
X141455321Y-74154213D01*
X141642810Y-74285494D01*
X141850253Y-74382227D01*
X141850252Y-74382227D01*
X142045360Y-74434504D01*
X142045360Y-73132833D01*
X142156937Y-73183789D01*
X142263568Y-73199120D01*
X142335152Y-73199120D01*
X142441783Y-73183789D01*
X142553360Y-73132833D01*
X142553360Y-74434504D01*
X142574866Y-74428742D01*
X142645842Y-74430432D01*
X142704638Y-74470227D01*
X142732585Y-74535491D01*
X142728999Y-74583738D01*
X142680016Y-74762555D01*
X142639720Y-75062184D01*
X142639720Y-76709400D01*
X143823169Y-76709400D01*
X143794208Y-76910830D01*
X143804203Y-77120633D01*
X143827678Y-77217400D01*
X142639720Y-77217400D01*
X142639720Y-78788953D01*
X142654859Y-79015103D01*
X142654860Y-79015112D01*
X142715075Y-79311360D01*
X142715077Y-79311368D01*
X142814242Y-79596950D01*
X142814246Y-79596959D01*
X142950593Y-79866782D01*
X143121691Y-80116026D01*
X143324478Y-80340238D01*
X143324492Y-80340251D01*
X143555346Y-80535424D01*
X143555347Y-80535425D01*
X143810169Y-80698098D01*
X144084393Y-80825352D01*
X144084398Y-80825353D01*
X144373144Y-80914923D01*
X144643780Y-80960573D01*
X144643780Y-78034506D01*
X144792760Y-78063220D01*
X144950173Y-78063220D01*
X145106869Y-78048257D01*
X145151780Y-78035069D01*
X145151780Y-80957364D01*
X145274192Y-80945050D01*
X145568287Y-80874964D01*
X145568288Y-80874964D01*
X145850398Y-80766312D01*
X146115521Y-80621021D01*
X146358909Y-80441691D01*
X146576225Y-80231519D01*
X146576228Y-80231515D01*
X146763580Y-79994268D01*
X146763584Y-79994262D01*
X146917651Y-79734146D01*
X146917653Y-79734141D01*
X147035672Y-79455819D01*
X147035675Y-79455810D01*
X147115543Y-79164244D01*
X147155840Y-78864615D01*
X147155840Y-78788953D01*
X152441620Y-78788953D01*
X152456759Y-79015103D01*
X152456760Y-79015112D01*
X152516975Y-79311360D01*
X152516977Y-79311368D01*
X152616142Y-79596950D01*
X152616146Y-79596959D01*
X152752493Y-79866782D01*
X152923591Y-80116026D01*
X153126378Y-80340238D01*
X153126392Y-80340251D01*
X153357246Y-80535424D01*
X153357247Y-80535425D01*
X153612069Y-80698098D01*
X153886293Y-80825352D01*
X153886298Y-80825353D01*
X154175044Y-80914923D01*
X154445680Y-80960573D01*
X154445680Y-78034506D01*
X154594660Y-78063220D01*
X154752073Y-78063220D01*
X154908769Y-78048257D01*
X154953680Y-78035069D01*
X154953680Y-80957364D01*
X155076092Y-80945050D01*
X155370187Y-80874964D01*
X155370188Y-80874964D01*
X155652298Y-80766312D01*
X155917421Y-80621021D01*
X156160809Y-80441691D01*
X156378125Y-80231519D01*
X156378128Y-80231515D01*
X156565480Y-79994268D01*
X156565484Y-79994262D01*
X156719551Y-79734146D01*
X156719553Y-79734141D01*
X156837572Y-79455819D01*
X156837575Y-79455810D01*
X156917443Y-79164244D01*
X156957740Y-78864615D01*
X156957740Y-77217400D01*
X155774291Y-77217400D01*
X155803252Y-77015970D01*
X155793257Y-76806167D01*
X155769782Y-76709400D01*
X156957740Y-76709400D01*
X156957740Y-75137847D01*
X156942600Y-74911696D01*
X156942599Y-74911687D01*
X156882384Y-74615439D01*
X156882382Y-74615431D01*
X156783217Y-74329849D01*
X156783213Y-74329840D01*
X156646866Y-74060017D01*
X156475768Y-73810773D01*
X156272981Y-73586561D01*
X156272967Y-73586548D01*
X156042113Y-73391375D01*
X156042112Y-73391374D01*
X155787290Y-73228701D01*
X155737201Y-73205457D01*
X158491400Y-73205457D01*
X158506358Y-73376424D01*
X158565621Y-73597597D01*
X158662390Y-73805119D01*
X158793725Y-73992685D01*
X158955635Y-74154595D01*
X159143200Y-74285930D01*
X159350723Y-74382699D01*
X159571896Y-74441962D01*
X159800000Y-74461919D01*
X160028104Y-74441962D01*
X160249277Y-74382699D01*
X160456799Y-74285930D01*
X160644365Y-74154595D01*
X160806275Y-73992685D01*
X160937610Y-73805119D01*
X160937610Y-73805118D01*
X160937612Y-73805116D01*
X160940361Y-73800355D01*
X160942408Y-73801537D01*
X160982670Y-73755804D01*
X161050945Y-73736338D01*
X161118907Y-73756874D01*
X161157389Y-73801284D01*
X161159434Y-73800104D01*
X161162186Y-73804871D01*
X161293464Y-73992357D01*
X161293467Y-73992360D01*
X161455321Y-74154213D01*
X161642810Y-74285494D01*
X161850253Y-74382227D01*
X161850252Y-74382227D01*
X162045360Y-74434504D01*
X162045360Y-73132833D01*
X162156937Y-73183789D01*
X162263568Y-73199120D01*
X162335152Y-73199120D01*
X162441783Y-73183789D01*
X162553360Y-73132833D01*
X162553360Y-74434504D01*
X162574866Y-74428742D01*
X162645842Y-74430432D01*
X162704638Y-74470227D01*
X162732585Y-74535491D01*
X162728999Y-74583738D01*
X162680016Y-74762555D01*
X162639720Y-75062184D01*
X162639720Y-76709400D01*
X163823169Y-76709400D01*
X163794208Y-76910830D01*
X163804203Y-77120633D01*
X163827678Y-77217400D01*
X162639720Y-77217400D01*
X162639720Y-78788953D01*
X162654859Y-79015103D01*
X162654860Y-79015112D01*
X162715075Y-79311360D01*
X162715077Y-79311368D01*
X162814242Y-79596950D01*
X162814246Y-79596959D01*
X162950593Y-79866782D01*
X163121691Y-80116026D01*
X163324478Y-80340238D01*
X163324492Y-80340251D01*
X163555346Y-80535424D01*
X163555347Y-80535425D01*
X163810169Y-80698098D01*
X164084393Y-80825352D01*
X164084398Y-80825353D01*
X164373144Y-80914923D01*
X164643780Y-80960573D01*
X164643780Y-78034506D01*
X164792760Y-78063220D01*
X164950173Y-78063220D01*
X165106869Y-78048257D01*
X165151780Y-78035069D01*
X165151780Y-80957364D01*
X165274192Y-80945050D01*
X165568287Y-80874964D01*
X165568288Y-80874964D01*
X165850398Y-80766312D01*
X166115521Y-80621021D01*
X166358909Y-80441691D01*
X166576225Y-80231519D01*
X166576228Y-80231515D01*
X166763580Y-79994268D01*
X166763584Y-79994262D01*
X166917651Y-79734146D01*
X166917653Y-79734141D01*
X167035672Y-79455819D01*
X167035675Y-79455810D01*
X167115543Y-79164244D01*
X167155840Y-78864615D01*
X167155840Y-77217400D01*
X165972391Y-77217400D01*
X166001352Y-77015970D01*
X165991357Y-76806167D01*
X165967882Y-76709400D01*
X167155840Y-76709400D01*
X167155840Y-75137847D01*
X167140700Y-74911696D01*
X167140699Y-74911687D01*
X167080484Y-74615439D01*
X167080482Y-74615431D01*
X166981317Y-74329849D01*
X166981313Y-74329840D01*
X166844966Y-74060017D01*
X166673868Y-73810773D01*
X166471081Y-73586561D01*
X166471067Y-73586548D01*
X166240213Y-73391375D01*
X166240212Y-73391374D01*
X165985390Y-73228701D01*
X165711166Y-73101447D01*
X165711161Y-73101446D01*
X165422415Y-73011876D01*
X165151780Y-72966225D01*
X165151780Y-75892293D01*
X165002800Y-75863580D01*
X164845387Y-75863580D01*
X164688691Y-75878543D01*
X164643780Y-75891730D01*
X164643780Y-72969434D01*
X164521367Y-72981749D01*
X164227272Y-73051835D01*
X164227271Y-73051835D01*
X163945161Y-73160487D01*
X163794013Y-73243319D01*
X163724662Y-73258515D01*
X163658104Y-73233806D01*
X163615471Y-73177034D01*
X163607460Y-73132823D01*
X163607460Y-72952740D01*
X162730928Y-72952740D01*
X162759203Y-72908743D01*
X162799740Y-72770684D01*
X162799740Y-72626796D01*
X162759203Y-72488737D01*
X162730928Y-72444740D01*
X163607460Y-72444740D01*
X163607460Y-72192045D01*
X163592507Y-72021139D01*
X163533268Y-71800055D01*
X163533266Y-71800051D01*
X163436533Y-71592608D01*
X163305255Y-71405122D01*
X163305252Y-71405119D01*
X163143398Y-71243266D01*
X162955909Y-71111985D01*
X162748468Y-71015253D01*
X162748464Y-71015251D01*
X162553360Y-70962973D01*
X162553360Y-72264646D01*
X162441783Y-72213691D01*
X162335152Y-72198360D01*
X162263568Y-72198360D01*
X162156937Y-72213691D01*
X162045360Y-72264646D01*
X162045360Y-70962973D01*
X161850255Y-71015251D01*
X161850251Y-71015253D01*
X161642808Y-71111986D01*
X161455322Y-71243264D01*
X161455312Y-71243273D01*
X161293473Y-71405112D01*
X161293464Y-71405122D01*
X161162186Y-71592608D01*
X161159434Y-71597376D01*
X161157327Y-71596160D01*
X161117187Y-71641709D01*
X161048901Y-71661141D01*
X160980950Y-71640569D01*
X160942327Y-71595989D01*
X160940361Y-71597125D01*
X160937612Y-71592363D01*
X160806277Y-71404798D01*
X160806275Y-71404795D01*
X160644365Y-71242885D01*
X160456800Y-71111550D01*
X160249280Y-71014782D01*
X160249275Y-71014780D01*
X160146628Y-70987276D01*
X160028104Y-70955518D01*
X159800000Y-70935561D01*
X159571896Y-70955518D01*
X159544074Y-70962973D01*
X159350724Y-71014780D01*
X159350719Y-71014782D01*
X159143200Y-71111550D01*
X158955638Y-71242882D01*
X158955632Y-71242887D01*
X158793727Y-71404792D01*
X158793722Y-71404798D01*
X158662390Y-71592360D01*
X158565622Y-71799879D01*
X158565620Y-71799884D01*
X158522237Y-71961794D01*
X158506358Y-72021056D01*
X158491400Y-72192023D01*
X158491400Y-73205457D01*
X155737201Y-73205457D01*
X155513066Y-73101447D01*
X155513061Y-73101446D01*
X155224315Y-73011876D01*
X154953680Y-72966225D01*
X154953680Y-75892293D01*
X154804700Y-75863580D01*
X154647287Y-75863580D01*
X154490591Y-75878543D01*
X154445680Y-75891730D01*
X154445680Y-72969434D01*
X154445679Y-72969434D01*
X154323267Y-72981749D01*
X154029172Y-73051835D01*
X154029171Y-73051835D01*
X153747061Y-73160487D01*
X153481938Y-73305778D01*
X153238550Y-73485108D01*
X153021234Y-73695280D01*
X153021231Y-73695284D01*
X152833879Y-73932531D01*
X152833875Y-73932537D01*
X152679808Y-74192653D01*
X152679806Y-74192658D01*
X152561787Y-74470980D01*
X152561784Y-74470989D01*
X152481916Y-74762555D01*
X152441620Y-75062184D01*
X152441620Y-76709400D01*
X153625069Y-76709400D01*
X153596108Y-76910830D01*
X153606103Y-77120633D01*
X153629578Y-77217400D01*
X152441620Y-77217400D01*
X152441620Y-78788953D01*
X147155840Y-78788953D01*
X147155840Y-77217400D01*
X145972391Y-77217400D01*
X146001352Y-77015970D01*
X145991357Y-76806167D01*
X145967882Y-76709400D01*
X147155840Y-76709400D01*
X147155840Y-75137847D01*
X147140700Y-74911696D01*
X147140699Y-74911687D01*
X147080484Y-74615439D01*
X147080482Y-74615431D01*
X146981317Y-74329849D01*
X146981313Y-74329840D01*
X146844966Y-74060017D01*
X146673868Y-73810773D01*
X146471081Y-73586561D01*
X146471067Y-73586548D01*
X146240213Y-73391375D01*
X146240212Y-73391374D01*
X145985390Y-73228701D01*
X145711166Y-73101447D01*
X145711161Y-73101446D01*
X145422415Y-73011876D01*
X145151780Y-72966225D01*
X145151780Y-75892293D01*
X145002800Y-75863580D01*
X144845387Y-75863580D01*
X144688691Y-75878543D01*
X144643780Y-75891730D01*
X144643780Y-72969434D01*
X144643779Y-72969434D01*
X144521367Y-72981749D01*
X144227272Y-73051835D01*
X144227271Y-73051835D01*
X143945161Y-73160487D01*
X143794013Y-73243319D01*
X143724662Y-73258515D01*
X143658104Y-73233806D01*
X143615471Y-73177034D01*
X143607460Y-73132823D01*
X143607460Y-72952740D01*
X142730928Y-72952740D01*
X142759203Y-72908743D01*
X142799740Y-72770684D01*
X142799740Y-72626796D01*
X142759203Y-72488737D01*
X142730928Y-72444740D01*
X143607460Y-72444740D01*
X143607460Y-72192045D01*
X143592507Y-72021139D01*
X143533268Y-71800055D01*
X143533266Y-71800051D01*
X143436533Y-71592608D01*
X143305255Y-71405122D01*
X143305252Y-71405119D01*
X143143398Y-71243266D01*
X142955909Y-71111985D01*
X142748468Y-71015253D01*
X142748464Y-71015251D01*
X142553360Y-70962973D01*
X142553360Y-72264646D01*
X142441783Y-72213691D01*
X142335152Y-72198360D01*
X142263568Y-72198360D01*
X142156937Y-72213691D01*
X142045360Y-72264646D01*
X142045360Y-70962973D01*
X141850255Y-71015251D01*
X141850251Y-71015253D01*
X141642808Y-71111986D01*
X141455322Y-71243264D01*
X141455312Y-71243273D01*
X141293473Y-71405112D01*
X141293464Y-71405122D01*
X141162186Y-71592608D01*
X141159434Y-71597376D01*
X141157327Y-71596160D01*
X141117187Y-71641709D01*
X141048901Y-71661141D01*
X140980950Y-71640569D01*
X140942327Y-71595989D01*
X140940361Y-71597125D01*
X140937612Y-71592363D01*
X140806277Y-71404798D01*
X140806275Y-71404795D01*
X140644365Y-71242885D01*
X140456800Y-71111550D01*
X140249280Y-71014782D01*
X140249275Y-71014780D01*
X140146628Y-70987276D01*
X140028104Y-70955518D01*
X139800000Y-70935561D01*
X139571896Y-70955518D01*
X139544074Y-70962973D01*
X139350724Y-71014780D01*
X139350719Y-71014782D01*
X139143200Y-71111550D01*
X138955638Y-71242882D01*
X138955632Y-71242887D01*
X138793727Y-71404792D01*
X138793722Y-71404798D01*
X138662390Y-71592360D01*
X138565622Y-71799879D01*
X138565620Y-71799884D01*
X138522237Y-71961794D01*
X138506358Y-72021056D01*
X138491400Y-72192023D01*
X138491400Y-73205457D01*
X135737201Y-73205457D01*
X135513066Y-73101447D01*
X135513061Y-73101446D01*
X135224315Y-73011876D01*
X134953680Y-72966225D01*
X134953680Y-75892293D01*
X134804700Y-75863580D01*
X134647287Y-75863580D01*
X134490591Y-75878543D01*
X134445680Y-75891730D01*
X134445680Y-72969434D01*
X134445679Y-72969434D01*
X134323267Y-72981749D01*
X134029172Y-73051835D01*
X134029171Y-73051835D01*
X133747061Y-73160487D01*
X133481938Y-73305778D01*
X133238550Y-73485108D01*
X133021234Y-73695280D01*
X133021231Y-73695284D01*
X132833879Y-73932531D01*
X132833875Y-73932537D01*
X132679808Y-74192653D01*
X132679806Y-74192658D01*
X132561787Y-74470980D01*
X132561784Y-74470989D01*
X132481916Y-74762555D01*
X132441620Y-75062184D01*
X132441620Y-76709400D01*
X133625069Y-76709400D01*
X133596108Y-76910830D01*
X133606103Y-77120633D01*
X133629578Y-77217400D01*
X132441620Y-77217400D01*
X132441620Y-78788953D01*
X127155840Y-78788953D01*
X127155840Y-77217400D01*
X125972391Y-77217400D01*
X126001352Y-77015970D01*
X125991357Y-76806167D01*
X125967882Y-76709400D01*
X127155840Y-76709400D01*
X127155840Y-75137847D01*
X127140700Y-74911696D01*
X127140699Y-74911687D01*
X127080484Y-74615439D01*
X127080482Y-74615431D01*
X126981317Y-74329849D01*
X126981313Y-74329840D01*
X126844966Y-74060017D01*
X126673868Y-73810773D01*
X126471081Y-73586561D01*
X126471067Y-73586548D01*
X126240213Y-73391375D01*
X126240212Y-73391374D01*
X125985390Y-73228701D01*
X125711166Y-73101447D01*
X125711161Y-73101446D01*
X125422415Y-73011876D01*
X125151780Y-72966225D01*
X125151780Y-75892293D01*
X125002800Y-75863580D01*
X124845387Y-75863580D01*
X124688691Y-75878543D01*
X124643780Y-75891730D01*
X124643780Y-72969434D01*
X124643779Y-72969434D01*
X124521367Y-72981749D01*
X124227272Y-73051835D01*
X124227271Y-73051835D01*
X123945161Y-73160487D01*
X123794013Y-73243319D01*
X123724662Y-73258515D01*
X123658104Y-73233806D01*
X123615471Y-73177034D01*
X123607460Y-73132823D01*
X123607460Y-72952740D01*
X122730928Y-72952740D01*
X122759203Y-72908743D01*
X122799740Y-72770684D01*
X122799740Y-72626796D01*
X122759203Y-72488737D01*
X122730928Y-72444740D01*
X123607460Y-72444740D01*
X123607460Y-72192045D01*
X123592507Y-72021139D01*
X123533268Y-71800055D01*
X123533266Y-71800051D01*
X123436533Y-71592608D01*
X123305255Y-71405122D01*
X123305252Y-71405119D01*
X123143398Y-71243266D01*
X122955909Y-71111985D01*
X122748468Y-71015253D01*
X122748464Y-71015251D01*
X122553360Y-70962973D01*
X122553360Y-72264646D01*
X122441783Y-72213691D01*
X122335152Y-72198360D01*
X122263568Y-72198360D01*
X122156937Y-72213691D01*
X122045360Y-72264646D01*
X122045360Y-70962973D01*
X121850255Y-71015251D01*
X121850251Y-71015253D01*
X121642808Y-71111986D01*
X121455322Y-71243264D01*
X121455312Y-71243273D01*
X121293473Y-71405112D01*
X121293464Y-71405122D01*
X121162186Y-71592608D01*
X121159434Y-71597376D01*
X121157327Y-71596160D01*
X121117187Y-71641709D01*
X121048901Y-71661141D01*
X120980950Y-71640569D01*
X120942327Y-71595989D01*
X120940361Y-71597125D01*
X120937612Y-71592363D01*
X120806277Y-71404798D01*
X120806275Y-71404795D01*
X120644365Y-71242885D01*
X120456800Y-71111550D01*
X120249280Y-71014782D01*
X120249275Y-71014780D01*
X120146628Y-70987276D01*
X120028104Y-70955518D01*
X119800000Y-70935561D01*
X119571896Y-70955518D01*
X119544074Y-70962973D01*
X119350724Y-71014780D01*
X119350719Y-71014782D01*
X119143200Y-71111550D01*
X118955638Y-71242882D01*
X118955632Y-71242887D01*
X118793727Y-71404792D01*
X118793722Y-71404798D01*
X118662390Y-71592360D01*
X118565622Y-71799879D01*
X118565620Y-71799884D01*
X118522237Y-71961794D01*
X118506358Y-72021056D01*
X118491400Y-72192023D01*
X118491400Y-73205457D01*
X115737201Y-73205457D01*
X115513066Y-73101447D01*
X115513061Y-73101446D01*
X115224315Y-73011876D01*
X114953680Y-72966225D01*
X114953680Y-75892293D01*
X114804700Y-75863580D01*
X114647287Y-75863580D01*
X114490591Y-75878543D01*
X114445680Y-75891730D01*
X114445680Y-72969434D01*
X114445679Y-72969434D01*
X114323267Y-72981749D01*
X114029172Y-73051835D01*
X114029171Y-73051835D01*
X113747061Y-73160487D01*
X113481938Y-73305778D01*
X113238550Y-73485108D01*
X113021234Y-73695280D01*
X113021231Y-73695284D01*
X112833879Y-73932531D01*
X112833875Y-73932537D01*
X112679808Y-74192653D01*
X112679806Y-74192658D01*
X112561787Y-74470980D01*
X112561784Y-74470989D01*
X112481916Y-74762555D01*
X112441620Y-75062184D01*
X112441620Y-76709400D01*
X113625069Y-76709400D01*
X113596108Y-76910830D01*
X113606103Y-77120633D01*
X113629578Y-77217400D01*
X112441620Y-77217400D01*
X112441620Y-78788953D01*
X107155840Y-78788953D01*
X107155840Y-77217400D01*
X105972391Y-77217400D01*
X106001352Y-77015970D01*
X105991357Y-76806167D01*
X105967882Y-76709400D01*
X107155840Y-76709400D01*
X107155840Y-75137847D01*
X107140700Y-74911696D01*
X107140699Y-74911687D01*
X107080484Y-74615439D01*
X107080482Y-74615431D01*
X106981317Y-74329849D01*
X106981313Y-74329840D01*
X106844966Y-74060017D01*
X106673868Y-73810773D01*
X106471081Y-73586561D01*
X106471067Y-73586548D01*
X106240213Y-73391375D01*
X106240212Y-73391374D01*
X105985390Y-73228701D01*
X105711166Y-73101447D01*
X105711161Y-73101446D01*
X105422415Y-73011876D01*
X105151780Y-72966225D01*
X105151780Y-75892293D01*
X105002800Y-75863580D01*
X104845387Y-75863580D01*
X104688691Y-75878543D01*
X104643780Y-75891730D01*
X104643780Y-72969434D01*
X104643779Y-72969434D01*
X104521367Y-72981749D01*
X104227272Y-73051835D01*
X104227271Y-73051835D01*
X103945161Y-73160487D01*
X103794013Y-73243319D01*
X103724662Y-73258515D01*
X103658104Y-73233806D01*
X103615471Y-73177034D01*
X103607460Y-73132823D01*
X103607460Y-72952740D01*
X102730928Y-72952740D01*
X102759203Y-72908743D01*
X102799740Y-72770684D01*
X102799740Y-72626796D01*
X102759203Y-72488737D01*
X102730928Y-72444740D01*
X103607460Y-72444740D01*
X103607460Y-72192045D01*
X103592507Y-72021139D01*
X103533268Y-71800055D01*
X103533266Y-71800051D01*
X103436533Y-71592608D01*
X103305255Y-71405122D01*
X103305252Y-71405119D01*
X103143398Y-71243266D01*
X102955909Y-71111985D01*
X102748468Y-71015253D01*
X102748464Y-71015251D01*
X102553360Y-70962973D01*
X102553360Y-72264646D01*
X102441783Y-72213691D01*
X102335152Y-72198360D01*
X102263568Y-72198360D01*
X102156937Y-72213691D01*
X102045360Y-72264646D01*
X102045360Y-70962973D01*
X101850255Y-71015251D01*
X101850251Y-71015253D01*
X101642808Y-71111986D01*
X101455322Y-71243264D01*
X101455312Y-71243273D01*
X101293473Y-71405112D01*
X101293464Y-71405122D01*
X101162186Y-71592608D01*
X101159434Y-71597376D01*
X101157327Y-71596160D01*
X101117187Y-71641709D01*
X101048901Y-71661141D01*
X100980950Y-71640569D01*
X100942327Y-71595989D01*
X100940361Y-71597125D01*
X100937612Y-71592363D01*
X100806277Y-71404798D01*
X100806275Y-71404795D01*
X100644365Y-71242885D01*
X100456800Y-71111550D01*
X100249280Y-71014782D01*
X100249275Y-71014780D01*
X100146628Y-70987276D01*
X100028104Y-70955518D01*
X99800000Y-70935561D01*
X99571896Y-70955518D01*
X99544074Y-70962973D01*
X99350724Y-71014780D01*
X99350719Y-71014782D01*
X99143200Y-71111550D01*
X98955638Y-71242882D01*
X98955632Y-71242887D01*
X98793727Y-71404792D01*
X98793722Y-71404798D01*
X98662390Y-71592360D01*
X98565622Y-71799879D01*
X98565620Y-71799884D01*
X98522237Y-71961794D01*
X98506358Y-72021056D01*
X98491400Y-72192023D01*
X98491400Y-73205457D01*
X95737201Y-73205457D01*
X95513066Y-73101447D01*
X95513061Y-73101446D01*
X95224315Y-73011876D01*
X94953680Y-72966225D01*
X94953680Y-75892293D01*
X94804700Y-75863580D01*
X94647287Y-75863580D01*
X94490591Y-75878543D01*
X94445680Y-75891730D01*
X94445680Y-72969434D01*
X94445679Y-72969434D01*
X94323267Y-72981749D01*
X94029172Y-73051835D01*
X94029171Y-73051835D01*
X93747061Y-73160487D01*
X93481938Y-73305778D01*
X93238550Y-73485108D01*
X93021234Y-73695280D01*
X93021231Y-73695284D01*
X92833879Y-73932531D01*
X92833875Y-73932537D01*
X92679808Y-74192653D01*
X92679806Y-74192658D01*
X92561787Y-74470980D01*
X92561784Y-74470989D01*
X92481916Y-74762555D01*
X92441620Y-75062184D01*
X92441620Y-76709400D01*
X93625069Y-76709400D01*
X93596108Y-76910830D01*
X93606103Y-77120633D01*
X93629578Y-77217400D01*
X92441620Y-77217400D01*
X92441620Y-78788953D01*
X87155840Y-78788953D01*
X87155840Y-77217400D01*
X85972391Y-77217400D01*
X86001352Y-77015970D01*
X85991357Y-76806167D01*
X85967882Y-76709400D01*
X87155840Y-76709400D01*
X87155840Y-75137847D01*
X87140700Y-74911696D01*
X87140699Y-74911687D01*
X87080484Y-74615439D01*
X87080482Y-74615431D01*
X86981317Y-74329849D01*
X86981313Y-74329840D01*
X86844966Y-74060017D01*
X86673868Y-73810773D01*
X86471081Y-73586561D01*
X86471067Y-73586548D01*
X86240213Y-73391375D01*
X86240212Y-73391374D01*
X85985390Y-73228701D01*
X85711166Y-73101447D01*
X85711161Y-73101446D01*
X85422415Y-73011876D01*
X85151780Y-72966225D01*
X85151780Y-75892293D01*
X85002800Y-75863580D01*
X84845387Y-75863580D01*
X84688691Y-75878543D01*
X84643780Y-75891730D01*
X84643780Y-72969434D01*
X84643779Y-72969434D01*
X84521367Y-72981749D01*
X84227272Y-73051835D01*
X84227271Y-73051835D01*
X83945161Y-73160487D01*
X83794013Y-73243319D01*
X83724662Y-73258515D01*
X83658104Y-73233806D01*
X83615471Y-73177034D01*
X83607460Y-73132823D01*
X83607460Y-72952740D01*
X82730928Y-72952740D01*
X82759203Y-72908743D01*
X82799740Y-72770684D01*
X82799740Y-72626796D01*
X82759203Y-72488737D01*
X82730928Y-72444740D01*
X83607460Y-72444740D01*
X83607460Y-72192045D01*
X83592507Y-72021139D01*
X83533268Y-71800055D01*
X83533266Y-71800051D01*
X83436533Y-71592608D01*
X83305255Y-71405122D01*
X83305252Y-71405119D01*
X83143398Y-71243266D01*
X82955909Y-71111985D01*
X82748468Y-71015253D01*
X82748464Y-71015251D01*
X82553360Y-70962973D01*
X82553360Y-72264646D01*
X82441783Y-72213691D01*
X82335152Y-72198360D01*
X82263568Y-72198360D01*
X82156937Y-72213691D01*
X82045360Y-72264646D01*
X82045360Y-70962973D01*
X81850255Y-71015251D01*
X81850251Y-71015253D01*
X81642808Y-71111986D01*
X81455322Y-71243264D01*
X81455312Y-71243273D01*
X81293473Y-71405112D01*
X81293464Y-71405122D01*
X81162186Y-71592608D01*
X81159434Y-71597376D01*
X81157327Y-71596160D01*
X81117187Y-71641709D01*
X81048901Y-71661141D01*
X80980950Y-71640569D01*
X80942327Y-71595989D01*
X80940361Y-71597125D01*
X80937612Y-71592363D01*
X80806277Y-71404798D01*
X80806275Y-71404795D01*
X80644365Y-71242885D01*
X80456800Y-71111550D01*
X80249280Y-71014782D01*
X80249275Y-71014780D01*
X80146628Y-70987276D01*
X80028104Y-70955518D01*
X79800000Y-70935561D01*
X79571896Y-70955518D01*
X79544074Y-70962973D01*
X79350724Y-71014780D01*
X79350719Y-71014782D01*
X79143200Y-71111550D01*
X78955638Y-71242882D01*
X78955632Y-71242887D01*
X78793727Y-71404792D01*
X78793722Y-71404798D01*
X78662390Y-71592360D01*
X78565622Y-71799879D01*
X78565620Y-71799884D01*
X78522237Y-71961794D01*
X78506358Y-72021056D01*
X78491400Y-72192023D01*
X78491400Y-73205457D01*
X75737201Y-73205457D01*
X75513066Y-73101447D01*
X75513061Y-73101446D01*
X75224315Y-73011876D01*
X74953680Y-72966225D01*
X74953680Y-75892293D01*
X74804700Y-75863580D01*
X74647287Y-75863580D01*
X74490591Y-75878543D01*
X74445680Y-75891730D01*
X74445680Y-72969434D01*
X74323267Y-72981749D01*
X74029172Y-73051835D01*
X74029171Y-73051835D01*
X73747061Y-73160487D01*
X73481938Y-73305778D01*
X73238550Y-73485108D01*
X73021234Y-73695280D01*
X73021231Y-73695284D01*
X72833879Y-73932531D01*
X72833875Y-73932537D01*
X72679808Y-74192653D01*
X72679806Y-74192658D01*
X72561787Y-74470980D01*
X72561784Y-74470989D01*
X72481916Y-74762555D01*
X72441620Y-75062184D01*
X72441620Y-76709400D01*
X73625069Y-76709400D01*
X73596108Y-76910830D01*
X73606103Y-77120633D01*
X73629578Y-77217400D01*
X72441620Y-77217400D01*
X72441620Y-78788953D01*
X67155840Y-78788953D01*
X67155840Y-77217400D01*
X65972391Y-77217400D01*
X66001352Y-77015970D01*
X65991357Y-76806167D01*
X65967882Y-76709400D01*
X67155840Y-76709400D01*
X67155840Y-75137847D01*
X67140700Y-74911696D01*
X67140699Y-74911687D01*
X67080484Y-74615439D01*
X67080482Y-74615431D01*
X66981317Y-74329849D01*
X66981313Y-74329840D01*
X66844966Y-74060017D01*
X66673868Y-73810773D01*
X66471081Y-73586561D01*
X66471067Y-73586548D01*
X66240213Y-73391375D01*
X66240212Y-73391374D01*
X65985390Y-73228701D01*
X65711166Y-73101447D01*
X65711161Y-73101446D01*
X65422415Y-73011876D01*
X65151780Y-72966225D01*
X65151780Y-75892293D01*
X65002800Y-75863580D01*
X64845387Y-75863580D01*
X64688691Y-75878543D01*
X64643780Y-75891730D01*
X64643780Y-72969434D01*
X64643779Y-72969434D01*
X64521367Y-72981749D01*
X64227272Y-73051835D01*
X64227271Y-73051835D01*
X63945161Y-73160487D01*
X63794013Y-73243319D01*
X63724662Y-73258515D01*
X63658104Y-73233806D01*
X63615471Y-73177034D01*
X63607460Y-73132823D01*
X63607460Y-72952740D01*
X62730928Y-72952740D01*
X62759203Y-72908743D01*
X62799740Y-72770684D01*
X62799740Y-72626796D01*
X62759203Y-72488737D01*
X62730928Y-72444740D01*
X63607460Y-72444740D01*
X63607460Y-72192045D01*
X63592507Y-72021139D01*
X63533268Y-71800055D01*
X63533266Y-71800051D01*
X63436533Y-71592608D01*
X63305255Y-71405122D01*
X63305252Y-71405119D01*
X63143398Y-71243266D01*
X62955909Y-71111985D01*
X62748468Y-71015253D01*
X62748464Y-71015251D01*
X62553360Y-70962973D01*
X62553360Y-72264646D01*
X62441783Y-72213691D01*
X62335152Y-72198360D01*
X62263568Y-72198360D01*
X62156937Y-72213691D01*
X62045360Y-72264646D01*
X62045360Y-70962973D01*
X61850255Y-71015251D01*
X61850251Y-71015253D01*
X61642808Y-71111986D01*
X61455322Y-71243264D01*
X61455312Y-71243273D01*
X61293473Y-71405112D01*
X61293464Y-71405122D01*
X61162186Y-71592608D01*
X61159434Y-71597376D01*
X61157327Y-71596160D01*
X61117187Y-71641709D01*
X61048901Y-71661141D01*
X60980950Y-71640569D01*
X60942327Y-71595989D01*
X60940361Y-71597125D01*
X60937612Y-71592363D01*
X60806277Y-71404798D01*
X60806275Y-71404795D01*
X60644365Y-71242885D01*
X60456800Y-71111550D01*
X60249280Y-71014782D01*
X60249275Y-71014780D01*
X60146628Y-70987276D01*
X60028104Y-70955518D01*
X59800000Y-70935561D01*
X59571896Y-70955518D01*
X59544074Y-70962973D01*
X59350724Y-71014780D01*
X59350719Y-71014782D01*
X59143200Y-71111550D01*
X58955638Y-71242882D01*
X58955632Y-71242887D01*
X58793727Y-71404792D01*
X58793722Y-71404798D01*
X58662390Y-71592360D01*
X58565622Y-71799879D01*
X58565620Y-71799884D01*
X58522237Y-71961794D01*
X58506358Y-72021056D01*
X58491400Y-72192023D01*
X58491400Y-73205457D01*
X55737201Y-73205457D01*
X55513066Y-73101447D01*
X55513061Y-73101446D01*
X55224315Y-73011876D01*
X54953680Y-72966225D01*
X54953680Y-75892293D01*
X54804700Y-75863580D01*
X54647287Y-75863580D01*
X54490591Y-75878543D01*
X54445680Y-75891730D01*
X54445680Y-72969434D01*
X54445679Y-72969434D01*
X54323267Y-72981749D01*
X54029172Y-73051835D01*
X54029171Y-73051835D01*
X53747061Y-73160487D01*
X53481938Y-73305778D01*
X53238550Y-73485108D01*
X53021234Y-73695280D01*
X53021231Y-73695284D01*
X52833879Y-73932531D01*
X52833875Y-73932537D01*
X52679808Y-74192653D01*
X52679806Y-74192658D01*
X52561787Y-74470980D01*
X52561784Y-74470989D01*
X52481916Y-74762555D01*
X52441620Y-75062184D01*
X52441620Y-76709400D01*
X53625069Y-76709400D01*
X53596108Y-76910830D01*
X53606103Y-77120633D01*
X53629578Y-77217400D01*
X52441620Y-77217400D01*
X52441620Y-78788953D01*
X50000500Y-78788953D01*
X50000500Y-65067765D01*
X58145788Y-65067765D01*
X58175412Y-65337014D01*
X58243928Y-65599090D01*
X58349869Y-65848389D01*
X58349870Y-65848390D01*
X58490982Y-66079610D01*
X58664255Y-66287820D01*
X58865998Y-66468582D01*
X59091910Y-66618044D01*
X59337176Y-66733020D01*
X59596569Y-66811060D01*
X59596572Y-66811060D01*
X59596574Y-66811061D01*
X59864557Y-66850500D01*
X59864561Y-66850500D01*
X60067633Y-66850500D01*
X60102363Y-66847957D01*
X60270156Y-66835677D01*
X60270160Y-66835676D01*
X60270161Y-66835676D01*
X60380665Y-66811060D01*
X60534553Y-66776780D01*
X60787558Y-66680014D01*
X61023777Y-66547441D01*
X61238177Y-66381888D01*
X61426186Y-66186881D01*
X61583799Y-65966579D01*
X61707656Y-65725675D01*
X61795118Y-65469305D01*
X61844319Y-65202933D01*
X61849259Y-65067765D01*
X158145788Y-65067765D01*
X158175412Y-65337014D01*
X158243928Y-65599090D01*
X158349869Y-65848389D01*
X158349870Y-65848390D01*
X158490982Y-66079610D01*
X158664255Y-66287820D01*
X158865998Y-66468582D01*
X159091910Y-66618044D01*
X159337176Y-66733020D01*
X159596569Y-66811060D01*
X159596572Y-66811060D01*
X159596574Y-66811061D01*
X159864557Y-66850500D01*
X159864561Y-66850500D01*
X160067633Y-66850500D01*
X160102363Y-66847957D01*
X160270156Y-66835677D01*
X160270160Y-66835676D01*
X160270161Y-66835676D01*
X160380665Y-66811060D01*
X160534553Y-66776780D01*
X160787558Y-66680014D01*
X161023777Y-66547441D01*
X161238177Y-66381888D01*
X161426186Y-66186881D01*
X161583799Y-65966579D01*
X161707656Y-65725675D01*
X161795118Y-65469305D01*
X161844319Y-65202933D01*
X161854212Y-64932235D01*
X161839338Y-64797058D01*
X161824587Y-64662985D01*
X161756071Y-64400909D01*
X161650130Y-64151610D01*
X161509018Y-63920390D01*
X161335745Y-63712180D01*
X161335741Y-63712177D01*
X161335740Y-63712175D01*
X161134012Y-63531427D01*
X161134002Y-63531418D01*
X160908090Y-63381956D01*
X160662824Y-63266980D01*
X160505392Y-63219615D01*
X160403425Y-63188938D01*
X160135442Y-63149500D01*
X160135439Y-63149500D01*
X159932369Y-63149500D01*
X159932367Y-63149500D01*
X159729839Y-63164323D01*
X159729838Y-63164323D01*
X159465456Y-63223217D01*
X159465441Y-63223222D01*
X159212441Y-63319986D01*
X158976229Y-63452555D01*
X158976225Y-63452557D01*
X158761818Y-63618116D01*
X158573815Y-63813117D01*
X158573810Y-63813123D01*
X158416203Y-64033417D01*
X158416196Y-64033427D01*
X158292343Y-64274324D01*
X158292342Y-64274327D01*
X158204883Y-64530689D01*
X158204880Y-64530702D01*
X158155681Y-64797058D01*
X158155680Y-64797069D01*
X158145788Y-65067765D01*
X61849259Y-65067765D01*
X61854212Y-64932235D01*
X61839338Y-64797058D01*
X61824587Y-64662985D01*
X61756071Y-64400909D01*
X61650130Y-64151610D01*
X61509018Y-63920390D01*
X61335745Y-63712180D01*
X61335741Y-63712177D01*
X61335740Y-63712175D01*
X61134012Y-63531427D01*
X61134002Y-63531418D01*
X60908090Y-63381956D01*
X60662824Y-63266980D01*
X60505392Y-63219615D01*
X60403425Y-63188938D01*
X60135442Y-63149500D01*
X60135439Y-63149500D01*
X59932369Y-63149500D01*
X59932367Y-63149500D01*
X59729839Y-63164323D01*
X59729838Y-63164323D01*
X59465456Y-63223217D01*
X59465441Y-63223222D01*
X59212441Y-63319986D01*
X58976229Y-63452555D01*
X58976225Y-63452557D01*
X58761818Y-63618116D01*
X58573815Y-63813117D01*
X58573810Y-63813123D01*
X58416203Y-64033417D01*
X58416196Y-64033427D01*
X58292343Y-64274324D01*
X58292342Y-64274327D01*
X58204883Y-64530689D01*
X58204880Y-64530702D01*
X58155681Y-64797058D01*
X58155680Y-64797069D01*
X58145788Y-65067765D01*
X50000500Y-65067765D01*
X50000500Y-60300544D01*
X68641500Y-60300544D01*
X68652112Y-60404425D01*
X68707885Y-60572738D01*
X68800970Y-60723652D01*
X68800975Y-60723658D01*
X68926341Y-60849024D01*
X68926347Y-60849029D01*
X68926348Y-60849030D01*
X69077262Y-60942115D01*
X69245574Y-60997887D01*
X69349455Y-61008500D01*
X70650544Y-61008499D01*
X70754426Y-60997887D01*
X70922738Y-60942115D01*
X71073652Y-60849030D01*
X71199030Y-60723652D01*
X71289331Y-60577250D01*
X71342115Y-60529775D01*
X71412190Y-60518372D01*
X71477305Y-60546664D01*
X71487536Y-60556216D01*
X71599556Y-60673096D01*
X71599564Y-60673102D01*
X71785413Y-60810556D01*
X71991834Y-60914630D01*
X71991833Y-60914630D01*
X72212864Y-60982320D01*
X72246000Y-60986562D01*
X72246000Y-59933674D01*
X72357685Y-59984680D01*
X72464237Y-60000000D01*
X72535763Y-60000000D01*
X72642315Y-59984680D01*
X72754000Y-59933674D01*
X72754000Y-60984437D01*
X72899093Y-60953167D01*
X73113587Y-60866977D01*
X73310435Y-60745772D01*
X73483961Y-60593048D01*
X73483964Y-60593045D01*
X73629180Y-60413199D01*
X73706079Y-60275544D01*
X78641500Y-60275544D01*
X78652112Y-60379425D01*
X78707885Y-60547738D01*
X78800970Y-60698652D01*
X78800975Y-60698658D01*
X78926341Y-60824024D01*
X78926347Y-60824029D01*
X78926348Y-60824030D01*
X79077262Y-60917115D01*
X79245574Y-60972887D01*
X79349455Y-60983500D01*
X80650544Y-60983499D01*
X80754426Y-60972887D01*
X80922738Y-60917115D01*
X81073652Y-60824030D01*
X81199030Y-60698652D01*
X81289059Y-60552691D01*
X81341844Y-60505215D01*
X81411919Y-60493812D01*
X81477035Y-60522104D01*
X81487260Y-60531651D01*
X81546102Y-60593045D01*
X81599230Y-60648478D01*
X81785154Y-60785986D01*
X81852841Y-60820112D01*
X81991643Y-60890095D01*
X82212757Y-60957811D01*
X82442135Y-60987184D01*
X82673178Y-60977369D01*
X82899238Y-60928649D01*
X83113813Y-60842426D01*
X83310730Y-60721179D01*
X83484324Y-60568398D01*
X83629600Y-60388476D01*
X83641448Y-60367266D01*
X83692127Y-60317554D01*
X83761643Y-60303130D01*
X83827922Y-60328580D01*
X83855838Y-60358160D01*
X83939217Y-60481523D01*
X84046102Y-60593045D01*
X84099230Y-60648478D01*
X84285154Y-60785986D01*
X84352841Y-60820112D01*
X84491643Y-60890095D01*
X84712757Y-60957811D01*
X84942135Y-60987184D01*
X85173178Y-60977369D01*
X85399238Y-60928649D01*
X85613813Y-60842426D01*
X85810730Y-60721179D01*
X85984324Y-60568398D01*
X86129600Y-60388476D01*
X86141448Y-60367266D01*
X86192127Y-60317554D01*
X86261643Y-60303130D01*
X86327922Y-60328580D01*
X86355838Y-60358160D01*
X86439217Y-60481523D01*
X86546102Y-60593045D01*
X86599230Y-60648478D01*
X86785154Y-60785986D01*
X86852841Y-60820112D01*
X86991643Y-60890095D01*
X87212757Y-60957811D01*
X87442135Y-60987184D01*
X87673178Y-60977369D01*
X87899238Y-60928649D01*
X88113813Y-60842426D01*
X88310730Y-60721179D01*
X88484324Y-60568398D01*
X88629600Y-60388476D01*
X88641448Y-60367266D01*
X88692127Y-60317554D01*
X88761643Y-60303130D01*
X88827922Y-60328580D01*
X88855838Y-60358160D01*
X88939217Y-60481523D01*
X89046102Y-60593045D01*
X89099230Y-60648478D01*
X89285154Y-60785986D01*
X89352841Y-60820112D01*
X89491643Y-60890095D01*
X89712757Y-60957811D01*
X89942135Y-60987184D01*
X90173178Y-60977369D01*
X90399238Y-60928649D01*
X90613813Y-60842426D01*
X90810730Y-60721179D01*
X90984324Y-60568398D01*
X91129600Y-60388476D01*
X91141448Y-60367266D01*
X91192127Y-60317554D01*
X91261643Y-60303130D01*
X91327922Y-60328580D01*
X91355838Y-60358160D01*
X91439217Y-60481523D01*
X91546102Y-60593045D01*
X91599230Y-60648478D01*
X91785154Y-60785986D01*
X91852841Y-60820112D01*
X91991643Y-60890095D01*
X92212757Y-60957811D01*
X92442135Y-60987184D01*
X92673178Y-60977369D01*
X92899238Y-60928649D01*
X93113813Y-60842426D01*
X93310730Y-60721179D01*
X93484324Y-60568398D01*
X93629600Y-60388476D01*
X93692688Y-60275544D01*
X98641500Y-60275544D01*
X98652112Y-60379425D01*
X98707885Y-60547738D01*
X98800970Y-60698652D01*
X98800975Y-60698658D01*
X98926341Y-60824024D01*
X98926347Y-60824029D01*
X98926348Y-60824030D01*
X99077262Y-60917115D01*
X99245574Y-60972887D01*
X99349455Y-60983500D01*
X100650544Y-60983499D01*
X100754426Y-60972887D01*
X100922738Y-60917115D01*
X101073652Y-60824030D01*
X101199030Y-60698652D01*
X101289059Y-60552691D01*
X101341844Y-60505215D01*
X101411919Y-60493812D01*
X101477035Y-60522104D01*
X101487260Y-60531651D01*
X101546102Y-60593045D01*
X101599230Y-60648478D01*
X101785154Y-60785986D01*
X101852841Y-60820112D01*
X101991643Y-60890095D01*
X102212757Y-60957811D01*
X102442135Y-60987184D01*
X102673178Y-60977369D01*
X102899238Y-60928649D01*
X103113813Y-60842426D01*
X103310730Y-60721179D01*
X103484324Y-60568398D01*
X103629600Y-60388476D01*
X103641448Y-60367266D01*
X103692127Y-60317554D01*
X103761643Y-60303130D01*
X103827922Y-60328580D01*
X103855838Y-60358160D01*
X103939217Y-60481523D01*
X104046102Y-60593045D01*
X104099230Y-60648478D01*
X104285154Y-60785986D01*
X104352841Y-60820112D01*
X104491643Y-60890095D01*
X104712757Y-60957811D01*
X104942135Y-60987184D01*
X105173178Y-60977369D01*
X105399238Y-60928649D01*
X105613813Y-60842426D01*
X105810730Y-60721179D01*
X105984324Y-60568398D01*
X106129600Y-60388476D01*
X106141448Y-60367266D01*
X106192127Y-60317554D01*
X106261643Y-60303130D01*
X106327922Y-60328580D01*
X106355838Y-60358160D01*
X106439217Y-60481523D01*
X106546102Y-60593045D01*
X106599230Y-60648478D01*
X106785154Y-60785986D01*
X106852841Y-60820112D01*
X106991643Y-60890095D01*
X107212757Y-60957811D01*
X107442135Y-60987184D01*
X107673178Y-60977369D01*
X107899238Y-60928649D01*
X108113813Y-60842426D01*
X108310730Y-60721179D01*
X108484324Y-60568398D01*
X108629600Y-60388476D01*
X108641448Y-60367266D01*
X108692127Y-60317554D01*
X108761643Y-60303130D01*
X108827922Y-60328580D01*
X108855838Y-60358160D01*
X108939217Y-60481523D01*
X109046102Y-60593045D01*
X109099230Y-60648478D01*
X109285154Y-60785986D01*
X109352841Y-60820112D01*
X109491643Y-60890095D01*
X109712757Y-60957811D01*
X109942135Y-60987184D01*
X110173178Y-60977369D01*
X110399238Y-60928649D01*
X110613813Y-60842426D01*
X110810730Y-60721179D01*
X110984324Y-60568398D01*
X111129600Y-60388476D01*
X111141448Y-60367266D01*
X111192127Y-60317554D01*
X111261643Y-60303130D01*
X111327922Y-60328580D01*
X111355838Y-60358160D01*
X111439217Y-60481523D01*
X111546102Y-60593045D01*
X111599230Y-60648478D01*
X111785154Y-60785986D01*
X111852841Y-60820112D01*
X111991643Y-60890095D01*
X112212757Y-60957811D01*
X112442135Y-60987184D01*
X112673178Y-60977369D01*
X112899238Y-60928649D01*
X113113813Y-60842426D01*
X113310730Y-60721179D01*
X113484324Y-60568398D01*
X113629600Y-60388476D01*
X113692688Y-60275544D01*
X118641500Y-60275544D01*
X118652112Y-60379425D01*
X118707885Y-60547738D01*
X118800970Y-60698652D01*
X118800975Y-60698658D01*
X118926341Y-60824024D01*
X118926347Y-60824029D01*
X118926348Y-60824030D01*
X119077262Y-60917115D01*
X119245574Y-60972887D01*
X119349455Y-60983500D01*
X120650544Y-60983499D01*
X120754426Y-60972887D01*
X120922738Y-60917115D01*
X121073652Y-60824030D01*
X121199030Y-60698652D01*
X121289059Y-60552691D01*
X121341844Y-60505215D01*
X121411919Y-60493812D01*
X121477035Y-60522104D01*
X121487260Y-60531651D01*
X121546102Y-60593045D01*
X121599230Y-60648478D01*
X121785154Y-60785986D01*
X121852841Y-60820112D01*
X121991643Y-60890095D01*
X122212757Y-60957811D01*
X122442135Y-60987184D01*
X122673178Y-60977369D01*
X122899238Y-60928649D01*
X123113813Y-60842426D01*
X123310730Y-60721179D01*
X123484324Y-60568398D01*
X123629600Y-60388476D01*
X123641448Y-60367266D01*
X123692127Y-60317554D01*
X123761643Y-60303130D01*
X123827922Y-60328580D01*
X123855838Y-60358160D01*
X123939217Y-60481523D01*
X124046102Y-60593045D01*
X124099230Y-60648478D01*
X124285154Y-60785986D01*
X124352841Y-60820112D01*
X124491643Y-60890095D01*
X124712757Y-60957811D01*
X124942135Y-60987184D01*
X125173178Y-60977369D01*
X125399238Y-60928649D01*
X125613813Y-60842426D01*
X125810730Y-60721179D01*
X125984324Y-60568398D01*
X126129600Y-60388476D01*
X126141448Y-60367266D01*
X126192127Y-60317554D01*
X126261643Y-60303130D01*
X126327922Y-60328580D01*
X126355838Y-60358160D01*
X126439217Y-60481523D01*
X126546102Y-60593045D01*
X126599230Y-60648478D01*
X126785154Y-60785986D01*
X126852841Y-60820112D01*
X126991643Y-60890095D01*
X127212757Y-60957811D01*
X127442135Y-60987184D01*
X127673178Y-60977369D01*
X127899238Y-60928649D01*
X128113813Y-60842426D01*
X128310730Y-60721179D01*
X128484324Y-60568398D01*
X128629600Y-60388476D01*
X128641448Y-60367266D01*
X128692127Y-60317554D01*
X128761643Y-60303130D01*
X128827922Y-60328580D01*
X128855838Y-60358160D01*
X128939217Y-60481523D01*
X129046102Y-60593045D01*
X129099230Y-60648478D01*
X129285154Y-60785986D01*
X129352841Y-60820112D01*
X129491643Y-60890095D01*
X129712757Y-60957811D01*
X129942135Y-60987184D01*
X130173178Y-60977369D01*
X130399238Y-60928649D01*
X130613813Y-60842426D01*
X130810730Y-60721179D01*
X130984324Y-60568398D01*
X131129600Y-60388476D01*
X131141448Y-60367266D01*
X131192127Y-60317554D01*
X131261643Y-60303130D01*
X131327922Y-60328580D01*
X131355838Y-60358160D01*
X131439217Y-60481523D01*
X131546102Y-60593045D01*
X131599230Y-60648478D01*
X131785154Y-60785986D01*
X131852841Y-60820112D01*
X131991643Y-60890095D01*
X132212757Y-60957811D01*
X132442135Y-60987184D01*
X132673178Y-60977369D01*
X132899238Y-60928649D01*
X133113813Y-60842426D01*
X133310730Y-60721179D01*
X133484324Y-60568398D01*
X133629600Y-60388476D01*
X133692688Y-60275544D01*
X138641500Y-60275544D01*
X138652112Y-60379425D01*
X138707885Y-60547738D01*
X138800970Y-60698652D01*
X138800975Y-60698658D01*
X138926341Y-60824024D01*
X138926347Y-60824029D01*
X138926348Y-60824030D01*
X139077262Y-60917115D01*
X139245574Y-60972887D01*
X139349455Y-60983500D01*
X140650544Y-60983499D01*
X140754426Y-60972887D01*
X140922738Y-60917115D01*
X141073652Y-60824030D01*
X141199030Y-60698652D01*
X141289059Y-60552691D01*
X141341844Y-60505215D01*
X141411919Y-60493812D01*
X141477035Y-60522104D01*
X141487260Y-60531651D01*
X141546102Y-60593045D01*
X141599230Y-60648478D01*
X141785154Y-60785986D01*
X141852841Y-60820112D01*
X141991643Y-60890095D01*
X142212757Y-60957811D01*
X142442135Y-60987184D01*
X142673178Y-60977369D01*
X142899238Y-60928649D01*
X143113813Y-60842426D01*
X143310730Y-60721179D01*
X143484324Y-60568398D01*
X143629600Y-60388476D01*
X143641448Y-60367266D01*
X143692127Y-60317554D01*
X143761643Y-60303130D01*
X143827922Y-60328580D01*
X143855838Y-60358160D01*
X143939217Y-60481523D01*
X144046102Y-60593045D01*
X144099230Y-60648478D01*
X144285154Y-60785986D01*
X144352841Y-60820112D01*
X144491643Y-60890095D01*
X144712757Y-60957811D01*
X144942135Y-60987184D01*
X145173178Y-60977369D01*
X145399238Y-60928649D01*
X145613813Y-60842426D01*
X145810730Y-60721179D01*
X145984324Y-60568398D01*
X146129600Y-60388476D01*
X146141448Y-60367266D01*
X146192127Y-60317554D01*
X146261643Y-60303130D01*
X146327922Y-60328580D01*
X146355838Y-60358160D01*
X146439217Y-60481523D01*
X146546102Y-60593045D01*
X146599230Y-60648478D01*
X146785154Y-60785986D01*
X146852841Y-60820112D01*
X146991643Y-60890095D01*
X147212757Y-60957811D01*
X147442135Y-60987184D01*
X147673178Y-60977369D01*
X147899238Y-60928649D01*
X148113813Y-60842426D01*
X148310730Y-60721179D01*
X148484324Y-60568398D01*
X148629600Y-60388476D01*
X148641448Y-60367266D01*
X148692127Y-60317554D01*
X148761643Y-60303130D01*
X148827922Y-60328580D01*
X148855838Y-60358160D01*
X148939217Y-60481523D01*
X149046102Y-60593045D01*
X149099230Y-60648478D01*
X149285154Y-60785986D01*
X149352841Y-60820112D01*
X149491643Y-60890095D01*
X149712757Y-60957811D01*
X149942135Y-60987184D01*
X150173178Y-60977369D01*
X150399238Y-60928649D01*
X150613813Y-60842426D01*
X150810730Y-60721179D01*
X150984324Y-60568398D01*
X151129600Y-60388476D01*
X151141448Y-60367266D01*
X151192127Y-60317554D01*
X151261643Y-60303130D01*
X151327922Y-60328580D01*
X151355838Y-60358160D01*
X151439217Y-60481523D01*
X151546102Y-60593045D01*
X151599230Y-60648478D01*
X151785154Y-60785986D01*
X151852841Y-60820112D01*
X151991643Y-60890095D01*
X152212757Y-60957811D01*
X152442135Y-60987184D01*
X152673178Y-60977369D01*
X152899238Y-60928649D01*
X153113813Y-60842426D01*
X153310730Y-60721179D01*
X153484324Y-60568398D01*
X153629600Y-60388476D01*
X153742380Y-60186591D01*
X153819419Y-59968550D01*
X153858500Y-59740625D01*
X153858500Y-59317287D01*
X153843801Y-59144582D01*
X153785530Y-58920793D01*
X153690278Y-58710071D01*
X153560783Y-58518477D01*
X153400772Y-58351524D01*
X153400771Y-58351523D01*
X153400769Y-58351521D01*
X153214845Y-58214013D01*
X153079470Y-58145759D01*
X153008357Y-58109905D01*
X153008354Y-58109904D01*
X153008352Y-58109903D01*
X152882466Y-58071351D01*
X152787243Y-58042189D01*
X152557865Y-58012816D01*
X152557861Y-58012816D01*
X152557853Y-58012815D01*
X152326821Y-58022630D01*
X152100759Y-58071351D01*
X151886184Y-58157575D01*
X151886180Y-58157577D01*
X151689272Y-58278819D01*
X151689268Y-58278822D01*
X151515676Y-58431601D01*
X151370401Y-58611522D01*
X151358552Y-58632733D01*
X151307867Y-58682448D01*
X151238350Y-58696868D01*
X151172073Y-58671416D01*
X151144161Y-58641839D01*
X151060783Y-58518477D01*
X150900772Y-58351524D01*
X150900771Y-58351523D01*
X150900769Y-58351521D01*
X150714845Y-58214013D01*
X150579470Y-58145759D01*
X150508357Y-58109905D01*
X150508354Y-58109904D01*
X150508352Y-58109903D01*
X150382466Y-58071351D01*
X150287243Y-58042189D01*
X150057865Y-58012816D01*
X150057861Y-58012816D01*
X150057853Y-58012815D01*
X149826821Y-58022630D01*
X149600759Y-58071351D01*
X149386184Y-58157575D01*
X149386180Y-58157577D01*
X149189272Y-58278819D01*
X149189268Y-58278822D01*
X149015676Y-58431601D01*
X148870401Y-58611522D01*
X148858552Y-58632733D01*
X148807867Y-58682448D01*
X148738350Y-58696868D01*
X148672073Y-58671416D01*
X148644161Y-58641839D01*
X148560783Y-58518477D01*
X148400772Y-58351524D01*
X148400771Y-58351523D01*
X148400769Y-58351521D01*
X148214845Y-58214013D01*
X148079470Y-58145759D01*
X148008357Y-58109905D01*
X148008354Y-58109904D01*
X148008352Y-58109903D01*
X147882466Y-58071351D01*
X147787243Y-58042189D01*
X147557865Y-58012816D01*
X147557861Y-58012816D01*
X147557853Y-58012815D01*
X147326821Y-58022630D01*
X147100759Y-58071351D01*
X146886184Y-58157575D01*
X146886180Y-58157577D01*
X146689272Y-58278819D01*
X146689268Y-58278822D01*
X146515676Y-58431601D01*
X146370401Y-58611522D01*
X146358552Y-58632733D01*
X146307867Y-58682448D01*
X146238350Y-58696868D01*
X146172073Y-58671416D01*
X146144161Y-58641839D01*
X146060783Y-58518477D01*
X145900772Y-58351524D01*
X145900771Y-58351523D01*
X145900769Y-58351521D01*
X145714845Y-58214013D01*
X145579470Y-58145759D01*
X145508357Y-58109905D01*
X145508354Y-58109904D01*
X145508352Y-58109903D01*
X145382466Y-58071351D01*
X145287243Y-58042189D01*
X145057865Y-58012816D01*
X145057861Y-58012816D01*
X145057853Y-58012815D01*
X144826821Y-58022630D01*
X144600759Y-58071351D01*
X144386184Y-58157575D01*
X144386180Y-58157577D01*
X144189272Y-58278819D01*
X144189268Y-58278822D01*
X144015676Y-58431601D01*
X143870401Y-58611522D01*
X143858552Y-58632733D01*
X143807867Y-58682448D01*
X143738350Y-58696868D01*
X143672073Y-58671416D01*
X143644161Y-58641839D01*
X143560783Y-58518477D01*
X143400772Y-58351524D01*
X143400771Y-58351523D01*
X143400769Y-58351521D01*
X143214845Y-58214013D01*
X143079470Y-58145759D01*
X143008357Y-58109905D01*
X143008354Y-58109904D01*
X143008352Y-58109903D01*
X142882466Y-58071351D01*
X142787243Y-58042189D01*
X142557865Y-58012816D01*
X142557861Y-58012816D01*
X142557853Y-58012815D01*
X142326821Y-58022630D01*
X142100759Y-58071351D01*
X141886184Y-58157575D01*
X141886180Y-58157577D01*
X141689272Y-58278819D01*
X141689268Y-58278822D01*
X141515674Y-58431602D01*
X141493533Y-58459024D01*
X141435175Y-58499458D01*
X141364222Y-58501922D01*
X141303199Y-58465635D01*
X141288261Y-58446014D01*
X141229977Y-58351521D01*
X141199030Y-58301348D01*
X141199029Y-58301347D01*
X141199024Y-58301341D01*
X141073658Y-58175975D01*
X141073652Y-58175970D01*
X141033129Y-58150975D01*
X140922738Y-58082885D01*
X140813932Y-58046831D01*
X140754427Y-58027113D01*
X140754420Y-58027112D01*
X140650553Y-58016500D01*
X139349455Y-58016500D01*
X139245574Y-58027112D01*
X139077261Y-58082885D01*
X138926347Y-58175970D01*
X138926341Y-58175975D01*
X138800975Y-58301341D01*
X138800970Y-58301347D01*
X138707885Y-58452262D01*
X138652113Y-58620572D01*
X138652112Y-58620579D01*
X138641500Y-58724446D01*
X138641500Y-60275544D01*
X133692688Y-60275544D01*
X133742380Y-60186591D01*
X133819419Y-59968550D01*
X133858500Y-59740625D01*
X133858500Y-59317287D01*
X133843801Y-59144582D01*
X133785530Y-58920793D01*
X133690278Y-58710071D01*
X133560783Y-58518477D01*
X133400772Y-58351524D01*
X133400771Y-58351523D01*
X133400769Y-58351521D01*
X133214845Y-58214013D01*
X133079470Y-58145759D01*
X133008357Y-58109905D01*
X133008354Y-58109904D01*
X133008352Y-58109903D01*
X132882466Y-58071351D01*
X132787243Y-58042189D01*
X132557865Y-58012816D01*
X132557861Y-58012816D01*
X132557853Y-58012815D01*
X132326821Y-58022630D01*
X132100759Y-58071351D01*
X131886184Y-58157575D01*
X131886180Y-58157577D01*
X131689272Y-58278819D01*
X131689268Y-58278822D01*
X131515676Y-58431601D01*
X131370401Y-58611522D01*
X131358552Y-58632733D01*
X131307867Y-58682448D01*
X131238350Y-58696868D01*
X131172073Y-58671416D01*
X131144161Y-58641839D01*
X131060783Y-58518477D01*
X130900772Y-58351524D01*
X130900771Y-58351523D01*
X130900769Y-58351521D01*
X130714845Y-58214013D01*
X130579470Y-58145759D01*
X130508357Y-58109905D01*
X130508354Y-58109904D01*
X130508352Y-58109903D01*
X130382466Y-58071351D01*
X130287243Y-58042189D01*
X130057865Y-58012816D01*
X130057861Y-58012816D01*
X130057853Y-58012815D01*
X129826821Y-58022630D01*
X129600759Y-58071351D01*
X129386184Y-58157575D01*
X129386180Y-58157577D01*
X129189272Y-58278819D01*
X129189268Y-58278822D01*
X129015676Y-58431601D01*
X128870401Y-58611522D01*
X128858552Y-58632733D01*
X128807867Y-58682448D01*
X128738350Y-58696868D01*
X128672073Y-58671416D01*
X128644161Y-58641839D01*
X128560783Y-58518477D01*
X128400772Y-58351524D01*
X128400771Y-58351523D01*
X128400769Y-58351521D01*
X128214845Y-58214013D01*
X128079470Y-58145759D01*
X128008357Y-58109905D01*
X128008354Y-58109904D01*
X128008352Y-58109903D01*
X127882466Y-58071351D01*
X127787243Y-58042189D01*
X127557865Y-58012816D01*
X127557861Y-58012816D01*
X127557853Y-58012815D01*
X127326821Y-58022630D01*
X127100759Y-58071351D01*
X126886184Y-58157575D01*
X126886180Y-58157577D01*
X126689272Y-58278819D01*
X126689268Y-58278822D01*
X126515676Y-58431601D01*
X126370401Y-58611522D01*
X126358552Y-58632733D01*
X126307867Y-58682448D01*
X126238350Y-58696868D01*
X126172073Y-58671416D01*
X126144161Y-58641839D01*
X126060783Y-58518477D01*
X125900772Y-58351524D01*
X125900771Y-58351523D01*
X125900769Y-58351521D01*
X125714845Y-58214013D01*
X125579470Y-58145759D01*
X125508357Y-58109905D01*
X125508354Y-58109904D01*
X125508352Y-58109903D01*
X125382466Y-58071351D01*
X125287243Y-58042189D01*
X125057865Y-58012816D01*
X125057861Y-58012816D01*
X125057853Y-58012815D01*
X124826821Y-58022630D01*
X124600759Y-58071351D01*
X124386184Y-58157575D01*
X124386180Y-58157577D01*
X124189272Y-58278819D01*
X124189268Y-58278822D01*
X124015676Y-58431601D01*
X123870401Y-58611522D01*
X123858552Y-58632733D01*
X123807867Y-58682448D01*
X123738350Y-58696868D01*
X123672073Y-58671416D01*
X123644161Y-58641839D01*
X123560783Y-58518477D01*
X123400772Y-58351524D01*
X123400771Y-58351523D01*
X123400769Y-58351521D01*
X123214845Y-58214013D01*
X123079470Y-58145759D01*
X123008357Y-58109905D01*
X123008354Y-58109904D01*
X123008352Y-58109903D01*
X122882466Y-58071351D01*
X122787243Y-58042189D01*
X122557865Y-58012816D01*
X122557861Y-58012816D01*
X122557853Y-58012815D01*
X122326821Y-58022630D01*
X122100759Y-58071351D01*
X121886184Y-58157575D01*
X121886180Y-58157577D01*
X121689272Y-58278819D01*
X121689268Y-58278822D01*
X121515674Y-58431602D01*
X121493533Y-58459024D01*
X121435175Y-58499458D01*
X121364222Y-58501922D01*
X121303199Y-58465635D01*
X121288261Y-58446014D01*
X121229977Y-58351521D01*
X121199030Y-58301348D01*
X121199029Y-58301347D01*
X121199024Y-58301341D01*
X121073658Y-58175975D01*
X121073652Y-58175970D01*
X121033129Y-58150975D01*
X120922738Y-58082885D01*
X120813932Y-58046831D01*
X120754427Y-58027113D01*
X120754420Y-58027112D01*
X120650553Y-58016500D01*
X119349455Y-58016500D01*
X119245574Y-58027112D01*
X119077261Y-58082885D01*
X118926347Y-58175970D01*
X118926341Y-58175975D01*
X118800975Y-58301341D01*
X118800970Y-58301347D01*
X118707885Y-58452262D01*
X118652113Y-58620572D01*
X118652112Y-58620579D01*
X118641500Y-58724446D01*
X118641500Y-60275544D01*
X113692688Y-60275544D01*
X113742380Y-60186591D01*
X113819419Y-59968550D01*
X113858500Y-59740625D01*
X113858500Y-59317287D01*
X113843801Y-59144582D01*
X113785530Y-58920793D01*
X113690278Y-58710071D01*
X113560783Y-58518477D01*
X113400772Y-58351524D01*
X113400771Y-58351523D01*
X113400769Y-58351521D01*
X113214845Y-58214013D01*
X113079470Y-58145759D01*
X113008357Y-58109905D01*
X113008354Y-58109904D01*
X113008352Y-58109903D01*
X112882466Y-58071351D01*
X112787243Y-58042189D01*
X112557865Y-58012816D01*
X112557861Y-58012816D01*
X112557853Y-58012815D01*
X112326821Y-58022630D01*
X112100759Y-58071351D01*
X111886184Y-58157575D01*
X111886180Y-58157577D01*
X111689272Y-58278819D01*
X111689268Y-58278822D01*
X111515676Y-58431601D01*
X111370401Y-58611522D01*
X111358552Y-58632733D01*
X111307867Y-58682448D01*
X111238350Y-58696868D01*
X111172073Y-58671416D01*
X111144161Y-58641839D01*
X111060783Y-58518477D01*
X110900772Y-58351524D01*
X110900771Y-58351523D01*
X110900769Y-58351521D01*
X110714845Y-58214013D01*
X110579470Y-58145759D01*
X110508357Y-58109905D01*
X110508354Y-58109904D01*
X110508352Y-58109903D01*
X110382466Y-58071351D01*
X110287243Y-58042189D01*
X110057865Y-58012816D01*
X110057861Y-58012816D01*
X110057853Y-58012815D01*
X109826821Y-58022630D01*
X109600759Y-58071351D01*
X109386184Y-58157575D01*
X109386180Y-58157577D01*
X109189272Y-58278819D01*
X109189268Y-58278822D01*
X109015676Y-58431601D01*
X108870401Y-58611522D01*
X108858552Y-58632733D01*
X108807867Y-58682448D01*
X108738350Y-58696868D01*
X108672073Y-58671416D01*
X108644161Y-58641839D01*
X108560783Y-58518477D01*
X108400772Y-58351524D01*
X108400771Y-58351523D01*
X108400769Y-58351521D01*
X108214845Y-58214013D01*
X108079470Y-58145759D01*
X108008357Y-58109905D01*
X108008354Y-58109904D01*
X108008352Y-58109903D01*
X107882466Y-58071351D01*
X107787243Y-58042189D01*
X107557865Y-58012816D01*
X107557861Y-58012816D01*
X107557853Y-58012815D01*
X107326821Y-58022630D01*
X107100759Y-58071351D01*
X106886184Y-58157575D01*
X106886180Y-58157577D01*
X106689272Y-58278819D01*
X106689268Y-58278822D01*
X106515676Y-58431601D01*
X106370401Y-58611522D01*
X106358552Y-58632733D01*
X106307867Y-58682448D01*
X106238350Y-58696868D01*
X106172073Y-58671416D01*
X106144161Y-58641839D01*
X106060783Y-58518477D01*
X105900772Y-58351524D01*
X105900771Y-58351523D01*
X105900769Y-58351521D01*
X105714845Y-58214013D01*
X105579470Y-58145759D01*
X105508357Y-58109905D01*
X105508354Y-58109904D01*
X105508352Y-58109903D01*
X105382466Y-58071351D01*
X105287243Y-58042189D01*
X105057865Y-58012816D01*
X105057861Y-58012816D01*
X105057853Y-58012815D01*
X104826821Y-58022630D01*
X104600759Y-58071351D01*
X104386184Y-58157575D01*
X104386180Y-58157577D01*
X104189272Y-58278819D01*
X104189268Y-58278822D01*
X104015676Y-58431601D01*
X103870401Y-58611522D01*
X103858552Y-58632733D01*
X103807867Y-58682448D01*
X103738350Y-58696868D01*
X103672073Y-58671416D01*
X103644161Y-58641839D01*
X103560783Y-58518477D01*
X103400772Y-58351524D01*
X103400771Y-58351523D01*
X103400769Y-58351521D01*
X103214845Y-58214013D01*
X103079470Y-58145759D01*
X103008357Y-58109905D01*
X103008354Y-58109904D01*
X103008352Y-58109903D01*
X102882466Y-58071351D01*
X102787243Y-58042189D01*
X102557865Y-58012816D01*
X102557861Y-58012816D01*
X102557853Y-58012815D01*
X102326821Y-58022630D01*
X102100759Y-58071351D01*
X101886184Y-58157575D01*
X101886180Y-58157577D01*
X101689272Y-58278819D01*
X101689268Y-58278822D01*
X101515674Y-58431602D01*
X101493533Y-58459024D01*
X101435175Y-58499458D01*
X101364222Y-58501922D01*
X101303199Y-58465635D01*
X101288261Y-58446014D01*
X101229977Y-58351521D01*
X101199030Y-58301348D01*
X101199029Y-58301347D01*
X101199024Y-58301341D01*
X101073658Y-58175975D01*
X101073652Y-58175970D01*
X101033129Y-58150975D01*
X100922738Y-58082885D01*
X100813932Y-58046831D01*
X100754427Y-58027113D01*
X100754420Y-58027112D01*
X100650553Y-58016500D01*
X99349455Y-58016500D01*
X99245574Y-58027112D01*
X99077261Y-58082885D01*
X98926347Y-58175970D01*
X98926341Y-58175975D01*
X98800975Y-58301341D01*
X98800970Y-58301347D01*
X98707885Y-58452262D01*
X98652113Y-58620572D01*
X98652112Y-58620579D01*
X98641500Y-58724446D01*
X98641500Y-60275544D01*
X93692688Y-60275544D01*
X93742380Y-60186591D01*
X93819419Y-59968550D01*
X93858500Y-59740625D01*
X93858500Y-59317287D01*
X93843801Y-59144582D01*
X93785530Y-58920793D01*
X93690278Y-58710071D01*
X93560783Y-58518477D01*
X93400772Y-58351524D01*
X93400771Y-58351523D01*
X93400769Y-58351521D01*
X93214845Y-58214013D01*
X93079470Y-58145759D01*
X93008357Y-58109905D01*
X93008354Y-58109904D01*
X93008352Y-58109903D01*
X92882466Y-58071351D01*
X92787243Y-58042189D01*
X92557865Y-58012816D01*
X92557861Y-58012816D01*
X92557853Y-58012815D01*
X92326821Y-58022630D01*
X92100759Y-58071351D01*
X91886184Y-58157575D01*
X91886180Y-58157577D01*
X91689272Y-58278819D01*
X91689268Y-58278822D01*
X91515676Y-58431601D01*
X91370401Y-58611522D01*
X91358552Y-58632733D01*
X91307867Y-58682448D01*
X91238350Y-58696868D01*
X91172073Y-58671416D01*
X91144161Y-58641839D01*
X91060783Y-58518477D01*
X90900772Y-58351524D01*
X90900771Y-58351523D01*
X90900769Y-58351521D01*
X90714845Y-58214013D01*
X90579470Y-58145759D01*
X90508357Y-58109905D01*
X90508354Y-58109904D01*
X90508352Y-58109903D01*
X90382466Y-58071351D01*
X90287243Y-58042189D01*
X90057865Y-58012816D01*
X90057861Y-58012816D01*
X90057853Y-58012815D01*
X89826821Y-58022630D01*
X89600759Y-58071351D01*
X89386184Y-58157575D01*
X89386180Y-58157577D01*
X89189272Y-58278819D01*
X89189268Y-58278822D01*
X89015676Y-58431601D01*
X88870401Y-58611522D01*
X88858552Y-58632733D01*
X88807867Y-58682448D01*
X88738350Y-58696868D01*
X88672073Y-58671416D01*
X88644161Y-58641839D01*
X88560783Y-58518477D01*
X88400772Y-58351524D01*
X88400771Y-58351523D01*
X88400769Y-58351521D01*
X88214845Y-58214013D01*
X88079470Y-58145759D01*
X88008357Y-58109905D01*
X88008354Y-58109904D01*
X88008352Y-58109903D01*
X87882466Y-58071351D01*
X87787243Y-58042189D01*
X87557865Y-58012816D01*
X87557861Y-58012816D01*
X87557853Y-58012815D01*
X87326821Y-58022630D01*
X87100759Y-58071351D01*
X86886184Y-58157575D01*
X86886180Y-58157577D01*
X86689272Y-58278819D01*
X86689268Y-58278822D01*
X86515676Y-58431601D01*
X86370401Y-58611522D01*
X86358552Y-58632733D01*
X86307867Y-58682448D01*
X86238350Y-58696868D01*
X86172073Y-58671416D01*
X86144161Y-58641839D01*
X86060783Y-58518477D01*
X85900772Y-58351524D01*
X85900771Y-58351523D01*
X85900769Y-58351521D01*
X85714845Y-58214013D01*
X85579470Y-58145759D01*
X85508357Y-58109905D01*
X85508354Y-58109904D01*
X85508352Y-58109903D01*
X85382466Y-58071351D01*
X85287243Y-58042189D01*
X85057865Y-58012816D01*
X85057861Y-58012816D01*
X85057853Y-58012815D01*
X84826821Y-58022630D01*
X84600759Y-58071351D01*
X84386184Y-58157575D01*
X84386180Y-58157577D01*
X84189272Y-58278819D01*
X84189268Y-58278822D01*
X84015676Y-58431601D01*
X83870401Y-58611522D01*
X83858552Y-58632733D01*
X83807867Y-58682448D01*
X83738350Y-58696868D01*
X83672073Y-58671416D01*
X83644161Y-58641839D01*
X83560783Y-58518477D01*
X83400772Y-58351524D01*
X83400771Y-58351523D01*
X83400769Y-58351521D01*
X83214845Y-58214013D01*
X83079470Y-58145759D01*
X83008357Y-58109905D01*
X83008354Y-58109904D01*
X83008352Y-58109903D01*
X82882466Y-58071351D01*
X82787243Y-58042189D01*
X82557865Y-58012816D01*
X82557861Y-58012816D01*
X82557853Y-58012815D01*
X82326821Y-58022630D01*
X82100759Y-58071351D01*
X81886184Y-58157575D01*
X81886180Y-58157577D01*
X81689272Y-58278819D01*
X81689268Y-58278822D01*
X81515674Y-58431602D01*
X81493533Y-58459024D01*
X81435175Y-58499458D01*
X81364222Y-58501922D01*
X81303199Y-58465635D01*
X81288261Y-58446014D01*
X81229977Y-58351521D01*
X81199030Y-58301348D01*
X81199029Y-58301347D01*
X81199024Y-58301341D01*
X81073658Y-58175975D01*
X81073652Y-58175970D01*
X81033129Y-58150975D01*
X80922738Y-58082885D01*
X80813932Y-58046831D01*
X80754427Y-58027113D01*
X80754420Y-58027112D01*
X80650553Y-58016500D01*
X79349455Y-58016500D01*
X79245574Y-58027112D01*
X79077261Y-58082885D01*
X78926347Y-58175970D01*
X78926341Y-58175975D01*
X78800975Y-58301341D01*
X78800970Y-58301347D01*
X78707885Y-58452262D01*
X78652113Y-58620572D01*
X78652112Y-58620579D01*
X78641500Y-58724446D01*
X78641500Y-60275544D01*
X73706079Y-60275544D01*
X73741922Y-60211382D01*
X73818931Y-59993429D01*
X73858000Y-59765580D01*
X73858000Y-59754000D01*
X72931116Y-59754000D01*
X72959493Y-59709844D01*
X73000000Y-59571889D01*
X73000000Y-59428111D01*
X72959493Y-59290156D01*
X72931116Y-59246000D01*
X73854058Y-59246000D01*
X73854057Y-59245999D01*
X73843306Y-59119668D01*
X73843304Y-59119661D01*
X73785059Y-58895966D01*
X73689842Y-58685321D01*
X73689839Y-58685315D01*
X73560393Y-58493794D01*
X73560387Y-58493786D01*
X73400443Y-58326903D01*
X73400435Y-58326897D01*
X73214586Y-58189443D01*
X73008165Y-58085369D01*
X72787137Y-58017680D01*
X72754000Y-58013435D01*
X72754000Y-59066325D01*
X72642315Y-59015320D01*
X72535763Y-59000000D01*
X72464237Y-59000000D01*
X72357685Y-59015320D01*
X72246000Y-59066325D01*
X72246000Y-58015561D01*
X72100906Y-58046831D01*
X71886412Y-58133022D01*
X71689564Y-58254227D01*
X71516038Y-58406951D01*
X71516033Y-58406956D01*
X71493812Y-58434476D01*
X71435454Y-58474910D01*
X71364500Y-58477374D01*
X71303478Y-58441087D01*
X71288540Y-58421466D01*
X71245397Y-58351521D01*
X71199030Y-58276348D01*
X71199029Y-58276347D01*
X71199024Y-58276341D01*
X71073658Y-58150975D01*
X71073652Y-58150970D01*
X70963269Y-58082885D01*
X70922738Y-58057885D01*
X70838582Y-58029999D01*
X70754427Y-58002113D01*
X70754420Y-58002112D01*
X70650553Y-57991500D01*
X69349455Y-57991500D01*
X69245574Y-58002112D01*
X69077261Y-58057885D01*
X68926347Y-58150970D01*
X68926341Y-58150975D01*
X68800975Y-58276341D01*
X68800970Y-58276347D01*
X68707885Y-58427262D01*
X68652113Y-58595572D01*
X68652112Y-58595579D01*
X68641500Y-58699446D01*
X68641500Y-60300544D01*
X50000500Y-60300544D01*
X50000500Y-55126500D01*
X50020502Y-55058379D01*
X50074158Y-55011886D01*
X50126500Y-55000500D01*
X169873500Y-55000500D01*
X169941621Y-55020502D01*
G37*
%TD.AperFunction*%
%TD*%
M02*
