%TF.GenerationSoftware,KiCad,Pcbnew,7.0.8*%
%TF.CreationDate,2024-02-13T18:25:42+01:00*%
%TF.ProjectId,BlankingRelay_Top1,426c616e-6b69-46e6-9752-656c61795f54,rev?*%
%TF.SameCoordinates,Original*%
%TF.FileFunction,Copper,L1,Top*%
%TF.FilePolarity,Positive*%
%FSLAX46Y46*%
G04 Gerber Fmt 4.6, Leading zero omitted, Abs format (unit mm)*
G04 Created by KiCad (PCBNEW 7.0.8) date 2024-02-13 18:25:42*
%MOMM*%
%LPD*%
G01*
G04 APERTURE LIST*
G04 Aperture macros list*
%AMRoundRect*
0 Rectangle with rounded corners*
0 $1 Rounding radius*
0 $2 $3 $4 $5 $6 $7 $8 $9 X,Y pos of 4 corners*
0 Add a 4 corners polygon primitive as box body*
4,1,4,$2,$3,$4,$5,$6,$7,$8,$9,$2,$3,0*
0 Add four circle primitives for the rounded corners*
1,1,$1+$1,$2,$3*
1,1,$1+$1,$4,$5*
1,1,$1+$1,$6,$7*
1,1,$1+$1,$8,$9*
0 Add four rect primitives between the rounded corners*
20,1,$1+$1,$2,$3,$4,$5,0*
20,1,$1+$1,$4,$5,$6,$7,0*
20,1,$1+$1,$6,$7,$8,$9,0*
20,1,$1+$1,$8,$9,$2,$3,0*%
G04 Aperture macros list end*
%TA.AperFunction,ComponentPad*%
%ADD10RoundRect,0.250000X-0.600000X-0.725000X0.600000X-0.725000X0.600000X0.725000X-0.600000X0.725000X0*%
%TD*%
%TA.AperFunction,ComponentPad*%
%ADD11O,1.700000X1.950000*%
%TD*%
%TA.AperFunction,ComponentPad*%
%ADD12RoundRect,0.250000X-0.600000X-0.750000X0.600000X-0.750000X0.600000X0.750000X-0.600000X0.750000X0*%
%TD*%
%TA.AperFunction,ComponentPad*%
%ADD13O,1.700000X2.000000*%
%TD*%
%TA.AperFunction,ComponentPad*%
%ADD14O,1.600200X2.499360*%
%TD*%
%TA.AperFunction,ComponentPad*%
%ADD15O,3.500120X7.000240*%
%TD*%
%TA.AperFunction,Conductor*%
%ADD16C,0.250000*%
%TD*%
G04 APERTURE END LIST*
D10*
%TO.P,J10,1,Pin_1*%
%TO.N,Blanking_Out1*%
X140000000Y-59500000D03*
D11*
%TO.P,J10,2,Pin_2*%
%TO.N,Blanking_Out2*%
X142500000Y-59500000D03*
%TO.P,J10,3,Pin_3*%
%TO.N,Blanking_Out3*%
X145000000Y-59500000D03*
%TO.P,J10,4,Pin_4*%
%TO.N,Blanking_Out4*%
X147500000Y-59500000D03*
%TO.P,J10,5,Pin_5*%
%TO.N,Blanking_Out5*%
X150000000Y-59500000D03*
%TO.P,J10,6,Pin_6*%
%TO.N,Blanking_Out6*%
X152500000Y-59500000D03*
%TD*%
D12*
%TO.P,J11,1,Pin_1*%
%TO.N,5V*%
X70000000Y-59500000D03*
D13*
%TO.P,J11,2,Pin_2*%
%TO.N,GNDREF*%
X72500000Y-59500000D03*
%TD*%
D10*
%TO.P,J8,1,Pin_1*%
%TO.N,Blanking_Out1*%
X100000000Y-59500000D03*
D11*
%TO.P,J8,2,Pin_2*%
%TO.N,Blanking_Out2*%
X102500000Y-59500000D03*
%TO.P,J8,3,Pin_3*%
%TO.N,Blanking_Out3*%
X105000000Y-59500000D03*
%TO.P,J8,4,Pin_4*%
%TO.N,Blanking_Out4*%
X107500000Y-59500000D03*
%TO.P,J8,5,Pin_5*%
%TO.N,Blanking_Out5*%
X110000000Y-59500000D03*
%TO.P,J8,6,Pin_6*%
%TO.N,Blanking_Out6*%
X112500000Y-59500000D03*
%TD*%
D10*
%TO.P,J9,1,Pin_1*%
%TO.N,Blanking_Out1*%
X120000000Y-59500000D03*
D11*
%TO.P,J9,2,Pin_2*%
%TO.N,Blanking_Out2*%
X122500000Y-59500000D03*
%TO.P,J9,3,Pin_3*%
%TO.N,Blanking_Out3*%
X125000000Y-59500000D03*
%TO.P,J9,4,Pin_4*%
%TO.N,Blanking_Out4*%
X127500000Y-59500000D03*
%TO.P,J9,5,Pin_5*%
%TO.N,Blanking_Out5*%
X130000000Y-59500000D03*
%TO.P,J9,6,Pin_6*%
%TO.N,Blanking_Out6*%
X132500000Y-59500000D03*
%TD*%
D10*
%TO.P,J1,1,Pin_1*%
%TO.N,Blanking_Out1*%
X80000000Y-59500000D03*
D11*
%TO.P,J1,2,Pin_2*%
%TO.N,Blanking_Out2*%
X82500000Y-59500000D03*
%TO.P,J1,3,Pin_3*%
%TO.N,Blanking_Out3*%
X85000000Y-59500000D03*
%TO.P,J1,4,Pin_4*%
%TO.N,Blanking_Out4*%
X87500000Y-59500000D03*
%TO.P,J1,5,Pin_5*%
%TO.N,Blanking_Out5*%
X90000000Y-59500000D03*
%TO.P,J1,6,Pin_6*%
%TO.N,Blanking_Out6*%
X92500000Y-59500000D03*
%TD*%
D14*
%TO.P,J6,1,In*%
%TO.N,Blanking_Out5*%
X139800000Y-72698740D03*
D15*
%TO.P,J6,2,Ext*%
%TO.N,GNDREF*%
X144897780Y-76963400D03*
D14*
X142299360Y-72698740D03*
D15*
X134699680Y-76963400D03*
%TD*%
D14*
%TO.P,J7,1,In*%
%TO.N,Blanking_Out6*%
X159800000Y-72698740D03*
D15*
%TO.P,J7,2,Ext*%
%TO.N,GNDREF*%
X164897780Y-76963400D03*
D14*
X162299360Y-72698740D03*
D15*
X154699680Y-76963400D03*
%TD*%
D14*
%TO.P,J5,1,In*%
%TO.N,Blanking_Out4*%
X119800000Y-72698740D03*
D15*
%TO.P,J5,2,Ext*%
%TO.N,GNDREF*%
X124897780Y-76963400D03*
D14*
X122299360Y-72698740D03*
D15*
X114699680Y-76963400D03*
%TD*%
D14*
%TO.P,J3,1,In*%
%TO.N,Blanking_Out2*%
X79800000Y-72698740D03*
D15*
%TO.P,J3,2,Ext*%
%TO.N,GNDREF*%
X84897780Y-76963400D03*
D14*
X82299360Y-72698740D03*
D15*
X74699680Y-76963400D03*
%TD*%
D14*
%TO.P,J4,1,In*%
%TO.N,Blanking_Out3*%
X99800000Y-72698740D03*
D15*
%TO.P,J4,2,Ext*%
%TO.N,GNDREF*%
X104897780Y-76963400D03*
D14*
X102299360Y-72698740D03*
D15*
X94699680Y-76963400D03*
%TD*%
D14*
%TO.P,J2,1,In*%
%TO.N,Blanking_Out1*%
X59800000Y-72698740D03*
D15*
%TO.P,J2,2,Ext*%
%TO.N,GNDREF*%
X64897780Y-76963400D03*
D14*
X62299360Y-72698740D03*
D15*
X54699680Y-76963400D03*
%TD*%
D16*
%TO.N,Blanking_Out6*%
X152275000Y-63100000D02*
X152812500Y-63637500D01*
X152812500Y-63637500D02*
X158525000Y-69350000D01*
X128900000Y-63100000D02*
X152275000Y-63100000D01*
X152500000Y-63325000D02*
X152812500Y-63637500D01*
X128900000Y-63100000D02*
X106300000Y-63100000D01*
X132500000Y-59500000D02*
X128900000Y-63100000D01*
X108900000Y-63100000D02*
X106300000Y-63100000D01*
X106300000Y-63100000D02*
X96100000Y-63100000D01*
X96100000Y-63100000D02*
X92500000Y-59500000D01*
X112500000Y-59500000D02*
X108900000Y-63100000D01*
%TO.N,Blanking_Out5*%
X132200000Y-57300000D02*
X130000000Y-59500000D01*
X133040812Y-57300000D02*
X132200000Y-57300000D01*
X138390812Y-62650000D02*
X133040812Y-57300000D01*
X142325000Y-62650000D02*
X138390812Y-62650000D01*
%TO.N,Blanking_Out4*%
X130150000Y-56850000D02*
X127500000Y-59500000D01*
X133227208Y-56850000D02*
X130150000Y-56850000D01*
X138577208Y-62200000D02*
X133227208Y-56850000D01*
X144800000Y-62200000D02*
X138577208Y-62200000D01*
X147500000Y-59500000D02*
X144800000Y-62200000D01*
%TO.N,Blanking_Out3*%
X128100000Y-56400000D02*
X125318198Y-59181802D01*
X138763604Y-61750000D02*
X133413604Y-56400000D01*
X142750000Y-61750000D02*
X138763604Y-61750000D01*
X133413604Y-56400000D02*
X128100000Y-56400000D01*
X145000000Y-59500000D02*
X142750000Y-61750000D01*
%TO.N,Blanking_Out2*%
X126050000Y-55950000D02*
X122500000Y-59500000D01*
X133600000Y-55950000D02*
X126050000Y-55950000D01*
X140700000Y-61300000D02*
X138950000Y-61300000D01*
X138950000Y-61300000D02*
X133600000Y-55950000D01*
X142500000Y-59500000D02*
X140700000Y-61300000D01*
%TO.N,Blanking_Out1*%
X82300000Y-57200000D02*
X84000000Y-55500000D01*
X85525000Y-55500000D02*
X86300000Y-55500000D01*
X84975000Y-55500000D02*
X85525000Y-55500000D01*
X82300000Y-57200000D02*
X83125000Y-56375000D01*
X84000000Y-55500000D02*
X85525000Y-55500000D01*
X80000000Y-59500000D02*
X82300000Y-57200000D01*
X80000000Y-63275000D02*
X80000000Y-59500000D01*
X77375000Y-65900000D02*
X80000000Y-63275000D01*
X66598740Y-65900000D02*
X77375000Y-65900000D01*
X59800000Y-72698740D02*
X66598740Y-65900000D01*
%TO.N,Blanking_Out2*%
X86050000Y-55950000D02*
X87850000Y-55950000D01*
X82500000Y-59500000D02*
X86050000Y-55950000D01*
X87850000Y-55950000D02*
X94311826Y-55950000D01*
%TO.N,Blanking_Out3*%
X88100000Y-56400000D02*
X89200000Y-56400000D01*
X85000000Y-59500000D02*
X88100000Y-56400000D01*
X94125430Y-56400000D02*
X89200000Y-56400000D01*
%TO.N,Blanking_Out4*%
X90150000Y-56850000D02*
X90550000Y-56850000D01*
X87500000Y-59500000D02*
X90150000Y-56850000D01*
X93939034Y-56850000D02*
X90550000Y-56850000D01*
%TO.N,Blanking_Out2*%
X79800000Y-66075000D02*
X79800000Y-72698740D01*
X82500000Y-63375000D02*
X79800000Y-66075000D01*
X82500000Y-59500000D02*
X82500000Y-63375000D01*
%TO.N,Blanking_Out3*%
X91750000Y-70100000D02*
X93850000Y-70100000D01*
X89462500Y-67812500D02*
X91750000Y-70100000D01*
X89462500Y-67812500D02*
X90800000Y-69150000D01*
X93850000Y-70100000D02*
X97201260Y-70100000D01*
X85000000Y-63350000D02*
X89462500Y-67812500D01*
X85000000Y-59500000D02*
X85000000Y-63350000D01*
%TO.N,Blanking_Out5*%
X136301260Y-69200000D02*
X139800000Y-72698740D01*
X95775000Y-69200000D02*
X136301260Y-69200000D01*
X90000000Y-63425000D02*
X95775000Y-69200000D01*
X90000000Y-59500000D02*
X90000000Y-63425000D01*
%TO.N,Blanking_Out4*%
X87500000Y-63300000D02*
X93850000Y-69650000D01*
X87500000Y-59500000D02*
X87500000Y-63300000D01*
X93850000Y-69650000D02*
X95300000Y-69650000D01*
X95300000Y-69650000D02*
X97975000Y-69650000D01*
X87500000Y-59622792D02*
X87500000Y-59500000D01*
X97975000Y-69650000D02*
X97527208Y-69650000D01*
X97975000Y-69650000D02*
X116751260Y-69650000D01*
%TO.N,Blanking_Out6*%
X97900000Y-68750000D02*
X99050000Y-68750000D01*
X92500000Y-59500000D02*
X92500000Y-63350000D01*
X92500000Y-63350000D02*
X97900000Y-68750000D01*
X99050000Y-68750000D02*
X104100000Y-68750000D01*
%TO.N,Blanking_Out5*%
X99102638Y-62650000D02*
X93752638Y-57300000D01*
X93752638Y-57300000D02*
X92200000Y-57300000D01*
X92200000Y-57300000D02*
X90000000Y-59500000D01*
X100000000Y-62650000D02*
X99102638Y-62650000D01*
X106850000Y-62650000D02*
X100000000Y-62650000D01*
%TO.N,Blanking_Out4*%
X116751260Y-69650000D02*
X119800000Y-72698740D01*
X99289034Y-62200000D02*
X93939034Y-56850000D01*
X100200000Y-62200000D02*
X99289034Y-62200000D01*
X104800000Y-62200000D02*
X100200000Y-62200000D01*
%TO.N,Blanking_Out3*%
X97201260Y-70100000D02*
X99800000Y-72698740D01*
X99475430Y-61750000D02*
X94125430Y-56400000D01*
X100625000Y-61750000D02*
X99475430Y-61750000D01*
X102750000Y-61750000D02*
X100625000Y-61750000D01*
%TO.N,Blanking_Out2*%
X94311826Y-55950000D02*
X99661826Y-61300000D01*
X99661826Y-61300000D02*
X100375000Y-61300000D01*
X100700000Y-61300000D02*
X100375000Y-61300000D01*
%TO.N,Blanking_Out1*%
X94575000Y-55500000D02*
X96000000Y-55500000D01*
X97650000Y-57150000D02*
X96800000Y-56300000D01*
X100000000Y-59500000D02*
X97650000Y-57150000D01*
X94575000Y-55500000D02*
X94975000Y-55500000D01*
X96000000Y-55500000D02*
X97650000Y-57150000D01*
X86300000Y-55500000D02*
X94575000Y-55500000D01*
X94975000Y-55500000D02*
X105175000Y-55500000D01*
%TO.N,Blanking_Out2*%
X102500000Y-59500000D02*
X100700000Y-61300000D01*
%TO.N,Blanking_Out3*%
X105000000Y-59500000D02*
X102750000Y-61750000D01*
%TO.N,Blanking_Out4*%
X107500000Y-59500000D02*
X104800000Y-62200000D01*
%TO.N,Blanking_Out5*%
X110000000Y-59500000D02*
X106850000Y-62650000D01*
%TO.N,Blanking_Out6*%
X157925000Y-68750000D02*
X158525000Y-69350000D01*
X137900000Y-68750000D02*
X157925000Y-68750000D01*
X158525000Y-69350000D02*
X159800000Y-70625000D01*
X159800000Y-70625000D02*
X159800000Y-72698740D01*
X152500000Y-59500000D02*
X152500000Y-63325000D01*
X126600000Y-68750000D02*
X137900000Y-68750000D01*
X117900000Y-68750000D02*
X126600000Y-68750000D01*
X104100000Y-68750000D02*
X117900000Y-68750000D01*
%TO.N,Blanking_Out1*%
X105175000Y-55500000D02*
X109900000Y-55500000D01*
%TO.N,Blanking_Out2*%
X106050000Y-55950000D02*
X107525000Y-55950000D01*
X107525000Y-55950000D02*
X113825000Y-55950000D01*
X102500000Y-59500000D02*
X106050000Y-55950000D01*
%TO.N,Blanking_Out3*%
X108100000Y-56400000D02*
X108775000Y-56400000D01*
X105000000Y-59500000D02*
X108100000Y-56400000D01*
X113638604Y-56400000D02*
X108775000Y-56400000D01*
%TO.N,Blanking_Out4*%
X110150000Y-56850000D02*
X111550000Y-56850000D01*
X111550000Y-56850000D02*
X113225000Y-56850000D01*
X107500000Y-59500000D02*
X110150000Y-56850000D01*
%TO.N,Blanking_Out5*%
X112100000Y-57400000D02*
X112500000Y-57400000D01*
X110000000Y-59500000D02*
X112100000Y-57400000D01*
X112500000Y-57400000D02*
X113138604Y-57400000D01*
X118388604Y-62650000D02*
X118700000Y-62650000D01*
X113138604Y-57400000D02*
X118388604Y-62650000D01*
X126850000Y-62650000D02*
X118700000Y-62650000D01*
%TO.N,Blanking_Out4*%
X118575000Y-62200000D02*
X119075000Y-62200000D01*
X113225000Y-56850000D02*
X118575000Y-62200000D01*
X124800000Y-62200000D02*
X119075000Y-62200000D01*
%TO.N,Blanking_Out3*%
X118988604Y-61750000D02*
X113638604Y-56400000D01*
X122750000Y-61750000D02*
X118988604Y-61750000D01*
X125000000Y-59500000D02*
X122750000Y-61750000D01*
%TO.N,Blanking_Out2*%
X113825000Y-55950000D02*
X119175000Y-61300000D01*
X119175000Y-61300000D02*
X120700000Y-61300000D01*
%TO.N,Blanking_Out1*%
X116000000Y-55500000D02*
X118275000Y-57775000D01*
X113700000Y-55500000D02*
X116000000Y-55500000D01*
X118275000Y-57775000D02*
X117250000Y-56750000D01*
X113700000Y-55500000D02*
X115350000Y-55500000D01*
X109900000Y-55500000D02*
X113700000Y-55500000D01*
X120000000Y-59500000D02*
X118275000Y-57775000D01*
X115800000Y-55500000D02*
X115350000Y-55500000D01*
X115350000Y-55500000D02*
X133125000Y-55500000D01*
%TO.N,Blanking_Out2*%
X120700000Y-61300000D02*
X122500000Y-59500000D01*
%TO.N,Blanking_Out4*%
X127500000Y-59500000D02*
X124800000Y-62200000D01*
%TO.N,Blanking_Out5*%
X130000000Y-59500000D02*
X126850000Y-62650000D01*
%TO.N,Blanking_Out1*%
X136000000Y-55500000D02*
X133125000Y-55500000D01*
X137500000Y-57000000D02*
X136000000Y-55500000D01*
X133125000Y-55500000D02*
X133150000Y-55500000D01*
X137500000Y-57000000D02*
X140000000Y-59500000D01*
X136225000Y-55725000D02*
X137500000Y-57000000D01*
X133150000Y-55500000D02*
X135575000Y-55500000D01*
X133150000Y-55500000D02*
X134300000Y-55500000D01*
%TO.N,Blanking_Out5*%
X146850000Y-62650000D02*
X142325000Y-62650000D01*
X150000000Y-59500000D02*
X146850000Y-62650000D01*
X142325000Y-62650000D02*
X143250000Y-62650000D01*
%TO.N,Blanking_Out1*%
X86300000Y-55500000D02*
X88900000Y-55500000D01*
X109900000Y-55500000D02*
X111300000Y-55500000D01*
%TO.N,Blanking_Out3*%
X99800000Y-71700000D02*
X99800000Y-72698740D01*
%TO.N,Blanking_Out2*%
X122500000Y-60300000D02*
X122500000Y-59500000D01*
%TD*%
M02*
