%TF.GenerationSoftware,KiCad,Pcbnew,7.0.8*%
%TF.CreationDate,2024-02-13T18:25:50+01:00*%
%TF.ProjectId,BlankingRelay_Top2,426c616e-6b69-46e6-9752-656c61795f54,rev?*%
%TF.SameCoordinates,Original*%
%TF.FileFunction,Legend,Top*%
%TF.FilePolarity,Positive*%
%FSLAX46Y46*%
G04 Gerber Fmt 4.6, Leading zero omitted, Abs format (unit mm)*
G04 Created by KiCad (PCBNEW 7.0.8) date 2024-02-13 18:25:50*
%MOMM*%
%LPD*%
G01*
G04 APERTURE LIST*
%ADD10C,0.150000*%
%ADD11C,0.120000*%
G04 APERTURE END LIST*
D10*
X121130952Y-59507200D02*
X121273809Y-59554819D01*
X121273809Y-59554819D02*
X121511904Y-59554819D01*
X121511904Y-59554819D02*
X121607142Y-59507200D01*
X121607142Y-59507200D02*
X121654761Y-59459580D01*
X121654761Y-59459580D02*
X121702380Y-59364342D01*
X121702380Y-59364342D02*
X121702380Y-59269104D01*
X121702380Y-59269104D02*
X121654761Y-59173866D01*
X121654761Y-59173866D02*
X121607142Y-59126247D01*
X121607142Y-59126247D02*
X121511904Y-59078628D01*
X121511904Y-59078628D02*
X121321428Y-59031009D01*
X121321428Y-59031009D02*
X121226190Y-58983390D01*
X121226190Y-58983390D02*
X121178571Y-58935771D01*
X121178571Y-58935771D02*
X121130952Y-58840533D01*
X121130952Y-58840533D02*
X121130952Y-58745295D01*
X121130952Y-58745295D02*
X121178571Y-58650057D01*
X121178571Y-58650057D02*
X121226190Y-58602438D01*
X121226190Y-58602438D02*
X121321428Y-58554819D01*
X121321428Y-58554819D02*
X121559523Y-58554819D01*
X121559523Y-58554819D02*
X121702380Y-58602438D01*
X122035714Y-58888152D02*
X122226190Y-59554819D01*
X122226190Y-59554819D02*
X122416666Y-59078628D01*
X122416666Y-59078628D02*
X122607142Y-59554819D01*
X122607142Y-59554819D02*
X122797618Y-58888152D01*
X123178571Y-59554819D02*
X123178571Y-58888152D01*
X123178571Y-58554819D02*
X123130952Y-58602438D01*
X123130952Y-58602438D02*
X123178571Y-58650057D01*
X123178571Y-58650057D02*
X123226190Y-58602438D01*
X123226190Y-58602438D02*
X123178571Y-58554819D01*
X123178571Y-58554819D02*
X123178571Y-58650057D01*
X123511904Y-58888152D02*
X123892856Y-58888152D01*
X123654761Y-58554819D02*
X123654761Y-59411961D01*
X123654761Y-59411961D02*
X123702380Y-59507200D01*
X123702380Y-59507200D02*
X123797618Y-59554819D01*
X123797618Y-59554819D02*
X123892856Y-59554819D01*
X124654761Y-59507200D02*
X124559523Y-59554819D01*
X124559523Y-59554819D02*
X124369047Y-59554819D01*
X124369047Y-59554819D02*
X124273809Y-59507200D01*
X124273809Y-59507200D02*
X124226190Y-59459580D01*
X124226190Y-59459580D02*
X124178571Y-59364342D01*
X124178571Y-59364342D02*
X124178571Y-59078628D01*
X124178571Y-59078628D02*
X124226190Y-58983390D01*
X124226190Y-58983390D02*
X124273809Y-58935771D01*
X124273809Y-58935771D02*
X124369047Y-58888152D01*
X124369047Y-58888152D02*
X124559523Y-58888152D01*
X124559523Y-58888152D02*
X124654761Y-58935771D01*
X125083333Y-59554819D02*
X125083333Y-58554819D01*
X125511904Y-59554819D02*
X125511904Y-59031009D01*
X125511904Y-59031009D02*
X125464285Y-58935771D01*
X125464285Y-58935771D02*
X125369047Y-58888152D01*
X125369047Y-58888152D02*
X125226190Y-58888152D01*
X125226190Y-58888152D02*
X125130952Y-58935771D01*
X125130952Y-58935771D02*
X125083333Y-58983390D01*
X127273809Y-59554819D02*
X126702381Y-59554819D01*
X126988095Y-59554819D02*
X126988095Y-58554819D01*
X126988095Y-58554819D02*
X126892857Y-58697676D01*
X126892857Y-58697676D02*
X126797619Y-58792914D01*
X126797619Y-58792914D02*
X126702381Y-58840533D01*
X127607143Y-58554819D02*
X128226190Y-58554819D01*
X128226190Y-58554819D02*
X127892857Y-58935771D01*
X127892857Y-58935771D02*
X128035714Y-58935771D01*
X128035714Y-58935771D02*
X128130952Y-58983390D01*
X128130952Y-58983390D02*
X128178571Y-59031009D01*
X128178571Y-59031009D02*
X128226190Y-59126247D01*
X128226190Y-59126247D02*
X128226190Y-59364342D01*
X128226190Y-59364342D02*
X128178571Y-59459580D01*
X128178571Y-59459580D02*
X128130952Y-59507200D01*
X128130952Y-59507200D02*
X128035714Y-59554819D01*
X128035714Y-59554819D02*
X127750000Y-59554819D01*
X127750000Y-59554819D02*
X127654762Y-59507200D01*
X127654762Y-59507200D02*
X127607143Y-59459580D01*
X128654762Y-59173866D02*
X129416667Y-59173866D01*
X130416666Y-59554819D02*
X129845238Y-59554819D01*
X130130952Y-59554819D02*
X130130952Y-58554819D01*
X130130952Y-58554819D02*
X130035714Y-58697676D01*
X130035714Y-58697676D02*
X129940476Y-58792914D01*
X129940476Y-58792914D02*
X129845238Y-58840533D01*
X130988095Y-58983390D02*
X130892857Y-58935771D01*
X130892857Y-58935771D02*
X130845238Y-58888152D01*
X130845238Y-58888152D02*
X130797619Y-58792914D01*
X130797619Y-58792914D02*
X130797619Y-58745295D01*
X130797619Y-58745295D02*
X130845238Y-58650057D01*
X130845238Y-58650057D02*
X130892857Y-58602438D01*
X130892857Y-58602438D02*
X130988095Y-58554819D01*
X130988095Y-58554819D02*
X131178571Y-58554819D01*
X131178571Y-58554819D02*
X131273809Y-58602438D01*
X131273809Y-58602438D02*
X131321428Y-58650057D01*
X131321428Y-58650057D02*
X131369047Y-58745295D01*
X131369047Y-58745295D02*
X131369047Y-58792914D01*
X131369047Y-58792914D02*
X131321428Y-58888152D01*
X131321428Y-58888152D02*
X131273809Y-58935771D01*
X131273809Y-58935771D02*
X131178571Y-58983390D01*
X131178571Y-58983390D02*
X130988095Y-58983390D01*
X130988095Y-58983390D02*
X130892857Y-59031009D01*
X130892857Y-59031009D02*
X130845238Y-59078628D01*
X130845238Y-59078628D02*
X130797619Y-59173866D01*
X130797619Y-59173866D02*
X130797619Y-59364342D01*
X130797619Y-59364342D02*
X130845238Y-59459580D01*
X130845238Y-59459580D02*
X130892857Y-59507200D01*
X130892857Y-59507200D02*
X130988095Y-59554819D01*
X130988095Y-59554819D02*
X131178571Y-59554819D01*
X131178571Y-59554819D02*
X131273809Y-59507200D01*
X131273809Y-59507200D02*
X131321428Y-59459580D01*
X131321428Y-59459580D02*
X131369047Y-59364342D01*
X131369047Y-59364342D02*
X131369047Y-59173866D01*
X131369047Y-59173866D02*
X131321428Y-59078628D01*
X131321428Y-59078628D02*
X131273809Y-59031009D01*
X131273809Y-59031009D02*
X131178571Y-58983390D01*
X141130952Y-59507200D02*
X141273809Y-59554819D01*
X141273809Y-59554819D02*
X141511904Y-59554819D01*
X141511904Y-59554819D02*
X141607142Y-59507200D01*
X141607142Y-59507200D02*
X141654761Y-59459580D01*
X141654761Y-59459580D02*
X141702380Y-59364342D01*
X141702380Y-59364342D02*
X141702380Y-59269104D01*
X141702380Y-59269104D02*
X141654761Y-59173866D01*
X141654761Y-59173866D02*
X141607142Y-59126247D01*
X141607142Y-59126247D02*
X141511904Y-59078628D01*
X141511904Y-59078628D02*
X141321428Y-59031009D01*
X141321428Y-59031009D02*
X141226190Y-58983390D01*
X141226190Y-58983390D02*
X141178571Y-58935771D01*
X141178571Y-58935771D02*
X141130952Y-58840533D01*
X141130952Y-58840533D02*
X141130952Y-58745295D01*
X141130952Y-58745295D02*
X141178571Y-58650057D01*
X141178571Y-58650057D02*
X141226190Y-58602438D01*
X141226190Y-58602438D02*
X141321428Y-58554819D01*
X141321428Y-58554819D02*
X141559523Y-58554819D01*
X141559523Y-58554819D02*
X141702380Y-58602438D01*
X142035714Y-58888152D02*
X142226190Y-59554819D01*
X142226190Y-59554819D02*
X142416666Y-59078628D01*
X142416666Y-59078628D02*
X142607142Y-59554819D01*
X142607142Y-59554819D02*
X142797618Y-58888152D01*
X143178571Y-59554819D02*
X143178571Y-58888152D01*
X143178571Y-58554819D02*
X143130952Y-58602438D01*
X143130952Y-58602438D02*
X143178571Y-58650057D01*
X143178571Y-58650057D02*
X143226190Y-58602438D01*
X143226190Y-58602438D02*
X143178571Y-58554819D01*
X143178571Y-58554819D02*
X143178571Y-58650057D01*
X143511904Y-58888152D02*
X143892856Y-58888152D01*
X143654761Y-58554819D02*
X143654761Y-59411961D01*
X143654761Y-59411961D02*
X143702380Y-59507200D01*
X143702380Y-59507200D02*
X143797618Y-59554819D01*
X143797618Y-59554819D02*
X143892856Y-59554819D01*
X144654761Y-59507200D02*
X144559523Y-59554819D01*
X144559523Y-59554819D02*
X144369047Y-59554819D01*
X144369047Y-59554819D02*
X144273809Y-59507200D01*
X144273809Y-59507200D02*
X144226190Y-59459580D01*
X144226190Y-59459580D02*
X144178571Y-59364342D01*
X144178571Y-59364342D02*
X144178571Y-59078628D01*
X144178571Y-59078628D02*
X144226190Y-58983390D01*
X144226190Y-58983390D02*
X144273809Y-58935771D01*
X144273809Y-58935771D02*
X144369047Y-58888152D01*
X144369047Y-58888152D02*
X144559523Y-58888152D01*
X144559523Y-58888152D02*
X144654761Y-58935771D01*
X145083333Y-59554819D02*
X145083333Y-58554819D01*
X145511904Y-59554819D02*
X145511904Y-59031009D01*
X145511904Y-59031009D02*
X145464285Y-58935771D01*
X145464285Y-58935771D02*
X145369047Y-58888152D01*
X145369047Y-58888152D02*
X145226190Y-58888152D01*
X145226190Y-58888152D02*
X145130952Y-58935771D01*
X145130952Y-58935771D02*
X145083333Y-58983390D01*
X147273809Y-59554819D02*
X146702381Y-59554819D01*
X146988095Y-59554819D02*
X146988095Y-58554819D01*
X146988095Y-58554819D02*
X146892857Y-58697676D01*
X146892857Y-58697676D02*
X146797619Y-58792914D01*
X146797619Y-58792914D02*
X146702381Y-58840533D01*
X147750000Y-59554819D02*
X147940476Y-59554819D01*
X147940476Y-59554819D02*
X148035714Y-59507200D01*
X148035714Y-59507200D02*
X148083333Y-59459580D01*
X148083333Y-59459580D02*
X148178571Y-59316723D01*
X148178571Y-59316723D02*
X148226190Y-59126247D01*
X148226190Y-59126247D02*
X148226190Y-58745295D01*
X148226190Y-58745295D02*
X148178571Y-58650057D01*
X148178571Y-58650057D02*
X148130952Y-58602438D01*
X148130952Y-58602438D02*
X148035714Y-58554819D01*
X148035714Y-58554819D02*
X147845238Y-58554819D01*
X147845238Y-58554819D02*
X147750000Y-58602438D01*
X147750000Y-58602438D02*
X147702381Y-58650057D01*
X147702381Y-58650057D02*
X147654762Y-58745295D01*
X147654762Y-58745295D02*
X147654762Y-58983390D01*
X147654762Y-58983390D02*
X147702381Y-59078628D01*
X147702381Y-59078628D02*
X147750000Y-59126247D01*
X147750000Y-59126247D02*
X147845238Y-59173866D01*
X147845238Y-59173866D02*
X148035714Y-59173866D01*
X148035714Y-59173866D02*
X148130952Y-59126247D01*
X148130952Y-59126247D02*
X148178571Y-59078628D01*
X148178571Y-59078628D02*
X148226190Y-58983390D01*
X148654762Y-59173866D02*
X149416667Y-59173866D01*
X149845238Y-58650057D02*
X149892857Y-58602438D01*
X149892857Y-58602438D02*
X149988095Y-58554819D01*
X149988095Y-58554819D02*
X150226190Y-58554819D01*
X150226190Y-58554819D02*
X150321428Y-58602438D01*
X150321428Y-58602438D02*
X150369047Y-58650057D01*
X150369047Y-58650057D02*
X150416666Y-58745295D01*
X150416666Y-58745295D02*
X150416666Y-58840533D01*
X150416666Y-58840533D02*
X150369047Y-58983390D01*
X150369047Y-58983390D02*
X149797619Y-59554819D01*
X149797619Y-59554819D02*
X150416666Y-59554819D01*
X151273809Y-58888152D02*
X151273809Y-59554819D01*
X151035714Y-58507200D02*
X150797619Y-59221485D01*
X150797619Y-59221485D02*
X151416666Y-59221485D01*
X101607143Y-59507200D02*
X101750000Y-59554819D01*
X101750000Y-59554819D02*
X101988095Y-59554819D01*
X101988095Y-59554819D02*
X102083333Y-59507200D01*
X102083333Y-59507200D02*
X102130952Y-59459580D01*
X102130952Y-59459580D02*
X102178571Y-59364342D01*
X102178571Y-59364342D02*
X102178571Y-59269104D01*
X102178571Y-59269104D02*
X102130952Y-59173866D01*
X102130952Y-59173866D02*
X102083333Y-59126247D01*
X102083333Y-59126247D02*
X101988095Y-59078628D01*
X101988095Y-59078628D02*
X101797619Y-59031009D01*
X101797619Y-59031009D02*
X101702381Y-58983390D01*
X101702381Y-58983390D02*
X101654762Y-58935771D01*
X101654762Y-58935771D02*
X101607143Y-58840533D01*
X101607143Y-58840533D02*
X101607143Y-58745295D01*
X101607143Y-58745295D02*
X101654762Y-58650057D01*
X101654762Y-58650057D02*
X101702381Y-58602438D01*
X101702381Y-58602438D02*
X101797619Y-58554819D01*
X101797619Y-58554819D02*
X102035714Y-58554819D01*
X102035714Y-58554819D02*
X102178571Y-58602438D01*
X102511905Y-58888152D02*
X102702381Y-59554819D01*
X102702381Y-59554819D02*
X102892857Y-59078628D01*
X102892857Y-59078628D02*
X103083333Y-59554819D01*
X103083333Y-59554819D02*
X103273809Y-58888152D01*
X103654762Y-59554819D02*
X103654762Y-58888152D01*
X103654762Y-58554819D02*
X103607143Y-58602438D01*
X103607143Y-58602438D02*
X103654762Y-58650057D01*
X103654762Y-58650057D02*
X103702381Y-58602438D01*
X103702381Y-58602438D02*
X103654762Y-58554819D01*
X103654762Y-58554819D02*
X103654762Y-58650057D01*
X103988095Y-58888152D02*
X104369047Y-58888152D01*
X104130952Y-58554819D02*
X104130952Y-59411961D01*
X104130952Y-59411961D02*
X104178571Y-59507200D01*
X104178571Y-59507200D02*
X104273809Y-59554819D01*
X104273809Y-59554819D02*
X104369047Y-59554819D01*
X105130952Y-59507200D02*
X105035714Y-59554819D01*
X105035714Y-59554819D02*
X104845238Y-59554819D01*
X104845238Y-59554819D02*
X104750000Y-59507200D01*
X104750000Y-59507200D02*
X104702381Y-59459580D01*
X104702381Y-59459580D02*
X104654762Y-59364342D01*
X104654762Y-59364342D02*
X104654762Y-59078628D01*
X104654762Y-59078628D02*
X104702381Y-58983390D01*
X104702381Y-58983390D02*
X104750000Y-58935771D01*
X104750000Y-58935771D02*
X104845238Y-58888152D01*
X104845238Y-58888152D02*
X105035714Y-58888152D01*
X105035714Y-58888152D02*
X105130952Y-58935771D01*
X105559524Y-59554819D02*
X105559524Y-58554819D01*
X105988095Y-59554819D02*
X105988095Y-59031009D01*
X105988095Y-59031009D02*
X105940476Y-58935771D01*
X105940476Y-58935771D02*
X105845238Y-58888152D01*
X105845238Y-58888152D02*
X105702381Y-58888152D01*
X105702381Y-58888152D02*
X105607143Y-58935771D01*
X105607143Y-58935771D02*
X105559524Y-58983390D01*
X107130953Y-58554819D02*
X107797619Y-58554819D01*
X107797619Y-58554819D02*
X107369048Y-59554819D01*
X108178572Y-59173866D02*
X108940477Y-59173866D01*
X109940476Y-59554819D02*
X109369048Y-59554819D01*
X109654762Y-59554819D02*
X109654762Y-58554819D01*
X109654762Y-58554819D02*
X109559524Y-58697676D01*
X109559524Y-58697676D02*
X109464286Y-58792914D01*
X109464286Y-58792914D02*
X109369048Y-58840533D01*
X110321429Y-58650057D02*
X110369048Y-58602438D01*
X110369048Y-58602438D02*
X110464286Y-58554819D01*
X110464286Y-58554819D02*
X110702381Y-58554819D01*
X110702381Y-58554819D02*
X110797619Y-58602438D01*
X110797619Y-58602438D02*
X110845238Y-58650057D01*
X110845238Y-58650057D02*
X110892857Y-58745295D01*
X110892857Y-58745295D02*
X110892857Y-58840533D01*
X110892857Y-58840533D02*
X110845238Y-58983390D01*
X110845238Y-58983390D02*
X110273810Y-59554819D01*
X110273810Y-59554819D02*
X110892857Y-59554819D01*
X77107142Y-59554819D02*
X77107142Y-58554819D01*
X77107142Y-58554819D02*
X77488094Y-58554819D01*
X77488094Y-58554819D02*
X77583332Y-58602438D01*
X77583332Y-58602438D02*
X77630951Y-58650057D01*
X77630951Y-58650057D02*
X77678570Y-58745295D01*
X77678570Y-58745295D02*
X77678570Y-58888152D01*
X77678570Y-58888152D02*
X77630951Y-58983390D01*
X77630951Y-58983390D02*
X77583332Y-59031009D01*
X77583332Y-59031009D02*
X77488094Y-59078628D01*
X77488094Y-59078628D02*
X77107142Y-59078628D01*
X78249999Y-59554819D02*
X78154761Y-59507200D01*
X78154761Y-59507200D02*
X78107142Y-59459580D01*
X78107142Y-59459580D02*
X78059523Y-59364342D01*
X78059523Y-59364342D02*
X78059523Y-59078628D01*
X78059523Y-59078628D02*
X78107142Y-58983390D01*
X78107142Y-58983390D02*
X78154761Y-58935771D01*
X78154761Y-58935771D02*
X78249999Y-58888152D01*
X78249999Y-58888152D02*
X78392856Y-58888152D01*
X78392856Y-58888152D02*
X78488094Y-58935771D01*
X78488094Y-58935771D02*
X78535713Y-58983390D01*
X78535713Y-58983390D02*
X78583332Y-59078628D01*
X78583332Y-59078628D02*
X78583332Y-59364342D01*
X78583332Y-59364342D02*
X78535713Y-59459580D01*
X78535713Y-59459580D02*
X78488094Y-59507200D01*
X78488094Y-59507200D02*
X78392856Y-59554819D01*
X78392856Y-59554819D02*
X78249999Y-59554819D01*
X78916666Y-58888152D02*
X79107142Y-59554819D01*
X79107142Y-59554819D02*
X79297618Y-59078628D01*
X79297618Y-59078628D02*
X79488094Y-59554819D01*
X79488094Y-59554819D02*
X79678570Y-58888152D01*
X80440475Y-59507200D02*
X80345237Y-59554819D01*
X80345237Y-59554819D02*
X80154761Y-59554819D01*
X80154761Y-59554819D02*
X80059523Y-59507200D01*
X80059523Y-59507200D02*
X80011904Y-59411961D01*
X80011904Y-59411961D02*
X80011904Y-59031009D01*
X80011904Y-59031009D02*
X80059523Y-58935771D01*
X80059523Y-58935771D02*
X80154761Y-58888152D01*
X80154761Y-58888152D02*
X80345237Y-58888152D01*
X80345237Y-58888152D02*
X80440475Y-58935771D01*
X80440475Y-58935771D02*
X80488094Y-59031009D01*
X80488094Y-59031009D02*
X80488094Y-59126247D01*
X80488094Y-59126247D02*
X80011904Y-59221485D01*
X80916666Y-59554819D02*
X80916666Y-58888152D01*
X80916666Y-59078628D02*
X80964285Y-58983390D01*
X80964285Y-58983390D02*
X81011904Y-58935771D01*
X81011904Y-58935771D02*
X81107142Y-58888152D01*
X81107142Y-58888152D02*
X81202380Y-58888152D01*
X82250000Y-59507200D02*
X82392857Y-59554819D01*
X82392857Y-59554819D02*
X82630952Y-59554819D01*
X82630952Y-59554819D02*
X82726190Y-59507200D01*
X82726190Y-59507200D02*
X82773809Y-59459580D01*
X82773809Y-59459580D02*
X82821428Y-59364342D01*
X82821428Y-59364342D02*
X82821428Y-59269104D01*
X82821428Y-59269104D02*
X82773809Y-59173866D01*
X82773809Y-59173866D02*
X82726190Y-59126247D01*
X82726190Y-59126247D02*
X82630952Y-59078628D01*
X82630952Y-59078628D02*
X82440476Y-59031009D01*
X82440476Y-59031009D02*
X82345238Y-58983390D01*
X82345238Y-58983390D02*
X82297619Y-58935771D01*
X82297619Y-58935771D02*
X82250000Y-58840533D01*
X82250000Y-58840533D02*
X82250000Y-58745295D01*
X82250000Y-58745295D02*
X82297619Y-58650057D01*
X82297619Y-58650057D02*
X82345238Y-58602438D01*
X82345238Y-58602438D02*
X82440476Y-58554819D01*
X82440476Y-58554819D02*
X82678571Y-58554819D01*
X82678571Y-58554819D02*
X82821428Y-58602438D01*
X83154762Y-58888152D02*
X83345238Y-59554819D01*
X83345238Y-59554819D02*
X83535714Y-59078628D01*
X83535714Y-59078628D02*
X83726190Y-59554819D01*
X83726190Y-59554819D02*
X83916666Y-58888152D01*
X84297619Y-59554819D02*
X84297619Y-58888152D01*
X84297619Y-58554819D02*
X84250000Y-58602438D01*
X84250000Y-58602438D02*
X84297619Y-58650057D01*
X84297619Y-58650057D02*
X84345238Y-58602438D01*
X84345238Y-58602438D02*
X84297619Y-58554819D01*
X84297619Y-58554819D02*
X84297619Y-58650057D01*
X84630952Y-58888152D02*
X85011904Y-58888152D01*
X84773809Y-58554819D02*
X84773809Y-59411961D01*
X84773809Y-59411961D02*
X84821428Y-59507200D01*
X84821428Y-59507200D02*
X84916666Y-59554819D01*
X84916666Y-59554819D02*
X85011904Y-59554819D01*
X85773809Y-59507200D02*
X85678571Y-59554819D01*
X85678571Y-59554819D02*
X85488095Y-59554819D01*
X85488095Y-59554819D02*
X85392857Y-59507200D01*
X85392857Y-59507200D02*
X85345238Y-59459580D01*
X85345238Y-59459580D02*
X85297619Y-59364342D01*
X85297619Y-59364342D02*
X85297619Y-59078628D01*
X85297619Y-59078628D02*
X85345238Y-58983390D01*
X85345238Y-58983390D02*
X85392857Y-58935771D01*
X85392857Y-58935771D02*
X85488095Y-58888152D01*
X85488095Y-58888152D02*
X85678571Y-58888152D01*
X85678571Y-58888152D02*
X85773809Y-58935771D01*
X86202381Y-59554819D02*
X86202381Y-58554819D01*
X86630952Y-59554819D02*
X86630952Y-59031009D01*
X86630952Y-59031009D02*
X86583333Y-58935771D01*
X86583333Y-58935771D02*
X86488095Y-58888152D01*
X86488095Y-58888152D02*
X86345238Y-58888152D01*
X86345238Y-58888152D02*
X86250000Y-58935771D01*
X86250000Y-58935771D02*
X86202381Y-58983390D01*
X161007200Y-79699999D02*
X161054819Y-79557142D01*
X161054819Y-79557142D02*
X161054819Y-79319047D01*
X161054819Y-79319047D02*
X161007200Y-79223809D01*
X161007200Y-79223809D02*
X160959580Y-79176190D01*
X160959580Y-79176190D02*
X160864342Y-79128571D01*
X160864342Y-79128571D02*
X160769104Y-79128571D01*
X160769104Y-79128571D02*
X160673866Y-79176190D01*
X160673866Y-79176190D02*
X160626247Y-79223809D01*
X160626247Y-79223809D02*
X160578628Y-79319047D01*
X160578628Y-79319047D02*
X160531009Y-79509523D01*
X160531009Y-79509523D02*
X160483390Y-79604761D01*
X160483390Y-79604761D02*
X160435771Y-79652380D01*
X160435771Y-79652380D02*
X160340533Y-79699999D01*
X160340533Y-79699999D02*
X160245295Y-79699999D01*
X160245295Y-79699999D02*
X160150057Y-79652380D01*
X160150057Y-79652380D02*
X160102438Y-79604761D01*
X160102438Y-79604761D02*
X160054819Y-79509523D01*
X160054819Y-79509523D02*
X160054819Y-79271428D01*
X160054819Y-79271428D02*
X160102438Y-79128571D01*
X160388152Y-78795237D02*
X161054819Y-78604761D01*
X161054819Y-78604761D02*
X160578628Y-78414285D01*
X160578628Y-78414285D02*
X161054819Y-78223809D01*
X161054819Y-78223809D02*
X160388152Y-78033333D01*
X161054819Y-77652380D02*
X160388152Y-77652380D01*
X160054819Y-77652380D02*
X160102438Y-77699999D01*
X160102438Y-77699999D02*
X160150057Y-77652380D01*
X160150057Y-77652380D02*
X160102438Y-77604761D01*
X160102438Y-77604761D02*
X160054819Y-77652380D01*
X160054819Y-77652380D02*
X160150057Y-77652380D01*
X160388152Y-77319047D02*
X160388152Y-76938095D01*
X160054819Y-77176190D02*
X160911961Y-77176190D01*
X160911961Y-77176190D02*
X161007200Y-77128571D01*
X161007200Y-77128571D02*
X161054819Y-77033333D01*
X161054819Y-77033333D02*
X161054819Y-76938095D01*
X161007200Y-76176190D02*
X161054819Y-76271428D01*
X161054819Y-76271428D02*
X161054819Y-76461904D01*
X161054819Y-76461904D02*
X161007200Y-76557142D01*
X161007200Y-76557142D02*
X160959580Y-76604761D01*
X160959580Y-76604761D02*
X160864342Y-76652380D01*
X160864342Y-76652380D02*
X160578628Y-76652380D01*
X160578628Y-76652380D02*
X160483390Y-76604761D01*
X160483390Y-76604761D02*
X160435771Y-76557142D01*
X160435771Y-76557142D02*
X160388152Y-76461904D01*
X160388152Y-76461904D02*
X160388152Y-76271428D01*
X160388152Y-76271428D02*
X160435771Y-76176190D01*
X161054819Y-75747618D02*
X160054819Y-75747618D01*
X161054819Y-75319047D02*
X160531009Y-75319047D01*
X160531009Y-75319047D02*
X160435771Y-75366666D01*
X160435771Y-75366666D02*
X160388152Y-75461904D01*
X160388152Y-75461904D02*
X160388152Y-75604761D01*
X160388152Y-75604761D02*
X160435771Y-75699999D01*
X160435771Y-75699999D02*
X160483390Y-75747618D01*
X161054819Y-73557142D02*
X161054819Y-74128570D01*
X161054819Y-73842856D02*
X160054819Y-73842856D01*
X160054819Y-73842856D02*
X160197676Y-73938094D01*
X160197676Y-73938094D02*
X160292914Y-74033332D01*
X160292914Y-74033332D02*
X160340533Y-74128570D01*
X160150057Y-73176189D02*
X160102438Y-73128570D01*
X160102438Y-73128570D02*
X160054819Y-73033332D01*
X160054819Y-73033332D02*
X160054819Y-72795237D01*
X160054819Y-72795237D02*
X160102438Y-72699999D01*
X160102438Y-72699999D02*
X160150057Y-72652380D01*
X160150057Y-72652380D02*
X160245295Y-72604761D01*
X160245295Y-72604761D02*
X160340533Y-72604761D01*
X160340533Y-72604761D02*
X160483390Y-72652380D01*
X160483390Y-72652380D02*
X161054819Y-73223808D01*
X161054819Y-73223808D02*
X161054819Y-72604761D01*
X160007200Y-71461904D02*
X161292914Y-72319046D01*
X161054819Y-70604761D02*
X161054819Y-71176189D01*
X161054819Y-70890475D02*
X160054819Y-70890475D01*
X160054819Y-70890475D02*
X160197676Y-70985713D01*
X160197676Y-70985713D02*
X160292914Y-71080951D01*
X160292914Y-71080951D02*
X160340533Y-71176189D01*
X160483390Y-70033332D02*
X160435771Y-70128570D01*
X160435771Y-70128570D02*
X160388152Y-70176189D01*
X160388152Y-70176189D02*
X160292914Y-70223808D01*
X160292914Y-70223808D02*
X160245295Y-70223808D01*
X160245295Y-70223808D02*
X160150057Y-70176189D01*
X160150057Y-70176189D02*
X160102438Y-70128570D01*
X160102438Y-70128570D02*
X160054819Y-70033332D01*
X160054819Y-70033332D02*
X160054819Y-69842856D01*
X160054819Y-69842856D02*
X160102438Y-69747618D01*
X160102438Y-69747618D02*
X160150057Y-69699999D01*
X160150057Y-69699999D02*
X160245295Y-69652380D01*
X160245295Y-69652380D02*
X160292914Y-69652380D01*
X160292914Y-69652380D02*
X160388152Y-69699999D01*
X160388152Y-69699999D02*
X160435771Y-69747618D01*
X160435771Y-69747618D02*
X160483390Y-69842856D01*
X160483390Y-69842856D02*
X160483390Y-70033332D01*
X160483390Y-70033332D02*
X160531009Y-70128570D01*
X160531009Y-70128570D02*
X160578628Y-70176189D01*
X160578628Y-70176189D02*
X160673866Y-70223808D01*
X160673866Y-70223808D02*
X160864342Y-70223808D01*
X160864342Y-70223808D02*
X160959580Y-70176189D01*
X160959580Y-70176189D02*
X161007200Y-70128570D01*
X161007200Y-70128570D02*
X161054819Y-70033332D01*
X161054819Y-70033332D02*
X161054819Y-69842856D01*
X161054819Y-69842856D02*
X161007200Y-69747618D01*
X161007200Y-69747618D02*
X160959580Y-69699999D01*
X160959580Y-69699999D02*
X160864342Y-69652380D01*
X160864342Y-69652380D02*
X160673866Y-69652380D01*
X160673866Y-69652380D02*
X160578628Y-69699999D01*
X160578628Y-69699999D02*
X160531009Y-69747618D01*
X160531009Y-69747618D02*
X160483390Y-69842856D01*
X160007200Y-68509523D02*
X161292914Y-69366665D01*
X160150057Y-68223808D02*
X160102438Y-68176189D01*
X160102438Y-68176189D02*
X160054819Y-68080951D01*
X160054819Y-68080951D02*
X160054819Y-67842856D01*
X160054819Y-67842856D02*
X160102438Y-67747618D01*
X160102438Y-67747618D02*
X160150057Y-67699999D01*
X160150057Y-67699999D02*
X160245295Y-67652380D01*
X160245295Y-67652380D02*
X160340533Y-67652380D01*
X160340533Y-67652380D02*
X160483390Y-67699999D01*
X160483390Y-67699999D02*
X161054819Y-68271427D01*
X161054819Y-68271427D02*
X161054819Y-67652380D01*
X160388152Y-66795237D02*
X161054819Y-66795237D01*
X160007200Y-67033332D02*
X160721485Y-67271427D01*
X160721485Y-67271427D02*
X160721485Y-66652380D01*
X98061905Y-64450057D02*
X98109524Y-64402438D01*
X98109524Y-64402438D02*
X98204762Y-64354819D01*
X98204762Y-64354819D02*
X98442857Y-64354819D01*
X98442857Y-64354819D02*
X98538095Y-64402438D01*
X98538095Y-64402438D02*
X98585714Y-64450057D01*
X98585714Y-64450057D02*
X98633333Y-64545295D01*
X98633333Y-64545295D02*
X98633333Y-64640533D01*
X98633333Y-64640533D02*
X98585714Y-64783390D01*
X98585714Y-64783390D02*
X98014286Y-65354819D01*
X98014286Y-65354819D02*
X98633333Y-65354819D01*
X99014286Y-64450057D02*
X99061905Y-64402438D01*
X99061905Y-64402438D02*
X99157143Y-64354819D01*
X99157143Y-64354819D02*
X99395238Y-64354819D01*
X99395238Y-64354819D02*
X99490476Y-64402438D01*
X99490476Y-64402438D02*
X99538095Y-64450057D01*
X99538095Y-64450057D02*
X99585714Y-64545295D01*
X99585714Y-64545295D02*
X99585714Y-64640533D01*
X99585714Y-64640533D02*
X99538095Y-64783390D01*
X99538095Y-64783390D02*
X98966667Y-65354819D01*
X98966667Y-65354819D02*
X99585714Y-65354819D01*
X100204762Y-64354819D02*
X100300000Y-64354819D01*
X100300000Y-64354819D02*
X100395238Y-64402438D01*
X100395238Y-64402438D02*
X100442857Y-64450057D01*
X100442857Y-64450057D02*
X100490476Y-64545295D01*
X100490476Y-64545295D02*
X100538095Y-64735771D01*
X100538095Y-64735771D02*
X100538095Y-64973866D01*
X100538095Y-64973866D02*
X100490476Y-65164342D01*
X100490476Y-65164342D02*
X100442857Y-65259580D01*
X100442857Y-65259580D02*
X100395238Y-65307200D01*
X100395238Y-65307200D02*
X100300000Y-65354819D01*
X100300000Y-65354819D02*
X100204762Y-65354819D01*
X100204762Y-65354819D02*
X100109524Y-65307200D01*
X100109524Y-65307200D02*
X100061905Y-65259580D01*
X100061905Y-65259580D02*
X100014286Y-65164342D01*
X100014286Y-65164342D02*
X99966667Y-64973866D01*
X99966667Y-64973866D02*
X99966667Y-64735771D01*
X99966667Y-64735771D02*
X100014286Y-64545295D01*
X100014286Y-64545295D02*
X100061905Y-64450057D01*
X100061905Y-64450057D02*
X100109524Y-64402438D01*
X100109524Y-64402438D02*
X100204762Y-64354819D01*
X83441905Y-73364819D02*
X83441905Y-72364819D01*
X83441905Y-72364819D02*
X83680000Y-72364819D01*
X83680000Y-72364819D02*
X83822857Y-72412438D01*
X83822857Y-72412438D02*
X83918095Y-72507676D01*
X83918095Y-72507676D02*
X83965714Y-72602914D01*
X83965714Y-72602914D02*
X84013333Y-72793390D01*
X84013333Y-72793390D02*
X84013333Y-72936247D01*
X84013333Y-72936247D02*
X83965714Y-73126723D01*
X83965714Y-73126723D02*
X83918095Y-73221961D01*
X83918095Y-73221961D02*
X83822857Y-73317200D01*
X83822857Y-73317200D02*
X83680000Y-73364819D01*
X83680000Y-73364819D02*
X83441905Y-73364819D01*
X84394286Y-72460057D02*
X84441905Y-72412438D01*
X84441905Y-72412438D02*
X84537143Y-72364819D01*
X84537143Y-72364819D02*
X84775238Y-72364819D01*
X84775238Y-72364819D02*
X84870476Y-72412438D01*
X84870476Y-72412438D02*
X84918095Y-72460057D01*
X84918095Y-72460057D02*
X84965714Y-72555295D01*
X84965714Y-72555295D02*
X84965714Y-72650533D01*
X84965714Y-72650533D02*
X84918095Y-72793390D01*
X84918095Y-72793390D02*
X84346667Y-73364819D01*
X84346667Y-73364819D02*
X84965714Y-73364819D01*
X78091905Y-64550057D02*
X78139524Y-64502438D01*
X78139524Y-64502438D02*
X78234762Y-64454819D01*
X78234762Y-64454819D02*
X78472857Y-64454819D01*
X78472857Y-64454819D02*
X78568095Y-64502438D01*
X78568095Y-64502438D02*
X78615714Y-64550057D01*
X78615714Y-64550057D02*
X78663333Y-64645295D01*
X78663333Y-64645295D02*
X78663333Y-64740533D01*
X78663333Y-64740533D02*
X78615714Y-64883390D01*
X78615714Y-64883390D02*
X78044286Y-65454819D01*
X78044286Y-65454819D02*
X78663333Y-65454819D01*
X79044286Y-64550057D02*
X79091905Y-64502438D01*
X79091905Y-64502438D02*
X79187143Y-64454819D01*
X79187143Y-64454819D02*
X79425238Y-64454819D01*
X79425238Y-64454819D02*
X79520476Y-64502438D01*
X79520476Y-64502438D02*
X79568095Y-64550057D01*
X79568095Y-64550057D02*
X79615714Y-64645295D01*
X79615714Y-64645295D02*
X79615714Y-64740533D01*
X79615714Y-64740533D02*
X79568095Y-64883390D01*
X79568095Y-64883390D02*
X78996667Y-65454819D01*
X78996667Y-65454819D02*
X79615714Y-65454819D01*
X80234762Y-64454819D02*
X80330000Y-64454819D01*
X80330000Y-64454819D02*
X80425238Y-64502438D01*
X80425238Y-64502438D02*
X80472857Y-64550057D01*
X80472857Y-64550057D02*
X80520476Y-64645295D01*
X80520476Y-64645295D02*
X80568095Y-64835771D01*
X80568095Y-64835771D02*
X80568095Y-65073866D01*
X80568095Y-65073866D02*
X80520476Y-65264342D01*
X80520476Y-65264342D02*
X80472857Y-65359580D01*
X80472857Y-65359580D02*
X80425238Y-65407200D01*
X80425238Y-65407200D02*
X80330000Y-65454819D01*
X80330000Y-65454819D02*
X80234762Y-65454819D01*
X80234762Y-65454819D02*
X80139524Y-65407200D01*
X80139524Y-65407200D02*
X80091905Y-65359580D01*
X80091905Y-65359580D02*
X80044286Y-65264342D01*
X80044286Y-65264342D02*
X79996667Y-65073866D01*
X79996667Y-65073866D02*
X79996667Y-64835771D01*
X79996667Y-64835771D02*
X80044286Y-64645295D01*
X80044286Y-64645295D02*
X80091905Y-64550057D01*
X80091905Y-64550057D02*
X80139524Y-64502438D01*
X80139524Y-64502438D02*
X80234762Y-64454819D01*
X61407200Y-79623809D02*
X61454819Y-79480952D01*
X61454819Y-79480952D02*
X61454819Y-79242857D01*
X61454819Y-79242857D02*
X61407200Y-79147619D01*
X61407200Y-79147619D02*
X61359580Y-79100000D01*
X61359580Y-79100000D02*
X61264342Y-79052381D01*
X61264342Y-79052381D02*
X61169104Y-79052381D01*
X61169104Y-79052381D02*
X61073866Y-79100000D01*
X61073866Y-79100000D02*
X61026247Y-79147619D01*
X61026247Y-79147619D02*
X60978628Y-79242857D01*
X60978628Y-79242857D02*
X60931009Y-79433333D01*
X60931009Y-79433333D02*
X60883390Y-79528571D01*
X60883390Y-79528571D02*
X60835771Y-79576190D01*
X60835771Y-79576190D02*
X60740533Y-79623809D01*
X60740533Y-79623809D02*
X60645295Y-79623809D01*
X60645295Y-79623809D02*
X60550057Y-79576190D01*
X60550057Y-79576190D02*
X60502438Y-79528571D01*
X60502438Y-79528571D02*
X60454819Y-79433333D01*
X60454819Y-79433333D02*
X60454819Y-79195238D01*
X60454819Y-79195238D02*
X60502438Y-79052381D01*
X60788152Y-78719047D02*
X61454819Y-78528571D01*
X61454819Y-78528571D02*
X60978628Y-78338095D01*
X60978628Y-78338095D02*
X61454819Y-78147619D01*
X61454819Y-78147619D02*
X60788152Y-77957143D01*
X61454819Y-77576190D02*
X60788152Y-77576190D01*
X60454819Y-77576190D02*
X60502438Y-77623809D01*
X60502438Y-77623809D02*
X60550057Y-77576190D01*
X60550057Y-77576190D02*
X60502438Y-77528571D01*
X60502438Y-77528571D02*
X60454819Y-77576190D01*
X60454819Y-77576190D02*
X60550057Y-77576190D01*
X60788152Y-77242857D02*
X60788152Y-76861905D01*
X60454819Y-77100000D02*
X61311961Y-77100000D01*
X61311961Y-77100000D02*
X61407200Y-77052381D01*
X61407200Y-77052381D02*
X61454819Y-76957143D01*
X61454819Y-76957143D02*
X61454819Y-76861905D01*
X61407200Y-76100000D02*
X61454819Y-76195238D01*
X61454819Y-76195238D02*
X61454819Y-76385714D01*
X61454819Y-76385714D02*
X61407200Y-76480952D01*
X61407200Y-76480952D02*
X61359580Y-76528571D01*
X61359580Y-76528571D02*
X61264342Y-76576190D01*
X61264342Y-76576190D02*
X60978628Y-76576190D01*
X60978628Y-76576190D02*
X60883390Y-76528571D01*
X60883390Y-76528571D02*
X60835771Y-76480952D01*
X60835771Y-76480952D02*
X60788152Y-76385714D01*
X60788152Y-76385714D02*
X60788152Y-76195238D01*
X60788152Y-76195238D02*
X60835771Y-76100000D01*
X61454819Y-75671428D02*
X60454819Y-75671428D01*
X61454819Y-75242857D02*
X60931009Y-75242857D01*
X60931009Y-75242857D02*
X60835771Y-75290476D01*
X60835771Y-75290476D02*
X60788152Y-75385714D01*
X60788152Y-75385714D02*
X60788152Y-75528571D01*
X60788152Y-75528571D02*
X60835771Y-75623809D01*
X60835771Y-75623809D02*
X60883390Y-75671428D01*
X60454819Y-74099999D02*
X60454819Y-73433333D01*
X60454819Y-73433333D02*
X61454819Y-73861904D01*
X60407200Y-72338095D02*
X61692914Y-73195237D01*
X61454819Y-71480952D02*
X61454819Y-72052380D01*
X61454819Y-71766666D02*
X60454819Y-71766666D01*
X60454819Y-71766666D02*
X60597676Y-71861904D01*
X60597676Y-71861904D02*
X60692914Y-71957142D01*
X60692914Y-71957142D02*
X60740533Y-72052380D01*
X60454819Y-71147618D02*
X60454819Y-70528571D01*
X60454819Y-70528571D02*
X60835771Y-70861904D01*
X60835771Y-70861904D02*
X60835771Y-70719047D01*
X60835771Y-70719047D02*
X60883390Y-70623809D01*
X60883390Y-70623809D02*
X60931009Y-70576190D01*
X60931009Y-70576190D02*
X61026247Y-70528571D01*
X61026247Y-70528571D02*
X61264342Y-70528571D01*
X61264342Y-70528571D02*
X61359580Y-70576190D01*
X61359580Y-70576190D02*
X61407200Y-70623809D01*
X61407200Y-70623809D02*
X61454819Y-70719047D01*
X61454819Y-70719047D02*
X61454819Y-71004761D01*
X61454819Y-71004761D02*
X61407200Y-71099999D01*
X61407200Y-71099999D02*
X61359580Y-71147618D01*
X60407200Y-69385714D02*
X61692914Y-70242856D01*
X61454819Y-68528571D02*
X61454819Y-69099999D01*
X61454819Y-68814285D02*
X60454819Y-68814285D01*
X60454819Y-68814285D02*
X60597676Y-68909523D01*
X60597676Y-68909523D02*
X60692914Y-69004761D01*
X60692914Y-69004761D02*
X60740533Y-69099999D01*
X61454819Y-68052380D02*
X61454819Y-67861904D01*
X61454819Y-67861904D02*
X61407200Y-67766666D01*
X61407200Y-67766666D02*
X61359580Y-67719047D01*
X61359580Y-67719047D02*
X61216723Y-67623809D01*
X61216723Y-67623809D02*
X61026247Y-67576190D01*
X61026247Y-67576190D02*
X60645295Y-67576190D01*
X60645295Y-67576190D02*
X60550057Y-67623809D01*
X60550057Y-67623809D02*
X60502438Y-67671428D01*
X60502438Y-67671428D02*
X60454819Y-67766666D01*
X60454819Y-67766666D02*
X60454819Y-67957142D01*
X60454819Y-67957142D02*
X60502438Y-68052380D01*
X60502438Y-68052380D02*
X60550057Y-68099999D01*
X60550057Y-68099999D02*
X60645295Y-68147618D01*
X60645295Y-68147618D02*
X60883390Y-68147618D01*
X60883390Y-68147618D02*
X60978628Y-68099999D01*
X60978628Y-68099999D02*
X61026247Y-68052380D01*
X61026247Y-68052380D02*
X61073866Y-67957142D01*
X61073866Y-67957142D02*
X61073866Y-67766666D01*
X61073866Y-67766666D02*
X61026247Y-67671428D01*
X61026247Y-67671428D02*
X60978628Y-67623809D01*
X60978628Y-67623809D02*
X60883390Y-67576190D01*
X118161905Y-64450057D02*
X118209524Y-64402438D01*
X118209524Y-64402438D02*
X118304762Y-64354819D01*
X118304762Y-64354819D02*
X118542857Y-64354819D01*
X118542857Y-64354819D02*
X118638095Y-64402438D01*
X118638095Y-64402438D02*
X118685714Y-64450057D01*
X118685714Y-64450057D02*
X118733333Y-64545295D01*
X118733333Y-64545295D02*
X118733333Y-64640533D01*
X118733333Y-64640533D02*
X118685714Y-64783390D01*
X118685714Y-64783390D02*
X118114286Y-65354819D01*
X118114286Y-65354819D02*
X118733333Y-65354819D01*
X119114286Y-64450057D02*
X119161905Y-64402438D01*
X119161905Y-64402438D02*
X119257143Y-64354819D01*
X119257143Y-64354819D02*
X119495238Y-64354819D01*
X119495238Y-64354819D02*
X119590476Y-64402438D01*
X119590476Y-64402438D02*
X119638095Y-64450057D01*
X119638095Y-64450057D02*
X119685714Y-64545295D01*
X119685714Y-64545295D02*
X119685714Y-64640533D01*
X119685714Y-64640533D02*
X119638095Y-64783390D01*
X119638095Y-64783390D02*
X119066667Y-65354819D01*
X119066667Y-65354819D02*
X119685714Y-65354819D01*
X120304762Y-64354819D02*
X120400000Y-64354819D01*
X120400000Y-64354819D02*
X120495238Y-64402438D01*
X120495238Y-64402438D02*
X120542857Y-64450057D01*
X120542857Y-64450057D02*
X120590476Y-64545295D01*
X120590476Y-64545295D02*
X120638095Y-64735771D01*
X120638095Y-64735771D02*
X120638095Y-64973866D01*
X120638095Y-64973866D02*
X120590476Y-65164342D01*
X120590476Y-65164342D02*
X120542857Y-65259580D01*
X120542857Y-65259580D02*
X120495238Y-65307200D01*
X120495238Y-65307200D02*
X120400000Y-65354819D01*
X120400000Y-65354819D02*
X120304762Y-65354819D01*
X120304762Y-65354819D02*
X120209524Y-65307200D01*
X120209524Y-65307200D02*
X120161905Y-65259580D01*
X120161905Y-65259580D02*
X120114286Y-65164342D01*
X120114286Y-65164342D02*
X120066667Y-64973866D01*
X120066667Y-64973866D02*
X120066667Y-64735771D01*
X120066667Y-64735771D02*
X120114286Y-64545295D01*
X120114286Y-64545295D02*
X120161905Y-64450057D01*
X120161905Y-64450057D02*
X120209524Y-64402438D01*
X120209524Y-64402438D02*
X120304762Y-64354819D01*
X63441905Y-73364819D02*
X63441905Y-72364819D01*
X63441905Y-72364819D02*
X63680000Y-72364819D01*
X63680000Y-72364819D02*
X63822857Y-72412438D01*
X63822857Y-72412438D02*
X63918095Y-72507676D01*
X63918095Y-72507676D02*
X63965714Y-72602914D01*
X63965714Y-72602914D02*
X64013333Y-72793390D01*
X64013333Y-72793390D02*
X64013333Y-72936247D01*
X64013333Y-72936247D02*
X63965714Y-73126723D01*
X63965714Y-73126723D02*
X63918095Y-73221961D01*
X63918095Y-73221961D02*
X63822857Y-73317200D01*
X63822857Y-73317200D02*
X63680000Y-73364819D01*
X63680000Y-73364819D02*
X63441905Y-73364819D01*
X64965714Y-73364819D02*
X64394286Y-73364819D01*
X64680000Y-73364819D02*
X64680000Y-72364819D01*
X64680000Y-72364819D02*
X64584762Y-72507676D01*
X64584762Y-72507676D02*
X64489524Y-72602914D01*
X64489524Y-72602914D02*
X64394286Y-72650533D01*
X103441905Y-73364819D02*
X103441905Y-72364819D01*
X103441905Y-72364819D02*
X103680000Y-72364819D01*
X103680000Y-72364819D02*
X103822857Y-72412438D01*
X103822857Y-72412438D02*
X103918095Y-72507676D01*
X103918095Y-72507676D02*
X103965714Y-72602914D01*
X103965714Y-72602914D02*
X104013333Y-72793390D01*
X104013333Y-72793390D02*
X104013333Y-72936247D01*
X104013333Y-72936247D02*
X103965714Y-73126723D01*
X103965714Y-73126723D02*
X103918095Y-73221961D01*
X103918095Y-73221961D02*
X103822857Y-73317200D01*
X103822857Y-73317200D02*
X103680000Y-73364819D01*
X103680000Y-73364819D02*
X103441905Y-73364819D01*
X104346667Y-72364819D02*
X104965714Y-72364819D01*
X104965714Y-72364819D02*
X104632381Y-72745771D01*
X104632381Y-72745771D02*
X104775238Y-72745771D01*
X104775238Y-72745771D02*
X104870476Y-72793390D01*
X104870476Y-72793390D02*
X104918095Y-72841009D01*
X104918095Y-72841009D02*
X104965714Y-72936247D01*
X104965714Y-72936247D02*
X104965714Y-73174342D01*
X104965714Y-73174342D02*
X104918095Y-73269580D01*
X104918095Y-73269580D02*
X104870476Y-73317200D01*
X104870476Y-73317200D02*
X104775238Y-73364819D01*
X104775238Y-73364819D02*
X104489524Y-73364819D01*
X104489524Y-73364819D02*
X104394286Y-73317200D01*
X104394286Y-73317200D02*
X104346667Y-73269580D01*
X163441905Y-73364819D02*
X163441905Y-72364819D01*
X163441905Y-72364819D02*
X163680000Y-72364819D01*
X163680000Y-72364819D02*
X163822857Y-72412438D01*
X163822857Y-72412438D02*
X163918095Y-72507676D01*
X163918095Y-72507676D02*
X163965714Y-72602914D01*
X163965714Y-72602914D02*
X164013333Y-72793390D01*
X164013333Y-72793390D02*
X164013333Y-72936247D01*
X164013333Y-72936247D02*
X163965714Y-73126723D01*
X163965714Y-73126723D02*
X163918095Y-73221961D01*
X163918095Y-73221961D02*
X163822857Y-73317200D01*
X163822857Y-73317200D02*
X163680000Y-73364819D01*
X163680000Y-73364819D02*
X163441905Y-73364819D01*
X164870476Y-72364819D02*
X164680000Y-72364819D01*
X164680000Y-72364819D02*
X164584762Y-72412438D01*
X164584762Y-72412438D02*
X164537143Y-72460057D01*
X164537143Y-72460057D02*
X164441905Y-72602914D01*
X164441905Y-72602914D02*
X164394286Y-72793390D01*
X164394286Y-72793390D02*
X164394286Y-73174342D01*
X164394286Y-73174342D02*
X164441905Y-73269580D01*
X164441905Y-73269580D02*
X164489524Y-73317200D01*
X164489524Y-73317200D02*
X164584762Y-73364819D01*
X164584762Y-73364819D02*
X164775238Y-73364819D01*
X164775238Y-73364819D02*
X164870476Y-73317200D01*
X164870476Y-73317200D02*
X164918095Y-73269580D01*
X164918095Y-73269580D02*
X164965714Y-73174342D01*
X164965714Y-73174342D02*
X164965714Y-72936247D01*
X164965714Y-72936247D02*
X164918095Y-72841009D01*
X164918095Y-72841009D02*
X164870476Y-72793390D01*
X164870476Y-72793390D02*
X164775238Y-72745771D01*
X164775238Y-72745771D02*
X164584762Y-72745771D01*
X164584762Y-72745771D02*
X164489524Y-72793390D01*
X164489524Y-72793390D02*
X164441905Y-72841009D01*
X164441905Y-72841009D02*
X164394286Y-72936247D01*
X121007200Y-79599999D02*
X121054819Y-79457142D01*
X121054819Y-79457142D02*
X121054819Y-79219047D01*
X121054819Y-79219047D02*
X121007200Y-79123809D01*
X121007200Y-79123809D02*
X120959580Y-79076190D01*
X120959580Y-79076190D02*
X120864342Y-79028571D01*
X120864342Y-79028571D02*
X120769104Y-79028571D01*
X120769104Y-79028571D02*
X120673866Y-79076190D01*
X120673866Y-79076190D02*
X120626247Y-79123809D01*
X120626247Y-79123809D02*
X120578628Y-79219047D01*
X120578628Y-79219047D02*
X120531009Y-79409523D01*
X120531009Y-79409523D02*
X120483390Y-79504761D01*
X120483390Y-79504761D02*
X120435771Y-79552380D01*
X120435771Y-79552380D02*
X120340533Y-79599999D01*
X120340533Y-79599999D02*
X120245295Y-79599999D01*
X120245295Y-79599999D02*
X120150057Y-79552380D01*
X120150057Y-79552380D02*
X120102438Y-79504761D01*
X120102438Y-79504761D02*
X120054819Y-79409523D01*
X120054819Y-79409523D02*
X120054819Y-79171428D01*
X120054819Y-79171428D02*
X120102438Y-79028571D01*
X120388152Y-78695237D02*
X121054819Y-78504761D01*
X121054819Y-78504761D02*
X120578628Y-78314285D01*
X120578628Y-78314285D02*
X121054819Y-78123809D01*
X121054819Y-78123809D02*
X120388152Y-77933333D01*
X121054819Y-77552380D02*
X120388152Y-77552380D01*
X120054819Y-77552380D02*
X120102438Y-77599999D01*
X120102438Y-77599999D02*
X120150057Y-77552380D01*
X120150057Y-77552380D02*
X120102438Y-77504761D01*
X120102438Y-77504761D02*
X120054819Y-77552380D01*
X120054819Y-77552380D02*
X120150057Y-77552380D01*
X120388152Y-77219047D02*
X120388152Y-76838095D01*
X120054819Y-77076190D02*
X120911961Y-77076190D01*
X120911961Y-77076190D02*
X121007200Y-77028571D01*
X121007200Y-77028571D02*
X121054819Y-76933333D01*
X121054819Y-76933333D02*
X121054819Y-76838095D01*
X121007200Y-76076190D02*
X121054819Y-76171428D01*
X121054819Y-76171428D02*
X121054819Y-76361904D01*
X121054819Y-76361904D02*
X121007200Y-76457142D01*
X121007200Y-76457142D02*
X120959580Y-76504761D01*
X120959580Y-76504761D02*
X120864342Y-76552380D01*
X120864342Y-76552380D02*
X120578628Y-76552380D01*
X120578628Y-76552380D02*
X120483390Y-76504761D01*
X120483390Y-76504761D02*
X120435771Y-76457142D01*
X120435771Y-76457142D02*
X120388152Y-76361904D01*
X120388152Y-76361904D02*
X120388152Y-76171428D01*
X120388152Y-76171428D02*
X120435771Y-76076190D01*
X121054819Y-75647618D02*
X120054819Y-75647618D01*
X121054819Y-75219047D02*
X120531009Y-75219047D01*
X120531009Y-75219047D02*
X120435771Y-75266666D01*
X120435771Y-75266666D02*
X120388152Y-75361904D01*
X120388152Y-75361904D02*
X120388152Y-75504761D01*
X120388152Y-75504761D02*
X120435771Y-75599999D01*
X120435771Y-75599999D02*
X120483390Y-75647618D01*
X121054819Y-73457142D02*
X121054819Y-74028570D01*
X121054819Y-73742856D02*
X120054819Y-73742856D01*
X120054819Y-73742856D02*
X120197676Y-73838094D01*
X120197676Y-73838094D02*
X120292914Y-73933332D01*
X120292914Y-73933332D02*
X120340533Y-74028570D01*
X120054819Y-72838094D02*
X120054819Y-72742856D01*
X120054819Y-72742856D02*
X120102438Y-72647618D01*
X120102438Y-72647618D02*
X120150057Y-72599999D01*
X120150057Y-72599999D02*
X120245295Y-72552380D01*
X120245295Y-72552380D02*
X120435771Y-72504761D01*
X120435771Y-72504761D02*
X120673866Y-72504761D01*
X120673866Y-72504761D02*
X120864342Y-72552380D01*
X120864342Y-72552380D02*
X120959580Y-72599999D01*
X120959580Y-72599999D02*
X121007200Y-72647618D01*
X121007200Y-72647618D02*
X121054819Y-72742856D01*
X121054819Y-72742856D02*
X121054819Y-72838094D01*
X121054819Y-72838094D02*
X121007200Y-72933332D01*
X121007200Y-72933332D02*
X120959580Y-72980951D01*
X120959580Y-72980951D02*
X120864342Y-73028570D01*
X120864342Y-73028570D02*
X120673866Y-73076189D01*
X120673866Y-73076189D02*
X120435771Y-73076189D01*
X120435771Y-73076189D02*
X120245295Y-73028570D01*
X120245295Y-73028570D02*
X120150057Y-72980951D01*
X120150057Y-72980951D02*
X120102438Y-72933332D01*
X120102438Y-72933332D02*
X120054819Y-72838094D01*
X120007200Y-71361904D02*
X121292914Y-72219046D01*
X121054819Y-70504761D02*
X121054819Y-71076189D01*
X121054819Y-70790475D02*
X120054819Y-70790475D01*
X120054819Y-70790475D02*
X120197676Y-70885713D01*
X120197676Y-70885713D02*
X120292914Y-70980951D01*
X120292914Y-70980951D02*
X120340533Y-71076189D01*
X120054819Y-69647618D02*
X120054819Y-69838094D01*
X120054819Y-69838094D02*
X120102438Y-69933332D01*
X120102438Y-69933332D02*
X120150057Y-69980951D01*
X120150057Y-69980951D02*
X120292914Y-70076189D01*
X120292914Y-70076189D02*
X120483390Y-70123808D01*
X120483390Y-70123808D02*
X120864342Y-70123808D01*
X120864342Y-70123808D02*
X120959580Y-70076189D01*
X120959580Y-70076189D02*
X121007200Y-70028570D01*
X121007200Y-70028570D02*
X121054819Y-69933332D01*
X121054819Y-69933332D02*
X121054819Y-69742856D01*
X121054819Y-69742856D02*
X121007200Y-69647618D01*
X121007200Y-69647618D02*
X120959580Y-69599999D01*
X120959580Y-69599999D02*
X120864342Y-69552380D01*
X120864342Y-69552380D02*
X120626247Y-69552380D01*
X120626247Y-69552380D02*
X120531009Y-69599999D01*
X120531009Y-69599999D02*
X120483390Y-69647618D01*
X120483390Y-69647618D02*
X120435771Y-69742856D01*
X120435771Y-69742856D02*
X120435771Y-69933332D01*
X120435771Y-69933332D02*
X120483390Y-70028570D01*
X120483390Y-70028570D02*
X120531009Y-70076189D01*
X120531009Y-70076189D02*
X120626247Y-70123808D01*
X120007200Y-68409523D02*
X121292914Y-69266665D01*
X120150057Y-68123808D02*
X120102438Y-68076189D01*
X120102438Y-68076189D02*
X120054819Y-67980951D01*
X120054819Y-67980951D02*
X120054819Y-67742856D01*
X120054819Y-67742856D02*
X120102438Y-67647618D01*
X120102438Y-67647618D02*
X120150057Y-67599999D01*
X120150057Y-67599999D02*
X120245295Y-67552380D01*
X120245295Y-67552380D02*
X120340533Y-67552380D01*
X120340533Y-67552380D02*
X120483390Y-67599999D01*
X120483390Y-67599999D02*
X121054819Y-68171427D01*
X121054819Y-68171427D02*
X121054819Y-67552380D01*
X120150057Y-67171427D02*
X120102438Y-67123808D01*
X120102438Y-67123808D02*
X120054819Y-67028570D01*
X120054819Y-67028570D02*
X120054819Y-66790475D01*
X120054819Y-66790475D02*
X120102438Y-66695237D01*
X120102438Y-66695237D02*
X120150057Y-66647618D01*
X120150057Y-66647618D02*
X120245295Y-66599999D01*
X120245295Y-66599999D02*
X120340533Y-66599999D01*
X120340533Y-66599999D02*
X120483390Y-66647618D01*
X120483390Y-66647618D02*
X121054819Y-67219046D01*
X121054819Y-67219046D02*
X121054819Y-66599999D01*
X158161905Y-64450057D02*
X158209524Y-64402438D01*
X158209524Y-64402438D02*
X158304762Y-64354819D01*
X158304762Y-64354819D02*
X158542857Y-64354819D01*
X158542857Y-64354819D02*
X158638095Y-64402438D01*
X158638095Y-64402438D02*
X158685714Y-64450057D01*
X158685714Y-64450057D02*
X158733333Y-64545295D01*
X158733333Y-64545295D02*
X158733333Y-64640533D01*
X158733333Y-64640533D02*
X158685714Y-64783390D01*
X158685714Y-64783390D02*
X158114286Y-65354819D01*
X158114286Y-65354819D02*
X158733333Y-65354819D01*
X159114286Y-64450057D02*
X159161905Y-64402438D01*
X159161905Y-64402438D02*
X159257143Y-64354819D01*
X159257143Y-64354819D02*
X159495238Y-64354819D01*
X159495238Y-64354819D02*
X159590476Y-64402438D01*
X159590476Y-64402438D02*
X159638095Y-64450057D01*
X159638095Y-64450057D02*
X159685714Y-64545295D01*
X159685714Y-64545295D02*
X159685714Y-64640533D01*
X159685714Y-64640533D02*
X159638095Y-64783390D01*
X159638095Y-64783390D02*
X159066667Y-65354819D01*
X159066667Y-65354819D02*
X159685714Y-65354819D01*
X160304762Y-64354819D02*
X160400000Y-64354819D01*
X160400000Y-64354819D02*
X160495238Y-64402438D01*
X160495238Y-64402438D02*
X160542857Y-64450057D01*
X160542857Y-64450057D02*
X160590476Y-64545295D01*
X160590476Y-64545295D02*
X160638095Y-64735771D01*
X160638095Y-64735771D02*
X160638095Y-64973866D01*
X160638095Y-64973866D02*
X160590476Y-65164342D01*
X160590476Y-65164342D02*
X160542857Y-65259580D01*
X160542857Y-65259580D02*
X160495238Y-65307200D01*
X160495238Y-65307200D02*
X160400000Y-65354819D01*
X160400000Y-65354819D02*
X160304762Y-65354819D01*
X160304762Y-65354819D02*
X160209524Y-65307200D01*
X160209524Y-65307200D02*
X160161905Y-65259580D01*
X160161905Y-65259580D02*
X160114286Y-65164342D01*
X160114286Y-65164342D02*
X160066667Y-64973866D01*
X160066667Y-64973866D02*
X160066667Y-64735771D01*
X160066667Y-64735771D02*
X160114286Y-64545295D01*
X160114286Y-64545295D02*
X160161905Y-64450057D01*
X160161905Y-64450057D02*
X160209524Y-64402438D01*
X160209524Y-64402438D02*
X160304762Y-64354819D01*
X123491905Y-73364819D02*
X123491905Y-72364819D01*
X123491905Y-72364819D02*
X123730000Y-72364819D01*
X123730000Y-72364819D02*
X123872857Y-72412438D01*
X123872857Y-72412438D02*
X123968095Y-72507676D01*
X123968095Y-72507676D02*
X124015714Y-72602914D01*
X124015714Y-72602914D02*
X124063333Y-72793390D01*
X124063333Y-72793390D02*
X124063333Y-72936247D01*
X124063333Y-72936247D02*
X124015714Y-73126723D01*
X124015714Y-73126723D02*
X123968095Y-73221961D01*
X123968095Y-73221961D02*
X123872857Y-73317200D01*
X123872857Y-73317200D02*
X123730000Y-73364819D01*
X123730000Y-73364819D02*
X123491905Y-73364819D01*
X124920476Y-72698152D02*
X124920476Y-73364819D01*
X124682381Y-72317200D02*
X124444286Y-73031485D01*
X124444286Y-73031485D02*
X125063333Y-73031485D01*
X141007200Y-79699999D02*
X141054819Y-79557142D01*
X141054819Y-79557142D02*
X141054819Y-79319047D01*
X141054819Y-79319047D02*
X141007200Y-79223809D01*
X141007200Y-79223809D02*
X140959580Y-79176190D01*
X140959580Y-79176190D02*
X140864342Y-79128571D01*
X140864342Y-79128571D02*
X140769104Y-79128571D01*
X140769104Y-79128571D02*
X140673866Y-79176190D01*
X140673866Y-79176190D02*
X140626247Y-79223809D01*
X140626247Y-79223809D02*
X140578628Y-79319047D01*
X140578628Y-79319047D02*
X140531009Y-79509523D01*
X140531009Y-79509523D02*
X140483390Y-79604761D01*
X140483390Y-79604761D02*
X140435771Y-79652380D01*
X140435771Y-79652380D02*
X140340533Y-79699999D01*
X140340533Y-79699999D02*
X140245295Y-79699999D01*
X140245295Y-79699999D02*
X140150057Y-79652380D01*
X140150057Y-79652380D02*
X140102438Y-79604761D01*
X140102438Y-79604761D02*
X140054819Y-79509523D01*
X140054819Y-79509523D02*
X140054819Y-79271428D01*
X140054819Y-79271428D02*
X140102438Y-79128571D01*
X140388152Y-78795237D02*
X141054819Y-78604761D01*
X141054819Y-78604761D02*
X140578628Y-78414285D01*
X140578628Y-78414285D02*
X141054819Y-78223809D01*
X141054819Y-78223809D02*
X140388152Y-78033333D01*
X141054819Y-77652380D02*
X140388152Y-77652380D01*
X140054819Y-77652380D02*
X140102438Y-77699999D01*
X140102438Y-77699999D02*
X140150057Y-77652380D01*
X140150057Y-77652380D02*
X140102438Y-77604761D01*
X140102438Y-77604761D02*
X140054819Y-77652380D01*
X140054819Y-77652380D02*
X140150057Y-77652380D01*
X140388152Y-77319047D02*
X140388152Y-76938095D01*
X140054819Y-77176190D02*
X140911961Y-77176190D01*
X140911961Y-77176190D02*
X141007200Y-77128571D01*
X141007200Y-77128571D02*
X141054819Y-77033333D01*
X141054819Y-77033333D02*
X141054819Y-76938095D01*
X141007200Y-76176190D02*
X141054819Y-76271428D01*
X141054819Y-76271428D02*
X141054819Y-76461904D01*
X141054819Y-76461904D02*
X141007200Y-76557142D01*
X141007200Y-76557142D02*
X140959580Y-76604761D01*
X140959580Y-76604761D02*
X140864342Y-76652380D01*
X140864342Y-76652380D02*
X140578628Y-76652380D01*
X140578628Y-76652380D02*
X140483390Y-76604761D01*
X140483390Y-76604761D02*
X140435771Y-76557142D01*
X140435771Y-76557142D02*
X140388152Y-76461904D01*
X140388152Y-76461904D02*
X140388152Y-76271428D01*
X140388152Y-76271428D02*
X140435771Y-76176190D01*
X141054819Y-75747618D02*
X140054819Y-75747618D01*
X141054819Y-75319047D02*
X140531009Y-75319047D01*
X140531009Y-75319047D02*
X140435771Y-75366666D01*
X140435771Y-75366666D02*
X140388152Y-75461904D01*
X140388152Y-75461904D02*
X140388152Y-75604761D01*
X140388152Y-75604761D02*
X140435771Y-75699999D01*
X140435771Y-75699999D02*
X140483390Y-75747618D01*
X141054819Y-73557142D02*
X141054819Y-74128570D01*
X141054819Y-73842856D02*
X140054819Y-73842856D01*
X140054819Y-73842856D02*
X140197676Y-73938094D01*
X140197676Y-73938094D02*
X140292914Y-74033332D01*
X140292914Y-74033332D02*
X140340533Y-74128570D01*
X141054819Y-72604761D02*
X141054819Y-73176189D01*
X141054819Y-72890475D02*
X140054819Y-72890475D01*
X140054819Y-72890475D02*
X140197676Y-72985713D01*
X140197676Y-72985713D02*
X140292914Y-73080951D01*
X140292914Y-73080951D02*
X140340533Y-73176189D01*
X140007200Y-71461904D02*
X141292914Y-72319046D01*
X141054819Y-70604761D02*
X141054819Y-71176189D01*
X141054819Y-70890475D02*
X140054819Y-70890475D01*
X140054819Y-70890475D02*
X140197676Y-70985713D01*
X140197676Y-70985713D02*
X140292914Y-71080951D01*
X140292914Y-71080951D02*
X140340533Y-71176189D01*
X140054819Y-70271427D02*
X140054819Y-69604761D01*
X140054819Y-69604761D02*
X141054819Y-70033332D01*
X140007200Y-68509523D02*
X141292914Y-69366665D01*
X140150057Y-68223808D02*
X140102438Y-68176189D01*
X140102438Y-68176189D02*
X140054819Y-68080951D01*
X140054819Y-68080951D02*
X140054819Y-67842856D01*
X140054819Y-67842856D02*
X140102438Y-67747618D01*
X140102438Y-67747618D02*
X140150057Y-67699999D01*
X140150057Y-67699999D02*
X140245295Y-67652380D01*
X140245295Y-67652380D02*
X140340533Y-67652380D01*
X140340533Y-67652380D02*
X140483390Y-67699999D01*
X140483390Y-67699999D02*
X141054819Y-68271427D01*
X141054819Y-68271427D02*
X141054819Y-67652380D01*
X140054819Y-67319046D02*
X140054819Y-66699999D01*
X140054819Y-66699999D02*
X140435771Y-67033332D01*
X140435771Y-67033332D02*
X140435771Y-66890475D01*
X140435771Y-66890475D02*
X140483390Y-66795237D01*
X140483390Y-66795237D02*
X140531009Y-66747618D01*
X140531009Y-66747618D02*
X140626247Y-66699999D01*
X140626247Y-66699999D02*
X140864342Y-66699999D01*
X140864342Y-66699999D02*
X140959580Y-66747618D01*
X140959580Y-66747618D02*
X141007200Y-66795237D01*
X141007200Y-66795237D02*
X141054819Y-66890475D01*
X141054819Y-66890475D02*
X141054819Y-67176189D01*
X141054819Y-67176189D02*
X141007200Y-67271427D01*
X141007200Y-67271427D02*
X140959580Y-67319046D01*
X81107200Y-79623809D02*
X81154819Y-79480952D01*
X81154819Y-79480952D02*
X81154819Y-79242857D01*
X81154819Y-79242857D02*
X81107200Y-79147619D01*
X81107200Y-79147619D02*
X81059580Y-79100000D01*
X81059580Y-79100000D02*
X80964342Y-79052381D01*
X80964342Y-79052381D02*
X80869104Y-79052381D01*
X80869104Y-79052381D02*
X80773866Y-79100000D01*
X80773866Y-79100000D02*
X80726247Y-79147619D01*
X80726247Y-79147619D02*
X80678628Y-79242857D01*
X80678628Y-79242857D02*
X80631009Y-79433333D01*
X80631009Y-79433333D02*
X80583390Y-79528571D01*
X80583390Y-79528571D02*
X80535771Y-79576190D01*
X80535771Y-79576190D02*
X80440533Y-79623809D01*
X80440533Y-79623809D02*
X80345295Y-79623809D01*
X80345295Y-79623809D02*
X80250057Y-79576190D01*
X80250057Y-79576190D02*
X80202438Y-79528571D01*
X80202438Y-79528571D02*
X80154819Y-79433333D01*
X80154819Y-79433333D02*
X80154819Y-79195238D01*
X80154819Y-79195238D02*
X80202438Y-79052381D01*
X80488152Y-78719047D02*
X81154819Y-78528571D01*
X81154819Y-78528571D02*
X80678628Y-78338095D01*
X80678628Y-78338095D02*
X81154819Y-78147619D01*
X81154819Y-78147619D02*
X80488152Y-77957143D01*
X81154819Y-77576190D02*
X80488152Y-77576190D01*
X80154819Y-77576190D02*
X80202438Y-77623809D01*
X80202438Y-77623809D02*
X80250057Y-77576190D01*
X80250057Y-77576190D02*
X80202438Y-77528571D01*
X80202438Y-77528571D02*
X80154819Y-77576190D01*
X80154819Y-77576190D02*
X80250057Y-77576190D01*
X80488152Y-77242857D02*
X80488152Y-76861905D01*
X80154819Y-77100000D02*
X81011961Y-77100000D01*
X81011961Y-77100000D02*
X81107200Y-77052381D01*
X81107200Y-77052381D02*
X81154819Y-76957143D01*
X81154819Y-76957143D02*
X81154819Y-76861905D01*
X81107200Y-76100000D02*
X81154819Y-76195238D01*
X81154819Y-76195238D02*
X81154819Y-76385714D01*
X81154819Y-76385714D02*
X81107200Y-76480952D01*
X81107200Y-76480952D02*
X81059580Y-76528571D01*
X81059580Y-76528571D02*
X80964342Y-76576190D01*
X80964342Y-76576190D02*
X80678628Y-76576190D01*
X80678628Y-76576190D02*
X80583390Y-76528571D01*
X80583390Y-76528571D02*
X80535771Y-76480952D01*
X80535771Y-76480952D02*
X80488152Y-76385714D01*
X80488152Y-76385714D02*
X80488152Y-76195238D01*
X80488152Y-76195238D02*
X80535771Y-76100000D01*
X81154819Y-75671428D02*
X80154819Y-75671428D01*
X81154819Y-75242857D02*
X80631009Y-75242857D01*
X80631009Y-75242857D02*
X80535771Y-75290476D01*
X80535771Y-75290476D02*
X80488152Y-75385714D01*
X80488152Y-75385714D02*
X80488152Y-75528571D01*
X80488152Y-75528571D02*
X80535771Y-75623809D01*
X80535771Y-75623809D02*
X80583390Y-75671428D01*
X80583390Y-73861904D02*
X80535771Y-73957142D01*
X80535771Y-73957142D02*
X80488152Y-74004761D01*
X80488152Y-74004761D02*
X80392914Y-74052380D01*
X80392914Y-74052380D02*
X80345295Y-74052380D01*
X80345295Y-74052380D02*
X80250057Y-74004761D01*
X80250057Y-74004761D02*
X80202438Y-73957142D01*
X80202438Y-73957142D02*
X80154819Y-73861904D01*
X80154819Y-73861904D02*
X80154819Y-73671428D01*
X80154819Y-73671428D02*
X80202438Y-73576190D01*
X80202438Y-73576190D02*
X80250057Y-73528571D01*
X80250057Y-73528571D02*
X80345295Y-73480952D01*
X80345295Y-73480952D02*
X80392914Y-73480952D01*
X80392914Y-73480952D02*
X80488152Y-73528571D01*
X80488152Y-73528571D02*
X80535771Y-73576190D01*
X80535771Y-73576190D02*
X80583390Y-73671428D01*
X80583390Y-73671428D02*
X80583390Y-73861904D01*
X80583390Y-73861904D02*
X80631009Y-73957142D01*
X80631009Y-73957142D02*
X80678628Y-74004761D01*
X80678628Y-74004761D02*
X80773866Y-74052380D01*
X80773866Y-74052380D02*
X80964342Y-74052380D01*
X80964342Y-74052380D02*
X81059580Y-74004761D01*
X81059580Y-74004761D02*
X81107200Y-73957142D01*
X81107200Y-73957142D02*
X81154819Y-73861904D01*
X81154819Y-73861904D02*
X81154819Y-73671428D01*
X81154819Y-73671428D02*
X81107200Y-73576190D01*
X81107200Y-73576190D02*
X81059580Y-73528571D01*
X81059580Y-73528571D02*
X80964342Y-73480952D01*
X80964342Y-73480952D02*
X80773866Y-73480952D01*
X80773866Y-73480952D02*
X80678628Y-73528571D01*
X80678628Y-73528571D02*
X80631009Y-73576190D01*
X80631009Y-73576190D02*
X80583390Y-73671428D01*
X80107200Y-72338095D02*
X81392914Y-73195237D01*
X81154819Y-71480952D02*
X81154819Y-72052380D01*
X81154819Y-71766666D02*
X80154819Y-71766666D01*
X80154819Y-71766666D02*
X80297676Y-71861904D01*
X80297676Y-71861904D02*
X80392914Y-71957142D01*
X80392914Y-71957142D02*
X80440533Y-72052380D01*
X80488152Y-70623809D02*
X81154819Y-70623809D01*
X80107200Y-70861904D02*
X80821485Y-71099999D01*
X80821485Y-71099999D02*
X80821485Y-70480952D01*
X80107200Y-69385714D02*
X81392914Y-70242856D01*
X80250057Y-69099999D02*
X80202438Y-69052380D01*
X80202438Y-69052380D02*
X80154819Y-68957142D01*
X80154819Y-68957142D02*
X80154819Y-68719047D01*
X80154819Y-68719047D02*
X80202438Y-68623809D01*
X80202438Y-68623809D02*
X80250057Y-68576190D01*
X80250057Y-68576190D02*
X80345295Y-68528571D01*
X80345295Y-68528571D02*
X80440533Y-68528571D01*
X80440533Y-68528571D02*
X80583390Y-68576190D01*
X80583390Y-68576190D02*
X81154819Y-69147618D01*
X81154819Y-69147618D02*
X81154819Y-68528571D01*
X80154819Y-67909523D02*
X80154819Y-67814285D01*
X80154819Y-67814285D02*
X80202438Y-67719047D01*
X80202438Y-67719047D02*
X80250057Y-67671428D01*
X80250057Y-67671428D02*
X80345295Y-67623809D01*
X80345295Y-67623809D02*
X80535771Y-67576190D01*
X80535771Y-67576190D02*
X80773866Y-67576190D01*
X80773866Y-67576190D02*
X80964342Y-67623809D01*
X80964342Y-67623809D02*
X81059580Y-67671428D01*
X81059580Y-67671428D02*
X81107200Y-67719047D01*
X81107200Y-67719047D02*
X81154819Y-67814285D01*
X81154819Y-67814285D02*
X81154819Y-67909523D01*
X81154819Y-67909523D02*
X81107200Y-68004761D01*
X81107200Y-68004761D02*
X81059580Y-68052380D01*
X81059580Y-68052380D02*
X80964342Y-68099999D01*
X80964342Y-68099999D02*
X80773866Y-68147618D01*
X80773866Y-68147618D02*
X80535771Y-68147618D01*
X80535771Y-68147618D02*
X80345295Y-68099999D01*
X80345295Y-68099999D02*
X80250057Y-68052380D01*
X80250057Y-68052380D02*
X80202438Y-68004761D01*
X80202438Y-68004761D02*
X80154819Y-67909523D01*
X138091905Y-64450057D02*
X138139524Y-64402438D01*
X138139524Y-64402438D02*
X138234762Y-64354819D01*
X138234762Y-64354819D02*
X138472857Y-64354819D01*
X138472857Y-64354819D02*
X138568095Y-64402438D01*
X138568095Y-64402438D02*
X138615714Y-64450057D01*
X138615714Y-64450057D02*
X138663333Y-64545295D01*
X138663333Y-64545295D02*
X138663333Y-64640533D01*
X138663333Y-64640533D02*
X138615714Y-64783390D01*
X138615714Y-64783390D02*
X138044286Y-65354819D01*
X138044286Y-65354819D02*
X138663333Y-65354819D01*
X139044286Y-64450057D02*
X139091905Y-64402438D01*
X139091905Y-64402438D02*
X139187143Y-64354819D01*
X139187143Y-64354819D02*
X139425238Y-64354819D01*
X139425238Y-64354819D02*
X139520476Y-64402438D01*
X139520476Y-64402438D02*
X139568095Y-64450057D01*
X139568095Y-64450057D02*
X139615714Y-64545295D01*
X139615714Y-64545295D02*
X139615714Y-64640533D01*
X139615714Y-64640533D02*
X139568095Y-64783390D01*
X139568095Y-64783390D02*
X138996667Y-65354819D01*
X138996667Y-65354819D02*
X139615714Y-65354819D01*
X140234762Y-64354819D02*
X140330000Y-64354819D01*
X140330000Y-64354819D02*
X140425238Y-64402438D01*
X140425238Y-64402438D02*
X140472857Y-64450057D01*
X140472857Y-64450057D02*
X140520476Y-64545295D01*
X140520476Y-64545295D02*
X140568095Y-64735771D01*
X140568095Y-64735771D02*
X140568095Y-64973866D01*
X140568095Y-64973866D02*
X140520476Y-65164342D01*
X140520476Y-65164342D02*
X140472857Y-65259580D01*
X140472857Y-65259580D02*
X140425238Y-65307200D01*
X140425238Y-65307200D02*
X140330000Y-65354819D01*
X140330000Y-65354819D02*
X140234762Y-65354819D01*
X140234762Y-65354819D02*
X140139524Y-65307200D01*
X140139524Y-65307200D02*
X140091905Y-65259580D01*
X140091905Y-65259580D02*
X140044286Y-65164342D01*
X140044286Y-65164342D02*
X139996667Y-64973866D01*
X139996667Y-64973866D02*
X139996667Y-64735771D01*
X139996667Y-64735771D02*
X140044286Y-64545295D01*
X140044286Y-64545295D02*
X140091905Y-64450057D01*
X140091905Y-64450057D02*
X140139524Y-64402438D01*
X140139524Y-64402438D02*
X140234762Y-64354819D01*
X58091905Y-64550057D02*
X58139524Y-64502438D01*
X58139524Y-64502438D02*
X58234762Y-64454819D01*
X58234762Y-64454819D02*
X58472857Y-64454819D01*
X58472857Y-64454819D02*
X58568095Y-64502438D01*
X58568095Y-64502438D02*
X58615714Y-64550057D01*
X58615714Y-64550057D02*
X58663333Y-64645295D01*
X58663333Y-64645295D02*
X58663333Y-64740533D01*
X58663333Y-64740533D02*
X58615714Y-64883390D01*
X58615714Y-64883390D02*
X58044286Y-65454819D01*
X58044286Y-65454819D02*
X58663333Y-65454819D01*
X59044286Y-64550057D02*
X59091905Y-64502438D01*
X59091905Y-64502438D02*
X59187143Y-64454819D01*
X59187143Y-64454819D02*
X59425238Y-64454819D01*
X59425238Y-64454819D02*
X59520476Y-64502438D01*
X59520476Y-64502438D02*
X59568095Y-64550057D01*
X59568095Y-64550057D02*
X59615714Y-64645295D01*
X59615714Y-64645295D02*
X59615714Y-64740533D01*
X59615714Y-64740533D02*
X59568095Y-64883390D01*
X59568095Y-64883390D02*
X58996667Y-65454819D01*
X58996667Y-65454819D02*
X59615714Y-65454819D01*
X60234762Y-64454819D02*
X60330000Y-64454819D01*
X60330000Y-64454819D02*
X60425238Y-64502438D01*
X60425238Y-64502438D02*
X60472857Y-64550057D01*
X60472857Y-64550057D02*
X60520476Y-64645295D01*
X60520476Y-64645295D02*
X60568095Y-64835771D01*
X60568095Y-64835771D02*
X60568095Y-65073866D01*
X60568095Y-65073866D02*
X60520476Y-65264342D01*
X60520476Y-65264342D02*
X60472857Y-65359580D01*
X60472857Y-65359580D02*
X60425238Y-65407200D01*
X60425238Y-65407200D02*
X60330000Y-65454819D01*
X60330000Y-65454819D02*
X60234762Y-65454819D01*
X60234762Y-65454819D02*
X60139524Y-65407200D01*
X60139524Y-65407200D02*
X60091905Y-65359580D01*
X60091905Y-65359580D02*
X60044286Y-65264342D01*
X60044286Y-65264342D02*
X59996667Y-65073866D01*
X59996667Y-65073866D02*
X59996667Y-64835771D01*
X59996667Y-64835771D02*
X60044286Y-64645295D01*
X60044286Y-64645295D02*
X60091905Y-64550057D01*
X60091905Y-64550057D02*
X60139524Y-64502438D01*
X60139524Y-64502438D02*
X60234762Y-64454819D01*
X100907200Y-79623809D02*
X100954819Y-79480952D01*
X100954819Y-79480952D02*
X100954819Y-79242857D01*
X100954819Y-79242857D02*
X100907200Y-79147619D01*
X100907200Y-79147619D02*
X100859580Y-79100000D01*
X100859580Y-79100000D02*
X100764342Y-79052381D01*
X100764342Y-79052381D02*
X100669104Y-79052381D01*
X100669104Y-79052381D02*
X100573866Y-79100000D01*
X100573866Y-79100000D02*
X100526247Y-79147619D01*
X100526247Y-79147619D02*
X100478628Y-79242857D01*
X100478628Y-79242857D02*
X100431009Y-79433333D01*
X100431009Y-79433333D02*
X100383390Y-79528571D01*
X100383390Y-79528571D02*
X100335771Y-79576190D01*
X100335771Y-79576190D02*
X100240533Y-79623809D01*
X100240533Y-79623809D02*
X100145295Y-79623809D01*
X100145295Y-79623809D02*
X100050057Y-79576190D01*
X100050057Y-79576190D02*
X100002438Y-79528571D01*
X100002438Y-79528571D02*
X99954819Y-79433333D01*
X99954819Y-79433333D02*
X99954819Y-79195238D01*
X99954819Y-79195238D02*
X100002438Y-79052381D01*
X100288152Y-78719047D02*
X100954819Y-78528571D01*
X100954819Y-78528571D02*
X100478628Y-78338095D01*
X100478628Y-78338095D02*
X100954819Y-78147619D01*
X100954819Y-78147619D02*
X100288152Y-77957143D01*
X100954819Y-77576190D02*
X100288152Y-77576190D01*
X99954819Y-77576190D02*
X100002438Y-77623809D01*
X100002438Y-77623809D02*
X100050057Y-77576190D01*
X100050057Y-77576190D02*
X100002438Y-77528571D01*
X100002438Y-77528571D02*
X99954819Y-77576190D01*
X99954819Y-77576190D02*
X100050057Y-77576190D01*
X100288152Y-77242857D02*
X100288152Y-76861905D01*
X99954819Y-77100000D02*
X100811961Y-77100000D01*
X100811961Y-77100000D02*
X100907200Y-77052381D01*
X100907200Y-77052381D02*
X100954819Y-76957143D01*
X100954819Y-76957143D02*
X100954819Y-76861905D01*
X100907200Y-76100000D02*
X100954819Y-76195238D01*
X100954819Y-76195238D02*
X100954819Y-76385714D01*
X100954819Y-76385714D02*
X100907200Y-76480952D01*
X100907200Y-76480952D02*
X100859580Y-76528571D01*
X100859580Y-76528571D02*
X100764342Y-76576190D01*
X100764342Y-76576190D02*
X100478628Y-76576190D01*
X100478628Y-76576190D02*
X100383390Y-76528571D01*
X100383390Y-76528571D02*
X100335771Y-76480952D01*
X100335771Y-76480952D02*
X100288152Y-76385714D01*
X100288152Y-76385714D02*
X100288152Y-76195238D01*
X100288152Y-76195238D02*
X100335771Y-76100000D01*
X100954819Y-75671428D02*
X99954819Y-75671428D01*
X100954819Y-75242857D02*
X100431009Y-75242857D01*
X100431009Y-75242857D02*
X100335771Y-75290476D01*
X100335771Y-75290476D02*
X100288152Y-75385714D01*
X100288152Y-75385714D02*
X100288152Y-75528571D01*
X100288152Y-75528571D02*
X100335771Y-75623809D01*
X100335771Y-75623809D02*
X100383390Y-75671428D01*
X100954819Y-73957142D02*
X100954819Y-73766666D01*
X100954819Y-73766666D02*
X100907200Y-73671428D01*
X100907200Y-73671428D02*
X100859580Y-73623809D01*
X100859580Y-73623809D02*
X100716723Y-73528571D01*
X100716723Y-73528571D02*
X100526247Y-73480952D01*
X100526247Y-73480952D02*
X100145295Y-73480952D01*
X100145295Y-73480952D02*
X100050057Y-73528571D01*
X100050057Y-73528571D02*
X100002438Y-73576190D01*
X100002438Y-73576190D02*
X99954819Y-73671428D01*
X99954819Y-73671428D02*
X99954819Y-73861904D01*
X99954819Y-73861904D02*
X100002438Y-73957142D01*
X100002438Y-73957142D02*
X100050057Y-74004761D01*
X100050057Y-74004761D02*
X100145295Y-74052380D01*
X100145295Y-74052380D02*
X100383390Y-74052380D01*
X100383390Y-74052380D02*
X100478628Y-74004761D01*
X100478628Y-74004761D02*
X100526247Y-73957142D01*
X100526247Y-73957142D02*
X100573866Y-73861904D01*
X100573866Y-73861904D02*
X100573866Y-73671428D01*
X100573866Y-73671428D02*
X100526247Y-73576190D01*
X100526247Y-73576190D02*
X100478628Y-73528571D01*
X100478628Y-73528571D02*
X100383390Y-73480952D01*
X99907200Y-72338095D02*
X101192914Y-73195237D01*
X100954819Y-71480952D02*
X100954819Y-72052380D01*
X100954819Y-71766666D02*
X99954819Y-71766666D01*
X99954819Y-71766666D02*
X100097676Y-71861904D01*
X100097676Y-71861904D02*
X100192914Y-71957142D01*
X100192914Y-71957142D02*
X100240533Y-72052380D01*
X99954819Y-70576190D02*
X99954819Y-71052380D01*
X99954819Y-71052380D02*
X100431009Y-71099999D01*
X100431009Y-71099999D02*
X100383390Y-71052380D01*
X100383390Y-71052380D02*
X100335771Y-70957142D01*
X100335771Y-70957142D02*
X100335771Y-70719047D01*
X100335771Y-70719047D02*
X100383390Y-70623809D01*
X100383390Y-70623809D02*
X100431009Y-70576190D01*
X100431009Y-70576190D02*
X100526247Y-70528571D01*
X100526247Y-70528571D02*
X100764342Y-70528571D01*
X100764342Y-70528571D02*
X100859580Y-70576190D01*
X100859580Y-70576190D02*
X100907200Y-70623809D01*
X100907200Y-70623809D02*
X100954819Y-70719047D01*
X100954819Y-70719047D02*
X100954819Y-70957142D01*
X100954819Y-70957142D02*
X100907200Y-71052380D01*
X100907200Y-71052380D02*
X100859580Y-71099999D01*
X99907200Y-69385714D02*
X101192914Y-70242856D01*
X100050057Y-69099999D02*
X100002438Y-69052380D01*
X100002438Y-69052380D02*
X99954819Y-68957142D01*
X99954819Y-68957142D02*
X99954819Y-68719047D01*
X99954819Y-68719047D02*
X100002438Y-68623809D01*
X100002438Y-68623809D02*
X100050057Y-68576190D01*
X100050057Y-68576190D02*
X100145295Y-68528571D01*
X100145295Y-68528571D02*
X100240533Y-68528571D01*
X100240533Y-68528571D02*
X100383390Y-68576190D01*
X100383390Y-68576190D02*
X100954819Y-69147618D01*
X100954819Y-69147618D02*
X100954819Y-68528571D01*
X100954819Y-67576190D02*
X100954819Y-68147618D01*
X100954819Y-67861904D02*
X99954819Y-67861904D01*
X99954819Y-67861904D02*
X100097676Y-67957142D01*
X100097676Y-67957142D02*
X100192914Y-68052380D01*
X100192914Y-68052380D02*
X100240533Y-68147618D01*
X143441905Y-73364819D02*
X143441905Y-72364819D01*
X143441905Y-72364819D02*
X143680000Y-72364819D01*
X143680000Y-72364819D02*
X143822857Y-72412438D01*
X143822857Y-72412438D02*
X143918095Y-72507676D01*
X143918095Y-72507676D02*
X143965714Y-72602914D01*
X143965714Y-72602914D02*
X144013333Y-72793390D01*
X144013333Y-72793390D02*
X144013333Y-72936247D01*
X144013333Y-72936247D02*
X143965714Y-73126723D01*
X143965714Y-73126723D02*
X143918095Y-73221961D01*
X143918095Y-73221961D02*
X143822857Y-73317200D01*
X143822857Y-73317200D02*
X143680000Y-73364819D01*
X143680000Y-73364819D02*
X143441905Y-73364819D01*
X144918095Y-72364819D02*
X144441905Y-72364819D01*
X144441905Y-72364819D02*
X144394286Y-72841009D01*
X144394286Y-72841009D02*
X144441905Y-72793390D01*
X144441905Y-72793390D02*
X144537143Y-72745771D01*
X144537143Y-72745771D02*
X144775238Y-72745771D01*
X144775238Y-72745771D02*
X144870476Y-72793390D01*
X144870476Y-72793390D02*
X144918095Y-72841009D01*
X144918095Y-72841009D02*
X144965714Y-72936247D01*
X144965714Y-72936247D02*
X144965714Y-73174342D01*
X144965714Y-73174342D02*
X144918095Y-73269580D01*
X144918095Y-73269580D02*
X144870476Y-73317200D01*
X144870476Y-73317200D02*
X144775238Y-73364819D01*
X144775238Y-73364819D02*
X144537143Y-73364819D01*
X144537143Y-73364819D02*
X144441905Y-73317200D01*
X144441905Y-73317200D02*
X144394286Y-73269580D01*
D11*
%TO.C,J9*%
X133250000Y-52800000D02*
X135050000Y-52800000D01*
X117450000Y-52800000D02*
X119250000Y-52800000D01*
X118200000Y-57250000D02*
X126250000Y-57250000D01*
X119250000Y-52800000D02*
X119250000Y-52050000D01*
X135050000Y-52800000D02*
X135050000Y-52050000D01*
X131750000Y-52800000D02*
X131750000Y-52050000D01*
X134300000Y-54300000D02*
X134300000Y-57250000D01*
X117440000Y-58010000D02*
X135060000Y-58010000D01*
X135060000Y-52040000D02*
X117440000Y-52040000D01*
X117440000Y-52040000D02*
X117440000Y-58010000D01*
X117450000Y-52050000D02*
X117450000Y-52800000D01*
X134300000Y-57250000D02*
X126250000Y-57250000D01*
X120750000Y-52800000D02*
X131750000Y-52800000D01*
X118200000Y-54300000D02*
X118200000Y-57250000D01*
X117150000Y-51750000D02*
X117150000Y-53000000D01*
X118400000Y-51750000D02*
X117150000Y-51750000D01*
X135050000Y-54300000D02*
X134300000Y-54300000D01*
X133250000Y-52050000D02*
X133250000Y-52800000D01*
X131750000Y-52050000D02*
X120750000Y-52050000D01*
X117450000Y-54300000D02*
X118200000Y-54300000D01*
X135050000Y-52050000D02*
X133250000Y-52050000D01*
X135060000Y-58010000D02*
X135060000Y-52040000D01*
X119250000Y-52050000D02*
X117450000Y-52050000D01*
X120750000Y-52050000D02*
X120750000Y-52800000D01*
%TO.C,J10*%
X153250000Y-52800000D02*
X155050000Y-52800000D01*
X137450000Y-52800000D02*
X139250000Y-52800000D01*
X138200000Y-57250000D02*
X146250000Y-57250000D01*
X139250000Y-52800000D02*
X139250000Y-52050000D01*
X155050000Y-52800000D02*
X155050000Y-52050000D01*
X151750000Y-52800000D02*
X151750000Y-52050000D01*
X154300000Y-54300000D02*
X154300000Y-57250000D01*
X137440000Y-58010000D02*
X155060000Y-58010000D01*
X155060000Y-52040000D02*
X137440000Y-52040000D01*
X137440000Y-52040000D02*
X137440000Y-58010000D01*
X137450000Y-52050000D02*
X137450000Y-52800000D01*
X154300000Y-57250000D02*
X146250000Y-57250000D01*
X140750000Y-52800000D02*
X151750000Y-52800000D01*
X138200000Y-54300000D02*
X138200000Y-57250000D01*
X137150000Y-51750000D02*
X137150000Y-53000000D01*
X138400000Y-51750000D02*
X137150000Y-51750000D01*
X155050000Y-54300000D02*
X154300000Y-54300000D01*
X153250000Y-52050000D02*
X153250000Y-52800000D01*
X151750000Y-52050000D02*
X140750000Y-52050000D01*
X137450000Y-54300000D02*
X138200000Y-54300000D01*
X155050000Y-52050000D02*
X153250000Y-52050000D01*
X155060000Y-58010000D02*
X155060000Y-52040000D01*
X139250000Y-52050000D02*
X137450000Y-52050000D01*
X140750000Y-52050000D02*
X140750000Y-52800000D01*
%TO.C,J8*%
X113250000Y-52800000D02*
X115050000Y-52800000D01*
X97450000Y-52800000D02*
X99250000Y-52800000D01*
X98200000Y-57250000D02*
X106250000Y-57250000D01*
X99250000Y-52800000D02*
X99250000Y-52050000D01*
X115050000Y-52800000D02*
X115050000Y-52050000D01*
X111750000Y-52800000D02*
X111750000Y-52050000D01*
X114300000Y-54300000D02*
X114300000Y-57250000D01*
X97440000Y-58010000D02*
X115060000Y-58010000D01*
X115060000Y-52040000D02*
X97440000Y-52040000D01*
X97440000Y-52040000D02*
X97440000Y-58010000D01*
X97450000Y-52050000D02*
X97450000Y-52800000D01*
X114300000Y-57250000D02*
X106250000Y-57250000D01*
X100750000Y-52800000D02*
X111750000Y-52800000D01*
X98200000Y-54300000D02*
X98200000Y-57250000D01*
X97150000Y-51750000D02*
X97150000Y-53000000D01*
X98400000Y-51750000D02*
X97150000Y-51750000D01*
X115050000Y-54300000D02*
X114300000Y-54300000D01*
X113250000Y-52050000D02*
X113250000Y-52800000D01*
X111750000Y-52050000D02*
X100750000Y-52050000D01*
X97450000Y-54300000D02*
X98200000Y-54300000D01*
X115050000Y-52050000D02*
X113250000Y-52050000D01*
X115060000Y-58010000D02*
X115060000Y-52040000D01*
X99250000Y-52050000D02*
X97450000Y-52050000D01*
X100750000Y-52050000D02*
X100750000Y-52800000D01*
%TO.C,J1*%
X86050000Y-54300000D02*
X85300000Y-54300000D01*
X85300000Y-54300000D02*
X85300000Y-57250000D01*
X85300000Y-57250000D02*
X82250000Y-57250000D01*
X79200000Y-54300000D02*
X79200000Y-57250000D01*
X82750000Y-52050000D02*
X81750000Y-52050000D01*
X81750000Y-52050000D02*
X81750000Y-52800000D01*
X81750000Y-52800000D02*
X82750000Y-52800000D01*
X84250000Y-52800000D02*
X86050000Y-52800000D01*
X86050000Y-52050000D02*
X84250000Y-52050000D01*
X78150000Y-51750000D02*
X78150000Y-53000000D01*
X78440000Y-52040000D02*
X78440000Y-58010000D01*
X78450000Y-52050000D02*
X78450000Y-52800000D01*
X78440000Y-58010000D02*
X86060000Y-58010000D01*
X82750000Y-52800000D02*
X82750000Y-52050000D01*
X78450000Y-54300000D02*
X79200000Y-54300000D01*
X78450000Y-52800000D02*
X80250000Y-52800000D01*
X79400000Y-51750000D02*
X78150000Y-51750000D01*
X86050000Y-52800000D02*
X86050000Y-52050000D01*
X80250000Y-52050000D02*
X78450000Y-52050000D01*
X86060000Y-52040000D02*
X78440000Y-52040000D01*
X79200000Y-57250000D02*
X82250000Y-57250000D01*
X84250000Y-52050000D02*
X84250000Y-52800000D01*
X86060000Y-58010000D02*
X86060000Y-52040000D01*
X80250000Y-52800000D02*
X80250000Y-52050000D01*
D10*
%TO.C,Switch6*%
X151325000Y-71950000D02*
X151325000Y-79950000D01*
X151325000Y-71950000D02*
X159575000Y-71950000D01*
X151325000Y-79955000D02*
X159575000Y-79955000D01*
X152910000Y-69150000D02*
X152910000Y-69850000D01*
X152910000Y-71700000D02*
X152910000Y-71950000D01*
X155450000Y-69150000D02*
X155450000Y-69850000D01*
X155450000Y-71700000D02*
X155450000Y-71950000D01*
X157990000Y-69150000D02*
X157990000Y-69850000D01*
X157990000Y-71950000D02*
X157990000Y-71700000D01*
X159575000Y-71950000D02*
X159575000Y-79950000D01*
D11*
%TO.C,R3*%
X105910000Y-64950000D02*
X103950000Y-64950000D01*
X103950000Y-66670000D02*
X103950000Y-63230000D01*
X103950000Y-63230000D02*
X94710000Y-63230000D01*
X94710000Y-66670000D02*
X103950000Y-66670000D01*
X94710000Y-63230000D02*
X94710000Y-66670000D01*
X92750000Y-64950000D02*
X94710000Y-64950000D01*
%TO.C,D2*%
X85740000Y-71186000D02*
X85740000Y-71030000D01*
X85740000Y-68870000D02*
X85740000Y-68714000D01*
X82507666Y-71028608D02*
G75*
G03*
X85739999Y-71185515I1672334J1078608D01*
G01*
X83138871Y-71029836D02*
G75*
G03*
X85220960Y-71029999I1041129J1079836D01*
G01*
X85220960Y-68870001D02*
G75*
G03*
X83138871Y-68870164I-1040960J-1079999D01*
G01*
X85739999Y-68714485D02*
G75*
G03*
X82507666Y-68871392I-1559999J-1235515D01*
G01*
%TO.C,R2*%
X85910000Y-64950000D02*
X83950000Y-64950000D01*
X83950000Y-66670000D02*
X83950000Y-63230000D01*
X83950000Y-63230000D02*
X74710000Y-63230000D01*
X74710000Y-66670000D02*
X83950000Y-66670000D01*
X74710000Y-63230000D02*
X74710000Y-66670000D01*
X72750000Y-64950000D02*
X74710000Y-64950000D01*
D10*
%TO.C,Switch1*%
X51675000Y-71950000D02*
X51675000Y-79950000D01*
X51675000Y-71950000D02*
X59925000Y-71950000D01*
X51675000Y-79955000D02*
X59925000Y-79955000D01*
X53260000Y-69150000D02*
X53260000Y-69850000D01*
X53260000Y-71700000D02*
X53260000Y-71950000D01*
X55800000Y-69150000D02*
X55800000Y-69850000D01*
X55800000Y-71700000D02*
X55800000Y-71950000D01*
X58340000Y-69150000D02*
X58340000Y-69850000D01*
X58340000Y-71950000D02*
X58340000Y-71700000D01*
X59925000Y-71950000D02*
X59925000Y-79950000D01*
D11*
%TO.C,R4*%
X125910000Y-64950000D02*
X123950000Y-64950000D01*
X123950000Y-66670000D02*
X123950000Y-63230000D01*
X123950000Y-63230000D02*
X114710000Y-63230000D01*
X114710000Y-66670000D02*
X123950000Y-66670000D01*
X114710000Y-63230000D02*
X114710000Y-66670000D01*
X112750000Y-64950000D02*
X114710000Y-64950000D01*
%TO.C,D1*%
X65740000Y-71186000D02*
X65740000Y-71030000D01*
X65740000Y-68870000D02*
X65740000Y-68714000D01*
X62507666Y-71028608D02*
G75*
G03*
X65739999Y-71185515I1672334J1078608D01*
G01*
X63138871Y-71029836D02*
G75*
G03*
X65220960Y-71029999I1041129J1079836D01*
G01*
X65220960Y-68870001D02*
G75*
G03*
X63138871Y-68870164I-1040960J-1079999D01*
G01*
X65739999Y-68714485D02*
G75*
G03*
X62507666Y-68871392I-1559999J-1235515D01*
G01*
%TO.C,D3*%
X105740000Y-71186000D02*
X105740000Y-71030000D01*
X105740000Y-68870000D02*
X105740000Y-68714000D01*
X102507666Y-71028608D02*
G75*
G03*
X105739999Y-71185515I1672334J1078608D01*
G01*
X103138871Y-71029836D02*
G75*
G03*
X105220960Y-71029999I1041129J1079836D01*
G01*
X105220960Y-68870001D02*
G75*
G03*
X103138871Y-68870164I-1040960J-1079999D01*
G01*
X105739999Y-68714485D02*
G75*
G03*
X102507666Y-68871392I-1559999J-1235515D01*
G01*
%TO.C,D6*%
X165740000Y-71186000D02*
X165740000Y-71030000D01*
X165740000Y-68870000D02*
X165740000Y-68714000D01*
X162507666Y-71028608D02*
G75*
G03*
X165739999Y-71185515I1672334J1078608D01*
G01*
X163138871Y-71029836D02*
G75*
G03*
X165220960Y-71029999I1041129J1079836D01*
G01*
X165220960Y-68870001D02*
G75*
G03*
X163138871Y-68870164I-1040960J-1079999D01*
G01*
X165739999Y-68714485D02*
G75*
G03*
X162507666Y-68871392I-1559999J-1235515D01*
G01*
D10*
%TO.C,Switch4*%
X111325000Y-71950000D02*
X111325000Y-79950000D01*
X111325000Y-71950000D02*
X119575000Y-71950000D01*
X111325000Y-79955000D02*
X119575000Y-79955000D01*
X112910000Y-69150000D02*
X112910000Y-69850000D01*
X112910000Y-71700000D02*
X112910000Y-71950000D01*
X115450000Y-69150000D02*
X115450000Y-69850000D01*
X115450000Y-71700000D02*
X115450000Y-71950000D01*
X117990000Y-69150000D02*
X117990000Y-69850000D01*
X117990000Y-71950000D02*
X117990000Y-71700000D01*
X119575000Y-71950000D02*
X119575000Y-79950000D01*
D11*
%TO.C,R6*%
X165910000Y-64950000D02*
X163950000Y-64950000D01*
X163950000Y-66670000D02*
X163950000Y-63230000D01*
X163950000Y-63230000D02*
X154710000Y-63230000D01*
X154710000Y-66670000D02*
X163950000Y-66670000D01*
X154710000Y-63230000D02*
X154710000Y-66670000D01*
X152750000Y-64950000D02*
X154710000Y-64950000D01*
%TO.C,D4*%
X125790000Y-71186000D02*
X125790000Y-71030000D01*
X125790000Y-68870000D02*
X125790000Y-68714000D01*
X122557666Y-71028608D02*
G75*
G03*
X125789999Y-71185515I1672334J1078608D01*
G01*
X123188871Y-71029836D02*
G75*
G03*
X125270960Y-71029999I1041129J1079836D01*
G01*
X125270960Y-68870001D02*
G75*
G03*
X123188871Y-68870164I-1040960J-1079999D01*
G01*
X125789999Y-68714485D02*
G75*
G03*
X122557666Y-68871392I-1559999J-1235515D01*
G01*
D10*
%TO.C,Switch5*%
X131325000Y-71950000D02*
X131325000Y-79950000D01*
X131325000Y-71950000D02*
X139575000Y-71950000D01*
X131325000Y-79955000D02*
X139575000Y-79955000D01*
X132910000Y-69150000D02*
X132910000Y-69850000D01*
X132910000Y-71700000D02*
X132910000Y-71950000D01*
X135450000Y-69150000D02*
X135450000Y-69850000D01*
X135450000Y-71700000D02*
X135450000Y-71950000D01*
X137990000Y-69150000D02*
X137990000Y-69850000D01*
X137990000Y-71950000D02*
X137990000Y-71700000D01*
X139575000Y-71950000D02*
X139575000Y-79950000D01*
%TO.C,Switch2*%
X71475000Y-71950000D02*
X71475000Y-79950000D01*
X71475000Y-71950000D02*
X79725000Y-71950000D01*
X71475000Y-79955000D02*
X79725000Y-79955000D01*
X73060000Y-69150000D02*
X73060000Y-69850000D01*
X73060000Y-71700000D02*
X73060000Y-71950000D01*
X75600000Y-69150000D02*
X75600000Y-69850000D01*
X75600000Y-71700000D02*
X75600000Y-71950000D01*
X78140000Y-69150000D02*
X78140000Y-69850000D01*
X78140000Y-71950000D02*
X78140000Y-71700000D01*
X79725000Y-71950000D02*
X79725000Y-79950000D01*
D11*
%TO.C,R5*%
X145910000Y-64950000D02*
X143950000Y-64950000D01*
X143950000Y-66670000D02*
X143950000Y-63230000D01*
X143950000Y-63230000D02*
X134710000Y-63230000D01*
X134710000Y-66670000D02*
X143950000Y-66670000D01*
X134710000Y-63230000D02*
X134710000Y-66670000D01*
X132750000Y-64950000D02*
X134710000Y-64950000D01*
%TO.C,R1*%
X65910000Y-64950000D02*
X63950000Y-64950000D01*
X63950000Y-66670000D02*
X63950000Y-63230000D01*
X63950000Y-63230000D02*
X54710000Y-63230000D01*
X54710000Y-66670000D02*
X63950000Y-66670000D01*
X54710000Y-63230000D02*
X54710000Y-66670000D01*
X52750000Y-64950000D02*
X54710000Y-64950000D01*
D10*
%TO.C,Switch3*%
X91325000Y-71950000D02*
X91325000Y-79950000D01*
X91325000Y-71950000D02*
X99575000Y-71950000D01*
X91325000Y-79955000D02*
X99575000Y-79955000D01*
X92910000Y-69150000D02*
X92910000Y-69850000D01*
X92910000Y-71700000D02*
X92910000Y-71950000D01*
X95450000Y-69150000D02*
X95450000Y-69850000D01*
X95450000Y-71700000D02*
X95450000Y-71950000D01*
X97990000Y-69150000D02*
X97990000Y-69850000D01*
X97990000Y-71950000D02*
X97990000Y-71700000D01*
X99575000Y-71950000D02*
X99575000Y-79950000D01*
D11*
%TO.C,D5*%
X145740000Y-71186000D02*
X145740000Y-71030000D01*
X145740000Y-68870000D02*
X145740000Y-68714000D01*
X142507666Y-71028608D02*
G75*
G03*
X145739999Y-71185515I1672334J1078608D01*
G01*
X143138871Y-71029836D02*
G75*
G03*
X145220960Y-71029999I1041129J1079836D01*
G01*
X145220960Y-68870001D02*
G75*
G03*
X143138871Y-68870164I-1040960J-1079999D01*
G01*
X145739999Y-68714485D02*
G75*
G03*
X142507666Y-68871392I-1559999J-1235515D01*
G01*
%TD*%
M02*
