%TF.GenerationSoftware,KiCad,Pcbnew,7.0.8*%
%TF.CreationDate,2024-02-11T23:31:07+01:00*%
%TF.ProjectId,BlankingRelay_Top2,426c616e-6b69-46e6-9752-656c61795f54,rev?*%
%TF.SameCoordinates,Original*%
%TF.FileFunction,Soldermask,Bot*%
%TF.FilePolarity,Negative*%
%FSLAX46Y46*%
G04 Gerber Fmt 4.6, Leading zero omitted, Abs format (unit mm)*
G04 Created by KiCad (PCBNEW 7.0.8) date 2024-02-11 23:31:07*
%MOMM*%
%LPD*%
G01*
G04 APERTURE LIST*
G04 Aperture macros list*
%AMRoundRect*
0 Rectangle with rounded corners*
0 $1 Rounding radius*
0 $2 $3 $4 $5 $6 $7 $8 $9 X,Y pos of 4 corners*
0 Add a 4 corners polygon primitive as box body*
4,1,4,$2,$3,$4,$5,$6,$7,$8,$9,$2,$3,0*
0 Add four circle primitives for the rounded corners*
1,1,$1+$1,$2,$3*
1,1,$1+$1,$4,$5*
1,1,$1+$1,$6,$7*
1,1,$1+$1,$8,$9*
0 Add four rect primitives between the rounded corners*
20,1,$1+$1,$2,$3,$4,$5,0*
20,1,$1+$1,$4,$5,$6,$7,0*
20,1,$1+$1,$6,$7,$8,$9,0*
20,1,$1+$1,$8,$9,$2,$3,0*%
G04 Aperture macros list end*
%ADD10RoundRect,0.250000X-0.600000X-0.725000X0.600000X-0.725000X0.600000X0.725000X-0.600000X0.725000X0*%
%ADD11O,1.700000X1.950000*%
%ADD12C,1.850000*%
%ADD13R,0.750000X1.750000*%
%ADD14O,1.600000X1.600000*%
%ADD15C,1.600000*%
%ADD16R,1.800000X1.800000*%
%ADD17C,1.800000*%
%ADD18C,3.200000*%
G04 APERTURE END LIST*
D10*
%TO.C,J2*%
X66400000Y-54500000D03*
D11*
X68900000Y-54500000D03*
X71400000Y-54500000D03*
%TD*%
D12*
%TO.C,Switch6*%
X158150000Y-75850000D03*
X152750000Y-75850000D03*
D13*
X157990000Y-70770000D03*
X155450000Y-70770000D03*
X152910000Y-70770000D03*
X157990000Y-68230000D03*
X155450000Y-68230000D03*
X152910000Y-68230000D03*
%TD*%
D12*
%TO.C,Switch5*%
X138150000Y-75850000D03*
X132750000Y-75850000D03*
D13*
X137990000Y-70770000D03*
X135450000Y-70770000D03*
X132910000Y-70770000D03*
X137990000Y-68230000D03*
X135450000Y-68230000D03*
X132910000Y-68230000D03*
%TD*%
D12*
%TO.C,Switch4*%
X118150000Y-75850000D03*
X112750000Y-75850000D03*
D13*
X117990000Y-70770000D03*
X115450000Y-70770000D03*
X112910000Y-70770000D03*
X117990000Y-68230000D03*
X115450000Y-68230000D03*
X112910000Y-68230000D03*
%TD*%
%TO.C,Switch3*%
X92910000Y-68230000D03*
X95450000Y-68230000D03*
X97990000Y-68230000D03*
X92910000Y-70770000D03*
X95450000Y-70770000D03*
X97990000Y-70770000D03*
D12*
X92750000Y-75850000D03*
X98150000Y-75850000D03*
%TD*%
%TO.C,Switch2*%
X78300000Y-75850000D03*
X72900000Y-75850000D03*
D13*
X78140000Y-70770000D03*
X75600000Y-70770000D03*
X73060000Y-70770000D03*
X78140000Y-68230000D03*
X75600000Y-68230000D03*
X73060000Y-68230000D03*
%TD*%
%TO.C,Switch1*%
X53260000Y-68230000D03*
X55800000Y-68230000D03*
X58340000Y-68230000D03*
X53260000Y-70770000D03*
X55800000Y-70770000D03*
X58340000Y-70770000D03*
D12*
X53100000Y-75850000D03*
X58500000Y-75850000D03*
%TD*%
D14*
%TO.C,R6*%
X151710000Y-64950000D03*
D15*
X166950000Y-64950000D03*
%TD*%
%TO.C,R5*%
X146950000Y-64950000D03*
D14*
X131710000Y-64950000D03*
%TD*%
D15*
%TO.C,R4*%
X126950000Y-64950000D03*
D14*
X111710000Y-64950000D03*
%TD*%
D15*
%TO.C,R3*%
X106950000Y-64950000D03*
D14*
X91710000Y-64950000D03*
%TD*%
D15*
%TO.C,R2*%
X86950000Y-64950000D03*
D14*
X71710000Y-64950000D03*
%TD*%
D15*
%TO.C,R1*%
X66950000Y-64950000D03*
D14*
X51710000Y-64950000D03*
%TD*%
D16*
%TO.C,D5*%
X145450000Y-69950000D03*
D17*
X142910000Y-69950000D03*
%TD*%
D16*
%TO.C,D3*%
X105450000Y-69950000D03*
D17*
X102910000Y-69950000D03*
%TD*%
%TO.C,D2*%
X82910000Y-69950000D03*
D16*
X85450000Y-69950000D03*
%TD*%
%TO.C,D6*%
X165450000Y-69950000D03*
D17*
X162910000Y-69950000D03*
%TD*%
%TO.C,D4*%
X122960000Y-69950000D03*
D16*
X125500000Y-69950000D03*
%TD*%
%TO.C,D1*%
X65450000Y-69950000D03*
D17*
X62910000Y-69950000D03*
%TD*%
D18*
%TO.C,REF\u002A\u002A*%
X60000000Y-60000000D03*
%TD*%
%TO.C,REF\u002A\u002A*%
X160000000Y-60000000D03*
%TD*%
D10*
%TO.C,J10*%
X135500000Y-54500000D03*
D11*
X138000000Y-54500000D03*
X140500000Y-54500000D03*
X143000000Y-54500000D03*
X145500000Y-54500000D03*
X148000000Y-54500000D03*
X150500000Y-54500000D03*
%TD*%
D10*
%TO.C,J9*%
X112500000Y-54500000D03*
D11*
X115000000Y-54500000D03*
X117500000Y-54500000D03*
X120000000Y-54500000D03*
X122500000Y-54500000D03*
X125000000Y-54500000D03*
X127500000Y-54500000D03*
%TD*%
D10*
%TO.C,J8*%
X90000000Y-54500000D03*
D11*
X92500000Y-54500000D03*
X95000000Y-54500000D03*
X97500000Y-54500000D03*
X100000000Y-54500000D03*
X102500000Y-54500000D03*
X105000000Y-54500000D03*
%TD*%
M02*
