M48
; DRILL file {KiCad 7.0.8} date Sun Feb 11 23:31:05 2024
; FORMAT={-:-/ absolute / inch / decimal}
; #@! TF.CreationDate,2024-02-11T23:31:05+01:00
; #@! TF.GenerationSoftware,Kicad,Pcbnew,7.0.8
; #@! TF.FileFunction,Plated,1,2,PTH
FMAT,2
INCH
; #@! TA.AperFunction,Plated,PTH,ComponentDrill
T1C0.0217
; #@! TA.AperFunction,Plated,PTH,ComponentDrill
T2C0.0315
; #@! TA.AperFunction,Plated,PTH,ComponentDrill
T3C0.0354
; #@! TA.AperFunction,Plated,PTH,ComponentDrill
T4C0.0374
; #@! TA.AperFunction,Plated,PTH,ComponentDrill
T5C0.0728
%
G90
G05
T2
X2.0358Y-2.5571
X2.6358Y-2.5571
X2.8232Y-2.5571
X3.4232Y-2.5571
X3.6106Y-2.5571
X4.2106Y-2.5571
X4.398Y-2.5571
X4.998Y-2.5571
X5.1854Y-2.5571
X5.7854Y-2.5571
X5.9728Y-2.5571
X6.5728Y-2.5571
T3
X2.4768Y-2.7539
X2.5768Y-2.7539
X3.2642Y-2.7539
X3.3642Y-2.7539
X4.0516Y-2.7539
X4.1516Y-2.7539
X4.8409Y-2.7539
X4.9409Y-2.7539
X5.6264Y-2.7539
X5.7264Y-2.7539
X6.4138Y-2.7539
X6.5138Y-2.7539
T4
X2.6142Y-2.1457
X2.7126Y-2.1457
X2.811Y-2.1457
X3.5433Y-2.1457
X3.6417Y-2.1457
X3.7402Y-2.1457
X3.8386Y-2.1457
X3.937Y-2.1457
X4.0354Y-2.1457
X4.1339Y-2.1457
X4.4291Y-2.1457
X4.5276Y-2.1457
X4.626Y-2.1457
X4.7244Y-2.1457
X4.8228Y-2.1457
X4.9213Y-2.1457
X5.0197Y-2.1457
X5.3346Y-2.1457
X5.4331Y-2.1457
X5.5315Y-2.1457
X5.6299Y-2.1457
X5.7283Y-2.1457
X5.8268Y-2.1457
X5.9252Y-2.1457
T5
X2.0906Y-2.9862
X2.3031Y-2.9862
X2.8701Y-2.9862
X3.0827Y-2.9862
X3.6516Y-2.9862
X3.8642Y-2.9862
X4.439Y-2.9862
X4.6516Y-2.9862
X5.2264Y-2.9862
X5.439Y-2.9862
X6.0138Y-2.9862
X6.2264Y-2.9862
T1
G00X2.0969Y-2.6665
M15
G01X2.0969Y-2.7059
M16
G05
G00X2.0969Y-2.7665
M15
G01X2.0969Y-2.8059
M16
G05
G00X2.1969Y-2.6665
M15
G01X2.1969Y-2.7059
M16
G05
G00X2.1969Y-2.7665
M15
G01X2.1969Y-2.8059
M16
G05
G00X2.2969Y-2.6665
M15
G01X2.2969Y-2.7059
M16
G05
G00X2.2969Y-2.7665
M15
G01X2.2969Y-2.8059
M16
G05
G00X2.8764Y-2.6665
M15
G01X2.8764Y-2.7059
M16
G05
G00X2.8764Y-2.7665
M15
G01X2.8764Y-2.8059
M16
G05
G00X2.9764Y-2.6665
M15
G01X2.9764Y-2.7059
M16
G05
G00X2.9764Y-2.7665
M15
G01X2.9764Y-2.8059
M16
G05
G00X3.0764Y-2.6665
M15
G01X3.0764Y-2.7059
M16
G05
G00X3.0764Y-2.7665
M15
G01X3.0764Y-2.8059
M16
G05
G00X3.6579Y-2.6665
M15
G01X3.6579Y-2.7059
M16
G05
G00X3.6579Y-2.7665
M15
G01X3.6579Y-2.8059
M16
G05
G00X3.7579Y-2.6665
M15
G01X3.7579Y-2.7059
M16
G05
G00X3.7579Y-2.7665
M15
G01X3.7579Y-2.8059
M16
G05
G00X3.8579Y-2.6665
M15
G01X3.8579Y-2.7059
M16
G05
G00X3.8579Y-2.7665
M15
G01X3.8579Y-2.8059
M16
G05
G00X4.4453Y-2.6665
M15
G01X4.4453Y-2.7059
M16
G05
G00X4.4453Y-2.7665
M15
G01X4.4453Y-2.8059
M16
G05
G00X4.5453Y-2.6665
M15
G01X4.5453Y-2.7059
M16
G05
G00X4.5453Y-2.7665
M15
G01X4.5453Y-2.8059
M16
G05
G00X4.6453Y-2.6665
M15
G01X4.6453Y-2.7059
M16
G05
G00X4.6453Y-2.7665
M15
G01X4.6453Y-2.8059
M16
G05
G00X5.2327Y-2.6665
M15
G01X5.2327Y-2.7059
M16
G05
G00X5.2327Y-2.7665
M15
G01X5.2327Y-2.8059
M16
G05
G00X5.3327Y-2.6665
M15
G01X5.3327Y-2.7059
M16
G05
G00X5.3327Y-2.7665
M15
G01X5.3327Y-2.8059
M16
G05
G00X5.4327Y-2.6665
M15
G01X5.4327Y-2.7059
M16
G05
G00X5.4327Y-2.7665
M15
G01X5.4327Y-2.8059
M16
G05
G00X6.0201Y-2.6665
M15
G01X6.0201Y-2.7059
M16
G05
G00X6.0201Y-2.7665
M15
G01X6.0201Y-2.8059
M16
G05
G00X6.1201Y-2.6665
M15
G01X6.1201Y-2.7059
M16
G05
G00X6.1201Y-2.7665
M15
G01X6.1201Y-2.8059
M16
G05
G00X6.2201Y-2.6665
M15
G01X6.2201Y-2.7059
M16
G05
G00X6.2201Y-2.7665
M15
G01X6.2201Y-2.8059
M16
G05
T0
M30
