%TF.GenerationSoftware,KiCad,Pcbnew,7.0.8*%
%TF.CreationDate,2024-02-11T23:31:07+01:00*%
%TF.ProjectId,BlankingRelay_Top2,426c616e-6b69-46e6-9752-656c61795f54,rev?*%
%TF.SameCoordinates,Original*%
%TF.FileFunction,Legend,Top*%
%TF.FilePolarity,Positive*%
%FSLAX46Y46*%
G04 Gerber Fmt 4.6, Leading zero omitted, Abs format (unit mm)*
G04 Created by KiCad (PCBNEW 7.0.8) date 2024-02-11 23:31:07*
%MOMM*%
%LPD*%
G01*
G04 APERTURE LIST*
%ADD10C,0.150000*%
%ADD11C,0.120000*%
G04 APERTURE END LIST*
D10*
X74802438Y-56742857D02*
X74754819Y-56838095D01*
X74754819Y-56838095D02*
X74754819Y-56980952D01*
X74754819Y-56980952D02*
X74802438Y-57123809D01*
X74802438Y-57123809D02*
X74897676Y-57219047D01*
X74897676Y-57219047D02*
X74992914Y-57266666D01*
X74992914Y-57266666D02*
X75183390Y-57314285D01*
X75183390Y-57314285D02*
X75326247Y-57314285D01*
X75326247Y-57314285D02*
X75516723Y-57266666D01*
X75516723Y-57266666D02*
X75611961Y-57219047D01*
X75611961Y-57219047D02*
X75707200Y-57123809D01*
X75707200Y-57123809D02*
X75754819Y-56980952D01*
X75754819Y-56980952D02*
X75754819Y-56885714D01*
X75754819Y-56885714D02*
X75707200Y-56742857D01*
X75707200Y-56742857D02*
X75659580Y-56695238D01*
X75659580Y-56695238D02*
X75326247Y-56695238D01*
X75326247Y-56695238D02*
X75326247Y-56885714D01*
X75754819Y-56266666D02*
X74754819Y-56266666D01*
X74754819Y-56266666D02*
X75754819Y-55695238D01*
X75754819Y-55695238D02*
X74754819Y-55695238D01*
X75754819Y-55219047D02*
X74754819Y-55219047D01*
X74754819Y-55219047D02*
X74754819Y-54980952D01*
X74754819Y-54980952D02*
X74802438Y-54838095D01*
X74802438Y-54838095D02*
X74897676Y-54742857D01*
X74897676Y-54742857D02*
X74992914Y-54695238D01*
X74992914Y-54695238D02*
X75183390Y-54647619D01*
X75183390Y-54647619D02*
X75326247Y-54647619D01*
X75326247Y-54647619D02*
X75516723Y-54695238D01*
X75516723Y-54695238D02*
X75611961Y-54742857D01*
X75611961Y-54742857D02*
X75707200Y-54838095D01*
X75707200Y-54838095D02*
X75754819Y-54980952D01*
X75754819Y-54980952D02*
X75754819Y-55219047D01*
X75754819Y-53647619D02*
X75278628Y-53980952D01*
X75754819Y-54219047D02*
X74754819Y-54219047D01*
X74754819Y-54219047D02*
X74754819Y-53838095D01*
X74754819Y-53838095D02*
X74802438Y-53742857D01*
X74802438Y-53742857D02*
X74850057Y-53695238D01*
X74850057Y-53695238D02*
X74945295Y-53647619D01*
X74945295Y-53647619D02*
X75088152Y-53647619D01*
X75088152Y-53647619D02*
X75183390Y-53695238D01*
X75183390Y-53695238D02*
X75231009Y-53742857D01*
X75231009Y-53742857D02*
X75278628Y-53838095D01*
X75278628Y-53838095D02*
X75278628Y-54219047D01*
X75231009Y-53219047D02*
X75231009Y-52885714D01*
X75754819Y-52742857D02*
X75754819Y-53219047D01*
X75754819Y-53219047D02*
X74754819Y-53219047D01*
X74754819Y-53219047D02*
X74754819Y-52742857D01*
X75231009Y-51980952D02*
X75231009Y-52314285D01*
X75754819Y-52314285D02*
X74754819Y-52314285D01*
X74754819Y-52314285D02*
X74754819Y-51838095D01*
X161007200Y-79699999D02*
X161054819Y-79557142D01*
X161054819Y-79557142D02*
X161054819Y-79319047D01*
X161054819Y-79319047D02*
X161007200Y-79223809D01*
X161007200Y-79223809D02*
X160959580Y-79176190D01*
X160959580Y-79176190D02*
X160864342Y-79128571D01*
X160864342Y-79128571D02*
X160769104Y-79128571D01*
X160769104Y-79128571D02*
X160673866Y-79176190D01*
X160673866Y-79176190D02*
X160626247Y-79223809D01*
X160626247Y-79223809D02*
X160578628Y-79319047D01*
X160578628Y-79319047D02*
X160531009Y-79509523D01*
X160531009Y-79509523D02*
X160483390Y-79604761D01*
X160483390Y-79604761D02*
X160435771Y-79652380D01*
X160435771Y-79652380D02*
X160340533Y-79699999D01*
X160340533Y-79699999D02*
X160245295Y-79699999D01*
X160245295Y-79699999D02*
X160150057Y-79652380D01*
X160150057Y-79652380D02*
X160102438Y-79604761D01*
X160102438Y-79604761D02*
X160054819Y-79509523D01*
X160054819Y-79509523D02*
X160054819Y-79271428D01*
X160054819Y-79271428D02*
X160102438Y-79128571D01*
X160388152Y-78795237D02*
X161054819Y-78604761D01*
X161054819Y-78604761D02*
X160578628Y-78414285D01*
X160578628Y-78414285D02*
X161054819Y-78223809D01*
X161054819Y-78223809D02*
X160388152Y-78033333D01*
X161054819Y-77652380D02*
X160388152Y-77652380D01*
X160054819Y-77652380D02*
X160102438Y-77699999D01*
X160102438Y-77699999D02*
X160150057Y-77652380D01*
X160150057Y-77652380D02*
X160102438Y-77604761D01*
X160102438Y-77604761D02*
X160054819Y-77652380D01*
X160054819Y-77652380D02*
X160150057Y-77652380D01*
X160388152Y-77319047D02*
X160388152Y-76938095D01*
X160054819Y-77176190D02*
X160911961Y-77176190D01*
X160911961Y-77176190D02*
X161007200Y-77128571D01*
X161007200Y-77128571D02*
X161054819Y-77033333D01*
X161054819Y-77033333D02*
X161054819Y-76938095D01*
X161007200Y-76176190D02*
X161054819Y-76271428D01*
X161054819Y-76271428D02*
X161054819Y-76461904D01*
X161054819Y-76461904D02*
X161007200Y-76557142D01*
X161007200Y-76557142D02*
X160959580Y-76604761D01*
X160959580Y-76604761D02*
X160864342Y-76652380D01*
X160864342Y-76652380D02*
X160578628Y-76652380D01*
X160578628Y-76652380D02*
X160483390Y-76604761D01*
X160483390Y-76604761D02*
X160435771Y-76557142D01*
X160435771Y-76557142D02*
X160388152Y-76461904D01*
X160388152Y-76461904D02*
X160388152Y-76271428D01*
X160388152Y-76271428D02*
X160435771Y-76176190D01*
X161054819Y-75747618D02*
X160054819Y-75747618D01*
X161054819Y-75319047D02*
X160531009Y-75319047D01*
X160531009Y-75319047D02*
X160435771Y-75366666D01*
X160435771Y-75366666D02*
X160388152Y-75461904D01*
X160388152Y-75461904D02*
X160388152Y-75604761D01*
X160388152Y-75604761D02*
X160435771Y-75699999D01*
X160435771Y-75699999D02*
X160483390Y-75747618D01*
X161054819Y-73557142D02*
X161054819Y-74128570D01*
X161054819Y-73842856D02*
X160054819Y-73842856D01*
X160054819Y-73842856D02*
X160197676Y-73938094D01*
X160197676Y-73938094D02*
X160292914Y-74033332D01*
X160292914Y-74033332D02*
X160340533Y-74128570D01*
X160150057Y-73176189D02*
X160102438Y-73128570D01*
X160102438Y-73128570D02*
X160054819Y-73033332D01*
X160054819Y-73033332D02*
X160054819Y-72795237D01*
X160054819Y-72795237D02*
X160102438Y-72699999D01*
X160102438Y-72699999D02*
X160150057Y-72652380D01*
X160150057Y-72652380D02*
X160245295Y-72604761D01*
X160245295Y-72604761D02*
X160340533Y-72604761D01*
X160340533Y-72604761D02*
X160483390Y-72652380D01*
X160483390Y-72652380D02*
X161054819Y-73223808D01*
X161054819Y-73223808D02*
X161054819Y-72604761D01*
X160007200Y-71461904D02*
X161292914Y-72319046D01*
X161054819Y-70604761D02*
X161054819Y-71176189D01*
X161054819Y-70890475D02*
X160054819Y-70890475D01*
X160054819Y-70890475D02*
X160197676Y-70985713D01*
X160197676Y-70985713D02*
X160292914Y-71080951D01*
X160292914Y-71080951D02*
X160340533Y-71176189D01*
X160483390Y-70033332D02*
X160435771Y-70128570D01*
X160435771Y-70128570D02*
X160388152Y-70176189D01*
X160388152Y-70176189D02*
X160292914Y-70223808D01*
X160292914Y-70223808D02*
X160245295Y-70223808D01*
X160245295Y-70223808D02*
X160150057Y-70176189D01*
X160150057Y-70176189D02*
X160102438Y-70128570D01*
X160102438Y-70128570D02*
X160054819Y-70033332D01*
X160054819Y-70033332D02*
X160054819Y-69842856D01*
X160054819Y-69842856D02*
X160102438Y-69747618D01*
X160102438Y-69747618D02*
X160150057Y-69699999D01*
X160150057Y-69699999D02*
X160245295Y-69652380D01*
X160245295Y-69652380D02*
X160292914Y-69652380D01*
X160292914Y-69652380D02*
X160388152Y-69699999D01*
X160388152Y-69699999D02*
X160435771Y-69747618D01*
X160435771Y-69747618D02*
X160483390Y-69842856D01*
X160483390Y-69842856D02*
X160483390Y-70033332D01*
X160483390Y-70033332D02*
X160531009Y-70128570D01*
X160531009Y-70128570D02*
X160578628Y-70176189D01*
X160578628Y-70176189D02*
X160673866Y-70223808D01*
X160673866Y-70223808D02*
X160864342Y-70223808D01*
X160864342Y-70223808D02*
X160959580Y-70176189D01*
X160959580Y-70176189D02*
X161007200Y-70128570D01*
X161007200Y-70128570D02*
X161054819Y-70033332D01*
X161054819Y-70033332D02*
X161054819Y-69842856D01*
X161054819Y-69842856D02*
X161007200Y-69747618D01*
X161007200Y-69747618D02*
X160959580Y-69699999D01*
X160959580Y-69699999D02*
X160864342Y-69652380D01*
X160864342Y-69652380D02*
X160673866Y-69652380D01*
X160673866Y-69652380D02*
X160578628Y-69699999D01*
X160578628Y-69699999D02*
X160531009Y-69747618D01*
X160531009Y-69747618D02*
X160483390Y-69842856D01*
X160007200Y-68509523D02*
X161292914Y-69366665D01*
X160150057Y-68223808D02*
X160102438Y-68176189D01*
X160102438Y-68176189D02*
X160054819Y-68080951D01*
X160054819Y-68080951D02*
X160054819Y-67842856D01*
X160054819Y-67842856D02*
X160102438Y-67747618D01*
X160102438Y-67747618D02*
X160150057Y-67699999D01*
X160150057Y-67699999D02*
X160245295Y-67652380D01*
X160245295Y-67652380D02*
X160340533Y-67652380D01*
X160340533Y-67652380D02*
X160483390Y-67699999D01*
X160483390Y-67699999D02*
X161054819Y-68271427D01*
X161054819Y-68271427D02*
X161054819Y-67652380D01*
X160388152Y-66795237D02*
X161054819Y-66795237D01*
X160007200Y-67033332D02*
X160721485Y-67271427D01*
X160721485Y-67271427D02*
X160721485Y-66652380D01*
X141007200Y-79699999D02*
X141054819Y-79557142D01*
X141054819Y-79557142D02*
X141054819Y-79319047D01*
X141054819Y-79319047D02*
X141007200Y-79223809D01*
X141007200Y-79223809D02*
X140959580Y-79176190D01*
X140959580Y-79176190D02*
X140864342Y-79128571D01*
X140864342Y-79128571D02*
X140769104Y-79128571D01*
X140769104Y-79128571D02*
X140673866Y-79176190D01*
X140673866Y-79176190D02*
X140626247Y-79223809D01*
X140626247Y-79223809D02*
X140578628Y-79319047D01*
X140578628Y-79319047D02*
X140531009Y-79509523D01*
X140531009Y-79509523D02*
X140483390Y-79604761D01*
X140483390Y-79604761D02*
X140435771Y-79652380D01*
X140435771Y-79652380D02*
X140340533Y-79699999D01*
X140340533Y-79699999D02*
X140245295Y-79699999D01*
X140245295Y-79699999D02*
X140150057Y-79652380D01*
X140150057Y-79652380D02*
X140102438Y-79604761D01*
X140102438Y-79604761D02*
X140054819Y-79509523D01*
X140054819Y-79509523D02*
X140054819Y-79271428D01*
X140054819Y-79271428D02*
X140102438Y-79128571D01*
X140388152Y-78795237D02*
X141054819Y-78604761D01*
X141054819Y-78604761D02*
X140578628Y-78414285D01*
X140578628Y-78414285D02*
X141054819Y-78223809D01*
X141054819Y-78223809D02*
X140388152Y-78033333D01*
X141054819Y-77652380D02*
X140388152Y-77652380D01*
X140054819Y-77652380D02*
X140102438Y-77699999D01*
X140102438Y-77699999D02*
X140150057Y-77652380D01*
X140150057Y-77652380D02*
X140102438Y-77604761D01*
X140102438Y-77604761D02*
X140054819Y-77652380D01*
X140054819Y-77652380D02*
X140150057Y-77652380D01*
X140388152Y-77319047D02*
X140388152Y-76938095D01*
X140054819Y-77176190D02*
X140911961Y-77176190D01*
X140911961Y-77176190D02*
X141007200Y-77128571D01*
X141007200Y-77128571D02*
X141054819Y-77033333D01*
X141054819Y-77033333D02*
X141054819Y-76938095D01*
X141007200Y-76176190D02*
X141054819Y-76271428D01*
X141054819Y-76271428D02*
X141054819Y-76461904D01*
X141054819Y-76461904D02*
X141007200Y-76557142D01*
X141007200Y-76557142D02*
X140959580Y-76604761D01*
X140959580Y-76604761D02*
X140864342Y-76652380D01*
X140864342Y-76652380D02*
X140578628Y-76652380D01*
X140578628Y-76652380D02*
X140483390Y-76604761D01*
X140483390Y-76604761D02*
X140435771Y-76557142D01*
X140435771Y-76557142D02*
X140388152Y-76461904D01*
X140388152Y-76461904D02*
X140388152Y-76271428D01*
X140388152Y-76271428D02*
X140435771Y-76176190D01*
X141054819Y-75747618D02*
X140054819Y-75747618D01*
X141054819Y-75319047D02*
X140531009Y-75319047D01*
X140531009Y-75319047D02*
X140435771Y-75366666D01*
X140435771Y-75366666D02*
X140388152Y-75461904D01*
X140388152Y-75461904D02*
X140388152Y-75604761D01*
X140388152Y-75604761D02*
X140435771Y-75699999D01*
X140435771Y-75699999D02*
X140483390Y-75747618D01*
X141054819Y-73557142D02*
X141054819Y-74128570D01*
X141054819Y-73842856D02*
X140054819Y-73842856D01*
X140054819Y-73842856D02*
X140197676Y-73938094D01*
X140197676Y-73938094D02*
X140292914Y-74033332D01*
X140292914Y-74033332D02*
X140340533Y-74128570D01*
X141054819Y-72604761D02*
X141054819Y-73176189D01*
X141054819Y-72890475D02*
X140054819Y-72890475D01*
X140054819Y-72890475D02*
X140197676Y-72985713D01*
X140197676Y-72985713D02*
X140292914Y-73080951D01*
X140292914Y-73080951D02*
X140340533Y-73176189D01*
X140007200Y-71461904D02*
X141292914Y-72319046D01*
X141054819Y-70604761D02*
X141054819Y-71176189D01*
X141054819Y-70890475D02*
X140054819Y-70890475D01*
X140054819Y-70890475D02*
X140197676Y-70985713D01*
X140197676Y-70985713D02*
X140292914Y-71080951D01*
X140292914Y-71080951D02*
X140340533Y-71176189D01*
X140054819Y-70271427D02*
X140054819Y-69604761D01*
X140054819Y-69604761D02*
X141054819Y-70033332D01*
X140007200Y-68509523D02*
X141292914Y-69366665D01*
X140150057Y-68223808D02*
X140102438Y-68176189D01*
X140102438Y-68176189D02*
X140054819Y-68080951D01*
X140054819Y-68080951D02*
X140054819Y-67842856D01*
X140054819Y-67842856D02*
X140102438Y-67747618D01*
X140102438Y-67747618D02*
X140150057Y-67699999D01*
X140150057Y-67699999D02*
X140245295Y-67652380D01*
X140245295Y-67652380D02*
X140340533Y-67652380D01*
X140340533Y-67652380D02*
X140483390Y-67699999D01*
X140483390Y-67699999D02*
X141054819Y-68271427D01*
X141054819Y-68271427D02*
X141054819Y-67652380D01*
X140054819Y-67319046D02*
X140054819Y-66699999D01*
X140054819Y-66699999D02*
X140435771Y-67033332D01*
X140435771Y-67033332D02*
X140435771Y-66890475D01*
X140435771Y-66890475D02*
X140483390Y-66795237D01*
X140483390Y-66795237D02*
X140531009Y-66747618D01*
X140531009Y-66747618D02*
X140626247Y-66699999D01*
X140626247Y-66699999D02*
X140864342Y-66699999D01*
X140864342Y-66699999D02*
X140959580Y-66747618D01*
X140959580Y-66747618D02*
X141007200Y-66795237D01*
X141007200Y-66795237D02*
X141054819Y-66890475D01*
X141054819Y-66890475D02*
X141054819Y-67176189D01*
X141054819Y-67176189D02*
X141007200Y-67271427D01*
X141007200Y-67271427D02*
X140959580Y-67319046D01*
X121007200Y-79599999D02*
X121054819Y-79457142D01*
X121054819Y-79457142D02*
X121054819Y-79219047D01*
X121054819Y-79219047D02*
X121007200Y-79123809D01*
X121007200Y-79123809D02*
X120959580Y-79076190D01*
X120959580Y-79076190D02*
X120864342Y-79028571D01*
X120864342Y-79028571D02*
X120769104Y-79028571D01*
X120769104Y-79028571D02*
X120673866Y-79076190D01*
X120673866Y-79076190D02*
X120626247Y-79123809D01*
X120626247Y-79123809D02*
X120578628Y-79219047D01*
X120578628Y-79219047D02*
X120531009Y-79409523D01*
X120531009Y-79409523D02*
X120483390Y-79504761D01*
X120483390Y-79504761D02*
X120435771Y-79552380D01*
X120435771Y-79552380D02*
X120340533Y-79599999D01*
X120340533Y-79599999D02*
X120245295Y-79599999D01*
X120245295Y-79599999D02*
X120150057Y-79552380D01*
X120150057Y-79552380D02*
X120102438Y-79504761D01*
X120102438Y-79504761D02*
X120054819Y-79409523D01*
X120054819Y-79409523D02*
X120054819Y-79171428D01*
X120054819Y-79171428D02*
X120102438Y-79028571D01*
X120388152Y-78695237D02*
X121054819Y-78504761D01*
X121054819Y-78504761D02*
X120578628Y-78314285D01*
X120578628Y-78314285D02*
X121054819Y-78123809D01*
X121054819Y-78123809D02*
X120388152Y-77933333D01*
X121054819Y-77552380D02*
X120388152Y-77552380D01*
X120054819Y-77552380D02*
X120102438Y-77599999D01*
X120102438Y-77599999D02*
X120150057Y-77552380D01*
X120150057Y-77552380D02*
X120102438Y-77504761D01*
X120102438Y-77504761D02*
X120054819Y-77552380D01*
X120054819Y-77552380D02*
X120150057Y-77552380D01*
X120388152Y-77219047D02*
X120388152Y-76838095D01*
X120054819Y-77076190D02*
X120911961Y-77076190D01*
X120911961Y-77076190D02*
X121007200Y-77028571D01*
X121007200Y-77028571D02*
X121054819Y-76933333D01*
X121054819Y-76933333D02*
X121054819Y-76838095D01*
X121007200Y-76076190D02*
X121054819Y-76171428D01*
X121054819Y-76171428D02*
X121054819Y-76361904D01*
X121054819Y-76361904D02*
X121007200Y-76457142D01*
X121007200Y-76457142D02*
X120959580Y-76504761D01*
X120959580Y-76504761D02*
X120864342Y-76552380D01*
X120864342Y-76552380D02*
X120578628Y-76552380D01*
X120578628Y-76552380D02*
X120483390Y-76504761D01*
X120483390Y-76504761D02*
X120435771Y-76457142D01*
X120435771Y-76457142D02*
X120388152Y-76361904D01*
X120388152Y-76361904D02*
X120388152Y-76171428D01*
X120388152Y-76171428D02*
X120435771Y-76076190D01*
X121054819Y-75647618D02*
X120054819Y-75647618D01*
X121054819Y-75219047D02*
X120531009Y-75219047D01*
X120531009Y-75219047D02*
X120435771Y-75266666D01*
X120435771Y-75266666D02*
X120388152Y-75361904D01*
X120388152Y-75361904D02*
X120388152Y-75504761D01*
X120388152Y-75504761D02*
X120435771Y-75599999D01*
X120435771Y-75599999D02*
X120483390Y-75647618D01*
X121054819Y-73457142D02*
X121054819Y-74028570D01*
X121054819Y-73742856D02*
X120054819Y-73742856D01*
X120054819Y-73742856D02*
X120197676Y-73838094D01*
X120197676Y-73838094D02*
X120292914Y-73933332D01*
X120292914Y-73933332D02*
X120340533Y-74028570D01*
X120054819Y-72838094D02*
X120054819Y-72742856D01*
X120054819Y-72742856D02*
X120102438Y-72647618D01*
X120102438Y-72647618D02*
X120150057Y-72599999D01*
X120150057Y-72599999D02*
X120245295Y-72552380D01*
X120245295Y-72552380D02*
X120435771Y-72504761D01*
X120435771Y-72504761D02*
X120673866Y-72504761D01*
X120673866Y-72504761D02*
X120864342Y-72552380D01*
X120864342Y-72552380D02*
X120959580Y-72599999D01*
X120959580Y-72599999D02*
X121007200Y-72647618D01*
X121007200Y-72647618D02*
X121054819Y-72742856D01*
X121054819Y-72742856D02*
X121054819Y-72838094D01*
X121054819Y-72838094D02*
X121007200Y-72933332D01*
X121007200Y-72933332D02*
X120959580Y-72980951D01*
X120959580Y-72980951D02*
X120864342Y-73028570D01*
X120864342Y-73028570D02*
X120673866Y-73076189D01*
X120673866Y-73076189D02*
X120435771Y-73076189D01*
X120435771Y-73076189D02*
X120245295Y-73028570D01*
X120245295Y-73028570D02*
X120150057Y-72980951D01*
X120150057Y-72980951D02*
X120102438Y-72933332D01*
X120102438Y-72933332D02*
X120054819Y-72838094D01*
X120007200Y-71361904D02*
X121292914Y-72219046D01*
X121054819Y-70504761D02*
X121054819Y-71076189D01*
X121054819Y-70790475D02*
X120054819Y-70790475D01*
X120054819Y-70790475D02*
X120197676Y-70885713D01*
X120197676Y-70885713D02*
X120292914Y-70980951D01*
X120292914Y-70980951D02*
X120340533Y-71076189D01*
X120054819Y-69647618D02*
X120054819Y-69838094D01*
X120054819Y-69838094D02*
X120102438Y-69933332D01*
X120102438Y-69933332D02*
X120150057Y-69980951D01*
X120150057Y-69980951D02*
X120292914Y-70076189D01*
X120292914Y-70076189D02*
X120483390Y-70123808D01*
X120483390Y-70123808D02*
X120864342Y-70123808D01*
X120864342Y-70123808D02*
X120959580Y-70076189D01*
X120959580Y-70076189D02*
X121007200Y-70028570D01*
X121007200Y-70028570D02*
X121054819Y-69933332D01*
X121054819Y-69933332D02*
X121054819Y-69742856D01*
X121054819Y-69742856D02*
X121007200Y-69647618D01*
X121007200Y-69647618D02*
X120959580Y-69599999D01*
X120959580Y-69599999D02*
X120864342Y-69552380D01*
X120864342Y-69552380D02*
X120626247Y-69552380D01*
X120626247Y-69552380D02*
X120531009Y-69599999D01*
X120531009Y-69599999D02*
X120483390Y-69647618D01*
X120483390Y-69647618D02*
X120435771Y-69742856D01*
X120435771Y-69742856D02*
X120435771Y-69933332D01*
X120435771Y-69933332D02*
X120483390Y-70028570D01*
X120483390Y-70028570D02*
X120531009Y-70076189D01*
X120531009Y-70076189D02*
X120626247Y-70123808D01*
X120007200Y-68409523D02*
X121292914Y-69266665D01*
X120150057Y-68123808D02*
X120102438Y-68076189D01*
X120102438Y-68076189D02*
X120054819Y-67980951D01*
X120054819Y-67980951D02*
X120054819Y-67742856D01*
X120054819Y-67742856D02*
X120102438Y-67647618D01*
X120102438Y-67647618D02*
X120150057Y-67599999D01*
X120150057Y-67599999D02*
X120245295Y-67552380D01*
X120245295Y-67552380D02*
X120340533Y-67552380D01*
X120340533Y-67552380D02*
X120483390Y-67599999D01*
X120483390Y-67599999D02*
X121054819Y-68171427D01*
X121054819Y-68171427D02*
X121054819Y-67552380D01*
X120150057Y-67171427D02*
X120102438Y-67123808D01*
X120102438Y-67123808D02*
X120054819Y-67028570D01*
X120054819Y-67028570D02*
X120054819Y-66790475D01*
X120054819Y-66790475D02*
X120102438Y-66695237D01*
X120102438Y-66695237D02*
X120150057Y-66647618D01*
X120150057Y-66647618D02*
X120245295Y-66599999D01*
X120245295Y-66599999D02*
X120340533Y-66599999D01*
X120340533Y-66599999D02*
X120483390Y-66647618D01*
X120483390Y-66647618D02*
X121054819Y-67219046D01*
X121054819Y-67219046D02*
X121054819Y-66599999D01*
X100907200Y-79623809D02*
X100954819Y-79480952D01*
X100954819Y-79480952D02*
X100954819Y-79242857D01*
X100954819Y-79242857D02*
X100907200Y-79147619D01*
X100907200Y-79147619D02*
X100859580Y-79100000D01*
X100859580Y-79100000D02*
X100764342Y-79052381D01*
X100764342Y-79052381D02*
X100669104Y-79052381D01*
X100669104Y-79052381D02*
X100573866Y-79100000D01*
X100573866Y-79100000D02*
X100526247Y-79147619D01*
X100526247Y-79147619D02*
X100478628Y-79242857D01*
X100478628Y-79242857D02*
X100431009Y-79433333D01*
X100431009Y-79433333D02*
X100383390Y-79528571D01*
X100383390Y-79528571D02*
X100335771Y-79576190D01*
X100335771Y-79576190D02*
X100240533Y-79623809D01*
X100240533Y-79623809D02*
X100145295Y-79623809D01*
X100145295Y-79623809D02*
X100050057Y-79576190D01*
X100050057Y-79576190D02*
X100002438Y-79528571D01*
X100002438Y-79528571D02*
X99954819Y-79433333D01*
X99954819Y-79433333D02*
X99954819Y-79195238D01*
X99954819Y-79195238D02*
X100002438Y-79052381D01*
X100288152Y-78719047D02*
X100954819Y-78528571D01*
X100954819Y-78528571D02*
X100478628Y-78338095D01*
X100478628Y-78338095D02*
X100954819Y-78147619D01*
X100954819Y-78147619D02*
X100288152Y-77957143D01*
X100954819Y-77576190D02*
X100288152Y-77576190D01*
X99954819Y-77576190D02*
X100002438Y-77623809D01*
X100002438Y-77623809D02*
X100050057Y-77576190D01*
X100050057Y-77576190D02*
X100002438Y-77528571D01*
X100002438Y-77528571D02*
X99954819Y-77576190D01*
X99954819Y-77576190D02*
X100050057Y-77576190D01*
X100288152Y-77242857D02*
X100288152Y-76861905D01*
X99954819Y-77100000D02*
X100811961Y-77100000D01*
X100811961Y-77100000D02*
X100907200Y-77052381D01*
X100907200Y-77052381D02*
X100954819Y-76957143D01*
X100954819Y-76957143D02*
X100954819Y-76861905D01*
X100907200Y-76100000D02*
X100954819Y-76195238D01*
X100954819Y-76195238D02*
X100954819Y-76385714D01*
X100954819Y-76385714D02*
X100907200Y-76480952D01*
X100907200Y-76480952D02*
X100859580Y-76528571D01*
X100859580Y-76528571D02*
X100764342Y-76576190D01*
X100764342Y-76576190D02*
X100478628Y-76576190D01*
X100478628Y-76576190D02*
X100383390Y-76528571D01*
X100383390Y-76528571D02*
X100335771Y-76480952D01*
X100335771Y-76480952D02*
X100288152Y-76385714D01*
X100288152Y-76385714D02*
X100288152Y-76195238D01*
X100288152Y-76195238D02*
X100335771Y-76100000D01*
X100954819Y-75671428D02*
X99954819Y-75671428D01*
X100954819Y-75242857D02*
X100431009Y-75242857D01*
X100431009Y-75242857D02*
X100335771Y-75290476D01*
X100335771Y-75290476D02*
X100288152Y-75385714D01*
X100288152Y-75385714D02*
X100288152Y-75528571D01*
X100288152Y-75528571D02*
X100335771Y-75623809D01*
X100335771Y-75623809D02*
X100383390Y-75671428D01*
X100954819Y-73957142D02*
X100954819Y-73766666D01*
X100954819Y-73766666D02*
X100907200Y-73671428D01*
X100907200Y-73671428D02*
X100859580Y-73623809D01*
X100859580Y-73623809D02*
X100716723Y-73528571D01*
X100716723Y-73528571D02*
X100526247Y-73480952D01*
X100526247Y-73480952D02*
X100145295Y-73480952D01*
X100145295Y-73480952D02*
X100050057Y-73528571D01*
X100050057Y-73528571D02*
X100002438Y-73576190D01*
X100002438Y-73576190D02*
X99954819Y-73671428D01*
X99954819Y-73671428D02*
X99954819Y-73861904D01*
X99954819Y-73861904D02*
X100002438Y-73957142D01*
X100002438Y-73957142D02*
X100050057Y-74004761D01*
X100050057Y-74004761D02*
X100145295Y-74052380D01*
X100145295Y-74052380D02*
X100383390Y-74052380D01*
X100383390Y-74052380D02*
X100478628Y-74004761D01*
X100478628Y-74004761D02*
X100526247Y-73957142D01*
X100526247Y-73957142D02*
X100573866Y-73861904D01*
X100573866Y-73861904D02*
X100573866Y-73671428D01*
X100573866Y-73671428D02*
X100526247Y-73576190D01*
X100526247Y-73576190D02*
X100478628Y-73528571D01*
X100478628Y-73528571D02*
X100383390Y-73480952D01*
X99907200Y-72338095D02*
X101192914Y-73195237D01*
X100954819Y-71480952D02*
X100954819Y-72052380D01*
X100954819Y-71766666D02*
X99954819Y-71766666D01*
X99954819Y-71766666D02*
X100097676Y-71861904D01*
X100097676Y-71861904D02*
X100192914Y-71957142D01*
X100192914Y-71957142D02*
X100240533Y-72052380D01*
X99954819Y-70576190D02*
X99954819Y-71052380D01*
X99954819Y-71052380D02*
X100431009Y-71099999D01*
X100431009Y-71099999D02*
X100383390Y-71052380D01*
X100383390Y-71052380D02*
X100335771Y-70957142D01*
X100335771Y-70957142D02*
X100335771Y-70719047D01*
X100335771Y-70719047D02*
X100383390Y-70623809D01*
X100383390Y-70623809D02*
X100431009Y-70576190D01*
X100431009Y-70576190D02*
X100526247Y-70528571D01*
X100526247Y-70528571D02*
X100764342Y-70528571D01*
X100764342Y-70528571D02*
X100859580Y-70576190D01*
X100859580Y-70576190D02*
X100907200Y-70623809D01*
X100907200Y-70623809D02*
X100954819Y-70719047D01*
X100954819Y-70719047D02*
X100954819Y-70957142D01*
X100954819Y-70957142D02*
X100907200Y-71052380D01*
X100907200Y-71052380D02*
X100859580Y-71099999D01*
X99907200Y-69385714D02*
X101192914Y-70242856D01*
X100050057Y-69099999D02*
X100002438Y-69052380D01*
X100002438Y-69052380D02*
X99954819Y-68957142D01*
X99954819Y-68957142D02*
X99954819Y-68719047D01*
X99954819Y-68719047D02*
X100002438Y-68623809D01*
X100002438Y-68623809D02*
X100050057Y-68576190D01*
X100050057Y-68576190D02*
X100145295Y-68528571D01*
X100145295Y-68528571D02*
X100240533Y-68528571D01*
X100240533Y-68528571D02*
X100383390Y-68576190D01*
X100383390Y-68576190D02*
X100954819Y-69147618D01*
X100954819Y-69147618D02*
X100954819Y-68528571D01*
X100954819Y-67576190D02*
X100954819Y-68147618D01*
X100954819Y-67861904D02*
X99954819Y-67861904D01*
X99954819Y-67861904D02*
X100097676Y-67957142D01*
X100097676Y-67957142D02*
X100192914Y-68052380D01*
X100192914Y-68052380D02*
X100240533Y-68147618D01*
X81107200Y-79623809D02*
X81154819Y-79480952D01*
X81154819Y-79480952D02*
X81154819Y-79242857D01*
X81154819Y-79242857D02*
X81107200Y-79147619D01*
X81107200Y-79147619D02*
X81059580Y-79100000D01*
X81059580Y-79100000D02*
X80964342Y-79052381D01*
X80964342Y-79052381D02*
X80869104Y-79052381D01*
X80869104Y-79052381D02*
X80773866Y-79100000D01*
X80773866Y-79100000D02*
X80726247Y-79147619D01*
X80726247Y-79147619D02*
X80678628Y-79242857D01*
X80678628Y-79242857D02*
X80631009Y-79433333D01*
X80631009Y-79433333D02*
X80583390Y-79528571D01*
X80583390Y-79528571D02*
X80535771Y-79576190D01*
X80535771Y-79576190D02*
X80440533Y-79623809D01*
X80440533Y-79623809D02*
X80345295Y-79623809D01*
X80345295Y-79623809D02*
X80250057Y-79576190D01*
X80250057Y-79576190D02*
X80202438Y-79528571D01*
X80202438Y-79528571D02*
X80154819Y-79433333D01*
X80154819Y-79433333D02*
X80154819Y-79195238D01*
X80154819Y-79195238D02*
X80202438Y-79052381D01*
X80488152Y-78719047D02*
X81154819Y-78528571D01*
X81154819Y-78528571D02*
X80678628Y-78338095D01*
X80678628Y-78338095D02*
X81154819Y-78147619D01*
X81154819Y-78147619D02*
X80488152Y-77957143D01*
X81154819Y-77576190D02*
X80488152Y-77576190D01*
X80154819Y-77576190D02*
X80202438Y-77623809D01*
X80202438Y-77623809D02*
X80250057Y-77576190D01*
X80250057Y-77576190D02*
X80202438Y-77528571D01*
X80202438Y-77528571D02*
X80154819Y-77576190D01*
X80154819Y-77576190D02*
X80250057Y-77576190D01*
X80488152Y-77242857D02*
X80488152Y-76861905D01*
X80154819Y-77100000D02*
X81011961Y-77100000D01*
X81011961Y-77100000D02*
X81107200Y-77052381D01*
X81107200Y-77052381D02*
X81154819Y-76957143D01*
X81154819Y-76957143D02*
X81154819Y-76861905D01*
X81107200Y-76100000D02*
X81154819Y-76195238D01*
X81154819Y-76195238D02*
X81154819Y-76385714D01*
X81154819Y-76385714D02*
X81107200Y-76480952D01*
X81107200Y-76480952D02*
X81059580Y-76528571D01*
X81059580Y-76528571D02*
X80964342Y-76576190D01*
X80964342Y-76576190D02*
X80678628Y-76576190D01*
X80678628Y-76576190D02*
X80583390Y-76528571D01*
X80583390Y-76528571D02*
X80535771Y-76480952D01*
X80535771Y-76480952D02*
X80488152Y-76385714D01*
X80488152Y-76385714D02*
X80488152Y-76195238D01*
X80488152Y-76195238D02*
X80535771Y-76100000D01*
X81154819Y-75671428D02*
X80154819Y-75671428D01*
X81154819Y-75242857D02*
X80631009Y-75242857D01*
X80631009Y-75242857D02*
X80535771Y-75290476D01*
X80535771Y-75290476D02*
X80488152Y-75385714D01*
X80488152Y-75385714D02*
X80488152Y-75528571D01*
X80488152Y-75528571D02*
X80535771Y-75623809D01*
X80535771Y-75623809D02*
X80583390Y-75671428D01*
X80583390Y-73861904D02*
X80535771Y-73957142D01*
X80535771Y-73957142D02*
X80488152Y-74004761D01*
X80488152Y-74004761D02*
X80392914Y-74052380D01*
X80392914Y-74052380D02*
X80345295Y-74052380D01*
X80345295Y-74052380D02*
X80250057Y-74004761D01*
X80250057Y-74004761D02*
X80202438Y-73957142D01*
X80202438Y-73957142D02*
X80154819Y-73861904D01*
X80154819Y-73861904D02*
X80154819Y-73671428D01*
X80154819Y-73671428D02*
X80202438Y-73576190D01*
X80202438Y-73576190D02*
X80250057Y-73528571D01*
X80250057Y-73528571D02*
X80345295Y-73480952D01*
X80345295Y-73480952D02*
X80392914Y-73480952D01*
X80392914Y-73480952D02*
X80488152Y-73528571D01*
X80488152Y-73528571D02*
X80535771Y-73576190D01*
X80535771Y-73576190D02*
X80583390Y-73671428D01*
X80583390Y-73671428D02*
X80583390Y-73861904D01*
X80583390Y-73861904D02*
X80631009Y-73957142D01*
X80631009Y-73957142D02*
X80678628Y-74004761D01*
X80678628Y-74004761D02*
X80773866Y-74052380D01*
X80773866Y-74052380D02*
X80964342Y-74052380D01*
X80964342Y-74052380D02*
X81059580Y-74004761D01*
X81059580Y-74004761D02*
X81107200Y-73957142D01*
X81107200Y-73957142D02*
X81154819Y-73861904D01*
X81154819Y-73861904D02*
X81154819Y-73671428D01*
X81154819Y-73671428D02*
X81107200Y-73576190D01*
X81107200Y-73576190D02*
X81059580Y-73528571D01*
X81059580Y-73528571D02*
X80964342Y-73480952D01*
X80964342Y-73480952D02*
X80773866Y-73480952D01*
X80773866Y-73480952D02*
X80678628Y-73528571D01*
X80678628Y-73528571D02*
X80631009Y-73576190D01*
X80631009Y-73576190D02*
X80583390Y-73671428D01*
X80107200Y-72338095D02*
X81392914Y-73195237D01*
X81154819Y-71480952D02*
X81154819Y-72052380D01*
X81154819Y-71766666D02*
X80154819Y-71766666D01*
X80154819Y-71766666D02*
X80297676Y-71861904D01*
X80297676Y-71861904D02*
X80392914Y-71957142D01*
X80392914Y-71957142D02*
X80440533Y-72052380D01*
X80488152Y-70623809D02*
X81154819Y-70623809D01*
X80107200Y-70861904D02*
X80821485Y-71099999D01*
X80821485Y-71099999D02*
X80821485Y-70480952D01*
X80107200Y-69385714D02*
X81392914Y-70242856D01*
X80250057Y-69099999D02*
X80202438Y-69052380D01*
X80202438Y-69052380D02*
X80154819Y-68957142D01*
X80154819Y-68957142D02*
X80154819Y-68719047D01*
X80154819Y-68719047D02*
X80202438Y-68623809D01*
X80202438Y-68623809D02*
X80250057Y-68576190D01*
X80250057Y-68576190D02*
X80345295Y-68528571D01*
X80345295Y-68528571D02*
X80440533Y-68528571D01*
X80440533Y-68528571D02*
X80583390Y-68576190D01*
X80583390Y-68576190D02*
X81154819Y-69147618D01*
X81154819Y-69147618D02*
X81154819Y-68528571D01*
X80154819Y-67909523D02*
X80154819Y-67814285D01*
X80154819Y-67814285D02*
X80202438Y-67719047D01*
X80202438Y-67719047D02*
X80250057Y-67671428D01*
X80250057Y-67671428D02*
X80345295Y-67623809D01*
X80345295Y-67623809D02*
X80535771Y-67576190D01*
X80535771Y-67576190D02*
X80773866Y-67576190D01*
X80773866Y-67576190D02*
X80964342Y-67623809D01*
X80964342Y-67623809D02*
X81059580Y-67671428D01*
X81059580Y-67671428D02*
X81107200Y-67719047D01*
X81107200Y-67719047D02*
X81154819Y-67814285D01*
X81154819Y-67814285D02*
X81154819Y-67909523D01*
X81154819Y-67909523D02*
X81107200Y-68004761D01*
X81107200Y-68004761D02*
X81059580Y-68052380D01*
X81059580Y-68052380D02*
X80964342Y-68099999D01*
X80964342Y-68099999D02*
X80773866Y-68147618D01*
X80773866Y-68147618D02*
X80535771Y-68147618D01*
X80535771Y-68147618D02*
X80345295Y-68099999D01*
X80345295Y-68099999D02*
X80250057Y-68052380D01*
X80250057Y-68052380D02*
X80202438Y-68004761D01*
X80202438Y-68004761D02*
X80154819Y-67909523D01*
X61407200Y-79623809D02*
X61454819Y-79480952D01*
X61454819Y-79480952D02*
X61454819Y-79242857D01*
X61454819Y-79242857D02*
X61407200Y-79147619D01*
X61407200Y-79147619D02*
X61359580Y-79100000D01*
X61359580Y-79100000D02*
X61264342Y-79052381D01*
X61264342Y-79052381D02*
X61169104Y-79052381D01*
X61169104Y-79052381D02*
X61073866Y-79100000D01*
X61073866Y-79100000D02*
X61026247Y-79147619D01*
X61026247Y-79147619D02*
X60978628Y-79242857D01*
X60978628Y-79242857D02*
X60931009Y-79433333D01*
X60931009Y-79433333D02*
X60883390Y-79528571D01*
X60883390Y-79528571D02*
X60835771Y-79576190D01*
X60835771Y-79576190D02*
X60740533Y-79623809D01*
X60740533Y-79623809D02*
X60645295Y-79623809D01*
X60645295Y-79623809D02*
X60550057Y-79576190D01*
X60550057Y-79576190D02*
X60502438Y-79528571D01*
X60502438Y-79528571D02*
X60454819Y-79433333D01*
X60454819Y-79433333D02*
X60454819Y-79195238D01*
X60454819Y-79195238D02*
X60502438Y-79052381D01*
X60788152Y-78719047D02*
X61454819Y-78528571D01*
X61454819Y-78528571D02*
X60978628Y-78338095D01*
X60978628Y-78338095D02*
X61454819Y-78147619D01*
X61454819Y-78147619D02*
X60788152Y-77957143D01*
X61454819Y-77576190D02*
X60788152Y-77576190D01*
X60454819Y-77576190D02*
X60502438Y-77623809D01*
X60502438Y-77623809D02*
X60550057Y-77576190D01*
X60550057Y-77576190D02*
X60502438Y-77528571D01*
X60502438Y-77528571D02*
X60454819Y-77576190D01*
X60454819Y-77576190D02*
X60550057Y-77576190D01*
X60788152Y-77242857D02*
X60788152Y-76861905D01*
X60454819Y-77100000D02*
X61311961Y-77100000D01*
X61311961Y-77100000D02*
X61407200Y-77052381D01*
X61407200Y-77052381D02*
X61454819Y-76957143D01*
X61454819Y-76957143D02*
X61454819Y-76861905D01*
X61407200Y-76100000D02*
X61454819Y-76195238D01*
X61454819Y-76195238D02*
X61454819Y-76385714D01*
X61454819Y-76385714D02*
X61407200Y-76480952D01*
X61407200Y-76480952D02*
X61359580Y-76528571D01*
X61359580Y-76528571D02*
X61264342Y-76576190D01*
X61264342Y-76576190D02*
X60978628Y-76576190D01*
X60978628Y-76576190D02*
X60883390Y-76528571D01*
X60883390Y-76528571D02*
X60835771Y-76480952D01*
X60835771Y-76480952D02*
X60788152Y-76385714D01*
X60788152Y-76385714D02*
X60788152Y-76195238D01*
X60788152Y-76195238D02*
X60835771Y-76100000D01*
X61454819Y-75671428D02*
X60454819Y-75671428D01*
X61454819Y-75242857D02*
X60931009Y-75242857D01*
X60931009Y-75242857D02*
X60835771Y-75290476D01*
X60835771Y-75290476D02*
X60788152Y-75385714D01*
X60788152Y-75385714D02*
X60788152Y-75528571D01*
X60788152Y-75528571D02*
X60835771Y-75623809D01*
X60835771Y-75623809D02*
X60883390Y-75671428D01*
X60454819Y-74099999D02*
X60454819Y-73433333D01*
X60454819Y-73433333D02*
X61454819Y-73861904D01*
X60407200Y-72338095D02*
X61692914Y-73195237D01*
X61454819Y-71480952D02*
X61454819Y-72052380D01*
X61454819Y-71766666D02*
X60454819Y-71766666D01*
X60454819Y-71766666D02*
X60597676Y-71861904D01*
X60597676Y-71861904D02*
X60692914Y-71957142D01*
X60692914Y-71957142D02*
X60740533Y-72052380D01*
X60454819Y-71147618D02*
X60454819Y-70528571D01*
X60454819Y-70528571D02*
X60835771Y-70861904D01*
X60835771Y-70861904D02*
X60835771Y-70719047D01*
X60835771Y-70719047D02*
X60883390Y-70623809D01*
X60883390Y-70623809D02*
X60931009Y-70576190D01*
X60931009Y-70576190D02*
X61026247Y-70528571D01*
X61026247Y-70528571D02*
X61264342Y-70528571D01*
X61264342Y-70528571D02*
X61359580Y-70576190D01*
X61359580Y-70576190D02*
X61407200Y-70623809D01*
X61407200Y-70623809D02*
X61454819Y-70719047D01*
X61454819Y-70719047D02*
X61454819Y-71004761D01*
X61454819Y-71004761D02*
X61407200Y-71099999D01*
X61407200Y-71099999D02*
X61359580Y-71147618D01*
X60407200Y-69385714D02*
X61692914Y-70242856D01*
X61454819Y-68528571D02*
X61454819Y-69099999D01*
X61454819Y-68814285D02*
X60454819Y-68814285D01*
X60454819Y-68814285D02*
X60597676Y-68909523D01*
X60597676Y-68909523D02*
X60692914Y-69004761D01*
X60692914Y-69004761D02*
X60740533Y-69099999D01*
X61454819Y-68052380D02*
X61454819Y-67861904D01*
X61454819Y-67861904D02*
X61407200Y-67766666D01*
X61407200Y-67766666D02*
X61359580Y-67719047D01*
X61359580Y-67719047D02*
X61216723Y-67623809D01*
X61216723Y-67623809D02*
X61026247Y-67576190D01*
X61026247Y-67576190D02*
X60645295Y-67576190D01*
X60645295Y-67576190D02*
X60550057Y-67623809D01*
X60550057Y-67623809D02*
X60502438Y-67671428D01*
X60502438Y-67671428D02*
X60454819Y-67766666D01*
X60454819Y-67766666D02*
X60454819Y-67957142D01*
X60454819Y-67957142D02*
X60502438Y-68052380D01*
X60502438Y-68052380D02*
X60550057Y-68099999D01*
X60550057Y-68099999D02*
X60645295Y-68147618D01*
X60645295Y-68147618D02*
X60883390Y-68147618D01*
X60883390Y-68147618D02*
X60978628Y-68099999D01*
X60978628Y-68099999D02*
X61026247Y-68052380D01*
X61026247Y-68052380D02*
X61073866Y-67957142D01*
X61073866Y-67957142D02*
X61073866Y-67766666D01*
X61073866Y-67766666D02*
X61026247Y-67671428D01*
X61026247Y-67671428D02*
X60978628Y-67623809D01*
X60978628Y-67623809D02*
X60883390Y-67576190D01*
X158161905Y-64450057D02*
X158209524Y-64402438D01*
X158209524Y-64402438D02*
X158304762Y-64354819D01*
X158304762Y-64354819D02*
X158542857Y-64354819D01*
X158542857Y-64354819D02*
X158638095Y-64402438D01*
X158638095Y-64402438D02*
X158685714Y-64450057D01*
X158685714Y-64450057D02*
X158733333Y-64545295D01*
X158733333Y-64545295D02*
X158733333Y-64640533D01*
X158733333Y-64640533D02*
X158685714Y-64783390D01*
X158685714Y-64783390D02*
X158114286Y-65354819D01*
X158114286Y-65354819D02*
X158733333Y-65354819D01*
X159114286Y-64450057D02*
X159161905Y-64402438D01*
X159161905Y-64402438D02*
X159257143Y-64354819D01*
X159257143Y-64354819D02*
X159495238Y-64354819D01*
X159495238Y-64354819D02*
X159590476Y-64402438D01*
X159590476Y-64402438D02*
X159638095Y-64450057D01*
X159638095Y-64450057D02*
X159685714Y-64545295D01*
X159685714Y-64545295D02*
X159685714Y-64640533D01*
X159685714Y-64640533D02*
X159638095Y-64783390D01*
X159638095Y-64783390D02*
X159066667Y-65354819D01*
X159066667Y-65354819D02*
X159685714Y-65354819D01*
X160304762Y-64354819D02*
X160400000Y-64354819D01*
X160400000Y-64354819D02*
X160495238Y-64402438D01*
X160495238Y-64402438D02*
X160542857Y-64450057D01*
X160542857Y-64450057D02*
X160590476Y-64545295D01*
X160590476Y-64545295D02*
X160638095Y-64735771D01*
X160638095Y-64735771D02*
X160638095Y-64973866D01*
X160638095Y-64973866D02*
X160590476Y-65164342D01*
X160590476Y-65164342D02*
X160542857Y-65259580D01*
X160542857Y-65259580D02*
X160495238Y-65307200D01*
X160495238Y-65307200D02*
X160400000Y-65354819D01*
X160400000Y-65354819D02*
X160304762Y-65354819D01*
X160304762Y-65354819D02*
X160209524Y-65307200D01*
X160209524Y-65307200D02*
X160161905Y-65259580D01*
X160161905Y-65259580D02*
X160114286Y-65164342D01*
X160114286Y-65164342D02*
X160066667Y-64973866D01*
X160066667Y-64973866D02*
X160066667Y-64735771D01*
X160066667Y-64735771D02*
X160114286Y-64545295D01*
X160114286Y-64545295D02*
X160161905Y-64450057D01*
X160161905Y-64450057D02*
X160209524Y-64402438D01*
X160209524Y-64402438D02*
X160304762Y-64354819D01*
X138091905Y-64450057D02*
X138139524Y-64402438D01*
X138139524Y-64402438D02*
X138234762Y-64354819D01*
X138234762Y-64354819D02*
X138472857Y-64354819D01*
X138472857Y-64354819D02*
X138568095Y-64402438D01*
X138568095Y-64402438D02*
X138615714Y-64450057D01*
X138615714Y-64450057D02*
X138663333Y-64545295D01*
X138663333Y-64545295D02*
X138663333Y-64640533D01*
X138663333Y-64640533D02*
X138615714Y-64783390D01*
X138615714Y-64783390D02*
X138044286Y-65354819D01*
X138044286Y-65354819D02*
X138663333Y-65354819D01*
X139044286Y-64450057D02*
X139091905Y-64402438D01*
X139091905Y-64402438D02*
X139187143Y-64354819D01*
X139187143Y-64354819D02*
X139425238Y-64354819D01*
X139425238Y-64354819D02*
X139520476Y-64402438D01*
X139520476Y-64402438D02*
X139568095Y-64450057D01*
X139568095Y-64450057D02*
X139615714Y-64545295D01*
X139615714Y-64545295D02*
X139615714Y-64640533D01*
X139615714Y-64640533D02*
X139568095Y-64783390D01*
X139568095Y-64783390D02*
X138996667Y-65354819D01*
X138996667Y-65354819D02*
X139615714Y-65354819D01*
X140234762Y-64354819D02*
X140330000Y-64354819D01*
X140330000Y-64354819D02*
X140425238Y-64402438D01*
X140425238Y-64402438D02*
X140472857Y-64450057D01*
X140472857Y-64450057D02*
X140520476Y-64545295D01*
X140520476Y-64545295D02*
X140568095Y-64735771D01*
X140568095Y-64735771D02*
X140568095Y-64973866D01*
X140568095Y-64973866D02*
X140520476Y-65164342D01*
X140520476Y-65164342D02*
X140472857Y-65259580D01*
X140472857Y-65259580D02*
X140425238Y-65307200D01*
X140425238Y-65307200D02*
X140330000Y-65354819D01*
X140330000Y-65354819D02*
X140234762Y-65354819D01*
X140234762Y-65354819D02*
X140139524Y-65307200D01*
X140139524Y-65307200D02*
X140091905Y-65259580D01*
X140091905Y-65259580D02*
X140044286Y-65164342D01*
X140044286Y-65164342D02*
X139996667Y-64973866D01*
X139996667Y-64973866D02*
X139996667Y-64735771D01*
X139996667Y-64735771D02*
X140044286Y-64545295D01*
X140044286Y-64545295D02*
X140091905Y-64450057D01*
X140091905Y-64450057D02*
X140139524Y-64402438D01*
X140139524Y-64402438D02*
X140234762Y-64354819D01*
X118161905Y-64450057D02*
X118209524Y-64402438D01*
X118209524Y-64402438D02*
X118304762Y-64354819D01*
X118304762Y-64354819D02*
X118542857Y-64354819D01*
X118542857Y-64354819D02*
X118638095Y-64402438D01*
X118638095Y-64402438D02*
X118685714Y-64450057D01*
X118685714Y-64450057D02*
X118733333Y-64545295D01*
X118733333Y-64545295D02*
X118733333Y-64640533D01*
X118733333Y-64640533D02*
X118685714Y-64783390D01*
X118685714Y-64783390D02*
X118114286Y-65354819D01*
X118114286Y-65354819D02*
X118733333Y-65354819D01*
X119114286Y-64450057D02*
X119161905Y-64402438D01*
X119161905Y-64402438D02*
X119257143Y-64354819D01*
X119257143Y-64354819D02*
X119495238Y-64354819D01*
X119495238Y-64354819D02*
X119590476Y-64402438D01*
X119590476Y-64402438D02*
X119638095Y-64450057D01*
X119638095Y-64450057D02*
X119685714Y-64545295D01*
X119685714Y-64545295D02*
X119685714Y-64640533D01*
X119685714Y-64640533D02*
X119638095Y-64783390D01*
X119638095Y-64783390D02*
X119066667Y-65354819D01*
X119066667Y-65354819D02*
X119685714Y-65354819D01*
X120304762Y-64354819D02*
X120400000Y-64354819D01*
X120400000Y-64354819D02*
X120495238Y-64402438D01*
X120495238Y-64402438D02*
X120542857Y-64450057D01*
X120542857Y-64450057D02*
X120590476Y-64545295D01*
X120590476Y-64545295D02*
X120638095Y-64735771D01*
X120638095Y-64735771D02*
X120638095Y-64973866D01*
X120638095Y-64973866D02*
X120590476Y-65164342D01*
X120590476Y-65164342D02*
X120542857Y-65259580D01*
X120542857Y-65259580D02*
X120495238Y-65307200D01*
X120495238Y-65307200D02*
X120400000Y-65354819D01*
X120400000Y-65354819D02*
X120304762Y-65354819D01*
X120304762Y-65354819D02*
X120209524Y-65307200D01*
X120209524Y-65307200D02*
X120161905Y-65259580D01*
X120161905Y-65259580D02*
X120114286Y-65164342D01*
X120114286Y-65164342D02*
X120066667Y-64973866D01*
X120066667Y-64973866D02*
X120066667Y-64735771D01*
X120066667Y-64735771D02*
X120114286Y-64545295D01*
X120114286Y-64545295D02*
X120161905Y-64450057D01*
X120161905Y-64450057D02*
X120209524Y-64402438D01*
X120209524Y-64402438D02*
X120304762Y-64354819D01*
X98061905Y-64450057D02*
X98109524Y-64402438D01*
X98109524Y-64402438D02*
X98204762Y-64354819D01*
X98204762Y-64354819D02*
X98442857Y-64354819D01*
X98442857Y-64354819D02*
X98538095Y-64402438D01*
X98538095Y-64402438D02*
X98585714Y-64450057D01*
X98585714Y-64450057D02*
X98633333Y-64545295D01*
X98633333Y-64545295D02*
X98633333Y-64640533D01*
X98633333Y-64640533D02*
X98585714Y-64783390D01*
X98585714Y-64783390D02*
X98014286Y-65354819D01*
X98014286Y-65354819D02*
X98633333Y-65354819D01*
X99014286Y-64450057D02*
X99061905Y-64402438D01*
X99061905Y-64402438D02*
X99157143Y-64354819D01*
X99157143Y-64354819D02*
X99395238Y-64354819D01*
X99395238Y-64354819D02*
X99490476Y-64402438D01*
X99490476Y-64402438D02*
X99538095Y-64450057D01*
X99538095Y-64450057D02*
X99585714Y-64545295D01*
X99585714Y-64545295D02*
X99585714Y-64640533D01*
X99585714Y-64640533D02*
X99538095Y-64783390D01*
X99538095Y-64783390D02*
X98966667Y-65354819D01*
X98966667Y-65354819D02*
X99585714Y-65354819D01*
X100204762Y-64354819D02*
X100300000Y-64354819D01*
X100300000Y-64354819D02*
X100395238Y-64402438D01*
X100395238Y-64402438D02*
X100442857Y-64450057D01*
X100442857Y-64450057D02*
X100490476Y-64545295D01*
X100490476Y-64545295D02*
X100538095Y-64735771D01*
X100538095Y-64735771D02*
X100538095Y-64973866D01*
X100538095Y-64973866D02*
X100490476Y-65164342D01*
X100490476Y-65164342D02*
X100442857Y-65259580D01*
X100442857Y-65259580D02*
X100395238Y-65307200D01*
X100395238Y-65307200D02*
X100300000Y-65354819D01*
X100300000Y-65354819D02*
X100204762Y-65354819D01*
X100204762Y-65354819D02*
X100109524Y-65307200D01*
X100109524Y-65307200D02*
X100061905Y-65259580D01*
X100061905Y-65259580D02*
X100014286Y-65164342D01*
X100014286Y-65164342D02*
X99966667Y-64973866D01*
X99966667Y-64973866D02*
X99966667Y-64735771D01*
X99966667Y-64735771D02*
X100014286Y-64545295D01*
X100014286Y-64545295D02*
X100061905Y-64450057D01*
X100061905Y-64450057D02*
X100109524Y-64402438D01*
X100109524Y-64402438D02*
X100204762Y-64354819D01*
X78091905Y-64550057D02*
X78139524Y-64502438D01*
X78139524Y-64502438D02*
X78234762Y-64454819D01*
X78234762Y-64454819D02*
X78472857Y-64454819D01*
X78472857Y-64454819D02*
X78568095Y-64502438D01*
X78568095Y-64502438D02*
X78615714Y-64550057D01*
X78615714Y-64550057D02*
X78663333Y-64645295D01*
X78663333Y-64645295D02*
X78663333Y-64740533D01*
X78663333Y-64740533D02*
X78615714Y-64883390D01*
X78615714Y-64883390D02*
X78044286Y-65454819D01*
X78044286Y-65454819D02*
X78663333Y-65454819D01*
X79044286Y-64550057D02*
X79091905Y-64502438D01*
X79091905Y-64502438D02*
X79187143Y-64454819D01*
X79187143Y-64454819D02*
X79425238Y-64454819D01*
X79425238Y-64454819D02*
X79520476Y-64502438D01*
X79520476Y-64502438D02*
X79568095Y-64550057D01*
X79568095Y-64550057D02*
X79615714Y-64645295D01*
X79615714Y-64645295D02*
X79615714Y-64740533D01*
X79615714Y-64740533D02*
X79568095Y-64883390D01*
X79568095Y-64883390D02*
X78996667Y-65454819D01*
X78996667Y-65454819D02*
X79615714Y-65454819D01*
X80234762Y-64454819D02*
X80330000Y-64454819D01*
X80330000Y-64454819D02*
X80425238Y-64502438D01*
X80425238Y-64502438D02*
X80472857Y-64550057D01*
X80472857Y-64550057D02*
X80520476Y-64645295D01*
X80520476Y-64645295D02*
X80568095Y-64835771D01*
X80568095Y-64835771D02*
X80568095Y-65073866D01*
X80568095Y-65073866D02*
X80520476Y-65264342D01*
X80520476Y-65264342D02*
X80472857Y-65359580D01*
X80472857Y-65359580D02*
X80425238Y-65407200D01*
X80425238Y-65407200D02*
X80330000Y-65454819D01*
X80330000Y-65454819D02*
X80234762Y-65454819D01*
X80234762Y-65454819D02*
X80139524Y-65407200D01*
X80139524Y-65407200D02*
X80091905Y-65359580D01*
X80091905Y-65359580D02*
X80044286Y-65264342D01*
X80044286Y-65264342D02*
X79996667Y-65073866D01*
X79996667Y-65073866D02*
X79996667Y-64835771D01*
X79996667Y-64835771D02*
X80044286Y-64645295D01*
X80044286Y-64645295D02*
X80091905Y-64550057D01*
X80091905Y-64550057D02*
X80139524Y-64502438D01*
X80139524Y-64502438D02*
X80234762Y-64454819D01*
X58091905Y-64550057D02*
X58139524Y-64502438D01*
X58139524Y-64502438D02*
X58234762Y-64454819D01*
X58234762Y-64454819D02*
X58472857Y-64454819D01*
X58472857Y-64454819D02*
X58568095Y-64502438D01*
X58568095Y-64502438D02*
X58615714Y-64550057D01*
X58615714Y-64550057D02*
X58663333Y-64645295D01*
X58663333Y-64645295D02*
X58663333Y-64740533D01*
X58663333Y-64740533D02*
X58615714Y-64883390D01*
X58615714Y-64883390D02*
X58044286Y-65454819D01*
X58044286Y-65454819D02*
X58663333Y-65454819D01*
X59044286Y-64550057D02*
X59091905Y-64502438D01*
X59091905Y-64502438D02*
X59187143Y-64454819D01*
X59187143Y-64454819D02*
X59425238Y-64454819D01*
X59425238Y-64454819D02*
X59520476Y-64502438D01*
X59520476Y-64502438D02*
X59568095Y-64550057D01*
X59568095Y-64550057D02*
X59615714Y-64645295D01*
X59615714Y-64645295D02*
X59615714Y-64740533D01*
X59615714Y-64740533D02*
X59568095Y-64883390D01*
X59568095Y-64883390D02*
X58996667Y-65454819D01*
X58996667Y-65454819D02*
X59615714Y-65454819D01*
X60234762Y-64454819D02*
X60330000Y-64454819D01*
X60330000Y-64454819D02*
X60425238Y-64502438D01*
X60425238Y-64502438D02*
X60472857Y-64550057D01*
X60472857Y-64550057D02*
X60520476Y-64645295D01*
X60520476Y-64645295D02*
X60568095Y-64835771D01*
X60568095Y-64835771D02*
X60568095Y-65073866D01*
X60568095Y-65073866D02*
X60520476Y-65264342D01*
X60520476Y-65264342D02*
X60472857Y-65359580D01*
X60472857Y-65359580D02*
X60425238Y-65407200D01*
X60425238Y-65407200D02*
X60330000Y-65454819D01*
X60330000Y-65454819D02*
X60234762Y-65454819D01*
X60234762Y-65454819D02*
X60139524Y-65407200D01*
X60139524Y-65407200D02*
X60091905Y-65359580D01*
X60091905Y-65359580D02*
X60044286Y-65264342D01*
X60044286Y-65264342D02*
X59996667Y-65073866D01*
X59996667Y-65073866D02*
X59996667Y-64835771D01*
X59996667Y-64835771D02*
X60044286Y-64645295D01*
X60044286Y-64645295D02*
X60091905Y-64550057D01*
X60091905Y-64550057D02*
X60139524Y-64502438D01*
X60139524Y-64502438D02*
X60234762Y-64454819D01*
X143441905Y-73364819D02*
X143441905Y-72364819D01*
X143441905Y-72364819D02*
X143680000Y-72364819D01*
X143680000Y-72364819D02*
X143822857Y-72412438D01*
X143822857Y-72412438D02*
X143918095Y-72507676D01*
X143918095Y-72507676D02*
X143965714Y-72602914D01*
X143965714Y-72602914D02*
X144013333Y-72793390D01*
X144013333Y-72793390D02*
X144013333Y-72936247D01*
X144013333Y-72936247D02*
X143965714Y-73126723D01*
X143965714Y-73126723D02*
X143918095Y-73221961D01*
X143918095Y-73221961D02*
X143822857Y-73317200D01*
X143822857Y-73317200D02*
X143680000Y-73364819D01*
X143680000Y-73364819D02*
X143441905Y-73364819D01*
X144918095Y-72364819D02*
X144441905Y-72364819D01*
X144441905Y-72364819D02*
X144394286Y-72841009D01*
X144394286Y-72841009D02*
X144441905Y-72793390D01*
X144441905Y-72793390D02*
X144537143Y-72745771D01*
X144537143Y-72745771D02*
X144775238Y-72745771D01*
X144775238Y-72745771D02*
X144870476Y-72793390D01*
X144870476Y-72793390D02*
X144918095Y-72841009D01*
X144918095Y-72841009D02*
X144965714Y-72936247D01*
X144965714Y-72936247D02*
X144965714Y-73174342D01*
X144965714Y-73174342D02*
X144918095Y-73269580D01*
X144918095Y-73269580D02*
X144870476Y-73317200D01*
X144870476Y-73317200D02*
X144775238Y-73364819D01*
X144775238Y-73364819D02*
X144537143Y-73364819D01*
X144537143Y-73364819D02*
X144441905Y-73317200D01*
X144441905Y-73317200D02*
X144394286Y-73269580D01*
X103441905Y-73364819D02*
X103441905Y-72364819D01*
X103441905Y-72364819D02*
X103680000Y-72364819D01*
X103680000Y-72364819D02*
X103822857Y-72412438D01*
X103822857Y-72412438D02*
X103918095Y-72507676D01*
X103918095Y-72507676D02*
X103965714Y-72602914D01*
X103965714Y-72602914D02*
X104013333Y-72793390D01*
X104013333Y-72793390D02*
X104013333Y-72936247D01*
X104013333Y-72936247D02*
X103965714Y-73126723D01*
X103965714Y-73126723D02*
X103918095Y-73221961D01*
X103918095Y-73221961D02*
X103822857Y-73317200D01*
X103822857Y-73317200D02*
X103680000Y-73364819D01*
X103680000Y-73364819D02*
X103441905Y-73364819D01*
X104346667Y-72364819D02*
X104965714Y-72364819D01*
X104965714Y-72364819D02*
X104632381Y-72745771D01*
X104632381Y-72745771D02*
X104775238Y-72745771D01*
X104775238Y-72745771D02*
X104870476Y-72793390D01*
X104870476Y-72793390D02*
X104918095Y-72841009D01*
X104918095Y-72841009D02*
X104965714Y-72936247D01*
X104965714Y-72936247D02*
X104965714Y-73174342D01*
X104965714Y-73174342D02*
X104918095Y-73269580D01*
X104918095Y-73269580D02*
X104870476Y-73317200D01*
X104870476Y-73317200D02*
X104775238Y-73364819D01*
X104775238Y-73364819D02*
X104489524Y-73364819D01*
X104489524Y-73364819D02*
X104394286Y-73317200D01*
X104394286Y-73317200D02*
X104346667Y-73269580D01*
X83441905Y-73364819D02*
X83441905Y-72364819D01*
X83441905Y-72364819D02*
X83680000Y-72364819D01*
X83680000Y-72364819D02*
X83822857Y-72412438D01*
X83822857Y-72412438D02*
X83918095Y-72507676D01*
X83918095Y-72507676D02*
X83965714Y-72602914D01*
X83965714Y-72602914D02*
X84013333Y-72793390D01*
X84013333Y-72793390D02*
X84013333Y-72936247D01*
X84013333Y-72936247D02*
X83965714Y-73126723D01*
X83965714Y-73126723D02*
X83918095Y-73221961D01*
X83918095Y-73221961D02*
X83822857Y-73317200D01*
X83822857Y-73317200D02*
X83680000Y-73364819D01*
X83680000Y-73364819D02*
X83441905Y-73364819D01*
X84394286Y-72460057D02*
X84441905Y-72412438D01*
X84441905Y-72412438D02*
X84537143Y-72364819D01*
X84537143Y-72364819D02*
X84775238Y-72364819D01*
X84775238Y-72364819D02*
X84870476Y-72412438D01*
X84870476Y-72412438D02*
X84918095Y-72460057D01*
X84918095Y-72460057D02*
X84965714Y-72555295D01*
X84965714Y-72555295D02*
X84965714Y-72650533D01*
X84965714Y-72650533D02*
X84918095Y-72793390D01*
X84918095Y-72793390D02*
X84346667Y-73364819D01*
X84346667Y-73364819D02*
X84965714Y-73364819D01*
X163441905Y-73364819D02*
X163441905Y-72364819D01*
X163441905Y-72364819D02*
X163680000Y-72364819D01*
X163680000Y-72364819D02*
X163822857Y-72412438D01*
X163822857Y-72412438D02*
X163918095Y-72507676D01*
X163918095Y-72507676D02*
X163965714Y-72602914D01*
X163965714Y-72602914D02*
X164013333Y-72793390D01*
X164013333Y-72793390D02*
X164013333Y-72936247D01*
X164013333Y-72936247D02*
X163965714Y-73126723D01*
X163965714Y-73126723D02*
X163918095Y-73221961D01*
X163918095Y-73221961D02*
X163822857Y-73317200D01*
X163822857Y-73317200D02*
X163680000Y-73364819D01*
X163680000Y-73364819D02*
X163441905Y-73364819D01*
X164870476Y-72364819D02*
X164680000Y-72364819D01*
X164680000Y-72364819D02*
X164584762Y-72412438D01*
X164584762Y-72412438D02*
X164537143Y-72460057D01*
X164537143Y-72460057D02*
X164441905Y-72602914D01*
X164441905Y-72602914D02*
X164394286Y-72793390D01*
X164394286Y-72793390D02*
X164394286Y-73174342D01*
X164394286Y-73174342D02*
X164441905Y-73269580D01*
X164441905Y-73269580D02*
X164489524Y-73317200D01*
X164489524Y-73317200D02*
X164584762Y-73364819D01*
X164584762Y-73364819D02*
X164775238Y-73364819D01*
X164775238Y-73364819D02*
X164870476Y-73317200D01*
X164870476Y-73317200D02*
X164918095Y-73269580D01*
X164918095Y-73269580D02*
X164965714Y-73174342D01*
X164965714Y-73174342D02*
X164965714Y-72936247D01*
X164965714Y-72936247D02*
X164918095Y-72841009D01*
X164918095Y-72841009D02*
X164870476Y-72793390D01*
X164870476Y-72793390D02*
X164775238Y-72745771D01*
X164775238Y-72745771D02*
X164584762Y-72745771D01*
X164584762Y-72745771D02*
X164489524Y-72793390D01*
X164489524Y-72793390D02*
X164441905Y-72841009D01*
X164441905Y-72841009D02*
X164394286Y-72936247D01*
X123491905Y-73364819D02*
X123491905Y-72364819D01*
X123491905Y-72364819D02*
X123730000Y-72364819D01*
X123730000Y-72364819D02*
X123872857Y-72412438D01*
X123872857Y-72412438D02*
X123968095Y-72507676D01*
X123968095Y-72507676D02*
X124015714Y-72602914D01*
X124015714Y-72602914D02*
X124063333Y-72793390D01*
X124063333Y-72793390D02*
X124063333Y-72936247D01*
X124063333Y-72936247D02*
X124015714Y-73126723D01*
X124015714Y-73126723D02*
X123968095Y-73221961D01*
X123968095Y-73221961D02*
X123872857Y-73317200D01*
X123872857Y-73317200D02*
X123730000Y-73364819D01*
X123730000Y-73364819D02*
X123491905Y-73364819D01*
X124920476Y-72698152D02*
X124920476Y-73364819D01*
X124682381Y-72317200D02*
X124444286Y-73031485D01*
X124444286Y-73031485D02*
X125063333Y-73031485D01*
X63441905Y-73364819D02*
X63441905Y-72364819D01*
X63441905Y-72364819D02*
X63680000Y-72364819D01*
X63680000Y-72364819D02*
X63822857Y-72412438D01*
X63822857Y-72412438D02*
X63918095Y-72507676D01*
X63918095Y-72507676D02*
X63965714Y-72602914D01*
X63965714Y-72602914D02*
X64013333Y-72793390D01*
X64013333Y-72793390D02*
X64013333Y-72936247D01*
X64013333Y-72936247D02*
X63965714Y-73126723D01*
X63965714Y-73126723D02*
X63918095Y-73221961D01*
X63918095Y-73221961D02*
X63822857Y-73317200D01*
X63822857Y-73317200D02*
X63680000Y-73364819D01*
X63680000Y-73364819D02*
X63441905Y-73364819D01*
X64965714Y-73364819D02*
X64394286Y-73364819D01*
X64680000Y-73364819D02*
X64680000Y-72364819D01*
X64680000Y-72364819D02*
X64584762Y-72507676D01*
X64584762Y-72507676D02*
X64489524Y-72602914D01*
X64489524Y-72602914D02*
X64394286Y-72650533D01*
X153754819Y-61228571D02*
X153754819Y-61038095D01*
X153754819Y-61038095D02*
X153802438Y-60942857D01*
X153802438Y-60942857D02*
X153897676Y-60847619D01*
X153897676Y-60847619D02*
X154088152Y-60800000D01*
X154088152Y-60800000D02*
X154421485Y-60800000D01*
X154421485Y-60800000D02*
X154611961Y-60847619D01*
X154611961Y-60847619D02*
X154707200Y-60942857D01*
X154707200Y-60942857D02*
X154754819Y-61038095D01*
X154754819Y-61038095D02*
X154754819Y-61228571D01*
X154754819Y-61228571D02*
X154707200Y-61323809D01*
X154707200Y-61323809D02*
X154611961Y-61419047D01*
X154611961Y-61419047D02*
X154421485Y-61466666D01*
X154421485Y-61466666D02*
X154088152Y-61466666D01*
X154088152Y-61466666D02*
X153897676Y-61419047D01*
X153897676Y-61419047D02*
X153802438Y-61323809D01*
X153802438Y-61323809D02*
X153754819Y-61228571D01*
X154088152Y-59942857D02*
X154754819Y-59942857D01*
X154088152Y-60371428D02*
X154611961Y-60371428D01*
X154611961Y-60371428D02*
X154707200Y-60323809D01*
X154707200Y-60323809D02*
X154754819Y-60228571D01*
X154754819Y-60228571D02*
X154754819Y-60085714D01*
X154754819Y-60085714D02*
X154707200Y-59990476D01*
X154707200Y-59990476D02*
X154659580Y-59942857D01*
X154088152Y-59609523D02*
X154088152Y-59228571D01*
X153754819Y-59466666D02*
X154611961Y-59466666D01*
X154611961Y-59466666D02*
X154707200Y-59419047D01*
X154707200Y-59419047D02*
X154754819Y-59323809D01*
X154754819Y-59323809D02*
X154754819Y-59228571D01*
X154088152Y-58895237D02*
X155088152Y-58895237D01*
X154135771Y-58895237D02*
X154088152Y-58799999D01*
X154088152Y-58799999D02*
X154088152Y-58609523D01*
X154088152Y-58609523D02*
X154135771Y-58514285D01*
X154135771Y-58514285D02*
X154183390Y-58466666D01*
X154183390Y-58466666D02*
X154278628Y-58419047D01*
X154278628Y-58419047D02*
X154564342Y-58419047D01*
X154564342Y-58419047D02*
X154659580Y-58466666D01*
X154659580Y-58466666D02*
X154707200Y-58514285D01*
X154707200Y-58514285D02*
X154754819Y-58609523D01*
X154754819Y-58609523D02*
X154754819Y-58799999D01*
X154754819Y-58799999D02*
X154707200Y-58895237D01*
X154088152Y-57561904D02*
X154754819Y-57561904D01*
X154088152Y-57990475D02*
X154611961Y-57990475D01*
X154611961Y-57990475D02*
X154707200Y-57942856D01*
X154707200Y-57942856D02*
X154754819Y-57847618D01*
X154754819Y-57847618D02*
X154754819Y-57704761D01*
X154754819Y-57704761D02*
X154707200Y-57609523D01*
X154707200Y-57609523D02*
X154659580Y-57561904D01*
X154088152Y-57228570D02*
X154088152Y-56847618D01*
X153754819Y-57085713D02*
X154611961Y-57085713D01*
X154611961Y-57085713D02*
X154707200Y-57038094D01*
X154707200Y-57038094D02*
X154754819Y-56942856D01*
X154754819Y-56942856D02*
X154754819Y-56847618D01*
X154754819Y-55228570D02*
X154754819Y-55799998D01*
X154754819Y-55514284D02*
X153754819Y-55514284D01*
X153754819Y-55514284D02*
X153897676Y-55609522D01*
X153897676Y-55609522D02*
X153992914Y-55704760D01*
X153992914Y-55704760D02*
X154040533Y-55799998D01*
X154754819Y-54752379D02*
X154754819Y-54561903D01*
X154754819Y-54561903D02*
X154707200Y-54466665D01*
X154707200Y-54466665D02*
X154659580Y-54419046D01*
X154659580Y-54419046D02*
X154516723Y-54323808D01*
X154516723Y-54323808D02*
X154326247Y-54276189D01*
X154326247Y-54276189D02*
X153945295Y-54276189D01*
X153945295Y-54276189D02*
X153850057Y-54323808D01*
X153850057Y-54323808D02*
X153802438Y-54371427D01*
X153802438Y-54371427D02*
X153754819Y-54466665D01*
X153754819Y-54466665D02*
X153754819Y-54657141D01*
X153754819Y-54657141D02*
X153802438Y-54752379D01*
X153802438Y-54752379D02*
X153850057Y-54799998D01*
X153850057Y-54799998D02*
X153945295Y-54847617D01*
X153945295Y-54847617D02*
X154183390Y-54847617D01*
X154183390Y-54847617D02*
X154278628Y-54799998D01*
X154278628Y-54799998D02*
X154326247Y-54752379D01*
X154326247Y-54752379D02*
X154373866Y-54657141D01*
X154373866Y-54657141D02*
X154373866Y-54466665D01*
X154373866Y-54466665D02*
X154326247Y-54371427D01*
X154326247Y-54371427D02*
X154278628Y-54323808D01*
X154278628Y-54323808D02*
X154183390Y-54276189D01*
X154373866Y-53847617D02*
X154373866Y-53085713D01*
X153850057Y-52657141D02*
X153802438Y-52609522D01*
X153802438Y-52609522D02*
X153754819Y-52514284D01*
X153754819Y-52514284D02*
X153754819Y-52276189D01*
X153754819Y-52276189D02*
X153802438Y-52180951D01*
X153802438Y-52180951D02*
X153850057Y-52133332D01*
X153850057Y-52133332D02*
X153945295Y-52085713D01*
X153945295Y-52085713D02*
X154040533Y-52085713D01*
X154040533Y-52085713D02*
X154183390Y-52133332D01*
X154183390Y-52133332D02*
X154754819Y-52704760D01*
X154754819Y-52704760D02*
X154754819Y-52085713D01*
X154088152Y-51228570D02*
X154754819Y-51228570D01*
X153707200Y-51466665D02*
X154421485Y-51704760D01*
X154421485Y-51704760D02*
X154421485Y-51085713D01*
X130754819Y-60928571D02*
X130754819Y-60738095D01*
X130754819Y-60738095D02*
X130802438Y-60642857D01*
X130802438Y-60642857D02*
X130897676Y-60547619D01*
X130897676Y-60547619D02*
X131088152Y-60500000D01*
X131088152Y-60500000D02*
X131421485Y-60500000D01*
X131421485Y-60500000D02*
X131611961Y-60547619D01*
X131611961Y-60547619D02*
X131707200Y-60642857D01*
X131707200Y-60642857D02*
X131754819Y-60738095D01*
X131754819Y-60738095D02*
X131754819Y-60928571D01*
X131754819Y-60928571D02*
X131707200Y-61023809D01*
X131707200Y-61023809D02*
X131611961Y-61119047D01*
X131611961Y-61119047D02*
X131421485Y-61166666D01*
X131421485Y-61166666D02*
X131088152Y-61166666D01*
X131088152Y-61166666D02*
X130897676Y-61119047D01*
X130897676Y-61119047D02*
X130802438Y-61023809D01*
X130802438Y-61023809D02*
X130754819Y-60928571D01*
X131088152Y-59642857D02*
X131754819Y-59642857D01*
X131088152Y-60071428D02*
X131611961Y-60071428D01*
X131611961Y-60071428D02*
X131707200Y-60023809D01*
X131707200Y-60023809D02*
X131754819Y-59928571D01*
X131754819Y-59928571D02*
X131754819Y-59785714D01*
X131754819Y-59785714D02*
X131707200Y-59690476D01*
X131707200Y-59690476D02*
X131659580Y-59642857D01*
X131088152Y-59309523D02*
X131088152Y-58928571D01*
X130754819Y-59166666D02*
X131611961Y-59166666D01*
X131611961Y-59166666D02*
X131707200Y-59119047D01*
X131707200Y-59119047D02*
X131754819Y-59023809D01*
X131754819Y-59023809D02*
X131754819Y-58928571D01*
X131088152Y-58595237D02*
X132088152Y-58595237D01*
X131135771Y-58595237D02*
X131088152Y-58499999D01*
X131088152Y-58499999D02*
X131088152Y-58309523D01*
X131088152Y-58309523D02*
X131135771Y-58214285D01*
X131135771Y-58214285D02*
X131183390Y-58166666D01*
X131183390Y-58166666D02*
X131278628Y-58119047D01*
X131278628Y-58119047D02*
X131564342Y-58119047D01*
X131564342Y-58119047D02*
X131659580Y-58166666D01*
X131659580Y-58166666D02*
X131707200Y-58214285D01*
X131707200Y-58214285D02*
X131754819Y-58309523D01*
X131754819Y-58309523D02*
X131754819Y-58499999D01*
X131754819Y-58499999D02*
X131707200Y-58595237D01*
X131088152Y-57261904D02*
X131754819Y-57261904D01*
X131088152Y-57690475D02*
X131611961Y-57690475D01*
X131611961Y-57690475D02*
X131707200Y-57642856D01*
X131707200Y-57642856D02*
X131754819Y-57547618D01*
X131754819Y-57547618D02*
X131754819Y-57404761D01*
X131754819Y-57404761D02*
X131707200Y-57309523D01*
X131707200Y-57309523D02*
X131659580Y-57261904D01*
X131088152Y-56928570D02*
X131088152Y-56547618D01*
X130754819Y-56785713D02*
X131611961Y-56785713D01*
X131611961Y-56785713D02*
X131707200Y-56738094D01*
X131707200Y-56738094D02*
X131754819Y-56642856D01*
X131754819Y-56642856D02*
X131754819Y-56547618D01*
X131754819Y-54928570D02*
X131754819Y-55499998D01*
X131754819Y-55214284D02*
X130754819Y-55214284D01*
X130754819Y-55214284D02*
X130897676Y-55309522D01*
X130897676Y-55309522D02*
X130992914Y-55404760D01*
X130992914Y-55404760D02*
X131040533Y-55499998D01*
X131088152Y-54071427D02*
X131754819Y-54071427D01*
X130707200Y-54309522D02*
X131421485Y-54547617D01*
X131421485Y-54547617D02*
X131421485Y-53928570D01*
X131373866Y-53547617D02*
X131373866Y-52785713D01*
X131754819Y-51785713D02*
X131754819Y-52357141D01*
X131754819Y-52071427D02*
X130754819Y-52071427D01*
X130754819Y-52071427D02*
X130897676Y-52166665D01*
X130897676Y-52166665D02*
X130992914Y-52261903D01*
X130992914Y-52261903D02*
X131040533Y-52357141D01*
X131183390Y-51214284D02*
X131135771Y-51309522D01*
X131135771Y-51309522D02*
X131088152Y-51357141D01*
X131088152Y-51357141D02*
X130992914Y-51404760D01*
X130992914Y-51404760D02*
X130945295Y-51404760D01*
X130945295Y-51404760D02*
X130850057Y-51357141D01*
X130850057Y-51357141D02*
X130802438Y-51309522D01*
X130802438Y-51309522D02*
X130754819Y-51214284D01*
X130754819Y-51214284D02*
X130754819Y-51023808D01*
X130754819Y-51023808D02*
X130802438Y-50928570D01*
X130802438Y-50928570D02*
X130850057Y-50880951D01*
X130850057Y-50880951D02*
X130945295Y-50833332D01*
X130945295Y-50833332D02*
X130992914Y-50833332D01*
X130992914Y-50833332D02*
X131088152Y-50880951D01*
X131088152Y-50880951D02*
X131135771Y-50928570D01*
X131135771Y-50928570D02*
X131183390Y-51023808D01*
X131183390Y-51023808D02*
X131183390Y-51214284D01*
X131183390Y-51214284D02*
X131231009Y-51309522D01*
X131231009Y-51309522D02*
X131278628Y-51357141D01*
X131278628Y-51357141D02*
X131373866Y-51404760D01*
X131373866Y-51404760D02*
X131564342Y-51404760D01*
X131564342Y-51404760D02*
X131659580Y-51357141D01*
X131659580Y-51357141D02*
X131707200Y-51309522D01*
X131707200Y-51309522D02*
X131754819Y-51214284D01*
X131754819Y-51214284D02*
X131754819Y-51023808D01*
X131754819Y-51023808D02*
X131707200Y-50928570D01*
X131707200Y-50928570D02*
X131659580Y-50880951D01*
X131659580Y-50880951D02*
X131564342Y-50833332D01*
X131564342Y-50833332D02*
X131373866Y-50833332D01*
X131373866Y-50833332D02*
X131278628Y-50880951D01*
X131278628Y-50880951D02*
X131231009Y-50928570D01*
X131231009Y-50928570D02*
X131183390Y-51023808D01*
X108154819Y-59752381D02*
X108154819Y-59561905D01*
X108154819Y-59561905D02*
X108202438Y-59466667D01*
X108202438Y-59466667D02*
X108297676Y-59371429D01*
X108297676Y-59371429D02*
X108488152Y-59323810D01*
X108488152Y-59323810D02*
X108821485Y-59323810D01*
X108821485Y-59323810D02*
X109011961Y-59371429D01*
X109011961Y-59371429D02*
X109107200Y-59466667D01*
X109107200Y-59466667D02*
X109154819Y-59561905D01*
X109154819Y-59561905D02*
X109154819Y-59752381D01*
X109154819Y-59752381D02*
X109107200Y-59847619D01*
X109107200Y-59847619D02*
X109011961Y-59942857D01*
X109011961Y-59942857D02*
X108821485Y-59990476D01*
X108821485Y-59990476D02*
X108488152Y-59990476D01*
X108488152Y-59990476D02*
X108297676Y-59942857D01*
X108297676Y-59942857D02*
X108202438Y-59847619D01*
X108202438Y-59847619D02*
X108154819Y-59752381D01*
X108488152Y-58466667D02*
X109154819Y-58466667D01*
X108488152Y-58895238D02*
X109011961Y-58895238D01*
X109011961Y-58895238D02*
X109107200Y-58847619D01*
X109107200Y-58847619D02*
X109154819Y-58752381D01*
X109154819Y-58752381D02*
X109154819Y-58609524D01*
X109154819Y-58609524D02*
X109107200Y-58514286D01*
X109107200Y-58514286D02*
X109059580Y-58466667D01*
X108488152Y-58133333D02*
X108488152Y-57752381D01*
X108154819Y-57990476D02*
X109011961Y-57990476D01*
X109011961Y-57990476D02*
X109107200Y-57942857D01*
X109107200Y-57942857D02*
X109154819Y-57847619D01*
X109154819Y-57847619D02*
X109154819Y-57752381D01*
X108488152Y-57419047D02*
X109488152Y-57419047D01*
X108535771Y-57419047D02*
X108488152Y-57323809D01*
X108488152Y-57323809D02*
X108488152Y-57133333D01*
X108488152Y-57133333D02*
X108535771Y-57038095D01*
X108535771Y-57038095D02*
X108583390Y-56990476D01*
X108583390Y-56990476D02*
X108678628Y-56942857D01*
X108678628Y-56942857D02*
X108964342Y-56942857D01*
X108964342Y-56942857D02*
X109059580Y-56990476D01*
X109059580Y-56990476D02*
X109107200Y-57038095D01*
X109107200Y-57038095D02*
X109154819Y-57133333D01*
X109154819Y-57133333D02*
X109154819Y-57323809D01*
X109154819Y-57323809D02*
X109107200Y-57419047D01*
X108488152Y-56085714D02*
X109154819Y-56085714D01*
X108488152Y-56514285D02*
X109011961Y-56514285D01*
X109011961Y-56514285D02*
X109107200Y-56466666D01*
X109107200Y-56466666D02*
X109154819Y-56371428D01*
X109154819Y-56371428D02*
X109154819Y-56228571D01*
X109154819Y-56228571D02*
X109107200Y-56133333D01*
X109107200Y-56133333D02*
X109059580Y-56085714D01*
X108488152Y-55752380D02*
X108488152Y-55371428D01*
X108154819Y-55609523D02*
X109011961Y-55609523D01*
X109011961Y-55609523D02*
X109107200Y-55561904D01*
X109107200Y-55561904D02*
X109154819Y-55466666D01*
X109154819Y-55466666D02*
X109154819Y-55371428D01*
X108154819Y-54371427D02*
X108154819Y-53704761D01*
X108154819Y-53704761D02*
X109154819Y-54133332D01*
X108773866Y-53323808D02*
X108773866Y-52561904D01*
X109154819Y-51561904D02*
X109154819Y-52133332D01*
X109154819Y-51847618D02*
X108154819Y-51847618D01*
X108154819Y-51847618D02*
X108297676Y-51942856D01*
X108297676Y-51942856D02*
X108392914Y-52038094D01*
X108392914Y-52038094D02*
X108440533Y-52133332D01*
X108154819Y-51228570D02*
X108154819Y-50609523D01*
X108154819Y-50609523D02*
X108535771Y-50942856D01*
X108535771Y-50942856D02*
X108535771Y-50799999D01*
X108535771Y-50799999D02*
X108583390Y-50704761D01*
X108583390Y-50704761D02*
X108631009Y-50657142D01*
X108631009Y-50657142D02*
X108726247Y-50609523D01*
X108726247Y-50609523D02*
X108964342Y-50609523D01*
X108964342Y-50609523D02*
X109059580Y-50657142D01*
X109059580Y-50657142D02*
X109107200Y-50704761D01*
X109107200Y-50704761D02*
X109154819Y-50799999D01*
X109154819Y-50799999D02*
X109154819Y-51085713D01*
X109154819Y-51085713D02*
X109107200Y-51180951D01*
X109107200Y-51180951D02*
X109059580Y-51228570D01*
D11*
%TO.C,J2*%
X66650000Y-61600000D02*
X66650000Y-56100000D01*
X71650000Y-61600000D02*
X71650000Y-56100000D01*
X65260000Y-50490000D02*
X65260000Y-54990000D01*
X69150000Y-56100000D02*
X68650000Y-56100000D01*
X63840000Y-50490000D02*
X65260000Y-50490000D01*
X66150000Y-56100000D02*
X66150000Y-61600000D01*
X68900000Y-62210000D02*
X73960000Y-62210000D01*
X73960000Y-62210000D02*
X73960000Y-50490000D01*
X66650000Y-56100000D02*
X66150000Y-56100000D01*
X66700000Y-52400000D02*
X66400000Y-53000000D01*
X68900000Y-62210000D02*
X63840000Y-62210000D01*
X71150000Y-61600000D02*
X71650000Y-61600000D01*
X71650000Y-56100000D02*
X71150000Y-56100000D01*
X63840000Y-62210000D02*
X63840000Y-50490000D01*
X69150000Y-61600000D02*
X69150000Y-56100000D01*
X73960000Y-50490000D02*
X72540000Y-50490000D01*
X72540000Y-50490000D02*
X72540000Y-54990000D01*
X71150000Y-56100000D02*
X71150000Y-61600000D01*
X68650000Y-56100000D02*
X68650000Y-61600000D01*
X66100000Y-52400000D02*
X66700000Y-52400000D01*
X66150000Y-61600000D02*
X66650000Y-61600000D01*
X68650000Y-61600000D02*
X69150000Y-61600000D01*
X66400000Y-53000000D02*
X66100000Y-52400000D01*
D10*
%TO.C,Switch6*%
X152910000Y-69150000D02*
X152910000Y-69850000D01*
X157990000Y-69150000D02*
X157990000Y-69850000D01*
X151325000Y-71950000D02*
X159575000Y-71950000D01*
X155450000Y-69150000D02*
X155450000Y-69850000D01*
X152910000Y-71700000D02*
X152910000Y-71950000D01*
X157990000Y-71950000D02*
X157990000Y-71700000D01*
X155450000Y-71700000D02*
X155450000Y-71950000D01*
X151325000Y-71950000D02*
X151325000Y-79950000D01*
X159575000Y-71950000D02*
X159575000Y-79950000D01*
X151325000Y-79955000D02*
X159575000Y-79955000D01*
%TO.C,Switch5*%
X132910000Y-69150000D02*
X132910000Y-69850000D01*
X137990000Y-69150000D02*
X137990000Y-69850000D01*
X131325000Y-71950000D02*
X139575000Y-71950000D01*
X135450000Y-69150000D02*
X135450000Y-69850000D01*
X132910000Y-71700000D02*
X132910000Y-71950000D01*
X137990000Y-71950000D02*
X137990000Y-71700000D01*
X135450000Y-71700000D02*
X135450000Y-71950000D01*
X131325000Y-71950000D02*
X131325000Y-79950000D01*
X139575000Y-71950000D02*
X139575000Y-79950000D01*
X131325000Y-79955000D02*
X139575000Y-79955000D01*
%TO.C,Switch4*%
X112910000Y-69150000D02*
X112910000Y-69850000D01*
X117990000Y-69150000D02*
X117990000Y-69850000D01*
X111325000Y-71950000D02*
X119575000Y-71950000D01*
X115450000Y-69150000D02*
X115450000Y-69850000D01*
X112910000Y-71700000D02*
X112910000Y-71950000D01*
X117990000Y-71950000D02*
X117990000Y-71700000D01*
X115450000Y-71700000D02*
X115450000Y-71950000D01*
X111325000Y-71950000D02*
X111325000Y-79950000D01*
X119575000Y-71950000D02*
X119575000Y-79950000D01*
X111325000Y-79955000D02*
X119575000Y-79955000D01*
%TO.C,Switch3*%
X91325000Y-79955000D02*
X99575000Y-79955000D01*
X99575000Y-71950000D02*
X99575000Y-79950000D01*
X91325000Y-71950000D02*
X91325000Y-79950000D01*
X95450000Y-71700000D02*
X95450000Y-71950000D01*
X97990000Y-71950000D02*
X97990000Y-71700000D01*
X92910000Y-71700000D02*
X92910000Y-71950000D01*
X95450000Y-69150000D02*
X95450000Y-69850000D01*
X91325000Y-71950000D02*
X99575000Y-71950000D01*
X97990000Y-69150000D02*
X97990000Y-69850000D01*
X92910000Y-69150000D02*
X92910000Y-69850000D01*
%TO.C,Switch2*%
X73060000Y-69150000D02*
X73060000Y-69850000D01*
X78140000Y-69150000D02*
X78140000Y-69850000D01*
X71475000Y-71950000D02*
X79725000Y-71950000D01*
X75600000Y-69150000D02*
X75600000Y-69850000D01*
X73060000Y-71700000D02*
X73060000Y-71950000D01*
X78140000Y-71950000D02*
X78140000Y-71700000D01*
X75600000Y-71700000D02*
X75600000Y-71950000D01*
X71475000Y-71950000D02*
X71475000Y-79950000D01*
X79725000Y-71950000D02*
X79725000Y-79950000D01*
X71475000Y-79955000D02*
X79725000Y-79955000D01*
%TO.C,Switch1*%
X51675000Y-79955000D02*
X59925000Y-79955000D01*
X59925000Y-71950000D02*
X59925000Y-79950000D01*
X51675000Y-71950000D02*
X51675000Y-79950000D01*
X55800000Y-71700000D02*
X55800000Y-71950000D01*
X58340000Y-71950000D02*
X58340000Y-71700000D01*
X53260000Y-71700000D02*
X53260000Y-71950000D01*
X55800000Y-69150000D02*
X55800000Y-69850000D01*
X51675000Y-71950000D02*
X59925000Y-71950000D01*
X58340000Y-69150000D02*
X58340000Y-69850000D01*
X53260000Y-69150000D02*
X53260000Y-69850000D01*
D11*
%TO.C,R6*%
X163950000Y-63230000D02*
X154710000Y-63230000D01*
X163950000Y-66670000D02*
X163950000Y-63230000D01*
X154710000Y-66670000D02*
X163950000Y-66670000D01*
X165910000Y-64950000D02*
X163950000Y-64950000D01*
X154710000Y-63230000D02*
X154710000Y-66670000D01*
X152750000Y-64950000D02*
X154710000Y-64950000D01*
%TO.C,R5*%
X132750000Y-64950000D02*
X134710000Y-64950000D01*
X134710000Y-63230000D02*
X134710000Y-66670000D01*
X145910000Y-64950000D02*
X143950000Y-64950000D01*
X134710000Y-66670000D02*
X143950000Y-66670000D01*
X143950000Y-66670000D02*
X143950000Y-63230000D01*
X143950000Y-63230000D02*
X134710000Y-63230000D01*
%TO.C,R4*%
X112750000Y-64950000D02*
X114710000Y-64950000D01*
X114710000Y-63230000D02*
X114710000Y-66670000D01*
X125910000Y-64950000D02*
X123950000Y-64950000D01*
X114710000Y-66670000D02*
X123950000Y-66670000D01*
X123950000Y-66670000D02*
X123950000Y-63230000D01*
X123950000Y-63230000D02*
X114710000Y-63230000D01*
%TO.C,R3*%
X92750000Y-64950000D02*
X94710000Y-64950000D01*
X94710000Y-63230000D02*
X94710000Y-66670000D01*
X105910000Y-64950000D02*
X103950000Y-64950000D01*
X94710000Y-66670000D02*
X103950000Y-66670000D01*
X103950000Y-66670000D02*
X103950000Y-63230000D01*
X103950000Y-63230000D02*
X94710000Y-63230000D01*
%TO.C,R2*%
X72750000Y-64950000D02*
X74710000Y-64950000D01*
X74710000Y-63230000D02*
X74710000Y-66670000D01*
X85910000Y-64950000D02*
X83950000Y-64950000D01*
X74710000Y-66670000D02*
X83950000Y-66670000D01*
X83950000Y-66670000D02*
X83950000Y-63230000D01*
X83950000Y-63230000D02*
X74710000Y-63230000D01*
%TO.C,R1*%
X52750000Y-64950000D02*
X54710000Y-64950000D01*
X54710000Y-63230000D02*
X54710000Y-66670000D01*
X65910000Y-64950000D02*
X63950000Y-64950000D01*
X54710000Y-66670000D02*
X63950000Y-66670000D01*
X63950000Y-66670000D02*
X63950000Y-63230000D01*
X63950000Y-63230000D02*
X54710000Y-63230000D01*
%TO.C,D5*%
X145740000Y-71186000D02*
X145740000Y-71030000D01*
X145740000Y-68870000D02*
X145740000Y-68714000D01*
X143138871Y-71029836D02*
G75*
G03*
X145220960Y-71029999I1041129J1079836D01*
G01*
X145739999Y-68714485D02*
G75*
G03*
X142507666Y-68871392I-1559999J-1235515D01*
G01*
X145220960Y-68870001D02*
G75*
G03*
X143138871Y-68870164I-1040960J-1079999D01*
G01*
X142507666Y-71028608D02*
G75*
G03*
X145739999Y-71185515I1672334J1078608D01*
G01*
%TO.C,D3*%
X105740000Y-71186000D02*
X105740000Y-71030000D01*
X105740000Y-68870000D02*
X105740000Y-68714000D01*
X103138871Y-71029836D02*
G75*
G03*
X105220960Y-71029999I1041129J1079836D01*
G01*
X105739999Y-68714485D02*
G75*
G03*
X102507666Y-68871392I-1559999J-1235515D01*
G01*
X105220960Y-68870001D02*
G75*
G03*
X103138871Y-68870164I-1040960J-1079999D01*
G01*
X102507666Y-71028608D02*
G75*
G03*
X105739999Y-71185515I1672334J1078608D01*
G01*
%TO.C,D2*%
X82507666Y-71028608D02*
G75*
G03*
X85739999Y-71185515I1672334J1078608D01*
G01*
X85220960Y-68870001D02*
G75*
G03*
X83138871Y-68870164I-1040960J-1079999D01*
G01*
X85739999Y-68714485D02*
G75*
G03*
X82507666Y-68871392I-1559999J-1235515D01*
G01*
X83138871Y-71029836D02*
G75*
G03*
X85220960Y-71029999I1041129J1079836D01*
G01*
X85740000Y-68870000D02*
X85740000Y-68714000D01*
X85740000Y-71186000D02*
X85740000Y-71030000D01*
%TO.C,D6*%
X165740000Y-71186000D02*
X165740000Y-71030000D01*
X165740000Y-68870000D02*
X165740000Y-68714000D01*
X163138871Y-71029836D02*
G75*
G03*
X165220960Y-71029999I1041129J1079836D01*
G01*
X165739999Y-68714485D02*
G75*
G03*
X162507666Y-68871392I-1559999J-1235515D01*
G01*
X165220960Y-68870001D02*
G75*
G03*
X163138871Y-68870164I-1040960J-1079999D01*
G01*
X162507666Y-71028608D02*
G75*
G03*
X165739999Y-71185515I1672334J1078608D01*
G01*
%TO.C,D4*%
X122557666Y-71028608D02*
G75*
G03*
X125789999Y-71185515I1672334J1078608D01*
G01*
X125270960Y-68870001D02*
G75*
G03*
X123188871Y-68870164I-1040960J-1079999D01*
G01*
X125789999Y-68714485D02*
G75*
G03*
X122557666Y-68871392I-1559999J-1235515D01*
G01*
X123188871Y-71029836D02*
G75*
G03*
X125270960Y-71029999I1041129J1079836D01*
G01*
X125790000Y-68870000D02*
X125790000Y-68714000D01*
X125790000Y-71186000D02*
X125790000Y-71030000D01*
%TO.C,D1*%
X65740000Y-71186000D02*
X65740000Y-71030000D01*
X65740000Y-68870000D02*
X65740000Y-68714000D01*
X63138871Y-71029836D02*
G75*
G03*
X65220960Y-71029999I1041129J1079836D01*
G01*
X65739999Y-68714485D02*
G75*
G03*
X62507666Y-68871392I-1559999J-1235515D01*
G01*
X65220960Y-68870001D02*
G75*
G03*
X63138871Y-68870164I-1040960J-1079999D01*
G01*
X62507666Y-71028608D02*
G75*
G03*
X65739999Y-71185515I1672334J1078608D01*
G01*
%TO.C,J10*%
X132940000Y-50490000D02*
X134360000Y-50490000D01*
X132940000Y-62210000D02*
X132940000Y-50490000D01*
X134360000Y-50490000D02*
X134360000Y-54990000D01*
X135200000Y-52400000D02*
X135800000Y-52400000D01*
X135250000Y-56100000D02*
X135250000Y-61600000D01*
X135250000Y-61600000D02*
X135750000Y-61600000D01*
X135500000Y-53000000D02*
X135200000Y-52400000D01*
X135750000Y-56100000D02*
X135250000Y-56100000D01*
X135750000Y-61600000D02*
X135750000Y-56100000D01*
X135800000Y-52400000D02*
X135500000Y-53000000D01*
X137750000Y-56100000D02*
X137750000Y-61600000D01*
X137750000Y-61600000D02*
X138250000Y-61600000D01*
X138250000Y-56100000D02*
X137750000Y-56100000D01*
X138250000Y-61600000D02*
X138250000Y-56100000D01*
X140250000Y-56100000D02*
X140250000Y-61600000D01*
X140250000Y-61600000D02*
X140750000Y-61600000D01*
X140750000Y-56100000D02*
X140250000Y-56100000D01*
X140750000Y-61600000D02*
X140750000Y-56100000D01*
X142750000Y-56100000D02*
X142750000Y-61600000D01*
X142750000Y-61600000D02*
X143250000Y-61600000D01*
X143000000Y-62210000D02*
X132940000Y-62210000D01*
X143000000Y-62210000D02*
X153060000Y-62210000D01*
X143250000Y-56100000D02*
X142750000Y-56100000D01*
X143250000Y-61600000D02*
X143250000Y-56100000D01*
X145250000Y-56100000D02*
X145250000Y-61600000D01*
X145250000Y-61600000D02*
X145750000Y-61600000D01*
X145750000Y-56100000D02*
X145250000Y-56100000D01*
X145750000Y-61600000D02*
X145750000Y-56100000D01*
X147750000Y-56100000D02*
X147750000Y-61600000D01*
X147750000Y-61600000D02*
X148250000Y-61600000D01*
X148250000Y-56100000D02*
X147750000Y-56100000D01*
X148250000Y-61600000D02*
X148250000Y-56100000D01*
X150250000Y-56100000D02*
X150250000Y-61600000D01*
X150250000Y-61600000D02*
X150750000Y-61600000D01*
X150750000Y-56100000D02*
X150250000Y-56100000D01*
X150750000Y-61600000D02*
X150750000Y-56100000D01*
X151640000Y-50490000D02*
X151640000Y-54990000D01*
X153060000Y-50490000D02*
X151640000Y-50490000D01*
X153060000Y-62210000D02*
X153060000Y-50490000D01*
%TO.C,J9*%
X109940000Y-50490000D02*
X111360000Y-50490000D01*
X109940000Y-62210000D02*
X109940000Y-50490000D01*
X111360000Y-50490000D02*
X111360000Y-54990000D01*
X112200000Y-52400000D02*
X112800000Y-52400000D01*
X112250000Y-56100000D02*
X112250000Y-61600000D01*
X112250000Y-61600000D02*
X112750000Y-61600000D01*
X112500000Y-53000000D02*
X112200000Y-52400000D01*
X112750000Y-56100000D02*
X112250000Y-56100000D01*
X112750000Y-61600000D02*
X112750000Y-56100000D01*
X112800000Y-52400000D02*
X112500000Y-53000000D01*
X114750000Y-56100000D02*
X114750000Y-61600000D01*
X114750000Y-61600000D02*
X115250000Y-61600000D01*
X115250000Y-56100000D02*
X114750000Y-56100000D01*
X115250000Y-61600000D02*
X115250000Y-56100000D01*
X117250000Y-56100000D02*
X117250000Y-61600000D01*
X117250000Y-61600000D02*
X117750000Y-61600000D01*
X117750000Y-56100000D02*
X117250000Y-56100000D01*
X117750000Y-61600000D02*
X117750000Y-56100000D01*
X119750000Y-56100000D02*
X119750000Y-61600000D01*
X119750000Y-61600000D02*
X120250000Y-61600000D01*
X120000000Y-62210000D02*
X109940000Y-62210000D01*
X120000000Y-62210000D02*
X130060000Y-62210000D01*
X120250000Y-56100000D02*
X119750000Y-56100000D01*
X120250000Y-61600000D02*
X120250000Y-56100000D01*
X122250000Y-56100000D02*
X122250000Y-61600000D01*
X122250000Y-61600000D02*
X122750000Y-61600000D01*
X122750000Y-56100000D02*
X122250000Y-56100000D01*
X122750000Y-61600000D02*
X122750000Y-56100000D01*
X124750000Y-56100000D02*
X124750000Y-61600000D01*
X124750000Y-61600000D02*
X125250000Y-61600000D01*
X125250000Y-56100000D02*
X124750000Y-56100000D01*
X125250000Y-61600000D02*
X125250000Y-56100000D01*
X127250000Y-56100000D02*
X127250000Y-61600000D01*
X127250000Y-61600000D02*
X127750000Y-61600000D01*
X127750000Y-56100000D02*
X127250000Y-56100000D01*
X127750000Y-61600000D02*
X127750000Y-56100000D01*
X128640000Y-50490000D02*
X128640000Y-54990000D01*
X130060000Y-50490000D02*
X128640000Y-50490000D01*
X130060000Y-62210000D02*
X130060000Y-50490000D01*
%TO.C,J8*%
X87440000Y-50490000D02*
X88860000Y-50490000D01*
X87440000Y-62210000D02*
X87440000Y-50490000D01*
X88860000Y-50490000D02*
X88860000Y-54990000D01*
X89700000Y-52400000D02*
X90300000Y-52400000D01*
X89750000Y-56100000D02*
X89750000Y-61600000D01*
X89750000Y-61600000D02*
X90250000Y-61600000D01*
X90000000Y-53000000D02*
X89700000Y-52400000D01*
X90250000Y-56100000D02*
X89750000Y-56100000D01*
X90250000Y-61600000D02*
X90250000Y-56100000D01*
X90300000Y-52400000D02*
X90000000Y-53000000D01*
X92250000Y-56100000D02*
X92250000Y-61600000D01*
X92250000Y-61600000D02*
X92750000Y-61600000D01*
X92750000Y-56100000D02*
X92250000Y-56100000D01*
X92750000Y-61600000D02*
X92750000Y-56100000D01*
X94750000Y-56100000D02*
X94750000Y-61600000D01*
X94750000Y-61600000D02*
X95250000Y-61600000D01*
X95250000Y-56100000D02*
X94750000Y-56100000D01*
X95250000Y-61600000D02*
X95250000Y-56100000D01*
X97250000Y-56100000D02*
X97250000Y-61600000D01*
X97250000Y-61600000D02*
X97750000Y-61600000D01*
X97500000Y-62210000D02*
X87440000Y-62210000D01*
X97500000Y-62210000D02*
X107560000Y-62210000D01*
X97750000Y-56100000D02*
X97250000Y-56100000D01*
X97750000Y-61600000D02*
X97750000Y-56100000D01*
X99750000Y-56100000D02*
X99750000Y-61600000D01*
X99750000Y-61600000D02*
X100250000Y-61600000D01*
X100250000Y-56100000D02*
X99750000Y-56100000D01*
X100250000Y-61600000D02*
X100250000Y-56100000D01*
X102250000Y-56100000D02*
X102250000Y-61600000D01*
X102250000Y-61600000D02*
X102750000Y-61600000D01*
X102750000Y-56100000D02*
X102250000Y-56100000D01*
X102750000Y-61600000D02*
X102750000Y-56100000D01*
X104750000Y-56100000D02*
X104750000Y-61600000D01*
X104750000Y-61600000D02*
X105250000Y-61600000D01*
X105250000Y-56100000D02*
X104750000Y-56100000D01*
X105250000Y-61600000D02*
X105250000Y-56100000D01*
X106140000Y-50490000D02*
X106140000Y-54990000D01*
X107560000Y-50490000D02*
X106140000Y-50490000D01*
X107560000Y-62210000D02*
X107560000Y-50490000D01*
%TD*%
M02*
